# Exported using wow.export v0.1.49
o 
mtllib elvenpottery01.mtl
v 0.35972830653190613 2.5949885845184326 0.23466666042804718
v 0.012991009280085564 2.0048654079437256 -0.008538520894944668
v 0.013722516596317291 2.5667505264282227 0.45953312516212463
v 0.013722516596317291 2.5667505264282227 0.45953312516212463
v 0.012991009280085564 2.0048654079437256 -0.008538520894944668
v -0.33301490545272827 2.554196357727051 0.23466677963733673
v -0.33374637365341187 2.5698800086975098 -0.21506597101688385
v 0.012259433045983315 2.5981175899505615 -0.43993234634399414
v 0.35899674892425537 2.6106722354888916 -0.21506604552268982
v 0.35972830653190613 2.5949885845184326 0.23466666042804718
v 0.012991008348762989 -0.055657584220170975 -0.008973568677902222
v 0.3516024649143219 -0.05565759167075157 0.21068702638149261
v 0.012991045601665974 -0.05565759167075157 0.4303477704524994
v -0.3256203532218933 -0.05565759167075157 0.21068711578845978
v -0.3256203532218933 -0.05565759167075157 -0.2286342829465866
v 0.35160237550735474 -0.05565759167075157 -0.2286342829465866
v 0.012991008348762989 -0.05565759167075157 -0.44829484820365906
v -0.21568164229393005 2.090113401412964 -0.1551983505487442
v -0.33301490545272827 2.554196357727051 0.23466677963733673
v -0.33374637365341187 2.5698800086975098 -0.21506597101688385
v 0.01250856090337038 2.108736276626587 -0.3034972846508026
v -0.21519920229911804 2.07977032661438 0.14139944314956665
v 0.013722516596317291 2.5667505264282227 0.45953312516212463
v 0.013473461382091045 2.0880496501922607 0.28969839215278625
v 0.35972830653190613 2.5949885845184326 0.23466666042804718
v 0.24166369438171387 2.106672525405884 0.14139942824840546
v 0.35899674892425537 2.6106722354888916 -0.21506604552268982
v 0.24118119478225708 2.117016077041626 -0.15519841015338898
v 0.012259433045983315 2.5981175899505615 -0.43993234634399414
v -0.4544445276260376 0.34461283683776855 0.2731516659259796
v 0.013473461382091045 2.0880496501922607 0.28969839215278625
v -0.21519920229911804 2.07977032661438 0.14139944314956665
v -0.4544445276260376 0.3657778799533844 -0.3329397737979889
v 0.012991049326956272 0.33403024077415466 0.576197624206543
v 0.24166369438171387 2.106672525405884 0.14139942824840546
v 0.4804265797138214 0.34461283683776855 0.27315154671669006
v 0.24118119478225708 2.117016077041626 -0.15519841015338898
v 0.4804264307022095 0.36577796936035156 -0.33293986320495605
v 0.01250856090337038 2.108736276626587 -0.3034972846508026
v 0.012991001829504967 0.37636086344718933 -0.6359855532646179
v -0.21568164229393005 2.090113401412964 -0.1551983505487442
v 0.3516024649143219 -0.05565759167075157 0.21068702638149261
v 0.4804264307022095 0.36577796936035156 -0.33293986320495605
v 0.4804265797138214 0.34461283683776855 0.27315154671669006
v 0.012991045601665974 -0.05565759167075157 0.4303477704524994
v 0.35160237550735474 -0.05565759167075157 -0.2286342829465866
v 0.012991001829504967 0.37636086344718933 -0.6359855532646179
v 0.012991008348762989 -0.05565759167075157 -0.44829484820365906
v -0.4544445276260376 0.3657778799533844 -0.3329397737979889
v -0.3256203532218933 -0.05565759167075157 -0.2286342829465866
v -0.4544445276260376 0.34461283683776855 0.2731516659259796
v -0.3256203532218933 -0.05565759167075157 0.21068711578845978
v 0.012991049326956272 0.33403024077415466 0.576197624206543
v 0.020458737388253212 1.1188548803329468 0.406970739364624
v 0.053431905806064606 1.246484637260437 0.319253146648407
v 0.06277453154325485 1.559838056564331 0.6383132934570312
v 0.10498012602329254 1.539117455482483 0.44116950035095215
v 0.06277453899383545 1.8752386569976807 0.6513208746910095
v 0.10498014837503433 1.8425214290618896 0.4558098018169403
v 0.057633526623249054 2.117263078689575 0.37141144275665283
v 0.08936703205108643 2.11980938911438 0.1871824711561203
v 0.057633545249700546 2.4146389961242676 0.30375760793685913
v -0.020836859941482544 2.12253737449646 0.21313655376434326
v -0.04159108176827431 1.8482500314712524 0.4900428354740143
v -0.04159107431769371 1.542745590209961 0.47568845748901367
v -0.061076872050762177 1.224137306213379 0.3346121311187744
v 0.057633381336927414 2.117263078689575 -0.40560993552207947
v 0.05763338878750801 2.414639472961426 -0.33795613050460815
v 0.08936689049005508 2.11980938911438 -0.22138100862503052
v 0.1049799844622612 1.8425214290618896 -0.4900083541870117
v 0.0627744123339653 1.8752386569976807 -0.6855194568634033
v 0.1049799695611 1.539117455482483 -0.47536808252334595
v 0.06277439743280411 1.559838056564331 -0.6725118160247803
v 0.07743556797504425 1.2442935705184937 -0.36907950043678284
v 0.04446246847510338 1.1222567558288574 -0.46442508697509766
v -0.03707316517829895 1.2229255437850952 -0.3857741057872772
v -0.04159121960401535 1.542745590209961 -0.5098870396614075
v -0.041591208428144455 1.8482500314712524 -0.5242413878440857
v -0.02083701267838478 2.122537612915039 -0.2473350614309311
v -0.33301490545272827 2.554196357727051 0.23466677963733673
v -0.33374637365341187 2.5698800086975098 -0.21506597101688385
v 0.012259433045983315 2.5981175899505615 -0.43993234634399414
v 0.35899674892425537 2.6106722354888916 -0.21506604552268982
vn 0.6227794289588928 0.25972047448158264 0.7380318641662598
vn -0.019049998372793198 0.9996247291564941 0.01968488097190857
vn -0.39693790674209595 0.2541395127773285 0.8819599747657776
vn -0.39693790674209595 0.2541395127773285 0.8819599747657776
vn -0.019049998372793198 0.9996247291564941 0.01968488097190857
vn -0.9320427179336548 0.33538544178009033 0.1371603012084961
vn -0.6066365838050842 0.3805724084377289 -0.6979661583900452
vn 0.3664524555206299 0.4014970064163208 -0.839352548122406
vn 0.9242855906486511 0.35851845145225525 -0.13099874556064606
vn 0.6227794289588928 0.25972047448158264 0.7380318641662598
vn 0 -1 0
vn 0.4255412220954895 -0.894217312335968 0.138888880610466
vn 0.09282837808132172 -0.9010705947875977 0.42362090945243835
vn -0.34812265634536743 -0.894839346408844 0.2794157862663269
vn -0.41447362303733826 -0.9000425338745117 -0.13466642796993256
vn 0.3345007002353668 -0.9042839407920837 -0.26529204845428467
vn -0.08388353139162064 -0.9149295091629028 -0.3948006331920624
vn -0.8719115257263184 -0.10418616235256195 -0.4784511625766754
vn -0.9320427179336548 0.33538544178009033 0.1371603012084961
vn -0.6066365838050842 0.3805724084377289 -0.6979661583900452
vn 0.007307977881282568 -0.09096690267324448 -0.9958270788192749
vn -0.8697115778923035 -0.1622733771800995 0.4661213159561157
vn -0.39693790674209595 0.2541395127773285 0.8819599747657776
vn -0.00038978640804998577 -0.1858261525630951 0.9825825691223145
vn 0.6227794289588928 0.25972047448158264 0.7380318641662598
vn 0.8715705871582031 -0.13911442458629608 0.47011905908584595
vn 0.9242855906486511 0.35851845145225525 -0.13099874556064606
vn 0.8760206699371338 -0.10602007806301117 -0.4704759120941162
vn 0.3664524555206299 0.4014970064163208 -0.839352548122406
vn -0.8594318628311157 -0.19385947287082672 0.4730701148509979
vn -0.00038978640804998577 -0.1858261525630951 0.9825825691223145
vn -0.8697115778923035 -0.1622733771800995 0.4661213159561157
vn -0.8633566498756409 -0.2202640026807785 -0.4539813697338104
vn 0.006532630417495966 -0.20284855365753174 0.9791883230209351
vn 0.8715705871582031 -0.13911442458629608 0.47011905908584595
vn 0.8648310303688049 -0.19700103998184204 0.4617984890937805
vn 0.8760206699371338 -0.10602007806301117 -0.4704759120941162
vn 0.8589864373207092 -0.19758129119873047 -0.4723387658596039
vn 0.007307977881282568 -0.09096690267324448 -0.9958270788192749
vn -0.013096562586724758 -0.23105844855308533 -0.9728516936302185
vn -0.8719115257263184 -0.10418616235256195 -0.4784511625766754
vn 0.4255412220954895 -0.894217312335968 0.138888880610466
vn 0.8589864373207092 -0.19758129119873047 -0.4723387658596039
vn 0.8648310303688049 -0.19700103998184204 0.4617984890937805
vn 0.09282837808132172 -0.9010705947875977 0.42362090945243835
vn 0.3345007002353668 -0.9042839407920837 -0.26529204845428467
vn -0.013096562586724758 -0.23105844855308533 -0.9728516936302185
vn -0.08388353139162064 -0.9149295091629028 -0.3948006331920624
vn -0.8633566498756409 -0.2202640026807785 -0.4539813697338104
vn -0.41447362303733826 -0.9000425338745117 -0.13466642796993256
vn -0.8594318628311157 -0.19385947287082672 0.4730701148509979
vn -0.34812265634536743 -0.894839346408844 0.2794157862663269
vn 0.006532630417495966 -0.20284855365753174 0.9791883230209351
vn 0.17696836590766907 -0.761823296546936 0.623143196105957
vn 0.8864590525627136 -0.43215468525886536 0.1656280755996704
vn 0.1490289866924286 -0.6429967284202576 0.7512294054031372
vn 0.9560183882713318 -0.19957710802555084 0.21493664383888245
vn 0.21356534957885742 0.5080322623252869 0.8344417810440063
vn 0.9366503953933716 0.3012954890727997 0.17862553894519806
vn 0.16356708109378815 0.8674968481063843 0.46978190541267395
vn 0.9475721716880798 0.2736894190311432 0.1649274379014969
vn 0.14336177706718445 0.44541582465171814 0.883771538734436
vn -0.7495672702789307 0.5421403646469116 0.3797799050807953
vn -0.7101926803588867 0.5728445649147034 0.4092376232147217
vn -0.8241898417472839 -0.1732187271118164 0.5391719341278076
vn -0.7448446750640869 -0.4239146411418915 0.5152696371078491
vn 0.16356727480888367 0.8674967288970947 -0.4697820246219635
vn 0.14336185157299042 0.4454154372215271 -0.8837717175483704
vn 0.9475721716880798 0.2736894190311432 -0.16492745280265808
vn 0.9366504549980164 0.3012953996658325 -0.17862540483474731
vn 0.21356545388698578 0.5080323219299316 -0.8344417214393616
vn 0.9670094847679138 -0.13764876127243042 -0.21434907615184784
vn 0.1703094244003296 -0.5968366861343384 -0.7840794920921326
vn 0.9297162294387817 -0.31405580043792725 -0.19234523177146912
vn 0.17509441077709198 -0.7217188477516174 -0.6696743965148926
vn -0.7387939691543579 -0.4540039300918579 -0.4980601668357849
vn -0.8203567862510681 -0.19458793103694916 -0.5377269983291626
vn -0.7101923823356628 0.5728448629379272 -0.4092377722263336
vn -0.7495670318603516 0.5421404838562012 -0.37978020310401917
vn -0.9320427179336548 0.33538544178009033 0.1371603012084961
vn -0.6066365838050842 0.3805724084377289 -0.6979661583900452
vn 0.3664524555206299 0.4014970064163208 -0.839352548122406
vn 0.9242855906486511 0.35851845145225525 -0.13099874556064606
vt 0.745153546333313 0.6207303404808044
vt 0.701331377029419 0.5860962867736816
vt 0.6609205007553101 0.6200078129768372
vt 0.6597833633422852 0.6207303404808044
vt 0.7036056518554688 0.5860962867736816
vt 0.7440164089202881 0.6200078129768372
vt 0.6597833633422852 0.6207303404808044
vt 0.7440164089202881 0.6200078129768372
vt 0.6597833633422852 0.6207303404808044
vt 0.7440164089202881 0.6200078129768372
vt 0.5417420268058777 0.5670768618583679
vt 0.5050538182258606 0.6091933846473694
vt 0.5050538182258606 0.5249603390693665
vt 0.5050538182258606 0.6091933846473694
vt 0.5050538182258606 0.5249603390693665
vt 0.5050538182258606 0.5249603390693665
vt 0.5050538182258606 0.6091933846473694
vt 0.5550063848495483 0.5752679705619812
vt 0.6331201791763306 0.4256860017776489
vt 0.6331201791763306 0.575269877910614
vt 0.554990291595459 0.4256860017776489
vt 0.554990291595459 0.4256860017776489
vt 0.6331201791763306 0.5752337574958801
vt 0.554990291595459 0.5752337574958801
vt 0.6331683397293091 0.42564380168914795
vt 0.5550384521484375 0.42564380168914795
vt 0.6331201791763306 0.5752337574958801
vt 0.554990291595459 0.5752337574958801
vt 0.6331201791763306 0.4256860017776489
vt 0.9894698262214661 0.44259417057037354
vt 0.5425894260406494 0.59214186668396
vt 0.5425894260406494 0.44259417057037354
vt 0.9894458651542664 0.5921750068664551
vt 0.9894698262214661 0.59214186668396
vt 0.5425413846969604 0.44255197048187256
vt 0.9894217848777771 0.44255197048187256
vt 0.5425894260406494 0.59214186668396
vt 0.9894698262214661 0.59214186668396
vt 0.5425894260406494 0.44259417057037354
vt 0.9894698262214661 0.44259417057037354
vt 0.5425894260406494 0.5921779870986938
vt 0.501654326915741 0.44255197048187256
vt 0.6392282247543335 0.59214186668396
vt 0.6391801834106445 0.44255197048187256
vt 0.5017024874687195 0.59214186668396
vt 0.5017024874687195 0.59214186668396
vt 0.6392282247543335 0.44259417057037354
vt 0.5017024874687195 0.44259417057037354
vt 0.6392042636871338 0.5921750068664551
vt 0.5016863942146301 0.592176079750061
vt 0.6392282247543335 0.44259417057037354
vt 0.5017024874687195 0.44259417057037354
vt 0.6392282247543335 0.59214186668396
vt 0.9263740181922913 0.5626242160797119
vt 0.9263738393783569 0.6235828995704651
vt 0.8552737236022949 0.5626241564750671
vt 0.8552737236022949 0.6235827207565308
vt 0.7841734290122986 0.5626239776611328
vt 0.7841734290122986 0.623582661151886
vt 0.7130732536315918 0.5626238584518433
vt 0.7130732536315918 0.6235825419425964
vt 0.641973078250885 0.5626237392425537
vt 0.7130732536315918 0.6235825419425964
vt 0.7841734290122986 0.623582661151886
vt 0.8552737236022949 0.6235827207565308
vt 0.9263738393783569 0.6235828995704651
vt 0.7130732536315918 0.5626238584518433
vt 0.641973078250885 0.5626237392425537
vt 0.7130732536315918 0.6235825419425964
vt 0.7841734290122986 0.623582661151886
vt 0.7841734290122986 0.5626239776611328
vt 0.8552737236022949 0.6235827207565308
vt 0.8552737236022949 0.5626241564750671
vt 0.9263738393783569 0.6235828995704651
vt 0.9263740181922913 0.5626242160797119
vt 0.9263738393783569 0.6235828995704651
vt 0.8552737236022949 0.6235827207565308
vt 0.7841734290122986 0.623582661151886
vt 0.7130732536315918 0.6235825419425964
vt 0.745153546333313 0.6207303404808044
vt 0.6609205007553101 0.6200078129768372
vt 0.745153546333313 0.6207303404808044
vt 0.6609205007553101 0.6200078129768372
g Geoset0
s 1
usemtl mat_elfgate_wood01
f 1/1/1 2/2/2 3/3/3
f 4/4/4 5/5/5 6/6/6
f 7/7/7 5/5/5 8/8/8
f 9/9/9 5/5/5 10/10/10
f 11/11/11 12/12/12 13/13/13
f 11/11/11 13/13/13 14/14/14
f 11/11/11 14/14/14 15/15/15
f 11/11/11 16/16/16 12/12/12
f 11/11/11 17/17/17 16/16/16
f 11/11/11 15/15/15 17/17/17
f 18/18/18 19/19/19 20/20/20
f 21/21/21 18/18/18 20/20/20
f 18/18/18 22/22/22 19/19/19
f 22/22/22 23/23/23 19/19/19
f 22/22/22 24/24/24 23/23/23
f 24/24/24 25/25/25 23/23/23
f 24/24/24 26/26/26 25/25/25
f 26/26/26 27/27/27 25/25/25
f 26/26/26 28/28/28 27/27/27
f 28/28/28 29/29/29 27/27/27
f 28/28/28 21/21/21 29/29/29
f 21/21/21 20/20/20 29/29/29
f 30/30/30 31/31/31 32/32/32
f 33/33/33 30/30/30 32/32/32
f 30/30/30 34/34/34 31/31/31
f 34/34/34 35/35/35 31/31/31
f 34/34/34 36/36/36 35/35/35
f 36/36/36 37/37/37 35/35/35
f 36/36/36 38/38/38 37/37/37
f 38/38/38 39/39/39 37/37/37
f 38/38/38 40/40/40 39/39/39
f 40/40/40 41/41/41 39/39/39
f 40/40/40 33/33/33 41/41/41
f 33/33/33 32/32/32 41/41/41
f 42/42/42 43/43/43 44/44/44
f 45/45/45 42/42/42 44/44/44
f 42/42/42 46/46/46 43/43/43
f 46/46/46 47/47/47 43/43/43
f 46/46/46 48/48/48 47/47/47
f 48/48/48 49/49/49 47/47/47
f 48/48/48 50/50/50 49/49/49
f 50/50/50 51/51/51 49/49/49
f 50/50/50 52/52/52 51/51/51
f 52/52/52 53/53/53 51/51/51
f 52/52/52 45/45/45 53/53/53
f 45/45/45 44/44/44 53/53/53
f 54/54/54 55/55/55 56/56/56
f 57/57/57 56/56/56 55/55/55
f 56/56/56 57/57/57 58/58/58
f 59/59/59 58/58/58 57/57/57
f 58/58/58 59/59/59 60/60/60
f 61/61/61 60/60/60 59/59/59
f 60/60/60 61/61/61 62/62/62
f 62/62/62 63/63/63 60/60/60
f 64/64/64 60/60/60 63/63/63
f 60/60/60 64/64/64 58/58/58
f 65/65/65 58/58/58 64/64/64
f 58/58/58 65/65/65 56/56/56
f 66/66/66 56/56/56 65/65/65
f 56/56/56 66/66/66 54/54/54
f 67/67/67 68/68/68 69/69/69
f 69/69/69 70/70/70 67/67/67
f 71/71/71 67/67/67 70/70/70
f 70/70/70 72/72/72 71/71/71
f 73/73/73 71/71/71 72/72/72
f 72/72/72 74/74/74 73/73/73
f 75/75/75 73/73/73 74/74/74
f 73/73/73 75/75/75 76/76/76
f 76/76/76 77/77/77 73/73/73
f 71/71/71 73/73/73 77/77/77
f 77/77/77 78/78/78 71/71/71
f 67/67/67 71/71/71 78/78/78
f 78/78/78 79/79/79 67/67/67
f 68/68/68 67/67/67 79/79/79
f 80/80/80 2/2/2 81/81/81
f 82/82/82 2/2/2 83/83/83