# Exported using wow.export v0.1.49
o 
mtllib elvenpottery02.mtl
v 0.013557400554418564 1.8746991157531738 0.3547886312007904
v 0.012991008348762989 1.4351381063461304 -0.006523980293422937
v -0.2549125552177429 1.864978551864624 0.18068034946918488
v -0.2549125552177429 1.864978551864624 0.18068034946918488
v 0.012991008348762989 1.4351381063461304 -0.006523980293422937
v -0.2554789185523987 1.8771220445632935 -0.16753628849983215
v 0.012424570508301258 1.898985743522644 -0.3416445851325989
v 0.2808944284915924 1.9087066650390625 -0.16753633320331573
v 0.2814609110355377 1.8965630531311035 0.18068024516105652
v 0.013557400554418564 1.8746991157531738 0.3547886312007904
v 0.012991008348762989 -0.05278757959604263 -0.006523652467876673
v 0.012991008348762989 -0.052787575870752335 -0.3129698634147644
v 0.24918754398822784 -0.052787575870752335 -0.15974681079387665
v 0.24918760359287262 -0.052787575870752335 0.14669941365718842
v 0.012991034425795078 -0.052787575870752335 0.2999226152896881
v -0.2232055366039276 -0.052787575870752335 -0.15974681079387665
v -0.2232055366039276 -0.052787575870752335 0.14669948816299438
v -0.19596630334854126 1.5130363702774048 -0.14053931832313538
v -0.2549125552177429 1.864978551864624 0.18068034946918488
v -0.2554789185523987 1.8771220445632935 -0.16753628849983215
v 0.012550155632197857 1.530053734779358 -0.27605241537094116
v -0.19552543759346008 1.503584861755371 0.130486860871315
v 0.013557400554418564 1.8746991157531738 0.3547886312007904
v 0.01343186479061842 1.511150598526001 0.2659999430179596
v 0.2814609110355377 1.8965630531311035 0.18068024516105652
v 0.22194834053516388 1.5281680822372437 0.13048683106899261
v 0.2808944284915924 1.9087066650390625 -0.16753633320331573
v 0.22150741517543793 1.5376195907592773 -0.14053936302661896
v 0.012424570508301258 1.898985743522644 -0.3416445851325989
v -0.316703200340271 1.083967685699463 -0.2348625212907791
v -0.19552543759346008 1.503584861755371 0.130486860871315
v -0.19596630334854126 1.5130363702774048 -0.14053931832313538
v -0.316703200340271 1.0690394639968872 0.19262929260730743
v 0.01343186479061842 1.511150598526001 0.2659999430179596
v 0.012991036288440228 1.0615754127502441 0.40637531876564026
v 0.22194834053516388 1.5281680822372437 0.13048683106899261
v 0.34268519282341003 1.0690394639968872 0.19262920320034027
v 0.22150741517543793 1.5376195907592773 -0.14053936302661896
v 0.34268516302108765 1.0839678049087524 -0.2348625361919403
v 0.012550155632197857 1.530053734779358 -0.27605241537094116
v 0.012991002760827541 1.0914322137832642 -0.4486083984375
v 0.012991008348762989 -0.052787575870752335 -0.3129698634147644
v -0.2232055366039276 -0.052787575870752335 -0.15974681079387665
v -0.2232055366039276 -0.052787575870752335 0.14669948816299438
v 0.012991034425795078 -0.052787575870752335 0.2999226152896881
v 0.24918760359287262 -0.052787575870752335 0.14669941365718842
v 0.24918754398822784 -0.052787575870752335 -0.15974681079387665
v -0.2554789185523987 1.8771220445632935 -0.16753628849983215
v 0.012424570508301258 1.898985743522644 -0.3416445851325989
v 0.2808944284915924 1.9087066650390625 -0.16753633320331573
v 0.2814609110355377 1.8965630531311035 0.18068024516105652
vn -0.3445333242416382 0.5180333256721497 0.7829037308692932
vn -0.01898200809955597 0.9996384978294373 0.01904118061065674
vn -0.8153214454650879 0.5633179545402527 0.13387979567050934
vn -0.8153214454650879 0.5633179545402527 0.13387979567050934
vn -0.01898200809955597 0.9996384978294373 0.01904118061065674
vn -0.5363171100616455 0.5994231700897217 -0.5941849946975708
vn 0.3012333810329437 0.6204559206962585 -0.7240807414054871
vn 0.8041093349456787 0.582109272480011 -0.12065239995718002
vn 0.5522667169570923 0.5165827870368958 0.6543269157409668
vn -0.3445333242416382 0.5180333256721497 0.7829037308692932
vn 0 -1 0
vn -0.12090640515089035 -0.8186976313591003 -0.5613517761230469
vn 0.4627925455570221 -0.8047381043434143 -0.3717789947986603
vn 0.5729403495788574 -0.7976618409156799 0.18834806978702545
vn 0.12482382357120514 -0.8078901171684265 0.575962245464325
vn -0.5679193735122681 -0.8014658689498901 -0.18740345537662506
vn -0.4708261787891388 -0.7971281409263611 0.37803366780281067
vn -0.8718218207359314 0.17036300897598267 -0.45924198627471924
vn -0.8153214454650879 0.5633179545402527 0.13387979567050934
vn -0.5363171100616455 0.5994231700897217 -0.5941849946975708
vn -0.008638930507004261 0.20109547674655914 -0.9795335531234741
vn -0.871970534324646 0.0961294025182724 0.48002758622169495
vn -0.3445333242416382 0.5180333256721497 0.7829037308692932
vn 0.006301202345639467 0.07393757998943329 0.9972429871559143
vn 0.5522667169570923 0.5165827870368958 0.6543269157409668
vn 0.8768512010574341 0.09879426658153534 0.47050145268440247
vn 0.8041093349456787 0.582109272480011 -0.12065239995718002
vn 0.8688716888427734 0.14655600488185883 -0.47284600138664246
vn 0.3012333810329437 0.6204559206962585 -0.7240807414054871
vn -0.8549715876579285 0.23175014555454254 -0.4640210270881653
vn -0.871970534324646 0.0961294025182724 0.48002758622169495
vn -0.8718218207359314 0.17036300897598267 -0.45924198627471924
vn -0.8597002625465393 0.21895886957645416 0.4614894390106201
vn 0.006301202345639467 0.07393757998943329 0.9972429871559143
vn -0.009145748801529408 0.21894225478172302 0.9756949543952942
vn 0.8768512010574341 0.09879426658153534 0.47050145268440247
vn 0.8549585342407227 0.2091471552848816 0.47466135025024414
vn 0.8688716888427734 0.14655600488185883 -0.47284600138664246
vn 0.8577483892440796 0.24327924847602844 -0.4528607726097107
vn -0.008638930507004261 0.20109547674655914 -0.9795335531234741
vn 0.006806447636336088 0.26792269945144653 -0.963416337966919
vn -0.12090640515089035 -0.8186976313591003 -0.5613517761230469
vn -0.5679193735122681 -0.8014658689498901 -0.18740345537662506
vn -0.4708261787891388 -0.7971281409263611 0.37803366780281067
vn 0.12482382357120514 -0.8078901171684265 0.575962245464325
vn 0.5729403495788574 -0.7976618409156799 0.18834806978702545
vn 0.4627925455570221 -0.8047381043434143 -0.3717789947986603
vn -0.5363171100616455 0.5994231700897217 -0.5941849946975708
vn 0.3012333810329437 0.6204559206962585 -0.7240807414054871
vn 0.8041093349456787 0.582109272480011 -0.12065239995718002
vn 0.5522667169570923 0.5165827870368958 0.6543269157409668
vt 0.6436917781829834 0.6216498613357544
vt 0.6875140070915222 0.5870158076286316
vt 0.7279248237609863 0.6209273338317871
vt 0.7290619611740112 0.6216498613357544
vt 0.6852397322654724 0.5870158076286316
vt 0.6448289155960083 0.6209273338317871
vt 0.7290619611740112 0.6216498613357544
vt 0.6448289155960083 0.6209273338317871
vt 0.7290619611740112 0.6216498613357544
vt 0.6448289155960083 0.6209273338317871
vt 0.6726891994476318 0.582184910774231
vt 0.7148057222366333 0.618873119354248
vt 0.6305726766586304 0.618873119354248
vt 0.7148057222366333 0.618873119354248
vt 0.6305726766586304 0.618873119354248
vt 0.6305726766586304 0.618873119354248
vt 0.7148057222366333 0.618873119354248
vt 0.8327858448028564 0.6214413642883301
vt 0.683203935623169 0.3982141613960266
vt 0.8327877521514893 0.3982141613960266
vt 0.683203935623169 0.6214574575424194
vt 0.683203935623169 0.6214574575424194
vt 0.8327516317367554 0.3982141613960266
vt 0.8327516317367554 0.6214574575424194
vt 0.683161735534668 0.3981660008430481
vt 0.683161735534668 0.6214092969894409
vt 0.8327516317367554 0.3982141613960266
vt 0.8327516317367554 0.6214574575424194
vt 0.683203935623169 0.3982141613960266
vt 0.8810939192771912 0.4211156368255615
vt 0.7315130829811096 0.5901941657066345
vt 0.8810968995094299 0.5901941657066345
vt 0.7315130829811096 0.4210916757583618
vt 0.881060779094696 0.5901941657066345
vt 0.881060779094696 0.4210916757583618
vt 0.7314708828926086 0.5902422070503235
vt 0.7314708828926086 0.4211397171020508
vt 0.881060779094696 0.5901941657066345
vt 0.881060779094696 0.4210916757583618
vt 0.7315130829811096 0.5901941657066345
vt 0.7315130829811096 0.4210916757583618
vt 0.7315130829811096 0.6214192509651184
vt 0.8810949921607971 0.6214353442192078
vt 0.7315130829811096 0.6214192509651184
vt 0.881060779094696 0.6214192509651184
vt 0.7314708828926086 0.6214674115180969
vt 0.881060779094696 0.6214192509651184
vt 0.6436917781829834 0.6216498613357544
vt 0.7279248237609863 0.6209273338317871
vt 0.6436917781829834 0.6216498613357544
vt 0.7279248237609863 0.6209273338317871
g Geoset0
s 1
usemtl mat_elfgate_wood01
f 1/1/1 2/2/2 3/3/3
f 4/4/4 5/5/5 6/6/6
f 7/7/7 5/5/5 8/8/8
f 9/9/9 5/5/5 10/10/10
f 11/11/11 12/12/12 13/13/13
f 11/11/11 13/13/13 14/14/14
f 11/11/11 14/14/14 15/15/15
f 11/11/11 16/16/16 12/12/12
f 11/11/11 17/17/17 16/16/16
f 11/11/11 15/15/15 17/17/17
f 18/18/18 19/19/19 20/20/20
f 21/21/21 18/18/18 20/20/20
f 18/18/18 22/22/22 19/19/19
f 22/22/22 23/23/23 19/19/19
f 22/22/22 24/24/24 23/23/23
f 24/24/24 25/25/25 23/23/23
f 24/24/24 26/26/26 25/25/25
f 26/26/26 27/27/27 25/25/25
f 26/26/26 28/28/28 27/27/27
f 28/28/28 29/29/29 27/27/27
f 28/28/28 21/21/21 29/29/29
f 21/21/21 20/20/20 29/29/29
f 30/30/30 31/31/31 32/32/32
f 30/30/30 33/33/33 31/31/31
f 33/33/33 34/34/34 31/31/31
f 33/33/33 35/35/35 34/34/34
f 35/35/35 36/36/36 34/34/34
f 35/35/35 37/37/37 36/36/36
f 37/37/37 38/38/38 36/36/36
f 37/37/37 39/39/39 38/38/38
f 39/39/39 40/40/40 38/38/38
f 39/39/39 41/41/41 40/40/40
f 41/41/41 32/32/32 40/40/40
f 41/41/41 30/30/30 32/32/32
f 42/42/42 30/30/30 41/41/41
f 42/42/42 43/43/43 30/30/30
f 43/43/43 33/33/33 30/30/30
f 43/43/43 44/44/44 33/33/33
f 44/44/44 35/35/35 33/33/33
f 44/44/44 45/45/45 35/35/35
f 45/45/45 37/37/37 35/35/35
f 45/45/45 46/46/46 37/37/37
f 46/46/46 39/39/39 37/37/37
f 46/46/46 47/47/47 39/39/39
f 47/47/47 41/41/41 39/39/39
f 47/47/47 42/42/42 41/41/41
f 48/48/48 2/2/2 49/49/49
f 50/50/50 2/2/2 51/51/51