# Exported using wow.export v0.1.49
o 
mtllib woodsignpointernice01.mtl
v -0.06893344968557358 3.8548474311828613 -0.6184715628623962
v -0.06893344968557358 3.854846954345703 0.5757613182067871
v 0.06893419474363327 3.8548474311828613 0.5757613182067871
v -0.06893344968557358 3.8548474311828613 -0.6184715628623962
v -0.06893344968557358 3.5156924724578857 0.5757613182067871
v -0.06893344968557358 3.854846954345703 0.5757613182067871
v -0.06893344968557358 3.5156922340393066 -0.6184715628623962
v -0.06893344968557358 3.685269355773926 -0.8648583889007568
v 0.06893419474363327 3.854846954345703 -0.6184715628623962
v 0.06893419474363327 3.5156922340393066 -0.6184715628623962
v 0.06893419474363327 3.685269355773926 -0.8648583889007568
v 0.06893419474363327 3.5156922340393066 0.5757613182067871
v 0.06893419474363327 3.8548474311828613 0.5757613182067871
v 0.06893419474363327 3.5156922340393066 0.5757613182067871
v -0.06893344968557358 3.5156924724578857 0.5757613182067871
v -0.06893344968557358 3.5156922340393066 -0.6184715628623962
v 0.06893419474363327 3.5156922340393066 -0.6184715628623962
v -0.06893344968557358 3.685269355773926 -0.8648583889007568
v 0.06893419474363327 3.685269355773926 -0.8648583889007568
v 0.0902898982167244 3.4631574153900146 0.8076245188713074
v -0.0902891457080841 3.4631574153900146 0.8076245188713074
v -0.08134153485298157 3.485168218612671 0.6005392074584961
v 0.08134228736162186 3.485168218612671 0.6005392074584961
v 0.0902898907661438 3.907381772994995 0.8076245188713074
v 0.08134227991104126 3.8853704929351807 0.6005392074584961
v -0.0902891531586647 3.907381772994995 0.8076245188713074
v -0.08134154230356216 3.8853704929351807 0.6005392074584961
v -0.06893344968557358 3.854846954345703 0.5757613182067871
v -0.06893344968557358 3.5156924724578857 0.5757613182067871
v 0.06893419474363327 3.5156922340393066 0.5757613182067871
v 0.06893419474363327 3.8548474311828613 0.5757613182067871
v 0.06893419474363327 3.685269355773926 -0.8648583889007568
v -0.06893344968557358 3.685269355773926 -0.8648583889007568
v 0.06893419474363327 3.854846954345703 -0.6184715628623962
vn -0.6176710724830627 0.7509852647781372 -0.23346003890037537
vn -0.7666516304016113 0.44824111461639404 -0.4597012400627136
vn 0.44374170899391174 0.7638340592384338 -0.46866920590400696
vn -0.6176710724830627 0.7509852647781372 -0.23346003890037537
vn -0.6920686960220337 -0.5405420064926147 -0.4783881902694702
vn -0.7666516304016113 0.44824111461639404 -0.4597012400627136
vn -0.570381760597229 -0.8053081035614014 -0.1616893857717514
vn -0.46770477294921875 -0.3852726221084595 -0.7954981327056885
vn 0.8435656428337097 0.5128178000450134 -0.15942052006721497
vn 0.570381760597229 -0.7550435662269592 -0.3233787715435028
vn 0.46770477294921875 0.385271817445755 -0.7954984903335571
vn 0.7722427248954773 -0.5361730456352234 -0.3408220708370209
vn 0.44374170899391174 0.7638340592384338 -0.46866920590400696
vn 0.7722427248954773 -0.5361730456352234 -0.3408220708370209
vn -0.6920686960220337 -0.5405420064926147 -0.4783881902694702
vn -0.570381760597229 -0.8053081035614014 -0.1616893857717514
vn 0.570381760597229 -0.7550435662269592 -0.3233787715435028
vn -0.46770477294921875 -0.3852726221084595 -0.7954981327056885
vn 0.46770477294921875 0.385271817445755 -0.7954984903335571
vn 0.44598355889320374 -0.8877984881401062 -0.1136331781744957
vn -0.8919671177864075 -0.4438992738723755 -0.08572123944759369
vn -0.65086829662323 -0.6115623116493225 -0.4498465955257416
vn 0.6768981218338013 -0.5277228951454163 -0.5131446719169617
vn 0.8919670581817627 0.4438991844654083 -0.08572205156087875
vn 0.6508678793907166 0.6115629076957703 -0.44984638690948486
vn -0.44598349928855896 0.8877983093261719 -0.11363479495048523
vn -0.6768977642059326 0.5277248620986938 -0.5131431221961975
vn -0.7666516304016113 0.44824111461639404 -0.4597012400627136
vn -0.6920686960220337 -0.5405420064926147 -0.4783881902694702
vn 0.7722427248954773 -0.5361730456352234 -0.3408220708370209
vn 0.44374170899391174 0.7638340592384338 -0.46866920590400696
vn 0.46770477294921875 0.385271817445755 -0.7954984903335571
vn -0.46770477294921875 -0.3852726221084595 -0.7954981327056885
vn 0.8435656428337097 0.5128178000450134 -0.15942052006721497
vt 0.8176328539848328 0.7122002840042114
vt 0.8176328539848328 0.017191588878631592
vt 0.9193236231803894 0.0174751877784729
vt 0.9049056172370911 0.9904728531837463
vt 0.5005408525466919 0.8428608179092407
vt 0.5005408525466919 0.9904730319976807
vt 0.9049056172370911 0.8428606390953064
vt 0.9918200373649597 0.9202898144721985
vt 0.9049056172370911 0.9904728531837463
vt 0.9049056172370911 0.8428606390953064
vt 0.9918200373649597 0.9202898144721985
vt 0.5005408525466919 0.8428608179092407
vt 0.5005408525466919 0.9904730319976807
vt 0.6874395608901978 0.0174751877784729
vt 0.5857487916946411 0.017191588878631592
vt 0.5857487916946411 0.5817655324935913
vt 0.6874395608901978 0.5818992853164673
vt 0.5857487916946411 0.4344590902328491
vt 0.6874395608901978 0.43457770347595215
vt 0.6111711859703064 0.5
vt 0.6111711859703064 0.25
vt 0.75 0.25
vt 0.75 0.5
vt 0.6111711859703064 0.25
vt 0.75 0.25
vt 0.6111711859703064 0.5
vt 0.75 0.5
vt 0.8409830331802368 0.5
vt 0.8409830331802368 0.25
vt 0.8409830331802368 0.5
vt 0.8409830331802368 0.25
vt 0.9193236231803894 0.5650124549865723
vt 0.8176328539848328 0.5648938417434692
vt 0.9193236231803894 0.7123340368270874
g Geoset0
s 1
usemtl mat_signpost01
f 1/1/1 2/2/2 3/3/3
f 4/4/4 5/5/5 6/6/6
f 5/5/5 4/4/4 7/7/7
f 7/7/7 4/4/4 8/8/8
f 9/9/9 10/10/10 11/11/11
f 10/10/10 9/9/9 12/12/12
f 13/13/13 12/12/12 9/9/9
f 14/14/14 15/15/15 16/16/16
f 16/16/16 17/17/17 14/14/14
f 17/17/17 16/16/16 18/18/18
f 18/18/18 19/19/19 17/17/17
f 20/20/20 21/21/21 22/22/22
f 22/22/22 23/23/23 20/20/20
f 24/24/24 20/20/20 23/23/23
f 23/23/23 25/25/25 24/24/24
f 26/26/26 24/24/24 25/25/25
f 25/25/25 27/27/27 26/26/26
f 28/28/28 29/29/29 22/22/22
f 22/22/22 27/27/27 28/28/28
f 27/27/27 22/22/22 21/21/21
f 21/21/21 26/26/26 27/27/27
f 23/23/23 22/22/22 29/29/29
f 29/29/29 30/30/30 23/23/23
f 25/25/25 23/23/23 30/30/30
f 30/30/30 31/31/31 25/25/25
f 27/27/27 25/25/25 31/31/31
f 31/31/31 28/28/28 27/27/27
f 32/32/32 33/33/33 1/1/1
f 1/1/1 34/34/34 32/32/32
f 3/3/3 34/34/34 1/1/1