# Exported using wow.export v0.1.49
o 
mtllib uldamanbook02.mtl
v -0.5432928800582886 -0.028965182602405548 -0.7101967334747314
v -0.7591661810874939 -0.028965182602405548 -0.7101967334747314
v -0.7591661810874939 -0.028965182602405548 -0.8418827652931213
v -1.2697349786758423 0.0011089907493442297 -0.7777177095413208
v 1.1548508405685425 0.0011089907493442297 -0.7777177095413208
v 1.1385760307312012 0.0011089907493442297 0.9080958962440491
v -1.2697352170944214 0.0011089907493442297 0.9080958962440491
v -1.2324695587158203 0.6907309293746948 0.7327766418457031
v -1.2324695587158203 0.6907309293746948 -0.7038597464561462
v -1.2324695587158203 0.20208430290222168 -0.7038597464561462
v -1.2324695587158203 0.20208428800106049 0.7327766418457031
v -1.2324695587158203 0.6907309293746948 -0.7038597464561462
v 1.116444706916809 0.6907309293746948 -0.7038597464561462
v 1.1164448261260986 0.20208430290222168 -0.7038597464561462
v -1.2324695587158203 0.20208430290222168 -0.7038597464561462
v 1.116444706916809 0.6907309293746948 -0.7038597464561462
v 1.1164445877075195 0.6907309293746948 0.7327766418457031
v 1.116444706916809 0.20208428800106049 0.7327766418457031
v 1.1164448261260986 0.20208430290222168 -0.7038597464561462
v -1.2697349786758423 0.0011089907493442297 -0.7777177095413208
v -1.2697352170944214 0.0011089907493442297 0.9080958962440491
v -1.269735336303711 0.2166161686182022 0.6888063549995422
v -1.2697349786758423 0.21661615371704102 -0.7777177095413208
v -1.2697352170944214 0.0011089907493442297 0.9080958962440491
v -1.2697349786758423 0.8415709137916565 0.9080958962440491
v -1.2697349786758423 0.6636757254600525 0.6888063549995422
v -1.269735336303711 0.2166161686182022 0.6888063549995422
v 1.1548508405685425 0.8415708541870117 0.9080958962440491
v 1.1385760307312012 0.0011089907493442297 0.9080958962440491
v 1.1548508405685425 0.21661613881587982 0.6888063549995422
v 1.154850721359253 0.6636757254600525 0.6888063549995422
v 1.1548506021499634 0.8415708541870117 -0.7763356566429138
v 1.1548508405685425 0.8415708541870117 0.9080958962440491
v 1.154850721359253 0.6636757254600525 0.6888063549995422
v 1.1548506021499634 0.6636757254600525 -0.7763356566429138
v 1.1548508405685425 0.21661613881587982 -0.7777177095413208
v 1.1548508405685425 0.21661613881587982 0.6888063549995422
v 1.1385760307312012 0.0011089907493442297 0.9080958962440491
v 1.1548508405685425 0.0011089907493442297 -0.7777177095413208
v -1.2697352170944214 0.0011089907493442297 0.9080958962440491
v 1.1385760307312012 0.0011089907493442297 0.9080958962440491
v 1.1548508405685425 0.8415708541870117 0.9080958962440491
v -1.2697349786758423 0.8415709137916565 0.9080958962440491
v -1.2697348594665527 0.8415709137916565 -0.7763356566429138
v -1.2697349786758423 0.8415709137916565 0.9080958962440491
v 1.1548508405685425 0.8415708541870117 0.9080958962440491
v 1.1548506021499634 0.8415708541870117 -0.7763356566429138
v -1.2697349786758423 0.8415709137916565 0.9080958962440491
v -1.2697348594665527 0.8415709137916565 -0.7763356566429138
v -1.2697348594665527 0.6636757254600525 -0.7763356566429138
v -1.2697349786758423 0.6636757254600525 0.6888063549995422
v 1.1548506021499634 0.6636757254600525 -0.7763356566429138
v -1.2697348594665527 0.6636757254600525 -0.7763356566429138
v -1.2697348594665527 0.8415709137916565 -0.7763356566429138
v 1.1548506021499634 0.8415708541870117 -0.7763356566429138
v -1.2697348594665527 0.6636757254600525 -0.7763356566429138
v 1.1548506021499634 0.6636757254600525 -0.7763356566429138
v 1.154850721359253 0.6636757254600525 0.6888063549995422
v -1.2697349786758423 0.6636757254600525 0.6888063549995422
v 1.1548508405685425 0.21661613881587982 0.6888063549995422
v -1.269735336303711 0.2166161686182022 0.6888063549995422
v -1.2697349786758423 0.6636757254600525 0.6888063549995422
v -1.269735336303711 0.2166161686182022 0.6888063549995422
v 1.1548508405685425 0.21661613881587982 -0.7777177095413208
v -1.2697349786758423 0.21661615371704102 -0.7777177095413208
v -1.2697349786758423 0.21661615371704102 -0.7777177095413208
v 1.1548508405685425 0.21661613881587982 -0.7777177095413208
v 1.1548508405685425 0.0011089907493442297 -0.7777177095413208
v -1.2697349786758423 0.0011089907493442297 -0.7777177095413208
v 0.3735446035861969 0.8681142926216125 -0.7101967334747314
v 0.3735446035861969 0.8681142330169678 -0.8418827652931213
v 0.3735446035861969 -0.028965182602405548 -0.8418827652931213
v 0.3735446035861969 -0.028965182602405548 -0.7101967334747314
v 0.3735446035861969 -0.028965182602405548 -0.8418827652931213
v 0.6022911071777344 -0.028965182602405548 -0.8418827652931213
v 0.6022911071777344 -0.028965182602405548 -0.7101967334747314
v 0.6022909879684448 0.8681142926216125 -0.8418827652931213
v 0.6022909879684448 0.8681142330169678 -0.7101967334747314
v 0.6022911071777344 -0.028965182602405548 -0.8418827652931213
v 0.6022909879684448 0.8681142330169678 -0.7101967334747314
v 0.3735446035861969 0.8681142926216125 -0.7101967334747314
v 0.3735446035861969 -0.028965182602405548 -0.7101967334747314
v 0.6022911071777344 -0.028965182602405548 -0.7101967334747314
v 0.3735446035861969 0.8681142330169678 -0.8418827652931213
v 0.6022909879684448 0.8681142926216125 -0.8418827652931213
v 0.6022911071777344 -0.028965182602405548 -0.8418827652931213
v 0.3735446035861969 -0.028965182602405548 -0.8418827652931213
v 0.6022909879684448 0.8681142330169678 -0.7101967334747314
v 0.6022909879684448 0.8681142926216125 -0.8418827652931213
v -0.5432929396629333 0.8681142330169678 -0.7101967334747314
v -0.7591661810874939 0.8681142926216125 -0.7101967334747314
v -0.7591661810874939 -0.028965182602405548 -0.7101967334747314
v -0.5432928800582886 -0.028965182602405548 -0.7101967334747314
v -0.7591661810874939 0.8681142330169678 -0.8418827652931213
v -0.5432929396629333 0.8681142926216125 -0.8418827652931213
v -0.5432928800582886 -0.028965182602405548 -0.8418827652931213
v -0.7591661810874939 -0.028965182602405548 -0.8418827652931213
v -0.5432929396629333 0.8681142330169678 -0.7101967334747314
v -0.5432929396629333 0.8681142926216125 -0.8418827652931213
v -0.7591661810874939 0.8681142926216125 -0.7101967334747314
v -0.7591661810874939 0.8681142330169678 -0.8418827652931213
v -0.7591661810874939 -0.028965182602405548 -0.8418827652931213
v -0.5432929396629333 0.8681142926216125 -0.8418827652931213
v -0.5432929396629333 0.8681142330169678 -0.7101967334747314
v -0.5432928800582886 -0.028965182602405548 -0.8418827652931213
v -0.5432928800582886 -0.028965182602405548 -0.8418827652931213
vn 0.45240965485572815 -0.8452975749969482 0.2842490077018738
vn -0.30418863892555237 -0.568356454372406 0.7644869089126587
vn -0.45240962505340576 -0.845297634601593 -0.2842489778995514
vn -0.452409565448761 -0.845297634601593 -0.28424906730651855
vn 0.3052489757537842 -0.5703796148300171 -0.7625550031661987
vn 0.571742057800293 -0.7781237959861755 0.2600661814212799
vn -0.6917656660079956 -0.4308392107486725 0.5795152187347412
vn -1 0 0
vn -0.36970722675323486 0 -0.9291483163833618
vn -0.8467400670051575 0 -0.5320068597793579
vn -1 0 0
vn -0.36970722675323486 0 -0.9291483163833618
vn 0.8467401266098022 6.582226887985598e-7 -0.5320068001747131
vn 0.36970725655555725 2.873960056604119e-7 -0.9291483163833618
vn -0.8467400670051575 0 -0.5320068597793579
vn 0.8467401266098022 6.582226887985598e-7 -0.5320068001747131
vn 1 7.773609809191839e-7 1.1959399159877648e-7
vn 1 7.773609809191839e-7 1.1959399159877648e-7
vn 0.36970725655555725 2.873960056604119e-7 -0.9291483163833618
vn -0.452409565448761 -0.845297634601593 -0.28424906730651855
vn -0.6917656660079956 -0.4308392107486725 0.5795152187347412
vn -0.5544124841690063 0.6905890107154846 -0.46444985270500183
vn -0.30418860912323 0.5683563947677612 -0.7644869089126587
vn -0.6917656660079956 -0.4308392107486725 0.5795152187347412
vn -0.7997840642929077 0.49811503291130066 0.33500275015830994
vn -0.7997844815254211 -0.4981141984462738 -0.3350030779838562
vn -0.5544124841690063 0.6905890107154846 -0.46444985270500183
vn 0.5545434355735779 0.6789831519126892 0.4811064600944519
vn 0.571742057800293 -0.7781237959861755 0.2600661814212799
vn 0.83944171667099 0.43276411294937134 -0.32871386408805847
vn 0.5544123649597168 -0.6905888915061951 -0.46445006132125854
vn 0.6640859842300415 0.6203999519348145 -0.41724535822868347
vn 0.5545434355735779 0.6789831519126892 0.4811064600944519
vn 0.5544123649597168 -0.6905888915061951 -0.46445006132125854
vn 0.30418863892555237 -0.568356454372406 -0.7644869089126587
vn 0.4746072590351105 0.8289194703102112 -0.296041339635849
vn 0.83944171667099 0.43276411294937134 -0.32871386408805847
vn 0.571742057800293 -0.7781237959861755 0.2600661814212799
vn 0.3052489757537842 -0.5703796148300171 -0.7625550031661987
vn -0.6917656660079956 -0.4308392107486725 0.5795152187347412
vn 0.571742057800293 -0.7781237959861755 0.2600661814212799
vn 0.5545434355735779 0.6789831519126892 0.4811064600944519
vn -0.7997840642929077 0.49811503291130066 0.33500275015830994
vn -0.21677564084529877 0.810062050819397 -0.5448006391525269
vn -0.7997840642929077 0.49811503291130066 0.33500275015830994
vn 0.5545434355735779 0.6789831519126892 0.4811064600944519
vn 0.6640859842300415 0.6203999519348145 -0.41724535822868347
vn -0.7997840642929077 0.49811503291130066 0.33500275015830994
vn -0.21677564084529877 0.810062050819397 -0.5448006391525269
vn -0.45240965485572815 -0.8452975153923035 -0.2842491865158081
vn -0.7997844815254211 -0.4981141984462738 -0.3350030779838562
vn 0.30418863892555237 -0.568356454372406 -0.7644869089126587
vn -0.45240965485572815 -0.8452975153923035 -0.2842491865158081
vn -0.21677564084529877 0.810062050819397 -0.5448006391525269
vn 0.6640859842300415 0.6203999519348145 -0.41724535822868347
vn -0.45240965485572815 -0.8452975153923035 -0.2842491865158081
vn 0.30418863892555237 -0.568356454372406 -0.7644869089126587
vn 0.5544123649597168 -0.6905888915061951 -0.46445006132125854
vn -0.7997844815254211 -0.4981141984462738 -0.3350030779838562
vn 0.83944171667099 0.43276411294937134 -0.32871386408805847
vn -0.5544124841690063 0.6905890107154846 -0.46444985270500183
vn -0.7997844815254211 -0.4981141984462738 -0.3350030779838562
vn -0.5544124841690063 0.6905890107154846 -0.46444985270500183
vn 0.4746072590351105 0.8289194703102112 -0.296041339635849
vn -0.30418860912323 0.5683563947677612 -0.7644869089126587
vn -0.30418860912323 0.5683563947677612 -0.7644869089126587
vn 0.4746072590351105 0.8289194703102112 -0.296041339635849
vn 0.3052489757537842 -0.5703796148300171 -0.7625550031661987
vn -0.452409565448761 -0.845297634601593 -0.28424906730651855
vn -0.6640858054161072 0.6204003095626831 0.41724511981010437
vn -0.21677565574645996 0.8100621104240417 -0.5448006391525269
vn -0.45240962505340576 -0.845297634601593 -0.2842489778995514
vn -0.30418863892555237 -0.568356454372406 0.7644869089126587
vn -0.45240962505340576 -0.845297634601593 -0.2842489778995514
vn 0.30418863892555237 -0.5683563947677612 -0.7644869685173035
vn 0.4524097144603729 -0.8452975749969482 0.28424903750419617
vn 0.6640856862068176 0.6204004883766174 -0.4172450602054596
vn 0.21677564084529877 0.8100621104240417 0.5448005795478821
vn 0.30418863892555237 -0.5683563947677612 -0.7644869685173035
vn 0.21677564084529877 0.8100621104240417 0.5448005795478821
vn -0.6640858054161072 0.6204003095626831 0.41724511981010437
vn -0.30418863892555237 -0.568356454372406 0.7644869089126587
vn 0.4524097144603729 -0.8452975749969482 0.28424903750419617
vn -0.21677565574645996 0.8100621104240417 -0.5448006391525269
vn 0.6640856862068176 0.6204004883766174 -0.4172450602054596
vn 0.30418863892555237 -0.5683563947677612 -0.7644869685173035
vn -0.45240962505340576 -0.845297634601593 -0.2842489778995514
vn 0.21677564084529877 0.8100621104240417 0.5448005795478821
vn 0.6640856862068176 0.6204004883766174 -0.4172450602054596
vn 0.21677564084529877 0.8100621104240417 0.5448005795478821
vn -0.6640858054161072 0.6204003095626831 0.41724511981010437
vn -0.30418863892555237 -0.568356454372406 0.7644869089126587
vn 0.45240965485572815 -0.8452975749969482 0.2842490077018738
vn -0.21677565574645996 0.8100621104240417 -0.5448006391525269
vn 0.6640857458114624 0.6204004287719727 -0.41724511981010437
vn 0.30418863892555237 -0.5683563947677612 -0.7644869089126587
vn -0.45240962505340576 -0.845297634601593 -0.2842489778995514
vn 0.21677564084529877 0.8100621104240417 0.5448005795478821
vn 0.6640857458114624 0.6204004287719727 -0.41724511981010437
vn -0.6640858054161072 0.6204003095626831 0.41724511981010437
vn -0.21677565574645996 0.8100621104240417 -0.5448006391525269
vn -0.45240962505340576 -0.845297634601593 -0.2842489778995514
vn 0.6640857458114624 0.6204004287719727 -0.41724511981010437
vn 0.21677564084529877 0.8100621104240417 0.5448005795478821
vn 0.30418863892555237 -0.5683563947677612 -0.7644869089126587
vn 0.30418863892555237 -0.5683563947677612 -0.7644869089126587
vt 0.34169909358024597 0.7898550629615784
vt 1 0.7898550629615784
vt 1 0.8768116235733032
vt 0.9995005130767822 0.7909465432167053
vt 0.999500036239624 0.418861448764801
vt 0.0004994869232177734 0.42495763301849365
vt 0.0004999339580535889 0.7909467220306396
vt 1 1
vt 0 1
vt 0 0.881519079208374
vt 1 0.881519079208374
vt 1 1
vt 0 1
vt 0 0.881519079208374
vt 1 0.881519079208374
vt 1 1
vt 0 1
vt 0 0.881519079208374
vt 1 0.881519079208374
vt 0.9966249465942383 0.7869688868522644
vt -0.002375612501055002 0.7869688868522644
vt 0.12757371366024017 0.7682928442955017
vt 0.9966249465942383 0.7682928442955017
vt 0.9141209721565247 0.42213380336761475
vt 0.20797675848007202 0.42213380336761475
vt 0.35744187235832214 0.4494168758392334
vt 0.733055055141449 0.4494168758392334
vt 0.20797675848007202 0.4221336841583252
vt 0.9141209721565247 0.4221336841583252
vt 0.7330548167228699 0.44941675662994385
vt 0.35744166374206543 0.44941675662994385
vt 0.9958055019378662 0.7871428728103638
vt -0.0023760595358908176 0.7871428728103638
vt 0.12757329642772675 0.7700479626655579
vt 0.9958055019378662 0.7700479626655579
vt 0.9966244697570801 0.7682927846908569
vt 0.12757329642772675 0.7682927846908569
vt -0.0023760595358908176 0.7869688272476196
vt 0.9966244697570801 0.7869688272476196
vt 0.0036399811506271362 0.7651246786117554
vt 0.9938464760780334 0.7651246786117554
vt 0.9932101368904114 0.7902683615684509
vt 0.0025110244750976562 0.7902683615684509
vt 0.9995005130767822 0.7909465432167053
vt 0.0004999339580535889 0.7909467220306396
vt 0.0004994869232177734 0.4188615083694458
vt 0.999500036239624 0.418861448764801
vt -0.002375612501055002 0.7871428728103638
vt 0.9958059787750244 0.7871428728103638
vt 0.9958059787750244 0.7700479626655579
vt 0.12757371366024017 0.7700479626655579
vt 0.9898114204406738 0.7695466876029968
vt 0.00824419129639864 0.7695466876029968
vt 0.008244221098721027 0.787275493144989
vt 0.9898115396499634 0.787275493144989
vt 0.9985589981079102 0.7890552878379822
vt 0.998558521270752 0.4188615083694458
vt 0.0004995167255401611 0.41886162757873535
vt 0.000500023365020752 0.7890554666519165
vt -1.1210387714598537e-44 0.4184073209762573
vt 1.8216880036222622e-44 2.000002145767212
vt -1.8216880036222622e-44 2.0000030994415283
vt 0.000500023365020752 0.7890555262565613
vt 0.9994999766349792 0.418861448764801
vt 0.9995005130767822 0.789055347442627
vt 0.008244101889431477 0.7873701453208923
vt 0.9898115396499634 0.7873701453208923
vt 0.9898115396499634 0.7694834470748901
vt 0.008244072087109089 0.7694834470748901
vt 1 0.8768116235733032
vt 0.34169909358024597 0.8768116235733032
vt 0.34169909358024597 0.7898550629615784
vt 1 0.7898550629615784
vt 1 0.8768116235733032
vt 0.34169909358024597 0.8768116235733032
vt 0.34169909358024597 0.7898550629615784
vt 1 0.8768116235733032
vt 0.34169909358024597 0.8768116235733032
vt 1 0.7898550629615784
vt 1 0.8768116235733032
vt 0.34169909358024597 0.8768116235733032
vt 0.34169909358024597 0.7898550629615784
vt 1 0.7898550629615784
vt 1 0.8768116235733032
vt 0.34169909358024597 0.8768116235733032
vt 0.34169909358024597 0.7898550629615784
vt 1 0.7898550629615784
vt 0.34169909358024597 0.7898550629615784
vt 1 0.7898550629615784
vt 1 0.8768116235733032
vt 0.34169909358024597 0.8768116235733032
vt 0.34169909358024597 0.7898550629615784
vt 1 0.7898550629615784
vt 1 0.8768116235733032
vt 0.34169909358024597 0.8768116235733032
vt 0.34169909358024597 0.7898550629615784
vt 1 0.7898550629615784
vt 0.34169909358024597 0.7898550629615784
vt 1 0.7898550629615784
vt 1 0.8768116235733032
vt 0.34169909358024597 0.8768116235733032
vt 0.34169909358024597 0.7898550629615784
vt 1 0.8768116235733032
vt 0.34169909358024597 0.8768116235733032
vt 1 0.7898550629615784
vt 0.34169909358024597 0.8768116235733032
g Geoset0
s 1
usemtl mat_uldamanbooks
f 1/1/1 2/2/2 3/3/3
f 4/4/4 5/5/5 6/6/6
f 6/6/6 7/7/7 4/4/4
f 8/8/8 9/9/9 10/10/10
f 10/10/10 11/11/11 8/8/8
f 12/12/12 13/13/13 14/14/14
f 14/14/14 15/15/15 12/12/12
f 16/16/16 17/17/17 18/18/18
f 18/18/18 19/19/19 16/16/16
f 20/20/20 21/21/21 22/22/22
f 22/22/22 23/23/23 20/20/20
f 24/24/24 25/25/25 26/26/26
f 26/26/26 27/27/27 24/24/24
f 28/28/28 29/29/29 30/30/30
f 30/30/30 31/31/31 28/28/28
f 32/32/32 33/33/33 34/34/34
f 34/34/34 35/35/35 32/32/32
f 36/36/36 37/37/37 38/38/38
f 38/38/38 39/39/39 36/36/36
f 40/40/40 41/41/41 42/42/42
f 42/42/42 43/43/43 40/40/40
f 44/44/44 45/45/45 46/46/46
f 46/46/46 47/47/47 44/44/44
f 48/48/48 49/49/49 50/50/50
f 50/50/50 51/51/51 48/48/48
f 52/52/52 53/53/53 54/54/54
f 54/54/54 55/55/55 52/52/52
f 56/56/56 57/57/57 58/58/58
f 58/58/58 59/59/59 56/56/56
f 58/58/58 60/60/60 61/61/61
f 61/61/61 62/62/62 58/58/58
f 63/63/63 60/60/60 64/64/64
f 64/64/64 65/65/65 63/63/63
f 66/66/66 67/67/67 68/68/68
f 68/68/68 69/69/69 66/66/66
f 70/70/70 71/71/71 72/72/72
f 72/72/72 73/73/73 70/70/70
f 74/74/74 75/75/75 76/76/76
f 76/76/76 73/73/73 74/74/74
f 77/77/77 78/78/78 76/76/76
f 76/76/76 79/79/79 77/77/77
f 80/80/80 81/81/81 82/82/82
f 82/82/82 83/83/83 80/80/80
f 84/84/84 85/85/85 86/86/86
f 86/86/86 87/87/87 84/84/84
f 84/84/84 81/81/81 88/88/88
f 88/88/88 89/89/89 84/84/84
f 90/90/90 91/91/91 92/92/92
f 92/92/92 93/93/93 90/90/90
f 94/94/94 95/95/95 96/96/96
f 96/96/96 97/97/97 94/94/94
f 98/98/98 99/99/99 94/94/94
f 94/94/94 91/91/91 98/98/98
f 100/100/100 101/101/101 102/102/102
f 102/102/102 2/2/2 100/100/100
f 103/103/103 104/104/104 1/1/1
f 1/1/1 105/105/105 103/103/103
f 3/3/3 106/106/106 1/1/1