# Exported using wow.export v0.1.49
o 
mtllib uldamanbook01.mtl
v -1.4065805673599243 0.38525018095970154 -0.9189133048057556
v 1.551413893699646 0.3852502107620239 -0.9189133048057556
v 1.5514140129089355 0.38525018095970154 0.8539086580276489
v -1.4065806865692139 0.0011089907493442297 -0.9205855131149292
v 1.551414132118225 0.0011089907493442297 -0.9205855131149292
v 1.531558871269226 0.0011089907493442297 1.1192489862442017
v -1.4065810441970825 0.0011089907493442297 1.1192489862442017
v -1.3611170053482056 0.40093618631362915 0.9071126580238342
v -1.3611170053482056 0.40093621611595154 -0.8312174677848816
v -1.3611170053482056 0.11762992292642593 -0.8312174677848816
v -1.3611170053482056 0.11762992292642593 0.9071126580238342
v -1.3611170053482056 0.40093621611595154 -0.8312174677848816
v 1.504558801651001 0.40093621611595154 -0.8312174677848816
v 1.5045589208602905 0.11762992292642593 -0.8312174677848816
v -1.3611170053482056 0.11762992292642593 -0.8312174677848816
v 1.504558801651001 0.40093621611595154 -0.8312174677848816
v 1.5045585632324219 0.40093618631362915 0.9071126580238342
v 1.504558801651001 0.11762992292642593 0.9071126580238342
v 1.5045589208602905 0.11762992292642593 -0.8312174677848816
v -1.4065806865692139 0.0011089907493442297 -0.9205855131149292
v -1.4065810441970825 0.0011089907493442297 1.1192489862442017
v -1.406581163406372 0.12605518102645874 0.8539086580276489
v -1.4065806865692139 0.12605516612529755 -0.9205855131149292
v -1.4065810441970825 0.0011089907493442297 1.1192489862442017
v -1.4065808057785034 0.4883897602558136 1.1192489862442017
v -1.4065808057785034 0.38525018095970154 0.8539086580276489
v -1.406581163406372 0.12605518102645874 0.8539086580276489
v 1.5514142513275146 0.4883897602558136 1.1192489862442017
v 1.531558871269226 0.0011089907493442297 1.1192489862442017
v 1.551414132118225 0.12605518102645874 0.8539086580276489
v 1.5514140129089355 0.38525018095970154 0.8539086580276489
v 1.551413893699646 0.4883897602558136 -0.9189133048057556
v 1.5514142513275146 0.4883897602558136 1.1192489862442017
v 1.5514140129089355 0.38525018095970154 0.8539086580276489
v 1.551413893699646 0.3852502107620239 -0.9189133048057556
v 1.551414132118225 0.12605518102645874 -0.9205855131149292
v 1.551414132118225 0.12605518102645874 0.8539086580276489
v 1.531558871269226 0.0011089907493442297 1.1192489862442017
v 1.551414132118225 0.0011089907493442297 -0.9205855131149292
v -1.4065810441970825 0.0011089907493442297 1.1192489862442017
v 1.531558871269226 0.0011089907493442297 1.1192489862442017
v 1.5514142513275146 0.4883897602558136 1.1192489862442017
v -1.4065808057785034 0.4883897602558136 1.1192489862442017
v -1.4065805673599243 0.4883897602558136 -0.9189133048057556
v -1.4065808057785034 0.4883897602558136 1.1192489862442017
v 1.5514142513275146 0.4883897602558136 1.1192489862442017
v 1.551413893699646 0.4883897602558136 -0.9189133048057556
v -1.4065808057785034 0.4883897602558136 1.1192489862442017
v -1.4065805673599243 0.4883897602558136 -0.9189133048057556
v -1.4065805673599243 0.38525018095970154 -0.9189133048057556
v -1.4065808057785034 0.38525018095970154 0.8539086580276489
v 1.551413893699646 0.3852502107620239 -0.9189133048057556
v -1.4065805673599243 0.38525018095970154 -0.9189133048057556
v -1.4065805673599243 0.4883897602558136 -0.9189133048057556
v 1.551413893699646 0.4883897602558136 -0.9189133048057556
v -1.4065806865692139 0.12605516612529755 -0.9205855131149292
v 1.551414132118225 0.12605518102645874 -0.9205855131149292
v 1.551414132118225 0.0011089907493442297 -0.9205855131149292
v -1.4065806865692139 0.0011089907493442297 -0.9205855131149292
v 0.3988999128341675 0.5037790536880493 -0.8388851284980774
v -0.20947398245334625 0.5037790536880493 -0.8388851284980774
v -0.20947398245334625 -0.016327334567904472 -0.8388851284980774
v 0.39890018105506897 -0.016327334567904472 -0.8388851284980774
v -0.20947396755218506 0.5037790536880493 -0.9982253313064575
v 0.3988999128341675 0.5037790536880493 -0.8388851284980774
v 0.3988999128341675 0.5037790536880493 -0.9982253313064575
v 0.3988999128341675 0.5037790536880493 -0.9982253313064575
v 0.39890018105506897 -0.016327334567904472 -0.9982253313064575
v -0.20947396755218506 -0.016327334567904472 -0.9982253313064575
v -0.20947398245334625 0.5037790536880493 -0.8388851284980774
v -0.20947396755218506 0.5037790536880493 -0.9982253313064575
v -0.20947396755218506 -0.016327334567904472 -0.9982253313064575
v -0.20947398245334625 -0.016327334567904472 -0.8388851284980774
v -0.20947396755218506 -0.016327334567904472 -0.9982253313064575
v 0.39890018105506897 -0.016327334567904472 -0.9982253313064575
v 0.39890018105506897 -0.016327334567904472 -0.8388851284980774
v 0.3988999128341675 0.5037790536880493 -0.9982253313064575
v 0.3988999128341675 0.5037790536880493 -0.8388851284980774
v 0.39890018105506897 -0.016327334567904472 -0.9982253313064575
v -1.406581163406372 0.12605518102645874 0.8539086580276489
v 1.551414132118225 0.12605518102645874 0.8539086580276489
v 1.551414132118225 0.12605518102645874 -0.9205855131149292
v -1.4065806865692139 0.12605516612529755 -0.9205855131149292
v -1.406581163406372 0.12605518102645874 0.8539086580276489
v -1.4065808057785034 0.38525018095970154 0.8539086580276489
v -1.4065808057785034 0.38525018095970154 0.8539086580276489
vn -0.5470376014709473 -0.48573166131973267 -0.6817731261253357
vn 0.5470376014709473 -0.4857316017150879 -0.6817731857299805
vn 0.8908044099807739 -0.26365774869918823 -0.3700703978538513
vn -0.547037661075592 -0.48573169112205505 -0.6817730665206909
vn 0.5511136054992676 -0.4856075346469879 -0.678571343421936
vn 0.5200496315956116 -0.4980471730232239 0.6939001083374023
vn -0.5470377206802368 -0.4857315719127655 0.6817731261253357
vn -1 0 0
vn -0.6258237957954407 0 -0.7799644470214844
vn -0.6258239150047302 0 -0.7799643874168396
vn -1 0 0
vn -0.6258237957954407 0 -0.7799644470214844
vn 0.6258238554000854 2.3119382319691795e-7 -0.7799644470214844
vn 0.625823974609375 2.3119385161862738e-7 -0.7799643278121948
vn -0.6258239150047302 0 -0.7799643874168396
vn 0.6258238554000854 2.3119382319691795e-7 -0.7799644470214844
vn 1 3.694231622830557e-7 1.1861371973509449e-7
vn 1 3.694231622830557e-7 1.1861371973509449e-7
vn 0.625823974609375 2.3119385161862738e-7 -0.7799643278121948
vn -0.547037661075592 -0.48573169112205505 -0.6817730665206909
vn -0.5470377206802368 -0.4857315719127655 0.6817731261253357
vn -0.8908047080039978 0.2636577785015106 -0.3700696527957916
vn -0.5470374822616577 0.4857316017150879 -0.6817732453346252
vn -0.5470377206802368 -0.4857315719127655 0.6817731261253357
vn -0.547037661075592 0.48573172092437744 0.6817730665206909
vn -0.8908045887947083 -0.26365727186203003 -0.37007027864456177
vn -0.8908047080039978 0.2636577785015106 -0.3700696527957916
vn 0.5488736629486084 0.4820324778556824 0.6829219460487366
vn 0.5200496315956116 -0.4980471730232239 0.6939001083374023
vn 0.9135227203369141 0.20007707178592682 -0.35418277978897095
vn 0.8908044099807739 -0.26365774869918823 -0.3700703978538513
vn 0.5470377206802368 0.4857316315174103 -0.6817730665206909
vn 0.5488736629486084 0.4820324778556824 0.6829219460487366
vn 0.8908044099807739 -0.26365774869918823 -0.3700703978538513
vn 0.5470376014709473 -0.4857316017150879 -0.6817731857299805
vn 0.55094313621521 0.48546403646469116 -0.6788124442100525
vn 0.9135227203369141 0.20007707178592682 -0.35418277978897095
vn 0.5200496315956116 -0.4980471730232239 0.6939001083374023
vn 0.5511136054992676 -0.4856075346469879 -0.678571343421936
vn -0.5470377206802368 -0.4857315719127655 0.6817731261253357
vn 0.5200496315956116 -0.4980471730232239 0.6939001083374023
vn 0.5488736629486084 0.4820324778556824 0.6829219460487366
vn -0.547037661075592 0.48573172092437744 0.6817730665206909
vn -0.5470374822616577 0.4857316017150879 -0.6817732453346252
vn -0.547037661075592 0.48573172092437744 0.6817730665206909
vn 0.5488736629486084 0.4820324778556824 0.6829219460487366
vn 0.5470377206802368 0.4857316315174103 -0.6817730665206909
vn -0.547037661075592 0.48573172092437744 0.6817730665206909
vn -0.5470374822616577 0.4857316017150879 -0.6817732453346252
vn -0.5470376014709473 -0.48573166131973267 -0.6817731261253357
vn -0.8908045887947083 -0.26365727186203003 -0.37007027864456177
vn 0.5470376014709473 -0.4857316017150879 -0.6817731857299805
vn -0.5470376014709473 -0.48573166131973267 -0.6817731261253357
vn -0.5470374822616577 0.4857316017150879 -0.6817732453346252
vn 0.5470377206802368 0.4857316315174103 -0.6817730665206909
vn -0.5470374822616577 0.4857316017150879 -0.6817732453346252
vn 0.55094313621521 0.48546403646469116 -0.6788124442100525
vn 0.5511136054992676 -0.4856075346469879 -0.678571343421936
vn -0.547037661075592 -0.48573169112205505 -0.6817730665206909
vn 0.5470374822616577 0.4857318699359894 0.6817730665206909
vn -0.5470377802848816 0.4857316315174103 0.6817730069160461
vn -0.5470376014709473 -0.48573166131973267 0.6817731261253357
vn 0.5470378994941711 -0.4857316017150879 0.6817729473114014
vn -0.5470376014709473 0.48573172092437744 -0.6817730665206909
vn 0.5470374822616577 0.4857318699359894 0.6817730665206909
vn 0.547037661075592 0.48573172092437744 -0.6817730665206909
vn 0.547037661075592 0.48573172092437744 -0.6817730665206909
vn 0.5470377206802368 -0.4857315719127655 -0.6817731261253357
vn -0.5470377206802368 -0.48573166131973267 -0.6817730069160461
vn -0.5470377802848816 0.4857316315174103 0.6817730069160461
vn -0.5470376014709473 0.48573172092437744 -0.6817730665206909
vn -0.5470377206802368 -0.48573166131973267 -0.6817730069160461
vn -0.5470376014709473 -0.48573166131973267 0.6817731261253357
vn -0.5470377206802368 -0.48573166131973267 -0.6817730069160461
vn 0.5470377206802368 -0.4857315719127655 -0.6817731261253357
vn 0.5470378994941711 -0.4857316017150879 0.6817729473114014
vn 0.547037661075592 0.48573172092437744 -0.6817730665206909
vn 0.5470374822616577 0.4857318699359894 0.6817730665206909
vn 0.5470377206802368 -0.4857315719127655 -0.6817731261253357
vn -0.8908047080039978 0.2636577785015106 -0.3700696527957916
vn 0.9135227203369141 0.20007707178592682 -0.35418277978897095
vn 0.55094313621521 0.48546403646469116 -0.6788124442100525
vn -0.5470374822616577 0.4857316017150879 -0.6817732453346252
vn -0.8908047080039978 0.2636577785015106 -0.3700696527957916
vn -0.8908045887947083 -0.26365727186203003 -0.37007027864456177
vn -0.8908045887947083 -0.26365727186203003 -0.37007027864456177
vt 0.9985589981079102 0.4101281762123108
vt 0.998558521270752 0.0004996061325073242
vt 0.0004995167255401611 0.0004996657371520996
vt 0.9995005130767822 0.40979301929473877
vt 0.999500036239624 0.0004994869232177734
vt 0.0004994869232177734 0.007205367088317871
vt 0.0004999339580535889 0.40979325771331787
vt 1 1
vt 0 1
vt 0 0.881519079208374
vt 1 0.881519079208374
vt 1 1
vt 0 1
vt 0 0.881519079208374
vt 1 0.881519079208374
vt 1 1
vt 0 1
vt 0 0.881519079208374
vt 1 0.881519079208374
vt 0.9966249465942383 0.40541768074035645
vt -0.002375612501055002 0.40541768074035645
vt 0.12757371366024017 0.38487404584884644
vt 0.9966249465942383 0.38487404584884644
vt 0.9141209721565247 0.004099130630493164
vt 0.20797675848007202 0.004099130630493164
vt 0.35744187235832214 0.03411048650741577
vt 0.733055055141449 0.03411048650741577
vt 0.20797675848007202 0.004099011421203613
vt 0.9141209721565247 0.004099011421203613
vt 0.7330548167228699 0.034110426902770996
vt 0.35744166374206543 0.034110426902770996
vt 0.9958055019378662 0.4056090712547302
vt -0.0023760595358908176 0.4056090712547302
vt 0.12757329642772675 0.3868046998977661
vt 0.9958055019378662 0.3868046998977661
vt 0.9966244697570801 0.38487398624420166
vt 0.12757329642772675 0.38487398624420166
vt -0.0023760595358908176 0.40541762113571167
vt 0.9966244697570801 0.40541762113571167
vt 0.0036399811506271362 0.3813890814781189
vt 0.9938464760780334 0.3813890814781189
vt 0.9932101368904114 0.40904712677001953
vt 0.0025110244750976562 0.40904712677001953
vt 0.9995005130767822 0.40979301929473877
vt 0.0004999339580535889 0.40979325771331787
vt 0.0004994869232177734 0.0004995465278625488
vt 0.999500036239624 0.0004994869232177734
vt -0.002375612501055002 0.4056090712547302
vt 0.9958059787750244 0.4056090712547302
vt 0.9958059787750244 0.38680464029312134
vt 0.12757371366024017 0.38680464029312134
vt 0.9898114204406738 0.386253297328949
vt 0.00824419129639864 0.386253297328949
vt 0.008244221098721027 0.4057549834251404
vt 0.9898115396499634 0.4057549238204956
vt 0.008244101889431477 0.4058590531349182
vt 0.9898115396499634 0.4058590531349182
vt 0.9898115396499634 0.3861836791038513
vt 0.008244072087109089 0.3861836791038513
vt 1 0.8768116235733032
vt 0.34169909358024597 0.8768116235733032
vt 0.34169909358024597 0.7898550629615784
vt 1 0.7898550629615784
vt 1 0.8768116235733032
vt 0.34169909358024597 0.7898550629615784
vt 1 0.7898550629615784
vt 0.34169909358024597 0.8768116235733032
vt 0.34169909358024597 0.7898550629615784
vt 1 0.7898550629615784
vt 1 0.8768116235733032
vt 0.34169909358024597 0.8768116235733032
vt 0.34169909358024597 0.7898550629615784
vt 1 0.7898550629615784
vt 1 0.8768116235733032
vt 0.34169909358024597 0.8768116235733032
vt 0.34169909358024597 0.7898550629615784
vt 1 0.8768116235733032
vt 0.34169909358024597 0.8768116235733032
vt 1 0.7898550629615784
vt 0.000500023365020752 0.41012847423553467
vt -1.1210387714598537e-44 0
vt 0.9994999766349792 0.0004994869232177734
vt 0.9995005130767822 0.41012829542160034
vt 1.8216880036222622e-44 2.000002145767212
vt -1.8216880036222622e-44 2.0000030994415283
vt 0.000500023365020752 0.4101284146308899
g Geoset0
s 1
usemtl mat_uldamanbooks
f 1/1/1 2/2/2 3/3/3
f 4/4/4 5/5/5 6/6/6
f 6/6/6 7/7/7 4/4/4
f 8/8/8 9/9/9 10/10/10
f 10/10/10 11/11/11 8/8/8
f 12/12/12 13/13/13 14/14/14
f 14/14/14 15/15/15 12/12/12
f 16/16/16 17/17/17 18/18/18
f 18/18/18 19/19/19 16/16/16
f 20/20/20 21/21/21 22/22/22
f 22/22/22 23/23/23 20/20/20
f 24/24/24 25/25/25 26/26/26
f 26/26/26 27/27/27 24/24/24
f 28/28/28 29/29/29 30/30/30
f 30/30/30 31/31/31 28/28/28
f 32/32/32 33/33/33 34/34/34
f 34/34/34 35/35/35 32/32/32
f 36/36/36 37/37/37 38/38/38
f 38/38/38 39/39/39 36/36/36
f 40/40/40 41/41/41 42/42/42
f 42/42/42 43/43/43 40/40/40
f 44/44/44 45/45/45 46/46/46
f 46/46/46 47/47/47 44/44/44
f 48/48/48 49/49/49 50/50/50
f 50/50/50 51/51/51 48/48/48
f 52/52/52 53/53/53 54/54/54
f 54/54/54 55/55/55 52/52/52
f 56/56/56 57/57/57 58/58/58
f 58/58/58 59/59/59 56/56/56
f 60/60/60 61/61/61 62/62/62
f 62/62/62 63/63/63 60/60/60
f 64/64/64 61/61/61 65/65/65
f 65/65/65 66/66/66 64/64/64
f 64/64/64 67/67/67 68/68/68
f 68/68/68 69/69/69 64/64/64
f 70/70/70 71/71/71 72/72/72
f 72/72/72 73/73/73 70/70/70
f 74/74/74 75/75/75 76/76/76
f 76/76/76 73/73/73 74/74/74
f 77/77/77 78/78/78 76/76/76
f 76/76/76 79/79/79 77/77/77
f 80/80/80 81/81/81 82/82/82
f 82/82/82 83/83/83 80/80/80
f 3/3/3 81/81/81 84/84/84
f 84/84/84 85/85/85 3/3/3
f 3/3/3 86/86/86 1/1/1