# Exported using wow.export v0.1.49
o 
mtllib flowersbunch03.mtl
v -0.014941900037229061 0.007396390195935965 -0.1853879988193512
v -0.014941900037229061 0.31505000591278076 -0.13113899528980255
v -0.014941900037229061 -0.021805599331855774 0.1363469958305359
v -0.014941900037229061 -0.021805599331855774 0.1363469958305359
v -0.014941900037229061 0.23245500028133392 0.18118000030517578
v -0.014941900037229061 -0.09573359787464142 0.5556110143661499
v -0.014941900037229061 0.15852700173854828 0.6004419922828674
v -0.11889299750328064 0.04456000030040741 -0.09233439713716507
v 0.10200899839401245 0.2621060013771057 -0.053975000977516174
v -0.09972359985113144 0.022329699248075485 0.14412899315357208
v 0.08283919841051102 0.20212000608444214 0.17583100497722626
v -0.09972359985113144 0.022329699248075485 0.14412899315357208
v 0.08283919841051102 0.20212000608444214 0.17583100497722626
v -0.09972359985113144 -0.05159749835729599 0.5633919835090637
v 0.08283919841051102 0.1281919926404953 0.595097005367279
v 0.11232499778270721 0.028253600001335144 -0.095210000872612
v -0.10857699811458588 0.24580000340938568 -0.05685029923915863
v 0.09315560013055801 0.006023330148309469 0.1412539929151535
v -0.08940750360488892 0.1858139932155609 0.1729550063610077
v 0.09315560013055801 0.006023330148309469 0.1412539929151535
v -0.08940750360488892 0.1858139932155609 0.1729550063610077
v 0.09315560013055801 -0.06790419667959213 0.5605170130729675
v -0.08940750360488892 0.11188600212335587 0.5922189950942993
v 0.16026200354099274 0.1568789929151535 -0.1590290069580078
v -0.1521410048007965 0.1568789929151535 -0.1590290069580078
v 0.13315199315547943 0.10097800195217133 0.1579969972372055
v -0.1250319927930832 0.10097800195217133 0.1579969972372055
v 0.13315199315547943 0.10097800195217133 0.1579969972372055
v -0.1250319927930832 0.10097800195217133 0.1579969972372055
v 0.13315199315547943 0.027049999684095383 0.5772609710693359
v -0.1250319927930832 0.027049999684095383 0.5772609710693359
v -0.08942750096321106 0.21969999372959137 -0.018735600635409355
v -0.1806270033121109 0.297758013010025 -0.07986470311880112
v -0.0545927993953228 0.33808600902557373 -0.0727538987994194
v -0.1806270033121109 0.1672540009021759 -0.10287699848413467
v -0.054593101143836975 0.1269250065088272 -0.10998799651861191
v 0.02329999953508377 0.23250700533390045 -0.0913710966706276
v -0.08380059897899628 0.060799699276685715 -0.03630109876394272
v -0.17499999701976776 0.13886100053787231 -0.09743030369281769
v -0.04896580055356026 0.17918899655342102 -0.0903192013502121
v -0.17499999701976776 0.008353889919817448 -0.12044200301170349
v -0.04896580055356026 -0.03197440132498741 -0.12755300104618073
v 0.028926899656653404 0.07360690087080002 -0.10893599689006805
v -0.01483639981597662 0.035430800169706345 -0.12573300302028656
v 0.051423098891973495 0.13805200159549713 -0.18253199756145477
v 0.09237360209226608 0.013933099806308746 -0.20441700518131256
v -0.08109640330076218 0.13805200159549713 -0.18253199756145477
v -0.12204699963331223 0.013933099806308746 -0.20441700518131256
v -0.01483639981597662 -0.0627761036157608 -0.2179429978132248
v -0.12357400357723236 0.14973899722099304 -0.11793000251054764
v -0.2363010048866272 0.20936599373817444 -0.07451439648866653
v -0.16401100158691406 0.2676219940185547 -0.16907599568367004
v -0.2363010048866272 0.07885889708995819 -0.09752669930458069
v -0.16401100158691406 0.05645810067653656 -0.20631000399589539
v -0.11933399736881256 0.17312000691890717 -0.2505300045013428
v 0.08228670060634613 0.04524749889969826 -0.038475800305604935
v 0.1936269998550415 0.07542169839143753 -0.10804899781942368
v 0.1334639936685562 -0.040860000997781754 -0.12855300307273865
v 0.09992139786481857 0.1677040010690689 -0.09177689999341965
v -0.018154200166463852 0.10845500230789185 -0.10222399979829788
v 0.0025722200516611338 -0.020443899556994438 -0.1249530017375946
v 0.08228670060634613 0.23532499372959137 -0.016528600826859474
v 0.1334639936685562 0.14921699464321136 -0.10660500079393387
v 0.0025722200516611338 0.16963300108909607 -0.10300499945878983
v -0.018154200166463852 0.2985279858112335 -0.08027669787406921
v 0.1936269998550415 0.2654989957809448 -0.08610109984874725
v 0.09992139786481857 0.35778099298477173 -0.06982970237731934
v 0.1237649992108345 0.14764399826526642 -0.10604900121688843
v 0.15859900414943695 0.26603400707244873 -0.16006800532341003
v 0.23649199306964874 0.1604509949684143 -0.17868399620056152
v 0.15859900414943695 0.0548693984746933 -0.1973010003566742
v 0.03256560117006302 0.22570499777793884 -0.16717900335788727
v 0.03256560117006302 0.09519810229539871 -0.19019000232219696
v -0.01483639981597662 0.28022798895835876 -0.09510169923305511
v 0.051423098891973495 0.3492330014705658 -0.18994799256324768
v 0.09237360209226608 0.2274940013885498 -0.15732799470424652
v -0.08109640330076218 0.3492330014705658 -0.18994799256324768
v -0.12204699963331223 0.2274940013885498 -0.15732799470424652
v -0.01483639981597662 0.15225599706172943 -0.13716700673103333
v -0.01483639981597662 0.1782280057668686 -0.13541999459266663
v 0.09237360209226608 0.15672999620437622 -0.21410299837589264
v -0.01483639981597662 0.0800200030207634 -0.22762900590896606
v -0.12204699963331223 0.15672999620437622 -0.21410299837589264
v 0.051423098891973495 0.2808470129966736 -0.19221800565719604
v -0.08109640330076218 0.2808470129966736 -0.19221800565719604
v -0.014941900037229061 0.23245500028133392 0.18118000030517578
vn 1 -1.0523900328962554e-7 7.450569938782792e-9
vn 1 -1.0523900328962554e-7 7.450580152834618e-9
vn 1 -1.0523900328962554e-7 7.450580152834618e-9
vn 1 -1.0523900328962554e-7 7.450580152834618e-9
vn 1 -1.0523900328962554e-7 7.450580152834618e-9
vn 1 -1.0523900328962554e-7 7.450580152834618e-9
vn 1 -1.0523900328962554e-7 7.450580152834618e-9
vn 0.7071070075035095 -0.6963639855384827 -0.12278799712657928
vn 0.7071070075035095 -0.6963639855384827 -0.12278799712657928
vn 0.7071070075035095 -0.6963639855384827 -0.12278799712657928
vn 0.7071070075035095 -0.6963639855384827 -0.12278799712657928
vn 0.7071070075035095 -0.6963639855384827 -0.12278799712657928
vn 0.7071070075035095 -0.6963639855384827 -0.12278799712657928
vn 0.7071070075035095 -0.6963639855384827 -0.12278799712657928
vn 0.7071070075035095 -0.6963639855384827 -0.12278799712657928
vn 0.7071070075035095 0.6963639855384827 0.12278799712657928
vn 0.7071070075035095 0.6963639855384827 0.12278799712657928
vn 0.7071070075035095 0.6963639855384827 0.12278799712657928
vn 0.7071070075035095 0.6963639855384827 0.12278799712657928
vn 0.7071070075035095 0.6963639855384827 0.12278799712657928
vn 0.7071070075035095 0.6963639855384827 0.12278799712657928
vn 0.7071070075035095 0.6963639855384827 0.12278799712657928
vn 0.7071070075035095 0.6963639855384827 0.12278799712657928
vn -6.640650251910074e-10 0.9848080277442932 0.17364799976348877
vn -6.640690219938961e-10 0.9848080277442932 0.17364799976348877
vn -6.640710203953404e-10 0.9848080277442932 0.17364799976348877
vn -6.640740179975069e-10 0.9848080277442932 0.17364799976348877
vn -6.640710203953404e-10 0.9848080277442932 0.17364799976348877
vn -6.640740179975069e-10 0.9848080277442932 0.17364799976348877
vn -6.640740179975069e-10 0.9848080277442932 0.17364799976348877
vn -6.640740179975069e-10 0.9848080277442932 0.17364799976348877
vn 8.940700269022273e-8 0.17364799976348877 -0.9848080277442932
vn 0.44293901324272156 -0.17161600291728973 -0.8799729943275452
vn -0.169187992811203 -0.36748600006103516 -0.9145100116729736
vn 0.44293901324272156 0.4622339904308319 -0.7682080268859863
vn -0.169187992811203 0.6581050157546997 -0.7336710095405579
vn -0.5475029945373535 0.14530999958515167 -0.8240910172462463
vn 8.940700269022273e-8 0.17364799976348877 -0.9848080277442932
vn 0.44293901324272156 -0.17161600291728973 -0.8799729943275452
vn -0.169187992811203 -0.36748600006103516 -0.9145100116729736
vn 0.44293901324272156 0.4622339904308319 -0.7682080268859863
vn -0.169187992811203 0.6581050157546997 -0.7336710095405579
vn -0.5475029945373535 0.14530999958515167 -0.8240910172462463
vn -2.845520086225406e-8 0.17364799976348877 -0.9848080277442932
vn -0.32181400060653687 -0.2909010052680969 -0.9010059833526611
vn -0.5207059979438782 0.3119269907474518 -0.7947120070457458
vn 0.32181400060653687 -0.2909010052680969 -0.9010059833526611
vn 0.5207059979438782 0.3119269907474518 -0.7947120070457458
vn 4.1452800303432014e-8 0.6844949722290039 -0.729017972946167
vn -0.8191519975662231 0.09960059821605682 -0.5648630261421204
vn -0.431410014629364 -0.17057299613952637 -0.8858839869499207
vn -0.7825120091438293 -0.4535149931907654 -0.426613986492157
vn -0.431410014629364 0.46327701210975647 -0.7741190195083618
vn -0.7825109958648682 0.5720760226249695 -0.24577400088310242
vn -0.999504029750824 0.005467019975185394 -0.031004300341010094
vn -3.522280067613792e-8 0.17364799976348877 -0.9848080277442932
vn -0.5407620072364807 0.06096230074763298 -0.838962972164154
vn -0.24856099486351013 0.6257269978523254 -0.7393800020217896
vn -0.08564849942922592 -0.3872379958629608 -0.9179930090904236
vn 0.4878289997577667 -0.09947569668292999 -0.8672530055046082
vn 0.38714298605918884 0.5265709757804871 -0.7568640112876892
vn -3.522280067613792e-8 0.17364799976348877 -0.9848080277442932
vn -0.24856099486351013 0.6257269978523254 -0.7393800020217896
vn 0.38714298605918884 0.5265709757804871 -0.7568640112876892
vn 0.4878289997577667 -0.09947569668292999 -0.8672530055046082
vn -0.5407620072364807 0.06096230074763298 -0.838962972164154
vn -0.08564849942922592 -0.3872379958629608 -0.9179930090904236
vn 8.940700269022273e-8 0.17364799976348877 -0.9848080277442932
vn -0.169187992811203 -0.36748600006103516 -0.9145100116729736
vn -0.5475029945373535 0.14530999958515167 -0.8240910172462463
vn -0.169187992811203 0.6581050157546997 -0.7336710095405579
vn 0.44293901324272156 -0.17161600291728973 -0.8799729943275452
vn 0.44293901324272156 0.4622339904308319 -0.7682080268859863
vn -4.3263600701948235e-8 -0.25881901383399963 -0.9659259915351868
vn -0.32181400060653687 -0.6444270014762878 -0.6936489939689636
vn -0.5207059979438782 -0.05315779894590378 -0.8520789742469788
vn 0.32181400060653687 -0.6444270014762878 -0.6936489939689636
vn 0.5207059979438782 -0.05315789952874184 -0.8520789742469788
vn 1.8495100562176958e-8 0.312267005443573 -0.9499940276145935
vn -2.845520086225406e-8 0.17364799976348877 -0.9848080277442932
vn -0.5207059979438782 0.3119269907474518 -0.7947120070457458
vn 4.1452800303432014e-8 0.6844949722290039 -0.729017972946167
vn 0.5207059979438782 0.3119269907474518 -0.7947120070457458
vn -0.32181400060653687 -0.2909010052680969 -0.9010059833526611
vn 0.32181400060653687 -0.2909010052680969 -0.9010059833526611
vn 1 -1.0523900328962554e-7 7.450580152834618e-9
vt 0.5028370022773743 0.2461569905281067
vt 0.2516289949417114 0.2461569905281067
vt 0.5028370022773743 0.004611015319824219
vt 0.2509880065917969 0.25823497772216797
vt -0.00021956900309305638 0.25823497772216797
vt 0.2509880065917969 0.002196013927459717
vt -0.00021961299353279173 0.002196013927459717
vt 0.5028370022773743 0.2461569905281067
vt 0.2516289949417114 0.2461569905281067
vt 0.5028370022773743 0.004611015319824219
vt 0.2516289949417114 0.004611015319824219
vt 0.2509880065917969 0.25823497772216797
vt -0.00021956900309305638 0.25823497772216797
vt 0.2509880065917969 0.002196013927459717
vt -0.00021961299353279173 0.002196013927459717
vt 0.5028370022773743 0.2461569905281067
vt 0.2516289949417114 0.2461569905281067
vt 0.5028370022773743 0.004611015319824219
vt 0.2516289949417114 0.004611015319824219
vt 0.2509880065917969 0.25823497772216797
vt -0.00021956900309305638 0.25823497772216797
vt 0.2509880065917969 0.002196013927459717
vt -0.00021961299353279173 0.002196013927459717
vt 0.5028370022773743 0.2461569905281067
vt 0.2516289949417114 0.2461569905281067
vt 0.5028370022773743 0.004611015319824219
vt 0.2516289949417114 0.004611015319824219
vt 0.2509880065917969 0.25823497772216797
vt -0.00021956900309305638 0.25823497772216797
vt 0.2509880065917969 0.002196013927459717
vt -0.00021961299353279173 0.002196013927459717
vt 0.6269189715385437 0.3759469985961914
vt 0.5053730010986328 0.2518479824066162
vt 0.7403759956359863 0.2522159814834595
vt 0.5000789761543274 0.4439989924430847
vt 0.6296780109405518 0.49879199266433716
vt 0.7500380277633667 0.4207080006599426
vt 0.6269189715385437 0.3759469985961914
vt 0.5053730010986328 0.2518479824066162
vt 0.7403759956359863 0.2522159814834595
vt 0.5000789761543274 0.4439989924430847
vt 0.6296780109405518 0.49879199266433716
vt 0.7500380277633667 0.4207080006599426
vt 0.6274290084838867 0.1280689835548401
vt 0.5084409713745117 0.0026819705963134766
vt 0.7300099730491638 0.002110004425048828
vt 0.5009199976921082 0.21165001392364502
vt 0.6302170157432556 0.2521889805793762
vt 0.7508829832077026 0.2141839861869812
vt 0.6269189715385437 0.3759469985961914
vt 0.5053730010986328 0.2518479824066162
vt 0.7403759956359863 0.2522159814834595
vt 0.5000789761543274 0.4439989924430847
vt 0.6296780109405518 0.49879199266433716
vt 0.7500380277633667 0.4207080006599426
vt 0.6258699893951416 0.12529999017715454
vt 0.5053629875183105 0.0023469924926757812
vt 0.7449100017547607 0.0017870068550109863
vt 0.5002020001411438 0.2165279984474182
vt 0.628603994846344 0.2470099925994873
vt 0.74692702293396 0.2090740203857422
vt 0.6258699893951416 0.12529999017715454
vt 0.7449100017547607 0.0017870068550109863
vt 0.74692702293396 0.2090740203857422
vt 0.628603994846344 0.2470099925994873
vt 0.5053629875183105 0.0023469924926757812
vt 0.5002020001411438 0.2165279984474182
vt 0.6269189715385437 0.3759469985961914
vt 0.7403759956359863 0.2522159814834595
vt 0.7500380277633667 0.4207080006599426
vt 0.6296780109405518 0.49879199266433716
vt 0.5053730010986328 0.2518479824066162
vt 0.5000789761543274 0.4439989924430847
vt 0.6223239898681641 0.38228899240493774
vt 0.5221369862556458 0.2556849718093872
vt 0.714260995388031 0.2551079988479614
vt 0.4929240047931671 0.45171499252319336
vt 0.6251389980316162 0.5076150000095367
vt 0.7469769716262817 0.406046986579895
vt 0.6274290084838867 0.1280689835548401
vt 0.7300099730491638 0.002110004425048828
vt 0.7508829832077026 0.2141839861869812
vt 0.6302170157432556 0.2521889805793762
vt 0.5084409713745117 0.0026819705963134766
vt 0.5009199976921082 0.21165001392364502
vt 0.2516289949417114 0.004611015319824219
g Geoset0
s 1
usemtl mat_flowerarrangements01
f 1/1/1 2/2/2 3/3/3
f 4/4/4 5/5/5 6/6/6
f 7/7/7 6/6/6 5/5/5
f 8/8/8 9/9/9 10/10/10
f 11/11/11 10/10/10 9/9/9
f 12/12/12 13/13/13 14/14/14
f 15/15/15 14/14/14 13/13/13
f 16/16/16 17/17/17 18/18/18
f 19/19/19 18/18/18 17/17/17
f 20/20/20 21/21/21 22/22/22
f 23/23/23 22/22/22 21/21/21
f 24/24/24 25/25/25 26/26/26
f 27/27/27 26/26/26 25/25/25
f 28/28/28 29/29/29 30/30/30
f 31/31/31 30/30/30 29/29/29
f 32/32/32 33/33/33 34/34/34
f 32/32/32 35/35/35 33/33/33
f 32/32/32 36/36/36 35/35/35
f 32/32/32 37/37/37 36/36/36
f 32/32/32 34/34/34 37/37/37
f 38/38/38 39/39/39 40/40/40
f 38/38/38 41/41/41 39/39/39
f 38/38/38 42/42/42 41/41/41
f 38/38/38 43/43/43 42/42/42
f 38/38/38 40/40/40 43/43/43
f 44/44/44 45/45/45 46/46/46
f 44/44/44 47/47/47 45/45/45
f 44/44/44 48/48/48 47/47/47
f 44/44/44 49/49/49 48/48/48
f 44/44/44 46/46/46 49/49/49
f 50/50/50 51/51/51 52/52/52
f 50/50/50 53/53/53 51/51/51
f 50/50/50 54/54/54 53/53/53
f 50/50/50 55/55/55 54/54/54
f 50/50/50 52/52/52 55/55/55
f 56/56/56 57/57/57 58/58/58
f 56/56/56 59/59/59 57/57/57
f 56/56/56 60/60/60 59/59/59
f 56/56/56 61/61/61 60/60/60
f 56/56/56 58/58/58 61/61/61
f 62/62/62 63/63/63 64/64/64
f 62/62/62 64/64/64 65/65/65
f 62/62/62 66/66/66 63/63/63
f 62/62/62 67/67/67 66/66/66
f 62/62/62 65/65/65 67/67/67
f 68/68/68 69/69/69 70/70/70
f 68/68/68 70/70/70 71/71/71
f 68/68/68 72/72/72 69/69/69
f 68/68/68 73/73/73 72/72/72
f 68/68/68 71/71/71 73/73/73
f 74/74/74 75/75/75 76/76/76
f 74/74/74 77/77/77 75/75/75
f 74/74/74 78/78/78 77/77/77
f 74/74/74 79/79/79 78/78/78
f 74/74/74 76/76/76 79/79/79
f 80/80/80 81/81/81 82/82/82
f 80/80/80 82/82/82 83/83/83
f 80/80/80 84/84/84 81/81/81
f 80/80/80 85/85/85 84/84/84
f 80/80/80 83/83/83 85/85/85
f 86/86/86 3/3/3 2/2/2