# Exported using wow.export v0.1.49
o 
mtllib swampplant05.mtl
v 0.03877648711204529 1.813030481338501 -1.1684088706970215
v 1.002595067024231 2.8398044109344482 -0.4072982668876648
v 0.03877647593617439 -0.12115152925252914 -0.6955742239952087
v 0.03877647593617439 -0.12115152925252914 -0.6955742239952087
v -0.5591098666191101 -0.12115152925252914 -0.2611844539642334
v 0.03877648711204529 1.813030481338501 -1.1684088706970215
v -1.2792402505874634 2.7795393466949463 -0.4072984457015991
v -0.5591098666191101 -0.12115152925252914 -0.2611844539642334
v -0.3307375907897949 -0.12115152925252914 0.44167324900627136
v -1.2792402505874634 2.7795393466949463 -0.4072984457015991
v -0.5757976174354553 2.63744854927063 0.796785295009613
v -0.3307375907897949 -0.12115152925252914 0.44167324900627136
v 0.4082905650138855 -0.12115152925252914 0.44167330861091614
v -0.5757976174354553 2.63744854927063 0.796785295009613
v 0.6862156987190247 1.813030481338501 0.8242045044898987
v 0.4082905650138855 -0.12115152925252914 0.44167330861091614
v 0.6366627812385559 -0.12115152925252914 -0.26118436455726624
v 0.6862156987190247 1.813030481338501 0.8242045044898987
v 1.002595067024231 2.8398044109344482 -0.4072982668876648
v 0.6366627812385559 -0.12115152925252914 -0.26118436455726624
v -0.22704601287841797 3.7159640789031982 0.11671880632638931
v -0.17961953580379486 2.1184206008911133 -0.16308455169200897
v 0.42319074273109436 3.7159640789031982 -0.05751144140958786
v -0.028492102399468422 1.8098398447036743 -0.5324552655220032
v -0.028492072597146034 -0.0942518338561058 -0.5324552655220032
v -0.028492072597146034 -0.0942518338561058 0.14963577687740326
v -0.028492102399468422 1.8098398447036743 0.14963577687740326
v -0.02849215269088745 3.4114174842834473 -0.5279970765113831
v -0.02849215269088745 3.4114174842834473 0.14517763257026672
v 0.3791162967681885 -0.09425163269042969 0.2281467169523239
v 0.3791165053844452 2.1184206008911133 0.2281467169523239
v -0.17961980402469635 -0.09425163269042969 -0.163084477186203
vn -0.19694553315639496 -0.07418853789567947 -0.9776034355163574
vn 0.8631189465522766 -0.046561989933252335 -0.5028495788574219
vn 0.2996743619441986 -0.06198204308748245 -0.9520260095596313
vn 0.2996743619441986 -0.06198204308748245 -0.9520260095596313
vn -0.8519395589828491 -0.07595324516296387 -0.5181024074554443
vn -0.19694553315639496 -0.07418853789567947 -0.9776034355163574
vn -0.9974662661552429 -0.07113546878099442 0.0008609239012002945
vn -0.8519395589828491 -0.07595324516296387 -0.5181024074554443
vn -0.7091948390007019 -0.05988784506917 0.7024643421173096
vn -0.9974662661552429 -0.07113546878099442 0.0008609239012002945
vn -0.37553343176841736 -0.05212947353720665 0.9253416657447815
vn -0.7091948390007019 -0.05988784506917 0.7024643421173096
vn 0.33245235681533813 -0.06451237946748734 0.940911054611206
vn -0.37553343176841736 -0.05212947353720665 0.9253416657447815
vn 0.7759137749671936 -0.06593891233205795 0.6273833513259888
vn 0.33245235681533813 -0.06451237946748734 0.940911054611206
vn 0.9895387887954712 -0.0521698072552681 -0.13450397551059723
vn 0.7759137749671936 -0.06593891233205795 0.6273833513259888
vn 0.8631189465522766 -0.046561989933252335 -0.5028495788574219
vn 0.9895387887954712 -0.0521698072552681 -0.13450397551059723
vn 0.288350909948349 -0.04186828434467316 0.9566090106964111
vn -0.09715884178876877 0.013193274848163128 0.9951814413070679
vn 0.0029947843868285418 0.01995425671339035 0.9997963905334473
vn -1 -2.0545694923157498e-8 0
vn -1 -1.55091512965555e-8 0
vn -1 -1.55091512965555e-8 0
vn -1 -2.5582234997045816e-8 0
vn -1 -3.061877862364781e-8 0
vn -1 -3.061877862364781e-8 0
vn -0.2844424545764923 6.048352357151954e-12 0.9586931467056274
vn -0.2843419909477234 0.026586933061480522 0.9583541750907898
vn -0.2844425439834595 9.384987009752876e-9 0.9586930871009827
vt 0 1
vt 1 1
vt 0 0
vt 1 0
vt 0 0
vt 1 1
vt 0 1
vt 1 0
vt 0 0
vt 1 1
vt 0 1
vt 1 0
vt 0 0
vt 1 1
vt 0 1
vt 1 0
vt 0 0
vt 1 1
vt 0 1
vt 1 0
vt 0.0024750828742980957 0.9995005130767822
vt 0.0024740993976593018 0.15217387676239014
vt 0.9935797452926636 0.9995004534721375
vt 0.9935787916183472 0.27053141593933105
vt 0.9935778379440308 0.0029149651527404785
vt 0.002473115921020508 0.002915024757385254
vt 0.0024740993976593018 0.27053141593933105
vt 0.9935797452926636 0.9995004534721375
vt 0.0024750828742980957 0.9995005130767822
vt 0.9935778379440308 0.007745921611785889
vt 0.9935787916183472 0.15217387676239014
vt 0.002473115921020508 0.007745981216430664
g Geoset0
s 1
usemtl mat_swampreeds01a
f 1/1/1 2/2/2 3/3/3
f 4/4/4 5/5/5 6/6/6
f 7/7/7 6/6/6 5/5/5
f 8/8/8 9/9/9 10/10/10
f 11/11/11 10/10/10 9/9/9
f 12/12/12 13/13/13 14/14/14
f 15/15/15 14/14/14 13/13/13
f 16/16/16 17/17/17 18/18/18
f 19/19/19 18/18/18 17/17/17
f 20/20/20 3/3/3 2/2/2
g Geoset1
s 1
usemtl mat_westfallflower01
f 21/21/21 22/22/22 23/23/23
f 24/24/24 25/25/25 26/26/26
f 26/26/26 27/27/27 24/24/24
f 28/28/28 24/24/24 27/27/27
f 27/27/27 29/29/29 28/28/28
f 30/30/30 31/31/31 32/32/32
f 22/22/22 32/32/32 31/31/31
f 31/31/31 23/23/23 22/22/22