# Exported using wow.export v0.1.49
o 
mtllib swampplant04.mtl
v 0.06719370186328888 2.3621864318847656 -1.5238864421844482
v 1.4547067880630493 2.5446624755859375 -0.4281917214393616
v 0.06719367206096649 -0.6727467775344849 -0.843193769454956
v 0.0671936646103859 -0.6727467775344849 -0.4319685995578766
v -0.402425080537796 -0.6727467775344849 -0.09077063202857971
v 0.047033973038196564 3.512634038925171 -1.1799718141555786
v -0.821264922618866 3.3965213298797607 -0.31910327076911926
v -0.402425080537796 -0.6727467775344849 -0.09077063202857971
v -0.22304674983024597 -0.6727467775344849 0.46129947900772095
v -0.821264922618866 3.3965213298797607 -0.31910327076911926
v -0.6719631552696228 3.647395610809326 1.007189393043518
v -0.22304674983024597 -0.6727467775344849 0.46129947900772095
v 0.3574340045452118 -0.6727468967437744 0.46129947900772095
v -0.6719631552696228 3.647395610809326 1.007189393043518
v 0.7793326377868652 3.3965213298797607 1.0738121271133423
v 0.3574340045452118 -0.6727468967437744 0.46129947900772095
v 0.5368124842643738 -0.6727467775344849 -0.09077056497335434
v 0.7793326377868652 3.3965213298797607 1.0738121271133423
v 1.231918215751648 3.6347529888153076 -0.31910303235054016
v 0.5368124842643738 -0.6727467775344849 -0.09077056497335434
v 0.0671936646103859 -0.6727467775344849 -0.4319685995578766
v 1.231918215751648 3.6347529888153076 -0.31910303235054016
v 0.047033973038196564 3.512634038925171 -1.1799718141555786
v 0.06719367206096649 -0.6727467775344849 -0.843193769454956
v -0.7935234904289246 -0.6727467775344849 -0.21784625947475433
v 0.06719370186328888 2.3621864318847656 -1.5238864421844482
v -1.8302233219146729 2.4863734245300293 -0.42819198966026306
v -0.7935234904289246 -0.6727467775344849 -0.21784625947475433
v -0.4647587239742279 -0.6727468371391296 0.7939876317977905
v -1.8302233219146729 2.4863734245300293 -0.42819198966026306
v -0.8175471425056458 2.3489418029785156 1.3052068948745728
v -0.4647587239742279 -0.6727468371391296 0.7939876317977905
v 0.5991461277008057 -0.6727468371391296 0.7939876914024353
v -0.8175471425056458 2.3489418029785156 1.3052068948745728
v 0.999247133731842 2.3621864318847656 1.3446794748306274
v 0.5991461277008057 -0.6727468371391296 0.7939876914024353
v 0.9279108047485352 -0.6727468371391296 -0.21784617006778717
v 0.999247133731842 2.3621864318847656 1.3446794748306274
v 1.4547067880630493 2.5446624755859375 -0.4281917214393616
v 0.9279108047485352 -0.6727468371391296 -0.21784617006778717
vn -0.18677940964698792 -0.033026039600372314 -0.9818465709686279
vn 0.8518060445785522 -0.025657230988144875 -0.5232285857200623
vn 0.25616076588630676 -0.02884823828935623 -0.9662036299705505
vn 0.23956654965877533 -0.02418067492544651 -0.9705787897109985
vn -0.878126323223114 -0.018912971019744873 -0.47805488109588623
vn -0.2829722464084625 -0.02332190051674843 -0.9588445425033569
vn -0.9945054650306702 -0.0166818518191576 -0.1033470407128334
vn -0.878126323223114 -0.018912971019744873 -0.47805488109588623
vn -0.8025399446487427 -0.019130593165755272 0.5962916016578674
vn -0.9945054650306702 -0.0166818518191576 -0.1033470407128334
vn -0.4456806480884552 -0.0231423731893301 0.8948928713798523
vn -0.8025399446487427 -0.019130593165755272 0.5962916016578674
vn 0.35650894045829773 -0.023765332996845245 0.9339895844459534
vn -0.4456806480884552 -0.0231423731893301 0.8948928713798523
vn 0.7553275227546692 -0.024869441986083984 0.6548754572868347
vn 0.35650894045829773 -0.023765332996845245 0.9339895844459534
vn 0.9961073994636536 -0.023861754685640335 -0.0848565623164177
vn 0.7553275227546692 -0.024869441986083984 0.6548754572868347
vn 0.8505266308784485 -0.023477116599678993 -0.5254077315330505
vn 0.9961073994636536 -0.023861754685640335 -0.0848565623164177
vn 0.23956654965877533 -0.02418067492544651 -0.9705787897109985
vn 0.8505266308784485 -0.023477116599678993 -0.5254077315330505
vn -0.2829722464084625 -0.02332190051674843 -0.9588445425033569
vn 0.25616076588630676 -0.02884823828935623 -0.9662036299705505
vn -0.8321821689605713 -0.040139514952898026 -0.5530475974082947
vn -0.18677940964698792 -0.033026039600372314 -0.9818465709686279
vn -0.9987928867340088 -0.04255804419517517 -0.02452777698636055
vn -0.8321821689605713 -0.040139514952898026 -0.5530475974082947
vn -0.7097091674804688 -0.03566763922572136 0.7035912871360779
vn -0.9987928867340088 -0.04255804419517517 -0.02452777698636055
vn -0.33604711294174194 -0.028504997491836548 0.9414137005805969
vn -0.7097091674804688 -0.03566763922572136 0.7035912871360779
vn 0.373631089925766 -0.030110139399766922 0.9270885586738586
vn -0.33604711294174194 -0.028504997491836548 0.9414137005805969
vn 0.7763016223907471 -0.029123764485120773 0.6296885013580322
vn 0.373631089925766 -0.030110139399766922 0.9270885586738586
vn 0.9941098093986511 -0.026605945080518723 -0.10506080836057663
vn 0.7763016223907471 -0.029123764485120773 0.6296885013580322
vn 0.8518060445785522 -0.025657230988144875 -0.5232285857200623
vn 0.9941098093986511 -0.026605945080518723 -0.10506080836057663
vt 0 1
vt 1 1
vt 0 0
vt 1 0
vt 0 0
vt 1 1
vt 0 1
vt 1 0
vt 0 0
vt 1 1
vt 0 1
vt 1 0
vt 0 0
vt 1 1
vt 0 1
vt 1 0
vt 0 0
vt 1 1
vt 0 1
vt 1 0
vt 0 0
vt 1 1
vt 0 1
vt 1 0
vt 0 0
vt 1 1
vt 0 1
vt 1 0
vt 0 0
vt 1 1
vt 0 1
vt 1 0
vt 0 0
vt 1 1
vt 0 1
vt 1 0
vt 0 0
vt 1 1
vt 0 1
vt 1 0
g Geoset0
s 1
usemtl mat_swampreeds01a
f 1/1/1 2/2/2 3/3/3
f 4/4/4 5/5/5 6/6/6
f 7/7/7 6/6/6 5/5/5
f 8/8/8 9/9/9 10/10/10
f 11/11/11 10/10/10 9/9/9
f 12/12/12 13/13/13 14/14/14
f 15/15/15 14/14/14 13/13/13
f 16/16/16 17/17/17 18/18/18
f 19/19/19 18/18/18 17/17/17
f 20/20/20 21/21/21 22/22/22
f 23/23/23 22/22/22 21/21/21
f 24/24/24 25/25/25 26/26/26
f 27/27/27 26/26/26 25/25/25
f 28/28/28 29/29/29 30/30/30
f 31/31/31 30/30/30 29/29/29
f 32/32/32 33/33/33 34/34/34
f 35/35/35 34/34/34 33/33/33
f 36/36/36 37/37/37 38/38/38
f 39/39/39 38/38/38 37/37/37
f 40/40/40 3/3/3 2/2/2