# Exported using wow.export v0.1.49
o 
mtllib innbarrel.mtl
v 0.542794942855835 -0.00047344632912427187 0.3133827745914459
v 0.6267655491828918 -0.00047344632912427187 1.1544898370630108e-10
v 0.688559353351593 0.5555555820465088 -8.876377854960538e-9
v -7.173197591470171e-10 -0.00047344632912427187 -0.6267653703689575
v -3.786079361134398e-8 -0.000946945627219975 8.203539891837863e-8
v -0.3133827745914459 -0.00047344632912427187 -0.5427947640419006
v 0.31338268518447876 -0.00047344632912427187 -0.5427947640419006
v 0.5427948236465454 -0.00047344632912427187 -0.3133827745914459
v -0.542794942855835 -0.00047344632912427187 -0.31338265538215637
v -0.6267655491828918 -0.00047344632912427187 1.0970261854481578e-7
v -0.5427947640419006 -0.00047344632912427187 0.3133828938007355
v -0.31338271498680115 -0.00047344632912427187 0.5427950024604797
v 0.6267655491828918 -0.00047344632912427187 1.1544898370630108e-10
v 0.542794942855835 -0.00047344632912427187 0.3133827745914459
v 0.3133827745914459 -0.00047344632912427187 0.5427950024604797
v 5.4076270572522844e-8 -0.00047344632912427187 0.6267656087875366
v 3.6426154537139155e-8 1.6666666269302368 8.141727647625885e-8
v -0.5096664428710938 1.6666666269302368 0.2942562401294708
v -0.2942560613155365 1.6666666269302368 0.5096666812896729
v -0.5885121822357178 1.6666666269302368 1.0714196463368353e-7
v -0.5096665024757385 1.6666666269302368 -0.2942560315132141
v -0.2942560911178589 1.6666666269302368 -0.5096664428710938
v 3.6426154537139155e-8 1.6666666269302368 -0.588512122631073
v 0.2942560613155365 1.6666666269302368 -0.5096665024757385
v 0.5096665620803833 1.6666666269302368 -0.2942561209201813
v 8.787552729927484e-8 1.6666666269302368 0.5885123014450073
v 0.29425618052482605 1.6666666269302368 0.5096666216850281
v 0.5885122418403625 1.6666666269302368 4.2432097835387594e-9
v 0.5096666812896729 1.6666666269302368 0.2942561209201813
v -0.5427947640419006 -0.00047344632912427187 0.3133828938007355
v -0.31338271498680115 -0.00047344632912427187 0.5427950024604797
v -0.34427958726882935 0.5555555820465088 0.5963099598884583
v -0.5963097810745239 0.5555555820465088 0.3442797362804413
v -0.6267655491828918 -0.00047344632912427187 1.0970261854481578e-7
v -0.6885592341423035 0.5555555820465088 1.1151517043117565e-7
v -0.542794942855835 -0.00047344632912427187 -0.31338265538215637
v -0.5963097810745239 0.5555555820465088 -0.34427952766418457
v -0.3133827745914459 -0.00047344632912427187 -0.5427947640419006
v -0.34427961707115173 0.5555555820465088 -0.5963097214698792
v -0.34427958726882935 1.1111111640930176 0.5963099598884583
v -0.5963097810745239 1.1111111640930176 0.3442797362804413
v -0.6885592341423035 1.1111111640930176 1.1151517043117565e-7
v -0.5963097810745239 1.1111111640930176 -0.34427952766418457
v -0.34427961707115173 1.1111111640930176 -0.5963097214698792
v -0.5096665024757385 1.6666666269302368 -0.2942560315132141
v -0.2942560911178589 1.6666666269302368 -0.5096664428710938
v -0.5885121822357178 1.6666666269302368 1.0714196463368353e-7
v -0.5096664428710938 1.6666666269302368 0.2942562401294708
v -0.2942560613155365 1.6666666269302368 0.5096666812896729
v 3.6426154537139155e-8 1.1111111640930176 -0.6885591745376587
v -0.34427961707115173 1.1111111640930176 -0.5963097214698792
v -0.2942560911178589 1.6666666269302368 -0.5096664428710938
v 3.6426154537139155e-8 1.6666666269302368 -0.588512122631073
v 0.34427958726882935 1.1111111640930176 -0.5963097810745239
v 0.2942560613155365 1.6666666269302368 -0.5096665024757385
v 0.5963099002838135 1.1111111640930176 -0.3442796468734741
v 0.5096665620803833 1.6666666269302368 -0.2942561209201813
v 0.688559353351593 1.1111111640930176 -8.876377854960538e-9
v 0.5885122418403625 1.6666666269302368 4.2432097835387594e-9
v 3.6426154537139155e-8 0.5555555820465088 -0.6885591745376587
v -0.34427961707115173 0.5555555820465088 -0.5963097214698792
v 0.34427958726882935 0.5555555820465088 -0.5963097810745239
v 0.5963099002838135 0.5555555820465088 -0.3442796468734741
v 0.688559353351593 0.5555555820465088 -8.876377854960538e-9
v 0.6267655491828918 -0.00047344632912427187 1.1544898370630108e-10
v 0.5427948236465454 -0.00047344632912427187 -0.3133827745914459
v 0.31338268518447876 -0.00047344632912427187 -0.5427947640419006
v -7.173197591470171e-10 -0.00047344632912427187 -0.6267653703689575
v -0.3133827745914459 -0.00047344632912427187 -0.5427947640419006
v -0.34427958726882935 1.1111111640930176 0.5963099598884583
v 8.787552729927484e-8 1.6666666269302368 0.5885123014450073
v -0.2942560613155365 1.6666666269302368 0.5096666812896729
v 9.662192468340436e-8 1.1111111640930176 0.688559353351593
v -0.34427958726882935 0.5555555820465088 0.5963099598884583
v 0.29425618052482605 1.6666666269302368 0.5096666216850281
v 0.3442797362804413 1.1111111640930176 0.5963099598884583
v 0.5096666812896729 1.6666666269302368 0.2942561209201813
v 9.662192468340436e-8 0.5555555820465088 0.688559353351593
v -0.31338271498680115 -0.00047344632912427187 0.5427950024604797
v 0.5963099598884583 1.1111111640930176 0.3442796468734741
v 0.5885122418403625 1.6666666269302368 4.2432097835387594e-9
v 0.3442797362804413 0.5555555820465088 0.5963099598884583
v 5.4076270572522844e-8 -0.00047344632912427187 0.6267656087875366
v 0.3133827745914459 -0.00047344632912427187 0.5427950024604797
v 0.5963099598884583 0.5555555820465088 0.3442796468734741
v 0.688559353351593 1.1111111640930176 -8.876377854960538e-9
vn 0.7077115774154663 -0.6254907846450806 0.32848986983299255
vn 0.7771411538124084 -0.6254907846450806 -0.06937514245510101
vn 0.9984684586524963 -0.0553230457007885 -0.0002555191167630255
vn -0.06937505304813385 -0.6254907250404358 -0.7771412134170532
vn 9.70127884275529e-12 -1 -2.910383739562761e-11
vn -0.44865110516548157 -0.6254907250404358 -0.6383365392684937
vn 0.32848989963531494 -0.6254907846450806 -0.7077115774154663
vn 0.6383364200592041 -0.6254907846450806 -0.4486512243747711
vn -0.7077116370201111 -0.625490665435791 -0.3284899890422821
vn -0.7771412134170532 -0.6254907250404358 0.06937519460916519
vn -0.6383364200592041 -0.6254907250404358 0.4486512541770935
vn -0.3284899890422821 -0.6254907250404358 0.7077115774154663
vn 0.7771411538124084 -0.6254907846450806 -0.06937514245510101
vn 0.7077115774154663 -0.6254907846450806 0.32848986983299255
vn 0.44865119457244873 -0.6254907846450806 0.6383364200592041
vn 0.06937506794929504 -0.6254907250404358 0.7771412134170532
vn 0 1 0
vn -0.6819177269935608 0.6594157814979553 0.3164791464805603
vn -0.43231847882270813 0.6594157814979553 0.6150378584861755
vn -0.7487976551055908 0.6594157814979553 -0.06687986105680466
vn -0.6150378584861755 0.6594157218933105 -0.4323185086250305
vn -0.3164790868759155 0.6594157814979553 -0.6819177269935608
vn 0.06687986105680466 0.6594157814979553 -0.7487976551055908
vn 0.43231841921806335 0.6594157814979553 -0.6150379180908203
vn 0.681917667388916 0.6594158411026001 -0.3164791762828827
vn -0.06687985360622406 0.6594157814979553 0.7487976551055908
vn 0.3164791166782379 0.6594157814979553 0.6819177269935608
vn 0.7487976551055908 0.6594157814979553 0.0668797716498375
vn 0.6150379180908203 0.6594157814979553 0.43231841921806335
vn -0.6383364200592041 -0.6254907250404358 0.4486512541770935
vn -0.3284899890422821 -0.6254907250404358 0.7077115774154663
vn -0.4990129768848419 -0.055323000997304916 0.8648267984390259
vn -0.8645712733268738 -0.055323000997304916 0.4994555711746216
vn -0.7771412134170532 -0.6254907250404358 0.06937519460916519
vn -0.9984684586524963 -0.05532294511795044 0.0002554779639467597
vn -0.7077116370201111 -0.625490665435791 -0.3284899890422821
vn -0.8648267984390259 -0.05532294139266014 -0.4990130364894867
vn -0.44865110516548157 -0.6254907250404358 -0.6383365392684937
vn -0.4994554817676544 -0.055323004722595215 -0.8645713329315186
vn -0.49858903884887695 0.08901651203632355 0.8622557520866394
vn -0.8629187345504761 0.08901653438806534 0.49744081497192383
vn -0.9960299134254456 0.08901654183864594 -0.0006629498093388975
vn -0.8622557520866394 0.08901651203632355 -0.49858906865119934
vn -0.49744081497192383 0.08901650458574295 -0.8629187345504761
vn -0.6150378584861755 0.6594157218933105 -0.4323185086250305
vn -0.3164790868759155 0.6594157814979553 -0.6819177269935608
vn -0.7487976551055908 0.6594157814979553 -0.06687986105680466
vn -0.6819177269935608 0.6594157814979553 0.3164791464805603
vn -0.43231847882270813 0.6594157814979553 0.6150378584861755
vn 0.0006629292038269341 0.08901651948690414 -0.9960299134254456
vn -0.49744081497192383 0.08901650458574295 -0.8629187345504761
vn -0.3164790868759155 0.6594157814979553 -0.6819177269935608
vn 0.06687986105680466 0.6594157814979553 -0.7487976551055908
vn 0.4985889792442322 0.08901651948690414 -0.8622558116912842
vn 0.43231841921806335 0.6594157814979553 -0.6150379180908203
vn 0.8629186153411865 0.08901654183864594 -0.4974409341812134
vn 0.681917667388916 0.6594158411026001 -0.3164791762828827
vn 0.9960299134254456 0.08901654183864594 0.0006628620903939009
vn 0.7487976551055908 0.6594157814979553 0.0668797716498375
vn -0.00025549338897690177 -0.055323053151369095 -0.9984684586524963
vn -0.4994554817676544 -0.055323004722595215 -0.8645713329315186
vn 0.49901288747787476 -0.055323053151369095 -0.8648268580436707
vn 0.8645712733268738 -0.05532306805253029 -0.4994555711746216
vn 0.9984684586524963 -0.0553230457007885 -0.0002555191167630255
vn 0.7771411538124084 -0.6254907846450806 -0.06937514245510101
vn 0.6383364200592041 -0.6254907846450806 -0.4486512243747711
vn 0.32848989963531494 -0.6254907846450806 -0.7077115774154663
vn -0.06937505304813385 -0.6254907250404358 -0.7771412134170532
vn -0.44865110516548157 -0.6254907250404358 -0.6383365392684937
vn -0.49858903884887695 0.08901651203632355 0.8622557520866394
vn -0.06687985360622406 0.6594157814979553 0.7487976551055908
vn -0.43231847882270813 0.6594157814979553 0.6150378584861755
vn -0.0006629395065829158 0.08901654183864594 0.9960299134254456
vn -0.4990129768848419 -0.055323000997304916 0.8648267984390259
vn 0.3164791166782379 0.6594157814979553 0.6819177269935608
vn 0.4974408447742462 0.08901654183864594 0.8629186749458313
vn 0.6150379180908203 0.6594157814979553 0.43231841921806335
vn 0.00025544705567881465 -0.055323004722595215 0.9984684586524963
vn -0.3284899890422821 -0.6254907250404358 0.7077115774154663
vn 0.8622558116912842 0.08901651203632355 0.4985889494419098
vn 0.7487976551055908 0.6594157814979553 0.0668797716498375
vn 0.4994555711746216 -0.05532302334904671 0.8645712733268738
vn 0.06937506794929504 -0.6254907250404358 0.7771412134170532
vn 0.44865119457244873 -0.6254907846450806 0.6383364200592041
vn 0.8648268580436707 -0.0553230457007885 0.49901288747787476
vn 0.9960299134254456 0.08901654183864594 0.0006628620903939009
vt 0.375 0
vt 0.5 0
vt 0.5 0.33000004291534424
vt 0.9969621896743774 0.49999988079071045
vt 0.7545885443687439 0.5
vt 0.9644903540611267 0.7497501373291016
vt 0.9644903540611267 0.2502497434616089
vt 0.8757753968238831 0.06741988658905029
vt 0.8757753968238831 0.9325799942016602
vt 0.7545886039733887 0.9995004534721375
vt 0.6334017515182495 0.9325801134109497
vt 0.5446868538856506 0.7497503161430359
vt 0.7545885443687439 0.0004995465278625488
vt 0.6334017515182495 0.06741988658905029
vt 0.5446867942810059 0.25024980306625366
vt 0.5122149586677551 0.5000000596046448
vt 0.7545885443687439 0.5
vt 0.6334017515182495 0.9325801134109497
vt 0.5446868538856506 0.7497503161430359
vt 0.7545886039733887 0.9995004534721375
vt 0.8757753968238831 0.9325799942016602
vt 0.9644903540611267 0.7497501373291016
vt 0.9969621896743774 0.49999988079071045
vt 0.9644903540611267 0.2502497434616089
vt 0.8757753968238831 0.06741988658905029
vt 0.5122149586677551 0.5000000596046448
vt 0.5446867942810059 0.25024980306625366
vt 0.7545885443687439 0.0004995465278625488
vt 0.6334017515182495 0.06741988658905029
vt 0.375 0
vt 0.5 0
vt 0.5 0.33000004291534424
vt 0.375 0.33000004291534424
vt 0.25 0
vt 0.25 0.33000004291534424
vt 0.125 0
vt 0.125 0.33000004291534424
vt 0 0
vt 0 0.33000004291534424
vt 0.5 0.6600000262260437
vt 0.375 0.6600000262260437
vt 0.25 0.6600000262260437
vt 0.125 0.6600000262260437
vt 0 0.6600000262260437
vt 0.125 1
vt 0 1
vt 0.25 1
vt 0.375 1
vt 0.5 1
vt 0.375 0.6600000262260437
vt 0.5 0.6600000262260437
vt 0.5 1
vt 0.375 1
vt 0.25 0.6600000262260437
vt 0.25 1
vt 0.125 0.6600000262260437
vt 0.125 1
vt 0 0.6600000262260437
vt 0 1
vt 0.375 0.33000004291534424
vt 0.5 0.33000004291534424
vt 0.25 0.33000004291534424
vt 0.125 0.33000004291534424
vt 0 0.33000004291534424
vt 0 0
vt 0.125 0
vt 0.25 0
vt 0.375 0
vt 0.5 0
vt 0 0.6600000262260437
vt 0.125 1
vt 0 1
vt 0.125 0.6600000262260437
vt 0 0.33000004291534424
vt 0.25 1
vt 0.25 0.6600000262260437
vt 0.375 1
vt 0.125 0.33000004291534424
vt 0 0
vt 0.375 0.6600000262260437
vt 0.5 1
vt 0.25 0.33000004291534424
vt 0.125 0
vt 0.25 0
vt 0.375 0.33000004291534424
vt 0.5 0.6600000262260437
g Geoset0
s 1
usemtl mat_mm_barrel_side_opt
f 1/1/1 2/2/2 3/3/3
f 4/4/4 5/5/5 6/6/6
f 7/7/7 5/5/5 4/4/4
f 8/8/8 5/5/5 7/7/7
f 9/9/9 5/5/5 10/10/10
f 6/6/6 5/5/5 9/9/9
f 10/10/10 5/5/5 11/11/11
f 11/11/11 5/5/5 12/12/12
f 13/13/13 5/5/5 8/8/8
f 14/14/14 5/5/5 13/13/13
f 15/15/15 5/5/5 14/14/14
f 16/16/16 5/5/5 15/15/15
f 12/12/12 5/5/5 16/16/16
f 17/17/17 18/18/18 19/19/19
f 17/17/17 20/20/20 18/18/18
f 17/17/17 21/21/21 20/20/20
f 17/17/17 22/22/22 21/21/21
f 17/17/17 23/23/23 22/22/22
f 17/17/17 24/24/24 23/23/23
f 17/17/17 25/25/25 24/24/24
f 17/17/17 19/19/19 26/26/26
f 17/17/17 26/26/26 27/27/27
f 17/17/17 28/28/28 25/25/25
f 17/17/17 29/29/29 28/28/28
f 17/17/17 27/27/27 29/29/29
f 30/30/30 31/31/31 32/32/32
f 30/30/30 32/32/32 33/33/33
f 34/34/34 30/30/30 33/33/33
f 34/34/34 33/33/33 35/35/35
f 36/36/36 34/34/34 35/35/35
f 36/36/36 35/35/35 37/37/37
f 38/38/38 36/36/36 37/37/37
f 38/38/38 37/37/37 39/39/39
f 33/33/33 32/32/32 40/40/40
f 33/33/33 40/40/40 41/41/41
f 35/35/35 33/33/33 41/41/41
f 35/35/35 41/41/41 42/42/42
f 37/37/37 35/35/35 42/42/42
f 37/37/37 42/42/42 43/43/43
f 39/39/39 37/37/37 43/43/43
f 39/39/39 43/43/43 44/44/44
f 44/44/44 45/45/45 46/46/46
f 44/44/44 43/43/43 45/45/45
f 43/43/43 47/47/47 45/45/45
f 43/43/43 42/42/42 47/47/47
f 42/42/42 48/48/48 47/47/47
f 42/42/42 41/41/41 48/48/48
f 41/41/41 49/49/49 48/48/48
f 41/41/41 40/40/40 49/49/49
f 50/50/50 51/51/51 52/52/52
f 50/50/50 52/52/52 53/53/53
f 54/54/54 50/50/50 53/53/53
f 54/54/54 53/53/53 55/55/55
f 56/56/56 54/54/54 55/55/55
f 56/56/56 55/55/55 57/57/57
f 58/58/58 56/56/56 57/57/57
f 58/58/58 57/57/57 59/59/59
f 60/60/60 61/61/61 51/51/51
f 60/60/60 51/51/51 50/50/50
f 62/62/62 60/60/60 50/50/50
f 62/62/62 50/50/50 54/54/54
f 63/63/63 62/62/62 54/54/54
f 63/63/63 54/54/54 56/56/56
f 64/64/64 63/63/63 56/56/56
f 64/64/64 56/56/56 58/58/58
f 65/65/65 63/63/63 64/64/64
f 65/65/65 66/66/66 63/63/63
f 66/66/66 62/62/62 63/63/63
f 66/66/66 67/67/67 62/62/62
f 67/67/67 60/60/60 62/62/62
f 67/67/67 68/68/68 60/60/60
f 68/68/68 61/61/61 60/60/60
f 68/68/68 69/69/69 61/61/61
f 70/70/70 71/71/71 72/72/72
f 70/70/70 73/73/73 71/71/71
f 74/74/74 73/73/73 70/70/70
f 73/73/73 75/75/75 71/71/71
f 76/76/76 77/77/77 75/75/75
f 73/73/73 76/76/76 75/75/75
f 78/78/78 76/76/76 73/73/73
f 74/74/74 78/78/78 73/73/73
f 79/79/79 78/78/78 74/74/74
f 80/80/80 81/81/81 77/77/77
f 76/76/76 80/80/80 77/77/77
f 82/82/82 80/80/80 76/76/76
f 78/78/78 82/82/82 76/76/76
f 83/83/83 82/82/82 78/78/78
f 79/79/79 83/83/83 78/78/78
f 83/83/83 84/84/84 82/82/82
f 84/84/84 85/85/85 82/82/82
f 82/82/82 85/85/85 80/80/80
f 85/85/85 86/86/86 80/80/80
f 80/80/80 86/86/86 81/81/81
f 85/85/85 3/3/3 86/86/86
f 1/1/1 3/3/3 85/85/85
f 84/84/84 1/1/1 85/85/85