# Exported using wow.export v0.1.49
o 
mtllib goldminetrackcurve.mtl
v -0.7472389936447144 0 -1.0170199871063232
v -1.008039951324463 0.09444469958543777 -1.0869100093841553
v -1.2992199659347534 0.11838799715042114 -0.00022222200641408563
v -2.269360065460205 0.11719699949026108 -1.1997699737548828
v -2.5393600463867188 0 -0.07474309951066971
v -2.269360065460205 0.12813299894332886 -0.05559920147061348
v -2.5393600463867188 0 -1.1997699737548828
v -1.9993499517440796 0 -1.1997699737548828
v -2.269360065460205 0.12813299894332886 -0.05559920147061348
v -1.9993499517440796 0 -0.07474330067634583
v -2.269360065460205 0.11719699949026108 -1.1997699737548828
v 0.34330299496650696 0.0670258030295372 -0.6467779874801636
v -0.29519400000572205 0 0.3634999990463257
v -0.04147610068321228 0.1021059975028038 0.4558500051498413
v 0.089581698179245 0 -0.6936720013618469
v 0.5970249772071838 0 -0.5089719891548157
v -0.04147610068321228 0.1021059975028038 0.4558500051498413
v 0.21224600076675415 0 0.5481939911842346
v 0.34330299496650696 0.0670258030295372 -0.6467779874801636
v 1.4074499607086182 0.11480700224637985 0.292510986328125
v 0.42810600996017456 0 0.7446359992027283
v 0.5287749767303467 0.09606389701366425 0.9957219958305359
v 1.289929986000061 0 0.021487200632691383
v 1.6370400190353394 0 0.435155987739563
v 0.5287749767303467 0.09606389701366425 0.9957219958305359
v 0.7752169966697693 0 1.158310055732727
v 1.4074499607086182 0.11480700224637985 0.292510986328125
v 2.05226993560791 0.13498100638389587 1.1987199783325195
v 0.916575014591217 0 1.419569969177246
v 1.028540015220642 0.13498100638389587 1.6652599573135376
v 1.9402999877929688 0 0.9530249834060669
v 2.1642398834228516 0 1.4444199800491333
v 1.028540015220642 0.13498100638389587 1.6652599573135376
v 1.1405199766159058 0 1.9109599590301514
v 2.05226993560791 0.13498100638389587 1.1987199783325195
v 2.281450033187866 0.11954899877309799 2.539180040359497
v 1.137179970741272 0 2.368259906768799
v 1.1607099771499634 0.11264500021934509 2.637239933013916
v 2.257920026779175 0 2.270210027694702
v 2.3049800395965576 0 2.8081600666046143
v 1.1607099771499634 0.11264500021934509 2.637239933013916
v 1.1842399835586548 0 2.906219959259033
v 2.281450033187866 0.11954899877309799 2.539180040359497
v -1.008039951324463 0.09444469958543777 -1.0869100093841553
v -1.5600299835205078 0 -0.07010500133037567
v -1.2992199659347534 0.11838799715042114 -0.00022222200641408563
v -1.2688499689102173 0 -1.156790018081665
v -1.0384199619293213 0 0.0696600005030632
v 1.3527400493621826 0.012935600243508816 3.4542999267578125
v 1.2182600498199463 0.14793899655342102 3.466059923171997
v 1.0837600231170654 0.012935600243508816 3.477829933166504
v 2.48868989944458 0.012935600243508816 3.354919910430908
v 2.3541901111602783 0.14793899655342102 3.3666799068450928
v 2.219710111618042 0.012935600243508816 3.3784499168395996
v -1.423009991645813 -0.00011111100320704281 -1.06496000289917
v 0.7276560068130493 -0.00011111100320704281 -0.446258008480072
v 0.805088996887207 0.13484600186347961 -0.556850016117096
v -1.423009991645813 0.1348470002412796 -1.1999599933624268
v -1.423009991645813 0.1348470002412796 -1.1999599933624268
v 0.805088996887207 0.13484600186347961 -0.556850016117096
v 0.882519006729126 -0.00011111100320704281 -0.6674360036849976
v -1.423009991645813 -0.00011111100320704281 -1.3349599838256836
v 0.7276560068130493 -0.00011111100320704281 -0.446258008480072
v 2.106879949569702 0.012936700135469437 1.5105400085449219
v 2.2413699626922607 0.14793899655342102 1.4987800121307373
v 0.805088996887207 0.13484600186347961 -0.556850016117096
v 2.106879949569702 0.012936700135469437 1.5105400085449219
v 2.2413699626922607 0.14793899655342102 1.4987800121307373
v 0.805088996887207 0.13484600186347961 -0.556850016117096
v 0.805088996887207 0.13484600186347961 -0.556850016117096
v 2.2413699626922607 0.14793899655342102 1.4987800121307373
v 2.3758599758148193 0.01293640024960041 1.4870100021362305
v 0.882519006729126 -0.00011111100320704281 -0.6674360036849976
v 2.106879949569702 0.012936700135469437 1.5105400085449219
v 2.219710111618042 0.012935600243508816 3.3784499168395996
v 2.3541901111602783 0.14793899655342102 3.3666799068450928
v 2.2413699626922607 0.14793899655342102 1.4987800121307373
v 2.2413699626922607 0.14793899655342102 1.4987800121307373
v 2.3541901111602783 0.14793899655342102 3.3666799068450928
v 2.48868989944458 0.012935600243508816 3.354919910430908
v 2.3758599758148193 0.01293640024960041 1.4870100021362305
v -3.294480085372925 -0.00011111100320704281 -1.0647599697113037
v -1.4194400310516357 -0.00011111100320704281 -1.0647599697113037
v -3.294480085372925 0.13484500348567963 -1.1997699737548828
v -1.4194400310516357 0.13484600186347961 -1.1997699737548828
v -3.294480085372925 0.13484500348567963 -1.1997699737548828
v -1.4194400310516357 0.13484600186347961 -1.1997699737548828
v -3.294480085372925 -0.00011111100320704281 -1.3347699642181396
v -1.4194400310516357 -0.00011111100320704281 -1.3347699642181396
v -1.423009991645813 -0.00011111100320704281 0.07531829923391342
v 0.030845800414681435 -0.00011111100320704281 0.6258419752120972
v 0.13426299393177032 0.13484600186347961 0.5390610098838806
v -1.423009991645813 0.1348470002412796 -0.0596839003264904
v -1.423009991645813 0.1348470002412796 -0.0596839003264904
v 0.13426299393177032 0.13484600186347961 0.5390610098838806
v 0.23768199980258942 -0.00011111100320704281 0.4522860050201416
v -1.423009991645813 -0.00011111100320704281 -0.19468699395656586
v 0.030845800414681435 -0.00011111100320704281 0.6258419752120972
v 0.9203439950942993 0.012936700135469437 1.6099300384521484
v 1.0548299551010132 0.14793899655342102 1.5981600284576416
v 0.13426299393177032 0.13484600186347961 0.5390610098838806
v 0.9203439950942993 0.012936700135469437 1.6099300384521484
v 1.0548299551010132 0.14793899655342102 1.5981600284576416
v 0.13426299393177032 0.13484600186347961 0.5390610098838806
v 0.13426299393177032 0.13484600186347961 0.5390610098838806
v 1.0548299551010132 0.14793899655342102 1.5981600284576416
v 1.1893199682235718 0.01293640024960041 1.5863900184631348
v 0.23768199980258942 -0.00011111100320704281 0.4522860050201416
v 0.9203439950942993 0.012936700135469437 1.6099300384521484
v 1.0837600231170654 0.012935600243508816 3.477829933166504
v 1.2182600498199463 0.14793899655342102 3.466059923171997
v 1.0548299551010132 0.14793899655342102 1.5981600284576416
v 1.1893199682235718 0.01293640024960041 1.5863900184631348
v 1.0548299551010132 0.14793899655342102 1.5981600284576416
v 1.3527400493621826 0.012935600243508816 3.4542999267578125
v 1.2182600498199463 0.14793899655342102 3.466059923171997
v -1.4194400310516357 0.13484600186347961 -0.0595972016453743
v -1.4194400310516357 -0.00011111100320704281 -0.19460000097751617
v -3.294480085372925 -0.00011111100320704281 -0.19460000097751617
v -3.294480085372925 0.13484500348567963 -0.0595972016453743
v -1.4194400310516357 -0.00011111100320704281 0.07540500164031982
v -3.294480085372925 -0.00011111100320704281 0.07540500164031982
vn 0.3563080132007599 0.9304879903793335 0.0850680023431778
vn -0.1333570033311844 0.989795982837677 -0.05019799992442131
vn 0.11779499799013138 0.9928939938545227 0.016905799508094788
vn -0.15453499555587769 0.9879670143127441 -0.00627980986610055
vn -0.41331300139427185 0.9105790257453918 -0.004319109953939915
vn 0.14481599628925323 0.989437997341156 -0.00632124999538064
vn -0.3982279896736145 0.9172859787940979 2.9392399625294274e-8
vn 0.4135650098323822 0.9104639887809753 -0.004384450148791075
vn 0.14481599628925323 0.989437997341156 -0.00632124999538064
vn 0.4287930130958557 0.9034029841423035 -8.800719797363854e-8
vn -0.15453499555587769 0.9879670143127441 -0.00627980986610055
vn -0.11512800306081772 0.9913920164108276 -0.06234370172023773
vn -0.2822929918766022 0.9523860216140747 -0.11520499736070633
vn 0.08348020166158676 0.9964630007743835 0.009610299952328205
vn -0.23942700028419495 0.9669960141181946 -0.0871438980102539
vn 0.28183799982070923 0.9556580185890198 0.08535709977149963
vn 0.08348020166158676 0.9964630007743835 0.009610299952328205
vn 0.33244600892066956 0.9353280067443848 0.12099999934434891
vn -0.11512800306081772 0.9913920164108276 -0.06234370172023773
vn -0.08101660013198853 0.9936090111732483 -0.07859990000724792
vn -0.2368530035018921 0.9313690066337585 -0.27650099992752075
vn 0.07882949709892273 0.9906089901924133 0.1117129996418953
vn -0.2415580004453659 0.9267020225524902 -0.28787699341773987
vn 0.22746099531650543 0.929485023021698 0.2903769910335541
vn 0.07882949709892273 0.9906089901924133 0.1117129996418953
vn 0.20668500661849976 0.9468939900398254 0.2463179975748062
vn -0.08101660013198853 0.9936090111732483 -0.07859990000724792
vn -0.06817539781332016 0.9863939881324768 -0.14959600567817688
vn -0.1854570060968399 0.8944270014762878 -0.40694698691368103
vn 0.06817500293254852 0.9863939881324768 0.14959700405597687
vn -0.1854570060968399 0.8944270014762878 -0.40694698691368103
vn 0.18545599281787872 0.8944270014762878 0.4069480001926422
vn 0.06817500293254852 0.9863939881324768 0.14959700405597687
vn 0.1854570060968399 0.8944270014762878 0.4069480001926422
vn -0.06817539781332016 0.9863939881324768 -0.14959600567817688
vn -0.016123399138450623 0.990339994430542 -0.13772200047969818
vn -0.03725089877843857 0.9186639785766602 -0.39327898621559143
vn 0.008623859845101833 0.9894009828567505 0.1449510008096695
vn -0.035291701555252075 0.9143519997596741 -0.4033780097961426
vn 0.03163350000977516 0.9186639785766602 0.3937700092792511
vn 0.008623859845101833 0.9894009828567505 0.1449510008096695
vn 0.033562999218702316 0.9228770136833191 0.38363000750541687
vn -0.016123399138450623 0.990339994430542 -0.13772200047969818
vn -0.1333570033311844 0.989795982837677 -0.05019799992442131
vn -0.35117799043655396 0.9304940104484558 -0.10419300198554993
vn 0.11779499799013138 0.9928939938545227 0.016905799508094788
vn -0.3189859986305237 0.943897008895874 -0.08547209948301315
vn 0.387935996055603 0.915805995464325 0.1039469987154007
vn 0.6690260171890259 0.6324560046195984 0.390390008687973
vn -0.2519969940185547 0.8660249710083008 0.4318549931049347
vn -0.43647000193595886 0.4999980032444 0.7479950189590454
vn 0.6653450131416321 0.6275780200958252 0.40430301427841187
vn -0.2534570097923279 0.8687360286712646 0.4255070090293884
vn -0.4417800009250641 0.5047410130500793 0.7416650056838989
vn -0.20041799545288086 0.6899889707565308 0.6955199837684631
vn -0.5387099981307983 0.6866179704666138 0.48820799589157104
vn -0.03818440064787865 0.9896069765090942 0.13863399624824524
vn 0.09198670089244843 0.9437140226364136 -0.31771400570869446
vn 0.09198670089244843 0.9437140226364136 -0.31771400570869446
vn -0.03818440064787865 0.9896069765090942 0.13863399624824524
vn 0.3420029878616333 0.7068660259246826 -0.6191719770431519
vn 0.2005710005760193 0.6927379965782166 -0.6927379965782166
vn -0.5387099981307983 0.6866179704666138 0.48820799589157104
vn -0.6766629815101624 0.6952210068702698 0.24247799813747406
vn -0.1957560032606125 0.9571509957313538 0.21340599656105042
vn -0.03818440064787865 0.9896069765090942 0.13863399624824524
vn -0.6766629815101624 0.6952210068702698 0.24247799813747406
vn -0.1957560032606125 0.9571509957313538 0.21340599656105042
vn -0.03818440064787865 0.9896069765090942 0.13863399624824524
vn -0.03818440064787865 0.9896069765090942 0.13863399624824524
vn -0.1957560032606125 0.9571509957313538 0.21340599656105042
vn 0.6520969867706299 0.6943539977073669 -0.30437299609184265
vn 0.3420029878616333 0.7068660259246826 -0.6191719770431519
vn -0.6766629815101624 0.6952210068702698 0.24247799813747406
vn -0.4417800009250641 0.5047410130500793 0.7416650056838989
vn -0.2534570097923279 0.8687360286712646 0.4255070090293884
vn -0.1957560032606125 0.9571509957313538 0.21340599656105042
vn -0.1957560032606125 0.9571509957313538 0.21340599656105042
vn -0.2534570097923279 0.8687360286712646 0.4255070090293884
vn 0.6653450131416321 0.6275780200958252 0.40430301427841187
vn 0.6520969867706299 0.6943539977073669 -0.30437299609184265
vn -2.8734800139318395e-7 0.7071070075035095 0.7071059942245483
vn -2.91899993953848e-7 0.7071070075035095 0.7071059942245483
vn -3.9366099713333824e-7 0.9486830234527588 0.316226989030838
vn -3.9366099713333824e-7 0.9486830234527588 -0.3162280023097992
vn -3.9366099713333824e-7 0.9486830234527588 0.316226989030838
vn -3.9366099713333824e-7 0.9486830234527588 -0.3162280023097992
vn -2.91899993953848e-7 0.7071070075035095 -0.7071070075035095
vn -2.8734800139318395e-7 0.7071070075035095 -0.7071070075035095
vn -0.2646369934082031 0.6699650287628174 0.6936240196228027
vn -0.5077369809150696 0.6726400256156921 0.5382930040359497
vn -0.04450320079922676 0.9903910160064697 0.13093900680541992
vn 0.1266459971666336 0.9371240139007568 -0.325204998254776
vn 0.1266459971666336 0.9371240139007568 -0.325204998254776
vn -0.04450320079922676 0.9903910160064697 0.13093900680541992
vn 0.3630180060863495 0.692425012588501 -0.6235100030899048
vn 0.26558199524879456 0.6817139983177185 -0.6817129850387573
vn -0.5077369809150696 0.6726400256156921 0.5382930040359497
vn -0.6629520058631897 0.6864669919013977 0.29875800013542175
vn -0.16816000640392303 0.9553210139274597 0.2430730015039444
vn -0.04450320079922676 0.9903910160064697 0.13093900680541992
vn -0.6629520058631897 0.6864669919013977 0.29875800013542175
vn -0.16816000640392303 0.9553210139274597 0.2430730015039444
vn -0.04450320079922676 0.9903910160064697 0.13093900680541992
vn -0.04450320079922676 0.9903910160064697 0.13093900680541992
vn -0.16816000640392303 0.9553210139274597 0.2430730015039444
vn 0.6236330270767212 0.6970030069351196 -0.3539330065250397
vn 0.3630180060863495 0.692425012588501 -0.6235100030899048
vn -0.6629520058631897 0.6864669919013977 0.29875800013542175
vn -0.43647000193595886 0.4999980032444 0.7479950189590454
vn -0.2519969940185547 0.8660249710083008 0.4318549931049347
vn -0.16816000640392303 0.9553210139274597 0.2430730015039444
vn 0.6236330270767212 0.6970030069351196 -0.3539330065250397
vn -0.16816000640392303 0.9553210139274597 0.2430730015039444
vn 0.6690260171890259 0.6324560046195984 0.390390008687973
vn -0.2519969940185547 0.8660249710083008 0.4318549931049347
vn -3.938870065667288e-7 0.9486830234527588 -0.316226989030838
vn -2.8785399308617343e-7 0.7071070075035095 -0.7071059942245483
vn -2.921530040111975e-7 0.7071070075035095 -0.7071059942245483
vn -3.938870065667288e-7 0.9486830234527588 0.316226989030838
vn -2.921530040111975e-7 0.7071070075035095 0.7071059942245483
vn -2.8785399308617343e-7 0.7071070075035095 0.7071059942245483
vt 2.98022992950564e-8 1
vt -1.3909099649822565e-8 0
vt 1 0
vt 2.98022992950564e-8 1
vt 1 0
vt 1 0.9999999403954014
vt -1.3909099649822565e-8 0
vt 2.98022992950564e-8 1
vt 1 0
vt 1 0.9999999403954014
vt -1.3909099649822565e-8 0
vt 2.98022992950564e-8 1
vt 1 0
vt 1 0.9999999403954014
vt -1.3909099649822565e-8 0
vt 2.98022992950564e-8 1
vt 1 0
vt 1 0.9999999403954014
vt -1.3909099649822565e-8 0
vt 2.98022992950564e-8 1
vt 1 0
vt 1 0.9999999403954014
vt -1.3909099649822565e-8 0
vt 2.98022992950564e-8 1
vt 1 0
vt 1 0.9999999403954014
vt -1.3909099649822565e-8 0
vt 2.98022992950564e-8 1
vt 1 0
vt 1 0.9999999403954014
vt -1.3909099649822565e-8 0
vt 2.98022992950564e-8 1
vt 1 0
vt 1 0.9999999403954014
vt -1.3909099649822565e-8 0
vt 2.98022992950564e-8 1
vt 1 0
vt 1 0.9999999403954014
vt -1.3909099649822565e-8 0
vt 2.98022992950564e-8 1
vt 1 0
vt 1 0.9999999403954014
vt -1.3909099649822565e-8 0
vt 2.98022992950564e-8 1
vt 1 0
vt 1 0.9999999403954014
vt -1.3909099649822565e-8 0
vt 1 0.9999999403954014
vt -0.008944779634475708 1
vt 0.9910550117492676 0.9999999403954014
vt 0.9910550117492676 0
vt -0.008944779634475708 1
vt 0.9910550117492676 0.9999999403954014
vt 0.9910550117492676 0
vt 0.9910550117492676 0
vt 0.0009229460265487432 0
vt 0.0009229889838024974 0.9975845199078321
vt 0.9910550117492676 0.9975844600703567
vt 0.9910550117492676 0.9958695801906288
vt -0.008944829925894737 0.9958695801906288
vt -0.008944779634475708 0.016521990299224854
vt 0.9910550117492676 0.016521990299224854
vt 0.9910550117492676 0
vt 0.0009229460265487432 0
vt 0.0009229889838024974 0.9975845199078321
vt 0.9910550117492676 0.9975844600703567
vt -0.008944829925894737 0
vt -0.008944779634475708 1
vt 0.9910550117492676 0.9999999403954014
vt 0.9910550117492676 0.9958695801906288
vt -0.008944829925894737 0.9958695801906288
vt -0.008944779634475708 0.016521990299224854
vt 0.9910550117492676 0.016521990299224854
vt 0.9910550117492676 0
vt 0.0009229460265487432 0
vt 0.0009229889838024974 0.9975845199078321
vt 0.9910550117492676 0.9975844600703567
vt 0.9910550117492676 0.9958695801906288
vt -0.008944829925894737 0.9958695801906288
vt -0.008944779634475708 0.016521990299224854
vt 0.9910550117492676 0.016521990299224854
vt -1.3909099649822565e-8 0.028308987617492676
vt 1 0.028308987617492676
vt 2.98022992950564e-8 0.9929227200336754
vt 1 0.9929226599633694
vt 0.6791399717330933 0.9111753031611443
vt 0.6791399717330933 0.911175400018692
vt 0.9994999766349792 0.000500023365020752
vt 0.9994999766349792 0.000500023365020752
vt 0.9910550117492676 0
vt 0.0009229460265487432 0
vt 0.0009229889838024974 0.9975845199078321
vt 0.9910550117492676 0.9975844600703567
vt 0.9910550117492676 0.9958695801906288
vt -0.008944829925894737 0.9958695801906288
vt -0.008944779634475708 0.016521990299224854
vt 0.9910550117492676 0.016521990299224854
vt 0.9910550117492676 0
vt 0.0009229460265487432 0
vt 0.0009229889838024974 0.9975845199078321
vt 0.9910550117492676 0.9975844600703567
vt -0.008944829925894737 0
vt -0.008944779634475708 1
vt 0.9910550117492676 0.9999999403954014
vt 0.9910550117492676 0.9958695801906288
vt -0.008944829925894737 0.9958695801906288
vt -0.008944779634475708 0.016521990299224854
vt 0.9910550117492676 0.016521990299224854
vt 0.9910550117492676 0
vt 0.0009229460265487432 0
vt 0.0009229889838024974 0.9975845199078321
vt 0.9910550117492676 0.9975844600703567
vt 0.9910550117492676 0.016521990299224854
vt 0.9910550117492676 0.9958695801906288
vt -0.008944779634475708 0.016521990299224854
vt -0.008944829925894737 0.9958695801906288
vt 0.7581160068511963 0.911175400018692
vt 0.9995009899139404 0.000500023365020752
vt 0.9995009899139404 0.000500023365020752
vt 0.7581160068511963 0.9111753031611443
vt 0.5167319774627686 0.000500023365020752
vt 0.5167319774627686 0.000500023365020752
g Geoset0
s 1
usemtl mat_rack
f 1/1/1 2/2/2 3/3/3
f 4/4/4 5/5/5 6/6/6
f 4/4/4 7/7/7 5/5/5
f 8/8/8 9/9/9 10/10/10
f 8/8/8 11/11/11 9/9/9
f 12/12/12 13/13/13 14/14/14
f 12/12/12 15/15/15 13/13/13
f 16/16/16 17/17/17 18/18/18
f 16/16/16 19/19/19 17/17/17
f 20/20/20 21/21/21 22/22/22
f 20/20/20 23/23/23 21/21/21
f 24/24/24 25/25/25 26/26/26
f 24/24/24 27/27/27 25/25/25
f 28/28/28 29/29/29 30/30/30
f 28/28/28 31/31/31 29/29/29
f 32/32/32 33/33/33 34/34/34
f 32/32/32 35/35/35 33/33/33
f 36/36/36 37/37/37 38/38/38
f 36/36/36 39/39/39 37/37/37
f 40/40/40 41/41/41 42/42/42
f 40/40/40 43/43/43 41/41/41
f 44/44/44 45/45/45 46/46/46
f 44/44/44 47/47/47 45/45/45
f 1/1/1 3/3/3 48/48/48
g Geoset1
s 1
usemtl mat_trackbar
f 49/49/49 50/50/50 51/51/51
f 52/52/52 53/53/53 54/54/54
f 55/55/55 56/56/56 57/57/57
f 58/58/58 55/55/55 57/57/57
f 59/59/59 60/60/60 61/61/61
f 62/62/62 59/59/59 61/61/61
f 63/63/63 64/64/64 65/65/65
f 66/66/66 63/63/63 65/65/65
f 63/63/63 67/67/67 68/68/68
f 69/69/69 63/63/63 68/68/68
f 70/70/70 71/71/71 72/72/72
f 73/73/73 70/70/70 72/72/72
f 74/74/74 75/75/75 76/76/76
f 77/77/77 74/74/74 76/76/76
f 78/78/78 79/79/79 80/80/80
f 81/81/81 78/78/78 80/80/80
f 82/82/82 83/83/83 84/84/84
f 83/83/83 85/85/85 84/84/84
f 86/86/86 87/87/87 88/88/88
f 87/87/87 89/89/89 88/88/88
f 90/90/90 91/91/91 92/92/92
f 93/93/93 90/90/90 92/92/92
f 94/94/94 95/95/95 96/96/96
f 97/97/97 94/94/94 96/96/96
f 98/98/98 99/99/99 100/100/100
f 101/101/101 98/98/98 100/100/100
f 98/98/98 102/102/102 103/103/103
f 104/104/104 98/98/98 103/103/103
f 105/105/105 106/106/106 107/107/107
f 108/108/108 105/105/105 107/107/107
f 109/109/109 110/110/110 111/111/111
f 112/112/112 109/109/109 111/111/111
f 113/113/113 114/114/114 115/115/115
f 114/114/114 116/116/116 115/115/115
f 117/117/117 118/118/118 119/119/119
f 120/120/120 117/117/117 119/119/119
f 121/121/121 117/117/117 120/120/120
f 122/122/122 121/121/121 120/120/120