# Exported using wow.export v0.1.49
o 
mtllib foldershirtgreen.mtl
v -0.05993138626217842 0.04372929781675339 -0.14929120242595673
v -0.035691093653440475 0.007844718173146248 -0.17548233270645142
v -0.029684368520975113 0.007899709977209568 -0.23642267286777496
v -0.24336974322795868 0.009657113812863827 -0.17548233270645142
v -0.22508478164672852 0.045170579105615616 -0.14929120242595673
v -0.2071874886751175 0.009448752738535404 -0.23642267286777496
v -0.029684368520975113 0.007899709977209568 -0.23642267286777496
v -0.05993138626217842 0.04372929781675339 -0.14929120242595673
v -0.22508478164672852 0.04517057538032532 0.15883980691432953
v -0.24336974322795868 0.009657113812863827 0.18503093719482422
v -0.20699656009674072 0.009447100572288036 0.2459711730480194
v -0.03168527036905289 0.007809759117662907 0.18503093719482422
v -0.05799328535795212 0.04371238499879837 0.15883980691432953
v -0.026069749146699905 0.007868165150284767 0.2459711730480194
v -0.20699656009674072 0.009447100572288036 0.2459711730480194
v -0.2339121252298355 0.06047661975026131 0.0047743055038154125
v -0.22508478164672852 0.045170579105615616 -0.14929120242595673
v -0.24336974322795868 0.009657113812863827 -0.17548233270645142
v -0.05993138626217842 0.04372929781675339 -0.14929120242595673
v 0.23469869792461395 0.05638709291815758 0.0047743055038154125
v 0.22425538301467896 0.04124922677874565 -0.14929120242595673
v -0.26135826110839844 0.009814104065299034 0.0047743055038154125
v -0.24336974322795868 0.009657113812863827 0.18503093719482422
v -0.05799328535795212 0.04371238499879837 0.15883980691432953
v 0.22425538301467896 0.04124922677874565 0.15883980691432953
v -0.22508478164672852 0.04517057538032532 0.15883980691432953
v -0.03168527036905289 0.007809759117662907 0.18503093719482422
v 0.24191777408123016 0.0054220468737185 0.18503093719482422
v 0.26350313425064087 0.005233673378825188 0.0047743055038154125
v 0.24191777408123016 0.0054220468737185 -0.17548233270645142
v -0.035691093653440475 0.007844718173146248 -0.17548233270645142
vn 0.1689201295375824 0.9496370553970337 -0.26392316818237305
vn 0.3536299765110016 0.695444643497467 -0.6255418062210083
vn 0.3332573175430298 0.9070475101470947 -0.25730204582214355
vn -0.8114332556724548 0.5498650074005127 -0.19805176556110382
vn -0.3336072564125061 0.8930435180664062 -0.3019593060016632
vn -0.3524220287799835 0.8382680416107178 -0.41605931520462036
vn 0.3332573175430298 0.9070475101470947 -0.25730204582214355
vn 0.1689201295375824 0.9496370553970337 -0.26392316818237305
vn -0.4220829904079437 0.8640793561935425 0.2742495536804199
vn -0.8111581206321716 0.5500903725624084 0.19855250418186188
vn -0.229599729180336 0.882880449295044 0.4096413850784302
vn 0.5243625044822693 0.7180702686309814 0.4576232433319092
vn 0.12401221692562103 0.9233825206756592 0.3632983863353729
vn 0.4857958257198334 0.8565046787261963 0.17436222732067108
vn -0.229599729180336 0.882880449295044 0.4096413850784302
vn -0.498311311006546 0.8669981956481934 1.0847835962835006e-9
vn -0.3336072564125061 0.8930435180664062 -0.3019593060016632
vn -0.8114332556724548 0.5498650074005127 -0.19805176556110382
vn 0.1689201295375824 0.9496370553970337 -0.26392316818237305
vn 0.43350839614868164 0.9009857177734375 -0.017182674258947372
vn 0.26146209239959717 0.7988170981407166 -0.5417829751968384
vn -0.8792632222175598 0.4763362407684326 0
vn -0.8111581206321716 0.5500903725624084 0.19855250418186188
vn 0.12401221692562103 0.9233825206756592 0.3632983863353729
vn 0.5273535847663879 0.7797916531562805 0.3373768627643585
vn -0.4220829904079437 0.8640793561935425 0.2742495536804199
vn 0.5243625044822693 0.7180702686309814 0.4576232433319092
vn 0.3407624363899231 0.6585174798965454 0.6709960103034973
vn 0.8687028884887695 0.49406173825263977 0.03547220677137375
vn 0.6771368384361267 0.6189700365066528 -0.39794695377349854
vn 0.3536299765110016 0.695444643497467 -0.6255418062210083
vt 0.6028469204902649 0.6382518410682678
vt 0.6205059885978699 0.6377289891242981
vt 0.6200070977210999 0.6186942458152771
vt 0.6088033318519592 0.7372286915779114
vt 0.6030429005622864 0.7114801406860352
vt 0.6208962798118591 0.7106925249099731
vt 0.6208963394165039 0.6383306384086609
vt 0.6033843159675598 0.6379894018173218
vt 0.6023096442222595 0.7176294326782227
vt 0.619640052318573 0.7175476551055908
vt 0.619640052318573 0.7333658933639526
vt 0.62009197473526 0.6319884061813354
vt 0.6023095846176147 0.6471818685531616
vt 0.6199355721473694 0.6471818685531616
vt 0.6199356317520142 0.7176294326782227
vt 0.5003144145011902 0.7131398320198059
vt 0.6057353615760803 0.7171775102615356
vt 0.6236569881439209 0.7505399584770203
vt 0.6057353615760803 0.6424264311790466
vt 0.5003144145011902 0.5396400094032288
vt 0.6057353019714355 0.5137989521026611
vt 0.5003144145011902 0.7222763299942017
vt 0.6233351826667786 0.7505399584770203
vt 0.6054136157035828 0.6467299461364746
vt 0.6054136157035828 0.5396400690078735
vt 0.605413556098938 0.7171775102615356
vt 0.6233351826667786 0.643287181854248
vt 0.6233352422714233 0.5046625733375549
vt 0.5003144145011902 0.5046624541282654
vt 0.6236569285392761 0.5046624541282654
vt 0.6236569285392761 0.6453167200088501
g Geoset0
s 1
usemtl mat_clothstuff
f 1/1/1 2/2/2 3/3/3
f 4/4/4 5/5/5 6/6/6
f 7/7/7 6/6/6 5/5/5
f 5/5/5 8/8/8 7/7/7
f 9/9/9 10/10/10 11/11/11
f 12/12/12 13/13/13 14/14/14
f 15/15/15 14/14/14 13/13/13
f 13/13/13 9/9/9 15/15/15
f 16/16/16 17/17/17 18/18/18
f 19/19/19 17/17/17 16/16/16
f 16/16/16 20/20/20 19/19/19
f 21/21/21 19/19/19 20/20/20
f 22/22/22 23/23/23 16/16/16
f 18/18/18 22/22/22 16/16/16
f 24/24/24 25/25/25 20/20/20
f 20/20/20 16/16/16 24/24/24
f 26/26/26 24/24/24 16/16/16
f 26/26/26 16/16/16 23/23/23
f 27/27/27 28/28/28 24/24/24
f 25/25/25 24/24/24 28/28/28
f 28/28/28 29/29/29 25/25/25
f 20/20/20 25/25/25 29/29/29
f 29/29/29 30/30/30 20/20/20
f 21/21/21 20/20/20 30/30/30
f 30/30/30 31/31/31 21/21/21
f 19/19/19 21/21/21 31/31/31