# Exported using wow.export v0.1.49
o 
mtllib hangingcloakblue.mtl
v -0.005180193576961756 1.3767906427383423 -0.2725042402744293
v -0.005180200096219778 1.5850268602371216 0.002502617659047246
v -0.005180193576961756 1.3737845420837402 -0.000999314128421247
v -0.00524761201813817 1.3768999576568604 0.28313395380973816
v 0.017961859703063965 1.4414293766021729 0.08537480980157852
v -0.005247618071734905 1.4961727857589722 0.11203646659851074
v 0.04047507792711258 1.3768998384475708 0.20134365558624268
v 0.059414029121398926 1.3768999576568604 0.0038844789378345013
v 0.07545002549886703 -0.04688061773777008 0.21852907538414001
v 0.06227929890155792 -0.07653750479221344 0.03895523026585579
v 0.09259840846061707 -0.07653749734163284 -0.036873310804367065
v 0.07544999569654465 -0.04688061773777008 -0.21023939549922943
v 0.040475063025951385 1.3768998384475708 -0.1935746818780899
v 0.017961859703063965 1.4414293766021729 -0.07760579884052277
v -0.005247610155493021 1.3768999576568604 -0.2753649055957794
v -0.003650226630270481 -9.114313748170844e-9 -0.2990402281284332
v -0.005247617606073618 1.497267723083496 -0.11178012937307358
v -0.028457099571824074 1.4414292573928833 0.08537483960390091
v -0.005247618071734905 1.4961727857589722 0.11203646659851074
v -0.050970304757356644 1.3768999576568604 0.20134370028972626
v -0.056041572242975235 1.37690007686615 0.0038845331873744726
v -0.03807079792022705 1.4215878248214722 0.0038845245726406574
v -0.05097028985619545 1.37690007686615 -0.19357465207576752
v -0.02845711261034012 1.4414293766021729 -0.07760576903820038
v -0.005247617606073618 1.497267723083496 -0.11178012937307358
v -0.07209788262844086 -0.04688061773777008 -0.21023938059806824
v -0.06435576826334 -0.07653749734163284 0.004144884645938873
v -0.10199568420648575 -0.04688061773777008 0.2185291200876236
v -0.003650216618552804 -9.114313748170844e-9 0.30733001232147217
v -0.005180193576961756 1.3767906427383423 0.27411025762557983
vn 1 3.1012014289899525e-8 1.0033138764242722e-9
vn 1 3.1028541513933305e-8 6.3913874193133324e-12
vn 1 3.1028541513933305e-8 6.3913874193133324e-12
vn -0.18812233209609985 0.6085004806518555 0.7709326148033142
vn 0.8242150545120239 0.5259913206100464 0.20976807177066803
vn 8.279312879722056e-8 0.820345938205719 0.5718675851821899
vn 0.8900333642959595 0.28119370341300964 0.35884639620780945
vn 0.9848688840866089 0.17091579735279083 -0.02865343727171421
vn 0.9705636501312256 0.01846347562968731 0.24013599753379822
vn 0.997318685054779 0.00020027105347253382 -0.07318075746297836
vn 0.9952391982078552 0.025361880660057068 -0.09410499036312103
vn 0.9374279975891113 0.023433586582541466 -0.34738975763320923
vn 0.8993919491767883 0.3463269770145416 -0.2667429447174072
vn 0.8294349908828735 0.5185153484344482 -0.20779646933078766
vn 0.21521273255348206 0.6067816019058228 -0.765179455280304
vn -0.4643743336200714 0.01944725774228573 -0.8854255080223083
vn 8.890191338650766e-8 0.8054513335227966 -0.5926619172096252
vn -0.871759831905365 0.4675264358520508 0.14647114276885986
vn 8.279312879722056e-8 0.820345938205719 0.5718675851821899
vn -0.9530035853385925 0.26438379287719727 0.14793720841407776
vn -0.9810805916786194 0.19337040185928345 0.009422888979315758
vn -0.9290350079536438 0.36988547444343567 -0.008872207254171371
vn -0.9221885204315186 0.2791037857532501 -0.2677114009857178
vn -0.8523125648498535 0.4883892238140106 -0.18718783557415009
vn 8.890191338650766e-8 0.8054513335227966 -0.5926619172096252
vn -0.9781463146209717 0.0139079038053751 -0.207452192902565
vn -0.999149739742279 0.014926332980394363 -0.03843102604150772
vn -0.9232070446014404 0.030101798474788666 0.3831222653388977
vn 0.4511512815952301 0.022837387397885323 0.8921552300453186
vn 1 3.1045068737967085e-8 -9.905311015856455e-10
vt 0.873672604560852 0.12659478187561035
vt 0.752498984336853 0.24959170818328857
vt 0.7510172128677368 0.12659478187561035
vt 0.8714296221733093 0.7473880648612976
vt 0.7880086302757263 0.7301086783409119
vt 0.8087955713272095 0.7466958165168762
vt 0.809465229511261 0.7043138146400452
vt 0.7503268718719482 0.7032769322395325
vt 0.8336467742919922 0.5007195472717285
vt 0.7503739595413208 0.5007195472717285
vt 0.7501551508903503 0.5007195472717285
vt 0.8336893320083618 0.5007195472717285
vt 0.8095239400863647 0.7043138146400452
vt 0.7880712151527405 0.7301086783409119
vt 0.8714302182197571 0.7473880648612976
vt 0.8714290857315063 0.5007195472717285
vt 0.8088335990905762 0.746875524520874
vt 0.9759896397590637 0.7350781559944153
vt 0.9596527814865112 0.7469791173934937
vt 0.9179427027702332 0.7299131751060486
vt 0.9962992072105408 0.7239620685577393
vt 0.9962992072105408 0.7241650819778442
vt 0.9179062843322754 0.7299131751060486
vt 0.9758488535881042 0.7350781559944153
vt 0.9593623876571655 0.747157633304596
vt 0.9105499982833862 0.5005310773849487
vt 0.9967894554138184 0.5005310773849487
vt 0.9104810953140259 0.5005310773849487
vt 0.8714286088943481 0.5007195472717285
vt 0.8733852505683899 0.12659484148025513
g Geoset0
s 1
usemtl mat_clothstuff
f 1/1/1 2/2/2 3/3/3
f 4/4/4 5/5/5 6/6/6
f 4/4/4 7/7/7 5/5/5
f 7/7/7 8/8/8 5/5/5
f 9/9/9 8/8/8 7/7/7
f 9/9/9 10/10/10 8/8/8
f 11/11/11 12/12/12 8/8/8
f 8/8/8 13/13/13 14/14/14
f 8/8/8 12/12/12 13/13/13
f 12/12/12 15/15/15 13/13/13
f 12/12/12 16/16/16 15/15/15
f 14/14/14 15/15/15 17/17/17
f 13/13/13 15/15/15 14/14/14
f 18/18/18 4/4/4 19/19/19
f 20/20/20 4/4/4 18/18/18
f 21/21/21 20/20/20 18/18/18
f 21/21/21 18/18/18 22/22/22
f 23/23/23 21/21/21 22/22/22
f 23/23/23 22/22/22 24/24/24
f 15/15/15 23/23/23 24/24/24
f 15/15/15 24/24/24 25/25/25
f 16/16/16 23/23/23 15/15/15
f 16/16/16 26/26/26 23/23/23
f 26/26/26 21/21/21 23/23/23
f 26/26/26 27/27/27 21/21/21
f 27/27/27 20/20/20 21/21/21
f 27/27/27 28/28/28 20/20/20
f 28/28/28 4/4/4 20/20/20
f 28/28/28 29/29/29 4/4/4
f 29/29/29 7/7/7 4/4/4
f 29/29/29 9/9/9 7/7/7
f 3/3/3 2/2/2 30/30/30