# Exported using wow.export v0.1.49
o 
mtllib duskwoodcatails01.mtl
v 0.5466834306716919 -0.01620650663971901 -0.2811659872531891
v 0.6144281029701233 1.4916536808013916 -0.18676050007343292
v -0.321027934551239 -0.01620650477707386 0.24020743370056152
v -0.006606330629438162 1.4916539192199707 -0.5103448033332825
v 0.09127488732337952 -0.01620587147772312 -0.5343087911605835
v -0.006606330629438162 1.4916538000106812 0.5019562840461731
v 0.09127488732337952 -0.016205770894885063 0.47799238562583923
v 0.39870375394821167 -0.016206199303269386 0.3521524667739868
v -0.29543769359588623 1.4916538000106812 -0.3835904002189636
v -0.36528971791267395 -0.016206098720431328 -0.3119766116142273
v 0.4685557782649994 1.4916539192199707 0.2805389165878296
v -0.32545995712280273 -0.01620624214410782 0.23283107578754425
v 0.6099962592124939 1.4916538000106812 -0.19413651525974274
v 0.542251706123352 -0.016206063330173492 -0.2885422706604004
v -0.2577154040336609 1.4916539192199707 0.32723715901374817
v 0.09987963736057281 -0.016206631436944008 -0.5343087911605835
v 0.0019990038126707077 1.4916538000106812 0.5019562840461731
v 0.09987963736057281 -0.01620653085410595 0.47799238562583923
v 0.0019990038126707077 1.4916539192199707 -0.5103448033332825
v 0.4742017388343811 1.4916539192199707 0.2740444242954254
v 0.4043493866920471 -0.01620667614042759 0.34565815329551697
v -0.2897918224334717 1.4916538000106812 -0.3900849521160126
v -0.3596440851688385 -0.01620655693113804 -0.3184710443019867
v -0.25328338146209717 1.4916539192199707 0.3346134126186371
vn 0.5135253667831421 -0.07658044993877411 0.8546503186225891
vn 0.5135254859924316 -0.07658055424690247 0.8546501994132996
vn 0.5135254859924316 -0.07658055424690247 0.8546501994132996
vn -0.9978997111320496 -0.06477779895067215 -6.325016954633611e-9
vn -0.9978997111320496 -0.06477779895067215 2.220446578645905e-16
vn -0.9978997111320496 -0.06477779895067215 2.220446578645905e-16
vn -0.9978997111320496 -0.06477780640125275 6.325016954633611e-9
vn -0.6546245217323303 0.06609108299016953 0.7530595660209656
vn -0.6546245217323303 0.06609108299016953 0.7530595660209656
vn -0.6546244621276855 0.0660911425948143 0.7530596256256104
vn -0.6546245813369751 0.06609101593494415 0.7530595064163208
vn -0.5135253667831421 0.0765802338719368 -0.8546503186225891
vn -0.5135253667831421 0.0765802338719368 -0.8546503186225891
vn -0.5135252475738525 0.07658015191555023 -0.8546503782272339
vn -0.5135254263877869 0.07658031582832336 -0.8546502590179443
vn 0.9978997707366943 0.06477724015712738 -2.220445652203619e-16
vn 0.9978997707366943 0.06477724015712738 -2.220445652203619e-16
vn 0.9978997707366943 0.06477724015712738 -6.324999191065217e-9
vn 0.9978997707366943 0.06477723270654678 6.324998746976007e-9
vn 0.6546245217323303 -0.06609142571687698 -0.7530595660209656
vn 0.6546244621276855 -0.06609146296977997 -0.7530596256256104
vn 0.6546244621276855 -0.06609146296977997 -0.7530596256256104
vn 0.6546244025230408 -0.06609150767326355 -0.7530596256256104
vn 0.5135256052017212 -0.07658065110445023 0.8546501398086548
vt 0.999499499797821 0.0004994869232177734
vt 0.9995004534721375 0.9995004534721375
vt 0.0004994591581635177 0.0004996657371520996
vt 0.0005004405393265188 0.999500572681427
vt 0.0004994591581635177 0.0004996657371520996
vt 0.9995004534721375 0.9995004534721375
vt 0.999499499797821 0.0004994869232177734
vt 0.0004994591581635177 0.0004996657371520996
vt 0.9995004534721375 0.9995004534721375
vt 0.999499499797821 0.0004994869232177734
vt 0.0005004405393265188 0.999500572681427
vt 0.0004994591581635177 0.0004996657371520996
vt 0.9995004534721375 0.9995004534721375
vt 0.999499499797821 0.0004994869232177734
vt 0.0005004405393265188 0.999500572681427
vt 0.0004994591581635177 0.0004996657371520996
vt 0.9995004534721375 0.9995004534721375
vt 0.999499499797821 0.0004994869232177734
vt 0.0005004405393265188 0.999500572681427
vt 0.0005004405393265188 0.999500572681427
vt 0.0004994591581635177 0.0004996657371520996
vt 0.9995004534721375 0.9995004534721375
vt 0.999499499797821 0.0004994869232177734
vt 0.0005004405393265188 0.999500572681427
g Geoset0
s 1
usemtl mat_duskwoodcatails01
f 1/1/1 2/2/2 3/3/3
f 4/4/4 5/5/5 6/6/6
f 7/7/7 6/6/6 5/5/5
f 8/8/8 9/9/9 10/10/10
f 9/9/9 8/8/8 11/11/11
f 12/12/12 13/13/13 14/14/14
f 13/13/13 12/12/12 15/15/15
f 16/16/16 17/17/17 18/18/18
f 17/17/17 16/16/16 19/19/19
f 20/20/20 21/21/21 22/22/22
f 23/23/23 22/22/22 21/21/21
f 24/24/24 3/3/3 2/2/2