# Exported using wow.export v0.1.49
o 
mtllib battlegladeshield1.mtl
v -0.3534151613712311 0.07188358157873154 0.7421388030052185
v 1.0755703449249268 0.01973273791372776 0.3004939556121826
v -0.5880321264266968 0.09970145672559738 -0.020272554829716682
v -0.3545019328594208 0.04697079584002495 0.7415642142295837
v 1.0744835138320923 -0.005180048756301403 0.2999194264411926
v -0.3534151613712311 0.07188358157873154 0.7421388030052185
v 1.0755703449249268 0.01973273791372776 0.3004939556121826
v -0.5891188979148865 0.0747886672616005 -0.020847110077738762
v -0.3545019328594208 0.04697079584002495 0.7415642142295837
v -0.5880321264266968 0.09970145672559738 -0.020272554829716682
v -0.3534151613712311 0.07188358157873154 0.7421388030052185
v 0.8398664593696594 0.022637825459241867 -0.4624919295310974
v -0.5891188979148865 0.0747886672616005 -0.020847110077738762
v 0.8409532904624939 0.047550614923238754 -0.4619174003601074
v -0.5880321264266968 0.09970145672559738 -0.020272554829716682
v 1.0744835138320923 -0.005180048756301403 0.2999194264411926
v 0.8398664593696594 0.022637825459241867 -0.4624919295310974
v 1.0755703449249268 0.01973273791372776 0.3004939556121826
v 0.8409532904624939 0.047550614923238754 -0.4619174003601074
v 0.8409532904624939 0.047550614923238754 -0.4619174003601074
vn 0.043569792062044144 0.9987847805023193 0.023034630343317986
vn 0.043569792062044144 0.9987847805023193 0.023034630343317986
vn 0.043569792062044144 0.9987847805023193 0.023034630343317986
vn 0.2939401865005493 -0.03485166281461716 0.9551882147789001
vn 0.2939401865005493 -0.03485166281461716 0.9551882147789001
vn 0.2939401865005493 -0.03485166281461716 0.9551882147789001
vn 0.2939401865005493 -0.03485166281461716 0.9551882147789001
vn -0.9548302292823792 0.03484654426574707 0.2951015830039978
vn -0.9548302292823792 0.03484654426574707 0.2951015830039978
vn -0.9548302292823792 0.03484654426574707 0.2951015830039978
vn -0.9548302292823792 0.03484654426574707 0.2951015830039978
vn -0.2939401865005493 0.03485166281461716 -0.9551882147789001
vn -0.2939401865005493 0.03485166281461716 -0.9551882147789001
vn -0.2939401865005493 0.03485166281461716 -0.9551882147789001
vn -0.2939401865005493 0.03485166281461716 -0.9551882147789001
vn 0.9548302292823792 -0.03484654426574707 -0.2951015830039978
vn 0.9548302292823792 -0.03484654426574707 -0.2951015830039978
vn 0.9548302292823792 -0.03484654426574707 -0.2951015830039978
vn 0.9548302292823792 -0.03484654426574707 -0.2951015830039978
vn 0.043569792062044144 0.9987847805023193 0.023034630343317986
vt 0 1
vt 0 0
vt 1 1
vt 0 1
vt 0 0
vt 0 1
vt 0 0
vt 1 1
vt 0 1
vt 1 1
vt 0 1
vt 1 0
vt 1 1
vt 1 0
vt 1 1
vt 0 0
vt 1 0
vt 0 0
vt 1 0
vt 1 0
g Geoset0
s 1
usemtl mat_battlegladeshield1
f 1/1/1 2/2/2 3/3/3
f 4/4/4 5/5/5 6/6/6
f 7/7/7 6/6/6 5/5/5
f 8/8/8 9/9/9 10/10/10
f 11/11/11 10/10/10 9/9/9
f 12/12/12 13/13/13 14/14/14
f 15/15/15 14/14/14 13/13/13
f 16/16/16 17/17/17 18/18/18
f 19/19/19 18/18/18 17/17/17
f 20/20/20 3/3/3 2/2/2