# Exported using wow.export v0.1.49
o 
mtllib caveminepulley02.mtl
v 0.004309302661567926 -0.5291531682014465 0.0052392748184502125
v -0.06497586518526077 -0.6115546822547913 0.0052392748184502125
v -0.09134101122617722 -0.8688935041427612 0.3133024275302887
v -0.07167559862136841 0.05655793473124504 -0.23099152743816376
v 0.09764549881219864 -0.27031099796295166 -0.14920906722545624
v 0.08029420673847198 0.066880002617836 -0.23099152743816376
v -0.08902689814567566 -0.3577560484409332 -0.14920906722545624
v 0.004309302661567926 0.06354847550392151 -0.33217883110046387
v 0.004309302661567926 -0.2652412950992584 -0.2735026478767395
v 0.08029420673847198 0.066880002617836 -0.23099152743816376
v 0.09764549881219864 -0.27031099796295166 -0.14920906722545624
v 0.004309302661567926 -0.6354354023933411 -0.08655993640422821
v 0.08144665509462357 -0.6013132333755493 0.016162054613232613
v -0.07282804697751999 -0.6566208600997925 0.016162054613232613
v 0.08144665509462357 -0.6013132333755493 0.016162054613232613
v -0.07167559862136841 0.08480002731084824 0.20928913354873657
v 0.08029420673847198 0.066880002617836 0.20928913354873657
v 0.09764549881219864 -0.24132652580738068 0.19544020295143127
v -0.08902689814567566 -0.36205047369003296 0.21256260573863983
v 0.004309302661567926 0.06354847550392151 0.3104764521121979
v 0.004309302661567926 -0.31997594237327576 0.31973379850387573
v 0.08029420673847198 0.066880002617836 0.20928913354873657
v 0.09764549881219864 -0.24132652580738068 0.19544020295143127
v 0.08144665509462357 -0.6013132333755493 0.04719148576259613
v -0.07282804697751999 -0.6566208600997925 0.04719148576259613
v 0.004309302661567926 -0.6626115441322327 0.1499135047197342
v 0.08144665509462357 -0.6013132333755493 0.04719148576259613
v 0.004309302661567926 -0.5291531682014465 0.0052392748184502125
v 0.07359447330236435 -0.6115546822547913 0.0052392748184502125
v 0.004309302661567926 -0.9042471051216125 -0.4301990866661072
v -0.06497586518526077 -0.6115546822547913 0.0052392748184502125
v -0.09134101122617722 -0.8814576268196106 -0.30282387137413025
v 0.004309302661567926 -2.5921409130096436 -0.5417839884757996
v 0.2231476604938507 -2.8429362773895264 -0.3405537009239197
v 0.12004617601633072 -2.5816056728363037 -0.3876599371433258
v -0.21452905237674713 -2.7041420936584473 -0.3405537009239197
v 0.004309302661567926 -2.848752975463867 -0.6319755911827087
v -0.11142758280038834 -2.4731740951538086 -0.3876599371433258
v 0.09995961934328079 -0.94655841588974 -0.30282387137413025
v 0.2231476604938507 -2.8429362773895264 -0.3405537009239197
v 0.12004617601633072 -2.5816056728363037 -0.3876599371433258
v 0.09995961934328079 -0.94655841588974 -0.30282387137413025
v 0.12004617601633072 -1.6813023090362549 0.30749040842056274
v 0.07121255993843079 -2.24115252494812 0.4250824749469757
v -0.11723000556230545 -2.181394338607788 0.4250824749469757
v 0.004309302661567926 -0.8951636552810669 0.440677672624588
v 0.09995961934328079 -0.9374750256538391 0.3133024275302887
v 0.07359447330236435 -0.6115546822547913 0.0052392748184502125
v 0.12004617601633072 -1.6813023090362549 0.30749040842056274
v 0.004309302661567926 -1.6875888109207153 0.4616144597530365
v 0.07121255993843079 -2.24115252494812 0.4250824749469757
v -0.02300872467458248 -2.2370214462280273 0.5505546927452087
v -0.11142758280038834 -1.5728703737258911 0.30749040842056274
v 0.09995961934328079 -0.9374750256538391 0.3133024275302887
v 0.11197260022163391 -0.8855021595954895 -0.30898550152778625
v 0.1495828926563263 -1.2145411968231201 -0.33710384368896484
v -0.14473669230937958 -1.2145411968231201 -0.33710384368896484
v 0.11086151748895645 -0.7010059952735901 -0.12482871115207672
v -0.11247184872627258 -0.8855021595954895 -0.30898550152778625
v -0.11136072129011154 -0.7010059356689453 -0.12482872605323792
v 0.11197260022163391 -0.8855021595954895 -0.30898550152778625
v 0.11086150258779526 -0.7017271518707275 0.16442622244358063
v -0.11136072129011154 -0.7010059356689453 -0.12482872605323792
v -0.11136070638895035 -0.7017271518707275 0.16442623734474182
v 0.11086151748895645 -0.7010059952735901 -0.12482871115207672
v 0.11197257041931152 -0.8871389031410217 0.347463995218277
v -0.11136070638895035 -0.7017271518707275 0.16442623734474182
v -0.11247185617685318 -0.8871389031410217 0.347463995218277
v 0.11086150258779526 -0.7017271518707275 0.16442622244358063
v 0.1495828777551651 -1.2160638570785522 0.386094868183136
v -0.11247185617685318 -0.8871389031410217 0.347463995218277
v -0.14473669230937958 -1.2160638570785522 0.3860948085784912
v 0.11197257041931152 -0.8871389031410217 0.347463995218277
v 0.1495828628540039 -1.366455078125 0.018179291859269142
v -0.14473669230937958 -1.2160638570785522 0.3860948085784912
v -0.14473670721054077 -1.366455078125 0.018179288133978844
v 0.1495828777551651 -1.2160638570785522 0.386094868183136
v 0.1495828926563263 -1.2145411968231201 -0.33710384368896484
v -0.14473670721054077 -1.366455078125 0.018179288133978844
v -0.14473669230937958 -1.2145411968231201 -0.33710384368896484
v 0.1495828628540039 -1.366455078125 0.018179291859269142
v 0.11086151748895645 -0.7010059952735901 -0.12482871115207672
v 0.11086150258779526 -0.7017271518707275 0.16442622244358063
v 0.13191230595111847 -0.3748664855957031 0.13439592719078064
v 0.13191232085227966 -0.37400826811790466 -0.09355992078781128
v 0.21640266478061676 -1.012155294418335 0.019052457064390182
v 0.11197260022163391 -0.8855021595954895 -0.30898550152778625
v 0.11197257041931152 -0.8871389031410217 0.347463995218277
v 0.1495828777551651 -1.2160638570785522 0.386094868183136
v 0.1495828926563263 -1.2145411968231201 -0.33710384368896484
v 0.1495828628540039 -1.366455078125 0.018179291859269142
v -0.13177670538425446 -0.375046968460083 0.1338501274585724
v -0.13177670538425446 -0.3741888105869293 -0.09410575777292252
v -0.11136072129011154 -0.7010059356689453 -0.12482872605323792
v -0.11136070638895035 -0.7017271518707275 0.16442623734474182
v -0.22938524186611176 -1.012155294418335 0.019052453339099884
v -0.11247185617685318 -0.8871389031410217 0.347463995218277
v -0.14473669230937958 -1.2160638570785522 0.3860948085784912
v -0.14473670721054077 -1.366455078125 0.018179288133978844
v -0.14473669230937958 -1.2145411968231201 -0.33710384368896484
v -0.11247184872627258 -0.8855021595954895 -0.30898550152778625
v 0.12209253758192062 -0.5003565549850464 0.09967813640832901
v -0.12546291947364807 -0.423701673746109 0.022879907861351967
v -0.12077449262142181 -0.5003566145896912 0.0996781513094902
v 0.12611183524131775 -0.4236636757850647 0.022879907861351967
v -0.12077449262142181 -0.5003566145896912 -0.05391831323504448
v 0.12209253758192062 -0.5003565549850464 -0.05391829460859299
v -0.11608607321977615 -0.5770115256309509 0.02287992276251316
v 0.1180732399225235 -0.5770495533943176 0.02287992089986801
v -0.11247184872627258 -0.8855021595954895 -0.30898550152778625
vn -0.23734626173973083 0.7564162015914917 0.6095090508460999
vn -0.6921414732933044 0.5819696187973022 0.42690926790237427
vn -0.8526621460914612 0.3824836313724518 0.35591229796409607
vn -0.5443776249885559 0.20875613391399384 0.8124493360519409
vn 0.8728361129760742 0.0786513090133667 0.4816337525844574
vn 0.9900113344192505 0.015132446773350239 -0.14017319679260254
vn -0.9454821944236755 0.17790263891220093 0.27278950810432434
vn -0.37091171741485596 -0.15264150500297546 -0.9160376787185669
vn 0.08226774632930756 -0.3386479318141937 -0.937309741973877
vn 0.9900113344192505 0.015132446773350239 -0.14017319679260254
vn 0.8728361129760742 0.0786513090133667 0.4816337525844574
vn 0.39944660663604736 -0.4271717965602875 -0.8111514449119568
vn 0.2992393970489502 0.43090853095054626 0.8513363599777222
vn -0.9358729124069214 -0.17495198547840118 -0.30583280324935913
vn 0.2992393970489502 0.43090853095054626 0.8513363599777222
vn -0.5338971614837646 0.04655948281288147 -0.8442665338516235
vn 0.9904193878173828 0.047763362526893616 0.12956902384757996
vn 0.8491183519363403 -0.018802516162395477 -0.5278679132461548
vn -0.9475385546684265 0.16595414280891418 -0.27318474650382996
vn -0.3754093050956726 0.03268580883741379 0.9262826442718506
vn 0.0824512392282486 -0.2392737716436386 0.9674450159072876
vn 0.9904193878173828 0.047763362526893616 0.12956902384757996
vn 0.8491183519363403 -0.018802516162395477 -0.5278679132461548
vn 0.24348321557044983 0.42622044682502747 -0.8712359070777893
vn -0.9606263637542725 -0.13838759064674377 0.24092702567577362
vn 0.4681110084056854 -0.39112532138824463 0.7923970222473145
vn 0.24348321557044983 0.42622044682502747 -0.8712359070777893
vn -0.24619171023368835 0.7447107434272766 -0.6203189492225647
vn 0.7256258726119995 0.5120474696159363 -0.45964598655700684
vn 0.41488659381866455 0.4341033101081848 -0.7996395826339722
vn -0.6850439310073853 0.5760018229484558 -0.446023166179657
vn -0.855270504951477 0.36930468678474426 -0.36349204182624817
vn 0.026781238615512848 0.2040451616048813 -0.9785950779914856
vn 0.9722884893417358 -0.2328094094991684 0.021328803151845932
vn 0.8853915929794312 0.2107383757829666 0.4143320322036743
vn -0.48670315742492676 -0.19898757338523865 0.8506021499633789
vn -0.4733460247516632 -0.14243416488170624 -0.8692848086357117
vn -0.8823735117912292 0.2224651575088501 0.4146398603916168
vn 0.826155424118042 0.21105313301086426 0.52242112159729
vn 0.9722884893417358 -0.2328094094991684 0.021328803151845932
vn 0.8853915929794312 0.2107383757829666 0.4143320322036743
vn 0.826155424118042 0.21105313301086426 0.52242112159729
vn 0.8835283517837524 -0.11404725909233093 -0.45428064465522766
vn 0.7707951068878174 -0.6368169784545898 0.018414165824651718
vn -0.5319994688034058 -0.5238696336746216 -0.6652346253395081
vn 0.4217747747898102 0.42556992173194885 0.8006224036216736
vn 0.82216876745224 0.2592262327671051 -0.5067940950393677
vn 0.7260686159133911 0.5176131725311279 0.45265993475914
vn 0.8835283517837524 -0.11404725909233093 -0.45428064465522766
vn 0.018308104947209358 0.08324030041694641 0.9963613152503967
vn 0.7707951068878174 -0.6368169784545898 0.018414165824651718
vn -0.4847084581851959 -0.2937721014022827 0.8238663077354431
vn -0.9098076820373535 0.04531862214207649 -0.41254836320877075
vn 0.82216876745224 0.2592262327671051 -0.5067940950393677
vn 0.48932334780693054 0.31536349654197693 -0.8130857944488525
vn 0.571479856967926 -0.5329341292381287 -0.62401282787323
vn -0.5503512620925903 -0.24753203988075256 -0.7973966598510742
vn -0.02819056436419487 0.8839865922927856 -0.4666614830493927
vn -0.4765273332595825 0.4697650969028473 -0.7431301474571228
vn -0.759131908416748 0.6241431832313538 -0.18483532965183258
vn 0.48932334780693054 0.31536349654197693 -0.8130857944488525
vn 0.2530418932437897 0.9309576153755188 0.2632255554199219
vn -0.759131908416748 0.6241431832313538 -0.18483532965183258
vn -0.6473471522331238 0.6630277633666992 0.37594664096832275
vn -0.02819056436419487 0.8839865922927856 -0.4666614830493927
vn 0.4845128655433655 0.4777768552303314 0.7327868342399597
vn -0.6473471522331238 0.6630277633666992 0.37594664096832275
vn -0.4765130281448364 0.3298504650592804 0.8149441480636597
vn 0.2530418932437897 0.9309576153755188 0.2632255554199219
vn 0.5702304840087891 -0.21727126836776733 0.7922312617301941
vn -0.4765130281448364 0.3298504650592804 0.8149441480636597
vn -0.5625689029693604 -0.5397413372993469 0.6262551546096802
vn 0.4845128655433655 0.4777768552303314 0.7327868342399597
vn 0.5268822908401489 -0.8443989157676697 0.09687898308038712
vn -0.5625689029693604 -0.5397413372993469 0.6262551546096802
vn -0.5114065408706665 -0.8524184226989746 -0.1088399589061737
vn 0.5702304840087891 -0.21727126836776733 0.7922312617301941
vn 0.571479856967926 -0.5329341292381287 -0.62401282787323
vn -0.5114065408706665 -0.8524184226989746 -0.1088399589061737
vn -0.5503512620925903 -0.24753203988075256 -0.7973966598510742
vn 0.5268822908401489 -0.8443989157676697 0.09687898308038712
vn -0.02819056436419487 0.8839865922927856 -0.4666614830493927
vn 0.2530418932437897 0.9309576153755188 0.2632255554199219
vn -0.9979336857795715 0.06425228714942932 0.0002009817835642025
vn -0.9979357123374939 0.06422004848718643 0.00024171205586753786
vn 0.9951363801956177 0.09850499033927917 -0.0005841532256454229
vn 0.48932334780693054 0.31536349654197693 -0.8130857944488525
vn 0.4845128655433655 0.4777768552303314 0.7327868342399597
vn 0.5702304840087891 -0.21727126836776733 0.7922312617301941
vn 0.571479856967926 -0.5329341292381287 -0.62401282787323
vn 0.5268822908401489 -0.8443989157676697 0.09687898308038712
vn -0.9980539083480835 -0.06235690414905548 -0.00019509416597429663
vn -0.9980558156967163 -0.06232563033699989 -0.00023465654521714896
vn -0.759131908416748 0.6241431832313538 -0.18483532965183258
vn -0.6473471522331238 0.6630277633666992 0.37594664096832275
vn -0.9955826997756958 0.09388573467731476 -0.0007568587898276746
vn -0.4765130281448364 0.3298504650592804 0.8149441480636597
vn -0.5625689029693604 -0.5397413372993469 0.6262551546096802
vn -0.5114065408706665 -0.8524184226989746 -0.1088399589061737
vn -0.5503512620925903 -0.24753203988075256 -0.7973966598510742
vn -0.4765273332595825 0.4697650969028473 -0.7431301474571228
vn -0.0000478228903375566 0.31671395897865295 0.948521077632904
vn -0.00009563812636770308 0.948829710483551 0.31578823924064636
vn -0.00005131597208674066 -0.3166671693325043 0.9485366940498352
vn -0.00009564741048961878 0.9488436579704285 -0.3157461881637573
vn -0.00004784050179296173 0.31666362285614014 -0.9485378861427307
vn -0.00005130129284225404 -0.3167107105255127 -0.9485222101211548
vn -0.00010249692422803491 -0.9488279819488525 -0.31579330563545227
vn -0.00010250726336380467 -0.948845386505127 0.31574103236198425
vn -0.4765273332595825 0.4697650969028473 -0.7431301474571228
vt 0.08824467658996582 2.0953407287597656
vt 0.0009992718696594238 1.9879372119903564
vt 1.0190403461456299 1.658721685409546
vt 1.0347555875778198 0.009080171585083008
vt 1.7229572534561157 0.6246742606163025
vt 1.6308752298355103 0.018919765949249268
vt 0.9951600432395935 0.6246742606163025
vt 1.6372246742248535 -0.008341073989868164
vt 1.628422737121582 0.6286417841911316
vt 1.0347552299499512 0.009080171585083008
vt 0.9951598048210144 0.6246742606163025
vt 1.5423979759216309 1.1947402954101562
vt 1.0190401077270508 1.105823040008545
vt 1.0190403461456299 1.105823040008545
vt 1.7565416097640991 1.105823040008545
vt 1.0347555875778198 0.009080171585083008
vt 1.6308752298355103 0.018919765949249268
vt 1.7229572534561157 0.6246742606163025
vt 0.9951600432395935 0.6246742606163025
vt 1.6372246742248535 -0.008341073989868164
vt 1.628422737121582 0.6286417841911316
vt 1.0347552299499512 0.009080171585083008
vt 0.9951598048210144 0.6246742606163025
vt 1.7565416097640991 1.105823040008545
vt 1.0190403461456299 1.105823040008545
vt 1.5423979759216309 1.1947402954101562
vt 1.0190401077270508 1.105823040008545
vt 0.08824467658996582 2.9985015392303467
vt 0.0009990930557250977 2.8910980224609375
vt 1.5423979759216309 2.6507997512817383
vt 0.0009992718696594238 2.8910980224609375
vt 1.0190403461456299 2.561882495880127
vt 1.628422737121582 0.35366982221603394
vt 1.558519959449768 0.009080171585083008
vt 1.7229572534561157 0.34970229864120483
vt 0.8016109466552734 0.009080171585083008
vt 1.999000906944275 0.001498579978942871
vt 0.9951600432395935 0.34970229864120483
vt 1.7565416097640991 2.561882495880127
vt 0.80161052942276 0.009080171585083008
vt 0.9951598048210144 0.34970229864120483
vt 1.0190401077270508 2.561882495880127
vt 1.7229572534561157 0.7826452851295471
vt 1.6308752298355103 0.018919765949249268
vt 1.0347555875778198 0.009080171585083008
vt 1.5423979759216309 1.7476389408111572
vt 1.0190401077270508 1.658721685409546
vt 0.0009990930557250977 1.9879372119903564
vt 0.9951598048210144 0.7826452851295471
vt 1.628422737121582 0.7866128087043762
vt 1.0347552299499512 0.009080171585083008
vt 1.6372246742248535 -0.008341073989868164
vt 0.9951600432395935 0.7826452851295471
vt 1.7565416097640991 1.658721685409546
vt 0.13382816314697266 0.7832507491111755
vt 0.13458237051963806 0.31608617305755615
vt 0.24733594059944153 0.3132951259613037
vt 0.13382816314697266 0.3157830834388733
vt 0.24733594059944153 0.7857387065887451
vt 0.25781503319740295 0.3111107349395752
vt 0.13458237051963806 0.7829476594924927
vt 0.13382816314697266 0.7832507491111755
vt 0.24733594059944153 0.3132951259613037
vt 0.25781503319740295 0.7879230976104736
vt 0.13458237051963806 0.31608617305755615
vt 0.13382816314697266 0.7832507491111755
vt 0.24733594059944153 0.3132951259613037
vt 0.25781503319740295 0.7879230976104736
vt 0.13458237051963806 0.31608617305755615
vt 0.13382816314697266 0.3157830834388733
vt 0.24733594059944153 0.7857387065887451
vt 0.25781503319740295 0.3111107349395752
vt 0.13458237051963806 0.7829476594924927
vt 0.13382816314697266 0.7832507491111755
vt 0.24733594059944153 0.3132951259613037
vt 0.25781503319740295 0.7879230976104736
vt 0.13458237051963806 0.31608617305755615
vt 0.13382816314697266 0.3157830834388733
vt 0.24733594059944153 0.7857387065887451
vt 0.25781503319740295 0.3111107349395752
vt 0.13458237051963806 0.7829476594924927
vt 0.7878110408782959 0.9915120601654053
vt 0.2316346913576126 0.9953069090843201
vt 0.26732462644577026 0.25260233879089355
vt 0.7294800877571106 0.25329363346099854
vt 0.5039828419685364 0.5170947909355164
vt 0.9972235560417175 0.7542942762374878
vt 0.0008906126022338867 0.802760124206543
vt 0.003885611891746521 0.2701379656791687
vt 0.9958417415618896 0.25119584798812866
vt 0.5090447068214417 0.006106734275817871
vt 0.26843127608299255 0.2524569034576416
vt 0.7305867671966553 0.2531481981277466
vt 0.7878111004829407 0.9915120601654053
vt 0.23163475096225739 0.9953069090843201
vt 0.5039829015731812 0.5170947909355164
vt 0.0008907020092010498 0.802760124206543
vt 0.0038856714963912964 0.2701379656791687
vt 0.5090447664260864 0.006106734275817871
vt 0.9958417415618896 0.2511957883834839
vt 0.9972236752510071 0.7542942762374878
vt 0.1044960469007492 0.5804131031036377
vt 0.236336812376976 0.2819056510925293
vt 0.236336812376976 0.5804131031036377
vt 0.1044960469007492 0.2819056510925293
vt 0.23633678257465363 0.5804131031036377
vt 0.10449603199958801 0.5804131031036377
vt 0.236336812376976 0.2819056510925293
vt 0.1044960469007492 0.2819056510925293
vt 0.25781503319740295 0.7879230976104736
g Geoset0
s 1
usemtl mat_caverope01
f 1/1/1 2/2/2 3/3/3
f 4/4/4 5/5/5 6/6/6
f 5/5/5 4/4/4 7/7/7
f 8/8/8 7/7/7 4/4/4
f 7/7/7 8/8/8 9/9/9
f 10/10/10 9/9/9 8/8/8
f 9/9/9 10/10/10 11/11/11
f 12/12/12 11/11/11 13/13/13
f 11/11/11 12/12/12 9/9/9
f 14/14/14 9/9/9 12/12/12
f 9/9/9 14/14/14 7/7/7
f 15/15/15 7/7/7 14/14/14
f 7/7/7 15/15/15 5/5/5
f 16/16/16 17/17/17 18/18/18
f 18/18/18 19/19/19 16/16/16
f 20/20/20 16/16/16 19/19/19
f 19/19/19 21/21/21 20/20/20
f 22/22/22 20/20/20 21/21/21
f 21/21/21 23/23/23 22/22/22
f 19/19/19 18/18/18 24/24/24
f 24/24/24 25/25/25 19/19/19
f 21/21/21 19/19/19 25/25/25
f 25/25/25 26/26/26 21/21/21
f 23/23/23 21/21/21 26/26/26
f 26/26/26 27/27/27 23/23/23
f 28/28/28 29/29/29 30/30/30
f 31/31/31 28/28/28 32/32/32
f 30/30/30 32/32/32 28/28/28
f 30/30/30 33/33/33 32/32/32
f 34/34/34 35/35/35 36/36/36
f 33/33/33 37/37/37 38/38/38
f 38/38/38 32/32/32 33/33/33
f 32/32/32 38/38/38 39/39/39
f 35/35/35 39/39/39 38/38/38
f 38/38/38 36/36/36 35/35/35
f 36/36/36 38/38/38 37/37/37
f 36/36/36 37/37/37 40/40/40
f 37/37/37 33/33/33 40/40/40
f 41/41/41 40/40/40 33/33/33
f 33/33/33 30/30/30 41/41/41
f 42/42/42 41/41/41 30/30/30
f 42/42/42 30/30/30 29/29/29
f 43/43/43 44/44/44 45/45/45
f 46/46/46 47/47/47 48/48/48
f 49/49/49 47/47/47 46/46/46
f 46/46/46 50/50/50 49/49/49
f 51/51/51 49/49/49 50/50/50
f 50/50/50 52/52/52 51/51/51
f 52/52/52 45/45/45 51/51/51
f 53/53/53 45/45/45 52/52/52
f 45/45/45 53/53/53 43/43/43
f 54/54/54 43/43/43 53/53/53
f 53/53/53 3/3/3 54/54/54
f 52/52/52 50/50/50 53/53/53
f 3/3/3 53/53/53 50/50/50
f 50/50/50 46/46/46 3/3/3
f 3/3/3 46/46/46 1/1/1
f 48/48/48 1/1/1 46/46/46
g Geoset1
s 1
usemtl mat_minecavepulley01_64
f 55/55/55 56/56/56 57/57/57
f 58/58/58 59/59/59 60/60/60
f 58/58/58 61/61/61 59/59/59
f 62/62/62 63/63/63 64/64/64
f 62/62/62 65/65/65 63/63/63
f 66/66/66 67/67/67 68/68/68
f 66/66/66 69/69/69 67/67/67
f 70/70/70 71/71/71 72/72/72
f 70/70/70 73/73/73 71/71/71
f 74/74/74 75/75/75 76/76/76
f 74/74/74 77/77/77 75/75/75
f 78/78/78 79/79/79 80/80/80
f 78/78/78 81/81/81 79/79/79
f 82/82/82 83/83/83 84/84/84
f 84/84/84 85/85/85 82/82/82
f 86/86/86 87/87/87 82/82/82
f 86/86/86 82/82/82 83/83/83
f 86/86/86 83/83/83 88/88/88
f 86/86/86 88/88/88 89/89/89
f 86/86/86 90/90/90 87/87/87
f 86/86/86 91/91/91 90/90/90
f 86/86/86 89/89/89 91/91/91
f 92/92/92 93/93/93 94/94/94
f 94/94/94 95/95/95 92/92/92
f 96/96/96 95/95/95 94/94/94
f 96/96/96 97/97/97 95/95/95
f 96/96/96 98/98/98 97/97/97
f 96/96/96 99/99/99 98/98/98
f 96/96/96 100/100/100 99/99/99
f 96/96/96 101/101/101 100/100/100
f 96/96/96 94/94/94 101/101/101
f 102/102/102 103/103/103 104/104/104
f 102/102/102 105/105/105 103/103/103
f 105/105/105 106/106/106 103/103/103
f 105/105/105 107/107/107 106/106/106
f 107/107/107 108/108/108 106/106/106
f 107/107/107 109/109/109 108/108/108
f 109/109/109 104/104/104 108/108/108
f 109/109/109 102/102/102 104/104/104
f 55/55/55 57/57/57 110/110/110