# Exported using wow.export v0.1.49
o 
mtllib stormwindrug01.mtl
v -0.11710403859615326 0.013888995163142681 1.1679260730743408
v -0.12527281045913696 0.00020816591859329492 1.3630175590515137
v 0.05447786673903465 0.00020821888756472617 1.3630175590515137
v 0.7948450446128845 0.00020805995154660195 -1.3835734128952026
v 0.07087186723947525 0.00020821888756472617 -1.4091992378234863
v 0.07459493726491928 0.013889048248529434 -1.2359577417373657
v 0.8047932386398315 0.013888888992369175 -1.2361395359039307
v 1.5448451042175293 0.00020811293506994843 -1.4091992378234863
v 1.4532047510147095 0.013888942077755928 -1.2237834930419922
v 1.5133367776870728 0.013888995163142681 -0.018625862896442413
v 1.6261322498321533 0.00020816591859329492 -0.01427405048161745
v 0.8703346848487854 0.013888942077755928 -0.045025911182165146
v 0.10159487277269363 0.013888995163142681 -0.014273771084845066
v 1.5448452234268188 0.00020816591859329492 1.3630175590515137
v 1.439871072769165 0.013888995163142681 1.1538342237472534
v 0.8068543076515198 0.013888942077755928 1.20535147190094
v 0.7948453426361084 0.00020811293506994843 1.3870837688446045
v 0.8703346848487854 0.013888942077755928 -0.045025911182165146
v 0.05447786673903465 0.00020821888756472617 1.3630175590515137
v 0.06130761653184891 0.013889048248529434 1.1675539016723633
v 0.10159487277269363 0.013888995163142681 -0.014273771084845066
v -0.11710403859615326 0.013888995163142681 1.1679260730743408
v -0.06869538873434067 0.013888995163142681 -0.014273766428232193
v -0.6619614958763123 0.013888995163142681 0.04150941222906113
v -0.6742256879806519 0.013889048248529434 1.156364917755127
v -0.12527281045913696 0.00020816591859329492 1.3630175590515137
v -0.6957529783248901 0.00020821888756472617 1.3440021276474
v -1.4457529783248901 0.00020821888756472617 1.3630176782608032
v -1.3290916681289673 0.013889048248529434 1.1809653043746948
v -1.4457530975341797 0.00020816591859329492 -1.4091992378234863
v -1.4718332290649414 0.00020816591859329492 0.010866306722164154
v -1.3733943700790405 0.013888995163142681 0.014828448183834553
v -1.3100731372833252 0.013888995163142681 -1.2110792398452759
v -0.6794120073318481 0.013888995163142681 -1.2473564147949219
v -0.6957530975341797 0.00020816591859329492 -1.4174820184707642
v -0.11067525297403336 0.013888942077755928 -1.226766586303711
v -0.1171901524066925 0.00020811293506994843 -1.4091992378234863
v 0.07459493726491928 0.013889048248529434 -1.2359577417373657
v 0.07087186723947525 0.00020821888756472617 -1.4091992378234863
v 0.10159487277269363 0.013888995163142681 -0.014273771084845066
v 0.06130761653184891 0.013889048248529434 1.1675539016723633
v -0.06869538873434067 0.013888995163142681 -0.014273766428232193
vn -0.00033228276879526675 0.9985748529434204 0.053368233144283295
vn -0.0019645169377326965 0.9941592216491699 0.10790533572435379
vn -0.00221966952085495 0.9941037893295288 0.1084098070859909
vn -0.00019245781004428864 0.9910322427749634 -0.1336226910352707
vn 0.0021242257207632065 0.992772102355957 -0.11999596655368805
vn -0.0002391784219071269 0.9965882301330566 -0.08253408968448639
vn -0.00045241572661325336 0.9978545308113098 -0.06546895205974579
vn 0.09698653966188431 0.9929479360580444 -0.06817639619112015
vn 0.05202778801321983 0.998182475566864 -0.03041170910000801
vn 0.12466966360807419 0.9921982884407043 0.00014370652206707746
vn 0.1824551373720169 0.9832141995429993 0.00004415557123138569
vn -1.1357029094938298e-8 1 -3.7787888373941314e-8
vn -5.540380954016655e-8 1 -2.1606078703939602e-8
vn 0.09286203235387802 0.993983805179596 0.05807599052786827
vn 0.04603086784482002 0.9985826015472412 0.02671968750655651
vn 0.000395079463487491 0.9974117875099182 0.07189943641424179
vn -0.00001604611134098377 0.993432343006134 0.11442101001739502
vn -1.1357029094938298e-8 1 -3.7787888373941314e-8
vn -0.00221966952085495 0.9941037893295288 0.1084098070859909
vn -0.0008622599998489022 0.9993690252304077 0.035507798194885254
vn -5.540380954016655e-8 1 -2.1606078703939602e-8
vn -0.00033228276879526675 0.9985748529434204 0.053368233144283295
vn -5.154359428161115e-8 1 -3.765564571267532e-8
vn 2.0979351589289763e-8 1 -3.049257557563578e-8
vn 0.00022052833810448647 0.9972353577613831 0.07430718094110489
vn -0.0019645169377326965 0.9941592216491699 0.10790533572435379
vn -0.00043118177563883364 0.9938406944274902 0.11081736534833908
vn -0.0930740162730217 0.9938662648200989 0.05972493812441826
vn -0.04106729105114937 0.9986782073974609 0.03090890310704708
vn -0.09018586575984955 0.9941972494125366 -0.058637622743844986
vn -0.20798999071121216 0.9781309366226196 0.00009881707956083119
vn -0.1217578873038292 0.9925598502159119 -0.00012990523828193545
vn -0.03720901906490326 0.9989383220672607 -0.02716153860092163
vn -0.0004554039624053985 0.9983335137367249 -0.057705849409103394
vn 0.0015739724040031433 0.9928300380706787 -0.11952407658100128
vn 0.00007054206798784435 0.9982876777648926 -0.05849551409482956
vn -0.001337957102805376 0.9932565689086914 -0.11592936515808105
vn -0.0002391784219071269 0.9965882301330566 -0.08253408968448639
vn 0.0021242257207632065 0.992772102355957 -0.11999596655368805
vn -5.540380954016655e-8 1 -2.1606078703939602e-8
vn -0.0008622599998489022 0.9993690252304077 0.035507798194885254
vn -5.154359428161115e-8 1 -3.765564571267532e-8
vt 0.14438235759735107 0.8703295588493347
vt 0 0.8703295588493347
vt 0 0.9951691031455994
vt 0 0.4363323450088501
vt 0 0.8680803775787354
vt 0.12118172645568848 0.8682671785354614
vt 0.09617507457733154 0.4367326498031616
vt 0 0
vt 0.14173489809036255 0.062433481216430664
vt 1 0.0623360276222229
vt 1 0
vt 1 0.44049471616744995
vt 1 0.869621992111206
vt 0 0
vt 0.16235733032226562 0.07120728492736816
vt 0.11609867960214615 0.4359661340713501
vt 0 0.43562233448028564
vt 1 0.4385838508605957
vt 0 0.8665434122085571
vt 0.14495281875133514 0.8665928244590759
vt 1 0.8668842315673828
vt 0.14438235759735107 0.8671391606330872
vt 1 0.8689133524894714
vt 1 0.4394502639770508
vt 0.1436760425567627 0.4376746416091919
vt 0 0.8668398261070251
vt 0 0.4373767375946045
vt 0 0
vt 0.12964791059494019 0.056973814964294434
vt 0 0
vt 1 0
vt 1 0.05676424503326416
vt 0.15078361332416534 0.0661960244178772
vt 0.10906259715557098 0.43633776903152466
vt 0 0.4360102415084839
vt 0.13434256613254547 0.8684858679771423
vt 0 0.8684858679771423
vt 0.12118172645568848 0.9951691031455994
vt 0 0.9951691031455994
vt 1 0.9951691031455994
vt 0.14495281875133514 0.9951691031455994
vt 1 0.8703295588493347
g Geoset0
s 1
usemtl mat_deadminesrug02
f 1/1/1 2/2/2 3/3/3
f 4/4/4 5/5/5 6/6/6
f 6/6/6 7/7/7 4/4/4
f 8/8/8 7/7/7 9/9/9
f 8/8/8 4/4/4 7/7/7
f 10/10/10 11/11/11 8/8/8
f 9/9/9 10/10/10 8/8/8
f 12/12/12 10/10/10 9/9/9
f 9/9/9 7/7/7 12/12/12
f 13/13/13 12/12/12 7/7/7
f 7/7/7 6/6/6 13/13/13
f 14/14/14 10/10/10 15/15/15
f 10/10/10 14/14/14 11/11/11
f 14/14/14 16/16/16 17/17/17
f 14/14/14 15/15/15 16/16/16
f 15/15/15 18/18/18 16/16/16
f 15/15/15 10/10/10 18/18/18
f 19/19/19 17/17/17 16/16/16
f 16/16/16 20/20/20 19/19/19
f 20/20/20 16/16/16 18/18/18
f 18/18/18 21/21/21 20/20/20
f 22/22/22 23/23/23 24/24/24
f 25/25/25 22/22/22 24/24/24
f 22/22/22 25/25/25 26/26/26
f 25/25/25 27/27/27 26/26/26
f 25/25/25 28/28/28 27/27/27
f 28/28/28 25/25/25 29/29/29
f 30/30/30 31/31/31 32/32/32
f 28/28/28 32/32/32 31/31/31
f 28/28/28 29/29/29 32/32/32
f 29/29/29 25/25/25 24/24/24
f 29/29/29 24/24/24 32/32/32
f 32/32/32 24/24/24 33/33/33
f 32/32/32 33/33/33 30/30/30
f 34/34/34 30/30/30 33/33/33
f 34/34/34 35/35/35 30/30/30
f 34/34/34 36/36/36 35/35/35
f 36/36/36 37/37/37 35/35/35
f 36/36/36 38/38/38 37/37/37
f 38/38/38 39/39/39 37/37/37
f 38/38/38 36/36/36 40/40/40
f 36/36/36 23/23/23 40/40/40
f 36/36/36 34/34/34 23/23/23
f 34/34/34 24/24/24 23/23/23
f 34/34/34 33/33/33 24/24/24
f 41/41/41 40/40/40 42/42/42
f 1/1/1 41/41/41 42/42/42
f 41/41/41 1/1/1 3/3/3