# Exported using wow.export v0.1.49
o 
mtllib armorleatherbracerbrown.mtl
v -0.07090809941291809 0 0.040938600897789
v 0 0.20992399752140045 0.09579669684171677
v -0.08296220004558563 0.20992399752140045 0.047898098826408386
v 0 0 0.08187749981880188
v 0.08296220004558563 0.20992399752140045 0.047898098826408386
v 0.07090809941291809 0 0.040938600897789
v 0.08296220004558563 0.20992399752140045 -0.047898098826408386
v 0.07090809941291809 0 -0.040938600897789
v 0 0.20992399752140045 -0.09579669684171677
v 0 0 -0.08187749981880188
v -0.08296220004558563 0.20992399752140045 -0.047898098826408386
v -0.07090809941291809 0 -0.040938600897789
vn -0.7543320059776306 -0.06497350335121155 0.6532700061798096
vn -0.18858300149440765 -0.06497350335121155 0.9799060225486755
vn -0.9429140090942383 -0.06497350335121155 0.3266350030899048
vn 0.18858300149440765 -0.06497350335121155 0.9799060225486755
vn 0.7543320059776306 -0.06497350335121155 0.6532700061798096
vn 0.9429150223731995 -0.06497350335121155 0.3266350030899048
vn 0.9429140090942383 -0.06497350335121155 -0.3266350030899048
vn 0.7543320059776306 -0.06497350335121155 -0.6532700061798096
vn 0.18858300149440765 -0.06497339904308319 -0.9799060225486755
vn -0.18858300149440765 -0.06497339904308319 -0.9799060225486755
vn -0.7543320059776306 -0.06497339904308319 -0.6532700061798096
vn -0.9429150223731995 -0.06497339904308319 -0.3266350030899048
vt 0.09525889903306961 0.5005509853363037
vt 0.12465299665927887 0.624779999256134
vt 0.09525889903306961 0.624779999256134
vt 0.12465299665927887 0.5005509853363037
vt 0.09525889903306961 0.624779999256134
vt 0.09525889903306961 0.5005509853363037
vt 0.033144399523735046 0.624779999256134
vt 0.033144399523735046 0.5005509853363037
vt 0.0004242770082782954 0.624779999256134
vt 0.0004242770082782954 0.5005509853363037
vt 0.033144399523735046 0.624779999256134
vt 0.033144399523735046 0.5005509853363037
g Geoset0
s 1
usemtl mat_leatherandbootshuman
f 1/1/1 2/2/2 3/3/3
f 4/4/4 5/5/5 2/2/2
f 1/1/1 4/4/4 2/2/2
f 4/4/4 6/6/6 5/5/5
f 6/6/6 7/7/7 5/5/5
f 6/6/6 8/8/8 7/7/7
f 8/8/8 9/9/9 7/7/7
f 8/8/8 10/10/10 9/9/9
f 10/10/10 11/11/11 9/9/9
f 10/10/10 12/12/12 11/11/11
f 12/12/12 3/3/3 11/11/11
f 12/12/12 1/1/1 3/3/3