# Exported using wow.export v0.1.49
o 
mtllib armorleathershirtblack.mtl
v -0.07921189814805984 0.3029249906539917 0.004496669862419367
v 0.005934999790042639 0.32558301091194153 -0.11740600317716599
v -0.012146900407969952 0.3145639896392822 -0.2480510026216507
v -0.004668610170483589 -0.2842170000076294 -0.22948099672794342
v -0.12512299418449402 -0.2836030125617981 -0.00022222200641408563
v -0.014367500320076942 0.03789810091257095 -0.29717499017715454
v 0.11977899819612503 -0.043789200484752655 -0.18954700231552124
v 0.07899170368909836 0.19485299289226532 -0.25927600264549255
v 0.05672390013933182 0.28799399733543396 0.002608329989016056
v 0.005934999790042639 0.32558301091194153 -0.11740600317716599
v 0.13060499727725983 -0.2839750051498413 -0.011621899902820587
v 0.15048299729824066 0.0009250000002793968 -0.0018277800409123302
v 0.12338200211524963 0.17636600136756897 0.0006972220144234598
v -0.009146389551460743 -0.2833389937877655 0.21850299835205078
v 0.12165399640798569 -0.048045601695775986 0.18557099997997284
v 0.08196140080690384 0.18811100721359253 0.26192399859428406
v -0.009176939725875854 0.30782198905944824 0.255499005317688
v 0.00714528001844883 0.32283899188041687 0.12471599876880646
v -0.011390799656510353 0.03113969974219799 0.2984029948711395
v -0.13600899279117584 0.1469379961490631 0.003443890018388629
v -0.1084979996085167 0.2137099951505661 -0.2570109963417053
v 0.00714528001844883 0.32283899188041687 0.12471599876880646
v -0.10552699863910675 0.20696799457073212 0.2641899883747101
vn -0.7027720212936401 0.7112770080566406 0.014009599573910236
vn 0.306537002325058 0.9440000057220459 -0.12206099927425385
vn 0.1943189948797226 0.9657179713249207 -0.17212800681591034
vn 0.24912400543689728 -0.31505998969078064 -0.9157919883728027
vn -0.9966729879379272 -0.0814007967710495 0.004135239869356155
vn -0.4882330000400543 -0.26984500885009766 -0.8299469947814941
vn 0.8389189839363098 -0.1247820034623146 -0.5297589898109436
vn 0.9106919765472412 0.27285000681877136 -0.31015199422836304
vn 0.8225510120391846 0.568684995174408 0.0027166400104761124
vn 0.306537002325058 0.9440000057220459 -0.12206099927425385
vn 0.9732180237770081 -0.2297540009021759 -0.007730789948254824
vn 0.9978690147399902 0.06506180018186569 -0.004900319967418909
vn 0.9406239986419678 0.33945000171661377 -0.0010545400436967611
vn 0.2458290010690689 -0.35884401202201843 0.900443971157074
vn 0.8425670266151428 -0.15116100013256073 0.5169439911842346
vn 0.9147109985351562 0.26457300782203674 0.30545899271965027
vn 0.19553300738334656 0.9607570171356201 0.19675299525260925
vn 0.30578601360321045 0.9408109784126282 0.14618399739265442
vn -0.4799030125141144 -0.2942509949207306 0.8265039920806885
vn -0.9991809725761414 -0.04007070139050484 0.005608490202575922
vn -0.962788999080658 0.23065400123596191 -0.14083899557590485
vn 0.30578601360321045 0.9408109784126282 0.14618399739265442
vn -0.9607369899749756 0.22773900628089905 0.15848900377750397
vt 0.9929360151290894 0.9604778997600079
vt 0.9587410092353821 0.9884299002587795
vt 0.8783599734306335 0.9900323199108243
vt 0.8760070204734802 0.7509119957685471
vt 0.9929360151290894 0.7508659958839417
vt 0.8760679960250854 0.8706350028514862
vt 0.8377569913864136 0.8333619982004166
vt 0.8789259791374207 0.925255298614502
vt 0.7529069781303406 0.9460668005049229
vt 0.8184769749641418 0.9900075197219849
vt 0.7529069781303406 0.7509140074253082
vt 0.7529069781303406 0.8528800010681152
vt 0.7529069781303406 0.9086548015475273
vt 0.8760070204734802 0.7509119957685471
vt 0.8377469778060913 0.8333629965782166
vt 0.8789259791374207 0.9252554029226303
vt 0.8783599734306335 0.9900323199108243
vt 0.8184260129928589 0.9900075197219849
vt 0.8760679960250854 0.8706350028514862
vt 0.9929360151290894 0.8982530012726784
vt 0.8789269924163818 0.9253662973642349
vt 0.9586510062217712 0.9884299002587795
vt 0.8789269924163818 0.9253662973642349
g Geoset0
s 1
usemtl mat_leatherandbootshuman
f 1/1/1 2/2/2 3/3/3
f 4/4/4 5/5/5 6/6/6
f 4/4/4 6/6/6 7/7/7
f 8/8/8 7/7/7 6/6/6
f 9/9/9 3/3/3 10/10/10
f 11/11/11 4/4/4 7/7/7
f 11/11/11 7/7/7 12/12/12
f 8/8/8 12/12/12 7/7/7
f 8/8/8 13/13/13 12/12/12
f 14/14/14 11/11/11 15/15/15
f 15/15/15 11/11/11 12/12/12
f 12/12/12 16/16/16 15/15/15
f 13/13/13 16/16/16 12/12/12
f 16/16/16 13/13/13 9/9/9
f 13/13/13 8/8/8 9/9/9
f 9/9/9 8/8/8 3/3/3
f 17/17/17 16/16/16 9/9/9
f 18/18/18 17/17/17 9/9/9
f 15/15/15 16/16/16 19/19/19
f 19/19/19 14/14/14 15/15/15
f 5/5/5 14/14/14 19/19/19
f 20/20/20 5/5/5 19/19/19
f 5/5/5 20/20/20 6/6/6
f 20/20/20 21/21/21 6/6/6
f 1/1/1 17/17/17 22/22/22
f 1/1/1 23/23/23 17/17/17
f 23/23/23 20/20/20 19/19/19
f 20/20/20 23/23/23 1/1/1
f 20/20/20 1/1/1 21/21/21
f 21/21/21 1/1/1 3/3/3