# Exported using wow.export v0.1.49
o 
mtllib armorleatherhelmbrown.mtl
v 0.2518790066242218 1.0853099822998047 2.8536500930786133
v 0.2518790066242218 1.0853099822998047 2.789220094680786
v 0.2272460013628006 1.189869999885559 2.800189971923828
v 0.1445779949426651 0.9814609885215759 2.9697699546813965
v 0.12155400216579437 1.059790015220642 2.9546799659729004
v -0.0115922000259161 0.9816420078277588 2.972860097885132
v -0.009679170325398445 1.048550009727478 2.951849937438965
v -0.08087439835071564 0.9818940162658691 2.927180051803589
v -0.008072219789028168 1.1158900260925293 2.9474799633026123
v 0.12329400330781937 1.1439900398254395 2.951620101928711
v -0.008072219789028168 1.1158900260925293 2.6957600116729736
v 0.12329400330781937 1.1439900398254395 2.691620111465454
v 0.12155299633741379 1.061020016670227 2.683350086212158
v -0.009628609754145145 1.0491900444030762 2.6863200664520264
v -0.0788969025015831 1.1053099632263184 2.732919931411743
v -0.0788969025015831 1.1053099632263184 2.9103200435638428
v -0.10864599794149399 1.1091200113296509 2.821619987487793
v -0.1190050020813942 0.9857000112533569 2.821619987487793
v -0.08087439835071564 0.9818940162658691 2.7160799503326416
v -0.011266699992120266 0.9795420169830322 2.662529945373535
v 0.1448570042848587 0.9798889756202698 2.666069984436035
v 0.17477700114250183 1.2618800401687622 2.734410047531128
v 0.21071800589561462 1.2804399728775024 2.821619987487793
v 0.2059909999370575 1.1750500202178955 2.730149984359741
v 0.1547829955816269 1.3237299919128418 2.821619987487793
v 0.013120300136506557 1.3015199899673462 2.7364699840545654
v 0.04363059997558594 1.3367300033569336 2.821619987487793
v -0.05871419981122017 1.3029899597167969 2.821619987487793
v 0.013120300136506557 1.3015199899673462 2.9067699909210205
v -0.06928969919681549 1.2122600078582764 2.9228899478912354
v 0.04535669833421707 1.209149956703186 2.9440300464630127
v -0.008072219789028168 1.1158900260925293 2.9474799633026123
v 0.12329400330781937 1.1439900398254395 2.951620101928711
v 0.17477700114250183 1.2618800401687622 2.908829927444458
v 0.2059909999370575 1.1750500202178955 2.913100004196167
v 0.24046699702739716 1.1812100410461426 2.821619987487793
v -0.11322099715471268 1.216920018196106 2.821619987487793
v -0.10864599794149399 1.1091200113296509 2.821619987487793
v -0.0788969025015831 1.1053099632263184 2.9103200435638428
v -0.0788969025015831 1.1053099632263184 2.732919931411743
v -0.06928969919681549 1.2122600078582764 2.7203500270843506
v -0.008072219789028168 1.1158900260925293 2.6957600116729736
v 0.04535669833421707 1.209149956703186 2.6992099285125732
v 0.12329400330781937 1.1439900398254395 2.691620111465454
v 0.2272460013628006 1.189869999885559 2.8426899909973145
vn 0.9733560085296631 0.22929799556732178 -4.836380185224698e-9
vn 0.9733560085296631 0.22929799556732178 -4.836380185224698e-9
vn 0.9733560085296631 0.22929799556732178 -4.836380185224698e-9
vn 0.019639700651168823 0.19465099275112152 0.980675995349884
vn -0.023434100672602654 0.15033100545406342 0.9883580207824707
vn -0.19210000336170197 0.26341500878334045 0.9453619718551636
vn -0.3107739984989166 0.1715719997882843 0.9348700046539307
vn -0.7615860104560852 0.14311599731445312 0.6320629715919495
vn -0.2070070058107376 0.05227949842810631 0.9769420027732849
vn 0.10710500180721283 0.14179599285125732 0.9840850234031677
vn -0.21151800453662872 0.08714830130338669 -0.9734809994697571
vn 0.10362199693918228 0.15774400532245636 -0.9820280075073242
vn -0.029322799295186996 0.1956299990415573 -0.9802389740943909
vn -0.33613699674606323 0.20715999603271484 -0.9187470078468323
vn -0.7892739772796631 0.05093120038509369 -0.6119250059127808
vn -0.7478460073471069 0.03369849920272827 0.6630160212516785
vn -0.9969919919967651 0.028759999200701714 0.07197079807519913
vn -0.9906610250473022 0.07713290303945541 -0.11243300139904022
vn -0.7020210027694702 0.1626030057668686 -0.6933450102806091
vn -0.2120009958744049 0.2830899953842163 -0.9353690147399902
vn 0.021633600816130638 0.21422399580478668 -0.976544976234436
vn 0.40606701374053955 0.5046250224113464 -0.7618809938430786
vn 0.8675429821014404 0.49736300110816956 -9.608469753175086e-8
vn 0.7498180270195007 0.2738800048828125 -0.6022970080375671
vn 0.3321560025215149 0.9432240128517151 -8.746309987373024e-8
vn -0.12323199957609177 0.7394629716873169 -0.6618220210075378
vn -0.10690800100564957 0.9942690134048462 -2.6370200245651176e-8
vn -0.6334940195083618 0.7737470269203186 -2.1208000688943685e-8
vn -0.12323199957609177 0.7394629716873169 0.6618220210075378
vn -0.5781980156898499 0.2922540009021759 0.761758029460907
vn -0.031504999846220016 0.24382300674915314 0.9693080186843872
vn -0.2070070058107376 0.05227949842810631 0.9769420027732849
vn 0.10710500180721283 0.14179599285125732 0.9840850234031677
vn 0.40606701374053955 0.5046259760856628 0.7618809938430786
vn 0.7498180270195007 0.2738800048828125 0.6022970080375671
vn 0.957876980304718 0.28718000650405884 -5.421119908533001e-8
vn -0.9831140041351318 0.18299199640750885 -1.1581599679288956e-8
vn -0.9969919919967651 0.028759999200701714 0.07197079807519913
vn -0.7478460073471069 0.03369849920272827 0.6630160212516785
vn -0.7892739772796631 0.05093120038509369 -0.6119250059127808
vn -0.5781980156898499 0.2922540009021759 -0.761758029460907
vn -0.21151800453662872 0.08714830130338669 -0.9734809994697571
vn -0.031504999846220016 0.24382300674915314 -0.9693080186843872
vn 0.10362199693918228 0.15774400532245636 -0.9820280075073242
vn 0.9733560085296631 0.22929799556732178 -4.836380185224698e-9
vt 0.5868160128593445 0.25097501277923584
vt 0.5396180152893066 0.25097501277923584
vt 0.540024995803833 0.37901902198791504
vt 0.5964069962501526 0.25436198711395264
vt 0.596593976020813 0.3281159996986389
vt 0.6864539980888367 0.254364013671875
vt 0.6863489747047424 0.32810699939727783
vt 0.7203419804573059 0.25436800718307495
vt 0.6862620115280151 0.37967997789382935
vt 0.5965790152549744 0.37978601455688477
vt 0.6862620115280151 0.37967997789382935
vt 0.5965790152549744 0.37978601455688477
vt 0.596593976020813 0.3281170129776001
vt 0.6863470077514648 0.32810699939727783
vt 0.7202280163764954 0.37963902950286865
vt 0.7202280163764954 0.37963902950286865
vt 0.7440710067749023 0.3796539902687073
vt 0.7441790103912354 0.2544209957122803
vt 0.7203419804573059 0.25436800718307495
vt 0.6864359974861145 0.2543349862098694
vt 0.5964040160179138 0.2543399930000305
vt 0.5555030107498169 0.4465550184249878
vt 0.5042979717254639 0.45057201385498047
vt 0.5515639781951904 0.3833490014076233
vt 0.5042979717254639 0.4946590065956116
vt 0.6358000040054321 0.4826059937477112
vt 0.6051579713821411 0.4946590065956116
vt 0.7445690035820007 0.4946590065956116
vt 0.6358000040054321 0.4826059937477112
vt 0.6854860186576843 0.4465550184249878
vt 0.6539750099182129 0.44253700971603394
vt 0.6736699938774109 0.3833490014076233
vt 0.5988309979438782 0.3833490014076233
vt 0.5555030107498169 0.4465550184249878
vt 0.5515639781951904 0.3833490014076233
vt 0.5042979717254639 0.3833490014076233
vt 0.7445690035820007 0.4586079716682434
vt 0.7445690035820007 0.3833490014076233
vt 0.7209360003471375 0.3833490014076233
vt 0.7209360003471375 0.3833490014076233
vt 0.6854860186576843 0.4465550184249878
vt 0.6736699938774109 0.3833490014076233
vt 0.6539750099182129 0.44253700971603394
vt 0.5988309979438782 0.3833490014076233
vt 0.5864080190658569 0.37901902198791504
g Geoset0
s 1
usemtl mat_leatherandbootshuman
f 1/1/1 2/2/2 3/3/3
f 4/4/4 5/5/5 6/6/6
f 7/7/7 6/6/6 5/5/5
f 8/8/8 6/6/6 7/7/7
f 9/9/9 5/5/5 10/10/10
f 7/7/7 5/5/5 9/9/9
f 11/11/11 12/12/12 13/13/13
f 14/14/14 11/11/11 13/13/13
f 15/15/15 11/11/11 14/14/14
f 7/7/7 9/9/9 16/16/16
f 7/7/7 16/16/16 8/8/8
f 8/8/8 16/16/16 17/17/17
f 8/8/8 17/17/17 18/18/18
f 18/18/18 17/17/17 15/15/15
f 18/18/18 15/15/15 19/19/19
f 14/14/14 19/19/19 15/15/15
f 14/14/14 20/20/20 19/19/19
f 14/14/14 13/13/13 20/20/20
f 21/21/21 20/20/20 13/13/13
f 22/22/22 23/23/23 24/24/24
f 22/22/22 25/25/25 23/23/23
f 22/22/22 26/26/26 25/25/25
f 25/25/25 26/26/26 27/27/27
f 27/27/27 26/26/26 28/28/28
f 27/27/27 28/28/28 29/29/29
f 30/30/30 29/29/29 28/28/28
f 31/31/31 29/29/29 30/30/30
f 31/31/31 30/30/30 32/32/32
f 33/33/33 31/31/31 32/32/32
f 34/34/34 33/33/33 35/35/35
f 33/33/33 34/34/34 31/31/31
f 34/34/34 29/29/29 31/31/31
f 23/23/23 35/35/35 36/36/36
f 34/34/34 35/35/35 23/23/23
f 34/34/34 23/23/23 25/25/25
f 34/34/34 25/25/25 29/29/29
f 25/25/25 27/27/27 29/29/29
f 23/23/23 36/36/36 24/24/24
f 37/37/37 38/38/38 39/39/39
f 37/37/37 40/40/40 38/38/38
f 37/37/37 41/41/41 40/40/40
f 42/42/42 40/40/40 41/41/41
f 43/43/43 42/42/42 41/41/41
f 44/44/44 42/42/42 43/43/43
f 22/22/22 24/24/24 44/44/44
f 44/44/44 43/43/43 22/22/22
f 22/22/22 43/43/43 26/26/26
f 43/43/43 41/41/41 26/26/26
f 41/41/41 28/28/28 26/26/26
f 28/28/28 41/41/41 37/37/37
f 28/28/28 37/37/37 30/30/30
f 37/37/37 39/39/39 30/30/30
f 32/32/32 30/30/30 39/39/39
f 3/3/3 45/45/45 1/1/1