# Exported using wow.export v0.1.49
o 
mtllib armorleatherbracerblack.mtl
v -0.06913500279188156 0 0.03991499915719032
v 0 0.20992399752140045 0.09579669684171677
v -0.08296220004558563 0.20992399752140045 0.047898098826408386
v 0 0 0.079830601811409
v 0.08296220004558563 0.20992399752140045 0.047898098826408386
v 0.06913530081510544 0 0.03991499915719032
v 0.08296220004558563 0.20992399752140045 -0.047898098826408386
v 0.06913500279188156 0 -0.03991499915719032
v 0 0.20992399752140045 -0.09579669684171677
v 0 0 -0.079830601811409
v -0.08296220004558563 0.20992399752140045 -0.047898098826408386
v -0.06913530081510544 0 -0.03991499915719032
vn -0.7538290023803711 -0.07447879761457443 0.6528360247612
vn -0.18845699727535248 -0.07447879761457443 0.9792529940605164
vn -0.942287027835846 -0.07447879761457443 0.3264180123806
vn 0.18845699727535248 -0.07447879761457443 0.9792529940605164
vn 0.7538290023803711 -0.07447890192270279 0.6528350114822388
vn 0.942287027835846 -0.07447890192270279 0.3264180123806
vn 0.942287027835846 -0.07447879761457443 -0.3264180123806
vn 0.7538290023803711 -0.07447879761457443 -0.6528360247612
vn 0.18845699727535248 -0.07447879761457443 -0.9792529940605164
vn -0.18845799565315247 -0.07447879761457443 -0.9792529940605164
vn -0.7538300156593323 -0.07447879761457443 -0.6528350114822388
vn -0.942287027835846 -0.07447870075702667 -0.3264180123806
vt 0.21248599886894226 0.5005509853363037
vt 0.24974800646305084 0.624779999256134
vt 0.21248599886894226 0.624779999256134
vt 0.24974800646305084 0.5005509853363037
vt 0.21248599886894226 0.624779999256134
vt 0.21248599886894226 0.5005509853363037
vt 0.16610699892044067 0.624779999256134
vt 0.16610699892044067 0.5005509853363037
vt 0.1255190074443817 0.624779999256134
vt 0.1255190074443817 0.5005509853363037
vt 0.16610699892044067 0.624779999256134
vt 0.16610699892044067 0.5005509853363037
g Geoset0
s 1
usemtl mat_leatherandbootshuman
f 1/1/1 2/2/2 3/3/3
f 4/4/4 5/5/5 2/2/2
f 1/1/1 4/4/4 2/2/2
f 4/4/4 6/6/6 5/5/5
f 6/6/6 7/7/7 5/5/5
f 6/6/6 8/8/8 7/7/7
f 8/8/8 9/9/9 7/7/7
f 8/8/8 10/10/10 9/9/9
f 10/10/10 11/11/11 9/9/9
f 10/10/10 12/12/12 11/11/11
f 12/12/12 3/3/3 11/11/11
f 12/12/12 1/1/1 3/3/3