# Exported using wow.export v0.1.49
o 
mtllib armorleatherhelmblack.mtl
v -0.126569002866745 0.0750930979847908 0
v -0.1219940036535263 -0.03270469978451729 0
v -0.0922446995973587 -0.036512501537799835 0.08869720250368118
v 0.13122999668121338 -0.16036100685596466 0.14814800024032593
v 0.10820599645376205 -0.08203420042991638 0.13306200504302979
v -0.024940000846982002 -0.16018100082874298 0.1512400060892105
v -0.023026900365948677 -0.09327249974012375 0.13023099303245544
v -0.09422220289707184 -0.1599310040473938 0.10554999858140945
v -0.02142000012099743 -0.025939399376511574 -0.12586000561714172
v 0.10994599759578705 0.002166670048609376 -0.12999799847602844
v 0.10820599645376205 -0.0808086022734642 -0.13827399909496307
v -0.0229761004447937 -0.09263080358505249 -0.13530400395393372
v -0.0922446995973587 -0.036512501537799835 -0.08869720250368118
v 0.13151000440120697 -0.16193799674510956 -0.15555499494075775
v -0.024614399299025536 -0.16228100657463074 -0.15908999741077423
v -0.09422220289707184 -0.1599310040473938 -0.10554999858140945
v -0.13235299289226532 -0.15612299740314484 0
v -0.1219940036535263 -0.03270469978451729 0
v -0.0922446995973587 -0.036512501537799835 0.08869720250368118
v -0.02142000012099743 -0.025939399376511574 0.12586000561714172
v 0.10994599759578705 0.002166670048609376 0.12999799847602844
v -0.0922446995973587 -0.036512501537799835 -0.08869720250368118
v -0.0826374962925911 0.07043779641389847 -0.10127200186252594
v -0.02142000012099743 -0.025939399376511574 -0.12586000561714172
v 0.032009199261665344 0.06733079999685287 -0.12241300195455551
v 0.10994599759578705 0.002166670048609376 -0.12999799847602844
v 0.1614300012588501 0.12005099654197693 -0.08720999956130981
v 0.19264300167560577 0.033226098865270615 -0.09147530049085617
v 0.19736899435520172 0.13861900568008423 0
v 0.22711899876594543 0.03939079865813255 0
v 0.19264300167560577 0.033226098865270615 0.09147530049085617
v 0.1614300012588501 0.12005099654197693 0.08720999956130981
v 0.10994599759578705 0.002166670048609376 0.12999799847602844
v 0.14143499732017517 0.18190599977970123 0
v -0.00022222200641408563 0.1596989929676056 -0.08514609932899475
v 0.032009199261665344 0.06733079999685287 0.12241300195455551
v -0.02142000012099743 -0.025939399376511574 0.12586000561714172
v -0.00022222200641408563 0.1596989929676056 0.08514609932899475
v 0.030282799154520035 0.19490399956703186 0
v -0.07206189632415771 0.16116400063037872 0
v -0.0826374962925911 0.07043779641389847 0.10127200186252594
vn -0.9831140041351318 0.18299199640750885 -1.1581599679288956e-8
vn -0.9969919919967651 0.028759999200701714 0.07197079807519913
vn -0.7478460073471069 0.03369849920272827 0.6630160212516785
vn 0.019639700651168823 0.19465099275112152 0.980675995349884
vn -0.023434100672602654 0.15033100545406342 0.9883580207824707
vn -0.19210000336170197 0.26341500878334045 0.9453619718551636
vn -0.3107739984989166 0.1715719997882843 0.9348700046539307
vn -0.7615860104560852 0.14311599731445312 0.6320629715919495
vn -0.21151800453662872 0.08714830130338669 -0.9734809994697571
vn 0.10362199693918228 0.15774400532245636 -0.9820280075073242
vn -0.029322799295186996 0.1956299990415573 -0.9802389740943909
vn -0.33613699674606323 0.20715999603271484 -0.9187470078468323
vn -0.7892739772796631 0.05093120038509369 -0.6119250059127808
vn 0.021633600816130638 0.21422399580478668 -0.976544976234436
vn -0.2120009958744049 0.2830899953842163 -0.9353690147399902
vn -0.7020210027694702 0.1626030057668686 -0.6933450102806091
vn -0.9906610250473022 0.07713290303945541 -0.11243300139904022
vn -0.9969919919967651 0.028759999200701714 0.07197079807519913
vn -0.7478460073471069 0.03369849920272827 0.6630160212516785
vn -0.2070070058107376 0.05227949842810631 0.9769420027732849
vn 0.10710500180721283 0.14179599285125732 0.9840850234031677
vn -0.7892739772796631 0.05093120038509369 -0.6119250059127808
vn -0.5781980156898499 0.2922540009021759 -0.761758029460907
vn -0.21151800453662872 0.08714830130338669 -0.9734809994697571
vn -0.031504999846220016 0.24382300674915314 -0.9693080186843872
vn 0.10362199693918228 0.15774400532245636 -0.9820280075073242
vn 0.40606701374053955 0.5046250224113464 -0.7618809938430786
vn 0.7498180270195007 0.2738800048828125 -0.6022970080375671
vn 0.8675429821014404 0.49736300110816956 -9.608469753175086e-8
vn 0.957876980304718 0.28718000650405884 -5.421119908533001e-8
vn 0.7498180270195007 0.2738800048828125 0.6022970080375671
vn 0.40606701374053955 0.5046259760856628 0.7618809938430786
vn 0.10710500180721283 0.14179599285125732 0.9840850234031677
vn 0.3321560025215149 0.9432240128517151 -8.746309987373024e-8
vn -0.12323199957609177 0.7394629716873169 -0.6618220210075378
vn -0.031504999846220016 0.24382300674915314 0.9693080186843872
vn -0.2070070058107376 0.05227949842810631 0.9769420027732849
vn -0.12323199957609177 0.7394629716873169 0.6618220210075378
vn -0.10690800100564957 0.9942690134048462 -2.6370200245651176e-8
vn -0.6334940195083618 0.7737470269203186 -2.1208000688943685e-8
vn -0.5781980156898499 0.2922540009021759 0.761758029460907
vt 0.7445690035820007 0.2096869945526123
vt 0.7445690035820007 0.1344289779663086
vt 0.7209360003471375 0.1344289779663086
vt 0.750229001045227 0.12871497869491577
vt 0.7504050135612488 0.19824200868606567
vt 0.8113920092582703 0.12871700525283813
vt 0.8112940192222595 0.1982330083847046
vt 0.8473590016365051 0.12872099876403809
vt 0.8112109899520874 0.24685001373291016
vt 0.7503920197486877 0.24695098400115967
vt 0.7504050135612488 0.19824302196502686
vt 0.811290979385376 0.19823402166366577
vt 0.8472509980201721 0.24681198596954346
vt 0.7502269744873047 0.12869399785995483
vt 0.8113759756088257 0.12869000434875488
vt 0.8473590016365051 0.12872099876403809
vt 0.869828999042511 0.12877100706100464
vt 0.8697280287742615 0.24682599306106567
vt 0.8472509980201721 0.24681198596954346
vt 0.8112109899520874 0.24685001373291016
vt 0.7503920197486877 0.24695098400115967
vt 0.7209360003471375 0.1344289779663086
vt 0.6854860186576843 0.19763398170471191
vt 0.6736699938774109 0.1344289779663086
vt 0.6539750099182129 0.19361597299575806
vt 0.5988309979438782 0.1344289779663086
vt 0.5555030107498169 0.19763398170471191
vt 0.5515639781951904 0.1344289779663086
vt 0.5042979717254639 0.2016509771347046
vt 0.5042979717254639 0.1344289779663086
vt 0.5515639781951904 0.1344289779663086
vt 0.5555030107498169 0.19763398170471191
vt 0.5988309979438782 0.1344289779663086
vt 0.5042979717254639 0.24573802947998047
vt 0.6358000040054321 0.23368501663208008
vt 0.6539750099182129 0.19361597299575806
vt 0.6736699938774109 0.1344289779663086
vt 0.6358000040054321 0.23368501663208008
vt 0.6051579713821411 0.24573802947998047
vt 0.7445690035820007 0.24573802947998047
vt 0.6854860186576843 0.19763398170471191
g Geoset0
s 1
usemtl mat_leatherandbootshuman
f 1/1/1 2/2/2 3/3/3
f 4/4/4 5/5/5 6/6/6
f 7/7/7 6/6/6 5/5/5
f 8/8/8 6/6/6 7/7/7
f 9/9/9 10/10/10 11/11/11
f 12/12/12 9/9/9 11/11/11
f 13/13/13 9/9/9 12/12/12
f 14/14/14 15/15/15 11/11/11
f 12/12/12 11/11/11 15/15/15
f 12/12/12 15/15/15 16/16/16
f 12/12/12 16/16/16 13/13/13
f 17/17/17 13/13/13 16/16/16
f 17/17/17 18/18/18 13/13/13
f 8/8/8 18/18/18 17/17/17
f 8/8/8 19/19/19 18/18/18
f 7/7/7 19/19/19 8/8/8
f 7/7/7 20/20/20 19/19/19
f 7/7/7 5/5/5 20/20/20
f 20/20/20 5/5/5 21/21/21
f 1/1/1 22/22/22 2/2/2
f 1/1/1 23/23/23 22/22/22
f 24/24/24 22/22/22 23/23/23
f 25/25/25 24/24/24 23/23/23
f 26/26/26 24/24/24 25/25/25
f 26/26/26 25/25/25 27/27/27
f 27/27/27 28/28/28 26/26/26
f 27/27/27 29/29/29 28/28/28
f 29/29/29 30/30/30 28/28/28
f 29/29/29 31/31/31 30/30/30
f 32/32/32 33/33/33 31/31/31
f 32/32/32 31/31/31 29/29/29
f 32/32/32 29/29/29 34/34/34
f 27/27/27 34/34/34 29/29/29
f 27/27/27 35/35/35 34/34/34
f 27/27/27 25/25/25 35/35/35
f 25/25/25 23/23/23 35/35/35
f 33/33/33 36/36/36 37/37/37
f 33/33/33 32/32/32 36/36/36
f 32/32/32 38/38/38 36/36/36
f 32/32/32 34/34/34 38/38/38
f 34/34/34 39/39/39 38/38/38
f 34/34/34 35/35/35 39/39/39
f 39/39/39 35/35/35 40/40/40
f 23/23/23 40/40/40 35/35/35
f 40/40/40 23/23/23 1/1/1
f 39/39/39 40/40/40 38/38/38
f 41/41/41 38/38/38 40/40/40
f 36/36/36 38/38/38 41/41/41
f 36/36/36 41/41/41 37/37/37
f 37/37/37 41/41/41 3/3/3
f 1/1/1 3/3/3 41/41/41
f 40/40/40 1/1/1 41/41/41