# Exported using wow.export v0.1.49
o 
mtllib ogrewalltorch.mtl
v -0.6246063113212585 2.076965570449829 0.2613544464111328
v -0.5130544304847717 1.9523694515228271 0.183978870511055
v -0.5849037170410156 2.0436511039733887 0.21643686294555664
v -0.4611891210079193 2.269192934036255 -0.09293124824762344
v -0.3889171779155731 2.0467731952667236 0.033128030598163605
v -0.4191504716873169 2.0190696716308594 -0.08399724215269089
v -0.500208854675293 2.282846212387085 -0.1122279018163681
v -0.4611652195453644 2.2860496044158936 -0.0688978061079979
v -0.49513429403305054 2.302523136138916 -0.08191744983196259
v -0.4799451231956482 2.2201733589172363 0.002214528154581785
v -0.5361733436584473 2.1964621543884277 -0.14926353096961975
v -0.7903580665588379 2.1310439109802246 -0.07936685532331467
v -0.8132289052009583 2.0157501697540283 0.0022145267575979233
v -0.8634657263755798 2.1559031009674072 0.01014537364244461
v -0.7702348828315735 2.0505664348602295 -0.14926353096961975
v -0.7135873436927795 2.160348653793335 -0.11994193494319916
v -0.6664382219314575 2.1346187591552734 -0.2120077908039093
v -0.6430700421333313 2.2920162677764893 -0.08781146258115768
v -0.5361733436584473 2.1964621543884277 -0.14926353096961975
v -0.555676281452179 2.3103671073913574 -0.0017970831831917167
v -0.4799451231956482 2.2201733589172363 0.002214528154581785
v -0.6376040577888489 2.3041045665740967 0.08771515637636185
v -0.5361732840538025 2.196462392807007 0.13641659915447235
v -0.7848919630050659 2.143132448196411 0.09615975618362427
v -0.5849037170410156 2.0436511039733887 0.21643686294555664
v -0.7227442860603333 2.3067078590393066 0.12829022109508514
v -0.644281268119812 2.0125350952148438 0.18824459612369537
v -0.3889171779155731 2.0467731952667236 0.033128030598163605
v -0.4191504418849945 2.0190696716308594 0.1502533107995987
v -0.5130544304847717 1.9523694515228271 0.183978870511055
v -0.16166822612285614 1.6286112070083618 0.05024836212396622
v 0.5545171499252319 1.3613255023956299 0.10056722164154053
v -0.12156350165605545 1.6875801086425781 0.07927065342664719
v 0.5343461632728577 1.3199689388275146 0.08324048668146133
v -0.17828018963336945 1.6041855812072754 -0.019817665219306946
v 0.5259910821914673 1.3028384447097778 0.04141003265976906
v -0.08145863562822342 1.7465490102767944 0.05024834722280502
v 0.574688196182251 1.4026823043823242 0.08324048668146133
v -0.5438500642776489 1.9269506931304932 0.16504262387752533
v -0.5953627824783325 1.8576008081436157 0.033128030598163605
v -0.5651295185089111 1.88530433177948 -0.08399724960327148
v -0.4921399652957916 1.9521870613098145 -0.13251212239265442
v -0.4191504716873169 2.0190696716308594 -0.08399724215269089
v -0.16166822612285614 1.6286112070083618 -0.08988367766141891
v -0.12156350165605545 1.6875801086425781 -0.11890595406293869
v -0.08145863562822342 1.7465490102767944 -0.08988367021083832
v -0.06484658271074295 1.7709747552871704 -0.019817665219306946
v 0.5343461632728577 1.3199689388275146 -0.000420417170971632
v 0.5545171499252319 1.3613255023956299 -0.01774715818464756
v 0.574688196182251 1.4026823043823242 -0.000420417170971632
v 0.5830432772636414 1.419812798500061 0.04141003265976906
v -0.6296788454055786 2.0448415279388428 0.26272955536842346
v -0.644281268119812 2.0125350952148438 0.18824459612369537
v -0.5438500642776489 1.9269506931304932 0.16504262387752533
v -0.6463190913200378 2.0638599395751953 0.24698294699192047
v -0.6167053580284119 2.0540239810943604 0.271028995513916
vn 0.4098750650882721 0.820319414138794 0.39884644746780396
vn 0.7222618460655212 0.1478254646062851 0.6756370663642883
vn 0.2812400162220001 0.868348240852356 -0.40850383043289185
vn 0.7539842128753662 0.3998900055885315 -0.5211485624313354
vn 0.9504390954971313 0.305387020111084 0.058346834033727646
vn 0.7080618739128113 0.10306976735591888 -0.6985878944396973
vn 0.2387298196554184 0.4577633738517761 -0.8564232587814331
vn 0.7144370079040527 0.6692944169044495 0.20402148365974426
vn -0.25782832503318787 0.9649884104728699 -0.048186156898736954
vn -0.08886847645044327 0.6352685689926147 0.7671611309051514
vn -0.8051129579544067 0.44311150908470154 -0.3942655324935913
vn -0.7275201678276062 0.4030646085739136 -0.5552057027816772
vn -0.8278427124023438 -0.5526494383811951 0.09620314836502075
vn -0.9576839804649353 0.21137863397598267 0.19534708559513092
vn -0.729393482208252 -0.2364928126335144 -0.6419160962104797
vn -0.7440568208694458 0.5837331414222717 -0.32501548528671265
vn -0.24708156287670135 0.13858701288700104 -0.9590330123901367
vn -0.37183883786201477 0.8120131492614746 -0.44985613226890564
vn 0.47334960103034973 0.4446488618850708 -0.7604127526283264
vn -0.12746375799179077 0.9863114356994629 -0.10460755228996277
vn 0.7273959517478943 0.6291203498840332 0.27404868602752686
vn 0.4362110495567322 0.7599319815635681 0.4818955361843109
vn 0.5462482571601868 0.5514731407165527 0.6304682493209839
vn -0.7585229873657227 0.2699807584285736 0.593087911605835
vn -0.004987198393791914 0.18190515041351318 0.983303427696228
vn -0.13821378350257874 0.7804574966430664 0.609740138053894
vn -0.6446135640144348 -0.33532437682151794 0.6870450973510742
vn 0.7225812077522278 0.6870879530906677 0.0760689228773117
vn 0.58209228515625 0.4105778932571411 0.7018506526947021
vn 0.24884651601314545 -0.08333617448806763 0.9649510383605957
vn -0.296753853559494 -0.6134397387504578 0.7318666577339172
vn -0.08416441828012466 -0.10757008194923401 0.9906286001205444
vn 0.0538649708032608 -0.06667905300855637 0.9963194727897644
vn -0.3430274724960327 -0.7042077779769897 0.6216297745704651
vn -0.4654686748981476 -0.8848952651023865 0.017300505191087723
vn -0.37840983271598816 -0.915485680103302 -0.13671864569187164
vn 0.423127144575119 0.5339901447296143 0.7319958806037903
vn 0.24101343750953674 0.5349187254905701 0.8097990155220032
vn -0.3410625755786896 -0.6328070759773254 0.6951485872268677
vn -0.5445238947868347 -0.8335957527160645 0.09279980510473251
vn -0.3657892346382141 -0.6634007096290588 -0.6527616381645203
vn 0.1229938417673111 -0.14568930864334106 -0.9816552996635437
vn 0.4401015043258667 0.38495177030563354 -0.8112476468086243
vn -0.29978787899017334 -0.6449975967407227 -0.7029262781143188
vn 0.08620211482048035 -0.032504741102457047 -0.9957472681999207
vn 0.43191951513290405 0.5625861287117004 -0.7049413919448853
vn 0.5796154737472534 0.8147223591804504 -0.016534553840756416
vn -0.15171343088150024 -0.5785305500030518 -0.8014271259307861
vn 0.17429094016551971 0.05748790130019188 -0.9830146431922913
vn 0.4281435012817383 0.6580179333686829 -0.6194397211074829
vn 0.46266409754753113 0.875470757484436 0.13961675763130188
vn -0.5681172609329224 -0.4836987555027008 0.6657914519309998
vn -0.956834077835083 -0.2801124155521393 0.0774957686662674
vn -0.18100787699222565 -0.704225480556488 0.6865148544311523
vn -0.8221307396888733 0.5131610631942749 0.24650920927524567
vn -0.10971767455339432 -0.15818096697330475 0.9812954664230347
vt 0.25227150321006775 0.9977594017982483
vt 0.18632623553276062 0.5853859782218933
vt 0.34582778811454773 0.7482559084892273
vt 0.7910594344139099 0.7889061570167542
vt 0.8998193740844727 0.7079896926879883
vt 0.8313196897506714 0.6749254465103149
vt 0.5923364758491516 0.7999085783958435
vt 0.8101810812950134 0.8587985038757324
vt 0.6364637613296509 0.8742659687995911
vt 0.6530715227127075 0.7081792950630188
vt 0.4934796392917633 0.675973117351532
vt 0.2521466910839081 0.9298828840255737
vt 0.038717903196811676 0.8524029850959778
vt 0.01698547601699829 0.9753796458244324
vt 0.16907574236392975 0.8526843786239624
vt 0.4225180745124817 0.9105230569839478
vt 0.49545010924339294 0.8533637523651123
vt 0.805398166179657 0.9560509920120239
vt 0.8107286095619202 0.8278385400772095
vt 0.9669071435928345 0.9249409437179565
vt 0.940369188785553 0.8150176405906677
vt 0.8391441702842712 0.9607175588607788
vt 0.8107287883758545 0.8278385996818542
vt 0.34869465231895447 0.9345494508743286
vt 0.4816116690635681 0.7590110301971436
vt 0.7260638475418091 1.003404140472412
vt 0.26249390840530396 0.7688771486282349
vt 0.9697364568710327 0.682436466217041
vt 0.7457354664802551 0.6814312934875488
vt 0.45270463824272156 0.6909289956092834
vt 0.1368808150291443 0.3441314697265625
vt 0.4497760832309723 0.026957213878631592
vt 0.44933974742889404 0.3443448543548584
vt 0.14060989022254944 0.027057409286499023
vt 0.05074986070394516 0.3464585542678833
vt 0.05565756559371948 0.0295143723487854
vt 0.7366774082183838 0.3445582389831543
vt 0.7401014566421509 0.026857078075408936
vt 0.27174845337867737 0.6917316317558289
vt 0.04079606384038925 0.6804033517837524
vt 0.11793718487024307 0.676577627658844
vt 0.48521777987480164 0.679004430770874
vt 0.7457354664802551 0.6814312934875488
vt 0.1368808150291443 0.3441314697265625
vt 0.44933953881263733 0.3443448543548584
vt 0.7366774082183838 0.3445582389831543
vt 0.9730501770973206 0.3446465730667114
vt 0.14060989022254944 0.027057349681854248
vt 0.4497758746147156 0.026957213878631592
vt 0.7401014566421509 0.026857078075408936
vt 0.9690152406692505 0.02681565284729004
vt 0.11639831960201263 0.8302549719810486
vt 0.05969160422682762 0.7722136974334717
vt 0.09969006478786469 0.5886626243591309
vt 0.0787537544965744 0.9989480376243591
vt 0.21462783217430115 0.8348734378814697
g Geoset0
s 1
usemtl mat_ogretorch03
f 1/1/1 2/2/2 3/3/3
f 4/4/4 5/5/5 6/6/6
f 7/7/7 4/4/4 6/6/6
f 8/8/8 9/9/9 10/10/10
f 9/9/9 11/11/11 10/10/10
f 7/7/7 6/6/6 11/11/11
f 9/9/9 7/7/7 11/11/11
f 9/9/9 4/4/4 7/7/7
f 9/9/9 8/8/8 4/4/4
f 4/4/4 8/8/8 5/5/5
f 8/8/8 10/10/10 5/5/5
f 12/12/12 13/13/13 14/14/14
f 12/12/12 15/15/15 13/13/13
f 16/16/16 15/15/15 12/12/12
f 16/16/16 17/17/17 15/15/15
f 18/18/18 17/17/17 16/16/16
f 18/18/18 19/19/19 17/17/17
f 20/20/20 19/19/19 18/18/18
f 20/20/20 21/21/21 19/19/19
f 22/22/22 21/21/21 20/20/20
f 22/22/22 23/23/23 21/21/21
f 20/20/20 12/12/12 14/14/14
f 20/20/20 16/16/16 12/12/12
f 20/20/20 18/18/18 16/16/16
f 24/24/24 25/25/25 26/26/26
f 24/24/24 27/27/27 25/25/25
f 14/14/14 27/27/27 24/24/24
f 14/14/14 13/13/13 27/27/27
f 20/20/20 14/14/14 24/24/24
f 20/20/20 24/24/24 26/26/26
f 20/20/20 26/26/26 22/22/22
f 26/26/26 23/23/23 22/22/22
f 26/26/26 25/25/25 23/23/23
f 23/23/23 28/28/28 21/21/21
f 23/23/23 29/29/29 28/28/28
f 25/25/25 29/29/29 23/23/23
f 25/25/25 30/30/30 29/29/29
f 31/31/31 32/32/32 33/33/33
f 31/31/31 34/34/34 32/32/32
f 35/35/35 34/34/34 31/31/31
f 35/35/35 36/36/36 34/34/34
f 30/30/30 37/37/37 29/29/29
f 30/30/30 33/33/33 37/37/37
f 33/33/33 38/38/38 37/37/37
f 33/33/33 32/32/32 38/38/38
f 39/39/39 33/33/33 30/30/30
f 39/39/39 31/31/31 33/33/33
f 40/40/40 31/31/31 39/39/39
f 40/40/40 35/35/35 31/31/31
f 13/13/13 39/39/39 27/27/27
f 13/13/13 40/40/40 39/39/39
f 15/15/15 40/40/40 13/13/13
f 15/15/15 41/41/41 40/40/40
f 17/17/17 41/41/41 15/15/15
f 17/17/17 42/42/42 41/41/41
f 19/19/19 42/42/42 17/17/17
f 19/19/19 43/43/43 42/42/42
f 41/41/41 35/35/35 40/40/40
f 41/41/41 44/44/44 35/35/35
f 42/42/42 44/44/44 41/41/41
f 42/42/42 45/45/45 44/44/44
f 43/43/43 45/45/45 42/42/42
f 43/43/43 46/46/46 45/45/45
f 28/28/28 46/46/46 43/43/43
f 28/28/28 47/47/47 46/46/46
f 29/29/29 47/47/47 28/28/28
f 29/29/29 37/37/37 47/47/47
f 44/44/44 36/36/36 35/35/35
f 44/44/44 48/48/48 36/36/36
f 45/45/45 48/48/48 44/44/44
f 45/45/45 49/49/49 48/48/48
f 46/46/46 49/49/49 45/45/45
f 46/46/46 50/50/50 49/49/49
f 47/47/47 50/50/50 46/46/46
f 47/47/47 51/51/51 50/50/50
f 37/37/37 51/51/51 47/47/47
f 37/37/37 38/38/38 51/51/51
f 52/52/52 53/53/53 54/54/54
f 52/52/52 55/55/55 53/53/53
f 55/55/55 52/52/52 56/56/56
f 56/56/56 52/52/52 54/54/54
f 56/56/56 54/54/54 2/2/2
f 1/1/1 56/56/56 2/2/2
f 55/55/55 56/56/56 1/1/1
f 55/55/55 1/1/1 3/3/3
f 55/55/55 3/3/3 53/53/53