# Exported using wow.export v0.1.49
o 
mtllib steelspear01.mtl
v 6.986223866078944e-8 -0.014674701727926731 0.07934284210205078
v -0.07677318155765533 -0.014674701727926731 0.002569603966549039
v 6.315050171679104e-8 -0.014674701727926731 -0.07420364022254944
v -0.026976728811860085 2.459468126296997 -0.0965193510055542
v 0.02697683311998844 2.459468126296997 -0.09899421036243439
v 5.3516096443217975e-8 2.391519069671631 -0.14725391566753387
v 0.02697683311998844 2.5240185260772705 -0.09899421036243439
v -0.026976728811860085 2.5240187644958496 -0.0965193510055542
v 5.3516096443217975e-8 2.5845437049865723 -0.13509531319141388
v 0.02697683311998844 2.3344335556030273 0.08235675096511841
v -0.026976728811860085 2.3344333171844482 0.08235675096511841
v -0.0670960396528244 2.4417724609375 8.278422947149977e-10
v 5.3516096443217975e-8 2.391519069671631 0.14725391566753387
v 0.06709614396095276 2.441772699356079 8.278422947149977e-10
v 0.02697683311998844 2.3344335556030273 -0.082356758415699
v -0.026976728811860085 2.3344333171844482 -0.082356758415699
v 5.3516096443217975e-8 2.391519069671631 -0.14725391566753387
v 0.02697683311998844 2.459468126296997 0.09899422526359558
v -0.026976728811860085 2.459468126296997 0.0965193659067154
v 5.3516096443217975e-8 2.391519069671631 0.14725391566753387
v 0.02697683311998844 2.5240185260772705 0.09899422526359558
v -0.026976728811860085 2.5240187644958496 0.0965193659067154
v 5.3516096443217975e-8 2.5845437049865723 0.13509532809257507
v 0.05632622912526131 1.7438721656799316 0.002569664502516389
v 8.116612804087708e-8 1.7439706325531006 -0.05375491827726364
v 8.972715193067415e-8 2.288621425628662 -0.05191516876220703
v 0.05448487401008606 2.288621425628662 0.002569593023508787
v 8.601752909953575e-8 1.7438721656799316 0.05889581888914108
v 9.43630595884315e-8 2.288621425628662 0.05705437436699867
v -0.056326065212488174 1.7438721656799316 0.0025696735829114914
v -0.05448468402028084 2.288621425628662 0.0025696014054119587
v 0.06082586571574211 0.9520775675773621 0.0025696977972984314
v 7.259884426957797e-8 0.9521677494049072 -0.0582546591758728
v 8.116612804087708e-8 1.7439706325531006 -0.05375491827726364
v 0.05632622912526131 1.7438721656799316 0.002569664502516389
v 7.788267453179287e-8 0.9520775675773621 0.06339549273252487
v 8.601752909953575e-8 1.7438721656799316 0.05889581888914108
v -0.060825712978839874 0.9520775675773621 0.002569708274677396
v -0.056326065212488174 1.7438721656799316 0.0025696735829114914
v 0.05448487401008606 2.288621425628662 0.002569593023508787
v 0.052885107696056366 2.451458692550659 -2.9083595531886886e-9
v 9.210796747538552e-8 2.451458692550659 0.05545464903116226
v 9.43630595884315e-8 2.288621425628662 0.05705437436699867
v 8.826685871099471e-8 2.4514589309692383 -0.05031545087695122
v 8.972715193067415e-8 2.288621425628662 -0.05191516876220703
v -0.052884988486766815 2.4514589309692383 2.850543578958309e-9
v -0.05448468402028084 2.288621425628662 0.0025696014054119587
v -0.07677318155765533 -0.014674701727926731 0.002569603966549039
v 6.986223866078944e-8 -0.014674701727926731 0.07934284210205078
v 7.788267453179287e-8 0.9520775675773621 0.06339549273252487
v -0.060825712978839874 0.9520775675773621 0.002569708274677396
v 6.315050171679104e-8 -0.014674701727926731 -0.07420364022254944
v 7.259884426957797e-8 0.9521677494049072 -0.0582546591758728
v 0.07677330821752548 -0.014674701727926731 0.002569590462371707
v 0.06082586571574211 0.9520775675773621 0.0025696977972984314
v -0.0521857924759388 2.5845437049865723 8.278422947149977e-10
v -0.026976728811860085 2.5240187644958496 0.0965193659067154
v 5.3516096443217975e-8 2.5845437049865723 0.13509532809257507
v -0.0670960396528244 2.4417724609375 8.278422947149977e-10
v -0.026976728811860085 2.459468126296997 0.0965193659067154
v -0.026976728811860085 2.3344333171844482 0.08235675096511841
v 5.3516096443217975e-8 2.391519069671631 0.14725391566753387
v -0.026976728811860085 2.3344333171844482 -0.082356758415699
v -0.026976728811860085 2.459468126296997 -0.0965193510055542
v 5.3516096443217975e-8 2.391519069671631 -0.14725391566753387
v -0.026976728811860085 2.5240187644958496 -0.0965193510055542
v 5.3516096443217975e-8 2.5845437049865723 -0.13509531319141388
v 0.02697683311998844 2.459468126296997 -0.09899421036243439
v 0.02697683311998844 2.3344335556030273 -0.082356758415699
v 0.06709614396095276 2.441772699356079 8.278422947149977e-10
v 0.02697683311998844 2.5240185260772705 -0.09899421036243439
v 0.05218590423464775 2.5845437049865723 8.278422947149977e-10
v 5.3516096443217975e-8 2.7996838092803955 -0.0896851047873497
v 5.3516096443217975e-8 2.9808433055877686 8.278422947149977e-10
v 5.3516096443217975e-8 2.7996838092803955 0.08968512713909149
v 0.02697683311998844 2.3344335556030273 0.08235675096511841
v 0.02697683311998844 2.459468126296997 0.09899422526359558
v 0.02697683311998844 2.5240185260772705 0.09899422526359558
v 0.07677330821752548 -0.014674701727926731 0.002569590462371707
vn 0.23753324151039124 -0.6601361632347107 0.7125995755195618
vn -0.8710212707519531 -0.3962630331516266 0.29034045338630676
vn -0.23753340542316437 -0.6601361632347107 -0.7125995755195618
vn -0.5813137888908386 0.10031482577323914 -0.8074721097946167
vn 0.6612110137939453 0.11909781396389008 -0.7406859993934631
vn -0.017457876354455948 -0.11447380483150482 -0.9932728409767151
vn 0.5646902322769165 -0.048573967069387436 -0.8238722681999207
vn -0.7027613520622253 -0.05944911390542984 -0.7089374661445618
vn -0.018237361684441566 0.0030353718902915716 -0.9998290538787842
vn 0.6598089933395386 -0.7502200603485107 -0.042683959007263184
vn -0.7520017027854919 -0.5974932909011841 0.2783795893192291
vn -0.9229797124862671 -0.38484862446784973 -4.931454355983078e-8
vn -0.017457876354455948 -0.11447392404079437 0.9932728409767151
vn 0.9805000424385071 -0.19651897251605988 -2.6115392515180247e-8
vn 0.6598090529441833 -0.7502200603485107 0.04268387332558632
vn -0.7520017623901367 -0.5974932312965393 -0.2783796489238739
vn -0.017457876354455948 -0.11447380483150482 -0.9932728409767151
vn 0.6612110137939453 0.1190977618098259 0.7406859993934631
vn -0.5813137292861938 0.10031478106975555 0.8074721693992615
vn -0.017457876354455948 -0.11447392404079437 0.9932728409767151
vn 0.5646902322769165 -0.04857395961880684 0.8238722681999207
vn -0.7027613520622253 -0.05944911390542984 0.7089374661445618
vn -0.018237363547086716 0.0030353525653481483 0.9998290538787842
vn 0.9999897480010986 0.004531091544777155 -0.000004214678938296856
vn -0.0000021775597360829124 0.004530658014118671 -0.9999897480010986
vn 0.004182290285825729 0.003995041828602552 -0.9999832510948181
vn 0.9908633828163147 0.006888336502015591 0.1346934586763382
vn 8.991285085357958e-7 0.004531563259661198 0.9999897480010986
vn -0.19611436128616333 0.005842019338160753 0.9805636405944824
vn -0.9999897480010986 0.0045315418392419815 -0.0000035965299503004644
vn -0.9999704957008362 0.0065506924875080585 -0.004013257101178169
vn 0.9999385476112366 0.011088539846241474 -0.000012671889635385014
vn -0.000008583673661632929 0.0110885389149189 -0.9999385476112366
vn -0.0000021775597360829124 0.004530658014118671 -0.9999897480010986
vn 0.9999897480010986 0.004531091544777155 -0.000004214678938296856
vn 0.000010030715202447027 0.011088497005403042 0.9999385476112366
vn 8.991285085357958e-7 0.004531563259661198 0.9999897480010986
vn -0.9999385476112366 0.011088554747402668 0.000008906835319066886
vn -0.9999897480010986 0.0045315418392419815 -0.0000035965299503004644
vn 0.9908633828163147 0.006888336502015591 0.1346934586763382
vn 0.9996583461761475 0.009436284191906452 -0.024375947192311287
vn 1.9195074685285363e-7 0.017850734293460846 0.9998406767845154
vn -0.19611436128616333 0.005842019338160753 0.9805636405944824
vn 0.3116280734539032 0.004144017118960619 -0.9501951336860657
vn 0.004182290285825729 0.003995041828602552 -0.9999832510948181
vn -0.943877637386322 0.009306621737778187 -0.33016419410705566
vn -0.9999704957008362 0.0065506924875080585 -0.004013257101178169
vn -0.8710212707519531 -0.3962630331516266 0.29034045338630676
vn 0.23753324151039124 -0.6601361632347107 0.7125995755195618
vn 0.000010030715202447027 0.011088497005403042 0.9999385476112366
vn -0.9999385476112366 0.011088554747402668 0.000008906835319066886
vn -0.23753340542316437 -0.6601361632347107 -0.7125995755195618
vn -0.000008583673661632929 0.0110885389149189 -0.9999385476112366
vn 0.8710213303565979 -0.3962629437446594 -0.2903403043746948
vn 0.9999385476112366 0.011088539846241474 -0.000012671889635385014
vn -0.9917870163917542 0.12790042161941528 -1.1817373746225712e-8
vn -0.7027613520622253 -0.05944911390542984 0.7089374661445618
vn -0.018237363547086716 0.0030353525653481483 0.9998290538787842
vn -0.9229797124862671 -0.38484862446784973 -4.931454355983078e-8
vn -0.5813137292861938 0.10031478106975555 0.8074721693992615
vn -0.7520017027854919 -0.5974932909011841 0.2783795893192291
vn -0.017457876354455948 -0.11447392404079437 0.9932728409767151
vn -0.7520017623901367 -0.5974932312965393 -0.2783796489238739
vn -0.5813137888908386 0.10031482577323914 -0.8074721097946167
vn -0.017457876354455948 -0.11447380483150482 -0.9932728409767151
vn -0.7027613520622253 -0.05944911390542984 -0.7089374661445618
vn -0.018237361684441566 0.0030353718902915716 -0.9998290538787842
vn 0.6612110137939453 0.11909781396389008 -0.7406859993934631
vn 0.6598090529441833 -0.7502200603485107 0.04268387332558632
vn 0.9805000424385071 -0.19651897251605988 -2.6115392515180247e-8
vn 0.5646902322769165 -0.048573967069387436 -0.8238722681999207
vn 0.9913037419319153 0.13159377872943878 -2.362498463526208e-8
vn 0 0.312484472990036 -0.9499228596687317
vn 0 1 -1.770578421655955e-7
vn -4.608490300483936e-8 0.312484472990036 0.9499228596687317
vn 0.6598089933395386 -0.7502200603485107 -0.042683959007263184
vn 0.6612110137939453 0.1190977618098259 0.7406859993934631
vn 0.5646902322769165 -0.04857395961880684 0.8238722681999207
vn 0.8710213303565979 -0.3962629437446594 -0.2903403043746948
vt 0.7575929760932922 0.755492627620697
vt 0.8707965612411499 0.9657996296882629
vt 0.9840001463890076 0.7554925084114075
vt 0.42795294523239136 0.8000965118408203
vt 0.4545230269432068 0.9058557152748108
vt 0.4779623746871948 0.7891014218330383
vt 0.43739011883735657 0.9493339657783508
vt 0.39391180872917175 0.882222056388855
vt 0.39225631952285767 0.9751741886138916
vt 0.6277402639389038 0.6731492877006531
vt 0.6277402639389038 0.5631054043769836
vt 0.7370362281799316 0.5206536054611206
vt 0.5414116978645325 0.5945019125938416
vt 0.7370362281799316 0.7943524718284607
vt 0.6274822354316711 0.6731492877006531
vt 0.6274822354316711 0.5631054043769836
vt 0.5411536693572998 0.5945019125938416
vt 0.42916086316108704 0.8043976426124573
vt 0.45452314615249634 0.8967061042785645
vt 0.4767548143863678 0.7866860032081604
vt 0.3914964199066162 0.8744461536407471
vt 0.4385978579521179 0.9546773433685303
vt 0.3898410201072693 0.977581262588501
vt 1 0.125
vt 1 0.24199998378753662
vt 0 0.24199998378753662
vt 0 0.125
vt 1 0.008000016212463379
vt 0 0.008000016212463379
vt 1 0.125
vt 0 0.125
vt 1 0.3773285746574402
vt 1 0.4943286180496216
vt 0.1973554491996765 0.4943286180496216
vt 0.1973554491996765 0.3773285746574402
vt 1 0.26032859086990356
vt 0.1973554491996765 0.26032859086990356
vt 1 0.37732863426208496
vt 0.1973554491996765 0.37732863426208496
vt 0 0.3799399137496948
vt 0.1887289136648178 0.3799399137496948
vt 0.1887289136648178 0.2580000162124634
vt 0 0.2580000162124634
vt 0.1887289136648178 0.4919999837875366
vt 0 0.4919999837875366
vt 0.1887289136648178 0.3799400329589844
vt 0 0.3799400329589844
vt 1 0.125
vt 1 0.008000016212463379
vt 0 0.008000016212463379
vt 0 0.125
vt 1 0.24199998378753662
vt 0 0.24199998378753662
vt 1 0.125
vt 0 0.125
vt 0.4538506269454956 0.5080000162124634
vt 0.5074384808540344 0.8153265118598938
vt 0.4478120505809784 0.9534266591072083
vt 0.6172929406166077 0.5080000162124634
vt 0.6006584167480469 0.8274036645889282
vt 0.7401733994483948 0.7793624401092529
vt 0.6748224496841431 0.9919999837875366
vt 0.74017333984375 0.7769562005996704
vt 0.6006582975387573 0.8249969482421875
vt 0.6748222708702087 0.9919999837875366
vt 0.5074384212493896 0.8129196166992188
vt 0.44781190156936646 0.9510195851325989
vt 0.6006582975387573 0.8333919048309326
vt 0.74017333984375 0.7769562005996704
vt 0.6172929406166077 0.5080000162124634
vt 0.5074384212493896 0.8213145732879639
vt 0.4538506269454956 0.5080000162124634
vt 0.20756125450134277 0.8018139600753784
vt 0.00800000037997961 0.5080000162124634
vt 0.20756134390830994 0.8042217493057251
vt 0.7401733994483948 0.7793624401092529
vt 0.6006584167480469 0.8357986211776733
vt 0.5074384808540344 0.8237214684486389
vt 0.8707965016365051 0.5451854467391968
g Geoset0
s 1
usemtl mat_steelspear01
f 1/1/1 2/2/2 3/3/3
f 4/4/4 5/5/5 6/6/6
f 7/7/7 5/5/5 4/4/4
f 8/8/8 7/7/7 4/4/4
f 9/9/9 7/7/7 8/8/8
f 10/10/10 11/11/11 12/12/12
f 10/10/10 13/13/13 11/11/11
f 14/14/14 10/10/10 12/12/12
f 15/15/15 14/14/14 12/12/12
f 16/16/16 15/15/15 12/12/12
f 17/17/17 15/15/15 16/16/16
f 18/18/18 19/19/19 20/20/20
f 18/18/18 21/21/21 19/19/19
f 21/21/21 22/22/22 19/19/19
f 21/21/21 23/23/23 22/22/22
f 24/24/24 25/25/25 26/26/26
f 26/26/26 27/27/27 24/24/24
f 28/28/28 24/24/24 27/27/27
f 27/27/27 29/29/29 28/28/28
f 30/30/30 28/28/28 29/29/29
f 29/29/29 31/31/31 30/30/30
f 25/25/25 30/30/30 31/31/31
f 31/31/31 26/26/26 25/25/25
f 32/32/32 33/33/33 34/34/34
f 34/34/34 35/35/35 32/32/32
f 36/36/36 32/32/32 35/35/35
f 35/35/35 37/37/37 36/36/36
f 38/38/38 36/36/36 37/37/37
f 37/37/37 39/39/39 38/38/38
f 33/33/33 38/38/38 39/39/39
f 39/39/39 34/34/34 33/33/33
f 40/40/40 41/41/41 42/42/42
f 42/42/42 43/43/43 40/40/40
f 44/44/44 41/41/41 40/40/40
f 40/40/40 45/45/45 44/44/44
f 46/46/46 44/44/44 45/45/45
f 45/45/45 47/47/47 46/46/46
f 42/42/42 46/46/46 47/47/47
f 47/47/47 43/43/43 42/42/42
f 48/48/48 49/49/49 50/50/50
f 50/50/50 51/51/51 48/48/48
f 52/52/52 48/48/48 51/51/51
f 51/51/51 53/53/53 52/52/52
f 54/54/54 52/52/52 53/53/53
f 53/53/53 55/55/55 54/54/54
f 49/49/49 54/54/54 55/55/55
f 55/55/55 50/50/50 49/49/49
f 56/56/56 57/57/57 58/58/58
f 56/56/56 59/59/59 57/57/57
f 57/57/57 59/59/59 60/60/60
f 59/59/59 61/61/61 60/60/60
f 61/61/61 62/62/62 60/60/60
f 63/63/63 64/64/64 65/65/65
f 63/63/63 59/59/59 64/64/64
f 59/59/59 66/66/66 64/64/64
f 59/59/59 56/56/56 66/66/66
f 66/66/66 56/56/56 67/67/67
f 68/68/68 69/69/69 65/65/65
f 70/70/70 69/69/69 68/68/68
f 71/71/71 70/70/70 68/68/68
f 72/72/72 70/70/70 71/71/71
f 67/67/67 72/72/72 71/71/71
f 73/73/73 72/72/72 67/67/67
f 67/67/67 56/56/56 73/73/73
f 72/72/72 74/74/74 75/75/75
f 74/74/74 72/72/72 73/73/73
f 76/76/76 77/77/77 62/62/62
f 70/70/70 77/77/77 76/76/76
f 70/70/70 78/78/78 77/77/77
f 70/70/70 72/72/72 78/78/78
f 72/72/72 58/58/58 78/78/78
f 72/72/72 75/75/75 58/58/58
f 56/56/56 58/58/58 75/75/75
f 74/74/74 56/56/56 75/75/75
f 56/56/56 74/74/74 73/73/73
f 3/3/3 79/79/79 1/1/1