# Exported using wow.export v0.1.49
o 
mtllib generallantern01.mtl
v 0.36126193404197693 -0.003823600010946393 -0.003132231067866087
v 0.25311893224716187 0.092743419110775 -0.00313222361728549
v 0.011620602570474148 -0.003823554841801524 0.3465088903903961
v -0.043139975517988205 1.3718454837799072 0.1841825395822525
v -0.042953357100486755 1.0213614702224731 0.298061728477478
v 0.06724663078784943 1.3718454837799072 0.1841825395822525
v 0.06724660843610764 1.0213613510131836 0.29806169867515564
v 0.06724660843610764 1.0213613510131836 0.29806169867515564
v 0.06724665313959122 0.804750382900238 -0.00007791227108100429
v 0.01214645802974701 1.0459957122802734 0.22224487364292145
v 0.01214649248868227 0.8844688534736633 -0.00007791563984937966
v 0.01214645802974701 1.0459957122802734 0.22224487364292145
v 0.01214649248868227 0.8844688534736633 -0.00007791563984937966
v -0.042953357100486755 1.0213614702224731 0.298061728477478
v -0.042953308671712875 0.804750382900238 -0.00007791227108100429
v -0.042953357100486755 1.0213614702224731 0.298061728477478
v -0.042953308671712875 0.804750382900238 -0.00007791227108100429
v 0.06724660843610764 1.0213613510131836 0.29806169867515564
v 0.06724665313959122 0.804750382900238 -0.00007791227108100429
v 0.06724663078784943 1.3718454837799072 0.1841825395822525
v 0.06724660843610764 1.0213613510131836 0.29806169867515564
v 0.01195983774960041 1.3073517084121704 0.13732515275478363
v 0.01214645802974701 1.0459957122802734 0.22224487364292145
v 0.01214645802974701 1.0459957122802734 0.22224487364292145
v -0.042953357100486755 1.0213614702224731 0.298061728477478
v -0.043139975517988205 1.3718454837799072 0.1841825395822525
v 0.01195983774960041 1.3073517084121704 0.13732515275478363
v -0.04313991591334343 1.3718456029891968 -0.18433837592601776
v -0.043139975517988205 1.3718454837799072 0.1841825395822525
v 0.0672466829419136 1.3718454837799072 -0.18433837592601776
v 0.06724663078784943 1.3718454837799072 0.1841825395822525
v 0.0672467052936554 1.0213614702224731 -0.2982175946235657
v 0.0672466829419136 1.3718454837799072 -0.18433837592601776
v 0.012146887369453907 1.045995831489563 -0.2224007397890091
v 0.011959879659116268 1.3073517084121704 -0.1374809890985489
v 0.012146887369453907 1.045995831489563 -0.2224007397890091
v 0.011959879659116268 1.3073517084121704 -0.1374809890985489
v -0.042953263968229294 1.0213614702224731 -0.2982175648212433
v -0.04313991591334343 1.3718456029891968 -0.18433837592601776
v -0.042953263968229294 1.0213614702224731 -0.2982175648212433
v -0.04313991591334343 1.3718456029891968 -0.18433837592601776
v 0.0672467052936554 1.0213614702224731 -0.2982175946235657
v 0.0672466829419136 1.3718454837799072 -0.18433837592601776
v 0.06724665313959122 0.804750382900238 -0.00007791227108100429
v 0.0672467052936554 1.0213614702224731 -0.2982175946235657
v 0.01214649248868227 0.8844688534736633 -0.00007791563984937966
v 0.012146887369453907 1.045995831489563 -0.2224007397890091
v 0.01214649248868227 0.8844688534736633 -0.00007791563984937966
v 0.012146887369453907 1.045995831489563 -0.2224007397890091
v -0.042953308671712875 0.804750382900238 -0.00007791227108100429
v -0.042953263968229294 1.0213614702224731 -0.2982175648212433
v -0.042953308671712875 0.804750382900238 -0.00007791227108100429
v -0.042953263968229294 1.0213614702224731 -0.2982175648212433
v 0.06724665313959122 0.804750382900238 -0.00007791227108100429
v 0.0672467052936554 1.0213614702224731 -0.2982175946235657
v -0.12911264598369598 1.0218693017959595 -0.0031321991700679064
v -0.28256821632385254 0.7801424860954285 -0.0031321884598582983
v 0.011620634235441685 1.0218693017959595 0.13760101795196533
v 0.01162061095237732 0.7801424860954285 0.2910565435886383
v 0.011620677076280117 1.0218693017959595 -0.1438654214143753
v 0.011620700359344482 0.7801424860954285 -0.2973209023475647
v -0.12911264598369598 1.0218693017959595 -0.0031321991700679064
v -0.28256821632385254 0.7801424860954285 -0.0031321884598582983
v 0.15235359966754913 1.0218693017959595 -0.003132217563688755
v 0.30580952763557434 0.7801424860954285 -0.003132227808237076
v 0.011620677076280117 1.0218693017959595 -0.1438654214143753
v 0.011620700359344482 0.7801424860954285 -0.2973209023475647
v 0.011620634235441685 1.0218693017959595 0.13760101795196533
v 0.01162061095237732 0.7801424860954285 0.2910565435886383
v 0.15235359966754913 1.0218693017959595 -0.003132217563688755
v 0.30580952763557434 0.7801424860954285 -0.003132227808237076
v 0.011620602570474148 -0.003823554841801524 0.3465088903903961
v -0.3380206227302551 -0.003823600010946393 -0.0031322163995355368
v 0.36126193404197693 -0.003823600010946393 -0.003132231067866087
v 0.011620708741247654 -0.003823554841801524 -0.3527733385562897
v -0.12911264598369598 1.0218693017959595 -0.0031321991700679064
v 0.011620634235441685 1.0218693017959595 0.13760101795196533
v 0.011620677076280117 1.0218693017959595 -0.1438654214143753
v 0.15235359966754913 1.0218693017959595 -0.003132217563688755
v -0.22987760603427887 0.092743419110775 -0.003132191952317953
v -0.3380206227302551 -0.003823600010946393 -0.0031322163995355368
v 0.011620619334280491 0.092743419110775 0.23836596310138702
v 0.011620602570474148 -0.003823554841801524 0.3465088903903961
v 0.011620691977441311 0.092743419110775 -0.244630366563797
v 0.011620708741247654 -0.003823554841801524 -0.3527733385562897
v -0.22987760603427887 0.092743419110775 -0.003132191952317953
v -0.3380206227302551 -0.003823600010946393 -0.0031322163995355368
v 0.25311893224716187 0.092743419110775 -0.00313222361728549
v 0.36126193404197693 -0.003823600010946393 -0.003132231067866087
v 0.011620691977441311 0.092743419110775 -0.244630366563797
v 0.011620708741247654 -0.003823554841801524 -0.3527733385562897
v 0.0672466829419136 1.3718454837799072 -0.18433837592601776
v 0.06724663078784943 1.3718454837799072 0.1841825395822525
v 0.011959879659116268 1.3073517084121704 -0.1374809890985489
v 0.01195983774960041 1.3073517084121704 0.13732515275478363
v -0.043139975517988205 1.3718454837799072 0.1841825395822525
v -0.04313991591334343 1.3718456029891968 -0.18433837592601776
v 0.011620619334280491 0.092743419110775 0.23836596310138702
v 0.01162061095237732 0.7801424860954285 0.2910565435886383
v 0.011620601639151573 0.4119643270969391 0.3547680974006653
v 0.30580952763557434 0.7801424860954285 -0.003132227808237076
v 0.011620619334280491 0.092743419110775 0.23836596310138702
v 0.011620601639151573 0.4119643270969391 0.3547680974006653
v -0.22987760603427887 0.092743419110775 -0.003132191952317953
v -0.3462796211242676 0.4119643568992615 -0.0031321838032454252
v 0.01162061095237732 0.7801424860954285 0.2910565435886383
v -0.28256821632385254 0.7801424860954285 -0.0031321884598582983
v -0.22987760603427887 0.092743419110775 -0.003132191952317953
v -0.3462796211242676 0.4119643568992615 -0.0031321838032454252
v 0.011620691977441311 0.092743419110775 -0.244630366563797
v 0.011620709672570229 0.4119643568992615 -0.36103251576423645
v -0.28256821632385254 0.7801424860954285 -0.0031321884598582983
v 0.011620700359344482 0.7801424860954285 -0.2973209023475647
v 0.011620691977441311 0.092743419110775 -0.244630366563797
v 0.011620709672570229 0.4119643568992615 -0.36103251576423645
v 0.25311893224716187 0.092743419110775 -0.00313222361728549
v 0.3695209324359894 0.4119643568992615 -0.0031322319991886616
v 0.011620700359344482 0.7801424860954285 -0.2973209023475647
v 0.30580952763557434 0.7801424860954285 -0.003132227808237076
v 0.25311893224716187 0.092743419110775 -0.00313222361728549
v 0.3695209324359894 0.4119643568992615 -0.0031322319991886616
v 0.011620619334280491 0.092743419110775 0.23836596310138702
vn 0.5543487668037415 0.6208015084266663 0.5543491244316101
vn 0.5543488264083862 0.6208015084266663 0.5543490648269653
vn 0.5543488264083862 0.6208015084266663 0.5543490648269653
vn 5.153772875132745e-8 0.30901703238487244 0.9510564804077148
vn 2.129530827232884e-7 0.30901700258255005 0.9510565400123596
vn 2.129530827232884e-7 0.30901700258255005 0.9510565400123596
vn 3.7436848288052715e-7 0.3090169131755829 0.9510565400123596
vn 0.7603046894073486 0.5255105495452881 -0.3818054497241974
vn 0.7603046894073486 0.5255105495452881 -0.3818054497241974
vn 0.7603046894073486 0.5255105495452881 -0.3818054497241974
vn 0.7603046894073486 0.5255105495452881 -0.3818054497241974
vn -0.7603065967559814 0.5255086421966553 -0.38180431723594666
vn -0.760306715965271 0.5255085229873657 -0.38180428743362427
vn -0.760306715965271 0.5255085229873657 -0.38180428743362427
vn -0.760306715965271 0.525508463382721 -0.3818042576313019
vn -1.7969412624552206e-7 -0.8090171217918396 0.5877850651741028
vn -8.98639100910259e-8 -0.8090171217918396 0.5877850651741028
vn -8.98639100910259e-8 -0.8090171217918396 0.5877850651741028
vn -3.367668643949884e-11 -0.8090171217918396 0.5877850651741028
vn 0.7592185735702515 -0.2011193037033081 -0.6189815402030945
vn 0.7598547339439392 -0.20064416527748108 -0.618354856967926
vn 0.7598547339439392 -0.20064416527748108 -0.618354856967926
vn 0.7604899406433105 -0.20016881823539734 -0.6177276968955994
vn -0.7603303790092468 -0.2011464387178421 -0.6176065802574158
vn -0.760168731212616 -0.201142355799675 -0.6178067922592163
vn -0.7603303790092468 -0.2011464387178421 -0.6176065802574158
vn -0.7604919672012329 -0.20115046203136444 -0.6174062490463257
vn 0 1 0
vn 0 1 0
vn 0 1 0
vn 0 1 0
vn 0.760306715965271 -0.20072641968727112 0.6177722811698914
vn 0.7596702575683594 -0.20071078836917877 0.6185598373413086
vn 0.7596702575683594 -0.20071078836917877 0.6185598373413086
vn 0.7590330243110657 -0.2006949484348297 0.6193467378616333
vn -0.7601189613342285 -0.20128624141216278 0.6178211569786072
vn -0.760282039642334 -0.20116448402404785 0.6176602244377136
vn -0.760282039642334 -0.20116448402404785 0.6176602244377136
vn -0.7604450583457947 -0.20104266703128815 0.6174991130828857
vn -5.1868223494011545e-8 0.3090170621871948 -0.9510564804077148
vn -2.9171651760862005e-9 0.3090170621871948 -0.9510564804077148
vn -2.9171651760862005e-9 0.3090170621871948 -0.9510564804077148
vn 4.603389669455282e-8 0.3090170621871948 -0.9510564804077148
vn 0.7603045701980591 0.5255105495452881 0.3818056881427765
vn 0.7603058815002441 0.5255090594291687 0.3818052411079407
vn 0.7603058815002441 0.5255090594291687 0.3818052411079407
vn 0.7603071331977844 0.5255075693130493 0.38180476427078247
vn -0.7603071331977844 0.5255088210105896 0.3818030059337616
vn -0.7603058815002441 0.5255097150802612 0.3818042278289795
vn -0.7603058815002441 0.5255097150802612 0.3818042278289795
vn -0.7603046894073486 0.5255105495452881 0.3818054795265198
vn -3.2056327370355575e-8 -0.8090171217918396 -0.5877850651741028
vn -3.2056327370355575e-8 -0.8090171217918396 -0.5877850651741028
vn -3.2056327370355575e-8 -0.8090171217918396 -0.5877850651741028
vn -3.2056327370355575e-8 -0.8090171217918396 -0.5877850651741028
vn -0.6450927257537842 0.40952470898628235 0.6450929045677185
vn -0.6450926661491394 0.40952467918395996 0.6450930237770081
vn -0.6450926661491394 0.40952467918395996 0.6450930237770081
vn -0.6450926661491394 0.4095246493816376 0.6450930237770081
vn -0.6450926661491394 0.409524530172348 -0.6450930833816528
vn -0.6450926065444946 0.4095246195793152 -0.6450930833816528
vn -0.6450926065444946 0.4095246195793152 -0.6450930833816528
vn -0.6450926065444946 0.4095246195793152 -0.6450931429862976
vn 0.6450930833816528 0.40952596068382263 -0.6450917720794678
vn 0.6450929045677185 0.4095252752304077 -0.6450923681259155
vn 0.6450929045677185 0.4095252752304077 -0.6450923681259155
vn 0.6450926661491394 0.4095246493816376 -0.6450930833816528
vn 0.6450936794281006 0.4095241129398346 0.6450923681259155
vn 0.6450930833816528 0.40952473878860474 0.6450925469398499
vn 0.6450930833816528 0.40952473878860474 0.6450925469398499
vn 0.6450924277305603 0.40952539443969727 0.645092785358429
vn 2.730617805029841e-15 -1 1.2956006401054765e-7
vn 0 -1 0
vn 0 -1 0
vn -2.730617805029841e-15 -1 -1.2956006401054765e-7
vn -3.218820552319812e-7 1 -4.860283860487827e-14
vn 4.121147596358038e-13 1 6.222760194788519e-20
vn 4.121147596358038e-13 1 6.222760194788519e-20
vn 3.2188285103984526e-7 1 4.860296057762267e-14
vn -0.5543488264083862 0.6208015084266663 0.5543490648269653
vn -0.5543488264083862 0.6208015084266663 0.5543490648269653
vn -0.5543488264083862 0.6208015084266663 0.5543490648269653
vn -0.5543488264083862 0.6208015084266663 0.5543490648269653
vn -0.5543485879898071 0.6208016872406006 -0.5543490648269653
vn -0.5543486475944519 0.6208016872406006 -0.5543490052223206
vn -0.5543486475944519 0.6208016872406006 -0.5543490052223206
vn -0.5543487071990967 0.620801568031311 -0.5543491244316101
vn 0.5543487668037415 0.620801568031311 -0.5543490648269653
vn 0.5543487668037415 0.6208016872406006 -0.5543489456176758
vn 0.5543487668037415 0.6208016872406006 -0.5543489456176758
vn 0.5543487071990967 0.6208017468452454 -0.554348886013031
vn 0.7592186331748962 -0.6508356332778931 1.1463884419526948e-7
vn 0.7592186331748962 -0.6508356332778931 1.1463884419526948e-7
vn -0.0008368437411263585 -0.9999996423721313 -1.2635990864762192e-10
vn -0.0008368666749447584 -0.9999996423721313 -1.2636336421678607e-10
vn -0.7603068351745605 -0.6495640873908997 -1.1480315720291401e-7
vn -0.7603068351745605 -0.6495640873908997 -1.1480315009748665e-7
vn 0.5543488264083862 0.6208015084266663 0.5543490648269653
vn 0.7018716931343079 0.12145577371120453 0.7018722295761108
vn 0.7071048021316528 -0.0022905422374606133 0.7071050405502319
vn 0.7018718123435974 0.12145563215017319 0.7018721103668213
vn -0.6847120523452759 -0.24967657029628754 0.6847123503684998
vn -0.7012948989868164 -0.12794756889343262 0.7012951374053955
vn -0.6847121119499207 -0.2496764212846756 0.6847123503684998
vn -0.7071048617362976 -0.0022904817014932632 0.7071049809455872
vn -0.7018718719482422 0.12145563960075378 0.7018720507621765
vn -0.7018718719482422 0.12145549803972244 0.7018721103668213
vn -0.6847120523452759 -0.2496761679649353 -0.6847125291824341
vn -0.7012948989868164 -0.1279476135969162 -0.7012951374053955
vn -0.6847121119499207 -0.24967634677886963 -0.6847124099731445
vn -0.7071048021316528 -0.0022905345540493727 -0.7071050405502319
vn -0.7018718123435974 0.12145569175481796 -0.7018721699714661
vn -0.7018716931343079 0.12145586311817169 -0.7018722295761108
vn 0.6847119927406311 -0.2496766448020935 -0.6847124099731445
vn 0.7012949585914612 -0.1279475837945938 -0.7012950778007507
vn 0.6847121119499207 -0.24967646598815918 -0.6847123503684998
vn 0.7071048617362976 -0.0022904539946466684 -0.7071049809455872
vn 0.7018718719482422 0.12145568430423737 -0.7018720507621765
vn 0.7018717527389526 0.12145549058914185 -0.7018721699714661
vn 0.6847120523452759 -0.24967622756958008 0.6847124695777893
vn 0.7012948989868164 -0.127947598695755 0.7012951374053955
vn 0.6847121119499207 -0.24967634677886963 0.6847124099731445
vt 0.9956627488136292 0.7835748791694641
vt 0.995628833770752 0.7538718581199646
vt 0.7552351355552673 0.7823820114135742
vt 0.9927536249160767 0.8937197923660278
vt 0.9927536249160767 0.9975845217704773
vt 0.7536231875419617 0.8937197923660278
vt 0.7536231875419617 0.9951691031455994
vt 0.7536231875419617 0.9951691031455994
vt 0.7536231875419617 0.8937197923660278
vt 0.9927536249160767 0.9975845217704773
vt 0.9927536249160767 0.8937197923660278
vt 0.7536231875419617 0.9951691031455994
vt 0.7536231875419617 0.8937197923660278
vt 0.9927536249160767 0.9975845217704773
vt 0.9927536249160767 0.8937197923660278
vt 0.7536231875419617 0.9951691031455994
vt 0.7536231875419617 0.8937197923660278
vt 0.9927536249160767 0.9975845217704773
vt 0.9927536249160767 0.8937197923660278
vt 0.9927536249160767 0.8937197923660278
vt 0.9927536249160767 0.9975845217704773
vt 0.7536231875419617 0.8937197923660278
vt 0.7536231875419617 0.9951691031455994
vt 0.9927536249160767 0.9975845217704773
vt 0.7536231875419617 0.9951691031455994
vt 0.7536231875419617 0.8937197923660278
vt 0.9927536249160767 0.8937197923660278
vt 0.9927536249160767 0.8937197923660278
vt 0.9927536249160767 0.9975845217704773
vt 0.7536231875419617 0.8937197923660278
vt 0.7536231875419617 0.9951691031455994
vt 0.9927536249160767 0.8937197923660278
vt 0.9927536249160767 0.9975845217704773
vt 0.7536231875419617 0.8937197923660278
vt 0.7536231875419617 0.9951691031455994
vt 0.9927536249160767 0.8937197923660278
vt 0.9927536249160767 0.9975845217704773
vt 0.7536231875419617 0.8937197923660278
vt 0.7536231875419617 0.9951691031455994
vt 0.9927536249160767 0.8937197923660278
vt 0.9927536249160767 0.9975845217704773
vt 0.7536231875419617 0.8937197923660278
vt 0.7536231875419617 0.9951691031455994
vt 0.9927536249160767 0.8937197923660278
vt 0.9927536249160767 0.9975845217704773
vt 0.7536231875419617 0.8937197923660278
vt 0.7536231875419617 0.9951691031455994
vt 0.9927536249160767 0.8937197923660278
vt 0.9927536249160767 0.9975845217704773
vt 0.7536231875419617 0.8937197923660278
vt 0.7536231875419617 0.9951691031455994
vt 0.9927536249160767 0.8937197923660278
vt 0.9927536249160767 0.9975845217704773
vt 0.7536231875419617 0.8937197923660278
vt 0.7536231875419617 0.9951691031455994
vt 0.7506380677223206 0.9946696162223816
vt 0.7503712177276611 0.899451494216919
vt 0.9823287725448608 0.9946696162223816
vt 0.9822366237640381 0.8993299007415771
vt 0.7506380677223206 0.9946696162223816
vt 0.7503712177276611 0.899451494216919
vt 0.9823287725448608 0.9946696162223816
vt 0.9822366237640381 0.8993299007415771
vt 0.7506380677223206 0.9946696162223816
vt 0.7503712177276611 0.899451494216919
vt 0.9823287725448608 0.9946696162223816
vt 0.9822366237640381 0.8993299007415771
vt 0.7506380677223206 0.9946696162223816
vt 0.7503712177276611 0.899451494216919
vt 0.9823287725448608 0.9946696162223816
vt 0.9822366237640381 0.8993299007415771
vt 0.9822366237640381 0.8993299007415771
vt 0.9823287725448608 0.9946696162223816
vt 0.7503712177276611 0.899451494216919
vt 0.7506380677223206 0.9946696162223816
vt 0.7506380677223206 0.9946696162223816
vt 0.7503712177276611 0.899451494216919
vt 0.9823287725448608 0.9946696162223816
vt 0.9822366237640381 0.8993299007415771
vt 0.7552500367164612 0.7539351582527161
vt 0.7552351355552673 0.7823820114135742
vt 0.995628833770752 0.7538718581199646
vt 0.9956627488136292 0.7835748791694641
vt 0.7552500367164612 0.7539351582527161
vt 0.7552351355552673 0.7823820114135742
vt 0.995628833770752 0.7538718581199646
vt 0.9956627488136292 0.7835748791694641
vt 0.7552500367164612 0.7539351582527161
vt 0.7552351355552673 0.7823820114135742
vt 0.995628833770752 0.7538718581199646
vt 0.9956627488136292 0.7835748791694641
vt 0.9927536249160767 0.8937197923660278
vt 0.9927536249160767 0.9975845217704773
vt 0.7536231875419617 0.8937197923660278
vt 0.7536231875419617 0.9951691031455994
vt 0.9927536249160767 0.9975845217704773
vt 0.9927536249160767 0.8937197923660278
vt 0.7552500367164612 0.7539351582527161
vt 0.995105504989624 0.9949250817298889
vt 0.9950109124183655 0.5015017986297607
vt -0.0030170090030878782 0.9949432611465454
vt -0.0028682949487119913 0.9981387853622437
vt -0.003007319988682866 0.5015019178390503
vt 0.995964527130127 0.9980754256248474
vt 0.9950109124183655 0.5015017986297607
vt -0.0030170090030878782 0.9949432611465454
vt 0.995105504989624 0.9949250817298889
vt -0.0028682949487119913 0.9981387853622437
vt -0.003007319988682866 0.5015019178390503
vt 0.995964527130127 0.9980754256248474
vt 0.9950109124183655 0.5015017986297607
vt -0.0030170090030878782 0.9949432611465454
vt 0.995105504989624 0.9949250817298889
vt -0.0028682949487119913 0.9981387853622437
vt -0.003007319988682866 0.5015019178390503
vt 0.995964527130127 0.9980754256248474
vt 0.9950109124183655 0.5015017986297607
vt -0.0030170090030878782 0.9949432611465454
vt 0.995105504989624 0.9949250817298889
vt -0.0028682949487119913 0.9981387853622437
vt -0.003007319988682866 0.5015019178390503
vt 0.995964527130127 0.9980754256248474
g Geoset0
s 1
usemtl mat_gypsydoor_01
f 1/1/1 2/2/2 3/3/3
f 4/4/4 5/5/5 6/6/6
f 5/5/5 7/7/7 6/6/6
f 8/8/8 9/9/9 10/10/10
f 9/9/9 11/11/11 10/10/10
f 12/12/12 13/13/13 14/14/14
f 13/13/13 15/15/15 14/14/14
f 16/16/16 17/17/17 18/18/18
f 17/17/17 19/19/19 18/18/18
f 20/20/20 21/21/21 22/22/22
f 21/21/21 23/23/23 22/22/22
f 24/24/24 25/25/25 26/26/26
f 27/27/27 24/24/24 26/26/26
f 28/28/28 29/29/29 30/30/30
f 29/29/29 31/31/31 30/30/30
f 32/32/32 33/33/33 34/34/34
f 33/33/33 35/35/35 34/34/34
f 36/36/36 37/37/37 38/38/38
f 37/37/37 39/39/39 38/38/38
f 40/40/40 41/41/41 42/42/42
f 41/41/41 43/43/43 42/42/42
f 44/44/44 45/45/45 46/46/46
f 45/45/45 47/47/47 46/46/46
f 48/48/48 49/49/49 50/50/50
f 49/49/49 51/51/51 50/50/50
f 52/52/52 53/53/53 54/54/54
f 53/53/53 55/55/55 54/54/54
f 56/56/56 57/57/57 58/58/58
f 59/59/59 58/58/58 57/57/57
f 60/60/60 61/61/61 62/62/62
f 63/63/63 62/62/62 61/61/61
f 64/64/64 65/65/65 66/66/66
f 67/67/67 66/66/66 65/65/65
f 68/68/68 69/69/69 70/70/70
f 71/71/71 70/70/70 69/69/69
f 72/72/72 73/73/73 74/74/74
f 75/75/75 74/74/74 73/73/73
f 76/76/76 77/77/77 78/78/78
f 79/79/79 78/78/78 77/77/77
f 80/80/80 81/81/81 82/82/82
f 83/83/83 82/82/82 81/81/81
f 84/84/84 85/85/85 86/86/86
f 87/87/87 86/86/86 85/85/85
f 88/88/88 89/89/89 90/90/90
f 91/91/91 90/90/90 89/89/89
f 92/92/92 93/93/93 94/94/94
f 93/93/93 95/95/95 94/94/94
f 95/95/95 96/96/96 94/94/94
f 96/96/96 97/97/97 94/94/94
f 98/98/98 3/3/3 2/2/2
g Geoset1
s 1
usemtl mat_elwynnlantern01
f 99/99/99 100/100/100 101/101/101
f 102/102/102 103/103/103 104/104/104
f 105/105/105 104/104/104 103/103/103
f 103/103/103 106/106/106 105/105/105
f 107/107/107 105/105/105 106/106/106
f 108/108/108 109/109/109 110/110/110
f 111/111/111 110/110/110 109/109/109
f 109/109/109 112/112/112 111/111/111
f 113/113/113 111/111/111 112/112/112
f 114/114/114 115/115/115 116/116/116
f 117/117/117 116/116/116 115/115/115
f 115/115/115 118/118/118 117/117/117
f 119/119/119 117/117/117 118/118/118
f 120/120/120 121/121/121 122/122/122
f 100/100/100 122/122/122 121/121/121
f 121/121/121 101/101/101 100/100/100