# Exported using wow.export v0.1.49
o 
mtllib crategrainempty.mtl
v -0.5141730904579163 0.7385762333869934 0.5291484594345093
v -0.03235684707760811 0.7385761141777039 0.5291627049446106
v -0.032356902956962585 0.10542783886194229 0.5291627049446106
v 0.6175395846366882 0.7385759353637695 0.6570479273796082
v 0.6175394058227539 0.0009410258498974144 0.6570478677749634
v 0.6175395250320435 0.0009411994833499193 -0.6668596863746643
v 0.6175397038459778 0.7385762333869934 -0.6668596267700195
v -0.032356902956962585 0.10542783886194229 0.5291627049446106
v 0.5091400146484375 0.10542793571949005 -0.5392930507659912
v -0.020468246191740036 0.10542802512645721 -0.5395353436470032
v -0.032356902956962585 0.10542783886194229 0.5291627049446106
v 0.5078935623168945 0.10542774200439453 0.5291846990585327
v 0.5091400146484375 0.10542793571949005 -0.5392930507659912
v -0.514173150062561 0.10542802512645721 0.5291484594345093
v -0.020468246191740036 0.10542802512645721 -0.5395353436470032
v -0.5128539204597473 0.10542811453342438 -0.5389255285263062
v -0.514173150062561 0.10542802512645721 0.5291484594345093
v -0.032356902956962585 0.10542783886194229 0.5291627049446106
v -0.020468246191740036 0.10542802512645721 -0.5395353436470032
v -0.020468194037675858 0.7385762333869934 -0.5395353436470032
v -0.5128538608551025 0.738576352596283 -0.5389255881309509
v -0.5128539204597473 0.10542811453342438 -0.5389255285263062
v 0.5091400146484375 0.10542793571949005 -0.5392930507659912
v 0.5078935623168945 0.10542774200439453 0.5291846990585327
v 0.5078936815261841 0.7385759353637695 0.5291846394538879
v 0.5078936815261841 0.7385759353637695 0.5291846394538879
v 0.509140133857727 0.7385762333869934 -0.539293110370636
v 0.5091400146484375 0.10542793571949005 -0.5392930507659912
v -0.5128539204597473 0.10542811453342438 -0.5389255285263062
v -0.020468246191740036 0.10542802512645721 -0.5395353436470032
v -0.020468194037675858 0.7385762333869934 -0.5395353436470032
v 0.5091400146484375 0.10542793571949005 -0.5392930507659912
v 0.509140133857727 0.7385762333869934 -0.539293110370636
v 0.509140133857727 0.7385762333869934 -0.539293110370636
v -0.020468194037675858 0.7385762333869934 -0.5395353436470032
v -0.514173150062561 0.10542802512645721 0.5291484594345093
v -0.5128539204597473 0.10542811453342438 -0.5389255285263062
v -0.5128538608551025 0.738576352596283 -0.5389255881309509
v -0.5141730904579163 0.7385762333869934 0.5291484594345093
v -0.010229668579995632 0.0009411381906829774 0.6570478081703186
v -0.6254304051399231 0.0009414218366146088 -0.6668597459793091
v -0.007685896474868059 0.0009413112420588732 -0.6668597459793091
v -0.6254305243492126 0.0009412482031621039 0.6570478677749634
v -0.010229668579995632 0.0009411381906829774 0.6570478081703186
v -0.007685896474868059 0.0009413112420588732 -0.6668597459793091
v 0.6175395250320435 0.0009411994833499193 -0.6668596863746643
v 0.6175394058227539 0.0009410258498974144 0.6570478677749634
v -0.6254304051399231 0.7385762333869934 0.6570478677749634
v -0.6254303455352783 0.738576352596283 -0.6668596863746643
v -0.6254304051399231 0.0009414218366146088 -0.6668597459793091
v -0.6254305243492126 0.0009412482031621039 0.6570478677749634
v -0.6254304051399231 0.0009414218366146088 -0.6668597459793091
v -0.6254303455352783 0.738576352596283 -0.6668596863746643
v -0.019230371341109276 0.7385762929916382 -0.6668596267700195
v -0.007685896474868059 0.0009413112420588732 -0.6668597459793091
v 0.6175397038459778 0.7385762333869934 -0.6668596267700195
v 0.6175395250320435 0.0009411994833499193 -0.6668596863746643
v -0.6254304051399231 0.7385762333869934 0.6570478677749634
v -0.6254305243492126 0.0009412482031621039 0.6570478677749634
v -0.010229668579995632 0.0009411381906829774 0.6570478081703186
v -0.03362005203962326 0.7385761737823486 0.6570479869842529
v 0.6175394058227539 0.0009410258498974144 0.6570478677749634
v 0.6175395846366882 0.7385759353637695 0.6570479273796082
v -0.03235684707760811 0.7385761141777039 0.5291627049446106
v -0.03362005203962326 0.7385761737823486 0.6570479869842529
v 0.5078936815261841 0.7385759353637695 0.5291846394538879
v -0.5141730904579163 0.7385762333869934 0.5291484594345093
v -0.6254304051399231 0.7385762333869934 0.6570478677749634
v -0.5128538608551025 0.738576352596283 -0.5389255881309509
v -0.6254303455352783 0.738576352596283 -0.6668596863746643
v -0.019230371341109276 0.7385762929916382 -0.6668596267700195
v -0.020468194037675858 0.7385762333869934 -0.5395353436470032
v 0.509140133857727 0.7385762333869934 -0.539293110370636
v 0.6175397038459778 0.7385762333869934 -0.6668596267700195
v 0.6175395846366882 0.7385759353637695 0.6570479273796082
v -0.03235684707760811 0.7385761141777039 0.5291627049446106
v 0.5078936815261841 0.7385759353637695 0.5291846394538879
v 0.5078935623168945 0.10542774200439453 0.5291846990585327
v -0.03235684707760811 0.7385761141777039 0.5291627049446106
v -0.514173150062561 0.10542802512645721 0.5291484594345093
v -0.5141730904579163 0.7385762333869934 0.5291484594345093
vn 0.000029623732189065777 4.7451248263996604e-8 -1
vn 0.000029623732189065777 4.7451248263996604e-8 -1
vn 0.000040742412238614634 4.745018600260664e-8 -1
vn 0.5773502588272095 0.5773501992225647 0.5773503184318542
vn 0.5773501396179199 -0.5773504376411438 0.5773501992225647
vn 0.5773502588272095 -0.5773502588272095 -0.5773503184318542
vn 0.5773504376411438 0.5773501992225647 -0.5773501992225647
vn 1.685647106342003e-7 1 1.8071004603825713e-7
vn 1.685647106342003e-7 1 1.8071004603825713e-7
vn 1.685647106342003e-7 1 1.8071004603825713e-7
vn 1.6858537321695621e-7 1 1.8072051943818224e-7
vn 1.6858537321695621e-7 1 1.8072051943818224e-7
vn 1.6858537321695621e-7 1 1.8072051943818224e-7
vn 1.6852595763339195e-7 1 8.152900221602977e-8
vn 1.6852595763339195e-7 1 8.152900221602977e-8
vn 1.6852595763339195e-7 1 8.152900221602977e-8
vn 3.8851163708386593e-7 1 1.8315682837055647e-7
vn 3.8851163708386593e-7 1 1.8315682837055647e-7
vn 3.8851163708386593e-7 1 1.8315682837055647e-7
vn 0.0012383520370349288 3.6004571768444293e-8 0.9999992251396179
vn 0.0012383520370349288 3.6004571768444293e-8 0.9999992251396179
vn 0.0012383520370349288 3.6004571768444293e-8 0.9999992251396179
vn -0.9999993443489075 8.463150180659795e-8 -0.0011665679048746824
vn -0.9999993443489075 8.463150180659795e-8 -0.0011665679048746824
vn -0.9999993443489075 8.463150180659795e-8 -0.0011665679048746824
vn -0.9999993443489075 1.6831154425744899e-7 -0.0011666174978017807
vn -0.9999993443489075 1.6831154425744899e-7 -0.0011666174978017807
vn -0.9999993443489075 1.6831154425744899e-7 -0.0011666174978017807
vn 0.0012384596047922969 -4.757184157710981e-8 0.9999992251396179
vn 0.0012384596047922969 -4.757184157710981e-8 0.9999992251396179
vn 0.0012384596047922969 -4.757184157710981e-8 0.9999992251396179
vn -0.00045762574882246554 3.6303088535305506e-8 0.9999998807907104
vn -0.00045762574882246554 3.6303088535305506e-8 0.9999998807907104
vn -0.00045752566074952483 -4.7410523507096514e-8 0.9999998807907104
vn -0.00045752566074952483 -4.7410523507096514e-8 0.9999998807907104
vn 0.9999992251396179 -1.7876905644698127e-7 0.0012351102195680141
vn 0.9999992251396179 -1.7876905644698127e-7 0.0012351102195680141
vn 0.9999992251396179 -1.7876905644698127e-7 0.0012351102195680141
vn 0.9999992251396179 -1.7876905644698127e-7 0.0012351102195680141
vn -1.5011792697805504e-7 -0.7071069478988647 0.7071066498756409
vn -0.5773503184318542 -0.5773500800132751 -0.577350378036499
vn -8.830065212350746e-8 -0.7071066498756409 -0.70710688829422
vn -0.577350378036499 -0.5773502588272095 0.5773501396179199
vn -1.5011792697805504e-7 -0.7071069478988647 0.7071066498756409
vn -8.830065212350746e-8 -0.7071066498756409 -0.70710688829422
vn 0.5773502588272095 -0.5773502588272095 -0.5773503184318542
vn 0.5773501396179199 -0.5773504376411438 0.5773501992225647
vn -0.5773503184318542 0.5773500204086304 0.5773504376411438
vn -0.5773501992225647 0.5773503184318542 -0.5773502588272095
vn -0.5773503184318542 -0.5773500800132751 -0.577350378036499
vn -0.577350378036499 -0.5773502588272095 0.5773501396179199
vn -0.5773503184318542 -0.5773500800132751 -0.577350378036499
vn -0.5773501992225647 0.5773503184318542 -0.5773502588272095
vn 1.8178427296788868e-7 0.70710688829422 -0.7071067094802856
vn -8.830065212350746e-8 -0.7071066498756409 -0.70710688829422
vn 0.5773504376411438 0.5773501992225647 -0.5773501992225647
vn 0.5773502588272095 -0.5773502588272095 -0.5773503184318542
vn -0.5773503184318542 0.5773500204086304 0.5773504376411438
vn -0.577350378036499 -0.5773502588272095 0.5773501396179199
vn -1.5011792697805504e-7 -0.7071069478988647 0.7071066498756409
vn 1.503211990439013e-7 0.7071066498756409 0.70710688829422
vn 0.5773501396179199 -0.5773504376411438 0.5773501992225647
vn 0.5773502588272095 0.5773501992225647 0.5773503184318542
vn 2.725661261138157e-7 1 1.3216123306847294e-7
vn 1.503211990439013e-7 0.7071066498756409 0.70710688829422
vn -6.56030962886689e-8 1 -4.797172081794088e-8
vn -7.088166142921182e-8 1 3.08995254272304e-7
vn -0.5773503184318542 0.5773500204086304 0.5773504376411438
vn -6.745752756387446e-8 1 -4.809234255276351e-8
vn -0.5773501992225647 0.5773503184318542 -0.5773502588272095
vn 1.8178427296788868e-7 0.70710688829422 -0.7071067094802856
vn 2.227354229944467e-7 1 1.3166058465685637e-7
vn 1.9881953505773708e-7 1 1.568238872096117e-7
vn 0.5773504376411438 0.5773501992225647 -0.5773501992225647
vn 0.5773502588272095 0.5773501992225647 0.5773503184318542
vn 0.00004064434324391186 -3.6229490518735474e-8 -1
vn 0.00004064434324391186 -3.6229490518735474e-8 -1
vn 0.000040742412238614634 4.745018600260664e-8 -1
vn 0.000040742412238614634 4.745018600260664e-8 -1
vn 0.000029513767003663816 -3.6231323718993735e-8 -1
vn 0.000029513767003663816 -3.6231323718993735e-8 -1
vt 0.0012565404176712036 0.46084916591644287
vt 0.47926414012908936 0.4608464241027832
vt 0.47926414012908936 0.10195255279541016
vt 0.00021797718363814056 0.46013927459716797
vt 0.00021800672402605414 0.0004995465278625488
vt 0.9995004534721375 0.0004998445510864258
vt 0.9995002150535583 0.4601396322250366
vt 0.8980306386947632 0.9993494749069214
vt 0.10217534750699997 0.662335216999054
vt 0.1019488200545311 0.9989978075027466
vt 0.8980306386947632 0.9993494749069214
vt 0.8980512022972107 0.6635520458221436
vt 0.10217534750699997 0.662335216999054
vt 0.898017406463623 0.6637515425682068
vt 0.1019488200545311 0.9989978075027466
vt 0.10251884907484055 0.6624637842178345
vt 0.898017406463623 0.6637515425682068
vt 0.8980306386947632 0.9993494749069214
vt 0.1019488200545311 0.9989978075027466
vt 0.4801607131958008 0.4608510732650757
vt 0.00233488529920578 0.4608539342880249
vt 0.0023348480463027954 0.1019599437713623
vt -0.003574426518753171 0.10195314884185791
vt 0.994823157787323 0.10194861888885498
vt 0.994823157787323 0.4584321975708008
vt 0.994823157787323 0.4584321975708008
vt -0.00357440416701138 0.45843684673309326
vt -0.003574426518753171 0.10195314884185791
vt 0.0023348480463027954 0.1019599437713623
vt 0.4801607131958008 0.10195720195770264
vt 0.4801607131958008 0.4608510732650757
vt 0.9972386360168457 0.10195505619049072
vt 0.9972386360168457 0.46084892749786377
vt 0.9972386360168457 0.46084892749786377
vt 0.4801607131958008 0.4608510732650757
vt 0.9947947859764099 0.10195016860961914
vt -0.0032866999972611666 0.10195392370223999
vt -0.0032866999972611666 0.45843756198883057
vt 0.9947947859764099 0.4584338665008545
vt 0.9995002150535583 0.9995627999305725
vt 0.0004995465278625488 0.4980599880218506
vt 0.0004995465278625488 0.9995855689048767
vt 0.9995002150535583 0.4980599880218506
vt 0.9995002150535583 0.9948034286499023
vt 0.0004995465278625488 0.9947791695594788
vt 0.0004995465278625488 0.5018940567970276
vt 0.9995002150535583 0.5018940567970276
vt 0.9995004534721375 0.46013927459716797
vt 0.00021800672402605414 0.4601396322250366
vt 0.00021797718363814056 0.0004998445510864258
vt 0.9995002150535583 0.0004995465278625488
vt 0.9982147216796875 0.000499725341796875
vt 0.9982146620750427 0.46013951301574707
vt 0.486456960439682 0.4601393938064575
vt 0.4863557517528534 0.000499725341796875
vt 0.00005866475839866325 0.4601393938064575
vt 0.00005866475839866325 0.0004996657371520996
vt 0.0002179643779527396 0.4601393938064575
vt 0.00021796979126520455 0.0004996657371520996
vt 0.4862819015979767 0.0004996657371520996
vt 0.48607686161994934 0.4601393938064575
vt 0.9995002746582031 0.000499725341796875
vt 0.9995002746582031 0.46013951301574707
vt 0.49131760001182556 0.6132421493530273
vt 0.4913078546524048 0.5036938190460205
vt 0.9996351599693298 0.6122697591781616
vt 0.9996078610420227 0.6116539239883423
vt 0.9995005130767822 0.5028926730155945
vt -0.0044125900603830814 0.6118959784507751
vt -0.004331378731876612 0.5028926730155945
vt 0.4917892515659332 0.5032155513763428
vt 0.4913456439971924 0.61161208152771
vt -0.004689870867878199 0.6120410561561584
vt -0.004331378731876612 0.5038958191871643
vt 0.9995005130767822 0.5038958191871643
vt 0.47926414012908936 0.4608464241027832
vt 0.9962197542190552 0.46084344387054443
vt 0.9962196350097656 0.10194957256317139
vt 0.47926414012908936 0.4608464241027832
vt 0.001256510615348816 0.10195529460906982
vt 0.0012565404176712036 0.46084916591644287
g Geoset0
s 1
usemtl mat_graincratefull01
f 1/1/1 2/2/2 3/3/3
f 4/4/4 5/5/5 6/6/6
f 6/6/6 7/7/7 4/4/4
f 8/8/8 9/9/9 10/10/10
f 11/11/11 12/12/12 13/13/13
f 14/14/14 15/15/15 16/16/16
f 17/17/17 18/18/18 19/19/19
f 20/20/20 21/21/21 22/22/22
f 23/23/23 24/24/24 25/25/25
f 26/26/26 27/27/27 28/28/28
f 29/29/29 30/30/30 31/31/31
f 30/30/30 32/32/32 33/33/33
f 34/34/34 35/35/35 30/30/30
f 36/36/36 37/37/37 38/38/38
f 38/38/38 39/39/39 36/36/36
f 40/40/40 41/41/41 42/42/42
f 41/41/41 40/40/40 43/43/43
f 44/44/44 45/45/45 46/46/46
f 46/46/46 47/47/47 44/44/44
f 48/48/48 49/49/49 50/50/50
f 50/50/50 51/51/51 48/48/48
f 52/52/52 53/53/53 54/54/54
f 54/54/54 55/55/55 52/52/52
f 55/55/55 54/54/54 56/56/56
f 56/56/56 57/57/57 55/55/55
f 58/58/58 59/59/59 60/60/60
f 60/60/60 61/61/61 58/58/58
f 61/61/61 60/60/60 62/62/62
f 62/62/62 63/63/63 61/61/61
f 64/64/64 65/65/65 66/66/66
f 65/65/65 64/64/64 67/67/67
f 67/67/67 68/68/68 65/65/65
f 69/69/69 68/68/68 67/67/67
f 70/70/70 68/68/68 69/69/69
f 69/69/69 71/71/71 70/70/70
f 69/69/69 72/72/72 71/71/71
f 73/73/73 71/71/71 72/72/72
f 73/73/73 74/74/74 71/71/71
f 66/66/66 74/74/74 73/73/73
f 75/75/75 74/74/74 66/66/66
f 66/66/66 65/65/65 75/75/75
f 76/76/76 77/77/77 78/78/78
f 78/78/78 3/3/3 79/79/79
f 3/3/3 80/80/80 81/81/81