# Exported using wow.export v0.1.49
o 
mtllib replacecrate02.mtl
v 0.2587752342224121 0.6877955198287964 0.44946131110191345
v 0.2587752342224121 0.6877955198287964 -0.4499635696411133
v -0.26368486881256104 0.6877955198287964 -0.4499635696411133
v -0.26368486881256104 0.6877955198287964 0.44946131110191345
v -0.26368486881256104 0.6877955198287964 -0.4499635696411133
v -0.26368486881256104 0 -0.4499635696411133
v -0.26368486881256104 0 0.44946131110191345
v 0.2587752342224121 0.6877955198287964 -0.4499635696411133
v 0.2587752342224121 0.6877955198287964 0.44946131110191345
v 0.2587752342224121 0 0.44946131110191345
v 0.2587752342224121 0 -0.4499635696411133
v -0.26368486881256104 0 -0.4499635696411133
v 0.2587752342224121 0 -0.4499635696411133
v 0.2587752342224121 0 0.44946131110191345
v -0.26368486881256104 0 0.44946131110191345
v -0.26368486881256104 0 0.44946131110191345
v 0.2587752342224121 0.6877955198287964 0.44946131110191345
v -0.26368486881256104 0.6877955198287964 0.44946131110191345
v 0.2587752342224121 0.6877955198287964 -0.4499635696411133
v -0.26368486881256104 0 -0.4499635696411133
vn 0.5773502588272095 0.5773502588272095 0.5773502588272095
vn 0.5773502588272095 0.5773502588272095 -0.5773502588272095
vn -0.5773503184318542 0.5773502588272095 -0.5773502588272095
vn -0.5773502588272095 0.5773502588272095 0.5773502588272095
vn -0.5773503184318542 0.5773502588272095 -0.5773502588272095
vn -0.5773502588272095 -0.5773502588272095 -0.5773502588272095
vn -0.5773502588272095 -0.5773502588272095 0.5773502588272095
vn 0.5773502588272095 0.5773502588272095 -0.5773502588272095
vn 0.5773502588272095 0.5773502588272095 0.5773502588272095
vn 0.5773502588272095 -0.5773502588272095 0.5773503184318542
vn 0.5773502588272095 -0.5773502588272095 -0.5773502588272095
vn -0.5773502588272095 -0.5773502588272095 -0.5773502588272095
vn 0.5773502588272095 -0.5773502588272095 -0.5773502588272095
vn 0.5773502588272095 -0.5773502588272095 0.5773503184318542
vn -0.5773502588272095 -0.5773502588272095 0.5773502588272095
vn -0.5773502588272095 -0.5773502588272095 0.5773502588272095
vn 0.5773502588272095 0.5773502588272095 0.5773502588272095
vn -0.5773502588272095 0.5773502588272095 0.5773502588272095
vn 0.5773502588272095 0.5773502588272095 -0.5773502588272095
vn -0.5773502588272095 -0.5773502588272095 -0.5773502588272095
vt 0.0004995167255401611 0.0004999637603759766
vt 0.9995003938674927 0.0004994869232177734
vt 0.999500036239624 0.9995005130767822
vt 0.9995003938674927 0.9995005130767822
vt 0.0004995167255401611 0.9995005130767822
vt 0.0004995167255401611 0.0004994869232177734
vt 0.9995003938674927 0.0004994869232177734
vt 0.9995003938674927 0.9995005130767822
vt 0.0004995167255401611 0.9995005130767822
vt 0.0004995167255401611 0.0004994869232177734
vt 0.9995003938674927 0.0004994869232177734
vt 0.0004995167255401611 0.999500036239624
vt 0.0004995167255401611 0.0004994869232177734
vt 0.9995005130767822 0.0004999637603759766
vt 0.9995003938674927 0.9995005130767822
vt 0.0004995167255401611 0.0004994869232177734
vt 0.999500036239624 0.9995005130767822
vt 0.0004995167255401611 0.9995005130767822
vt 0.0004995167255401611 0.9995005130767822
vt 0.999500036239624 0.0004994869232177734
g Geoset0
s 1
usemtl mat_stormwindcrate01
f 1/1/1 2/2/2 3/3/3
f 4/4/4 5/5/5 6/6/6
f 6/6/6 7/7/7 4/4/4
f 8/8/8 9/9/9 10/10/10
f 10/10/10 11/11/11 8/8/8
f 12/12/12 13/13/13 14/14/14
f 14/14/14 15/15/15 12/12/12
f 16/16/16 14/14/14 17/17/17
f 17/17/17 18/18/18 16/16/16
f 3/3/3 19/19/19 13/13/13
f 13/13/13 20/20/20 3/3/3
f 3/3/3 18/18/18 1/1/1