# Exported using wow.export v0.1.49
o 
mtllib battlegladepolearmskull.mtl
v -0.4656320810317993 1.3586527109146118 -0.08135607838630676
v -0.3299231231212616 1.2481770515441895 -0.12123458832502365
v -0.4386833906173706 1.3178694248199463 -0.1707574874162674
v 0.040979012846946716 0.11915797740221024 -0.06466683000326157
v 0.07435383647680283 0.1526567041873932 -0.029708275571465492
v 0.0413399375975132 0.1264735460281372 0.01967727206647396
v -0.3299231231212616 1.2481770515441895 -0.12123458832502365
v 0.0413399375975132 0.1264735460281372 0.01967727206647396
v 0.07435383647680283 0.1526567041873932 -0.029708275571465492
v -0.4656320810317993 1.3586527109146118 -0.08135607838630676
v 0.040979012846946716 0.11915797740221024 -0.06466683000326157
v -0.4386833906173706 1.3178694248199463 -0.1707574874162674
v 0.07435383647680283 0.1526567041873932 -0.029708275571465492
v -0.3299231231212616 1.2481770515441895 -0.12123458832502365
v -0.13742350041866302 0.4614408314228058 0.010012945160269737
v -0.004771366249769926 0.5026165843009949 -0.00324115133844316
v -0.004771343898028135 0.4936803877353668 -0.10538268834352493
v -0.004771366249769926 0.5026165843009949 -0.00324115133844316
v 0.07407814264297485 0.32515543699264526 -0.09150386601686478
v -0.004771343898028135 0.4936803877353668 -0.10538268834352493
v 0.07407812774181366 0.3342418968677521 0.012355062179267406
v -0.08617492765188217 0.25693681836128235 0.01489743310958147
v -0.086174875497818 0.24852149188518524 -0.08129023015499115
v 0.07407812774181366 0.3342418968677521 0.012355062179267406
v 0.07407814264297485 0.32515543699264526 -0.09150386601686478
v -0.0885881558060646 0.13426823914051056 0.016728123649954796
v 0.02319515123963356 -0.07994779199361801 -0.005213351454585791
v -0.0835328921675682 0.124867282807827 -0.05999653413891792
v -0.086174875497818 0.24852149188518524 -0.08129023015499115
v -0.08617492765188217 0.25693681836128235 0.01489743310958147
v -0.22111833095550537 0.6423429846763611 -0.06840572506189346
v -0.17493148148059845 0.5107004642486572 -0.012967155314981937
v -0.17340977489948273 0.5021249055862427 -0.0931817963719368
v -0.13742347061634064 0.4507584571838379 -0.11208750307559967
v -0.13742350041866302 0.4614408314228058 0.010012945160269737
v 0.07116110622882843 0.47493088245391846 -0.01165608037263155
v 0.1020125076174736 0.4053483307361603 -0.04787631332874298
v 0.3761448264122009 0.5814812779426575 -0.06328584998846054
v 0.018713798373937607 0.4289681017398834 -0.031131751835346222
v 0.03243102505803108 0.3980301320552826 -0.04723607003688812
v 0.07116112112998962 0.46758419275283813 -0.09562915563583374
v 0.07116110622882843 0.47493088245391846 -0.01165608037263155
v 0.3761448264122009 0.5814812779426575 -0.06328584998846054
v 0.018713809549808502 0.4257016181945801 -0.06846805661916733
v 0.018713798373937607 0.4289681017398834 -0.031131751835346222
v 0.1020125076174736 0.4053483307361603 -0.04787631332874298
v 0.07116112112998962 0.46758419275283813 -0.09562915563583374
v 0.3761448264122009 0.5814812779426575 -0.06328584998846054
v 0.03243102505803108 0.3980301320552826 -0.04723607003688812
v 0.018713809549808502 0.4257016181945801 -0.06846805661916733
v -0.08617492765188217 0.25693681836128235 0.01489743310958147
v 0.07407812774181366 0.3342418968677521 0.012355062179267406
v -0.13742350041866302 0.4614408314228058 0.010012945160269737
v -0.004771366249769926 0.5026165843009949 -0.00324115133844316
v -0.22111833095550537 0.6423429846763611 -0.06840572506189346
v -0.33502334356307983 0.4128125011920929 -0.048324424773454666
v -0.17493148148059845 0.5107004642486572 -0.012967155314981937
v -0.32934823632240295 0.23278184235095978 -0.03257377818226814
v -0.19776852428913116 0.054287005215883255 -0.01695745624601841
v -0.0885881558060646 0.13426823914051056 0.016728123649954796
v 0.02319515123963356 -0.07994779199361801 -0.005213351454585791
v -0.004771343898028135 0.4936803877353668 -0.10538268834352493
v 0.07407814264297485 0.32515543699264526 -0.09150386601686478
v -0.13742347061634064 0.4507584571838379 -0.11208750307559967
v -0.086174875497818 0.24852149188518524 -0.08129023015499115
v -0.22111833095550537 0.6423429846763611 -0.06840572506189346
v -0.17340977489948273 0.5021249055862427 -0.0931817963719368
v -0.33502334356307983 0.4128125011920929 -0.048324424773454666
v -0.32934823632240295 0.23278184235095978 -0.03257377818226814
v -0.19776852428913116 0.054287005215883255 -0.01695745624601841
v -0.0835328921675682 0.124867282807827 -0.05999653413891792
v 0.02319515123963356 -0.07994779199361801 -0.005213351454585791
v -0.13742347061634064 0.4507584571838379 -0.11208750307559967
vn -0.5272926688194275 0.746666669845581 0.4055260121822357
vn 0.8886119723320007 0.4567006826400757 -0.042346443980932236
vn -0.3831491768360138 0.46386924386024475 -0.7987627983093262
vn -0.04774831235408783 -0.7459957599639893 -0.6642366647720337
vn 0.9970405697822571 -0.05815199762582779 -0.050283391028642654
vn -0.014719979837536812 -0.6070848703384399 0.7945006489753723
vn 0.8886119723320007 0.4567006826400757 -0.042346443980932236
vn -0.014719979837536812 -0.6070848703384399 0.7945006489753723
vn 0.9970405697822571 -0.05815199762582779 -0.050283391028642654
vn -0.5272926688194275 0.746666669845581 0.4055260121822357
vn -0.04774831235408783 -0.7459957599639893 -0.6642366647720337
vn -0.3831491768360138 0.46386924386024475 -0.7987627983093262
vn 0.9970405697822571 -0.05815199762582779 -0.050283391028642654
vn 0.8886119723320007 0.4567006826400757 -0.042346443980932236
vn -0.018109429627656937 0.5363574028015137 0.8437966108322144
vn 0.3419913053512573 0.8008101582527161 0.4916757345199585
vn 0.34330376982688904 0.7042983174324036 -0.6213746666908264
vn 0.3419913053512573 0.8008101582527161 0.4916757345199585
vn 0.7719941735267639 -0.3282339572906494 -0.5443229675292969
vn 0.34330376982688904 0.7042983174324036 -0.6213746666908264
vn 0.7707866430282593 -0.22876499593257904 0.5946044921875
vn 0.3295424282550812 -0.3103066086769104 0.8916903138160706
vn 0.33524152636528015 -0.454897940158844 -0.8250339031219482
vn 0.7707866430282593 -0.22876499593257904 0.5946044921875
vn 0.7719941735267639 -0.3282339572906494 -0.5443229675292969
vn 0.48443135619163513 0.10484535247087479 0.868523895740509
vn 0.6153904795646667 -0.785577118396759 0.06452219188213348
vn 0.5537952780723572 -0.024205073714256287 -0.8323009610176086
vn 0.33524152636528015 -0.454897940158844 -0.8250339031219482
vn 0.3295424282550812 -0.3103066086769104 0.8916903138160706
vn -0.059629783034324646 0.9928297996520996 -0.10360150784254074
vn 0.38065841794013977 0.553930938243866 0.740445613861084
vn 0.41120654344558716 0.44553542137145996 -0.7952404618263245
vn -0.026644358411431313 0.39205440878868103 -0.9195560812950134
vn -0.018109429627656937 0.5363574028015137 0.8437966108322144
vn -0.31726744771003723 0.4850725829601288 0.8148901462554932
vn 0.3424154222011566 -0.9359734058380127 0.08188685774803162
vn 0.911764919757843 0.4091496765613556 -0.0357954278588295
vn -0.5429264903068542 0.28476911783218384 0.790023684501648
vn 0.10499264299869537 -0.9906887412071228 0.08667367696762085
vn -0.31726714968681335 0.3361995816230774 -0.8867419958114624
vn -0.31726744771003723 0.4850725829601288 0.8148901462554932
vn 0.911764919757843 0.4091496765613556 -0.0357954278588295
vn -0.5429261326789856 0.14325712621212006 -0.8274711966514587
vn -0.5429264903068542 0.28476911783218384 0.790023684501648
vn 0.3424154222011566 -0.9359734058380127 0.08188685774803162
vn -0.31726714968681335 0.3361995816230774 -0.8867419958114624
vn 0.911764919757843 0.4091496765613556 -0.0357954278588295
vn 0.10499264299869537 -0.9906887412071228 0.08667367696762085
vn -0.5429261326789856 0.14325712621212006 -0.8274711966514587
vn 0.3295424282550812 -0.3103066086769104 0.8916903138160706
vn 0.7707866430282593 -0.22876499593257904 0.5946044921875
vn -0.018109429627656937 0.5363574028015137 0.8437966108322144
vn 0.3419913053512573 0.8008101582527161 0.4916757345199585
vn -0.059629783034324646 0.9928297996520996 -0.10360150784254074
vn -0.9872580766677856 0.15767645835876465 -0.021438106894493103
vn 0.38065841794013977 0.553930938243866 0.740445613861084
vn -0.9245861768722534 -0.37984925508499146 0.029240034520626068
vn -0.7303979396820068 -0.6812025904655457 0.049818769097328186
vn 0.48443135619163513 0.10484535247087479 0.868523895740509
vn 0.6153904795646667 -0.785577118396759 0.06452219188213348
vn 0.34330376982688904 0.7042983174324036 -0.6213746666908264
vn 0.7719941735267639 -0.3282339572906494 -0.5443229675292969
vn -0.026644358411431313 0.39205440878868103 -0.9195560812950134
vn 0.33524152636528015 -0.454897940158844 -0.8250339031219482
vn -0.059629783034324646 0.9928297996520996 -0.10360150784254074
vn 0.41120654344558716 0.44553542137145996 -0.7952404618263245
vn -0.9872580766677856 0.15767645835876465 -0.021438106894493103
vn -0.9245861768722534 -0.37984925508499146 0.029240034520626068
vn -0.7303979396820068 -0.6812025904655457 0.049818769097328186
vn 0.5537952780723572 -0.024205073714256287 -0.8323009610176086
vn 0.6153904795646667 -0.785577118396759 0.06452219188213348
vn -0.026644358411431313 0.39205440878868103 -0.9195560812950134
vt 0.052350543439388275 0.6361817717552185
vt 0.35124462842941284 0.4155157208442688
vt 0.7254435420036316 0.6276237368583679
vt 0.6925656795501709 0.6299363970756531
vt 0.3573529124259949 0.4067610502243042
vt 0.05948227643966675 0.6325374245643616
vt 0.9849463105201721 1.0333048105239868
vt 0.627058207988739 -0.21210849285125732
vt 0.9849463105201721 -0.21210849285125732
vt 0.6217284798622131 1.157362461090088
vt 0.3001391887664795 -0.21210849285125732
vt 0.29480940103530884 1.157362461090088
vt 0.004189625382423401 -0.21210849285125732
vt 0.004189625382423401 1.0333048105239868
vt 0.694324254989624 0.545564591884613
vt 0.742936372756958 0.8122819066047668
vt 0.6120942831039429 0.9173642992973328
vt 0.5511308908462524 0.6099073886871338
vt 0.738703727722168 0.8066278100013733
vt 0.6126970052719116 0.9132465720176697
vt 0.690090537071228 0.545202374458313
vt 0.7434939742088318 0.8171666860580444
vt 0.6131296753883362 0.9152276515960693
vt 0.694324254989624 0.5455645322799683
vt 0.5537945628166199 0.611706554889679
vt 0.34704264998435974 0.48420095443725586
vt 0.3146427571773529 0.27478575706481934
vt 0.41767653822898865 0.41128265857696533
vt 0.45286324620246887 0.4971628785133362
vt 0.3775670826435089 0.5724591612815857
vt 0.47387105226516724 0.16173481941223145
vt 0.564049482345581 0.3283696174621582
vt 0.4750903844833374 0.3712812662124634
vt 0.4895985722541809 0.45741331577301025
vt 0.574359118938446 0.4002872705459595
vt 0.6670048236846924 0.5401443839073181
vt 0.5419344305992126 0.6100509762763977
vt 0.6566687226295471 0.8953660130500793
vt 0.6132112741470337 0.40410441160202026
vt 0.5585228204727173 0.44197046756744385
vt 0.6659271717071533 0.5373899936676025
vt 0.543502688407898 0.6102093458175659
vt 0.6558825373649597 0.902082622051239
vt 0.6140840649604797 0.4049953818321228
vt 0.5572677254676819 0.4428614377975464
vt 0.6658785939216614 0.5395587086677551
vt 0.54216068983078 0.6109873056411743
vt 0.6539334654808044 0.8896217346191406
vt 0.6124175786972046 0.4075840711593628
vt 0.5574098229408264 0.43934279680252075
vt 0.4830687940120697 0.6421094536781311
vt 0.5628920793533325 0.990609884262085
vt 0.7353479862213135 0.5137324929237366
vt 0.7831000685691833 0.8313248753547668
vt 0.9938193559646606 0.3232046365737915
vt 0.6991676092147827 0.03206014633178711
vt 0.827476441860199 0.4230412244796753
vt 0.4375005066394806 0.03016883134841919
vt 0.18814663589000702 0.33183538913726807
vt 0.2841285467147827 0.6150863766670227
vt 0.010757449083030224 0.8471994996070862
vt 0.7842543721199036 0.8284021019935608
vt 0.5626229047775269 1.0003582239151
vt 0.7389872074127197 0.5151054263114929
vt 0.4819793403148651 0.6433476805686951
vt 0.9969489574432373 0.3182116746902466
vt 0.8298562169075012 0.42639148235321045
vt 0.7010992169380188 0.031112968921661377
vt 0.43564823269844055 0.0262640118598938
vt 0.189446359872818 0.333152174949646
vt 0.28438377380371094 0.6102050542831421
vt 0.00950481928884983 0.8499612212181091
vt 0.5537945628166199 0.611706554889679
g Geoset0
s 1
usemtl mat_battlegladepost03
f 1/1/1 2/2/2 3/3/3
f 4/4/4 5/5/5 6/6/6
f 7/7/7 8/8/8 9/9/9
f 7/7/7 10/10/10 8/8/8
f 10/10/10 11/11/11 8/8/8
f 10/10/10 12/12/12 11/11/11
f 12/12/12 13/13/13 11/11/11
f 12/12/12 14/14/14 13/13/13
g Geoset1
s 1
usemtl mat_battlegladeaxe
f 15/15/15 16/16/16 17/17/17
f 18/18/18 19/19/19 20/20/20
f 18/18/18 21/21/21 19/19/19
f 22/22/22 23/23/23 24/24/24
f 23/23/23 25/25/25 24/24/24
f 26/26/26 27/27/27 28/28/28
f 29/29/29 26/26/26 28/28/28
f 29/29/29 30/30/30 26/26/26
f 31/31/31 32/32/32 33/33/33
f 32/32/32 34/34/34 33/33/33
f 32/32/32 35/35/35 34/34/34
f 36/36/36 37/37/37 38/38/38
f 39/39/39 37/37/37 36/36/36
f 39/39/39 40/40/40 37/37/37
f 41/41/41 42/42/42 43/43/43
f 44/44/44 42/42/42 41/41/41
f 44/44/44 45/45/45 42/42/42
f 46/46/46 47/47/47 48/48/48
f 49/49/49 47/47/47 46/46/46
f 49/49/49 50/50/50 47/47/47
f 51/51/51 52/52/52 53/53/53
f 54/54/54 53/53/53 52/52/52
f 55/55/55 56/56/56 57/57/57
f 57/57/57 56/56/56 53/53/53
f 58/58/58 53/53/53 56/56/56
f 51/51/51 53/53/53 58/58/58
f 59/59/59 51/51/51 58/58/58
f 59/59/59 60/60/60 51/51/51
f 59/59/59 61/61/61 60/60/60
f 62/62/62 63/63/63 64/64/64
f 65/65/65 64/64/64 63/63/63
f 66/66/66 67/67/67 68/68/68
f 67/67/67 64/64/64 68/68/68
f 68/68/68 64/64/64 69/69/69
f 69/69/69 64/64/64 65/65/65
f 70/70/70 69/69/69 65/65/65
f 70/70/70 65/65/65 71/71/71
f 70/70/70 71/71/71 72/72/72
f 17/17/17 73/73/73 15/15/15