# Exported using wow.export v0.1.49
o 
mtllib bubblingbowl01.mtl
v -0.46891239285469055 0.31309086084365845 0.000455059896921739
v -0.3473723530769348 0.31309086084365845 -0.29296866059303284
v -0.3728874921798706 0.3603495657444 -0.31848376989364624
v 0.26499032974243164 0.3603495657444 -0.3184838891029358
v 0.23947522044181824 0.31309086084365845 -0.29296875
v 0.3610154092311859 0.31309086084365845 0.0004549873119685799
v 0.39709916710853577 0.3603495657444 0.0004549825971480459
v 0.2394753098487854 0.31309086084365845 0.29387879371643066
v 0.2649904489517212 0.3603495657444 0.31939390301704407
v -0.05394845828413963 0.31309086084365845 0.41541892290115356
v -0.053948454558849335 0.3603495657444 0.4515027403831482
v -0.34737223386764526 0.31309086084365845 0.29387885332107544
v -0.37288734316825867 0.3603495657444 0.31939399242401123
v -0.5049961805343628 0.36034953594207764 0.0004550614394247532
v -0.5642507076263428 0.3623325526714325 0.00045506402966566384
v -0.4147867262363434 0.3623325526714325 -0.3603830337524414
v -0.41478660702705383 0.0014944078866392374 0.00045505751040764153
v -0.30909961462020874 0.0014944078866392374 -0.25469598174095154
v -0.05394849553704262 0.31304335594177246 0.000455041736131534
v -0.05394855886697769 0.0014944078866392374 -0.3603830933570862
v 0.20120255649089813 0.0014944078866392374 -0.2546960711479187
v 0.3068895936012268 0.3623325526714325 -0.36038318276405334
v 0.45635372400283813 0.3623325526714325 0.00045497482642531395
v -0.30909958481788635 0.0014944078866392374 0.25560614466667175
v -0.05394846200942993 0.0014944078866392374 0.36129316687583923
v -0.41478660702705383 0.3623325526714325 0.361293226480484
v -0.053948450833559036 0.3623325526714325 0.5107572674751282
v 0.2012026011943817 0.0014944078866392374 0.255606085062027
v 0.3068896234035492 0.0014944078866392374 0.0004549943841993809
v 0.30688971281051636 0.3623325526714325 0.36129316687583923
v -0.05394858494400978 0.3623325526714325 -0.5098471641540527
v -0.053948573768138885 0.3603495657444 -0.45059263706207275
v -0.05394857004284859 0.31309086084365845 -0.4145088493824005
v -0.05394849553704262 0.3130509853363037 0.000455041736131534
v -0.34737223386764526 0.31309086084365845 0.29387885332107544
v -0.05394845828413963 0.31309086084365845 0.41541892290115356
v -0.46891239285469055 0.31309086084365845 0.000455059896921739
v -0.3473723530769348 0.31309086084365845 -0.29296866059303284
v -0.05394857004284859 0.31309086084365845 -0.4145088493824005
v 0.23947522044181824 0.31309086084365845 -0.29296875
v 0.3610154092311859 0.31309086084365845 0.0004549873119685799
v 0.2394753098487854 0.31309086084365845 0.29387879371643066
vn 0.7948055863380432 0.6068641543388367 -8.628358472151376e-8
vn 0.5620124936103821 0.6068641543388367 0.5620123744010925
vn 0.36013057827949524 0.8619135618209839 0.3569467067718506
vn -0.35579875111579895 0.8928872346878052 0.27597036957740784
vn -0.4815237820148468 0.6032427549362183 0.6357932090759277
vn -0.7900624871253967 0.6032426953315735 0.10908498615026474
vn -0.44672825932502747 0.8928872346878052 -0.05644717440009117
vn -0.6357932090759277 0.6032427549362183 -0.4815237820148468
vn -0.27597033977508545 0.8928872346878052 -0.35579875111579895
vn -0.10908492654561996 0.6032426953315735 -0.7900624871253967
vn 0.05644720792770386 0.8928872346878052 -0.44672825932502747
vn 0.4815237820148468 0.6032427549362183 -0.6357932090759277
vn 0.35579875111579895 0.8928872346878052 -0.27597033977508545
vn 0.361661434173584 0.932304322719574 -0.003111466532573104
vn -0.785362184047699 0.6078444719314575 0.11718076467514038
vn -0.6381942629814148 0.6078445315361023 -0.47247549891471863
vn -0.4603962004184723 -0.8790095448493958 -0.12400630116462708
vn -0.23786361515522003 -0.8790095448493958 -0.41323497891426086
vn 3.0593060529326976e-8 -1 2.039537250198009e-8
vn 0.12400628626346588 -0.8790095448493958 -0.4603962004184723
vn 0.41323497891426086 -0.8790095448493958 -0.23786361515522003
vn 0.47247549891471863 0.6078445315361023 -0.6381942629814148
vn 0.785362184047699 0.6078444719314575 -0.11718082427978516
vn -0.41323497891426086 -0.8790095448493958 0.23786354064941406
vn -0.12400633096694946 -0.8790095448493958 0.4603962004184723
vn -0.4724755883216858 0.6078445315361023 0.63819420337677
vn 0.11718078702688217 0.6078444719314575 0.785362184047699
vn 0.23786351084709167 -0.8790095448493958 0.4132349491119385
vn 0.4603962004184723 -0.8790095448493958 0.12400627136230469
vn 0.6381942629814148 0.6078444719314575 0.4724755585193634
vn -0.11718086153268814 0.6078444719314575 -0.785362184047699
vn -0.05644719675183296 0.8928872346878052 0.44672825932502747
vn 0.10908498615026474 0.6032426953315735 0.7900624871253967
vn 9.094947017729282e-13 1 3.183231456205249e-12
vn 0.00006796582601964474 1 -0.00006796583329560235
vn -9.094947017729282e-12 1 -0.0000961181940510869
vn 0.0000961181940510869 1 -1.4551915228366852e-11
vn 0.00006796584057155997 1 0.00006796581874368712
vn 1.0913935553913401e-11 1 0.00009611820132704452
vn -0.00006796582601964474 1 0.00006796584057155997
vn -0.0000961181940510869 1 1.4551915228366852e-11
vn -0.00006796584057155997 1 -0.00006796582601964474
vt 0.002354151103645563 0.8631719350814819
vt 0.5834372043609619 0.8631719350814819
vt 0.6343861818313599 0.994010329246521
vt 0.6343861818313599 0.9940104484558105
vt 0.5834370851516724 0.8631720542907715
vt 0.002353972289711237 0.8631720542907715
vt 0.0023539126850664616 0.9940104484558105
vt 0.5822017192840576 0.8631720542907715
vt 0.6331508159637451 0.9940104484558105
vt 0.8248952627182007 0.8631719946861267
vt 0.8969480991363525 0.9940103888511658
vt 0.5822016000747681 0.8631719350814819
vt 0.633150577545166 0.994010329246521
vt 0.002354151103645563 0.994010329246521
vt 0.002354270312935114 0.9995003938674927
vt 0.7180514931678772 0.9995003938674927
vt 0.002354151103645563 0.000499427318572998
vt 0.5070136189460754 0.0004994869232177734
vt 0.0023540318943560123 0.8630404472351074
vt 0.995829164981842 0.0004994869232177734
vt 0.5070134997367859 0.0004994869232177734
vt 0.7180513739585876 0.9995005130767822
vt 0.0023539126850664616 0.9995005130767822
vt 0.5057780146598816 0.0004994869232177734
vt 0.9945936799049377 0.0004994869232177734
vt 0.7168158888816833 0.9995003938674927
vt 0.9911139607429504 0.9995004534721375
vt 0.5057781338691711 0.0004994869232177734
vt 0.002353972289711237 0.0004994869232177734
vt 0.7168161273002625 0.9995005130767822
vt 0.9923495650291443 0.9995004534721375
vt 0.8981834650039673 0.9940103888511658
vt 0.826130747795105 0.8631719946861267
vt 0.5 0.5
vt 0.14679989218711853 0.8532001972198486
vt 0.0004995465278625488 0.5000000596046448
vt 0.5000001192092896 0.9995004534721375
vt 0.8532001972198486 0.8532001972198486
vt 0.9995005130767822 0.5
vt 0.8532000780105591 0.14679980278015137
vt 0.4999999403953552 0.0004994869232177734
vt 0.14679977297782898 0.14679992198944092
g Geoset0
s 1
usemtl mat_voodoobowl
f 1/1/1 2/2/2 3/3/3
f 4/4/4 5/5/5 6/6/6
f 6/6/6 7/7/7 4/4/4
f 7/7/7 6/6/6 8/8/8
f 8/8/8 9/9/9 7/7/7
f 9/9/9 8/8/8 10/10/10
f 10/10/10 11/11/11 9/9/9
f 11/11/11 10/10/10 12/12/12
f 12/12/12 13/13/13 11/11/11
f 13/13/13 12/12/12 1/1/1
f 1/1/1 14/14/14 13/13/13
f 3/3/3 14/14/14 1/1/1
f 15/15/15 14/14/14 3/3/3
f 3/3/3 16/16/16 15/15/15
f 17/17/17 15/15/15 16/16/16
f 16/16/16 18/18/18 17/17/17
f 19/19/19 17/17/17 18/18/18
f 19/19/19 18/18/18 20/20/20
f 19/19/19 20/20/20 21/21/21
f 22/22/22 21/21/21 20/20/20
f 21/21/21 22/22/22 23/23/23
f 19/19/19 24/24/24 17/17/17
f 15/15/15 17/17/17 24/24/24
f 19/19/19 25/25/25 24/24/24
f 26/26/26 24/24/24 25/25/25
f 24/24/24 26/26/26 15/15/15
f 14/14/14 15/15/15 26/26/26
f 26/26/26 13/13/13 14/14/14
f 13/13/13 26/26/26 27/27/27
f 25/25/25 27/27/27 26/26/26
f 27/27/27 25/25/25 28/28/28
f 19/19/19 28/28/28 25/25/25
f 19/19/19 29/29/29 28/28/28
f 19/19/19 21/21/21 29/29/29
f 23/23/23 29/29/29 21/21/21
f 28/28/28 30/30/30 27/27/27
f 30/30/30 28/28/28 29/29/29
f 29/29/29 23/23/23 30/30/30
f 20/20/20 31/31/31 22/22/22
f 31/31/31 20/20/20 18/18/18
f 18/18/18 16/16/16 31/31/31
f 27/27/27 11/11/11 13/13/13
f 11/11/11 27/27/27 30/30/30
f 30/30/30 9/9/9 11/11/11
f 9/9/9 30/30/30 23/23/23
f 23/23/23 7/7/7 9/9/9
f 7/7/7 23/23/23 22/22/22
f 22/22/22 4/4/4 7/7/7
f 4/4/4 22/22/22 31/31/31
f 31/31/31 32/32/32 4/4/4
f 32/32/32 31/31/31 16/16/16
f 16/16/16 3/3/3 32/32/32
f 32/32/32 33/33/33 5/5/5
f 5/5/5 4/4/4 32/32/32
f 33/33/33 32/32/32 3/3/3
f 3/3/3 2/2/2 33/33/33
g Geoset1
s 1
usemtl mat_voodoobroth01
f 34/34/34 35/35/35 36/36/36
f 34/34/34 37/37/37 35/35/35
f 34/34/34 38/38/38 37/37/37
f 34/34/34 39/39/39 38/38/38
f 34/34/34 40/40/40 39/39/39
f 34/34/34 41/41/41 40/40/40
f 34/34/34 42/42/42 41/41/41
f 34/34/34 36/36/36 42/42/42