# Exported using wow.export v0.1.49
o 
mtllib skullcandle01.mtl
v -0.16116255521774292 0.1282569020986557 -0.07468441128730774
v -0.19294078648090363 0.06127317249774933 -0.0006789732142351568
v -0.18952719867229462 0.12563176453113556 -0.0006789707695133984
v -0.03455541282892227 0.2771987020969391 -0.04343368858098984
v -0.011361280456185341 0.22258305549621582 -0.08095730096101761
v -0.15340222418308258 0.18962615728378296 -0.0007104345131665468
v -0.009015073999762535 0.3019941449165344 0.00031117573962546885
v 0.055196214467287064 0.23734763264656067 -0.0006935124984011054
v -0.05784991756081581 0.32912179827690125 0.046549052000045776
v -0.04058883711695671 0.21857917308807373 0.08278270810842514
v -0.11519886553287506 0.24498115479946136 -0.004657463636249304
v -0.002313279779627919 0.5333048701286316 0.0003111847036052495
v -0.03957023471593857 0.47913700342178345 -0.052687305957078934
v -0.051217492669820786 0.5219033360481262 -0.0021731629967689514
v -0.11609598249197006 0.5553072690963745 -0.00465747993439436
v -0.0628647580742836 0.5174664855003357 0.06040708348155022
v 0.11061118543148041 0.05978907644748688 0.03676242753863335
v 0.07740648835897446 0.0015768595039844513 0.07173594832420349
v 0.09581726789474487 -0.008998198434710503 0.07072583585977554
v 0.13592875003814697 -0.006244895979762077 0.057461004704236984
v 0.13879574835300446 0.04949350655078888 0.019992541521787643
v 0.17283552885055542 0.003591962158679962 -0.0006789190229028463
v 0.14676077663898468 0.05352822318673134 -0.0006789749604649842
v 0.13879574835300446 0.04949350655078888 -0.02135043404996395
v 0.15988533198833466 0.08738294243812561 -0.010392247699201107
v 0.11061118543148041 0.059789080172777176 -0.03812034800648689
v 0.12716956436634064 0.0987938642501831 -0.03928888589143753
v 0.12625804543495178 0.09136959910392761 -0.04738153889775276
v 0.07306651026010513 0.010138004086911678 0.08713146299123764
v 0.08099735528230667 0.07174667716026306 0.11071307957172394
v 0.043058235198259354 0.02062474563717842 0.07191769778728485
v 0.15988533198833466 0.08738294243812561 0.009034300222992897
v 0.12824349105358124 0.0919766053557396 0.04135173559188843
v 0.12915924191474915 0.09943556040525436 0.03322121500968933
v 0.1129484698176384 0.08577559143304825 0.06578478962182999
v 0.10649414360523224 0.07929659634828568 0.09532228112220764
v -0.01746336556971073 0.08801209181547165 0.11083590984344482
v -0.0577666312456131 0.03911440446972847 0.1106199249625206
v -0.045775771141052246 0.01374140102416277 0.07882732897996902
v -0.11589891463518143 -0.006881408859044313 0.06011679396033287
v -0.18952719867229462 0.12563176453113556 -0.0006789707695133984
v -0.16116255521774292 0.1282569020986557 0.073326475918293
v -0.15340222418308258 0.18962615728378296 -0.0007104345131665468
v -0.19294078648090363 0.06127317249774933 -0.0006789732142351568
v -0.15570290386676788 0.07216867804527283 0.0733264610171318
v -0.14376959204673767 -0.008353931829333305 -0.0006789761246182024
v -0.04058883711695671 0.21857917308807373 0.08278270810842514
v -0.054408103227615356 0.15193679928779602 0.11662515252828598
v 0.07819417119026184 0.15509530901908875 0.08953104168176651
v 0.055196214467287064 0.23734763264656067 -0.0006935124984011054
v 0.08908015489578247 0.09367948770523071 0.09514909982681274
v 0.0876312330365181 0.1300220936536789 0.07337622344493866
v 0.10649374127388 0.1336149126291275 0.03142518550157547
v 0.0916827991604805 0.09495076537132263 0.08232781291007996
v 0.125326469540596 0.12046146392822266 0.018365025520324707
v 0.1368398815393448 0.1388198584318161 -0.0006789425387978554
v 0.08908015489578247 0.09367949515581131 -0.09806317090988159
v 0.09019632637500763 0.094224713742733 -0.0872514620423317
v 0.11141485720872879 0.08504058420658112 -0.07182945311069489
v 0.07819417864084244 0.15509530901908875 -0.09088896214962006
v 0.08585671335458755 0.12947949767112732 -0.07940606772899628
v 0.10457722097635269 0.13302892446517944 -0.03745483607053757
v 0.12387295812368393 0.11921502649784088 -0.025044484063982964
v 0.12828747928142548 0.11855700612068176 -0.0006789432954974473
v 0.13592875003814697 -0.006244890857487917 -0.058818817138671875
v 0.09486084431409836 -0.009063849225640297 -0.07239995896816254
v 0.07828685641288757 0.003120242850854993 -0.07216653972864151
v 0.07390419393777847 0.016645187512040138 -0.09102015197277069
v 0.08099735528230667 0.07174668461084366 -0.11219171434640884
v 0.10649414360523224 0.07929660379886627 -0.09668029099702835
v 0.043058235198259354 0.020624691620469093 -0.05626101791858673
v -0.01746336556971073 0.08801209926605225 -0.11219385266304016
v -0.0577666312456131 0.039114419370889664 -0.11068005859851837
v -0.045775771141052246 0.013741406612098217 -0.08018525689840317
v -0.11589891463518143 -0.00688140420243144 -0.061474721878767014
v -0.15570290386676788 0.07216867804527283 -0.07468441128730774
v -0.14376959204673767 -0.008353931829333305 -0.0006789761246182024
v -0.054408103227615356 0.15193681418895721 -0.11798308789730072
v 0.10145066678524017 0.1996007114648819 -0.0006789690814912319
v -0.011361280456185341 0.22258305549621582 -0.08095730096101761
v -0.15340222418308258 0.18962615728378296 -0.0007104345131665468
v -0.050673991441726685 0.4848526418209076 -0.0133809270337224
v -0.050673991441726685 0.5640877485275269 -0.0012313483748584986
v -0.050673991441726685 0.4848526418209076 0.006960217375308275
v -0.06084456667304039 0.4848526418209076 -0.0032103562261909246
v -0.04869498685002327 0.5640877485275269 -0.003210353897884488
v -0.04050341993570328 0.4848526418209076 -0.0032103569246828556
vn -0.6858885288238525 0.2765493392944336 -0.6731102466583252
vn -0.9534357786178589 -0.30159616470336914 -2.200628568260754e-9
vn -0.9649580121040344 0.26240429282188416 0.00003208636917406693
vn 0.041689589619636536 0.3552503287792206 -0.9338411092758179
vn 0.06756020337343216 0.6017184853553772 -0.7958457469940186
vn -0.7512965202331543 0.6594849228858948 -0.02516314946115017
vn 0.894379198551178 0.4436420798301697 -0.05716278776526451
vn 0.6381672024726868 0.7694687843322754 0.02569766342639923
vn -0.006145004648715258 0.09490637481212616 0.9954672455787659
vn -0.07468878477811813 0.5229867696762085 0.8490620851516724
vn -0.9198309183120728 0.35451266169548035 -0.1680232137441635
vn 0.6921846270561218 0.7202220559120178 -0.04648290574550629
vn 0.17989547550678253 0.18919360637664795 -0.965320348739624
vn 0.14292654395103455 0.9399923086166382 -0.30981674790382385
vn -0.5933651924133301 0.791138231754303 -0.1483847051858902
vn -0.004395648371428251 0.4488348960876465 0.8936039209365845
vn 0.7274520397186279 -0.1161760613322258 0.6762518882751465
vn 0.6820592284202576 0.04930608719587326 0.7296328544616699
vn 0.2668212056159973 0.3799254298210144 0.8856992125511169
vn 0.5059035420417786 0.38754647970199585 0.7706292271614075
vn 0.7379655241966248 0.17584820091724396 0.6515246033668518
vn 0.911853015422821 0.41051676869392395 1.1035177749363356e-7
vn 0.9995060563087463 -0.03142640367150307 -5.951602020104474e-7
vn 0.7379655838012695 0.1758471578359604 -0.6515248417854309
vn 0.9237977862358093 0.1574782431125641 -0.348996102809906
vn 0.7366777062416077 -0.09907356649637222 -0.6689472198486328
vn 0.7881087064743042 0.23147384822368622 -0.5703547596931458
vn 0.9587641358375549 -0.03626871481537819 -0.2818793058395386
vn 0.46923354268074036 -0.367715448141098 0.8028731346130371
vn 0.34347015619277954 0.05972306802868843 0.9372627139091492
vn -0.21142476797103882 -0.46656838059425354 0.8588442802429199
vn 0.9279220104217529 0.15813039243221283 0.3375729024410248
vn 0.7736234664916992 0.08437244594097137 0.6280031800270081
vn 0.6547649502754211 0.5154357552528381 0.5528189539909363
vn 0.9081466197967529 0.08573002368211746 0.40978047251701355
vn 0.7664154171943665 -0.04974890127778053 0.6404158473014832
vn 0.1448378562927246 -0.10582243651151657 0.9837802648544312
vn -0.06544478237628937 -0.4021359086036682 0.9132380485534668
vn 0.08435056358575821 -0.7630620002746582 0.6407974362373352
vn -0.575244128704071 -0.5067636966705322 0.6420940160751343
vn -0.9649580121040344 0.26240429282188416 0.00003208636917406693
vn -0.6973300576210022 0.2555219233036041 0.6696560978889465
vn -0.7512965202331543 0.6594849228858948 -0.02516314946115017
vn -0.9534357786178589 -0.30159616470336914 -2.200628568260754e-9
vn -0.6675227880477905 -0.23098400235176086 0.707855761051178
vn -0.842968761920929 -0.5379624962806702 -7.010656588590791e-8
vn -0.07468878477811813 0.5229867696762085 0.8490620851516724
vn -0.13602720201015472 0.23877836763858795 0.9614996314048767
vn 0.55743807554245 0.35946232080459595 0.7483646273612976
vn 0.6381672024726868 0.7694687843322754 0.02569766342639923
vn 0.48832985758781433 0.35545092821121216 0.7969871759414673
vn 0.8930283188819885 0.2102905511856079 0.39784204959869385
vn 0.8228223919868469 0.04740053415298462 0.5663183927536011
vn 0.7718989849090576 0.5022819638252258 0.3897239863872528
vn 0.7888626456260681 0.3979395627975464 0.4683373272418976
vn 0.9934550523757935 0.11358553171157837 0.012057851068675518
vn 0.5020548701286316 0.3350525200366974 -0.797295868396759
vn 0.768365740776062 0.5354454517364502 -0.3505883812904358
vn 0.912108838558197 0.10525185614824295 -0.3962063491344452
vn 0.5701122283935547 0.34301984310150146 -0.74653160572052
vn 0.8947268128395081 0.21062548458576202 -0.39382851123809814
vn 0.8255252838134766 0.10327789932489395 -0.5548348426818848
vn 0.7699477672576904 0.4281160831451416 -0.47317764163017273
vn 0.9711318612098694 0.23772872984409332 -0.019697723910212517
vn 0.5059040188789368 0.38754549622535706 -0.770629346370697
vn 0.2668217420578003 0.37992429733276367 -0.8856995701789856
vn 0.6549187898635864 0.07802128046751022 -0.7516608238220215
vn 0.3250408470630646 -0.3753589689731598 -0.868017315864563
vn 0.3071605861186981 0.022015685215592384 -0.951403021812439
vn 0.7737980484962463 -0.06077976152300835 -0.6305096745491028
vn -0.1585724800825119 -0.544184148311615 -0.8238436579704285
vn 0.15560026466846466 -0.1584126204252243 -0.9750353693962097
vn -0.027489112690091133 -0.4091234505176544 -0.9120649099349976
vn 0.1524927020072937 -0.7294105291366577 -0.6668630242347717
vn -0.5735301375389099 -0.5024524331092834 -0.6469966769218445
vn -0.6651553511619568 -0.2321631908416748 -0.7096961140632629
vn -0.842968761920929 -0.5379624962806702 -7.010656588590791e-8
vn -0.16724786162376404 0.2824110984802246 -0.9446015954017639
vn 0.7477849721908569 0.663940966129303 0.000045645505451830104
vn 0.06756020337343216 0.6017184853553772 -0.7958457469940186
vn -0.7512965202331543 0.6594849228858948 -0.02516314946115017
vn 1 -9.097599118490507e-9 0
vn 1 -9.097599118490507e-9 0
vn 1 -9.097599118490507e-9 0
vn 0 -9.097599118490507e-9 -1
vn 0 -9.097599118490507e-9 -1
vn 0 -9.097599118490507e-9 -1
vt 0.08851920813322067 0.646665096282959
vt 0.0093527277931571 0.527833104133606
vt 0.0093527277931571 0.6508510112762451
vt 0.13912273943424225 0.1301499605178833
vt 0.018106922507286072 0.15324819087982178
vt 0.015820488333702087 0.0180203914642334
vt 0.13846667110919952 0.20301055908203125
vt 0.019087955355644226 0.2059791088104248
vt 0.13996483385562897 0.1299525499343872
vt 0.01771692931652069 0.15209639072418213
vt 0.1308031529188156 0.018287360668182373
vt 0.6644176244735718 0.20318454504013062
vt 0.6644176244735718 0.11984074115753174
vt 0.6644176244735718 0.11849701404571533
vt 0.6644176244735718 0.01828104257583618
vt 0.6644176244735718 0.12094062566757202
vt 0.9261487722396851 0.3099251985549927
vt 0.6884950399398804 0.22979050874710083
vt 0.7075456380844116 0.1540427803993225
vt 0.8168991208076477 0.06134980916976929
vt 0.9646771550178528 0.29381680488586426
vt 0.9921611547470093 0.006699085235595703
vt 0.9898824095726013 0.3194464445114136
vt 0.9650290608406067 0.295119047164917
vt 0.9932260513305664 0.3868035674095154
vt 0.9259686470031738 0.3099251985549927
vt 0.9283547401428223 0.4275014400482178
vt 0.9184705018997192 0.38011765480041504
vt 0.6660017967224121 0.2522568106651306
vt 0.7480450868606567 0.3685793876647949
vt 0.6122997403144836 0.22679197788238525
vt 0.9934061765670776 0.3832749128341675
vt 0.9180876612663269 0.3798524737358093
vt 0.9284728169441223 0.42805641889572144
vt 0.8353431224822998 0.37557804584503174
vt 0.7751917839050293 0.3919304609298706
vt 0.6176496148109436 0.4624149799346924
vt 0.461689829826355 0.3648587465286255
vt 0.2671194076538086 0.2406100034713745
vt 0.0752953290939331 0.33768540620803833
vt 0.0074049076065421104 0.6508510112762451
vt 0.0865713357925415 0.646665096282959
vt 0.0874190405011177 0.9246915578842163
vt 0.0074049076065421104 0.527833104133606
vt 0.08029943704605103 0.5304009914398193
vt 0.0074049076065421104 0.36154818534851074
vt 0.5289760828018188 0.9613410830497742
vt 0.5285300016403198 0.6425376534461975
vt 0.7950515151023865 0.6888040900230408
vt 0.9910008907318115 0.9324561953544617
vt 0.7329398989677429 0.4533085823059082
vt 0.8135137557983398 0.6183052062988281
vt 0.9468435049057007 0.5395251512527466
vt 0.7709662318229675 0.4447786808013916
vt 0.9458072185516357 0.487704873085022
vt 0.9925650358200073 0.5343008041381836
vt 0.7336168885231018 0.45383334159851074
vt 0.7707081437110901 0.4446913003921509
vt 0.833548903465271 0.37686681747436523
vt 0.7969993948936462 0.6888040900230408
vt 0.8141494989395142 0.6183279752731323
vt 0.9474120140075684 0.5394796133041382
vt 0.9452210664749146 0.48781096935272217
vt 0.9905399680137634 0.43832236528396606
vt 0.8188470005989075 0.06134980916976929
vt 0.7068861126899719 0.156252920627594
vt 0.6963256001472473 0.23191511631011963
vt 0.676586925983429 0.264564573764801
vt 0.7499077320098877 0.36864447593688965
vt 0.7771395444869995 0.3919304609298706
vt 0.6142476201057434 0.22679197788238525
vt 0.6195974946022034 0.4624149799346924
vt 0.4629736542701721 0.363797664642334
vt 0.2690672278404236 0.24060988426208496
vt 0.0772431343793869 0.33768540620803833
vt 0.08224727213382721 0.5304009914398193
vt 0.0093527277931571 0.36154818534851074
vt 0.5304778814315796 0.6425376534461975
vt 0.9915482997894287 0.6153467893600464
vt 0.5309240221977234 0.961341142654419
vt 0.0893668606877327 0.9246915578842163
vt 0.9995004534721375 0.0004996061325073242
vt 0.5007421970367432 1.605297565460205
vt 0.0004995465278625488 0.000499725341796875
vt 0.9995004534721375 0.0004996061325073242
vt 0.5007421970367432 1.605297565460205
vt 0.0004995465278625488 0.000499725341796875
g Geoset0
s 1
usemtl mat_skullcandle01
f 1/1/1 2/2/2 3/3/3
f 4/4/4 5/5/5 6/6/6
f 5/5/5 4/4/4 7/7/7
f 7/7/7 8/8/8 5/5/5
f 8/8/8 7/7/7 9/9/9
f 9/9/9 10/10/10 8/8/8
f 10/10/10 9/9/9 11/11/11
f 9/9/9 7/7/7 12/12/12
f 13/13/13 12/12/12 7/7/7
f 7/7/7 4/4/4 13/13/13
f 14/14/14 15/15/15 16/16/16
f 16/16/16 15/15/15 11/11/11
f 11/11/11 9/9/9 16/16/16
f 11/11/11 6/6/6 10/10/10
f 6/6/6 11/11/11 4/4/4
f 4/4/4 11/11/11 15/15/15
f 15/15/15 13/13/13 4/4/4
f 15/15/15 14/14/14 13/13/13
f 12/12/12 13/13/13 14/14/14
f 12/12/12 14/14/14 16/16/16
f 12/12/12 16/16/16 9/9/9
f 17/17/17 18/18/18 19/19/19
f 19/19/19 20/20/20 17/17/17
f 17/17/17 20/20/20 21/21/21
f 22/22/22 21/21/21 20/20/20
f 23/23/23 21/21/21 22/22/22
f 24/24/24 23/23/23 22/22/22
f 23/23/23 24/24/24 25/25/25
f 26/26/26 25/25/25 24/24/24
f 26/26/26 27/27/27 25/25/25
f 26/26/26 28/28/28 27/27/27
f 29/29/29 30/30/30 31/31/31
f 30/30/30 29/29/29 18/18/18
f 18/18/18 17/17/17 30/30/30
f 21/21/21 23/23/23 32/32/32
f 32/32/32 17/17/17 21/21/21
f 32/32/32 33/33/33 17/17/17
f 33/33/33 32/32/32 34/34/34
f 33/33/33 34/34/34 35/35/35
f 17/17/17 33/33/33 35/35/35
f 35/35/35 36/36/36 17/17/17
f 36/36/36 30/30/30 17/17/17
f 37/37/37 30/30/30 36/36/36
f 31/31/31 30/30/30 37/37/37
f 31/31/31 37/37/37 38/38/38
f 31/31/31 38/38/38 39/39/39
f 39/39/39 38/38/38 40/40/40
f 41/41/41 42/42/42 43/43/43
f 44/44/44 42/42/42 41/41/41
f 44/44/44 45/45/45 42/42/42
f 46/46/46 45/45/45 44/44/44
f 40/40/40 45/45/45 46/46/46
f 43/43/43 42/42/42 47/47/47
f 42/42/42 48/48/48 47/47/47
f 48/48/48 42/42/42 45/45/45
f 48/48/48 45/45/45 38/38/38
f 38/38/38 45/45/45 40/40/40
f 49/49/49 50/50/50 47/47/47
f 49/49/49 47/47/47 48/48/48
f 49/49/49 48/48/48 37/37/37
f 37/37/37 48/48/48 38/38/38
f 37/37/37 51/51/51 49/49/49
f 37/37/37 36/36/36 51/51/51
f 51/51/51 36/36/36 35/35/35
f 49/49/49 52/52/52 53/53/53
f 49/49/49 51/51/51 52/52/52
f 51/51/51 54/54/54 52/52/52
f 35/35/35 54/54/54 51/51/51
f 54/54/54 35/35/35 52/52/52
f 55/55/55 52/52/52 35/35/35
f 53/53/53 52/52/52 55/55/55
f 55/55/55 56/56/56 53/53/53
f 35/35/35 34/34/34 55/55/55
f 57/57/57 58/58/58 59/59/59
f 58/58/58 57/57/57 60/60/60
f 61/61/61 58/58/58 60/60/60
f 62/62/62 61/61/61 60/60/60
f 63/63/63 61/61/61 62/62/62
f 56/56/56 63/63/63 62/62/62
f 56/56/56 64/64/64 63/63/63
f 56/56/56 55/55/55 64/64/64
f 32/32/32 64/64/64 55/55/55
f 55/55/55 34/34/34 32/32/32
f 32/32/32 23/23/23 25/25/25
f 25/25/25 64/64/64 32/32/32
f 63/63/63 64/64/64 25/25/25
f 25/25/25 27/27/27 63/63/63
f 27/27/27 59/59/59 63/63/63
f 59/59/59 27/27/27 28/28/28
f 26/26/26 59/59/59 28/28/28
f 63/63/63 59/59/59 61/61/61
f 59/59/59 58/58/58 61/61/61
f 24/24/24 22/22/22 65/65/65
f 65/65/65 26/26/26 24/24/24
f 26/26/26 65/65/65 66/66/66
f 66/66/66 67/67/67 26/26/26
f 67/67/67 68/68/68 69/69/69
f 69/69/69 26/26/26 67/67/67
f 69/69/69 70/70/70 26/26/26
f 26/26/26 70/70/70 59/59/59
f 59/59/59 70/70/70 57/57/57
f 71/71/71 69/69/69 68/68/68
f 69/69/69 72/72/72 70/70/70
f 69/69/69 71/71/71 72/72/72
f 72/72/72 71/71/71 73/73/73
f 73/73/73 71/71/71 74/74/74
f 73/73/73 74/74/74 75/75/75
f 76/76/76 75/75/75 77/77/77
f 76/76/76 73/73/73 75/75/75
f 78/78/78 60/60/60 72/72/72
f 57/57/57 72/72/72 60/60/60
f 70/70/70 72/72/72 57/57/57
f 78/78/78 73/73/73 76/76/76
f 73/73/73 78/78/78 72/72/72
f 56/56/56 60/60/60 79/79/79
f 56/56/56 62/62/62 60/60/60
f 56/56/56 49/49/49 53/53/53
f 49/49/49 56/56/56 79/79/79
f 79/79/79 50/50/50 49/49/49
f 50/50/50 79/79/79 60/60/60
f 50/50/50 60/60/60 80/80/80
f 80/80/80 60/60/60 78/78/78
f 78/78/78 1/1/1 80/80/80
f 1/1/1 78/78/78 76/76/76
f 76/76/76 2/2/2 1/1/1
f 76/76/76 77/77/77 2/2/2
f 1/1/1 81/81/81 80/80/80
f 1/1/1 3/3/3 81/81/81
g Geoset1
s 1
usemtl mat_candel_thread
f 82/82/82 83/83/83 84/84/84
f 85/85/85 86/86/86 87/87/87