# Exported using wow.export v0.1.49
o 
mtllib voodoodoll01.mtl
v 0.41115397214889526 -0.005557510536164045 -0.04374010115861893
v 0.3686882555484772 -0.018117660656571388 0.02658110484480858
v 0.08243482559919357 0.01992342807352543 0.02852237969636917
v 0.08203927427530289 -0.040897712111473083 -0.08396953344345093
v 0.24073177576065063 0.2492181807756424 0.18597352504730225
v 0.22432701289653778 0.22406938672065735 0.21794743835926056
v 0.20395344495773315 0.24957333505153656 0.2040986716747284
v 0.06500716507434845 -0.04660017788410187 0.034530118107795715
v -0.23401695489883423 0.25332045555114746 0.08793378621339798
v -0.21027232706546783 0.2666422128677368 0.12232322245836258
v -0.23539206385612488 0.24212707579135895 0.12735597789287567
v 0.055843427777290344 -0.08866290748119354 0.03175942972302437
v -0.06589063256978989 0.2825380563735962 -0.14031748473644257
v -0.03946990519762039 0.30144625902175903 -0.11084995418787003
v -0.07333030551671982 0.295529305934906 -0.10214456915855408
v 0.008833047933876514 0.0359455868601799 -0.06428498774766922
v 0.005466016475111246 0.028272578492760658 -0.06394324451684952
v 0.011816143058240414 -0.015995055437088013 -0.17651818692684174
v -0.03453933447599411 0.025544580072164536 -0.1385272890329361
v -0.0018640027847141027 0.03460478410124779 -0.0631106048822403
v 0.034806523472070694 0.03438626602292061 -0.16308698058128357
v -0.01776179112493992 0.06581360846757889 -0.1729416400194168
v 0.0015030282083898783 0.04227779433131218 -0.0634523406624794
v -0.07902649790048599 0.0563800148665905 0.010582884773612022
v -0.07854015380144119 0.07030720263719559 -0.001746360445395112
v -0.3177005350589752 0.13373950123786926 0.028640979900956154
v -0.24961577355861664 0.0588051863014698 0.09597009420394897
v -0.07913331687450409 0.05332108587026596 -0.02095738612115383
v -0.07961967587471008 0.039393890649080276 -0.008628138341009617
v -0.32412829995155334 -0.05032766982913017 -0.030246321111917496
v -0.28689298033714294 0.039985280483961105 -0.11124946177005768
v 0.6622276902198792 0.0032244373578578234 0.021838974207639694
v 0.6796150803565979 -0.015010827220976353 -0.005796125624328852
v 0.7068570256233215 0.00033001063275150955 -0.032343339174985886
v 0.6911603212356567 0.03896813467144966 -0.005725756287574768
v 0.002761892508715391 0.03108217939734459 -0.016259584575891495
v 0.003995487466454506 0.04542028531432152 -0.00865281093865633
v 0.0038426981773227453 0.04392680153250694 -0.005812942981719971
v 0.002609103685244918 0.029588693752884865 -0.013419712893664837
v 0.00037408710340969265 0.04067540913820267 0.0514691062271595
v -0.007372245192527771 0.034869689494371414 0.05236758291721344
v -0.010192726738750935 0.0427587665617466 0.052736327052116394
v -0.002446394879370928 0.04856448993086815 0.051837850362062454
v -0.035349052399396896 0.04298495501279831 0.15176154673099518
v 0.019367381930351257 0.07066582888364792 0.161147803068161
v 0.03299429640173912 0.02933504246175289 0.1266006976366043
v -0.015812786296010017 -0.008881418965756893 0.1650070697069168
v 0.002979513257741928 0.0439569391310215 -0.014363305643200874
v 0.01698458194732666 0.04529218748211861 0.2549869418144226
v 0.0006867985357530415 0.017063600942492485 0.26444974541664124
v -0.011234326288104057 0.06158437952399254 0.26407748460769653
v 0.0002163480530725792 0.04555225372314453 -0.014735598117113113
v -0.02753210812807083 0.033355798572301865 0.24449515342712402
v -0.017706431448459625 0.025632424280047417 -0.323621928691864
v 0.021712662652134895 0.011994178406894207 -0.2655090391635895
v -0.0051593785174191 0.02985996939241886 -0.014363305643200874
v -0.007922543212771416 0.03145528584718704 -0.014735598117113113
v 0.004292325582355261 0.047933004796504974 -0.2661530375480652
v 0.02256021834909916 0.02556220255792141 -0.2919592261314392
v 0.00841932650655508 0.016846098005771637 0.08928019553422928
v 0.004139328375458717 0.05273732170462608 0.08928019553422928
v -0.0209139846265316 0.03942068666219711 0.15270547568798065
v -0.03095722571015358 0.04800596460700035 0.10255054384469986
v -0.03262186422944069 0.0003371827770024538 0.10255054384469986
v -0.04683539271354675 0.04856044799089432 0.04318227618932724
v -0.048456981778144836 0.0021248364355415106 -0.010450960136950016
v -0.16993656754493713 0.04809609055519104 0.0512862503528595
v -0.1686258465051651 0.12048065662384033 -0.0015990750398486853
v -0.16119176149368286 0.04779071733355522 -0.054269663989543915
v -0.17113174498081207 0.013870446011424065 -0.03874557465314865
v -0.04514867812395096 0.09686166048049927 -0.007352825719863176
v -0.030709343031048775 0.06179099157452583 -0.009790489450097084
v 0.026476861909031868 0.060297027230262756 0.07161875069141388
v 0.024123061448335648 -0.007106656674295664 0.07161875069141388
v -0.16326993703842163 0.004069575108587742 -0.0006954927812330425
v -0.046835388988256454 0.04856044799089432 -0.05788793787360191
v -0.03142364323139191 0.048022255301475525 -0.09270056337118149
v -0.033088281750679016 0.00035347038647159934 -0.09270056337118149
v -0.013176372274756432 0.033516861498355865 -0.1443862020969391
v 0.024123065173625946 -0.007106656674295664 -0.09558016061782837
v 0.08377481997013092 0.058296117931604385 -0.04367063567042351
v 0.02647686004638672 0.060297027230262756 -0.07505998760461807
v 0.027335911989212036 0.08489704132080078 -0.007574121933430433
v 0.08191856741905212 0.005139748565852642 -0.023607715964317322
v 0.08243482559919357 0.01992342807352543 0.02852237969636917
v 0.08451076596975327 0.07937078922986984 -0.007574121933430433
v 0.008419327437877655 0.016846098005771637 -0.12002275139093399
v 0.009665941819548607 0.05254432559013367 -0.12002275139093399
v 0.08377481997013092 0.058296117931604385 -0.04367063567042351
v 0.08451076596975327 0.07937078922986984 -0.007574121933430433
v 0.36082032322883606 0.04988054186105728 -0.01651153154671192
v 0.08243482559919357 0.01992342807352543 0.02852237969636917
v 0.3600843846797943 0.028805876150727272 0.051144734025001526
v 0.4122903048992157 0.02698279358446598 -0.0667433813214302
v 0.08191856741905212 0.005139748565852642 -0.023607715964317322
vn -0.12973885238170624 -0.9915341138839722 -0.005286552011966705
vn -0.12319481372833252 -0.9923734664916992 0.004235681612044573
vn 0.8253103494644165 -0.5645436644554138 0.012381468899548054
vn -0.9603131413459778 0.27892377972602844 -0.0005003789556212723
vn 0.5620521903038025 0.8271015286445618 0.0006452911766245961
vn 0.9821071028709412 0.1870712786912918 0.02167811058461666
vn -0.4673379361629486 0.8840746879577637 0.0026936654467135668
vn 0.9909918904304504 -0.13289736211299896 0.01653311960399151
vn -0.6776731610298157 0.7353538870811462 -0.0037081993650645018
vn 0.5507610440254211 0.834601879119873 0.010101057589054108
vn -0.9585396647453308 -0.2827422022819519 0.035476312041282654
vn 0.6492753028869629 0.7604809999465942 0.010499132797122002
vn -0.3615202009677887 0.9323075413703918 -0.01028768252581358
vn 0.502011239528656 0.8648571372032166 0.0026246265042573214
vn -0.430635929107666 0.9025096297264099 0.005395928397774696
vn 0.9991025924682617 -0.03726271539926529 0.02013786882162094
vn 0.24778835475444794 -0.9685999155044556 0.020375538617372513
vn 0.5788667798042297 -0.8154199123382568 0.0018938555149361491
vn -0.8739567399024963 -0.485998272895813 0.0022919788025319576
vn -0.9780299067497253 0.1740076094865799 0.11479920893907547
vn 0.8643754720687866 0.5028456449508667 0.0011269152164459229
vn -0.5319997072219849 0.8467432260513306 0.0015001974534243345
vn 0.4809606373310089 0.8765538930892944 0.018169067800045013
vn 0.9591858386993408 0.28274211287498474 0.004401089157909155
vn 0.5318852066993713 0.8468161821365356 -0.0006724882405251265
vn 0.30378204584121704 0.9527394771575928 0.001987715717405081
vn 0.7411172986030579 -0.6713263392448425 0.008131828159093857
vn 0.9555267691612244 -0.29486894607543945 -0.004566734191030264
vn 0.5842330455780029 -0.8115856647491455 0.0007013767608441412
vn 0.37944698333740234 -0.9252111911773682 -0.002068829722702503
vn 0.6535949110984802 0.7567926645278931 -0.00886395201086998
vn 0.9494236707687378 0.31378644704818726 0.01152025442570448
vn 0.19414237141609192 -0.980964720249176 0.0041190385818481445
vn 0.7563158273696899 -0.6542009115219116 -0.002750918036326766
vn 0.30757230520248413 0.9515219926834106 -0.002276748651638627
vn -0.031506557017564774 0.9992888569831848 -0.02071424387395382
vn 0.016976114362478256 0.9998558759689331 -0.00008314594742842019
vn -0.13116109371185303 -0.9912293553352356 0.016160057857632637
vn -0.06367482244968414 -0.997969925403595 0.0012643381487578154
vn 0.987700343132019 0.10586878657341003 -0.11506439000368118
vn -0.3180628716945648 -0.9478714466094971 -0.019384847953915596
vn -0.9990181922912598 0.04007590562105179 -0.01888364925980568
vn -0.4286409914493561 0.9033135175704956 -0.01707526668906212
vn -0.8255810141563416 0.5642825365066528 -0.0010784962214529514
vn 0.5871294140815735 0.8094915747642517 -0.0015385703882202506
vn 0.8349541425704956 -0.5503145456314087 -0.0023248759098351
vn -0.6339251399040222 -0.7733921408653259 -0.0018763827392831445
vn 0.970252513885498 0.24209512770175934 0.00002415775270492304
vn 0.9603018164634705 0.27891483902931213 0.005186758935451508
vn 0.23334568738937378 -0.9723737239837646 0.006255143787711859
vn 0.07497028261423111 0.99715656042099 0.0076300231739878654
vn -0.17967219650745392 0.9837265014648438 -0.00023486744612455368
vn -0.9992174506187439 -0.03951959311962128 0.001642556511797011
vn -0.5672922730445862 -0.823509156703949 -0.003478473285213113
vn 0.6059761047363281 -0.7954826951026917 -0.0004775803245138377
vn 0.0775233581662178 -0.9969905018806458 0.0001658267865423113
vn -0.9683719277381897 -0.24951112270355225 -0.0001244399609277025
vn -0.13612604141235352 0.990691065788269 -0.0009826715104281902
vn 0.8915585875511169 0.4529029130935669 -0.0014910163590684533
vn 0.9778487682342529 0.2092970609664917 0.0025552839506417513
vn 0.7770649194717407 0.6294052004814148 0.004385284148156643
vn 0.8863794803619385 0.462893009185791 0.007842378690838814
vn -0.5120429992675781 0.8589584231376648 0.0015456984983757138
vn -0.5783148407936096 -0.8158125281333923 0.0013596274657174945
vn -0.4125584661960602 0.9108856916427612 0.009100424125790596
vn -0.40680810809135437 -0.9135133028030396 0.000803442089818418
vn -0.7851458191871643 -0.6192528009414673 0.00848691537976265
vn -0.40486326813697815 0.9143766760826111 0.0010275888489559293
vn -0.6122729778289795 0.7904439568519592 -0.01789097860455513
vn -0.7720929384231567 -0.6354944705963135 -0.004386995453387499
vn 0.48151278495788574 0.8764371871948242 -0.0018014891538769007
vn -0.0074401437304914 0.9999722838401794 -0.00014960697444621474
vn 0.47013598680496216 0.882581353187561 0.00472211092710495
vn 0.7980360984802246 -0.6025963425636292 0.0039994497783482075
vn -0.20753800868988037 -0.9782268404960632 -0.0004981359234079719
vn -0.8596545457839966 -0.510470986366272 -0.020333483815193176
vn -0.5872916579246521 0.8093736171722412 -0.0016963054658845067
vn -0.7149071097373962 -0.6992167234420776 -0.0019520727219060063
vn 0.2921927273273468 -0.956027626991272 -0.025191470980644226
vn 0.5858137607574463 -0.8104339838027954 -0.004355072043836117
vn 0.6359484791755676 0.7715820074081421 -0.015189864672720432
vn 0.44324010610580444 0.8963959217071533 -0.0035452800802886486
vn -0.06666261702775955 0.9977753162384033 -0.0007565267733298242
vn 0.3331371545791626 -0.9428722858428955 -0.0033868709579110146
vn 0.8253103494644165 -0.5645436644554138 0.012381468899548054
vn 0.2761582136154175 0.9611106514930725 0.0017289003590121865
vn 0.9869548082351685 -0.16094538569450378 -0.004097444005310535
vn 0.5695897936820984 0.8219197392463684 -0.003928778227418661
vn 0.6359484791755676 0.7715820074081421 -0.015189864672720432
vn 0.2761582136154175 0.9611106514930725 0.0017289003590121865
vn 0.060803163796663284 0.9981489181518555 0.0012914265971630812
vn 0.8253103494644165 -0.5645436644554138 0.012381468899548054
vn -0.9939473271369934 0.0886579379439354 0.0648731142282486
vn -0.9778161644935608 0.19534584879875183 -0.07560127973556519
vn 0.3331371545791626 -0.9428722858428955 -0.0033868709579110146
vt 0.8904251456260681 0.5648378729820251
vt 0.6795852780342102 0.6137270331382751
vt 0.7314978837966919 0.9969004988670349
vt 0.9965929388999939 0.10464739799499512
vt 0.7115412950515747 0.001212477684020996
vt 0.7038465738296509 0.12476968765258789
vt 0.7088046669960022 0.05569803714752197
vt 0.9965929388999939 0.10464739799499512
vt 0.7115412950515747 0.001212477684020996
vt 0.7038465738296509 0.12476968765258789
vt 0.7088046669960022 0.05569803714752197
vt 0.9965929388999939 0.10464739799499512
vt 0.7115412950515747 0.001212477684020996
vt 0.7038465738296509 0.12476968765258789
vt 0.7088046669960022 0.05569803714752197
vt 0.36163583397865295 0.6343762874603271
vt 0.2285345196723938 0.589481770992279
vt 0.14857539534568787 0.9819477796554565
vt -0.003526001702994108 0.8122403621673584
vt 0.06329944729804993 0.5383585095405579
vt 0.3372606635093689 0.9981542229652405
vt 0.14862069487571716 0.9781938791275024
vt 0.22995835542678833 0.5916054844856262
vt 0.06329944729804993 0.5383585095405579
vt 0.22995835542678833 0.5916054844856262
vt 0.14862069487571716 0.9781938791275024
vt -0.003526001702994108 0.8122403621673584
vt 0.36163583397865295 0.6343762874603271
vt 0.2285345196723938 0.589481770992279
vt 0.14857539534568787 0.9819477796554565
vt 0.3372606635093689 0.9981542229652405
vt 0.34222090244293213 0.0012664794921875
vt 0.3396943509578705 0.11330175399780273
vt 0.29194188117980957 0.27141106128692627
vt 0.33959200978279114 0.11315858364105225
vt 0.0019728541374206543 0.2752044200897217
vt 0.001155555248260498 0.10265684127807617
vt 0.0018859710544347763 0.007164299488067627
vt -0.0009946227073669434 0.10259193181991577
vt 0.06329944729804993 0.5383585095405579
vt 0.2285345196723938 0.589481770992279
vt 0.36163583397865295 0.6343762874603271
vt 0.22995835542678833 0.5916054844856262
vt 0.3372606635093689 0.9981542229652405
vt 0.14862069487571716 0.9781938791275024
vt -0.003526001702994108 0.8122403621673584
vt 0.14857539534568787 0.9819477796554565
vt 0.0018859710544347763 0.007164299488067627
vt 0.344007670879364 0.00892186164855957
vt 0.3425789177417755 0.12543237209320068
vt 0.34250620007514954 0.12536007165908813
vt 0.001155555248260498 0.10265684127807617
vt 0.29236429929733276 0.26732802391052246
vt 0.29194188117980957 0.27141106128692627
vt 0.3396943509578705 0.11330175399780273
vt -0.0009946227073669434 0.10259193181991577
vt 0.0019728541374206543 0.2752044200897217
vt 0.33959200978279114 0.11315858364105225
vt 0.34222090244293213 0.0012664794921875
vt 0.2137734591960907 0.3911104202270508
vt 0.2137734591960907 0.4123991131782532
vt 0.0004994869232177734 0.5069982409477234
vt 0.16915053129196167 0.5467913746833801
vt 0.16915053129196167 0.5467913746833801
vt 0.41566234827041626 0.6079543828964233
vt 0.5444817543029785 0.6079543828964233
vt 0.3445005416870117 0.9926798939704895
vt 0.5341378450393677 0.9926798939704895
vt 0.6981017589569092 0.9730162024497986
vt 0.6916007399559021 0.9880018830299377
vt 0.5370404720306396 0.6079543828964233
vt 0.5469087362289429 0.4167051315307617
vt 0.2731618881225586 0.3274749517440796
vt 0.2731618583202362 0.3274749517440796
vt 0.5320848822593689 0.9891800880432129
vt 0.6584187150001526 0.6079543828964233
vt 0.8257023096084595 0.5485879778862
vt 0.8257023096084595 0.5485879778862
vt 0.9995005130767822 0.47643589973449707
vt 0.835385262966156 0.3274749517440796
vt 0.6608341932296753 0.10676205158233643
vt 0.7663840651512146 0.3274749517440796
vt 0.5394559502601624 0.32747507095336914
vt 0.6078633069992065 0.10676205158233643
vt 0.4180777966976166 0.10676205158233643
vt 0.5394559502601624 0.10676205158233643
vt 0.9175759553909302 0.3911104202270508
vt 0.9175759553909302 0.3911104202270508
vt 0.9742542505264282 0.9969004988670349
vt 0.8528760075569153 0.9969004988670349
vt 0.8930692076683044 0.5460692048072815
vt 0.721705436706543 0.987417995929718
vt 0.7331957221031189 0.6054543256759644
vt 0.9949666261672974 0.48755013942718506
vt 0.9212833642959595 0.9969004988670349
g Geoset0
s 1
usemtl mat_voodoodoll
f 1/1/1 2/2/2 3/3/3
f 4/4/4 5/5/5 6/6/6
f 4/4/4 7/7/7 5/5/5
f 4/4/4 6/6/6 7/7/7
f 5/5/5 7/7/7 6/6/6
f 8/8/8 9/9/9 10/10/10
f 8/8/8 11/11/11 9/9/9
f 8/8/8 10/10/10 11/11/11
f 9/9/9 11/11/11 10/10/10
f 12/12/12 13/13/13 14/14/14
f 12/12/12 15/15/15 13/13/13
f 12/12/12 14/14/14 15/15/15
f 13/13/13 15/15/15 14/14/14
f 16/16/16 17/17/17 18/18/18
f 19/19/19 18/18/18 17/17/17
f 17/17/17 20/20/20 19/19/19
f 20/20/20 17/17/17 16/16/16
f 21/21/21 22/22/22 23/23/23
f 22/22/22 19/19/19 20/20/20
f 20/20/20 23/23/23 22/22/22
f 16/16/16 23/23/23 20/20/20
f 23/23/23 16/16/16 21/21/21
f 18/18/18 21/21/21 16/16/16
f 24/24/24 25/25/25 26/26/26
f 26/26/26 27/27/27 24/24/24
f 28/28/28 29/29/29 30/30/30
f 30/30/30 31/31/31 28/28/28
f 27/27/27 30/30/30 29/29/29
f 29/29/29 24/24/24 27/27/27
f 24/24/24 29/29/29 28/28/28
f 28/28/28 25/25/25 24/24/24
f 25/25/25 28/28/28 31/31/31
f 31/31/31 26/26/26 25/25/25
f 32/32/32 33/33/33 34/34/34
f 34/34/34 35/35/35 32/32/32
f 35/35/35 34/34/34 36/36/36
f 36/36/36 37/37/37 35/35/35
f 32/32/32 35/35/35 37/37/37
f 37/37/37 38/38/38 32/32/32
f 33/33/33 32/32/32 38/38/38
f 38/38/38 39/39/39 33/33/33
f 34/34/34 33/33/33 39/39/39
f 39/39/39 36/36/36 34/34/34
f 40/40/40 41/41/41 42/42/42
f 42/42/42 43/43/43 40/40/40
f 43/43/43 42/42/42 44/44/44
f 44/44/44 45/45/45 43/43/43
f 40/40/40 43/43/43 45/45/45
f 45/45/45 46/46/46 40/40/40
f 41/41/41 40/40/40 46/46/46
f 46/46/46 47/47/47 41/41/41
f 42/42/42 41/41/41 47/47/47
f 47/47/47 44/44/44 42/42/42
f 48/48/48 49/49/49 50/50/50
f 51/51/51 49/49/49 48/48/48
f 48/48/48 52/52/52 51/51/51
f 50/50/50 49/49/49 51/51/51
f 51/51/51 53/53/53 50/50/50
f 54/54/54 55/55/55 56/56/56
f 56/56/56 57/57/57 54/54/54
f 58/58/58 54/54/54 57/57/57
f 57/57/57 52/52/52 58/58/58
f 59/59/59 58/58/58 52/52/52
f 52/52/52 48/48/48 59/59/59
f 53/53/53 51/51/51 52/52/52
f 52/52/52 57/57/57 53/53/53
f 50/50/50 53/53/53 57/57/57
f 57/57/57 56/56/56 50/50/50
f 50/50/50 56/56/56 48/48/48
f 48/48/48 56/56/56 55/55/55
f 55/55/55 59/59/59 48/48/48
f 59/59/59 55/55/55 54/54/54
f 54/54/54 58/58/58 59/59/59
f 60/60/60 61/61/61 62/62/62
f 63/63/63 62/62/62 61/61/61
f 63/63/63 64/64/64 62/62/62
f 64/64/64 63/63/63 65/65/65
f 65/65/65 66/66/66 64/64/64
f 66/66/66 65/65/65 67/67/67
f 68/68/68 69/69/69 70/70/70
f 69/69/69 68/68/68 71/71/71
f 65/65/65 71/71/71 68/68/68
f 72/72/72 71/71/71 65/65/65
f 65/65/65 63/63/63 72/72/72
f 72/72/72 63/63/63 73/73/73
f 61/61/61 73/73/73 63/63/63
f 74/74/74 73/73/73 61/61/61
f 61/61/61 60/60/60 74/74/74
f 74/74/74 60/60/60 62/62/62
f 68/68/68 67/67/67 65/65/65
f 68/68/68 70/70/70 67/67/67
f 70/70/70 75/75/75 67/67/67
f 67/67/67 75/75/75 66/66/66
f 76/76/76 66/66/66 75/75/75
f 75/75/75 70/70/70 76/76/76
f 76/76/76 70/70/70 69/69/69
f 76/76/76 71/71/71 72/72/72
f 71/71/71 76/76/76 69/69/69
f 72/72/72 77/77/77 76/76/76
f 77/77/77 78/78/78 76/76/76
f 66/66/66 76/76/76 78/78/78
f 78/78/78 64/64/64 66/66/66
f 77/77/77 79/79/79 78/78/78
f 80/80/80 78/78/78 79/79/79
f 64/64/64 78/78/78 80/80/80
f 80/80/80 74/74/74 64/64/64
f 62/62/62 64/64/64 74/74/74
f 81/81/81 82/82/82 83/83/83
f 80/80/80 82/82/82 81/81/81
f 81/81/81 84/84/84 80/80/80
f 74/74/74 80/80/80 84/84/84
f 84/84/84 85/85/85 74/74/74
f 73/73/73 74/74/74 85/85/85
f 83/83/83 86/86/86 81/81/81
f 87/87/87 88/88/88 82/82/82
f 82/82/82 80/80/80 87/87/87
f 73/73/73 85/85/85 86/86/86
f 86/86/86 83/83/83 73/73/73
f 73/73/73 83/83/83 72/72/72
f 72/72/72 83/83/83 82/82/82
f 82/82/82 77/77/77 72/72/72
f 77/77/77 82/82/82 88/88/88
f 88/88/88 79/79/79 77/77/77
f 88/88/88 87/87/87 79/79/79
f 79/79/79 87/87/87 80/80/80
f 89/89/89 90/90/90 91/91/91
f 91/91/91 90/90/90 92/92/92
f 92/92/92 93/93/93 91/91/91
f 92/92/92 2/2/2 93/93/93
f 91/91/91 94/94/94 89/89/89
f 89/89/89 94/94/94 1/1/1
f 1/1/1 95/95/95 89/89/89
f 3/3/3 95/95/95 1/1/1