# Exported using wow.export v0.1.49
o 
mtllib voodoodrum03.mtl
v -0.00016338634304702282 0.9500830769538879 0.6001830697059631
v 0.311916708946228 0.9500830769538879 0.5195215344429016
v -0.00016344089817721397 0.9203405380249023 -0.0018827994354069233
v 0.34051641821861267 0.5660759806632996 -0.1832791566848755
v 0.29438111186027527 0.29298821091651917 -0.16982503235340118
v 0.16989189386367798 0.29298821091651917 -0.28990745544433594
v -0.2947079837322235 0.29298821091651917 -0.16982503235340118
v -0.3408432900905609 0.5660759806632996 -0.1832791566848755
v -0.1968550682067871 0.5660759806632996 -0.3221704065799713
v -0.17021876573562622 0.29298821091651917 -0.28990739583969116
v -0.00016344089817721397 0.29298821091651917 -0.33386072516441345
v -0.00016344089817721397 0.5660759806632996 -0.373008131980896
v 0.1965281069278717 0.5660760402679443 -0.3221704363822937
v -0.00016344089817721397 0.005313758738338947 -0.32292091846466064
v 0.1662462204694748 0.005313758738338947 -0.27990999817848206
v 0.33265596628189087 0.005313759204000235 -0.0018828153843060136
v 0.2880665957927704 0.005313758738338947 -0.16240186989307404
v 0.2880665957927704 0.005313758738338947 0.15863625705242157
v 0.16624629497528076 0.005313758738338947 0.2761443555355072
v -0.0001634263462619856 0.005313758738338947 -0.001882773358374834
v -0.00016341180889867246 0.005313758738338947 0.31915536522865295
v -0.00016341180889867246 0.005313758738338947 0.31915536522865295
v -0.16657312214374542 0.005313758738338947 0.2761443853378296
v -0.288393497467041 0.005313758738338947 0.15863628685474396
v -0.3329828381538391 0.005313758738338947 -0.001882759272120893
v -0.288393497467041 0.005313758738338947 -0.16240184009075165
v -0.16657312214374542 0.005313758738338947 -0.2799099385738373
v -0.00016344089817721397 0.005313758738338947 -0.32292091846466064
v -0.00016340651200152934 0.5660759806632996 0.3859080672264099
v -0.00016341338050551713 0.29298821091651917 0.3024066984653473
v 0.15729530155658722 0.29298821091651917 0.26170921325683594
v 0.19652827084064484 0.5660759806632996 0.3350703716278076
v 0.29438111186027527 0.29298821091651917 0.15824633836746216
v 0.34051641821861267 0.5660759806632996 0.19617898762226105
v 0.3399471938610077 0.29298821091651917 -0.005789365619421005
v 0.39321979880332947 0.5660759806632996 0.006449915934354067
v 0.29438111186027527 0.29298821091651917 -0.16982503235340118
v 0.34051641821861267 0.5660759806632996 -0.1832791566848755
v -0.3408432900905609 0.5660759806632996 -0.1832791566848755
v -0.2947079837322235 0.29298821091651917 -0.16982503235340118
v -0.34027406573295593 0.29298821091651917 -0.005789308343082666
v -0.3935466706752777 0.5660759806632996 0.006449982523918152
v -0.2947079837322235 0.29298821091651917 0.15824636816978455
v -0.3408432900905609 0.5660759806632996 0.19617903232574463
v -0.1576220691204071 0.29298821091651917 0.26170921325683594
v -0.19685505330562592 0.5660759806632996 0.33507040143013
v -0.00016341338050551713 0.29298821091651917 0.3024066984653473
v -0.00016340651200152934 0.5660759806632996 0.3859080672264099
v -0.1968550682067871 0.5660759806632996 -0.3221704065799713
v -0.3408432900905609 0.5660759806632996 -0.1832791566848755
v -0.5407019853591919 0.9500830769538879 -0.3029157221317291
v -0.31224343180656433 0.9500830769538879 -0.5232871174812317
v -0.00016344089817721397 0.5660759806632996 -0.373008131980896
v -0.0001634409127291292 0.9500831961631775 -0.6039485931396484
v 0.1965281069278717 0.5660760402679443 -0.3221704363822937
v 0.3119164705276489 0.9500830769538879 -0.5232871174812317
v 0.34051641821861267 0.5660759806632996 -0.1832791566848755
v 0.5403750538825989 0.9500830769538879 -0.3029157519340515
v 0.39321979880332947 0.5660759806632996 0.006449915934354067
v 0.34051641821861267 0.5660759806632996 -0.1832791566848755
v 0.5403750538825989 0.9500830769538879 -0.3029157519340515
v 0.6239965558052063 0.9500831961631775 -0.001882852171547711
v 0.34051641821861267 0.5660759806632996 0.19617898762226105
v 0.5403750538825989 0.9500830769538879 0.29915010929107666
v 0.19652827084064484 0.5660759806632996 0.3350703716278076
v 0.311916708946228 0.9500830769538879 0.5195215344429016
v -0.00016340651200152934 0.5660759806632996 0.3859080672264099
v -0.00016338634304702282 0.9500830769538879 0.6001830697059631
v -0.6243234276771545 0.9500830769538879 -0.0018827470485121012
v -0.5407019853591919 0.9500830769538879 -0.3029157221317291
v -0.3408432900905609 0.5660759806632996 -0.1832791566848755
v -0.3935466706752777 0.5660759806632996 0.006449982523918152
v -0.5407019853591919 0.9500830769538879 0.29915016889572144
v -0.3408432900905609 0.5660759806632996 0.19617903232574463
v -0.31224343180656433 0.9500830769538879 0.5195215344429016
v -0.19685505330562592 0.5660759806632996 0.33507040143013
v -0.00016338634304702282 0.9500830769538879 0.6001830697059631
v -0.00016340651200152934 0.5660759806632996 0.3859080672264099
v -0.00016341338050551713 0.29298821091651917 0.3024066984653473
v -0.00016341180889867246 0.005313758738338947 0.31915536522865295
v 0.16624629497528076 0.005313758738338947 0.2761443555355072
v 0.15729530155658722 0.29298821091651917 0.26170921325683594
v 0.2880665957927704 0.005313758738338947 0.15863625705242157
v 0.29438111186027527 0.29298821091651917 0.15824633836746216
v 0.33265596628189087 0.005313759204000235 -0.0018828153843060136
v 0.3399471938610077 0.29298821091651917 -0.005789365619421005
v 0.2880665957927704 0.005313758738338947 -0.16240186989307404
v 0.29438111186027527 0.29298821091651917 -0.16982503235340118
v -0.288393497467041 0.005313758738338947 -0.16240184009075165
v -0.2947079837322235 0.29298821091651917 -0.16982503235340118
v -0.17021876573562622 0.29298821091651917 -0.28990739583969116
v -0.16657312214374542 0.005313758738338947 -0.2799099385738373
v -0.00016344089817721397 0.29298821091651917 -0.33386072516441345
v -0.00016344089817721397 0.005313758738338947 -0.32292091846466064
v 0.16989189386367798 0.29298821091651917 -0.28990745544433594
v 0.1662462204694748 0.005313758738338947 -0.27990999817848206
v 0.29438111186027527 0.29298821091651917 -0.16982503235340118
v 0.2880665957927704 0.005313758738338947 -0.16240186989307404
v -0.2947079837322235 0.29298821091651917 -0.16982503235340118
v -0.288393497467041 0.005313758738338947 -0.16240184009075165
v -0.3329828381538391 0.005313758738338947 -0.001882759272120893
v -0.34027406573295593 0.29298821091651917 -0.005789308343082666
v -0.288393497467041 0.005313758738338947 0.15863628685474396
v -0.2947079837322235 0.29298821091651917 0.15824636816978455
v -0.16657312214374542 0.005313758738338947 0.2761443853378296
v -0.1576220691204071 0.29298821091651917 0.26170921325683594
v -0.00016341180889867246 0.005313758738338947 0.31915536522865295
v -0.00016341338050551713 0.29298821091651917 0.3024066984653473
v 0.5403750538825989 0.9500830769538879 0.29915010929107666
v 0.6239965558052063 0.9500831961631775 -0.001882852171547711
v -0.0001634409127291292 0.9500831961631775 -0.6039485931396484
v 0.5403750538825989 0.9500830769538879 -0.3029157519340515
v 0.3119164705276489 0.9500830769538879 -0.5232871174812317
v -0.0001634409127291292 0.9500831961631775 -0.6039485931396484
v -0.31224343180656433 0.9500830769538879 -0.5232871174812317
v -0.5407019853591919 0.9500830769538879 -0.3029157221317291
v -0.31224343180656433 0.9500830769538879 0.5195215344429016
v -0.00016338634304702282 0.9500830769538879 0.6001830697059631
v -0.6243234276771545 0.9500830769538879 -0.0018827470485121012
v -0.5407019853591919 0.9500830769538879 0.29915016889572144
vn -0.08914577215909958 -0.33044523000717163 0.9396057724952698
vn 0.40634822845458984 -0.33250871300697327 0.8510693907737732
vn 0.0010620438260957599 0.999998927116394 -0.0010244486620649695
vn 0.4462921917438507 -0.8420599102973938 -0.3029165267944336
vn 0.7912091016769409 -0.4204825758934021 -0.44405242800712585
vn 0.4317065179347992 -0.4308965802192688 -0.7924377918243408
vn -0.7994596362113953 -0.40516653656959534 -0.4435136914253235
vn -0.4902513027191162 -0.8434224128723145 -0.2197551727294922
vn -0.3110027015209198 -0.8163654208183289 -0.48664653301239014
vn -0.523378849029541 -0.35560280084609985 -0.7743521332740784
vn -0.08468907326459885 -0.39533114433288574 -0.9146261811256409
vn 0.010802715085446835 -0.8414456844329834 -0.5402337312698364
vn 0.2328806221485138 -0.8712501525878906 -0.43207618594169617
vn 0.03479299694299698 -0.9260643720626831 -0.37575820088386536
vn 0.30329641699790955 -0.857222855091095 -0.4161493182182312
vn 0.31273090839385986 -0.9494587182998657 0.026971856132149696
vn 0.6869284510612488 -0.6584928035736084 -0.30743539333343506
vn 0.45596858859062195 -0.8238399028778076 0.3367200791835785
vn 0.27313271164894104 -0.7765989303588867 0.5677081942558289
vn 0 -1 0
vn -0.05784504488110542 -0.7787068486213684 0.6247155666351318
vn -0.05784504488110542 -0.7787068486213684 0.6247155666351318
vn -0.33351704478263855 -0.7993623614311218 0.4997861981391907
vn -0.4939298629760742 -0.8409069776535034 0.22115328907966614
vn -0.5333324074745178 -0.8446595072746277 -0.045900069177150726
vn -0.43318596482276917 -0.8521268963813782 -0.29364892840385437
vn -0.22177384793758392 -0.8593180775642395 -0.460856556892395
vn 0.03479299694299698 -0.9260643720626831 -0.37575820088386536
vn 0.04131116345524788 -0.8940028548240662 0.4461527168750763
vn 0.006875698920339346 -0.46373748779296875 0.8859459757804871
vn 0.41990411281585693 -0.4984464943408966 0.7584402561187744
vn 0.267728328704834 -0.8836086392402649 0.38413184881210327
vn 0.7411462068557739 -0.5047815442085266 0.4426034986972809
vn 0.4709535837173462 -0.8566790819168091 0.21048445999622345
vn 0.8973003029823303 -0.4414047598838806 -0.003746942849829793
vn 0.5288424491882324 -0.8474779725074768 -0.04589942470192909
vn 0.7912091016769409 -0.4204825758934021 -0.44405242800712585
vn 0.4462921917438507 -0.8420599102973938 -0.3029165267944336
vn -0.4902513027191162 -0.8434224128723145 -0.2197551727294922
vn -0.7994596362113953 -0.40516653656959534 -0.4435136914253235
vn -0.9053038954734802 -0.42476028203964233 0.0018918561981990933
vn -0.5243356823921204 -0.8503302931785583 0.04483898729085922
vn -0.7776532173156738 -0.4095503091812134 0.4769947826862335
vn -0.4014158844947815 -0.8705183267593384 0.2847159802913666
vn -0.43140697479248047 -0.4115944802761078 0.8027938604354858
vn -0.19564920663833618 -0.8924809694290161 0.40644699335098267
vn 0.006875698920339346 -0.46373748779296875 0.8859459757804871
vn 0.04131116345524788 -0.8940028548240662 0.4461527168750763
vn -0.3110027015209198 -0.8163654208183289 -0.48664653301239014
vn -0.4902513027191162 -0.8434224128723145 -0.2197551727294922
vn -0.7621052861213684 -0.38864707946777344 -0.517831027507782
vn -0.3945939838886261 -0.4076361358165741 -0.8234854936599731
vn 0.010802715085446835 -0.8414456844329834 -0.5402337312698364
vn 0.03711368143558502 0.899355411529541 -0.43564024567604065
vn 0.2328806221485138 -0.8712501525878906 -0.43207618594169617
vn 0.30804643034935 -0.8526101112365723 -0.42209407687187195
vn 0.4462921917438507 -0.8420599102973938 -0.3029165267944336
vn 0.847626268863678 -0.37210813164711 -0.37823963165283203
vn 0.5288424491882324 -0.8474779725074768 -0.04589942470192909
vn 0.4462921917438507 -0.8420599102973938 -0.3029165267944336
vn 0.847626268863678 -0.37210813164711 -0.37823963165283203
vn 0.7785593867301941 0.6228557229042053 0.07678557932376862
vn 0.4709535837173462 -0.8566790819168091 0.21048445999622345
vn 0.7761135697364807 -0.34149256348609924 0.5301231741905212
vn 0.267728328704834 -0.8836086392402649 0.38413184881210327
vn 0.40634822845458984 -0.33250871300697327 0.8510693907737732
vn 0.04131116345524788 -0.8940028548240662 0.4461527168750763
vn -0.08914577215909958 -0.33044523000717163 0.9396057724952698
vn -0.9272990822792053 -0.3655432462692261 -0.08058882504701614
vn -0.7621052861213684 -0.38864707946777344 -0.517831027507782
vn -0.4902513027191162 -0.8434224128723145 -0.2197551727294922
vn -0.5243356823921204 -0.8503302931785583 0.04483898729085922
vn -0.8565630912780762 -0.346381813287735 0.3825170397758484
vn -0.4014158844947815 -0.8705183267593384 0.2847159802913666
vn -0.5560781359672546 -0.3347330093383789 0.7607436180114746
vn -0.19564920663833618 -0.8924809694290161 0.40644699335098267
vn -0.08914577215909958 -0.33044523000717163 0.9396057724952698
vn 0.04131116345524788 -0.8940028548240662 0.4461527168750763
vn 0.006875698920339346 -0.46373748779296875 0.8859459757804871
vn -0.05784504488110542 -0.7787068486213684 0.6247155666351318
vn 0.27313271164894104 -0.7765989303588867 0.5677081942558289
vn 0.41990411281585693 -0.4984464943408966 0.7584402561187744
vn 0.45596858859062195 -0.8238399028778076 0.3367200791835785
vn 0.7411462068557739 -0.5047815442085266 0.4426034986972809
vn 0.31273090839385986 -0.9494587182998657 0.026971856132149696
vn 0.8973003029823303 -0.4414047598838806 -0.003746942849829793
vn 0.6869284510612488 -0.6584928035736084 -0.30743539333343506
vn 0.7912091016769409 -0.4204825758934021 -0.44405242800712585
vn -0.43318596482276917 -0.8521268963813782 -0.29364892840385437
vn -0.7994596362113953 -0.40516653656959534 -0.4435136914253235
vn -0.523378849029541 -0.35560280084609985 -0.7743521332740784
vn -0.22177384793758392 -0.8593180775642395 -0.460856556892395
vn -0.08468907326459885 -0.39533114433288574 -0.9146261811256409
vn 0.03479299694299698 -0.9260643720626831 -0.37575820088386536
vn 0.4317065179347992 -0.4308965802192688 -0.7924377918243408
vn 0.30329641699790955 -0.857222855091095 -0.4161493182182312
vn 0.7912091016769409 -0.4204825758934021 -0.44405242800712585
vn 0.6869284510612488 -0.6584928035736084 -0.30743539333343506
vn -0.7994596362113953 -0.40516653656959534 -0.4435136914253235
vn -0.43318596482276917 -0.8521268963813782 -0.29364892840385437
vn -0.5333324074745178 -0.8446595072746277 -0.045900069177150726
vn -0.9053038954734802 -0.42476028203964233 0.0018918561981990933
vn -0.4939298629760742 -0.8409069776535034 0.22115328907966614
vn -0.7776532173156738 -0.4095503091812134 0.4769947826862335
vn -0.33351704478263855 -0.7993623614311218 0.4997861981391907
vn -0.43140697479248047 -0.4115944802761078 0.8027938604354858
vn -0.05784504488110542 -0.7787068486213684 0.6247155666351318
vn 0.006875698920339346 -0.46373748779296875 0.8859459757804871
vn 0.7761135697364807 -0.34149256348609924 0.5301231741905212
vn 0.7785593867301941 0.6228557229042053 0.07678557932376862
vn 0.03711368143558502 0.899355411529541 -0.43564024567604065
vn 0.847626268863678 -0.37210813164711 -0.37823963165283203
vn 0.30804643034935 -0.8526101112365723 -0.42209407687187195
vn 0.03711368143558502 0.899355411529541 -0.43564024567604065
vn -0.3945939838886261 -0.4076361358165741 -0.8234854936599731
vn -0.7621052861213684 -0.38864707946777344 -0.517831027507782
vn -0.5560781359672546 -0.3347330093383789 0.7607436180114746
vn -0.08914577215909958 -0.33044523000717163 0.9396057724952698
vn -0.9272990822792053 -0.3655432462692261 -0.08058882504701614
vn -0.8565630912780762 -0.346381813287735 0.3825170397758484
vt 0.9995003938674927 0.004387855529785156
vt 0.9325799942016602 0.2177765965461731
vt 0.4999998211860657 0.004387855529785156
vt 0.5208398699760437 0.7661612629890442
vt 0.5208398103713989 0.7439810037612915
vt 0.5508734583854675 0.7439810037612915
vt 0.6379109025001526 0.7439810633659363
vt 0.6379109025001526 0.7661612033843994
vt 0.608917772769928 0.7661612033843994
vt 0.6089177131652832 0.7439810037612915
vt 0.5799240469932556 0.7439810037612915
vt 0.5799241065979004 0.7661612629890442
vt 0.5508734583854675 0.7661612033843994
vt 0.0004993677139282227 0.004387974739074707
vt 0.06741976737976074 0.21777665615081787
vt 0.4999999403953552 0.4311653971672058
vt 0.2502496838569641 0.3739880323410034
vt 0.7497501373291016 0.37398791313171387
vt 0.9325799942016602 0.2177765965461731
vt 0.49999988079071045 0.004387855529785156
vt 0.9995003938674927 0.004387855529785156
vt 0.0004995167255401611 0.004486024379730225
vt 0.06741994619369507 0.21787476539611816
vt 0.25024983286857605 0.3740861415863037
vt 0.5000000596046448 0.43126344680786133
vt 0.7497503161430359 0.37408602237701416
vt 0.9325801730155945 0.2178746461868286
vt 0.9995005130767822 0.0044858455657958984
vt 0.5208398699760437 0.7661612629890442
vt 0.5208398103713989 0.7439810037612915
vt 0.5508734583854675 0.7439810037612915
vt 0.5508734583854675 0.7661612033843994
vt 0.5799240469932556 0.7439810037612915
vt 0.5799241065979004 0.7661612629890442
vt 0.6089177131652832 0.7439810037612915
vt 0.608917772769928 0.7661612033843994
vt 0.6379109025001526 0.7439810633659363
vt 0.6379109025001526 0.7661612033843994
vt 0.5208225846290588 0.7622389197349548
vt 0.5208226442337036 0.7396499514579773
vt 0.5508499145507812 0.7396498918533325
vt 0.5508500337600708 0.7622389197349548
vt 0.5799161195755005 0.7396498918533325
vt 0.5799160599708557 0.7622389793395996
vt 0.6088628172874451 0.7396499514579773
vt 0.6088628172874451 0.7622389197349548
vt 0.6378105878829956 0.7396499514579773
vt 0.6378105878829956 0.7622389197349548
vt 0.7534569501876831 0.48781818151474
vt 1.0010857582092285 0.48781818151474
vt 1.0010857582092285 0.999306321144104
vt 0.7534569501876831 0.999306321144104
vt 0.5058232545852661 0.48781818151474
vt 0.5058232545852661 0.999306321144104
vt 0.2577035427093506 0.48781818151474
vt 0.2577035427093506 0.999306321144104
vt 0.001187782734632492 0.48781818151474
vt 0.001187782734632492 0.999306321144104
vt 0.7534569501876831 0.48781818151474
vt 1.001085877418518 0.48781818151474
vt 1.001085877418518 0.999306321144104
vt 0.7534569501876831 0.999306321144104
vt 0.5058233141899109 0.48781818151474
vt 0.5058233141899109 0.999306321144104
vt 0.2577035427093506 0.48781818151474
vt 0.2577035427093506 0.999306321144104
vt 0.0011877808719873428 0.48781818151474
vt 0.0011877808719873428 0.999306321144104
vt 0.25750258564949036 0.9989713430404663
vt 0.0010405294597148895 0.9989713430404663
vt 0.0010405294597148895 0.4874647259712219
vt 0.25750258564949036 0.4874647259712219
vt 0.5057550668716431 0.9989713430404663
vt 0.5057550668716431 0.4874647259712219
vt 0.7529877424240112 0.9989713430404663
vt 0.7529877424240112 0.4874647259712219
vt 1.000229835510254 0.9989713430404663
vt 1.000229835510254 0.4874647259712219
vt 0.0011877808719873428 0.998658299446106
vt 0.0011877808719873428 0.48717010021209717
vt 0.2577035427093506 0.48717010021209717
vt 0.2577035427093506 0.998658299446106
vt 0.5058233141899109 0.48717010021209717
vt 0.5058233141899109 0.998658299446106
vt 0.7534569501876831 0.48717010021209717
vt 0.7534569501876831 0.998658299446106
vt 1.001085877418518 0.48717010021209717
vt 1.001085877418518 0.998658299446106
vt 1.0010857582092285 0.48717010021209717
vt 1.0010857582092285 0.998658299446106
vt 0.7534569501876831 0.998658299446106
vt 0.7534569501876831 0.48717010021209717
vt 0.5058232545852661 0.998658299446106
vt 0.5058232545852661 0.48717010021209717
vt 0.2577035427093506 0.998658299446106
vt 0.2577035427093506 0.48717010021209717
vt 0.001187782734632492 0.998658299446106
vt 0.001187782734632492 0.48717010021209717
vt 0.0010405294597148895 0.9982680082321167
vt 0.0010405294597148895 0.4867614507675171
vt 0.25750258564949036 0.4867614507675171
vt 0.25750258564949036 0.9982680082321167
vt 0.5057550668716431 0.4867614507675171
vt 0.5057550668716431 0.9982680082321167
vt 0.7529877424240112 0.4867614507675171
vt 0.7529877424240112 0.9982680082321167
vt 1.000229835510254 0.4867614507675171
vt 1.000229835510254 0.9982680082321167
vt 0.7497501373291016 0.37398791313171387
vt 0.4999999403953552 0.4311653971672058
vt 0.0004993677139282227 0.004387974739074707
vt 0.2502496838569641 0.3739880323410034
vt 0.06741976737976074 0.21777665615081787
vt 0.9995005130767822 0.0044858455657958984
vt 0.9325801730155945 0.2178746461868286
vt 0.7497503161430359 0.37408602237701416
vt 0.06741994619369507 0.21787476539611816
vt 0.0004995167255401611 0.004486024379730225
vt 0.5000000596046448 0.43126344680786133
vt 0.25024983286857605 0.3740861415863037
g Geoset0
s 1
usemtl mat_voodoodrum01
f 1/1/1 2/2/2 3/3/3
f 4/4/4 5/5/5 6/6/6
f 7/7/7 8/8/8 9/9/9
f 9/9/9 10/10/10 7/7/7
f 11/11/11 10/10/10 9/9/9
f 9/9/9 12/12/12 11/11/11
f 6/6/6 11/11/11 12/12/12
f 12/12/12 13/13/13 6/6/6
f 6/6/6 13/13/13 4/4/4
f 14/14/14 15/15/15 16/16/16
f 15/15/15 17/17/17 16/16/16
f 18/18/18 19/19/19 20/20/20
f 19/19/19 21/21/21 20/20/20
f 20/20/20 14/14/14 16/16/16
f 16/16/16 18/18/18 20/20/20
f 22/22/22 23/23/23 20/20/20
f 23/23/23 24/24/24 20/20/20
f 24/24/24 25/25/25 20/20/20
f 25/25/25 26/26/26 20/20/20
f 26/26/26 27/27/27 20/20/20
f 27/27/27 28/28/28 20/20/20
f 29/29/29 30/30/30 31/31/31
f 31/31/31 32/32/32 29/29/29
f 32/32/32 31/31/31 33/33/33
f 33/33/33 34/34/34 32/32/32
f 34/34/34 33/33/33 35/35/35
f 35/35/35 36/36/36 34/34/34
f 36/36/36 35/35/35 37/37/37
f 37/37/37 38/38/38 36/36/36
f 39/39/39 40/40/40 41/41/41
f 41/41/41 42/42/42 39/39/39
f 42/42/42 41/41/41 43/43/43
f 43/43/43 44/44/44 42/42/42
f 44/44/44 43/43/43 45/45/45
f 45/45/45 46/46/46 44/44/44
f 46/46/46 45/45/45 47/47/47
f 47/47/47 48/48/48 46/46/46
f 49/49/49 50/50/50 51/51/51
f 51/51/51 52/52/52 49/49/49
f 53/53/53 49/49/49 52/52/52
f 52/52/52 54/54/54 53/53/53
f 55/55/55 53/53/53 54/54/54
f 54/54/54 56/56/56 55/55/55
f 57/57/57 55/55/55 56/56/56
f 56/56/56 58/58/58 57/57/57
f 59/59/59 60/60/60 61/61/61
f 61/61/61 62/62/62 59/59/59
f 63/63/63 59/59/59 62/62/62
f 62/62/62 64/64/64 63/63/63
f 65/65/65 63/63/63 64/64/64
f 64/64/64 66/66/66 65/65/65
f 67/67/67 65/65/65 66/66/66
f 66/66/66 68/68/68 67/67/67
f 69/69/69 70/70/70 71/71/71
f 71/71/71 72/72/72 69/69/69
f 73/73/73 69/69/69 72/72/72
f 72/72/72 74/74/74 73/73/73
f 75/75/75 73/73/73 74/74/74
f 74/74/74 76/76/76 75/75/75
f 77/77/77 75/75/75 76/76/76
f 76/76/76 78/78/78 77/77/77
f 79/79/79 80/80/80 81/81/81
f 81/81/81 82/82/82 79/79/79
f 82/82/82 81/81/81 83/83/83
f 83/83/83 84/84/84 82/82/82
f 84/84/84 83/83/83 85/85/85
f 85/85/85 86/86/86 84/84/84
f 86/86/86 85/85/85 87/87/87
f 87/87/87 88/88/88 86/86/86
f 89/89/89 90/90/90 91/91/91
f 91/91/91 92/92/92 89/89/89
f 92/92/92 91/91/91 93/93/93
f 93/93/93 94/94/94 92/92/92
f 94/94/94 93/93/93 95/95/95
f 95/95/95 96/96/96 94/94/94
f 96/96/96 95/95/95 97/97/97
f 97/97/97 98/98/98 96/96/96
f 99/99/99 100/100/100 101/101/101
f 101/101/101 102/102/102 99/99/99
f 102/102/102 101/101/101 103/103/103
f 103/103/103 104/104/104 102/102/102
f 104/104/104 103/103/103 105/105/105
f 105/105/105 106/106/106 104/104/104
f 106/106/106 105/105/105 107/107/107
f 107/107/107 108/108/108 106/106/106
f 2/2/2 109/109/109 3/3/3
f 109/109/109 110/110/110 3/3/3
f 3/3/3 110/110/110 111/111/111
f 110/110/110 112/112/112 111/111/111
f 112/112/112 113/113/113 111/111/111
f 114/114/114 115/115/115 3/3/3
f 115/115/115 116/116/116 3/3/3
f 117/117/117 118/118/118 3/3/3
f 116/116/116 119/119/119 3/3/3
f 119/119/119 120/120/120 3/3/3
f 120/120/120 117/117/117 3/3/3