# Exported using wow.export v0.1.49
o 
mtllib voodoodrum01.mtl
v -0.42253389954566956 0.050463225692510605 -0.5297741293907166
v -0.11427095532417297 0.050463225692510605 -0.6094490885734558
v -0.11427092552185059 0.050463225692510605 -0.0147471958771348
v 0.637890636920929 0.8483036160469055 -0.014747289940714836
v 0.5371201038360596 0.8483036160469055 -0.37751543521881104
v -0.11427095532417297 0.8483036160469055 -0.7402834892272949
v 0.26180973649024963 0.8483035564422607 -0.6430801153182983
v -0.11427095532417297 0.8124613761901855 -0.014747227542102337
v 0.5371201634407043 0.8483036160469055 0.34802088141441345
v -0.1142708882689476 0.8483036160469055 0.7107890844345093
v 0.26180994510650635 0.8483036160469055 0.6135856509208679
v -0.49035173654556274 0.8483036160469055 0.6135857105255127
v -0.1142708882689476 0.8483036160469055 0.7107890844345093
v -0.7656620144844055 0.8483036160469055 0.3480209708213806
v -0.11427095532417297 0.8483036160469055 -0.7402834892272949
v -0.4903517961502075 0.8483036160469055 -0.6430800557136536
v -0.7656620144844055 0.8483036160469055 -0.37751534581184387
v -0.8664325475692749 0.8483036160469055 -0.014747164212167263
v 0.26180994510650635 0.8483036160469055 0.6135856509208679
v -0.1142708882689476 0.8483036160469055 0.7107890844345093
v -0.1142709031701088 0.050463225692510605 0.5799546837806702
v 0.19399206340312958 0.050463225692510605 0.5002797245979309
v 0.5371201634407043 0.8483036160469055 0.34802088141441345
v 0.4196561574935913 0.050463225692510605 0.2826036810874939
v 0.637890636920929 0.8483036160469055 -0.014747289940714836
v 0.5022549629211426 0.0504632294178009 -0.014747274108231068
v 0.5371201038360596 0.8483036160469055 -0.37751543521881104
v 0.4196561276912689 0.050463225692510605 -0.3120981752872467
v -0.8664325475692749 0.8483036160469055 -0.014747164212167263
v -0.7656620144844055 0.8483036160469055 -0.37751534581184387
v -0.6481980681419373 0.050463225692510605 -0.3120981454849243
v -0.7307968735694885 0.050463225692510605 -0.01474716980010271
v -0.7656620144844055 0.8483036160469055 0.3480209708213806
v -0.6481980681419373 0.050463225692510605 0.28260377049446106
v -0.49035173654556274 0.8483036160469055 0.6135857105255127
v -0.42253389954566956 0.050463225692510605 0.5002797245979309
v -0.1142708882689476 0.8483036160469055 0.7107890844345093
v -0.1142709031701088 0.050463225692510605 0.5799546837806702
v -0.42253389954566956 0.050463225692510605 -0.5297741293907166
v -0.6481980681419373 0.050463225692510605 -0.3120981454849243
v -0.7656620144844055 0.8483036160469055 -0.37751534581184387
v -0.4903517961502075 0.8483036160469055 -0.6430800557136536
v -0.11427095532417297 0.050463225692510605 -0.6094490885734558
v -0.11427095532417297 0.8483036160469055 -0.7402834892272949
v 0.19399189949035645 0.050463225692510605 -0.5297741889953613
v 0.26180973649024963 0.8483035564422607 -0.6430801153182983
v 0.4196561276912689 0.050463225692510605 -0.3120981752872467
v 0.5371201038360596 0.8483036160469055 -0.37751543521881104
v 0.19399189949035645 0.050463225692510605 -0.5297741889953613
v 0.4196561276912689 0.050463225692510605 -0.3120981752872467
v 0.5022549629211426 0.0504632294178009 -0.014747274108231068
v -0.11427095532417297 0.050463225692510605 -0.6094490885734558
v 0.4196561574935913 0.050463225692510605 0.2826036810874939
v 0.19399206340312958 0.050463225692510605 0.5002797245979309
v -0.1142709031701088 0.050463225692510605 0.5799546837806702
v -0.1142709031701088 0.050463225692510605 0.5799546837806702
v -0.42253389954566956 0.050463225692510605 0.5002797245979309
v -0.6481980681419373 0.050463225692510605 0.28260377049446106
v -0.7307968735694885 0.050463225692510605 -0.01474716980010271
v -0.6481980681419373 0.050463225692510605 -0.3120981454849243
vn -0.22998329997062683 -0.9205986857414246 -0.3156037926673889
vn -0.027621062472462654 -0.9540716409683228 -0.2983025312423706
vn 0 -1 0
vn 0.5330237746238708 0.8446314930915833 0.04983283951878548
vn 0.7172808051109314 0.618383526802063 -0.3211074769496918
vn 0.033062733709812164 0.9258039593696594 -0.37655535340309143
vn 0.588892936706543 0.011293657124042511 -0.8081321120262146
vn 0.0010620421962812543 0.999998927116394 -0.0010244478471577168
vn 0.6444498300552368 0.6265365481376648 0.4383336305618286
vn -0.0723532885313034 0.6356697082519531 0.768562912940979
vn 0.33447620272636414 0.6333073377609253 0.6978878378868103
vn -0.45775526762008667 0.6311360001564026 0.626200795173645
vn -0.0723532885313034 0.6356697082519531 0.768562912940979
vn -0.7133614420890808 0.6244339942932129 0.3181157112121582
vn 0.033062733709812164 0.9258039593696594 -0.37655535340309143
vn -0.33447614312171936 0.6333073377609253 -0.6978879570960999
vn -0.644449770450592 0.6265366077423096 -0.4383336305618286
vn -0.779876708984375 0.622194230556488 -0.0683126300573349
vn 0.33447620272636414 0.6333073377609253 0.6978878378868103
vn -0.0723532885313034 0.6356697082519531 0.768562912940979
vn 0.03564262017607689 -0.9222557544708252 0.3849336504936218
vn 0.2299833595752716 -0.9205986857414246 0.3156038224697113
vn 0.6444498300552368 0.6265365481376648 0.4383336305618286
vn 0.3617755174636841 -0.9180895090103149 0.16195715963840485
vn 0.5330237746238708 0.8446314930915833 0.04983283951878548
vn 0.2507801949977875 -0.967802882194519 -0.021605927497148514
vn 0.7172808051109314 0.618383526802063 -0.3211074769496918
vn 0.4489459693431854 -0.8401121497154236 -0.30439960956573486
vn -0.779876708984375 0.622194230556488 -0.0683126300573349
vn -0.644449770450592 0.6265366077423096 -0.4383336305618286
vn -0.3617754280567169 -0.9180895686149597 -0.16195714473724365
vn -0.39688554406166077 -0.9172309637069702 0.03419356793165207
vn -0.7133614420890808 0.6244339942932129 0.3181157112121582
vn -0.3265712261199951 -0.9188699126243591 0.22142566740512848
vn -0.45775526762008667 0.6311360001564026 0.626200795173645
vn -0.16850332915782928 -0.9213854670524597 0.3502219617366791
vn -0.0723532885313034 0.6356697082519531 0.768562912940979
vn 0.03564262017607689 -0.9222557544708252 0.3849336504936218
vn -0.22998329997062683 -0.9205986857414246 -0.3156037926673889
vn -0.3617754280567169 -0.9180895686149597 -0.16195714473724365
vn -0.644449770450592 0.6265366077423096 -0.4383336305618286
vn -0.33447614312171936 0.6333073377609253 -0.6978879570960999
vn -0.027621062472462654 -0.9540716409683228 -0.2983025312423706
vn 0.033062733709812164 0.9258039593696594 -0.37655535340309143
vn 0.1685032993555069 -0.9213854670524597 -0.35022199153900146
vn 0.588892936706543 0.011293657124042511 -0.8081321120262146
vn 0.4489459693431854 -0.8401121497154236 -0.30439960956573486
vn 0.7172808051109314 0.618383526802063 -0.3211074769496918
vn 0.1685032993555069 -0.9213854670524597 -0.35022199153900146
vn 0.4489459693431854 -0.8401121497154236 -0.30439960956573486
vn 0.2507801949977875 -0.967802882194519 -0.021605927497148514
vn -0.027621062472462654 -0.9540716409683228 -0.2983025312423706
vn 0.3617755174636841 -0.9180895090103149 0.16195715963840485
vn 0.2299833595752716 -0.9205986857414246 0.3156038224697113
vn 0.03564262017607689 -0.9222557544708252 0.3849336504936218
vn 0.03564262017607689 -0.9222557544708252 0.3849336504936218
vn -0.16850332915782928 -0.9213854670524597 0.3502219617366791
vn -0.3265712261199951 -0.9188699126243591 0.22142566740512848
vn -0.39688554406166077 -0.9172309637069702 0.03419356793165207
vn -0.3617754280567169 -0.9180895686149597 -0.16195714473724365
vt 0.9325801730155945 0.2178746461868286
vt 0.9995005130767822 0.0044858455657958984
vt 0.49999988079071045 0.004387855529785156
vt 0.4999999403953552 0.4311653971672058
vt 0.2502496838569641 0.3739880323410034
vt 0.0004993677139282227 0.004387974739074707
vt 0.06741976737976074 0.21777665615081787
vt 0.4999998211860657 0.004387855529785156
vt 0.7497501373291016 0.37398791313171387
vt 0.9995003938674927 0.004387855529785156
vt 0.9325799942016602 0.2177765965461731
vt 0.06741994619369507 0.21787476539611816
vt 0.0004995167255401611 0.004486024379730225
vt 0.25024983286857605 0.3740861415863037
vt 0.9995005130767822 0.0044858455657958984
vt 0.9325801730155945 0.2178746461868286
vt 0.7497503161430359 0.37408602237701416
vt 0.5000000596046448 0.43126344680786133
vt 0.2577035427093506 1.0065526962280273
vt 0.0011877808719873428 1.0065526962280273
vt 0.0011877808719873428 0.48717010021209717
vt 0.2577035427093506 0.48717010021209717
vt 0.5058233141899109 1.0065526962280273
vt 0.5058233141899109 0.48717010021209717
vt 0.7534569501876831 1.0065526962280273
vt 0.7534569501876831 0.48717010021209717
vt 1.001085877418518 1.0065526962280273
vt 1.001085877418518 0.48717010021209717
vt 0.25750258564949036 1.0062177181243896
vt 0.0010405294597148895 1.0062177181243896
vt 0.0010405294597148895 0.4867614507675171
vt 0.25750258564949036 0.4867614507675171
vt 0.5057550668716431 1.0062177181243896
vt 0.5057550668716431 0.4867614507675171
vt 0.7529877424240112 1.0062177181243896
vt 0.7529877424240112 0.4867614507675171
vt 1.000229835510254 1.0062177181243896
vt 1.000229835510254 0.4867614507675171
vt 0.7534569501876831 0.48717010021209717
vt 1.0010857582092285 0.48717010021209717
vt 1.0010857582092285 1.0065526962280273
vt 0.7534569501876831 1.0065526962280273
vt 0.5058232545852661 0.48717010021209717
vt 0.5058232545852661 1.0065526962280273
vt 0.2577035427093506 0.48717010021209717
vt 0.2577035427093506 1.0065526962280273
vt 0.001187782734632492 0.48717010021209717
vt 0.001187782734632492 1.0065526962280273
vt 0.06741976737976074 0.21777665615081787
vt 0.2502496838569641 0.3739880323410034
vt 0.4999999403953552 0.4311653971672058
vt 0.0004993677139282227 0.004387974739074707
vt 0.7497501373291016 0.37398791313171387
vt 0.9325799942016602 0.2177765965461731
vt 0.9995003938674927 0.004387855529785156
vt 0.0004995167255401611 0.004486024379730225
vt 0.06741994619369507 0.21787476539611816
vt 0.25024983286857605 0.3740861415863037
vt 0.5000000596046448 0.43126344680786133
vt 0.7497503161430359 0.37408602237701416
g Geoset0
s 1
usemtl mat_voodoodrum02
f 1/1/1 2/2/2 3/3/3
f 4/4/4 5/5/5 6/6/6
f 5/5/5 7/7/7 6/6/6
f 8/8/8 4/4/4 6/6/6
f 9/9/9 4/4/4 8/8/8
f 10/10/10 11/11/11 8/8/8
f 11/11/11 9/9/9 8/8/8
f 12/12/12 13/13/13 8/8/8
f 14/14/14 12/12/12 8/8/8
f 15/15/15 16/16/16 8/8/8
f 16/16/16 17/17/17 8/8/8
f 17/17/17 18/18/18 8/8/8
f 18/18/18 14/14/14 8/8/8
f 19/19/19 20/20/20 21/21/21
f 21/21/21 22/22/22 19/19/19
f 23/23/23 19/19/19 22/22/22
f 22/22/22 24/24/24 23/23/23
f 25/25/25 23/23/23 24/24/24
f 24/24/24 26/26/26 25/25/25
f 27/27/27 25/25/25 26/26/26
f 26/26/26 28/28/28 27/27/27
f 29/29/29 30/30/30 31/31/31
f 31/31/31 32/32/32 29/29/29
f 33/33/33 29/29/29 32/32/32
f 32/32/32 34/34/34 33/33/33
f 35/35/35 33/33/33 34/34/34
f 34/34/34 36/36/36 35/35/35
f 37/37/37 35/35/35 36/36/36
f 36/36/36 38/38/38 37/37/37
f 39/39/39 40/40/40 41/41/41
f 41/41/41 42/42/42 39/39/39
f 43/43/43 39/39/39 42/42/42
f 42/42/42 44/44/44 43/43/43
f 45/45/45 43/43/43 44/44/44
f 44/44/44 46/46/46 45/45/45
f 47/47/47 45/45/45 46/46/46
f 46/46/46 48/48/48 47/47/47
f 49/49/49 50/50/50 51/51/51
f 52/52/52 49/49/49 51/51/51
f 3/3/3 52/52/52 51/51/51
f 51/51/51 53/53/53 3/3/3
f 53/53/53 54/54/54 3/3/3
f 54/54/54 55/55/55 3/3/3
f 56/56/56 57/57/57 3/3/3
f 57/57/57 58/58/58 3/3/3
f 58/58/58 59/59/59 3/3/3
f 59/59/59 60/60/60 3/3/3
f 60/60/60 1/1/1 3/3/3