# Exported using wow.export v0.1.49
o 
mtllib butterchurner.mtl
v -0.4201785922050476 -0.003466486930847168 -0.24259021878242493
v -0.4201785922050476 -0.003466486930847168 0.2425902634859085
v -0.28572145104408264 1.158981204032898 0.16496138274669647
v 1.431817331365437e-8 2.3118221759796143 1.8082256802998131e-9
v 0.08772758394479752 2.2702889442443848 0.050649527460336685
v 0.08772758394479752 2.2702889442443848 -0.050649553537368774
v 1.9275114837569163e-8 2.2702889442443848 0.10129908472299576
v -0.08772756159305573 2.2702889442443848 0.05064954236149788
v -0.08772756904363632 2.2702889442443848 -0.05064953491091728
v 1.0419266338601574e-8 2.2702889442443848 -0.10129907727241516
v -2.7908779731689037e-9 1.1589810848236084 3.8031409133054694e-9
v 0.28572145104408264 1.158981204032898 0.1649613380432129
v 0.28572142124176025 1.158981204032898 -0.16496139764785767
v 2.605188242910117e-8 1.158981204032898 0.32992273569107056
v -0.28572145104408264 1.158981204032898 0.16496138274669647
v -0.28572145104408264 1.158981204032898 -0.16496135294437408
v -2.7908784172581136e-9 1.158981204032898 -0.32992270588874817
v 2.970384382905422e-9 -0.0034665067214518785 3.8031409133054694e-9
v -0.4201785922050476 -0.003466486930847168 -0.24259021878242493
v 2.9703832726823975e-9 -0.0034665067214518785 -0.48518049716949463
v 0.4201785922050476 -0.0034665267448872328 -0.2425902634859085
v 0.4201785922050476 -0.0034665267448872328 0.24259015917778015
v -0.4201785922050476 -0.003466486930847168 0.2425902634859085
v 4.538621212191174e-8 -0.0034665067214518785 0.48518049716949463
v -0.06464816629886627 0.395683228969574 0.03732464835047722
v 1.9275114837569163e-8 2.2702889442443848 0.10129908472299576
v -0.08772756159305573 2.2702889442443848 0.05064954236149788
v -0.06464817374944687 0.395683228969574 -0.03732464089989662
v 1.704596108709211e-8 0.395683228969574 0.07464929670095444
v 0.08772758394479752 2.2702889442443848 0.050649527460336685
v 0.06464818865060806 0.395683228969574 0.03732463717460632
v 0.08772758394479752 2.2702889442443848 -0.050649553537368774
v 0.06464818865060806 0.395683228969574 -0.037324655801057816
v 1.0419266338601574e-8 2.2702889442443848 -0.10129907727241516
v 1.0519912940765153e-8 0.395683228969574 -0.07464928925037384
v -0.08772756904363632 2.2702889442443848 -0.05064953491091728
v 2.605188242910117e-8 1.158981204032898 0.32992273569107056
v 4.538621212191174e-8 -0.0034665067214518785 0.48518049716949463
v 0.28572145104408264 1.158981204032898 0.1649613380432129
v 0.4201785922050476 -0.0034665267448872328 0.24259015917778015
v 0.28572142124176025 1.158981204032898 -0.16496139764785767
v 0.4201785922050476 -0.0034665267448872328 -0.2425902634859085
v -2.7908784172581136e-9 1.158981204032898 -0.32992270588874817
v 2.9703832726823975e-9 -0.0034665067214518785 -0.48518049716949463
v -0.28572145104408264 1.158981204032898 -0.16496135294437408
v -0.4201785922050476 -0.003466486930847168 -0.24259021878242493
v -0.28572145104408264 1.158981204032898 -0.16496135294437408
vn -0.7995482087135315 -0.5329253077507019 -0.27697157859802246
vn -0.6396385431289673 -0.5329253077507019 0.5539432764053345
vn -0.7051018476486206 0.665710985660553 0.244254469871521
vn 1.3738971738064265e-8 1 -5.49558887286139e-9
vn 0.6929206252098083 0.4644613564014435 0.5514858365058899
vn 0.8240610361099243 0.46446141600608826 -0.32434388995170593
vn -0.13114048540592194 0.46446138620376587 0.8758297562599182
vn -0.8240610957145691 0.4644613564014435 0.32434386014938354
vn -0.6929205656051636 0.46446141600608826 -0.5514858961105347
vn 0.13114050030708313 0.4644613564014435 -0.8758297562599182
vn 0 1 0
vn 0.5640815496444702 0.665710985660553 0.48850879073143005
vn 0.7051018476486206 0.665710985660553 -0.24425449967384338
vn -0.14102031290531158 0.6657110452651978 0.7327633500099182
vn -0.7051018476486206 0.665710985660553 0.244254469871521
vn -0.5640814900398254 0.6657110452651978 -0.48850885033607483
vn 0.14102037250995636 0.665710985660553 -0.7327633500099182
vn -4.728516600494004e-8 -1 1.3779336109563905e-15
vn -0.7995482087135315 -0.5329253077507019 -0.27697157859802246
vn -0.1599096804857254 -0.5329253077507019 -0.8309148550033569
vn 0.6396385431289673 -0.5329253077507019 -0.5539432764053345
vn 0.7995482087135315 -0.5329253077507019 0.2769715487957001
vn -0.6396385431289673 -0.5329253077507019 0.5539432764053345
vn 0.15990974009037018 -0.5329253673553467 0.8309148550033569
vn -0.7558552622795105 -0.013958681374788284 0.6545898914337158
vn -0.13114048540592194 0.46446138620376587 0.8758297562599182
vn -0.8240610957145691 0.4644613564014435 0.32434386014938354
vn -0.9448191523551941 -0.013958682306110859 -0.32729488611221313
vn 0.18896394968032837 -0.01395868044346571 0.9818848371505737
vn 0.6929206252098083 0.4644613564014435 0.5514858365058899
vn 0.9448191523551941 -0.013958682306110859 0.32729485630989075
vn 0.8240610361099243 0.46446141600608826 -0.32434388995170593
vn 0.7558552622795105 -0.013958682306110859 -0.6545899510383606
vn 0.13114050030708313 0.4644613564014435 -0.8758297562599182
vn -0.18896381556987762 -0.013958679512143135 -0.9818848371505737
vn -0.6929205656051636 0.46446141600608826 -0.5514858961105347
vn -0.14102031290531158 0.6657110452651978 0.7327633500099182
vn 0.15990974009037018 -0.5329253673553467 0.8309148550033569
vn 0.5640815496444702 0.665710985660553 0.48850879073143005
vn 0.7995482087135315 -0.5329253077507019 0.2769715487957001
vn 0.7051018476486206 0.665710985660553 -0.24425449967384338
vn 0.6396385431289673 -0.5329253077507019 -0.5539432764053345
vn 0.14102037250995636 0.665710985660553 -0.7327633500099182
vn -0.1599096804857254 -0.5329253077507019 -0.8309148550033569
vn -0.5640814900398254 0.6657110452651978 -0.48850885033607483
vn -0.7995482087135315 -0.5329253077507019 -0.27697157859802246
vn -0.5640814900398254 0.6657110452651978 -0.48850885033607483
vt 0.25390625 0.74609375
vt 0.25390625 0.65625
vt 0.74609375 0.65625
vt 0.55859375 0.546875
vt 0.48828125 0.56640625
vt 0.48828125 0.52734375
vt 0.55859375 0.5859375
vt 0.6328125 0.56640625
vt 0.6328125 0.52734375
vt 0.55859375 0.50390625
vt 0.51171875 0.62109375
vt 0.37890625 0.6640625
vt 0.37890625 0.57421875
vt 0.51171875 0.71484375
vt 0.37890625 0.6640625
vt 0.37890625 0.57421875
vt 0.51171875 0.5234375
vt 0.51171875 0.62109375
vt 0.3125 0.57421875
vt 0.51171875 0.5234375
vt 0.3125 0.57421875
vt 0.3125 0.6875
vt 0.3125 0.6875
vt 0.51171875 0.71484375
vt 0.25390625 0.5859375
vt 0.71484375 0.6640625
vt 0.71484375 0.5859375
vt 0.25390625 0.50390625
vt 0.25390625 0.6640625
vt 0.71484375 0.74609375
vt 0.25390625 0.74609375
vt 0.71484375 0.6640625
vt 0.25390625 0.6640625
vt 0.71484375 0.5859375
vt 0.25390625 0.5859375
vt 0.71484375 0.50390625
vt 0.74609375 0.50390625
vt 0.25390625 0.50390625
vt 0.74609375 0.65625
vt 0.25390625 0.65625
vt 0.74609375 0.50390625
vt 0.25390625 0.50390625
vt 0.74609375 0.65625
vt 0.25390625 0.65625
vt 0.74609375 0.50390625
vt 0.25390625 0.50390625
vt 0.74609375 0.74609375
g Geoset0
s 1
usemtl mat_bar_but_hay_har_car
f 1/1/1 2/2/2 3/3/3
f 4/4/4 5/5/5 6/6/6
f 4/4/4 7/7/7 5/5/5
f 4/4/4 8/8/8 7/7/7
f 4/4/4 9/9/9 8/8/8
f 4/4/4 10/10/10 9/9/9
f 4/4/4 6/6/6 10/10/10
f 11/11/11 12/12/12 13/13/13
f 11/11/11 14/14/14 12/12/12
f 11/11/11 15/15/15 14/14/14
f 11/11/11 16/16/16 15/15/15
f 11/11/11 17/17/17 16/16/16
f 11/11/11 13/13/13 17/17/17
f 18/18/18 19/19/19 20/20/20
f 18/18/18 20/20/20 21/21/21
f 18/18/18 21/21/21 22/22/22
f 18/18/18 23/23/23 19/19/19
f 18/18/18 24/24/24 23/23/23
f 18/18/18 22/22/22 24/24/24
f 25/25/25 26/26/26 27/27/27
f 28/28/28 25/25/25 27/27/27
f 25/25/25 29/29/29 26/26/26
f 29/29/29 30/30/30 26/26/26
f 29/29/29 31/31/31 30/30/30
f 31/31/31 32/32/32 30/30/30
f 31/31/31 33/33/33 32/32/32
f 33/33/33 34/34/34 32/32/32
f 33/33/33 35/35/35 34/34/34
f 35/35/35 36/36/36 34/34/34
f 35/35/35 28/28/28 36/36/36
f 28/28/28 27/27/27 36/36/36
f 2/2/2 37/37/37 3/3/3
f 2/2/2 38/38/38 37/37/37
f 38/38/38 39/39/39 37/37/37
f 38/38/38 40/40/40 39/39/39
f 40/40/40 41/41/41 39/39/39
f 40/40/40 42/42/42 41/41/41
f 42/42/42 43/43/43 41/41/41
f 42/42/42 44/44/44 43/43/43
f 44/44/44 45/45/45 43/43/43
f 44/44/44 46/46/46 45/45/45
f 1/1/1 3/3/3 47/47/47