# Exported using wow.export v0.1.49
o 
mtllib redridgebush02.mtl
v -0.3162109851837158 4.636360168457031 -0.24099299311637878
v 0.4448310136795044 4.277810096740723 0.4424560070037842
v 0.7761780023574829 0.026090800762176514 -0.9422919750213623
v 0.012064400129020214 -0.02274310030043125 0.3136169910430908
v -0.9147080183029175 -0.02274310030043125 -0.3843280076980591
v -0.7490860223770142 4.636360168457031 -0.6384530067443848
v 0.1776849925518036 4.636360168457031 0.05949059873819351
v -0.3405280113220215 -0.6286720037460327 0.10943800210952759
v -0.23341399431228638 -0.6286720037460327 -2.2861599922180176
v 0.05117940157651901 4.636360168457031 -2.7177700996398926
v -0.05593809857964516 4.636360168457031 0.1082179993391037
v -0.313508003950119 -0.6286720037460327 -0.22317799925804138
v 2.8355600833892822 -0.6286720037460327 -0.7495890259742737
v 3.076580047607422 4.636360168457031 -0.49668100476264954
v -0.19453799724578857 4.636360168457031 0.029730599373579025
v 0.11010199785232544 -0.6286720037460327 1.9354000091552734
v 0.2172199934720993 -0.6286720037460327 -0.1565150022506714
v -0.0673736035823822 4.636360168457031 -0.20753200352191925
v -0.1744920015335083 4.636360168457031 2.1079399585723877
v -2.4014201164245605 -0.6286720037460327 0.77851402759552
v 0.17199799418449402 -0.6286720037460327 0.1625719964504242
v 0.05302309989929199 4.636360168457031 -0.14257200062274933
v -3.2742199897766113 4.933499813079834 0.3531529903411865
v -0.7174720168113708 0.06303279846906662 -0.17511899769306183
v -0.8573780059814453 -0.6331220269203186 -0.2845030128955841
v 0.6677579879760742 -0.6331220269203186 -2.235419988632202
v 0.8076609969139099 0.06303279846906662 -2.1260299682617188
v 1.2894999980926514 2.892889976501465 -1.7197099924087524
v -0.23563499748706818 1.9413299560546875 0.2311989963054657
v -1.8431700468063354 1.7087600231170654 -0.5120940208435059
v 0.579177975654602 1.7087600231170654 0.0020472200121730566
v 0.48802798986434937 -0.029626699164509773 0.6691529750823975
v -1.934309959411621 -0.02962690033018589 0.15500900149345398
v -1.903689980506897 -0.6501920223236084 0.46046900749206543
v 0.5186610221862793 -0.6501920223236084 0.9746140241622925
v -1.3081200122833252 0.0630330964922905 2.327970027923584
v -1.1637500524520874 -0.6492329835891724 2.4208099842071533
v 0.7140330076217651 -0.6492329835891724 0.22597600519657135
v 0.5696690082550049 0.06303279846906662 0.13313399255275726
v 0.0878307968378067 1.9413299560546875 -0.32541900873184204
v -1.7899600267410278 1.9413299560546875 1.869420051574707
v 1.0075900554656982 0.0630330964922905 1.5596400499343872
v 0.3693169951438904 0.0630330964922905 -0.5249059796333313
v -0.20366500318050385 1.9413299560546875 -0.34247198700904846
v 0.4346030056476593 1.9413299560546875 1.8468799591064453
v 0.5863500237464905 -0.6492390036582947 -0.5904189944267273
v 1.22461998462677 -0.6492390036582947 1.2866300344467163
v -0.7152060270309448 1.7087600231170654 -0.18274199962615967
v 1.7071399688720703 1.7087600231170654 0.331402987241745
v 1.7982800006866455 -0.029626699164509773 -0.2834640145301819
v -0.6240580081939697 -0.029626399278640747 -0.7976109981536865
v -0.5777360200881958 -0.6694309711456299 -1.0743399858474731
v 1.8446099758148193 -0.6694309711456299 -0.5601919889450073
v -0.46970799565315247 0.0630330964922905 0.49266698956489563
v -0.6861109733581543 -0.6299999952316284 0.6129689812660217
v -1.5833200216293335 -0.6299999952316284 -1.85207998752594
v -1.3669099807739258 0.06303279846906662 -1.9723800420761108
v -0.7939280271530151 1.9413299560546875 -2.207050085067749
v 0.10327500104904175 1.9413299560546875 0.25800400972366333
v -0.15059299767017365 0.026090800762176514 -0.4690000116825104
vn 0.1297069936990738 0.16200000047683716 -0.9782289862632751
vn 0.6247829794883728 0.2580299973487854 -0.7369310259819031
vn 0.1297069936990738 0.16200000047683716 -0.9782289862632751
vn 0.49670299887657166 -0.05951179936528206 -0.8658779859542847
vn 0.49670299887657166 -0.05951179936528206 -0.8658779859542847
vn 0.49670299887657166 -0.05951179936528206 -0.8658779859542847
vn 0.49670299887657166 -0.05951179936528206 -0.8658779859542847
vn 0.9948790073394775 -0.055597398430109024 0.0844080001115799
vn 0.994608998298645 -0.05363079905509949 0.08874709904193878
vn 0.9948790073394775 -0.055597398430109024 0.0844080001115799
vn 0.9951260089874268 -0.05756310001015663 0.08006630092859268
vn 0.14487400650978088 -0.04384579882025719 0.9884780049324036
vn 0.1471800059080124 -0.04546450078487396 0.9880639910697937
vn 0.14487400650978088 -0.04384579882025719 0.9884780049324036
vn 0.14256800711154938 -0.04222730174660683 0.9888839721679688
vn 0.9939579963684082 0.05694609880447388 0.09383119642734528
vn 0.9935969710350037 0.05799169838428497 0.09695950150489807
vn 0.9939579963684082 0.05694609880447388 0.09383119642734528
vn 0.9943079948425293 0.05589960142970085 0.09070099890232086
vn 0.16999000310897827 0.06694190204143524 0.9831690192222595
vn 0.19987599551677704 0.051141299307346344 0.9784860014915466
vn 0.16999000310897827 0.06694190204143524 0.9831690192222595
vn 0.1400589942932129 0.08258470147848129 0.9866930246353149
vn 0.7003160119056702 -0.2429260015487671 0.6712260246276855
vn 0.6809200048446655 -0.23151999711990356 0.69479900598526
vn 0.6809200048446655 -0.23152099549770355 0.69479900598526
vn 0.6831889748573303 -0.21744799613952637 0.6971139907836914
vn 0.7191969752311707 -0.25421199202537537 0.6466310024261475
vn 0.7487859725952148 -0.30417799949645996 0.5888940095901489
vn 0.13643600046634674 -0.3098739981651306 -0.9409369826316833
vn 0.13643600046634674 -0.3098739981651306 -0.9409369826316833
vn 0.1349560022354126 -0.3398970067501068 -0.9307289719581604
vn 0.1349560022354126 -0.3398970067501068 -0.9307289719581604
vn 0.13334499299526215 -0.369484007358551 -0.9196199774742126
vn 0.13334499299526215 -0.36948299407958984 -0.9196199774742126
vn 0.6452130079269409 0.2630999982357025 0.7172719836235046
vn 0.6531230211257935 0.21507799625396729 0.726065993309021
vn 0.6531230211257935 0.21507799625396729 0.726065993309021
vn 0.6452130079269409 0.2630999982357025 0.7172719836235046
vn 0.6358010172843933 0.3101249933242798 0.7068089842796326
vn 0.6358010172843933 0.3101249933242798 0.7068089842796326
vn 0.8796849846839905 0.3444570004940033 -0.327877014875412
vn 0.8892980217933655 0.32061100006103516 -0.32612600922584534
vn 0.8894360065460205 0.32865801453590393 -0.3176270127296448
vn 0.8897309899330139 0.3358300030231476 -0.30918899178504944
vn 0.8696069717407227 0.3599979877471924 -0.33791300654411316
vn 0.8481400012969971 0.3988249897956848 -0.34870898723602295
vn 0.13740600645542145 0.28832700848579407 -0.9476220011711121
vn 0.13740600645542145 0.28832700848579407 -0.9476220011711121
vn 0.13606399297714233 0.3177250027656555 -0.9383699893951416
vn 0.13606399297714233 0.3177250027656555 -0.9383699893951416
vn 0.1345980018377304 0.34673699736595154 -0.928255021572113
vn 0.1345980018377304 0.34673699736595154 -0.928255021572113
vn 0.8606619834899902 -0.3378649950027466 -0.3809320032596588
vn 0.8572450280189514 -0.3480980098247528 -0.3794189989566803
vn 0.8572450280189514 -0.3480980098247528 -0.3794189989566803
vn 0.8606619834899902 -0.3378649950027466 -0.3809320032596588
vn 0.8639860153198242 -0.32756200432777405 -0.3824029862880707
vn 0.8639860153198242 -0.32756200432777405 -0.3824029862880707
vn -0.37961098551750183 0.023577099665999413 -0.9248459935188293
vt 0.002084260107949376 0.9979156299959868
vt 0.9887539744377136 0.9989371299743652
vt 0.9935140013694763 0.010608971118927002
vt 0.0018872299697250128 0.006889998912811279
vt 0.9935169816017151 0.01130002737045288
vt 0.988847017288208 0.9996960159915034
vt 0.0011718299938365817 0.9988281100522727
vt 0.0018872299697250128 0.006889998912811279
vt 0.9935169816017151 0.01130002737045288
vt 0.988847017288208 0.9996960159915034
vt 0.0011718299938365817 0.9988281100522727
vt 0.0018872299697250128 0.006889998912811279
vt 0.9935420155525208 0.010371029376983643
vt 0.9889079928398132 0.9992428420227952
vt 0.0011718299938365817 0.9988281100522727
vt 0.9935190081596375 0.009674012660980225
vt 0.00188723998144269 0.006889998912811279
vt 0.0011717999586835504 0.9988280499819666
vt 0.9889699816703796 0.9986385699594393
vt 0.9935250282287598 0.010254979133605957
vt 0.00188723998144269 0.006889998912811279
vt 0.0011717999586835504 0.9988280499819666
vt 0.9892169833183289 0.9990162249887362
vt 0.0022647599689662457 0.007660984992980957
vt 0.005089379847049713 0.15267401933670044
vt 0.9809579849243164 0.16475099325180054
vt 0.9935169816017151 0.010254979133605957
vt 0.9889699816703796 0.9987140899756923
vt 0.0011718299938365817 0.9988281100522727
vt 0.988847017288208 0.9996960159915034
vt 0.0011718299938365817 0.9988281100522727
vt 0.002138919895514846 0.007969021797180176
vt 0.9935150146484375 0.010371029376983643
vt 0.9836410284042358 0.15750402212142944
vt 0.007504839915782213 0.1744130253791809
vt 0.9935269951820374 0.009790003299713135
vt 0.9933710098266602 0.16233497858047485
vt 0.017166700214147568 0.1777309775352478
vt 0.002013090066611767 0.007044017314910889
vt 0.0011717999586835504 0.9988280499819666
vt 0.9892169833183289 0.9990162249887362
vt 0.9935190081596375 0.010022997856140137
vt 0.001761400024406612 0.006582021713256836
vt 0.0011717999586835504 0.9988280499819666
vt 0.9889699816703796 0.9986385699594393
vt 0.017166700214147568 0.17834001779556274
vt 0.9933170080184937 0.15267300605773926
vt 0.002084260107949376 0.9979156299959868
vt 0.9888160228729248 0.9988616099581122
vt 0.9935200214385986 0.01014399528503418
vt 0.002202600007876754 0.007668018341064453
vt 0.007504839915782213 0.18418902158737183
vt 0.9836649894714355 0.15761899948120117
vt 0.0017613900126889348 0.007351994514465332
vt 0.005089379847049713 0.16475099325180054
vt 0.9812319874763489 0.15750402212142944
vt 0.9935140013694763 0.010487020015716553
vt 0.988847017288208 0.9987896099919453
vt 0.0011718299938365817 0.9988281100522727
vt 0.002202600007876754 0.0072060227394104
g Geoset0
s 1
usemtl mat_redridgebush-04
f 1/1/1 2/2/2 3/3/3
f 4/4/4 5/5/5 6/6/6
f 6/6/6 7/7/7 4/4/4
f 8/8/8 9/9/9 10/10/10
f 10/10/10 11/11/11 8/8/8
f 12/12/12 13/13/13 14/14/14
f 14/14/14 15/15/15 12/12/12
f 16/16/16 17/17/17 18/18/18
f 18/18/18 19/19/19 16/16/16
f 20/20/20 21/21/21 22/22/22
f 22/22/22 23/23/23 20/20/20
f 24/24/24 25/25/25 26/26/26
f 26/26/26 27/27/27 24/24/24
f 24/24/24 27/27/27 28/28/28
f 28/28/28 29/29/29 24/24/24
f 30/30/30 31/31/31 32/32/32
f 32/32/32 33/33/33 30/30/30
f 34/34/34 33/33/33 32/32/32
f 32/32/32 35/35/35 34/34/34
f 36/36/36 37/37/37 38/38/38
f 38/38/38 39/39/39 36/36/36
f 36/36/36 39/39/39 40/40/40
f 40/40/40 41/41/41 36/36/36
f 42/42/42 43/43/43 44/44/44
f 44/44/44 45/45/45 42/42/42
f 46/46/46 43/43/43 42/42/42
f 42/42/42 47/47/47 46/46/46
f 48/48/48 49/49/49 50/50/50
f 50/50/50 51/51/51 48/48/48
f 52/52/52 51/51/51 50/50/50
f 50/50/50 53/53/53 52/52/52
f 54/54/54 55/55/55 56/56/56
f 56/56/56 57/57/57 54/54/54
f 54/54/54 57/57/57 58/58/58
f 58/58/58 59/59/59 54/54/54
f 3/3/3 60/60/60 1/1/1