# Exported using wow.export v0.1.49
o 
mtllib dskgra05.mtl
v -0.6860219836235046 1.3723900318145752 0.000522222020663321
v -0.5642669796943665 -0.0125577999278903 0.000522222020663321
v 0.3324640095233917 1.1576499938964844 0.000522222020663321
v -0.0287896990776062 -0.0125577999278903 -0.3576669991016388
v -0.028790000826120377 1.6284899711608887 -0.42248299717903137
v -0.028790000826120377 1.5702300071716309 0.20256400108337402
v -0.0287896990776062 -0.0125577999278903 0.4707689881324768
v -0.028790000826120377 1.3561099767684937 0.7979810237884521
v 0.31610000133514404 -0.0125577999278903 0.000522222020663321
vn -4.55120014043037e-16 -7.394340210923415e-17 1
vn -4.9604298152153e-16 -4.6648400658674767e-17 1
vn -4.9604298152153e-16 -4.6648400658674767e-17 1
vn 1 3.488749911184641e-8 1.0397699590214415e-8
vn 1 3.4321299580142295e-8 2.079539918042883e-8
vn 1 3.584310093174281e-8 3.635199874452155e-8
vn 1 3.660390035520322e-8 4.413029941474633e-8
vn 1 3.7754301018821934e-8 8.826059882949266e-8
vn -5.369660019395822e-16 -1.935339920811538e-17 1
vt 0.6326550245285034 0.6147559881210327
vt 0.6326550245285034 0.006017029285430908
vt 0.25972598791122437 0.6147559881210327
vt 0.25972598791122437 0.006017029285430908
vt 0.25972598791122437 0.6147559881210327
vt 0.4685730040073395 0.6147559881210327
vt 0.6326550245285034 0.006017029285430908
vt 0.6326550245285034 0.6147559881210327
vt 0.25972598791122437 0.006017029285430908
g Geoset0
s 1
usemtl mat_duskwooddetails
f 1/1/1 2/2/2 3/3/3
f 4/4/4 5/5/5 6/6/6
f 6/6/6 7/7/7 4/4/4
f 8/8/8 7/7/7 6/6/6
f 9/9/9 3/3/3 2/2/2