# Exported using wow.export v0.1.49
o 
mtllib dskgra02.mtl
v -0.040970299392938614 1.0263999700546265 0.2050440013408661
v 0.011763899587094784 -0.017187200486660004 0.07973779737949371
v 0.025100799277424812 0.924252986907959 -0.5660750269889832
v -0.16721299290657043 1.2153899669647217 0.07071810215711594
v -0.1376360058784485 -0.017187200486660004 -0.031449198722839355
v 0.7800170183181763 1.5167200565338135 -0.04632920026779175
v 0.9431310296058655 0.5480189919471741 -0.03593060001730919
v 0.7322890162467957 -0.017187200486660004 -0.031449198722839355
v 0.011763899587094784 -0.017187200486660004 -0.44263601303100586
vn 0.9852570295333862 0.04029170051217079 0.16626900434494019
vn 0.996383011341095 0.013269600458443165 0.08393149822950363
vn 0.996383011341095 0.013269600458443165 0.08393149822950363
vn 0.07054640352725983 -0.03760509938001633 0.9967989921569824
vn 0.023186400532722473 -0.009540730156004429 0.9996860027313232
vn 0.03483229875564575 -0.016227899119257927 0.9992610216140747
vn -0.0003207290137652308 0.004384269937872887 0.9999899864196777
vn -8.859769862201716e-11 0.003770990064367652 0.9999930262565613
vn 0.9998999834060669 -0.014164700172841549 0
vt 0.9925580024719238 0.614996999502182
vt 0.9925580024719238 0.0021529793739318848
vt 0.6401609778404236 0.614996999502182
vt 0.9925580024719238 0.614996999502182
vt 0.9925580024719238 0.0021529793739318848
vt 0.6401609778404236 0.614996999502182
vt 0.6401609778404236 0.18672102689743042
vt 0.6401609778404236 0.0021529793739318848
vt 0.6401609778404236 0.0021529793739318848
g Geoset0
s 1
usemtl mat_duskwooddetails
f 1/1/1 2/2/2 3/3/3
f 4/4/4 5/5/5 6/6/6
f 7/7/7 6/6/6 5/5/5
f 8/8/8 7/7/7 5/5/5
f 9/9/9 3/3/3 2/2/2