# Exported using wow.export v0.1.49
o 
mtllib dskgra01.mtl
v -0.6624029874801636 1.5896600484848022 0.011494699865579605
v -0.6485919952392578 0.3333030045032501 0.011494699865579605
v 0.0022388899233192205 1.5643399953842163 -0.004582500085234642
v 0.0022388899233192205 2.621380090713501 1.0233700275421143
v 0.003088610013946891 1.341189980506897 1.0797899961471558
v 0.004618329927325249 -0.03947579860687256 -0.004582500085234642
v 0.004618609789758921 -0.0339186005294323 1.302690029144287
v 0.6986219882965088 -0.03947579860687256 -0.02066110074520111
v 1.0378999710083008 1.1484099626541138 -0.02066110074520111
v -0.03361310064792633 -0.4443559944629669 -0.7776470184326172
vn 0.013679600320756435 0.00015037199773360044 0.9999060034751892
vn 0.013802199624478817 0.00008551339851692319 0.999904990196228
vn 0.15010499954223633 -0.0004149290034547448 0.9886699914932251
vn 0.9999989867210388 0.000633561983704567 -0.0011535199591889977
vn 0.9999989867210388 0.0010760000441223383 -0.0006689649890176952
vn 0.27800899744033813 0.0003139020118396729 0.960578978061676
vn 0.9999989867210388 0.0011117400135844946 -0.00000894108961801976
vn 0.010484700091183186 -0.0011147100012749434 0.9999439716339111
vn 0.007873309776186943 -0.0022487000096589327 0.9999669790267944
vn -0.9960749745368958 -0.0014768700348213315 0.08850470185279846
vt 0.6337260007858276 0.6154420077800751
vt 0.6337260007858276 0.000500023365020752
vt 0.8690369725227356 0.6154420077800751
vt 0.6337260007858276 0.6154420077800751
vt 0.6337260007858276 0.3961870074272156
vt 0.9270079731941223 0.000500023365020752
vt 0.6337260007858276 0.000500023365020752
vt 0.6337260007858276 0.000500023365020752
vt 0.6337260007858276 0.6154420077800751
vt 0.5419390201568604 0.000500023365020752
g Geoset0
s 1
usemtl mat_duskwooddetails
f 1/1/1 2/2/2 3/3/3
f 4/4/4 5/5/5 3/3/3
f 6/6/6 3/3/3 5/5/5
f 5/5/5 7/7/7 6/6/6
f 8/8/8 9/9/9 3/3/3
f 3/3/3 6/6/6 8/8/8
f 6/6/6 3/3/3 10/10/10
f 6/6/6 3/3/3 2/2/2