# Exported using wow.export v0.1.49
o 
mtllib dwpbra03.mtl
v -0.6097310185432434 0.8046470284461975 -0.01602330058813095
v -0.6271169781684875 -0.017045600339770317 -0.01602330058813095
v 0.6145939826965332 0.7579529881477356 -0.01602330058813095
v -0.007867500185966492 -0.017045600339770317 -0.582256019115448
v -0.007867500185966492 0.667119026184082 -0.582256019115448
v -0.007867500185966492 -0.017045600339770317 0.4951390027999878
v -0.007867500185966492 0.5197190046310425 0.4951390027999878
v 0.6319810152053833 -0.017045600339770317 -0.01602330058813095
vn 7.910500379737506e-12 2.0741200423834982e-10 1
vn 3.955240215208766e-12 2.1374900460724433e-10 1
vn 3.955240215208766e-12 2.1374900460724433e-10 1
vn 1 1.6957899617864314e-7 0
vn 1 1.928629984604413e-7 5.46580984917e-8
vn 1 1.928629984604413e-7 5.46580984917e-8
vn 1 2.161460059824094e-7 1.0931599803143399e-7
vn -1.5264999473567936e-17 2.2008600497613884e-10 1
vt 0.9992370009422302 0.9243950992822647
vt 0.8320209980010986 0.9253650978207588
vt 0.9946619868278503 0.6331799924373627
vt 0.8274459838867188 0.6341499984264374
vt 0.9946619868278503 0.6331799924373627
vt 0.8320209980010986 0.9253650978207588
vt 0.9992370009422302 0.9243950992822647
vt 0.8274459838867188 0.6341499984264374
g Geoset0
s 1
usemtl mat_deadwinddetails01
f 1/1/1 2/2/2 3/3/3
f 4/4/4 5/5/5 6/6/6
f 7/7/7 6/6/6 5/5/5
f 8/8/8 3/3/3 2/2/2