# Exported using wow.export v0.1.49
o 
mtllib dwpwea02.mtl
v 0.4470219910144806 0.4642530083656311 -0.10918200016021729
v 0.19600899517536163 0.8183609843254089 -0.6695079803466797
v -0.4622499942779541 0.23555999994277954 -0.4562720060348511
v 0.6583809852600098 0.2396720051765442 -0.08929719775915146
v -0.05230969935655594 -0.27848100662231445 0.02318420074880123
v -0.2146739959716797 0.30585598945617676 0.45606398582458496
v 0.5182809829711914 0.24227400124073029 0.7149080038070679
v -0.49309200048446655 0.13752099871635437 0.5381810069084167
v -0.05230969935655594 -0.27848100662231445 0.02318420074880123
v -0.15949299931526184 0.4686110019683838 -0.25397300720214844
v -0.7444530129432678 0.6669639945030212 0.14761100709438324
v -0.05230969935655594 -0.27848100662231445 0.02318420074880123
vn -0.41469401121139526 0.5585989952087402 0.7183279991149902
vn -0.4044170081615448 0.6803969740867615 0.6111519932746887
vn -0.41469401121139526 0.5585989952087402 0.7183279991149902
vn -0.21894599497318268 0.8630290031433105 -0.45524099469184875
vn -0.4489780068397522 0.4479939937591553 -0.7731239795684814
vn -0.21894599497318268 0.8630290031433105 -0.45524099469184875
vn 0.0825091004371643 0.9965280294418335 0.011150299571454525
vn 0.7169600129127502 0.4821769893169403 0.503462016582489
vn 0.8302320241928101 0.2950260043144226 0.4729430079460144
vn 0.7169600129127502 0.4821769893169403 0.503462016582489
vn 0.5687090158462524 0.6458029747009277 0.5094190239906311
vn -0.41401299834251404 0.4220379889011383 0.806522011756897
vt -0.0038462700322270393 0.46331000328063965
vt 0.3429949879646301 0.5173659920692444
vt 0.3574880063533783 0.1892719864845276
vt 0.3574880063533783 0.1892719864845276
vt 0.0314009003341198 0.1550469994544983
vt -0.0038462700322270393 0.46331000328063965
vt 0.3429949879646301 0.5173659920692444
vt 0.3574880063533783 0.1892719864845276
vt 0.0314009003341198 0.1550469994544983
vt -0.0038462700322270393 0.46331000328063965
vt 0.3429949879646301 0.5173659920692444
vt 0.0314009003341198 0.1550469994544983
g Geoset0
s 1
usemtl mat_deadwinddetails01
f 1/1/1 2/2/2 3/3/3
f 4/4/4 5/5/5 6/6/6
f 6/6/6 7/7/7 4/4/4
f 8/8/8 9/9/9 10/10/10
f 10/10/10 11/11/11 8/8/8
f 3/3/3 12/12/12 1/1/1