# Exported using wow.export v0.1.49
o 
mtllib redbus02.mtl
v -0.6386560201644897 0.7185750007629395 1.2923500537872314
v 0.4793030023574829 0.3060779869556427 0.47740301489830017
v -1.1290500164031982 0.3060779869556427 0.02671309933066368
v -0.3132080137729645 -0.005453059915453196 0.44146400690078735
v 0.8212059736251831 0.7965559959411621 0.4666689932346344
v 0.1266539990901947 0.007731670048087835 -0.5313529968261719
v 1.1706700325012207 -0.03363779932260513 0.0277210995554924
v -0.4714359939098358 0.7185750007629395 -1.573390007019043
v -0.9618330001831055 0.4770529866218567 -0.30774998664855957
v 0.0021111099049448967 -0.11681199818849564 0.02671309933066368
v 0.6465250253677368 0.4770529866218567 -1.0081000328063965
v 0.0021111099049448967 -0.11681199818849564 0.02671309933066368
vn 0.09578099846839905 0.934876024723053 -0.3418070077896118
vn 0.16420799493789673 0.7935000061988831 -0.585997998714447
vn 0.16420799493789673 0.7935000061988831 -0.585997998714447
vn -0.5566980242729187 0.7950069904327393 -0.24093900620937347
vn -0.08827649801969528 0.8104439973831177 -0.5791270136833191
vn -0.08827649801969528 0.8104439973831177 -0.5791270136833191
vn 0.40963199734687805 0.5551689863204956 -0.7238709926605225
vn 0.18728399276733398 0.8924229741096497 0.41049501299858093
vn 0.4128589928150177 0.8517810106277466 0.3225170075893402
vn 0.18728399276733398 0.8924229741096497 0.41049501299858093
vn -0.04957960173487663 0.8792740106582642 0.4737299978733063
vn 0.21879300475120544 0.5852320194244385 -0.7807899713516235
vt -0.06713330000638962 0.500463992357254
vt 0.10661300271749496 0.7950190007686615
vt 0.37681201100349426 0.48500800132751465
vt 0.37681201100349426 0.48500800132751465
vt -0.06713330000638962 0.500463992357254
vt 0.38164201378822327 0.7512080073356628
vt 0.04381110146641731 0.7563720047473907
vt -0.06713330000638962 0.500463992357254
vt 0.37681201100349426 0.48500800132751465
vt 0.37922701239585876 0.6835750043392181
vt 0.10661300271749496 0.7950190007686615
vt 0.37922701239585876 0.6835750043392181
g Geoset0
s 1
usemtl mat_redridgedetails
f 1/1/1 2/2/2 3/3/3
f 4/4/4 5/5/5 6/6/6
f 7/7/7 6/6/6 5/5/5
f 8/8/8 9/9/9 10/10/10
f 10/10/10 11/11/11 8/8/8
f 12/12/12 3/3/3 2/2/2