# Exported using wow.export v0.1.49
o 
mtllib redflo01.mtl
v 0.2448579967021942 0.430310994386673 -0.10165300220251083
v 0.17316199839115143 -0.1656319946050644 -0.04274220019578934
v 0.08106140047311783 0.4517500102519989 0.04615610092878342
v 0.12210199981927872 0.1858000010251999 0.15767599642276764
v 0.028091099113225937 -0.13959600031375885 0.1009259968996048
v -0.09838330000638962 0.1858000010251999 0.16561800241470337
v 0.007887779735028744 0.3384779989719391 0.0514042004942894
v 0.028091099113225937 -0.13959600031375885 0.1009259968996048
v 0.015830300748348236 0.3305859863758087 0.27188900113105774
v 0.12210199981927872 0.22814199328422546 -0.11932799965143204
v 0.028091400861740112 -0.09725389629602432 -0.04517529904842377
v -0.09838330000638962 0.22814199328422546 -0.11138500273227692
v 0.007887779735028744 0.22814199328422546 -0.225599005818367
v 0.028091400861740112 -0.09725389629602432 -0.04517529904842377
v 0.015830300748348236 0.22814199328422546 -0.005113610066473484
v 0.09092559665441513 0.3128780126571655 -0.1112160012125969
v 0.17316199839115143 -0.1656319946050644 -0.04274220019578934
v 0.23873500525951385 0.3128780126571655 0.052579399198293686
vn -0.6694120168685913 0.007173549849539995 -0.7428560256958008
vn -0.6694120168685913 0.007173549849539995 -0.7428560256958008
vn -0.6694120168685913 0.007173549849539995 -0.7428560256958008
vn -0.035399798303842545 0.18161700665950775 -0.9827319979667664
vn -0.035399798303842545 0.18161700665950775 -0.9827319979667664
vn -0.035399798303842545 0.18161700665950775 -0.9827319979667664
vn -0.9986550211906433 -0.0386199988424778 0.03459089994430542
vn -0.9986550211906433 -0.0386199988424778 0.03459089994430542
vn -0.9986550211906433 -0.0386199988424778 0.03459089994430542
vn -0.03517730161547661 -0.21237699687480927 -0.9765539765357971
vn -0.03517730161547661 -0.21237699687480927 -0.9765539765357971
vn -0.03517730161547661 -0.21237699687480927 -0.9765539765357971
vn -0.9984679818153381 -0.042051300406455994 0.035966601222753525
vn -0.9984679818153381 -0.042051300406455994 0.035966601222753525
vn -0.9984679818153381 -0.042051300406455994 0.035966601222753525
vn -0.7419729828834534 -0.03425139933824539 0.6695539951324463
vn -0.7419729828834534 -0.03425139933824539 0.6695539951324463
vn -0.7419729828834534 -0.03425139933824539 0.6695539951324463
vt 0.613897979259491 0.9927536197938025
vt 0.7056859731674194 0.6811589896678925
vt 0.7577109932899475 0.9975845199078321
vt 0.613897979259491 0.9927536197938025
vt 0.7056859731674194 0.6811589896678925
vt 0.7577109932899475 0.9975845199078321
vt 0.613897979259491 0.9927536197938025
vt 0.7056859731674194 0.6811589896678925
vt 0.7577109932899475 0.9975845199078321
vt 0.613897979259491 0.9927536197938025
vt 0.7056859731674194 0.6811589896678925
vt 0.7577109932899475 0.9975845199078321
vt 0.613897979259491 0.9927536197938025
vt 0.7056859731674194 0.6811589896678925
vt 0.7577109932899475 0.9975845199078321
vt 0.613897979259491 0.9927536197938025
vt 0.7056859731674194 0.6811589896678925
vt 0.7577109932899475 0.9975845199078321
g Geoset0
s 1
usemtl mat_redridgedetails
f 1/1/1 2/2/2 3/3/3
f 4/4/4 5/5/5 6/6/6
f 7/7/7 8/8/8 9/9/9
f 10/10/10 11/11/11 12/12/12
f 13/13/13 14/14/14 15/15/15
f 16/16/16 17/17/17 18/18/18