# Exported using wow.export v0.1.49
o 
mtllib redflo03.mtl
v 0.1076980009675026 0.4729669988155365 -0.0567638985812664
v -0.01016329973936081 0.020066099241375923 -0.05605529993772507
v -0.154462993144989 0.4729669988155365 -0.047320298850536346
v -0.02810470014810562 0.6468889713287354 -0.18312300741672516
v -0.01016329973936081 -0.1916780024766922 -0.05605560168623924
v -0.018661100417375565 0.6468889713287354 0.07903780043125153
v -0.04055830091238022 0.08668719977140427 -0.42066100239753723
v -0.5380499958992004 0.05266920104622841 -0.26336199045181274
v -0.3387419879436493 0.193571999669075 0.15191200375556946
v 0.005381669849157333 -0.10265800356864929 -0.028566399589180946
v 0.28584200143814087 0.193571999669075 0.011684699915349483
v 0.07971829921007156 0.4433470070362091 -0.2571220099925995
v -0.04055830091238022 0.08668719977140427 -0.42066100239753723
v -0.3387419879436493 0.193571999669075 0.15191200375556946
v 0.04970499873161316 0.5954639911651611 0.38318100571632385
v 0.28584200143814087 0.193571999669075 0.011684699915349483
vn -0.03599739819765091 0.00780472019687295 -0.9993209838867188
vn -0.03599739819765091 0.00780472019687295 -0.9993209838867188
vn -0.03599739819765091 0.00780472019687295 -0.9993209838867188
vn -0.9992250204086304 -0.015924600884318352 0.03599369898438454
vn -0.9992250204086304 -0.015924600884318352 0.03599369898438454
vn -0.9992250204086304 -0.015924600884318352 0.03599369898438454
vn 0.32407400012016296 0.945999026298523 -0.007822990417480469
vn -0.1458130031824112 0.9560419917106628 -0.2544040083885193
vn 0.32407400012016296 0.945999026298523 -0.007822990417480469
vn -0.12331599742174149 0.9746429920196533 -0.18671800196170807
vn -0.7926650047302246 0.31894901394844055 0.5195710062980652
vn -0.7971180081367493 -0.008037559688091278 0.6037700176239014
vn -0.7926650047302246 0.31894901394844055 0.5195710062980652
vn -0.19297799468040466 0.4732309877872467 -0.8595420122146606
vn -0.17329800128936768 0.6116880178451538 -0.771884024143219
vn -0.19297799468040466 0.4732309877872467 -0.8595420122146606
vt -0.01412119995802641 0.24396097660064697
vt 0.02694159932434559 -0.05797004699707031
vt 0.12969200313091278 0.24879199266433716
vt -0.01412119995802641 0.24396097660064697
vt 0.02694159932434559 -0.05797004699707031
vt 0.12969200313091278 0.24879199266433716
vt 0.2746190130710602 0.09661799669265747
vt 0.1876630038022995 0.25120800733566284
vt 0.08732809871435165 0.12318801879882812
vt 0.19360800087451935 -0.08454000949859619
vt 0.2746190130710602 0.09661799669265747
vt 0.1876630038022995 0.25120800733566284
vt 0.08732809871435165 0.12318801879882812
vt 0.2746190130710602 0.09661799669265747
vt 0.1876630038022995 0.25120800733566284
vt 0.08732809871435165 0.12318801879882812
g Geoset0
s 1
usemtl mat_redridgedetails
f 1/1/1 2/2/2 3/3/3
f 4/4/4 5/5/5 6/6/6
f 7/7/7 8/8/8 9/9/9
f 9/9/9 10/10/10 7/7/7
f 11/11/11 12/12/12 13/13/13
f 13/13/13 10/10/10 11/11/11
f 14/14/14 15/15/15 16/16/16
f 16/16/16 10/10/10 14/14/14