# Exported using wow.export v0.1.49
o 
mtllib redgra02.mtl
v -0.5692036151885986 0.9138157963752747 -0.12449722737073898
v -0.47405311465263367 -0.051161639392375946 0.03698459267616272
v 0.21314510703086853 1.023544192314148 -0.14285945892333984
v -0.020238377153873444 -0.06971756368875504 -0.07390129566192627
v -0.020238427445292473 0.7546846866607666 -0.23416897654533386
v -0.020238317549228668 0.0338430255651474 0.5449527502059937
v -0.02023838832974434 0.7943762540817261 0.32997193932533264
v 0.11799462884664536 -0.05116162449121475 0.03698459267616272
vn 1.4174707629877048e-8 0.16504758596420288 0.9862856268882751
vn 1.4174707629877048e-8 0.16504758596420288 0.9862856268882751
vn 1.4174707629877048e-8 0.16504758596420288 0.9862856268882751
vn 1 -1.4375883594652805e-8 -1.8938258961043175e-7
vn 1 4.710777101735175e-9 -1.5592068791647762e-7
vn 1 4.710777101735175e-9 -1.5592068791647762e-7
vn 1 2.3797433357231057e-8 -1.224588004333782e-7
vn 1.4174707629877048e-8 0.16504758596420288 0.9862856268882751
vt 0.6278238892555237 0.9963980913162231
vt 0.6278238892555237 0.5084328651428223
vt 0.37808388471603394 0.9963980913162231
vt 0.37808388471603394 0.5084328651428223
vt 0.37808388471603394 0.9963980913162231
vt 0.6278238892555237 0.5084328651428223
vt 0.6278238892555237 0.9963980913162231
vt 0.37808388471603394 0.5084328651428223
g Geoset0
s 1
usemtl mat_redridgedetails
f 1/1/1 2/2/2 3/3/3
f 4/4/4 5/5/5 6/6/6
f 7/7/7 6/6/6 5/5/5
f 8/8/8 3/3/3 2/2/2