# Exported using wow.export v0.1.49
o 
mtllib redgra01.mtl
v 2.641241110268311e-7 0.5602744221687317 0.15102359652519226
v 2.6909003736363957e-7 -0.008507716469466686 0.1843252331018448
v 2.7324531970407406e-7 0.5877669453620911 -0.1837143748998642
v 0.20140205323696136 -0.008507736027240753 0.00404230086132884
v 0.2661384046077728 0.8153116703033447 0.004042303189635277
v -0.20140157639980316 -0.00850771740078926 0.00404230086132884
v -0.2661377489566803 0.7654604911804199 0.00404230086132884
v 2.6909003736363957e-7 -0.008507716469466686 -0.16874374449253082
vn 1 7.609018837229087e-8 5.908222178163669e-8
vn 1 6.741779401409076e-8 2.9541110890818345e-8
vn 1 6.741779401409076e-8 2.9541110890818345e-8
vn -8.7905165292835e-17 -1.1334598815082586e-9 1
vn -8.703266995979675e-10 -6.395258211888688e-10 1
vn -8.703266995979675e-10 -6.395258211888688e-10 1
vn -1.7406532881736325e-9 -1.4559171923611558e-10 1
vn 1 5.874539610317697e-8 0
vt 0.9925582408905029 0.7451903223991394
vt 0.9925582408905029 0.0036019086837768555
vt 0.6196298003196716 0.7451903223991394
vt 0.6196298003196716 0.0036019086837768555
vt 0.6196298003196716 0.7451903223991394
vt 0.9925582408905029 0.0036019086837768555
vt 0.9925582408905029 0.7451903223991394
vt 0.6196298003196716 0.0036019086837768555
g Geoset0
s 1
usemtl mat_redridgedetails
f 1/1/1 2/2/2 3/3/3
f 4/4/4 5/5/5 6/6/6
f 7/7/7 6/6/6 5/5/5
f 8/8/8 3/3/3 2/2/2