# Exported using wow.export v0.1.49
o 
mtllib redroc02.mtl
v -0.2477940022945404 -0.0270456001162529 0.1152459979057312
v 0.05975110083818436 -0.0270456001162529 0.1780479997396469
v 0.04156440123915672 0.08198969811201096 0.12732499837875366
v 0.37815600633621216 -0.0270456001162529 -0.03207330033183098
v 0.1374090015888214 0.12080200016498566 -0.1344110071659088
v -0.06884689629077911 0.12839199602603912 0.005869720131158829
v 0.14539200067520142 -0.0270456001162529 -0.20491699874401093
v -0.17953400313854218 -0.0270456001162529 -0.0830530971288681
vn -0.16025400161743164 0.9699389934539795 0.18312999606132507
vn 0.08018690347671509 0.8927940130233765 0.4432710111141205
vn 0.042894601821899414 0.9738150238990784 0.22325900197029114
vn 0.22686700522899628 0.9734950065612793 0.028970200568437576
vn 0.028479499742388725 0.9839940071105957 -0.17590899765491486
vn -0.11319299787282944 0.9934149980545044 -0.017729800194501877
vn 0.06517189741134644 0.8898569941520691 -0.45155999064445496
vn -0.19809399545192719 0.9467719793319702 -0.2537370026111603
vt 0.24467499554157257 0.2600640058517456
vt 0.2448830008506775 0.46629899740219116
vt 0.18144500255584717 0.3945639729499817
vt 0.12474700063467026 0.4668620228767395
vt 0.0592459999024868 0.37382298707962036
vt 0.1165589988231659 0.31609398126602173
vt 0.002771540079265833 0.4664210081100464
vt 0.0030684000812470913 0.25348401069641113
g Geoset0
s 1
usemtl mat_redridgedetails
f 1/1/1 2/2/2 3/3/3
f 2/2/2 4/4/4 3/3/3
f 3/3/3 4/4/4 5/5/5
f 6/6/6 3/3/3 5/5/5
f 4/4/4 7/7/7 5/5/5
f 7/7/7 8/8/8 5/5/5
f 5/5/5 8/8/8 6/6/6
f 8/8/8 1/1/1 6/6/6
f 6/6/6 1/1/1 3/3/3