# Exported using wow.export v0.1.49
o 
mtllib wesgra02.mtl
v -0.6080250144004822 1.394819974899292 0.0085580600425601
v -0.6080250144004822 -0.03772690147161484 0.0085580600425601
v 0.19585399329662323 1.394819974899292 0.0085580600425601
v -0.002022220054641366 -0.03772690147161484 -0.187281996011734
v -0.002022220054641366 1.394819974899292 -0.187281996011734
v -0.002022220054641366 -0.03772690147161484 0.6165969967842102
v -0.002022220054641366 1.394819974899292 0.6165969967842102
v 0.19585399329662323 -0.03772690147161484 0.0085580600425601
vn 0 5.303990135985259e-9 1
vn 0 5.303990135985259e-9 1
vn 0 5.303990135985259e-9 1
vn 1 1.2137699911818345e-7 0
vn 1 1.2137699911818345e-7 0
vn 1 1.2137699911818345e-7 0
vn 1 1.2137699911818345e-7 0
vn 0 5.303990135985259e-9 1
vt 0.9925580024719238 0.9988135700114071
vt 0.9925580024719238 0.5011860132217407
vt 0.7475249767303467 0.9988135700114071
vt 0.7475249767303467 0.5011860132217407
vt 0.7475249767303467 0.9988135700114071
vt 0.9925580024719238 0.5011860132217407
vt 0.9925580024719238 0.9988135700114071
vt 0.7475249767303467 0.5011860132217407
g Geoset0
s 1
usemtl mat_westfalldetaildoodads01
f 1/1/1 2/2/2 3/3/3
f 4/4/4 5/5/5 6/6/6
f 7/7/7 6/6/6 5/5/5
f 8/8/8 3/3/3 2/2/2