# Exported using wow.export v0.1.49
o 
mtllib wesgra04.mtl
v 0.06959860026836395 0.7729690074920654 0.754738986492157
v 0 0.06704059988260269 0.7233030200004578
v 0.0695991963148117 1.2327799797058105 -0.015259400010108948
v -0.5582029819488525 -0.03289470076560974 0.0048972200602293015
v -0.7001360058784485 0.8739420175552368 0.0048972200602293015
v 0 -0.03289470076560974 -0.015259400010108948
v 0 0.08183500170707703 -0.8902699947357178
v 0.06959860026836395 1.6336599588394165 -0.9515640139579773
v 0.8573390245437622 0.2044840008020401 -0.03541500121355057
v 0.8962079882621765 1.4570399522781372 -0.035415299236774445
vn 0.993802011013031 -0.09544289857149124 -0.056993499398231506
vn 0.9968580007553101 -0.07522869855165482 -0.024799799546599388
vn 0.6875550150871277 -0.04756870120763779 -0.7245720028877258
vn -0.036086201667785645 -0.005647909827530384 -0.9993330240249634
vn -0.0314766988158226 -0.0020853199530392885 -0.9995020031929016
vn 0.6931570172309875 -0.03757689893245697 -0.7198060154914856
vn 0.9989680051803589 -0.04503659904003143 -0.005905840080231428
vn 0.9986429810523987 -0.04996649920940399 -0.014705000445246696
vn -0.024224599823355675 0.0010376300197094679 -0.999705970287323
vn -0.02458300068974495 0.0007628829916939139 -0.9996979832649231
vt 0.9946410059928894 0.9995003339718096
vt 0.9946410059928894 0.5125769972801208
vt 0.7858999967575073 0.9995001549832523
vt 0.9946410059928894 0.5125769972801208
vt 0.9946410059928894 0.9995003339718096
vt 0.7858999967575073 0.5125769972801208
vt 0.9946410059928894 0.5125769972801208
vt 0.9946410059928894 0.9995003339718096
vt 0.9946410059928894 0.5125769972801208
vt 0.9946410059928894 0.9995003339718096
g Geoset0
s 1
usemtl mat_westfalldetaildoodads01
f 1/1/1 2/2/2 3/3/3
f 4/4/4 5/5/5 6/6/6
f 3/3/3 6/6/6 5/5/5
f 7/7/7 8/8/8 6/6/6
f 3/3/3 6/6/6 8/8/8
f 6/6/6 3/3/3 2/2/2
f 6/6/6 3/3/3 9/9/9
f 10/10/10 9/9/9 3/3/3