# Exported using wow.export v0.1.49
o 
mtllib wesroc02.mtl
v -0.08776579797267914 -0.015252799727022648 0.12865999341011047
v 0.04911940172314644 -0.015252799727022648 0.2393759936094284
v 0.01746639981865883 0.12835900485515594 0.07575780153274536
v 0.161639004945755 -0.015252799727022648 -0.055980801582336426
v 0.015140299685299397 0.11393500119447708 -0.16009600460529327
v -0.09668140113353729 0.0857200026512146 -0.03570310026407242
v -0.007786939851939678 -0.015252799727022648 -0.21229000389575958
v -0.14551100134849548 -0.015252799727022648 -0.14205600321292877
vn -0.3510589897632599 0.91668301820755 0.19091899693012238
vn 0.0725347027182579 0.9777100086212158 0.19703200459480286
vn 0.007865220308303833 0.9950169920921326 0.09939630329608917
vn 0.3724820017814636 0.9211270213127136 -0.11305999755859375
vn 0.02309899963438511 0.9768369793891907 -0.21273399889469147
vn -0.2757070064544678 0.9607890248298645 0.029512200504541397
vn 0.12215100228786469 0.8230440020561218 -0.5546870231628418
vn -0.36093801259994507 0.91805499792099 -0.16401100158691406
vt 0.4958829879760742 0.00402599573135376
vt 0.49609100818634033 0.23924601078033447
vt 0.40875399112701416 0.13944000005722046
vt 0.3759549856185913 0.23739302158355713
vt 0.3381179869174957 0.12745201587677002
vt 0.37124699354171753 0.0857049822807312
vt 0.25156399607658386 0.2369530200958252
vt 0.25186100602149963 0.009522974491119385
g Geoset0
s 1
usemtl mat_westfalldetaildoodads01
f 1/1/1 2/2/2 3/3/3
f 2/2/2 4/4/4 3/3/3
f 3/3/3 4/4/4 5/5/5
f 6/6/6 3/3/3 5/5/5
f 4/4/4 7/7/7 5/5/5
f 7/7/7 8/8/8 5/5/5
f 5/5/5 8/8/8 6/6/6
f 8/8/8 1/1/1 6/6/6
f 6/6/6 1/1/1 3/3/3