# Exported using wow.export v0.1.49
o 
mtllib wesshe03.mtl
v 0.07382609695196152 0.09164000302553177 0.041353099048137665
v 0.010891100391745567 -0.015053600072860718 0.20402400195598602
v 0.09637720137834549 -0.015053600072860718 0.14471900463104248
v -0.1358329951763153 -0.014808599837124348 -0.034956399351358414
v 0.0027111100498586893 -0.014808599837124348 -0.13947899639606476
v 0.11891700327396393 -0.015053600072860718 -0.13118299841880798
v 0.1580819934606552 -0.015053600072860718 -0.020387500524520874
v 0.15771999955177307 -0.015053600072860718 0.07188809663057327
v -0.09372919797897339 -0.014808599837124348 0.1254979968070984
vn 0.23002099990844727 0.9696339964866638 0.08306190371513367
vn 0.05412369966506958 0.8252279758453369 0.5622000098228455
vn 0.5137699842453003 0.6505060195922852 0.5593580007553101
vn -0.40760499238967896 0.9025059938430786 -0.13907499611377716
vn -0.13159599900245667 0.8760370016098022 -0.4639410078525543
vn 0.3898630142211914 0.8253200054168701 -0.4084779918193817
vn 0.7437139749526978 0.6574259996414185 -0.12116599828004837
vn 0.7198759913444519 0.6417350172996521 0.26448801159858704
vn -0.4091489911079407 0.8675450086593628 0.2827779948711395
vt 0.12178999930620193 0.13362401723861694
vt 0.24193599820137024 0.135017991065979
vt 0.18916699290275574 0.17799502611160278
vt 0.1257369965314865 0.005007028579711914
vt 0.009689129889011383 0.05341702699661255
vt 0.007354579865932465 0.12777197360992432
vt 0.04692389816045761 0.16329002380371094
vt 0.12178999930620193 0.18814200162887573
vt 0.2398110032081604 0.05100202560424805
g Geoset0
s 1
usemtl mat_westfalldetaildoodads01
f 1/1/1 2/2/2 3/3/3
f 4/4/4 1/1/1 5/5/5
f 1/1/1 6/6/6 5/5/5
f 1/1/1 7/7/7 6/6/6
f 1/1/1 8/8/8 7/7/7
f 1/1/1 3/3/3 8/8/8
f 4/4/4 9/9/9 1/1/1
f 9/9/9 2/2/2 1/1/1