# Exported using wow.export v0.1.49
o 
mtllib wesshe02.mtl
v -0.004045280162245035 0.14094600081443787 -0.02934500016272068
v 0.15887799859046936 -0.01685970090329647 -0.037941399961709976
v 0.10586000233888626 -0.01685970090329647 -0.14678700268268585
v -0.052893899381160736 -0.017207499593496323 0.10019999742507935
v -0.1690939962863922 -0.01669830083847046 0.01537690032273531
v -0.1709579974412918 -0.01685970090329647 -0.11456400156021118
v -0.06399720162153244 0.024477500468492508 -0.19386699795722961
v 0.02795889973640442 0.024477500468492508 -0.2015489935874939
v 0.08976919949054718 -0.017207499593496323 0.07312469929456711
vn 0.05985039845108986 0.997298002243042 0.04260760173201561
vn 0.6962479948997498 0.7162650227546692 0.04694090038537979
vn 0.6362919807434082 0.6939470171928406 -0.3370000123977661
vn -0.15747100114822388 0.6544150114059448 0.7395570278167725
vn -0.6027929782867432 0.7253860235214233 0.33234700560569763
vn -0.6301609873771667 0.7578309774398804 -0.16908499598503113
vn -0.3096660077571869 0.8256279826164246 -0.47164100408554077
vn 0.30697399377822876 0.8138399720191956 -0.49338701367378235
vn 0.41958099603652954 0.6556320190429688 0.6277729868888855
vt 0.08231870085000992 0.28579801321029663
vt 0.23996299505233765 0.2799460291862488
vt 0.20692899823188782 0.36157000064849854
vt 0.11981599777936935 0.20065897703170776
vt 0.02547759935259819 0.21766799688339233
vt 0.007354579865932465 0.2775300145149231
vt 0.031135499477386475 0.3565260171890259
vt 0.11784300208091736 0.369301974773407
vt 0.21810199320316315 0.22249901294708252
g Geoset0
s 1
usemtl mat_westfalldetaildoodads01
f 1/1/1 2/2/2 3/3/3
f 4/4/4 1/1/1 5/5/5
f 1/1/1 6/6/6 5/5/5
f 1/1/1 7/7/7 6/6/6
f 1/1/1 8/8/8 7/7/7
f 1/1/1 3/3/3 8/8/8
f 4/4/4 9/9/9 1/1/1
f 9/9/9 2/2/2 1/1/1