# Exported using wow.export v0.1.49
o 
mtllib weswea04.mtl
v 0.020325299352407455 0.8929060101509094 0.2881059944629669
v 0.020325299352407455 -0.030069399625062943 0.2881059944629669
v 0.020325299352407455 0.8929060101509094 -0.24076999723911285
v 0.26444101333618164 -0.030069399625062943 -0.0039144400507211685
v 0.26444101333618164 0.8929060101509094 -0.0039144400507211685
v -0.26444101333618164 -0.030069399625062943 -0.0039144400507211685
v -0.26444101333618164 0.8929060101509094 -0.0039144400507211685
v 0.020325299352407455 -0.030069399625062943 -0.24076999723911285
vn 1 1.0972299691047738e-7 0
vn 1 1.0972299691047738e-7 0
vn 1 1.0972299691047738e-7 0
vn 0 0 1
vn 0 0 1
vn 0 0 1
vn 0 0 1
vn 1 1.0972299691047738e-7 0
vt 0.7379699945449829 0.9963980899192393
vt 0.7438899874687195 0.5011860132217407
vt 0.5403019785881042 0.9963980899192393
vt 0.49096301198005676 0.5011860132217407
vt 0.5403019785881042 0.9963980899192393
vt 0.7438899874687195 0.5011860132217407
vt 0.7379699945449829 0.9963980899192393
vt 0.49096301198005676 0.5011860132217407
g Geoset0
s 1
usemtl mat_westfalldetaildoodads01
f 1/1/1 2/2/2 3/3/3
f 4/4/4 5/5/5 6/6/6
f 7/7/7 6/6/6 5/5/5
f 8/8/8 3/3/3 2/2/2