# Exported using wow.export v0.1.49
o 
mtllib weswea03.mtl
v -0.24050800502300262 0.5325779914855957 -0.08608389645814896
v -0.24050800502300262 -0.03589389845728874 0.014578299596905708
v 0.24050800502300262 0.5325779914855957 -0.08608389645814896
v 0 -0.03589389845728874 -0.22592900693416595
v 0 0.5325779914855957 -0.32659199833869934
v 0 -0.03589389845728874 0.2550860047340393
v 0 0.5325779914855957 0.15442399680614471
v 0.24050800502300262 -0.03589389845728874 0.014578299596905708
vn 0 0.141185000538826 0.9899830222129822
vn 0 0.141185000538826 0.9899830222129822
vn 0 0.141185000538826 0.9899830222129822
vn 1 2.2202100069534936e-7 0
vn 1 2.2202100069534936e-7 0
vn 1 2.2202100069534936e-7 0
vn 1 2.2202100069534936e-7 0
vn 0 0.141185000538826 0.9899830222129822
vt 0.5011429786682129 0.9963980899192393
vt 0.5011429786682129 0.6267899870872498
vt 0.25018900632858276 0.9963980899192393
vt 0.25018900632858276 0.6267899870872498
vt 0.25018900632858276 0.9963980899192393
vt 0.5011429786682129 0.6267899870872498
vt 0.5011429786682129 0.9963980899192393
vt 0.25018900632858276 0.6267899870872498
g Geoset0
s 1
usemtl mat_westfalldetaildoodads01
f 1/1/1 2/2/2 3/3/3
f 4/4/4 5/5/5 6/6/6
f 7/7/7 6/6/6 5/5/5
f 8/8/8 3/3/3 2/2/2