# Exported using wow.export v0.1.49
o 
mtllib weswea02.mtl
v 0 0.5286059975624084 0.21720600128173828
v 0 -0.0208647008985281 0.21720600128173828
v 0 0.5286059975624084 -0.21642400324344635
v 0.21681499481201172 -0.0208647008985281 0.0003888889914378524
v 0.21681499481201172 0.4015580117702484 0.0003888889914378524
v -0.21681499481201172 -0.0208647008985281 0.0003888889914378524
v -0.21681499481201172 0.4015580117702484 0.0003888889914378524
v 0 -0.0208647008985281 -0.21642400324344635
vn 1 1.2862800247148698e-7 0
vn 1 1.2862800247148698e-7 0
vn 1 1.2862800247148698e-7 0
vn 0 0 1
vn 0 0 1
vn 0 0 1
vn 0 0 1
vn 1 1.2862800247148698e-7 0
vt 0.9925580024719238 0.5012289881706238
vt 0.9925580024719238 0.25239402055740356
vt 0.7475249767303467 0.5012289881706238
vt 0.7475249767303467 0.25239402055740356
vt 0.7475249767303467 0.5012289881706238
vt 0.9925580024719238 0.25239402055740356
vt 0.9925580024719238 0.5012289881706238
vt 0.7475249767303467 0.25239402055740356
g Geoset0
s 1
usemtl mat_westfalldetaildoodads01
f 1/1/1 2/2/2 3/3/3
f 4/4/4 5/5/5 6/6/6
f 7/7/7 6/6/6 5/5/5
f 8/8/8 3/3/3 2/2/2