# Exported using wow.export v0.1.49
o 
mtllib duskwoodfencetop.mtl
v -4.151000022888184 1.1451799869537354 -0.018545299768447876
v -4.1575798988342285 1.44582998752594 0.11330100148916245
v -4.156330108642578 1.4823299646377563 -0.09624610096216202
v 0.14094500243663788 -0.5586640238761902 -0.1308079957962036
v -0.13372600078582764 -0.5586640238761902 0.14104899764060974
v -0.13350600004196167 -0.5586640238761902 -0.1308079957962036
v 0.14094500243663788 -0.5586640238761902 0.14164100587368011
v 0.00039166701026260853 1.9017399549484253 0.0021111099049448967
v 0.14094500243663788 1.6736400127410889 0.14164100587368011
v 0.14094500243663788 1.6736400127410889 -0.1308079957962036
v 0.14094500243663788 -0.5586640238761902 0.14164100587368011
v 0.14094500243663788 -0.5586640238761902 -0.1308079957962036
v -0.13350600004196167 1.6736400127410889 -0.1308079957962036
v -0.13350600004196167 1.6736400127410889 0.1416420042514801
v -0.13350600004196167 -0.5586640238761902 -0.1308079957962036
v -0.13372600078582764 -0.5586640238761902 0.14104899764060974
v 0.00039166701026260853 1.9017399549484253 0.0021111099049448967
v 0.14094500243663788 1.6736400127410889 -0.1308079957962036
v -0.13350600004196167 1.6736400127410889 -0.1308079957962036
v 0.14094500243663788 -0.5586640238761902 -0.1308079957962036
v -0.13350600004196167 -0.5586640238761902 -0.1308079957962036
v -0.13372600078582764 -0.5586640238761902 0.14104899764060974
v 0.14094500243663788 -0.5586640238761902 0.14164100587368011
v 0.14094500243663788 1.6736400127410889 0.14164100587368011
v -0.13350600004196167 1.6736400127410889 0.1416420042514801
v -1.0949699878692627 1.344730019569397 0.2559660077095032
v -0.01998390071094036 1.477429986000061 0.0887117013335228
v -0.01998390071094036 1.477429986000061 -0.08631610125303268
v -1.0903799533843994 1.3221800327301025 0.017002200707793236
v -3.1813600063323975 1.5306199789047241 0.02247530035674572
v -3.1958301067352295 1.5765199661254883 -0.14331699907779694
v -4.1575798988342285 1.44582998752594 0.11330100148916245
v -4.156330108642578 1.4823299646377563 -0.09624610096216202
v -1.0903799533843994 1.3221800327301025 0.017002200707793236
v -0.01998390071094036 1.477429986000061 -0.08631610125303268
v -0.01998390071094036 1.1443599462509155 0.0011944399448111653
v -1.0212899446487427 0.9825860261917114 0.17096099257469177
v -3.1958301067352295 1.5765199661254883 -0.14331699907779694
v -3.0688600540161133 1.17385995388031 -0.10930600017309189
v -4.156330108642578 1.4823299646377563 -0.09624610096216202
v -4.151000022888184 1.1451799869537354 -0.018545299768447876
v -4.1575798988342285 1.44582998752594 0.11330100148916245
v -3.1813600063323975 1.5306199789047241 0.02247530035674572
v -1.0949699878692627 1.344730019569397 0.2559660077095032
v -0.01998390071094036 1.477429986000061 0.0887117013335228
vn -0.8374000191688538 -0.543582022190094 -0.0572751984000206
vn -0.3423829972743988 0.4402349889278412 0.8300409913063049
vn -0.5316680073738098 0.2838920056819916 -0.7979559898376465
vn 0.33333298563957214 -0.6666669845581055 -0.6666669845581055
vn -0.4472399950027466 -0.8944140076637268 -0.000545946997590363
vn -0.8163509964942932 -0.4081149995326996 -0.4086740016937256
vn 0.8164970278739929 -0.40824800729751587 0.40824800729751587
vn -0.005367320030927658 0.9999709725379944 -0.005320200230926275
vn 0.520272970199585 0.29406100511550903 0.8017759919166565
vn 0.8013200163841248 0.2889209985733032 -0.523842990398407
vn 0.8164970278739929 -0.40824800729751587 0.40824800729751587
vn 0.33333298563957214 -0.6666669845581055 -0.6666669845581055
vn -0.5227940082550049 0.2834410071372986 -0.8039569854736328
vn -0.803846001625061 0.28874799609184265 0.5200530290603638
vn -0.8163509964942932 -0.4081149995326996 -0.4086740016937256
vn -0.4472399950027466 -0.8944140076637268 -0.000545946997590363
vn -0.005367320030927658 0.9999709725379944 -0.005320200230926275
vn 0.8013200163841248 0.2889209985733032 -0.523842990398407
vn -0.5227940082550049 0.2834410071372986 -0.8039569854736328
vn 0.33333298563957214 -0.6666669845581055 -0.6666669845581055
vn -0.8163509964942932 -0.4081149995326996 -0.4086740016937256
vn 5.1955598934227964e-8 -5.1352300189932976e-9 1
vn 0.8164970278739929 -0.40824800729751587 0.40824800729751587
vn 0.520272970199585 0.29406100511550903 0.8017759919166565
vn -0.803846001625061 0.28874799609184265 0.5200530290603638
vn 0.018943199887871742 0.6467589735984802 0.7624589800834656
vn 0.04668290168046951 0.6144739985466003 0.7875540256500244
vn -0.1613750010728836 0.8401960134506226 -0.5177149772644043
vn -0.02356869913637638 0.5633209943771362 -0.825901985168457
vn -0.01013999991118908 0.5172960162162781 0.8557469844818115
vn 0.019461100921034813 0.7310320138931274 -0.682066023349762
vn -0.3423829972743988 0.4402349889278412 0.8300409913063049
vn -0.5316680073738098 0.2838920056819916 -0.7979559898376465
vn -0.02356869913637638 0.5633209943771362 -0.825901985168457
vn -0.1613750010728836 0.8401960134506226 -0.5177149772644043
vn 0.20331799983978271 -0.9782050251960754 0.042153600603342056
vn -0.01708330027759075 -0.9997270107269287 0.015951799228787422
vn 0.019461100921034813 0.7310320138931274 -0.682066023349762
vn 0.03962539881467819 -0.990697979927063 -0.13018099963665009
vn -0.5316680073738098 0.2838920056819916 -0.7979559898376465
vn -0.8374000191688538 -0.543582022190094 -0.0572751984000206
vn -0.3423829972743988 0.4402349889278412 0.8300409913063049
vn -0.01013999991118908 0.5172960162162781 0.8557469844818115
vn 0.018943199887871742 0.6467589735984802 0.7624589800834656
vn 0.04668290168046951 0.6144739985466003 0.7875540256500244
vt 0.5064669847488403 0.8780670017004013
vt 0.022596200928092003 0.9940089001320302
vt 0.9409379959106445 0.9940089001320302
vt 0.9484180212020874 0.8532849997282028
vt 0.0546984001994133 0.9957967400550842
vt 0.051503799855709076 0.8532849997282028
vt 0.9436650276184082 0.9957967400550842
vt 0.70967698097229 0.992125989869237
vt 0.4838710129261017 0.8818899989128113
vt 0.9677420258522034 0.8818899989128113
vt 0.4838710129261017 0.007874011993408203
vt 0.9677420258522034 0.007874011993408203
vt 0.4838710129261017 0.8818899989128113
vt 0.9677420258522034 0.8818899989128113
vt 0.4838710129261017 0.007874011993408203
vt 0.9677420258522034 0.007874011993408203
vt 0.25806498527526855 0.992125989869237
vt 0.03225810080766678 0.8818899989128113
vt 0.5161290168762207 0.8818899989128113
vt 0.03225810080766678 0.007874011993408203
vt 0.5161290168762207 0.007874011993408203
vt 0.03225810080766678 0.007874011993408203
vt 0.5161290168762207 0.007874011993408203
vt 0.5161290168762207 0.8818899989128113
vt 0.03225810080766678 0.8818899989128113
vt 0.03225810080766678 0.5590550005435944
vt 0.03225810080766678 0.818898007273674
vt 0.3225809931755066 0.818898007273674
vt 0.3225809931755066 0.5590550005435944
vt 0.03225810080766678 0.24409401416778564
vt 0.3225809931755066 0.24409401416778564
vt 0.03225810080766678 0.015748023986816406
vt 0.3225809931755066 0.015748023986816406
vt 0.9677420258522034 0.5590550005435944
vt 0.9677420258522034 0.818898007273674
vt 0.5161290168762207 0.818898007273674
vt 0.5161290168762207 0.5590550005435944
vt 0.9677420258522034 0.24409401416778564
vt 0.5161290168762207 0.24409401416778564
vt 0.9677420258522034 0.015748023986816406
vt 0.5161290168762207 0.015748023986816406
vt 0.9677420258522034 0.015748023986816406
vt 0.9677420258522034 0.24409401416778564
vt 0.9677420258522034 0.5590550005435944
vt 0.9677420258522034 0.818898007273674
g Geoset0
s 1
usemtl mat_westfallfence
f 1/1/1 2/2/2 3/3/3
f 4/4/4 5/5/5 6/6/6
f 4/4/4 7/7/7 5/5/5
f 8/8/8 9/9/9 10/10/10
f 10/10/10 9/9/9 11/11/11
f 11/11/11 12/12/12 10/10/10
f 8/8/8 13/13/13 14/14/14
f 14/14/14 13/13/13 15/15/15
f 15/15/15 16/16/16 14/14/14
f 17/17/17 18/18/18 19/19/19
f 19/19/19 18/18/18 20/20/20
f 20/20/20 21/21/21 19/19/19
f 22/22/22 23/23/23 24/24/24
f 24/24/24 25/25/25 22/22/22
f 17/17/17 25/25/25 24/24/24
f 26/26/26 27/27/27 28/28/28
f 28/28/28 29/29/29 26/26/26
f 30/30/30 26/26/26 29/29/29
f 29/29/29 31/31/31 30/30/30
f 32/32/32 30/30/30 31/31/31
f 31/31/31 33/33/33 32/32/32
f 34/34/34 35/35/35 36/36/36
f 36/36/36 37/37/37 34/34/34
f 38/38/38 34/34/34 37/37/37
f 37/37/37 39/39/39 38/38/38
f 40/40/40 38/38/38 39/39/39
f 39/39/39 41/41/41 40/40/40
f 42/42/42 41/41/41 39/39/39
f 39/39/39 43/43/43 42/42/42
f 43/43/43 39/39/39 37/37/37
f 37/37/37 44/44/44 43/43/43
f 44/44/44 37/37/37 36/36/36
f 36/36/36 45/45/45 44/44/44