# Exported using wow.export v0.1.49
o 
mtllib mug02.mtl
v -0.007388889789581299 0.2318660020828247 0.029734399169683456
v -0.007388889789581299 0.4440560042858124 -0.0823500007390976
v -0.11398699879646301 0.4440560042858124 -0.00490111019462347
v 0.04546080157160759 0.10119599848985672 0.18015199899673462
v -0.059059400111436844 0.10119599848985672 0.18015199899673462
v -0.059059400111436844 0.14674800634384155 0.2885969877243042
v -0.059059400111436844 0.14674800634384155 0.2885969877243042
v 0.04546080157160759 0.14674800634384155 0.2885969877243042
v 0.04546080157160759 0.10119599848985672 0.18015199899673462
v -0.0067991698160767555 0.01067890040576458 0.18015199899673462
v 0.04546080157160759 0.10119599848985672 0.18015199899673462
v 0.04546080157160759 0.14674800634384155 0.2885969877243042
v 0.04546080157160759 0.14674800634384155 0.2885969877243042
v -0.0067991698160767555 0.09482920169830322 0.362744003534317
v -0.0067991698160767555 0.01067890040576458 0.18015199899673462
v -0.059059400111436844 0.10119599848985672 0.18015199899673462
v -0.0067991698160767555 0.01067890040576458 0.18015199899673462
v -0.0067991698160767555 0.09482920169830322 0.362744003534317
v -0.0067991698160767555 0.09482920169830322 0.362744003534317
v -0.059059400111436844 0.14674800634384155 0.2885969877243042
v -0.059059400111436844 0.10119599848985672 0.18015199899673462
v 0.04492440074682236 0.3096419870853424 0.288455992937088
v -0.059595800936222076 0.3316499888896942 0.16784599423408508
v 0.04492440074682236 0.3316499888896942 0.16784599423408508
v -0.059595800936222076 0.3096419870853424 0.288455992937088
v -0.007335280068218708 0.3615559935569763 0.36260300874710083
v 0.04492440074682236 0.3316499888896942 0.16784599423408508
v -0.007335280068218708 0.4221689999103546 0.16784599423408508
v 0.04492440074682236 0.3096419870853424 0.288455992937088
v -0.059595800936222076 0.3096419870853424 0.288455992937088
v -0.007335280068218708 0.4221689999103546 0.16784599423408508
v -0.059595800936222076 0.3316499888896942 0.16784599423408508
v -0.007335280068218708 0.3615559935569763 0.36260300874710083
v 0.04546080157160759 0.14674800634384155 0.2885969877243042
v -0.059595800936222076 0.3096419870853424 0.288455992937088
v 0.04492440074682236 0.3096419870853424 0.288455992937088
v -0.059059400111436844 0.14674800634384155 0.2885969877243042
v -0.0067991698160767555 0.09482920169830322 0.362744003534317
v 0.04492440074682236 0.3096419870853424 0.288455992937088
v -0.007335280068218708 0.3615559935569763 0.36260300874710083
v 0.04546080157160759 0.14674800634384155 0.2885969877243042
v -0.059059400111436844 0.14674800634384155 0.2885969877243042
v -0.007335280068218708 0.3615559935569763 0.36260300874710083
v -0.059595800936222076 0.3096419870853424 0.288455992937088
v -0.0067991698160767555 0.09482920169830322 0.362744003534317
v 0.15997099876403809 0.4494830071926117 -0.02464359998703003
v -0.007388889789581299 0.4440560042858124 -0.0823500007390976
v 0.0992095023393631 0.4440560042858124 -0.00490111019462347
v -0.007388889789581299 0.4494830071926117 -0.14623799920082092
v 0.09604500234127045 0.4494830071926117 0.17209899425506592
v 0.0992095023393631 0.4440560042858124 -0.00490111019462347
v 0.05849279835820198 0.4440560042858124 0.12041199952363968
v 0.15997099876403809 0.4494830071926117 -0.02464359998703003
v -0.11082299798727036 0.4494830071926117 0.17209899425506592
v 0.05849279835820198 0.4440560042858124 0.12041199952363968
v -0.0732702985405922 0.4440560042858124 0.12041199952363968
v 0.09604500234127045 0.4494830071926117 0.17209899425506592
v -0.1747490018606186 0.4494830071926117 -0.02464359998703003
v -0.0732702985405922 0.4440560042858124 0.12041199952363968
v -0.11398699879646301 0.4440560042858124 -0.00490111019462347
v -0.11082299798727036 0.4494830071926117 0.17209899425506592
v -0.007388889789581299 0.4494830071926117 -0.14623799920082092
v -0.11398699879646301 0.4440560042858124 -0.00490111019462347
v -0.007388889789581299 0.4440560042858124 -0.0823500007390976
v -0.1747490018606186 0.4494830071926117 -0.02464359998703003
v 0.18172800540924072 -0.02940939925611019 -0.03171280026435852
v -0.007388889789581299 0.4494830071926117 -0.14623799920082092
v 0.15997099876403809 0.4494830071926117 -0.02464359998703003
v -0.007388889789581299 -0.02940939925611019 -0.16911399364471436
v 0.10949099808931351 -0.02940939925611019 0.1906069964170456
v 0.15997099876403809 0.4494830071926117 -0.02464359998703003
v 0.09604500234127045 0.4494830071926117 0.17209899425506592
v 0.18172800540924072 -0.02940939925611019 -0.03171280026435852
v -0.12426900118589401 -0.02940939925611019 0.1906069964170456
v 0.09604500234127045 0.4494830071926117 0.17209899425506592
v -0.11082299798727036 0.4494830071926117 0.17209899425506592
v 0.10949099808931351 -0.02940939925611019 0.1906069964170456
v -0.19650599360466003 -0.02940939925611019 -0.03171280026435852
v -0.11082299798727036 0.4494830071926117 0.17209899425506592
v -0.1747490018606186 0.4494830071926117 -0.02464359998703003
v -0.12426900118589401 -0.02940939925611019 0.1906069964170456
v -0.007388889789581299 -0.02940939925611019 -0.16911399364471436
v -0.1747490018606186 0.4494830071926117 -0.02464359998703003
v -0.007388889789581299 0.4494830071926117 -0.14623799920082092
v -0.19650599360466003 -0.02940939925611019 -0.03171280026435852
v -0.12426900118589401 -0.02940939925611019 0.1906069964170456
v 0.18172800540924072 -0.02940939925611019 -0.03171280026435852
v 0.10949099808931351 -0.02940939925611019 0.1906069964170456
v -0.007388889789581299 -0.02940939925611019 -0.16911399364471436
v -0.19650599360466003 -0.02940939925611019 -0.03171280026435852
v 0.0992095023393631 0.4440560042858124 -0.00490111019462347
v -0.007388889789581299 0.4440560042858124 -0.0823500007390976
v 0.05849279835820198 0.4440560042858124 0.12041199952363968
v 0.0992095023393631 0.4440560042858124 -0.00490111019462347
v -0.0732702985405922 0.4440560042858124 0.12041199952363968
v 0.05849279835820198 0.4440560042858124 0.12041199952363968
v -0.11398699879646301 0.4440560042858124 -0.00490111019462347
v -0.0732702985405922 0.4440560042858124 0.12041199952363968
vn -6.067180180480136e-8 1 3.033590090240068e-8
vn 3.5422299760057285e-8 0.46706798672676086 0.8842210173606873
vn 0.8409450054168701 0.46706798672676086 0.27323898673057556
vn -2.5949398718694283e-7 0.9219740033149719 -0.38725098967552185
vn -2.5949398718694283e-7 0.9219740033149719 -0.38725098967552185
vn -2.5949398718694283e-7 0.9219740033149719 -0.38725098967552185
vn -3.974529931838333e-7 0.9219740033149719 -0.38725098967552185
vn -3.974529931838333e-7 0.9219740033149719 -0.38725098967552185
vn -3.974529931838333e-7 0.9219740033149719 -0.38725098967552185
vn 0.8475369811058044 -0.48932498693466187 0.20552800595760345
vn 0.8475369811058044 -0.48932498693466187 0.20552800595760345
vn 0.8475369811058044 -0.48932498693466187 0.20552800595760345
vn 0.8313819766044617 -0.5046859979629517 0.23258499801158905
vn 0.8313819766044617 -0.5046859979629517 0.23258499801158905
vn 0.8313819766044617 -0.5046859979629517 0.23258499801158905
vn -0.8439109921455383 -0.4872319996356964 0.22454200685024261
vn -0.8439109921455383 -0.4872319996356964 0.22454200685024261
vn -0.8439109921455383 -0.4872319996356964 0.22454200685024261
vn -0.8259980082511902 -0.5196920037269592 0.21828299760818481
vn -0.8259980082511902 -0.5196920037269592 0.21828299760818481
vn -0.8259980082511902 -0.5196920037269592 0.21828299760818481
vn 0.8730509877204895 -0.48646000027656555 -0.033731598407030106
vn -0.49998700618743896 -0.8519619703292847 -0.15547800064086914
vn 0.9954140186309814 0.07944449782371521 0.053279101848602295
vn -0.8805760145187378 0.02590169943869114 -0.47319701313972473
vn 0.0029012500308454037 0.611132025718689 0.7915229797363281
vn 0.9954140186309814 0.07944449782371521 0.053279101848602295
vn -0.4512830078601837 0.8615339994430542 0.23260100185871124
vn 0.8730509877204895 -0.48646000027656555 -0.033731598407030106
vn -0.8805760145187378 0.02590169943869114 -0.47319701313972473
vn -0.4512830078601837 0.8615339994430542 0.23260100185871124
vn -0.49998700618743896 -0.8519619703292847 -0.15547800064086914
vn 0.0029012500308454037 0.611132025718689 0.7915229797363281
vn 0.4977540075778961 0.0008870650199241936 -0.8673179745674133
vn -0.8805760145187378 0.02590169943869114 -0.47319701313972473
vn 0.8730509877204895 -0.48646000027656555 -0.033731598407030106
vn -0.9956669807434082 -0.0026781600899994373 0.0929562970995903
vn 0.4271790087223053 0.0019874100107699633 0.9041650295257568
vn 0.8730509877204895 -0.48646000027656555 -0.033731598407030106
vn 0.0029012500308454037 0.611132025718689 0.7915229797363281
vn 0.4977540075778961 0.0008870650199241936 -0.8673179745674133
vn -0.9956669807434082 -0.0026781600899994373 0.0929562970995903
vn 0.0029012500308454037 0.611132025718689 0.7915229797363281
vn -0.8805760145187378 0.02590169943869114 -0.47319701313972473
vn 0.4271790087223053 0.0019874100107699633 0.9041650295257568
vn 0.5901049971580505 0.807204008102417 -0.014079499989748001
vn -0.02050670050084591 0.996196985244751 0.08467649668455124
vn -0.08686839789152145 0.9961979985237122 0.006663090083748102
vn 0.1689620018005371 0.807204008102417 -0.56557297706604
vn 0.19574299454689026 0.807204008102417 0.5568720102310181
vn -0.08686839789152145 0.9961979985237122 0.006663090083748102
vn -0.03318069875240326 0.996196985244751 -0.08055830001831055
vn 0.5901049971580505 0.807204008102417 -0.014079499989748001
vn -0.4691289961338043 0.807204008102417 0.35824498534202576
vn -0.03318069875240326 0.996196985244751 -0.08055830001831055
vn 0.0663624033331871 0.996196985244751 -0.05645120143890381
vn 0.19574299454689026 0.807204008102417 0.5568720102310181
vn -0.4856800138950348 0.807204008102417 -0.3354640007019043
vn 0.0663624033331871 0.996196985244751 -0.05645120143890381
vn 0.07419539988040924 0.996196985244751 0.04566999897360802
vn -0.4691289961338043 0.807204008102417 0.35824498534202576
vn 0.1689620018005371 0.807204008102417 -0.56557297706604
vn 0.07419539988040924 0.996196985244751 0.04566999897360802
vn -0.02050670050084591 0.996196985244751 0.08467649668455124
vn -0.4856800138950348 0.807204008102417 -0.3354640007019043
vn 0.8506839871406555 0.04637699946761131 -0.523626983165741
vn 0.1689620018005371 0.807204008102417 -0.56557297706604
vn 0.5901049971580505 0.807204008102417 -0.014079499989748001
vn -0.23512299358844757 0.04637699946761131 -0.9708579778671265
vn 0.7608749866485596 0.04637699946761131 0.6472390294075012
vn 0.5901049971580505 0.807204008102417 -0.014079499989748001
vn 0.19574299454689026 0.807204008102417 0.5568720102310181
vn 0.8506839871406555 0.04637699946761131 -0.523626983165741
vn -0.3804369866847992 0.04637699946761131 0.9236429929733276
vn 0.19574299454689026 0.807204008102417 0.5568720102310181
vn -0.4691289961338043 0.807204008102417 0.35824498534202576
vn 0.7608749866485596 0.04637699946761131 0.6472390294075012
vn -0.9959980249404907 0.04637699946761131 -0.07639619708061218
vn -0.4691289961338043 0.807204008102417 0.35824498534202576
vn -0.4856800138950348 0.807204008102417 -0.3354640007019043
vn -0.3804369866847992 0.04637699946761131 0.9236429929733276
vn -0.23512299358844757 0.04637699946761131 -0.9708579778671265
vn -0.4856800138950348 0.807204008102417 -0.3354640007019043
vn 0.1689620018005371 0.807204008102417 -0.56557297706604
vn -0.9959980249404907 0.04637699946761131 -0.07639619708061218
vn 0 -1 0
vn 0 -1 0
vn 0 -1 0
vn 0 -1 0
vn 0 -1 0
vn -0.8409450054168701 0.46706798672676086 0.27324000000953674
vn 3.5422299760057285e-8 0.46706798672676086 0.8842210173606873
vn -0.5197319984436035 0.46706798672676086 -0.7153499722480774
vn -0.8409450054168701 0.46706798672676086 0.27324000000953674
vn 0.5197319984436035 0.46706798672676086 -0.7153499722480774
vn -0.5197319984436035 0.46706798672676086 -0.7153499722480774
vn 0.8409450054168701 0.46706798672676086 0.27323898673057556
vn 0.5197319984436035 0.46706798672676086 -0.7153499722480774
vt 0.5145059823989868 0.6215780079364777
vt 0 0.8848629966378212
vt 1 0.8848629966378212
vt 0.9684230089187622 0.8840579986572266
vt 0.00789421983063221 0.8840579986572266
vt 0.00789421983063221 0.6352660059928894
vt 0.00789421983063221 0.6352660059928894
vt 0.9684230089187622 0.6352660059928894
vt 0.9684230089187622 0.8840579986572266
vt 0.9684230089187622 0.8840579986572266
vt 0.00789421983063221 0.8840579986572266
vt 0.00789421983063221 0.6352660059928894
vt 0.00789421983063221 0.6352660059928894
vt 0.9684230089187622 0.6352660059928894
vt 0.9684230089187622 0.8840579986572266
vt 0.9684230089187622 0.8840579986572266
vt 0.00789421983063221 0.8840579986572266
vt 0.00789421983063221 0.6352660059928894
vt 0.00789421983063221 0.6352660059928894
vt 0.9684230089187622 0.6352660059928894
vt 0.9684230089187622 0.8840579986572266
vt 0.00789421983063221 0.6352660059928894
vt 0.9684230089187622 0.8840579986572266
vt 0.00789421983063221 0.8840579986572266
vt 0.9684230089187622 0.6352660059928894
vt 0.00789421983063221 0.6352660059928894
vt 0.9684230089187622 0.8840579986572266
vt 0.00789421983063221 0.8840579986572266
vt 0.9684230089187622 0.6352660059928894
vt 0.00789421983063221 0.6352660059928894
vt 0.9684230089187622 0.8840579986572266
vt 0.00789421983063221 0.8840579986572266
vt 0.9684230089187622 0.6352660059928894
vt 0 0.6231879889965057
vt 1 0.8043480068445206
vt 0 0.8043480068445206
vt 1 0.6231879889965057
vt 0 0.6231879889965057
vt 1 0.8043480068445206
vt 0 0.8043480068445206
vt 1 0.6231879889965057
vt 0 0.6231879889965057
vt 1 0.8043480068445206
vt 0 0.8043480068445206
vt 1 0.6231879889965057
vt 0 0.6328499913215637
vt 0.9960529804229736 0.8864730000495911
vt 0 0.8864730000495911
vt 0.9960529804229736 0.6328499913215637
vt 0 0.6328499913215637
vt 0.9960529804229736 0.8864730000495911
vt 0 0.8864730000495911
vt 0.9960529804229736 0.6328499913215637
vt 0 0.6328499913215637
vt 0.9960529804229736 0.8864730000495911
vt 0 0.8864730000495911
vt 0.9960529804229736 0.6328499913215637
vt 0 0.6328499913215637
vt 0.9960529804229736 0.8864730000495911
vt 0 0.8864730000495911
vt 0.9960529804229736 0.6328499913215637
vt 0 0.6328499913215637
vt 0.9960529804229736 0.8864730000495911
vt 0 0.8864730000495911
vt 0.9960529804229736 0.6328499913215637
vt 0 0
vt 1 1
vt 0 1
vt 1 0
vt 0 0
vt 1 1
vt 0 1
vt 1 0
vt 0 0
vt 1 1
vt 0 1
vt 1 0
vt 0 0
vt 1 1
vt 0 1
vt 1 0
vt 0 0
vt 1 1
vt 0 1
vt 1 0
vt 0.033084601163864136 0.7382160127162933
vt 0.9481080174446106 0.6177429854869843
vt 0.033084601163864136 0.6216880083084106
vt 0.9153509736061096 0.7342999875545502
vt 0.4941909909248352 0.6503730118274689
vt 0 0.8848629966378212
vt 1 0.8848629966378212
vt 0 0.8848629966378212
vt 1 0.8848629966378212
vt 0 0.8848629966378212
vt 1 0.8848629966378212
vt 0 0.8848629966378212
vt 1 0.8848629966378212
g Geoset0
s 1
usemtl mat_mug_004
f 1/1/1 2/2/2 3/3/3
f 4/4/4 5/5/5 6/6/6
f 7/7/7 8/8/8 9/9/9
f 10/10/10 11/11/11 12/12/12
f 13/13/13 14/14/14 15/15/15
f 16/16/16 17/17/17 18/18/18
f 19/19/19 20/20/20 21/21/21
f 22/22/22 23/23/23 24/24/24
f 22/22/22 25/25/25 23/23/23
f 26/26/26 27/27/27 28/28/28
f 26/26/26 29/29/29 27/27/27
f 30/30/30 31/31/31 32/32/32
f 30/30/30 33/33/33 31/31/31
f 34/34/34 35/35/35 36/36/36
f 34/34/34 37/37/37 35/35/35
f 38/38/38 39/39/39 40/40/40
f 38/38/38 41/41/41 39/39/39
f 42/42/42 43/43/43 44/44/44
f 42/42/42 45/45/45 43/43/43
f 46/46/46 47/47/47 48/48/48
f 46/46/46 49/49/49 47/47/47
f 50/50/50 51/51/51 52/52/52
f 50/50/50 53/53/53 51/51/51
f 54/54/54 55/55/55 56/56/56
f 54/54/54 57/57/57 55/55/55
f 58/58/58 59/59/59 60/60/60
f 58/58/58 61/61/61 59/59/59
f 62/62/62 63/63/63 64/64/64
f 62/62/62 65/65/65 63/63/63
f 66/66/66 67/67/67 68/68/68
f 66/66/66 69/69/69 67/67/67
f 70/70/70 71/71/71 72/72/72
f 70/70/70 73/73/73 71/71/71
f 74/74/74 75/75/75 76/76/76
f 74/74/74 77/77/77 75/75/75
f 78/78/78 79/79/79 80/80/80
f 78/78/78 81/81/81 79/79/79
f 82/82/82 83/83/83 84/84/84
f 82/82/82 85/85/85 83/83/83
f 86/86/86 87/87/87 88/88/88
f 86/86/86 89/89/89 87/87/87
f 86/86/86 90/90/90 89/89/89
f 1/1/1 91/91/91 92/92/92
f 1/1/1 93/93/93 94/94/94
f 1/1/1 95/95/95 96/96/96
f 1/1/1 97/97/97 98/98/98