# Exported using wow.export v0.1.49
o 
mtllib haunch.mtl
v 0.31529998779296875 0.2942419946193695 -0.25357601046562195
v 0.22890900075435638 0.5791919827461243 -0.0007638889946974814
v 0.5559219717979431 0.3368059992790222 -0.19367599487304688
v -0.600928008556366 0.07469359785318375 0.12031900137662888
v -0.42675599455833435 0.06794139742851257 -0.01765579916536808
v -0.4544390141963959 -0.047452498227357864 0.1552090048789978
v -0.3663420081138611 0.06544359773397446 0.14665499329566956
v -0.36645299196243286 0.09921559691429138 0.04672890156507492
v -0.15404599905014038 0.07455640286207199 0.13336700201034546
v -0.15526899695396423 0.15513299405574799 0.03254000097513199
v 0.31529998779296875 0.2942419946193695 -0.25357601046562195
v 0.4800280034542084 0.3237830102443695 0.09468329697847366
v 0.5933669805526733 0.09497030079364777 -0.035461701452732086
v 0.5559219717979431 0.3368059992790222 -0.19367599487304688
v 0.34868600964546204 -0.006293890066444874 -0.07446829974651337
v 0.31529998779296875 0.2942419946193695 -0.25357601046562195
v 0.5264809727668762 0.08238329738378525 0.13288100063800812
v 0.47305798530578613 0.2721779942512512 0.3143419921398163
v 0.3573029935359955 0.009575000032782555 0.14925800263881683
v 0.3573029935359955 0.009575000032782555 0.14925800263881683
v 0.2946999967098236 0.20907500386238098 0.33925798535346985
v -0.39488300681114197 0.1283929944038391 0.21622000634670258
v -0.15404599905014038 0.07455640286207199 0.13336700201034546
v -0.1874299943447113 0.20416000485420227 0.2333579957485199
v -0.3663420081138611 0.06544359773397446 0.14665499329566956
v -0.4544390141963959 -0.047452498227357864 0.1552090048789978
v -0.5113030076026917 0.1055779978632927 0.24342699348926544
v -0.42675599455833435 0.06794139742851257 -0.01765579916536808
v -0.504052996635437 0.18101200461387634 0.10269500315189362
v -0.36645299196243286 0.09921559691429138 0.04672890156507492
v -0.5113030076026917 0.1055779978632927 0.24342699348926544
v -0.15526899695396423 0.15513299405574799 0.03254000097513199
v 0.22890900075435638 0.5791919827461243 -0.0007638889946974814
v -0.1808300018310547 0.2626039981842041 0.09831000119447708
v -0.38978898525238037 0.1741030067205429 0.12301900237798691
v -0.39488300681114197 0.1283929944038391 0.21622000634670258
v 0.2124830037355423 0.5359439849853516 0.22601599991321564
v -0.1874299943447113 0.20416000485420227 0.2333579957485199
v 0.2946999967098236 0.20907500386238098 0.33925798535346985
v 0.47305798530578613 0.2721779942512512 0.3143419921398163
v 0.403346985578537 0.5819190144538879 0.2192460000514984
v 0.47305798530578613 0.2721779942512512 0.3143419921398163
v 0.4525420069694519 0.5949419736862183 -0.013676900416612625
vn -0.19750599563121796 -0.16348999738693237 -0.9665719866752625
vn -0.33170101046562195 0.8188689947128296 -0.4684320092201233
vn 0.6577119827270508 0.20872999727725983 -0.7237730026245117
vn -0.9833009839057922 -0.08643700182437897 -0.1601489931344986
vn 0.22618399560451508 -0.3317210078239441 -0.9158610105514526
vn 0.19478100538253784 -0.8870660066604614 0.41853800415992737
vn 0.5180190205574036 -0.8469579815864563 0.11965599656105042
vn 0.16739900410175323 0.03886650130152702 -0.9851229786872864
vn -0.08108679950237274 -0.991129994392395 0.10529500246047974
vn -0.3182480037212372 -0.06352119892835617 -0.9458770155906677
vn -0.19750599563121796 -0.16348999738693237 -0.9665719866752625
vn 0.9499019980430603 0.22928600013256073 0.21240299940109253
vn 0.9447439908981323 -0.32539498805999756 -0.03970370069146156
vn 0.6577119827270508 0.20872999727725983 -0.7237730026245117
vn 0.17621199786663055 -0.8742589950561523 -0.45235100388526917
vn -0.19750599563121796 -0.16348999738693237 -0.9665719866752625
vn 0.7041800022125244 -0.5594130158424377 0.43724900484085083
vn 0.6201099753379822 0.1257530003786087 0.7743710279464722
vn 0.1354209929704666 -0.8907949924468994 0.4337570071220398
vn 0.1354209929704666 -0.8907949924468994 0.4337570071220398
vn 0.0343129001557827 -0.3726150095462799 0.9273509979248047
vn 0.15769700706005096 0.11145699769258499 0.9811769723892212
vn -0.08108679950237274 -0.991129994392395 0.10529500246047974
vn -0.36224499344825745 0.3680410087108612 0.8563429713249207
vn 0.5180190205574036 -0.8469579815864563 0.11965599656105042
vn 0.19478100538253784 -0.8870660066604614 0.41853800415992737
vn -0.41381099820137024 0.23322099447250366 0.8799819946289062
vn 0.22618399560451508 -0.3317210078239441 -0.9158610105514526
vn -0.20760099589824677 0.963916003704071 -0.16663700342178345
vn 0.16739900410175323 0.03886650130152702 -0.9851229786872864
vn -0.41381099820137024 0.23322099447250366 0.8799819946289062
vn -0.3182480037212372 -0.06352119892835617 -0.9458770155906677
vn -0.33170101046562195 0.8188689947128296 -0.4684320092201233
vn -0.5170660018920898 0.7913280129432678 -0.3262540102005005
vn -0.21557800471782684 0.9755340218544006 -0.0431319996714592
vn 0.15769700706005096 0.11145699769258499 0.9811769723892212
vn -0.3254050016403198 0.6667490005493164 0.670490026473999
vn -0.36224499344825745 0.3680410087108612 0.8563429713249207
vn 0.0343129001557827 -0.3726150095462799 0.9273509979248047
vn 0.6201099753379822 0.1257530003786087 0.7743710279464722
vn 0.46445098519325256 0.7761769890785217 0.4264200031757355
vn 0.6201099753379822 0.1257530003786087 0.7743710279464722
vn 0.6679419875144958 0.7340729832649231 -0.12243799865245819
vt 0.4761900007724762 0.6850390136241913
vt 0.9841269850730896 0.6850390136241913
vt 0.4761900007724762 0.818898007273674
vt 0.4761900007724762 0.055118024349212646
vt 0.2222220003604889 0.14173197746276855
vt 0.7619050145149231 0.14173197746276855
vt 0.7619050145149231 0.26771700382232666
vt 0.2222220003604889 0.26771700382232666
vt 0.7619050145149231 0.4094489812850952
vt 0.2222220003604889 0.4094489812850952
vt 0.015873000025749207 0.5511809885501862
vt 0.4761900007724762 1
vt 0.4761900007724762 0.818898007273674
vt 0.015873000025749207 0.8818899989128113
vt 0.4761900007724762 0.6850390136241913
vt 0.015873000025749207 0.6850390136241913
vt 0.9841269850730896 0.8818899989128113
vt 0.4761900007724762 0.818898007273674
vt 0.9841269850730896 0.5511809885501862
vt 0.9841269850730896 0.6850390136241913
vt 0.4761900007724762 0.6850390136241913
vt 0.20634900033473969 0.26771700382232666
vt 0.7936509847640991 0.4094489812850952
vt 0.20634900033473969 0.4094489812850952
vt 0.7936509847640991 0.26771700382232666
vt 0.7936509847640991 0.14173197746276855
vt 0.20634900033473969 0.14173197746276855
vt 0.20634900033473969 0.14173197746276855
vt 0.7619050145149231 0.14173197746276855
vt 0.20634900033473969 0.26771700382232666
vt 0.2222220003604889 0.14173197746276855
vt 0.20634900033473969 0.4094489812850952
vt 0.9841269850730896 0.5511809885501862
vt 0.7619050145149231 0.4094489812850952
vt 0.7619050145149231 0.26771700382232666
vt 0.2222220003604889 0.26771700382232666
vt 0.4761900007724762 0.6850390136241913
vt 0.2222220003604889 0.4094489812850952
vt 0.015873000025749207 0.5511809885501862
vt 0.015873000025749207 0.6850390136241913
vt 0.4761900007724762 0.818898007273674
vt 0.015873000025749207 0.8818899989128113
vt 0.9841269850730896 0.8818899989128113
g Geoset0
s 1
usemtl mat_haunchskin
f 1/1/1 2/2/2 3/3/3
f 4/4/4 5/5/5 6/6/6
f 6/6/6 5/5/5 7/7/7
f 7/7/7 5/5/5 8/8/8
f 7/7/7 8/8/8 9/9/9
f 9/9/9 8/8/8 10/10/10
f 9/9/9 10/10/10 11/11/11
f 12/12/12 13/13/13 14/14/14
f 15/15/15 16/16/16 14/14/14
f 15/15/15 14/14/14 13/13/13
f 17/17/17 15/15/15 13/13/13
f 12/12/12 17/17/17 13/13/13
f 12/12/12 18/18/18 17/17/17
f 19/19/19 9/9/9 15/15/15
f 9/9/9 11/11/11 15/15/15
f 20/20/20 15/15/15 17/17/17
f 17/17/17 21/21/21 20/20/20
f 21/21/21 17/17/17 18/18/18
f 22/22/22 23/23/23 24/24/24
f 24/24/24 23/23/23 21/21/21
f 21/21/21 23/23/23 19/19/19
f 22/22/22 25/25/25 23/23/23
f 22/22/22 26/26/26 25/25/25
f 27/27/27 26/26/26 22/22/22
f 4/4/4 26/26/26 27/27/27
f 28/28/28 29/29/29 30/30/30
f 4/4/4 29/29/29 28/28/28
f 4/4/4 31/31/31 29/29/29
f 1/1/1 32/32/32 33/33/33
f 32/32/32 34/34/34 33/33/33
f 30/30/30 34/34/34 32/32/32
f 30/30/30 35/35/35 34/34/34
f 30/30/30 29/29/29 35/35/35
f 29/29/29 36/36/36 35/35/35
f 29/29/29 31/31/31 36/36/36
f 33/33/33 34/34/34 37/37/37
f 34/34/34 38/38/38 37/37/37
f 35/35/35 38/38/38 34/34/34
f 35/35/35 36/36/36 38/38/38
f 37/37/37 39/39/39 40/40/40
f 37/37/37 38/38/38 39/39/39
f 12/12/12 41/41/41 42/42/42
f 12/12/12 43/43/43 41/41/41
f 37/37/37 42/42/42 41/41/41
f 2/2/2 37/37/37 41/41/41
f 2/2/2 41/41/41 43/43/43
f 3/3/3 2/2/2 43/43/43
f 12/12/12 3/3/3 43/43/43