# Exported using wow.export v0.1.49
o 
mtllib coffin.mtl
v -1.3358333110809326 0.625 -0.30533331632614136
v -1.3358333110809326 0 0.28866663575172424
v -1.3358333110809326 0 -0.30533331632614136
v -1.375 0 -0.3375000059604645
v -1.375 0.625 0.3375000059604645
v -1.375 0.625 -0.3375000059604645
v -1.375 0 0.3375000059604645
v 1.3958333730697632 0.625 -0.3375000059604645
v 1.3958333730697632 0 0.3375000059604645
v 1.3958333730697632 0 -0.3375000059604645
v 1.3958333730697632 0.625 0.3375000059604645
v 1.3518749475479126 0 -0.30533331632614136
v 1.3518750667572021 0.6250000596046448 0.28866663575172424
v 1.3518749475479126 0.625 -0.30533331632614136
v 1.3518749475479126 0 0.28866663575172424
v 1.3958333730697632 0 -0.3375000059604645
v -0.625 0.625 -0.5416666865348816
v 1.3958333730697632 0.625 -0.3375000059604645
v -1.375 0 -0.3375000059604645
v -1.375 0.625 -0.3375000059604645
v -0.625 0 -0.5416666865348816
v -0.625 0.625 0.44630396366119385
v -0.6083333492279053 0 0.45000001788139343
v -1.3358333110809326 0 0.28866663575172424
v -1.3358333110809326 0.625 0.28866663575172424
v 1.3518749475479126 0 0.28866663575172424
v 1.3518750667572021 0.6250000596046448 0.28866663575172424
v -1.375 0 -0.3375000059604645
v -0.6250000596046448 0 0.5208333134651184
v -1.375 0 0.3375000059604645
v 1.3958333730697632 0 -0.3375000059604645
v 1.3958333730697632 0 0.3375000059604645
v -0.625 0 -0.5416666865348816
v 1.3958333730697632 0.02777777798473835 -0.3375000059604645
v -0.625 0.02777777798473835 0.5208333134651184
v 1.3958333730697632 0.02777777798473835 0.3375000059604645
v -1.375 0.02777777798473835 -0.3375000059604645
v -1.375 0.02777777798473835 0.3375000059604645
v -0.625 0.02777777798473835 -0.5416666865348816
v -1.375 0 0.3375000059604645
v -0.6250000596046448 0.6250000596046448 0.5208333134651184
v -1.375 0.625 0.3375000059604645
v -0.6250000596046448 0 0.5208333134651184
v 1.3958333730697632 0.625 0.3375000059604645
v 1.3958333730697632 0 0.3375000059604645
v 1.3518749475479126 0.625 -0.30533331632614136
v -0.625 0 -0.480883926153183
v 1.3518749475479126 0 -0.30533331632614136
v -0.625 0.625 -0.480883926153183
v -1.3358333110809326 0 -0.30533331632614136
v -1.3358333110809326 0.625 -0.30533331632614136
v -1.3358333110809326 0.625 0.28866663575172424
v -0.6250000596046448 0.6250000596046448 0.5208333134651184
v -0.625 0.625 0.44630396366119385
v 1.3518750667572021 0.6250000596046448 0.28866663575172424
v 1.3958333730697632 0.625 0.3375000059604645
v 1.3958333730697632 0.625 -0.3375000059604645
v 1.3518749475479126 0.625 -0.30533331632614136
v -0.625 0.625 -0.5416666865348816
v -0.625 0.625 -0.480883926153183
v -1.3358333110809326 0.625 -0.30533331632614136
v -1.375 0.625 -0.3375000059604645
v -1.375 0.625 0.3375000059604645
v -1.3358333110809326 0.625 0.28866663575172424
vn 0.5790949463844299 0.7756562829017639 0.25101062655448914
vn 0.7799051403999329 -1.6780032918717325e-10 -0.6258977055549622
vn 0.6060844659805298 0 0.7954003214836121
vn -0.6724933385848999 -0.5325988531112671 -0.5138979554176331
vn -0.709326982498169 0.6340486407279968 0.30795711278915405
vn -0.37192991375923157 0.8836791515350342 -0.284216970205307
vn -0.5594713687896729 -0.379326730966568 0.7369552254676819
vn 0.5534955263137817 0.7905124425888062 -0.2621695101261139
vn 0.8287865519523621 -0.39648208022117615 0.39486047625541687
vn 0.39169228076934814 -0.6522560119628906 -0.6489524245262146
vn 0.38589537143707275 0.6536714434623718 0.6509979963302612
vn -0.902595579624176 0 0.43048954010009766
vn -0.45038479566574097 0.866337776184082 -0.21589910984039307
vn -0.3106410503387451 0.7918402552604675 0.5258243083953857
vn -0.5034398436546326 -0.003502544481307268 -0.8640232086181641
vn 0.39169228076934814 -0.6522560119628906 -0.6489524245262146
vn -0.05780860036611557 0.7130500674247742 -0.6987258195877075
vn 0.5534955263137817 0.7905124425888062 -0.2621695101261139
vn -0.6724933385848999 -0.5325988531112671 -0.5138979554176331
vn -0.37192991375923157 0.8836791515350342 -0.284216970205307
vn -0.05780860409140587 -0.7130500674247742 -0.6987258195877075
vn 0.06130538135766983 0.44978705048561096 -0.8910292983055115
vn 0.0680059865117073 -0.0040864790789783 -0.9976765513420105
vn 0.7799051403999329 -1.6780032918717325e-10 -0.6258977055549622
vn 0.28334498405456543 0.9316695332527161 -0.22739297151565552
vn -0.5034398436546326 -0.003502544481307268 -0.8640232086181641
vn -0.45038479566574097 0.866337776184082 -0.21589910984039307
vn -0.6724933385848999 -0.5325988531112671 -0.5138979554176331
vn -0.011399758979678154 -0.8034803867340088 0.5952221155166626
vn -0.5594713687896729 -0.379326730966568 0.7369552254676819
vn 0.39169228076934814 -0.6522560119628906 -0.6489524245262146
vn 0.8287865519523621 -0.39648208022117615 0.39486047625541687
vn -0.05780860409140587 -0.7130500674247742 -0.6987258195877075
vn 0 1 0
vn 0 1 0
vn 0 1 0
vn 0 1 0
vn 0 1 0
vn 0 1 0
vn -0.5594713687896729 -0.379326730966568 0.7369552254676819
vn -0.07724571973085403 0.8034803867340088 0.5902985334396362
vn -0.709326982498169 0.6340486407279968 0.30795711278915405
vn -0.011399758979678154 -0.8034803867340088 0.5952221155166626
vn 0.38589537143707275 0.6536714434623718 0.6509979963302612
vn 0.8287865519523621 -0.39648208022117615 0.39486047625541687
vn -0.3106410503387451 0.7918402552604675 0.5258243083953857
vn 0.021207913756370544 0 0.9997751116752625
vn -0.902595579624176 0 0.43048954010009766
vn 0.10937832295894623 0.5593825578689575 0.8216614127159119
vn 0.6060844659805298 0 0.7954003214836121
vn 0.5790949463844299 0.7756562829017639 0.25101062655448914
vn 0.28334498405456543 0.9316695332527161 -0.22739297151565552
vn -0.07724571973085403 0.8034803867340088 0.5902985334396362
vn 0.06130538135766983 0.44978705048561096 -0.8910292983055115
vn -0.45038479566574097 0.866337776184082 -0.21589910984039307
vn 0.38589537143707275 0.6536714434623718 0.6509979963302612
vn 0.5534955263137817 0.7905124425888062 -0.2621695101261139
vn -0.3106410503387451 0.7918402552604675 0.5258243083953857
vn -0.05780860036611557 0.7130500674247742 -0.6987258195877075
vn 0.10937832295894623 0.5593825578689575 0.8216614127159119
vn 0.5790949463844299 0.7756562829017639 0.25101062655448914
vn -0.37192991375923157 0.8836791515350342 -0.284216970205307
vn -0.709326982498169 0.6340486407279968 0.30795711278915405
vn 0.28334498405456543 0.9316695332527161 -0.22739297151565552
vt 0.6091600060462952 0.3340400457382202
vt 0.5016122460365295 0.020676374435424805
vt 0.5016122460365295 0.3340400457382202
vt 0.5016122460365295 0.33575308322906494
vt 0.6091600060462952 0.020866811275482178
vt 0.6091600060462952 0.33575302362442017
vt 0.5016122460365295 0.020866811275482178
vt 0.6091602444648743 0.335752010345459
vt 0.5016124248504639 0.020865797996520996
vt 0.5016124248504639 0.335752010345459
vt 0.6091602444648743 0.020865797996520996
vt 0.5016124248504639 0.3340390920639038
vt 0.6091602444648743 0.0206754207611084
vt 0.6091602444648743 0.3340390920639038
vt 0.5016124248504639 0.0206754207611084
vt 0.5040627121925354 0.003222346305847168
vt 0.6121208071708679 0.3719632625579834
vt 0.6121208071708679 0.003222346305847168
vt 0.5040627121925354 0.4965744614601135
vt 0.6121208071708679 0.4965744614601135
vt 0.5040627121925354 0.3719632625579834
vt 0.6121209263801575 0.3719633221626282
vt 0.5040627717971802 0.37176287174224854
vt 0.5040627717971802 0.4967457056045532
vt 0.6121208667755127 0.4967457056045532
vt 0.5040627717971802 0.0038472414016723633
vt 0.6121208667755127 0.0038472414016723633
vt 0.6086106300354004 0.493053674697876
vt 0.5049911141395569 0.3827100992202759
vt 0.5045942664146423 0.4930537939071655
vt 0.6086102724075317 0.013498902320861816
vt 0.5045939087867737 0.013499021530151367
vt 0.6086040139198303 0.38270998001098633
vt 0.6073005795478821 0.005004405975341797
vt 0.5039535164833069 0.37768685817718506
vt 0.5039684176445007 0.005004465579986572
vt 0.6073009371757507 0.4950242042541504
vt 0.5039687752723694 0.49502432346343994
vt 0.6073916554450989 0.3776867985725403
vt 0.5040627717971802 0.4965745210647583
vt 0.6121209263801575 0.3719633221626282
vt 0.6121209263801575 0.4965745210647583
vt 0.5040627717971802 0.3719633221626282
vt 0.6121209263801575 0.003222346305847168
vt 0.5040627717971802 0.003222346305847168
vt 0.6121208071708679 0.0038472414016723633
vt 0.5040627121925354 0.3719632625579834
vt 0.5040627121925354 0.0038472414016723633
vt 0.6121208071708679 0.3719632625579834
vt 0.5040627121925354 0.4967457056045532
vt 0.6121208071708679 0.4967457056045532
vt 0.613517165184021 0.4816664457321167
vt 0.6053805947303772 0.3558337688446045
vt 0.6132051944732666 0.3558337688446045
vt 0.6135169267654419 0.0155256986618042
vt 0.6056944131851196 0.009865403175354004
vt 0.6058359742164612 0.009865403175354004
vt 0.6132378578186035 0.0155256986618042
vt 0.6054273843765259 0.3558337092399597
vt 0.6138118505477905 0.3558337092399597
vt 0.6132376194000244 0.4816664457321167
vt 0.6058357357978821 0.48670971393585205
vt 0.605694591999054 0.4867098331451416
vt 0.6091600060462952 0.020676374435424805
g Geoset0
s 1
usemtl mat_cemetery01
f 1/1/1 2/2/2 3/3/3
f 4/4/4 5/5/5 6/6/6
f 5/5/5 4/4/4 7/7/7
f 8/8/8 9/9/9 10/10/10
f 9/9/9 8/8/8 11/11/11
f 12/12/12 13/13/13 14/14/14
f 13/13/13 12/12/12 15/15/15
f 16/16/16 17/17/17 18/18/18
f 17/17/17 19/19/19 20/20/20
f 19/19/19 17/17/17 21/21/21
f 17/17/17 16/16/16 21/21/21
f 22/22/22 23/23/23 24/24/24
f 22/22/22 24/24/24 25/25/25
f 26/26/26 22/22/22 27/27/27
f 22/22/22 26/26/26 23/23/23
f 28/28/28 29/29/29 30/30/30
f 29/29/29 31/31/31 32/32/32
f 31/31/31 29/29/29 33/33/33
f 29/29/29 28/28/28 33/33/33
f 34/34/34 35/35/35 36/36/36
f 35/35/35 37/37/37 38/38/38
f 37/37/37 35/35/35 39/39/39
f 35/35/35 34/34/34 39/39/39
f 40/40/40 41/41/41 42/42/42
f 41/41/41 40/40/40 43/43/43
f 43/43/43 44/44/44 41/41/41
f 44/44/44 43/43/43 45/45/45
f 46/46/46 47/47/47 48/48/48
f 47/47/47 46/46/46 49/49/49
f 49/49/49 50/50/50 47/47/47
f 50/50/50 49/49/49 51/51/51
f 52/52/52 53/53/53 54/54/54
f 53/53/53 55/55/55 54/54/54
f 56/56/56 55/55/55 53/53/53
f 57/57/57 55/55/55 56/56/56
f 57/57/57 58/58/58 55/55/55
f 57/57/57 59/59/59 58/58/58
f 58/58/58 59/59/59 60/60/60
f 59/59/59 61/61/61 60/60/60
f 62/62/62 61/61/61 59/59/59
f 62/62/62 52/52/52 61/61/61
f 52/52/52 62/62/62 63/63/63
f 52/52/52 63/63/63 53/53/53
f 2/2/2 1/1/1 64/64/64