# Exported using wow.export v0.1.49
o 
mtllib duskwoodbush07.mtl
v -0.007226939778774977 -0.27239298820495605 -0.7390580177307129
v -0.8491920232772827 -0.27239298820495605 -0.47169700264930725
v -0.10480300337076187 2.3693599700927734 0.21201899647712708
v 0.8347390294075012 -0.27239298820495605 0.5005170106887817
v -0.10480300337076187 2.3693599700927734 0.21201899647712708
v 1.999459981918335 2.0989298820495605 1.1526299715042114
v 1.999459981918335 -0.27239298820495605 1.1526299715042114
v 0.8347390294075012 -0.27239298820495605 -0.47169700264930725
v -0.007226939778774977 -0.27239298820495605 -0.7390580177307129
v -0.013346400111913681 -0.27239298820495605 -1.9664900302886963
v -0.013345800340175629 2.987489938735962 -1.9664900302886963
v -0.007226389832794666 -0.27239298820495605 0.986627995967865
v -0.012967499904334545 2.0989298820495605 1.9953099489212036
v -0.012967499904334545 -0.01693890057504177 1.9953099489212036
v -0.9640359878540039 -0.27239298820495605 0.5811219811439514
v -1.4315500259399414 2.2553799152374268 0.8384249806404114
v -1.4315500259399414 -0.27239298820495605 0.8384249806404114
v -2.0139100551605225 2.5238900184631348 -1.1408100128173828
v -2.0139100551605225 -0.27239298820495605 -1.1408100128173828
v -0.8491920232772827 -0.27239298820495605 -0.47169700264930725
v 1.999459981918335 -0.27239298820495605 -1.1502200365066528
v 1.999459981918335 2.5238900184631348 -1.1502200365066528
vn 0.4582509994506836 0.3160099983215332 -0.830748975276947
vn -0.9352380037307739 0.22721900045871735 0.2714790105819702
vn 0.8320220112800598 0.33928701281547546 0.4388900101184845
vn 0.8970749974250793 0.2489130049943924 -0.36510100960731506
vn 0.8320220112800598 0.33928701281547546 0.4388900101184845
vn 0.4511469900608063 0.023748299106955528 -0.8921340107917786
vn 0.4885309934616089 0 -0.8725469708442688
vn 0.9404420256614685 0.3394159972667694 -0.019113700836896896
vn 0.4582509994506836 0.3160099983215332 -0.830748975276947
vn 0.999642014503479 0.01935959979891777 0.01848980039358139
vn 0.9991199970245361 -9.945999579485942e-9 0.04194429889321327
vn 0.7654809951782227 0.19410599768161774 0.6134830117225647
vn 0.9997109770774841 0.011414799839258194 -0.021145500242710114
vn 0.9999840259552002 8.49006021041987e-9 0.005691410042345524
vn -0.1574539989233017 0.1993110030889511 0.9672039747238159
vn 0.45520898699760437 -0.006439030170440674 0.8903610110282898
vn 0.4821639955043793 0 0.8760809898376465
vn -0.5398960113525391 -0.023545200005173683 0.8414030075073242
vn -0.49813100695610046 0 0.8671020269393921
vn -0.9352380037307739 0.22721900045871735 0.2714790105819702
vn 0.5234280228614807 -0.022293800488114357 0.851777970790863
vn 0.5434349775314331 0 0.839451014995575
vt 0.5050910115242004 0.03732502460479736
vt 9.80908925027372e-45 0
vt 0.000499575980938971 0.9995005130185746
vt 0.5039370059967041 0.007874011993408203
vt 0.007874020375311375 0.992125989869237
vt 0.9921259880065918 0.992125989869237
vt 0.9921259880065918 0.007874011993408203
vt 0.007874020375311375 0.007874011993408203
vt 0.3070870041847229 0.007874011993408203
vt 0.9921259880065918 0.007874011993408203
vt 0.9921259880065918 0.992125989869237
vt 0.007874020375311375 0.007874011993408203
vt 0.9921259880065918 0.992125989869237
vt 0.9921259880065918 0.007874011993408203
vt 0.5275589823722839 0.007874011993408203
vt 0.9921259880065918 0.992125989869237
vt 0.9921259880065918 0.007874011993408203
vt 0.9921259880065918 0.992125989869237
vt 0.9921259880065918 0.007874011993408203
vt 0.007874020375311375 0.007874011993408203
vt 0.9921259880065918 0.007874011993408203
vt 0.9921259880065918 0.992125989869237
g Geoset0
s 1
usemtl mat_duskwoodbush07
f 1/1/1 2/2/2 3/3/3
f 4/4/4 5/5/5 6/6/6
f 6/6/6 7/7/7 4/4/4
f 8/8/8 9/9/9 5/5/5
f 5/5/5 9/9/9 10/10/10
f 10/10/10 11/11/11 5/5/5
f 12/12/12 5/5/5 13/13/13
f 13/13/13 14/14/14 12/12/12
f 15/15/15 5/5/5 16/16/16
f 16/16/16 17/17/17 15/15/15
f 18/18/18 19/19/19 20/20/20
f 20/20/20 5/5/5 18/18/18
f 20/20/20 15/15/15 5/5/5
f 15/15/15 12/12/12 5/5/5
f 12/12/12 4/4/4 5/5/5
f 21/21/21 22/22/22 5/5/5
f 5/5/5 8/8/8 21/21/21
f 4/4/4 8/8/8 5/5/5