# Exported using wow.export v0.1.49
o 
mtllib duskwoodbush01.mtl
v -0.04149441793560982 1.0594404935836792 -4.170611381530762
v -0.03620035573840141 -0.7316415309906006 -4.423579692840576
v -0.0432668961584568 0.08670137822628021 -6.247768878936768
v -0.3442956507205963 2.2528064250946045 2.5268194675445557
v -0.3345472514629364 -0.9246511459350586 2.501429796218872
v -2.543825626373291 0.02345973439514637 5.061834812164307
v 2.445103168487549 0.7096390128135681 4.088388442993164
v 1.1469817161560059 -0.770638108253479 2.581714391708374
v 0.6257445216178894 1.3297654390335083 1.992106318473816
v 0.0939418226480484 -0.10978624224662781 -1.5348749160766602
v 0.9002333879470825 0.9877449870109558 -2.831012725830078
v 0.7463552355766296 2.4441206455230713 -2.499933958053589
v 1.5550647974014282 1.9231232404708862 -4.251172065734863
v 0.4629848301410675 -0.10978623479604721 -4.748841285705566
v 0.8881470561027527 1.0345433950424194 -4.513937473297119
v 0.5919452905654907 2.136289119720459 -4.617176055908203
v 0.0939418226480484 -0.10978624224662781 -1.5348749160766602
v 0.9002333879470825 0.9877449870109558 -2.831012725830078
v 2.1233890056610107 0.7587554454803467 -3.868361234664917
v 2.5030338764190674 -0.10978618264198303 -3.6843197345733643
v 2.529587984085083 1.4947948455810547 -3.681691884994507
v 2.6112537384033203 -0.1097862496972084 -6.516176700592041
v 2.251932382583618 0.7203109264373779 -5.729741096496582
v 2.342226028442383 2.2476966381073 -5.923627853393555
v 2.5030338764190674 -0.10978618264198303 -3.6843197345733643
v 0.8881470561027527 1.0345433950424194 -4.513937473297119
v 0.4629848301410675 -0.10978623479604721 -4.748841285705566
v 2.1233890056610107 0.7587554454803467 -3.868361234664917
v -0.11687648296356201 -0.25494953989982605 4.751633167266846
v -0.09656574577093124 2.308509111404419 2.290289878845215
v -0.09517532587051392 4.393366813659668 5.652952194213867
v -0.11687583476305008 4.718106746673584 -0.7943033576011658
v 3.2105939388275146 -0.2549496591091156 0.2883177101612091
v -0.09656558185815811 2.2534902095794678 -3.3832356929779053
v 1.933004379272461 2.253490447998047 -0.5801800489425659
v -0.09688699245452881 5.361421585083008 -5.116553783416748
v -0.11687598377466202 -0.25494980812072754 -5.117327690124512
v -2.2837250232696533 2.2534902095794678 -0.7066468000411987
v -3.390512466430664 -0.2549497187137604 0.08249198645353317
v -3.390512466430664 -0.2549497187137604 0.08249198645353317
v -2.2837250232696533 2.2534902095794678 -0.7066468000411987
v -2.8680286407470703 5.425871849060059 -0.6432400345802307
v -0.11687648296356201 -0.25494953989982605 4.751633167266846
v 1.933004379272461 2.253490447998047 -0.5801800489425659
v 3.2868447303771973 4.692396640777588 -0.5851686596870422
v -0.09656574577093124 2.308509111404419 2.290289878845215
v 3.2105939388275146 -0.2549496591091156 0.2883177101612091
v 1.6076726913452148 -0.12643766403198242 9.303540229797363
v 1.0646215677261353 1.5590428113937378 6.972102165222168
v 1.4216874837875366 3.8905999660491943 8.798660278320312
v 0.499096542596817 2.770447254180908 4.196315765380859
v -0.4988308548927307 -0.1264375001192093 0.4719981253147125
v -0.14359399676322937 1.631243348121643 1.757785439491272
v -0.22915597259998322 3.213871955871582 1.4390963315963745
v 2.1816000938415527 -0.12643764913082123 3.9261581897735596
v 1.5504034757614136 1.205757737159729 4.08513879776001
v -0.549685001373291 1.631243348121643 4.547142505645752
v -1.2851165533065796 -0.12643764913082123 4.691150665283203
v 2.1816000938415527 -0.12643764913082123 3.9261581897735596
v 1.5504034757614136 1.205757737159729 4.08513879776001
v 3.178518056869507 3.1305148601531982 3.902930498123169
v 1.6076726913452148 -0.12643766403198242 9.303540229797363
v -0.549685001373291 1.631243348121643 4.547142505645752
v -1.0021330118179321 3.3148818016052246 4.718871116638184
v 1.0646215677261353 1.5590428113937378 6.972102165222168
v -1.2851165533065796 -0.12643764913082123 4.691150665283203
vn 0.9999917149543762 0.0032941929530352354 -0.0023961360566318035
vn 0.9999917149543762 0.0032941929530352354 -0.0023961360566318035
vn 0.9999917149543762 0.0032941929530352354 -0.0023961360566318035
vn -0.7565774321556091 0.0029038137290626764 -0.6538976430892944
vn -0.7565774321556091 0.0029038137290626764 -0.6538976430892944
vn -0.7565774321556091 0.0029038137290626764 -0.6538976430892944
vn 0.7557700276374817 0.0037347630131989717 -0.6548264622688293
vn 0.7557700276374817 0.0037347630131989717 -0.6548264622688293
vn 0.7557700276374817 0.0037347630131989717 -0.6548264622688293
vn 0.15725034475326538 0.6779192686080933 0.7181209921836853
vn 0.42531171441078186 0.600448727607727 0.6771789193153381
vn 0.8845124840736389 -0.012558975256979465 0.46634745597839355
vn 0.1720825433731079 0.9846133589744568 0.030399341136217117
vn -0.9392755627632141 0.340901643037796 0.03933749347925186
vn -0.8588177561759949 0.508907675743103 -0.058694154024124146
vn -0.3901280164718628 -0.01862330175936222 0.9205722808837891
vn 0.15725034475326538 0.6779192686080933 0.7181209921836853
vn 0.42531171441078186 0.600448727607727 0.6771789193153381
vn 0.9107186794281006 0.4084276556968689 0.061467915773391724
vn 0.9238986968994141 0.3801966905593872 -0.04314678534865379
vn 0.457341730594635 -0.026961881667375565 -0.8888822197914124
vn -0.4548785388469696 0.48623237013816833 -0.7460989356040955
vn -0.031350038945674896 0.7292160391807556 -0.6835650205612183
vn -0.9069875478744507 0.00015619433543179184 -0.42115744948387146
vn 0.9238986968994141 0.3801966905593872 -0.04314678534865379
vn -0.8588177561759949 0.508907675743103 -0.058694154024124146
vn -0.9392755627632141 0.340901643037796 0.03933749347925186
vn 0.9107186794281006 0.4084276556968689 0.061467915773391724
vn 0.32756027579307556 0.6576864123344421 0.6783456802368164
vn 0.5730156302452087 0.6096224784851074 0.5477349162101746
vn 0.9999998807907104 -0.0004056680481880903 -0.00016195884381886572
vn 0.0727277398109436 0.9961700439453125 -0.048537254333496094
vn 0.8287320137023926 0.28696903586387634 -0.4804706573486328
vn -0.30458590388298035 0.5753522515296936 -0.7590765357017517
vn 0.8310868740081787 0.45005467534065247 -0.32671913504600525
vn -0.9999996423721313 0.0003163343935739249 0.0007526284316554666
vn -0.6843370795249939 0.37314581871032715 -0.6264542937278748
vn -0.7529516816139221 0.5586920380592346 0.3477456271648407
vn -0.6867910027503967 0.47587352991104126 0.5494201183319092
vn -0.6867910027503967 0.47587352991104126 0.5494201183319092
vn -0.7529516816139221 0.5586920380592346 0.3477456271648407
vn 0.2680119276046753 0.03011716529726982 0.962944746017456
vn 0.32756027579307556 0.6576864123344421 0.6783456802368164
vn 0.8310868740081787 0.45005467534065247 -0.32671913504600525
vn 0.1839538812637329 -0.10411228984594345 -0.9774055480957031
vn 0.5730156302452087 0.6096224784851074 0.5477349162101746
vn 0.8287320137023926 0.28696903586387634 -0.4804706573486328
vn 0.5420078635215759 0.727505087852478 0.42067065834999084
vn 0.7231076955795288 0.6582819223403931 0.20923703908920288
vn 0.9784913659095764 0.011504839174449444 -0.2059667855501175
vn 0.1820405125617981 0.983115017414093 -0.018602745607495308
vn -0.8769173622131348 0.3986990749835968 -0.2684306204319
vn -0.4802166521549225 0.7622851729393005 -0.433950811624527
vn -0.9656035304069519 0.00015554668789263815 0.26001885533332825
vn 0.7061864137649536 0.3599500060081482 -0.6097021698951721
vn 0.7365978360176086 0.453631192445755 -0.5016396641731262
vn -0.7170498371124268 0.4821588695049286 0.5033511519432068
vn -0.7001376152038574 0.34419775009155273 0.6255679130554199
vn 0.7061864137649536 0.3599500060081482 -0.6097021698951721
vn 0.7365978360176086 0.453631192445755 -0.5016396641731262
vn -0.13431398570537567 0.019824163988232613 -0.9907405376434326
vn 0.5420078635215759 0.727505087852478 0.42067065834999084
vn -0.7170498371124268 0.4821588695049286 0.5033511519432068
vn 0.2923556864261627 -0.018957458436489105 0.9561217427253723
vn 0.7231076955795288 0.6582819223403931 0.20923703908920288
vn -0.7001376152038574 0.34419775009155273 0.6255679130554199
vt 0.12548956274986267 0.7354739904403687
vt 0.12548956274986267 0.5040189027786255
vt 0.36429551243782043 0.5040189623832703
vt 0.12548956274986267 0.7354739904403687
vt 0.12548956274986267 0.5040189027786255
vt 0.36429551243782043 0.5040189623832703
vt 0.36429551243782043 0.5040189623832703
vt 0.12548956274986267 0.5040189027786255
vt 0.12548956274986267 0.7354739904403687
vt 0.3701510429382324 0.9959225654602051
vt 0.24713467061519623 0.899114727973938
vt 0.12673185765743256 0.9958259463310242
vt 0.12673185765743256 0.7496305108070374
vt 0.3701510429382324 0.9959225654602051
vt 0.24713467061519623 0.899114727973938
vt 0.12673185765743256 0.9958259463310242
vt 0.3701511025428772 0.5078867077827454
vt 0.2471347153186798 0.632558286190033
vt 0.24713467061519623 0.899114727973938
vt 0.3701510429382324 0.9959225654602051
vt 0.12673185765743256 0.9958259463310242
vt 0.3701510429382324 0.9959225654602051
vt 0.24713467061519623 0.899114727973938
vt 0.12673185765743256 0.9958259463310242
vt 0.3701511025428772 0.5078867077827454
vt 0.24713467061519623 0.632558286190033
vt 0.3701511025428772 0.5078867077827454
vt 0.24713467061519623 0.632558286190033
vt 0.3701510429382324 0.9959225654602051
vt 0.24713467061519623 0.899114727973938
vt 0.12673185765743256 0.9958259463310242
vt 0.12673185765743256 0.7496305108070374
vt 0.3701511025428772 0.5078867077827454
vt 0.24713467061519623 0.899114727973938
vt 0.24713467061519623 0.632558286190033
vt 0.12673185765743256 0.9958259463310242
vt 0.3701510429382324 0.9959225654602051
vt 0.24713467061519623 0.632558286190033
vt 0.3701511025428772 0.5078867077827454
vt 0.3701510429382324 0.9959225654602051
vt 0.24713467061519623 0.899114727973938
vt 0.12673185765743256 0.9958259463310242
vt 0.3701511025428772 0.5078867077827454
vt 0.24713467061519623 0.899114727973938
vt 0.12673185765743256 0.9958259463310242
vt 0.2471347153186798 0.632558286190033
vt 0.3701510429382324 0.9959225654602051
vt 0.3701510429382324 0.9959225654602051
vt 0.24713467061519623 0.899114727973938
vt 0.12673185765743256 0.9958259463310242
vt 0.12673185765743256 0.7496305108070374
vt 0.3701510429382324 0.9959225654602051
vt 0.24713467061519623 0.899114727973938
vt 0.12673185765743256 0.9958259463310242
vt 0.3701511025428772 0.5078867077827454
vt 0.24713467061519623 0.632558286190033
vt 0.24713467061519623 0.632558286190033
vt 0.3701511025428772 0.5078867077827454
vt 0.3701510429382324 0.9959225654602051
vt 0.24713467061519623 0.899114727973938
vt 0.12673185765743256 0.9958259463310242
vt 0.3701511025428772 0.5078867077827454
vt 0.24713467061519623 0.899114727973938
vt 0.12673185765743256 0.9958259463310242
vt 0.2471347153186798 0.632558286190033
vt 0.3701510429382324 0.9959225654602051
g Geoset0
s 1
usemtl mat_cemetery01
f 1/1/1 2/2/2 3/3/3
f 4/4/4 5/5/5 6/6/6
f 7/7/7 8/8/8 9/9/9
f 10/10/10 11/11/11 12/12/12
f 11/11/11 13/13/13 12/12/12
f 14/14/14 15/15/15 16/16/16
f 14/14/14 17/17/17 15/15/15
f 15/15/15 13/13/13 16/16/16
f 15/15/15 18/18/18 13/13/13
f 15/15/15 17/17/17 18/18/18
f 17/17/17 19/19/19 18/18/18
f 17/17/17 20/20/20 19/19/19
f 20/20/20 19/19/19 21/21/21
f 19/19/19 13/13/13 21/21/21
f 18/18/18 19/19/19 13/13/13
f 22/22/22 23/23/23 24/24/24
f 23/23/23 13/13/13 24/24/24
f 25/25/25 22/22/22 23/23/23
f 22/22/22 26/26/26 23/23/23
f 22/22/22 27/27/27 26/26/26
f 25/25/25 23/23/23 28/28/28
f 28/28/28 23/23/23 13/13/13
f 23/23/23 26/26/26 13/13/13
f 29/29/29 30/30/30 31/31/31
f 30/30/30 32/32/32 31/31/31
f 33/33/33 34/34/34 35/35/35
f 34/34/34 32/32/32 36/36/36
f 37/37/37 34/34/34 36/36/36
f 33/33/33 37/37/37 34/34/34
f 35/35/35 34/34/34 32/32/32
f 34/34/34 38/38/38 32/32/32
f 37/37/37 38/38/38 34/34/34
f 37/37/37 39/39/39 38/38/38
f 40/40/40 41/41/41 42/42/42
f 40/40/40 43/43/43 41/41/41
f 44/44/44 32/32/32 45/45/45
f 46/46/46 44/44/44 32/32/32
f 41/41/41 32/32/32 42/42/42
f 41/41/41 46/46/46 32/32/32
f 41/41/41 43/43/43 46/46/46
f 43/43/43 44/44/44 46/46/46
f 43/43/43 47/47/47 44/44/44
f 47/47/47 44/44/44 45/45/45
f 48/48/48 49/49/49 50/50/50
f 49/49/49 51/51/51 50/50/50
f 52/52/52 53/53/53 54/54/54
f 53/53/53 51/51/51 54/54/54
f 55/55/55 53/53/53 56/56/56
f 55/55/55 52/52/52 53/53/53
f 56/56/56 53/53/53 51/51/51
f 53/53/53 57/57/57 51/51/51
f 52/52/52 57/57/57 53/53/53
f 52/52/52 58/58/58 57/57/57
f 59/59/59 60/60/60 61/61/61
f 62/62/62 59/59/59 60/60/60
f 63/63/63 51/51/51 64/64/64
f 63/63/63 65/65/65 51/51/51
f 66/66/66 63/63/63 64/64/64
f 66/66/66 62/62/62 63/63/63
f 63/63/63 62/62/62 65/65/65
f 62/62/62 60/60/60 65/65/65
f 65/65/65 60/60/60 51/51/51
f 60/60/60 51/51/51 61/61/61