# Exported using wow.export v0.1.49
o 
mtllib duskwoodspookybush02.mtl
v 1.3059056997299194 1.663440465927124 3.310896158218384
v -0.5644385814666748 3.36342716217041 3.3329527378082275
v -0.19257718324661255 2.170302391052246 5.164632320404053
v -1.6693302392959595 -0.029699206352233887 -2.4352095127105713
v -1.8017078638076782 1.9366334676742554 -2.430396795272827
v -0.16797173023223877 -0.029699206352233887 -6.345605850219727
v -0.05010917782783508 -0.029699206352233887 0.8608212471008301
v -0.011030444875359535 2.3769948482513428 1.1867040395736694
v 0.3310312032699585 3.645897388458252 0.30910879373550415
v 0.07658076286315918 3.9497032165527344 -2.4597320556640625
v 0.14349114894866943 1.3991796970367432 -6.6552886962890625
v 0.09319005161523819 3.222966432571411 -5.32936954498291
v -1.3372557163238525 -0.029699206352233887 3.2336363792419434
v -1.4685436487197876 1.4426220655441284 3.2372548580169678
v -0.21485599875450134 -0.029699206352233887 0.2934889495372772
v -0.09699345380067825 -0.029699206352233887 5.711854934692383
v -0.057914722710847855 0.9244163632392883 6.122339725494385
v 0.2841469347476959 1.7655383348464966 5.297033786773682
v 0.029696501791477203 2.799597978591919 3.215198278427124
v 0.09660688042640686 2.390367269515991 0.24887660145759583
v 0.04630577191710472 3.515989303588867 0.9746078848838806
v 1.4820822477340698 2.487440824508667 -2.332453966140747
v -0.14569289982318878 4.050661563873291 0.13301511108875275
v -0.0672672837972641 2.264451265335083 1.210206389427185
v -0.24433653056621552 -0.029699206352233887 0.9102630615234375
v 1.4634370803833008 -0.029699206352233887 -2.327641248703003
v -0.5175542831420898 4.513532638549805 -2.303118944168091
v -0.17560502886772156 3.59496808052063 -5.008314609527588
v 0.0905316099524498 -0.029699206352233887 -5.957284450531006
v -0.05909228324890137 1.9451607465744019 -6.480934143066406
v -0.8000627160072327 1.1426441669464111 1.6856199502944946
v -3.256866216659546 2.4219751358032227 -0.2092779129743576
v -4.685619354248047 1.380196213722229 -0.25957900285720825
v -3.945815324783325 -0.029699206352233887 0.051883865147829056
v -0.8052575588226318 -0.029699206352233887 1.5532423257827759
v -0.8317275047302246 2.8178319931030273 -0.1926686316728592
v 2.156968593597412 1.7946277856826782 -0.4471190273761749
v 2.752488374710083 -0.029699206352233887 -0.06597868353128433
v 3.0598196983337402 0.7772871255874634 -0.10505742579698563
v -0.6943429708480835 1.9729998111724854 -1.5981699228286743
v 1.9668922424316406 2.1993916034698486 0.02960505522787571
v 3.085188388824463 0.6647435426712036 -0.048820577561855316
v 2.8058559894561768 -0.029699206352233887 0.1282486468553543
v -0.68914794921875 -0.029699206352233887 -1.5795248746871948
v -3.5266594886779785 -0.029699206352233887 -0.20661945641040802
v -4.497420787811279 1.9261771440505981 -0.05699557065963745
v -2.826216220855713 2.7939767837524414 0.05951717868447304
v -0.6626788973808289 3.3816609382629395 0.401466429233551
v -0.11415155977010727 0.811872661113739 6.140010833740234
v -0.2912208139896393 -0.02969905361533165 5.749029159545898
v 1.4401443004608154 -0.02969905361533165 3.3145148754119873
v 0.04364733770489693 -0.02969905361533165 0.585460364818573
v -0.10597655922174454 2.9363481998443604 0.3799697458744049
v -0.22248931229114532 3.887990713119507 1.2160022258758545
v 0.6595958471298218 2.2739367485046387 -6.472531318664551
v 0.03535234183073044 3.445847511291504 -5.067808151245117
v 0.054988663643598557 2.1533162593841553 -5.179171562194824
v 0.2627381384372711 2.0313236713409424 4.1411004066467285
v 1.4580307006835938 0.8594130873680115 5.107641696929932
v 1.3555437326431274 2.151944398880005 5.05985164642334
v 0.3652251064777374 0.7387925982475281 4.18889045715332
v 0.6399595737457275 3.5664682388305664 -6.3611674308776855
vn 0.9596230387687683 0.25707653164863586 0.11417213082313538
vn 0.6992666721343994 0.6566495895385742 0.2825551927089691
vn 0.7627572417259216 0.5175970196723938 0.3876786530017853
vn -0.9975512027740479 -0.057736825197935104 0.039472609758377075
vn -0.9673983454704285 0.2532566487789154 -0.0012152889976277947
vn -0.9383112788200378 0.018415603786706924 -0.34530097246170044
vn -0.918976366519928 -0.04740225151181221 0.3914530575275421
vn -0.9115789532661438 0.19096329808235168 0.36408358812332153
vn -0.8227655291557312 0.5224782824516296 0.22377081215381622
vn -0.7805721759796143 0.6248742938041687 -0.015463869087398052
vn -0.9079046249389648 0.17476627230644226 -0.38100653886795044
vn -0.8503453135490417 0.4461056888103485 -0.27911025285720825
vn -0.9961313009262085 -0.07634490728378296 0.043518323451280594
vn -0.9566669464111328 0.2742921710014343 0.09773514419794083
vn -0.9373447895050049 0.011194859631359577 -0.3482232987880707
vn -0.9200289249420166 -0.09787768870592117 0.379429429769516
vn -0.8712130784988403 0.2650391757488251 0.4132094085216522
vn -0.6705837249755859 0.630486011505127 0.39090263843536377
vn -0.6900017261505127 0.6587461233139038 0.29991865158081055
vn -0.9188791513442993 0.1430700123310089 -0.3676847219467163
vn -0.8814651370048523 0.46541887521743774 -0.08002815395593643
vn 0.9714625477790833 0.23704159259796143 0.008475644513964653
vn 0.8647493124008179 0.4618785083293915 0.19717226922512054
vn 0.9323644042015076 0.07113032042980194 0.3544531762599945
vn 0.9238453507423401 -0.05605597048997879 0.37863901257514954
vn 0.9985000491142273 -0.006244023330509663 0.05439310520887375
vn 0.7614044547080994 0.6457918286323547 -0.056711260229349136
vn 0.83302241563797 0.500483512878418 -0.2357752025127411
vn 0.9522101879119873 -0.012311925180256367 -0.3051953911781311
vn 0.933241605758667 0.16496512293815613 -0.3191341161727905
vn 0.022871118038892746 0.3201472759246826 0.9470916986465454
vn -0.29108959436416626 0.610821545124054 0.7363177537918091
vn -0.48011037707328796 0.21785694360733032 0.8497248888015747
vn -0.495155394077301 -0.06678719073534012 0.8662335872650146
vn -0.010713865980505943 -0.11215735226869583 0.9936326742172241
vn 0.1024380624294281 0.74311363697052 0.6612780094146729
vn 0.3924068808555603 0.6384283900260925 0.662137508392334
vn 0.4647250473499298 -0.10494569689035416 0.8792138695716858
vn 0.4817805886268616 0.24503730237483978 0.8413347601890564
vn 0.034728728234767914 0.3275579512119293 -0.9441925883293152
vn 0.4306831359863281 0.5865439772605896 -0.6859140992164612
vn 0.4374033212661743 0.019847696647047997 -0.8990463614463806
vn 0.40279901027679443 -0.17091773450374603 -0.8991885781288147
vn 0.002193594817072153 -0.009304654784500599 -0.9999542832374573
vn -0.4580093324184418 -0.06030459329485893 -0.8868995308876038
vn -0.41211241483688354 0.2891007363796234 -0.8640509843826294
vn -0.24533867835998535 0.7333741188049316 -0.6340121030807495
vn 0.08468575030565262 0.8140368461608887 -0.5746062397956848
vn 0.9141624569892883 0.03361836448311806 0.4039515256881714
vn 0.8994286060333252 -0.12517590820789337 0.41875913739204407
vn 0.9955950379371643 0.06788676232099533 0.06466735899448395
vn 0.9203652143478394 0.03765275701880455 -0.3892430067062378
vn 0.9347137212753296 0.1647508293390274 -0.3149086534976959
vn 0.859205424785614 0.5116038918495178 0.005241946782916784
vn 0.9064788818359375 -0.022557495161890984 0.42164820432662964
vn 0.9064788818359375 -0.022557495161890984 0.42164820432662964
vn 0.9064788818359375 -0.022557495161890984 0.42164820432662964
vn -0.6418948769569397 -0.022557619959115982 0.7664607763290405
vn -0.6418948769569397 -0.022557619959115982 0.7664607763290405
vn -0.6418948769569397 -0.022557619959115982 0.7664607763290405
vn -0.6418948769569397 -0.022557619959115982 0.7664607763290405
vn 0.9064788818359375 -0.022557495161890984 0.42164820432662964
vt 0.0015393197536468506 0.5175783038139343
vt 0.0007813870906829834 0.9980607628822327
vt 0.8158739805221558 0.9971806406974792
vt 0.0012895464897155762 0.0031086206436157227
vt 0.0000521540641784668 0.5206222534179688
vt 0.9992482662200928 0.001781165599822998
vt 0.9995003342628479 0.0004993677139282227
vt 0.9921053647994995 0.6085566878318787
vt 0.8550639152526855 0.9954339861869812
vt 0.0009789913892745972 0.9966512322425842
vt 0.9931973218917847 0.606680691242218
vt 0.8567975163459778 0.9970850348472595
vt 0.0012895464897155762 0.0031086206436157227
vt 0.0000521540641784668 0.5206222534179688
vt 0.9992482662200928 0.001781165599822998
vt 0.9995003342628479 0.0004993677139282227
vt 1.05131196975708 0.5433393120765686
vt 0.8550639152526855 0.9954339861869812
vt 0.0009789913892745972 0.9966512322425842
vt 1.0524039268493652 0.541463315486908
vt 0.8567975163459778 0.9970850348472595
vt 0.0015393197536468506 0.5175783038139343
vt 0.8158739805221558 0.9971806406974792
vt 0.9963090419769287 0.6397984623908997
vt 0.9951708912849426 0.006838679313659668
vt 0.0016484111547470093 0.005330383777618408
vt 0.0007813870906829834 0.9980607628822327
vt 0.8133289813995361 0.9970848560333252
vt 0.9956659078598022 0.006933271884918213
vt 0.9935798645019531 0.6382762789726257
vt 0.0000521540641784668 0.5206222534179688
vt 0.868638813495636 0.9342830777168274
vt 1.0188535451889038 0.41344398260116577
vt 0.9992482662200928 0.001781165599822998
vt 0.0012895464897155762 0.0031086206436157227
vt 0.0009789913892745972 0.9966512322425842
vt 0.8669052124023438 0.9326320290565491
vt 0.9995003342628479 0.0004993677139282227
vt 1.0177615880966187 0.4153199791908264
vt 0.0015393197536468506 0.5175783038139343
vt 0.8158739805221558 0.9971806406974792
vt 0.9963090419769287 0.6397984623908997
vt 0.9951708912849426 0.006838679313659668
vt 0.0016484111547470093 0.005330383777618408
vt 0.9956659078598022 0.006933271884918213
vt 0.9935798645019531 0.6382762789726257
vt 0.8133289813995361 0.9970848560333252
vt 0.0007813870906829834 0.9980607628822327
vt 0.9963090419769287 0.6397984623908997
vt 0.9951708912849426 0.006838679313659668
vt 0.0016484111547470093 0.005330383777618408
vt 0.9956659078598022 0.006933271884918213
vt 0.9935798645019531 0.6382762789726257
vt 0.8133289813995361 0.9970848560333252
vt 1 0
vt 0 1
vt 0 0
vt 0 1
vt 1 0
vt 1 1
vt 0 0
vt 1 1
g Geoset0
s 1
usemtl mat_spookybush06
f 1/1/1 2/2/2 3/3/3
f 4/4/4 5/5/5 6/6/6
f 5/5/5 4/4/4 7/7/7
f 8/8/8 5/5/5 7/7/7
f 9/9/9 5/5/5 8/8/8
f 9/9/9 10/10/10 5/5/5
f 11/11/11 6/6/6 5/5/5
f 5/5/5 12/12/12 11/11/11
f 5/5/5 10/10/10 12/12/12
f 13/13/13 14/14/14 15/15/15
f 14/14/14 13/13/13 16/16/16
f 17/17/17 14/14/14 16/16/16
f 18/18/18 14/14/14 17/17/17
f 18/18/18 19/19/19 14/14/14
f 20/20/20 15/15/15 14/14/14
f 14/14/14 21/21/21 20/20/20
f 14/14/14 19/19/19 21/21/21
f 22/22/22 23/23/23 24/24/24
f 24/24/24 25/25/25 22/22/22
f 26/26/26 22/22/22 25/25/25
f 22/22/22 27/27/27 23/23/23
f 28/28/28 27/27/27 22/22/22
f 22/22/22 26/26/26 29/29/29
f 30/30/30 22/22/22 29/29/29
f 28/28/28 22/22/22 30/30/30
f 31/31/31 32/32/32 33/33/33
f 33/33/33 34/34/34 31/31/31
f 35/35/35 31/31/31 34/34/34
f 31/31/31 36/36/36 32/32/32
f 37/37/37 36/36/36 31/31/31
f 31/31/31 35/35/35 38/38/38
f 39/39/39 31/31/31 38/38/38
f 37/37/37 31/31/31 39/39/39
f 40/40/40 41/41/41 42/42/42
f 42/42/42 43/43/43 40/40/40
f 44/44/44 40/40/40 43/43/43
f 40/40/40 44/44/44 45/45/45
f 46/46/46 40/40/40 45/45/45
f 47/47/47 40/40/40 46/46/46
f 47/47/47 48/48/48 40/40/40
f 40/40/40 48/48/48 41/41/41
f 1/1/1 3/3/3 49/49/49
f 49/49/49 50/50/50 1/1/1
f 51/51/51 1/1/1 50/50/50
f 1/1/1 51/51/51 52/52/52
f 53/53/53 1/1/1 52/52/52
f 54/54/54 1/1/1 53/53/53
f 54/54/54 2/2/2 1/1/1
g Geoset1
s 1
usemtl mat_duskwoodspookybranch01
f 55/55/55 56/56/56 57/57/57
f 58/58/58 59/59/59 60/60/60
f 59/59/59 58/58/58 61/61/61
f 56/56/56 55/55/55 62/62/62