# Exported using wow.export v0.1.49
o 
mtllib duskwoodbush02.mtl
v 0.0610283687710762 2.2849390506744385 -4.27462100982666
v 0.06958357244729996 -0.6094494462013245 -4.683418273925781
v 0.05816403403878212 0.712992787361145 -7.631308555603027
v 2.4161806106567383 1.0665230751037598 2.5686676502227783
v 0.806509792804718 -0.9248660206794739 0.8674795627593994
v 0.16017606854438782 1.6060019731521606 -0.08784997463226318
v 0.0923299789428711 -0.07837939262390137 -0.1974319964647293
v 0.10060720145702362 1.9576988220214844 0.19983620941638947
v 0.10047639906406403 3.753662109375 -0.483498215675354
v 0.09232991933822632 3.3989219665527344 1.797905445098877
v -0.7907467484474182 1.9576985836029053 2.271202564239502
v 0.9277369379997253 1.6173100471496582 2.3490278720855713
v 1.4484059810638428 -0.0783795490860939 3.0267348289489746
v -1.998595952987671 -0.07837940752506256 2.9000742435455322
v -1.998595952987671 -0.07837940752506256 2.9000742435455322
v -0.7907467484474182 1.9576985836029053 2.271202564239502
v -1.8421088457107544 3.2764759063720703 2.0553746223449707
v -1.998595952987671 -0.07837940752506256 2.9000742435455322
v -0.12523014843463898 -0.07837942242622375 6.687719345092773
v 0.10060710459947586 1.8999383449554443 4.1474199295043945
v 0.9277369379997253 1.6173100471496582 2.3490278720855713
v 1.4484059810638428 -0.0783795490860939 3.0267348289489746
v 1.9997316598892212 4.0032219886779785 2.1259827613830566
v -0.12523014843463898 -0.07837942242622375 6.687719345092773
v 0.10060710459947586 1.8999383449554443 4.1474199295043945
v -0.1644105762243271 3.5175297260284424 4.826847076416016
v -0.26580774784088135 4.036109924316406 -4.5660481452941895
v 0.023538507521152496 2.284848928451538 -4.064265727996826
v -0.22303059697151184 -0.1107647493481636 -6.837763786315918
v 0.014501497149467468 4.203091621398926 -1.4990662336349487
v 1.4445987939834595 1.9762755632400513 -2.1007816791534424
v 0.023538561537861824 2.347911834716797 0.24570567905902863
v 2.3200368881225586 -0.1107650175690651 -1.9377199411392212
v 0.014501516707241535 -0.11076472699642181 0.6794429421424866
v 0.023395778611302376 4.590396881103516 0.9917700290679932
v -1.444811224937439 2.347911834716797 -2.0158119201660156
v -2.4504659175872803 -0.11076468229293823 -1.7994316816329956
v -2.2152292728424072 4.372712135314941 -1.600562334060669
v -1.444811224937439 2.347911834716797 -2.0158119201660156
v -2.4504659175872803 -0.11076468229293823 -1.7994316816329956
v -0.22303059697151184 -0.1107647493481636 -6.837763786315918
v 2.841268539428711 4.2116780281066895 -1.8572614192962646
v 1.4445987939834595 1.9762755632400513 -2.1007816791534424
v 0.023538507521152496 2.284848928451538 -4.064265727996826
v 2.3200368881225586 -0.1107650175690651 -1.9377199411392212
v 3.3465867042541504 -0.04857806861400604 -0.001896024332381785
v 1.3775122165679932 1.5929044485092163 -0.013585489243268967
v 4.5686540603637695 3.0054330825805664 -0.007097756024450064
v -0.8712136149406433 3.2652246952056885 -0.0018963002366945148
v -0.7548384070396423 -0.04857795685529709 1.9357773065567017
v -0.8010883331298828 1.5488892793655396 1.245211124420166
v -0.7503629326820374 3.831437110900879 1.5815010070800781
v 3.3465867042541504 -0.04857806861400604 -0.001896024332381785
v 1.3775122165679932 1.5929044485092163 -0.013585489243268967
v -0.6999150514602661 1.5488897562026978 -1.1816833019256592
v -0.618257999420166 -0.0485781654715538 -1.9169872999191284
v -0.7039058804512024 3.244656801223755 -1.9608722925186157
v -4.548582077026367 -0.04857783392071724 -0.0018959561130031943
v -0.7548384070396423 -0.04857795685529709 1.9357773065567017
v -0.8010883331298828 1.5488892793655396 1.245211124420166
v -3.1613082885742188 1.548889398574829 -0.013585690408945084
v -4.547962665557861 3.779877185821533 -0.013400502502918243
v -0.618257999420166 -0.0485781654715538 -1.9169872999191284
v -0.6999150514602661 1.5488897562026978 -1.1816833019256592
vn 0.9999917149543762 0.0032942011021077633 -0.002396060386672616
vn 0.9999917149543762 0.0032942011021077633 -0.002396060386672616
vn 0.9999917149543762 0.0032942011021077633 -0.002396060386672616
vn 0.755770206451416 -0.053351543843746185 -0.6526599526405334
vn 0.755770206451416 -0.053351543843746185 -0.6526599526405334
vn 0.755770206451416 -0.053351543843746185 -0.6526599526405334
vn -0.7902501821517944 0.2030182033777237 -0.5781766772270203
vn -0.44303351640701294 0.4524895250797272 -0.7739344239234924
vn -0.9999983906745911 0.0005705122603103518 0.0016908321995288134
vn 0.231980562210083 0.9715631604194641 0.04743477329611778
vn -0.7989880442619324 0.517846405506134 0.30570119619369507
vn 0.9308409690856934 0.23926770687103271 -0.2761993408203125
vn 0.9186758995056152 0.11408030241727829 -0.37818023562431335
vn -0.7256948351860046 0.5557666420936584 0.405574232339859
vn -0.7256948351860046 0.5557666420936584 0.405574232339859
vn -0.7989880442619324 0.517846405506134 0.30570119619369507
vn 0.10666384547948837 0.2428315132856369 0.9641865491867065
vn -0.7256948351860046 0.5557666420936584 0.405574232339859
vn 0.43070515990257263 0.6975618600845337 0.572625994682312
vn 0.6274070143699646 0.6240835189819336 0.4657040238380432
vn 0.9308409690856934 0.23926770687103271 -0.2761993408203125
vn 0.9186758995056152 0.11408030241727829 -0.37818023562431335
vn 0.2950742840766907 -0.219510018825531 -0.9299174547195435
vn 0.43070515990257263 0.6975618600845337 0.572625994682312
vn 0.6274070143699646 0.6240835189819336 0.4657040238380432
vn 0.9865501523017883 0.11138037592172623 0.11963795125484467
vn 0.9826206564903259 0.1223529502749443 -0.1395936906337738
vn 0.5495896935462952 0.6397665143013 -0.5372615456581116
vn 0.37187477946281433 0.6359884142875671 -0.6761863231658936
vn 0.13948668539524078 0.9897267818450928 -0.03137388825416565
vn 0.8442129492759705 0.4259185791015625 0.325419545173645
vn -0.38225257396698 0.45721176266670227 0.8030195236206055
vn 0.772784948348999 0.2815631031990051 0.5687931776046753
vn -0.6723961234092712 0.20895034074783325 0.7100867629051208
vn -0.9999982714653015 0.0005299456533975899 -0.0017842667875811458
vn -0.8304648399353027 0.484860360622406 -0.27429643273353577
vn -0.8895251750946045 0.33665207028388977 -0.30888569355010986
vn -0.1466999351978302 0.1448580026626587 -0.9785168766975403
vn -0.8304648399353027 0.484860360622406 -0.27429643273353577
vn -0.8895251750946045 0.33665207028388977 -0.30888569355010986
vn 0.37187477946281433 0.6359884142875671 -0.6761863231658936
vn -0.0265252236276865 -0.09186597913503647 0.9954180121421814
vn 0.8442129492759705 0.4259185791015625 0.325419545173645
vn 0.5495896935462952 0.6397665143013 -0.5372615456581116
vn 0.772784948348999 0.2815631031990051 0.5687931776046753
vn 0.6260450482368469 0.6797381043434143 -0.3821304440498352
vn 0.49370378255844116 0.6273177266120911 -0.6022698879241943
vn 0.0013608912704512477 0.0015184780349954963 -0.9999979138374329
vn 0.018899956718087196 0.9954173564910889 -0.09373923391103745
vn 0.4856879711151123 0.3586651682853699 0.7971615195274353
vn 0.34818562865257263 0.47424694895744324 0.8086140155792236
vn 0.9967434406280518 -0.010368864051997662 -0.07996895909309387
vn 0.6260450482368469 0.6797381043434143 -0.3821304440498352
vn 0.49370378255844116 0.6273177266120911 -0.6022698879241943
vn -0.31502047181129456 0.4566584825515747 -0.8320006728172302
vn -0.4516398310661316 0.34948989748954773 -0.8209008574485779
vn -0.997054934501648 -0.033945128321647644 -0.06876880675554276
vn -0.5149005055427551 0.44120335578918457 0.7349945902824402
vn 0.4856879711151123 0.3586651682853699 0.7971615195274353
vn 0.34818562865257263 0.47424694895744324 0.8086140155792236
vn -0.6431813836097717 0.680383026599884 0.3512786030769348
vn 0.0007635298534296453 0.0003915917477570474 0.9999996423721313
vn -0.4516398310661316 0.34948989748954773 -0.8209008574485779
vn -0.31502047181129456 0.4566584825515747 -0.8320006728172302
vt 0.13007226586341858 0.7351694703102112
vt 0.13007225096225739 0.5132114887237549
vt 0.34056591987609863 0.5132114291191101
vt 0.34056591987609863 0.5132114291191101
vt 0.13007225096225739 0.5132114887237549
vt 0.13007226586341858 0.7351694703102112
vt 0.36898311972618103 0.9970444440841675
vt 0.24910469353199005 0.8962500095367432
vt 0.12917329370975494 0.9972233772277832
vt 0.1292262226343155 0.7497190237045288
vt 0.24910469353199005 0.632253110408783
vt 0.24910469353199005 0.632253110408783
vt 0.36898311972618103 0.5162163972854614
vt 0.36898311972618103 0.5162163972854614
vt 0.36898311972618103 0.9970444440841675
vt 0.24910469353199005 0.8962500095367432
vt 0.12917329370975494 0.9972233772277832
vt 0.36898311972618103 0.9970443844795227
vt 0.36898311972618103 0.5162163972854614
vt 0.24910469353199005 0.632253110408783
vt 0.24910469353199005 0.8962500095367432
vt 0.36898311972618103 0.9970444440841675
vt 0.12917329370975494 0.9972233772277832
vt 0.36898311972618103 0.9970444440841675
vt 0.24910469353199005 0.8962500095367432
vt 0.12917329370975494 0.9972233772277832
vt 0.12754812836647034 0.9947748780250549
vt 0.24801817536354065 0.9343848824501038
vt 0.3684351146221161 0.9945933222770691
vt 0.1276012808084488 0.7541181445121765
vt 0.24801817536354065 0.6343465447425842
vt 0.24801817536354065 0.9343848824501038
vt 0.3684351146221161 0.5131455659866333
vt 0.3684351146221161 0.9945933222770691
vt 0.12754812836647034 0.9947748780250549
vt 0.24801817536354065 0.6343464851379395
vt 0.3684351146221161 0.5131455659866333
vt 0.12754812836647034 0.9947748780250549
vt 0.24801817536354065 0.9343848824501038
vt 0.3684351146221161 0.9945933222770691
vt 0.3684351146221161 0.5131455659866333
vt 0.12754812836647034 0.9947748780250549
vt 0.24801817536354065 0.9343848824501038
vt 0.24801822006702423 0.6343464851379395
vt 0.3684351146221161 0.9945933222770691
vt 0.3714519143104553 0.996358335018158
vt 0.24998395144939423 0.9029341340065002
vt 0.12846237421035767 0.9965671300888062
vt 0.12851601839065552 0.7556374669075012
vt 0.3714519143104553 0.996358335018158
vt 0.24998395144939423 0.9029341340065002
vt 0.12846237421035767 0.9965671300888062
vt 0.3714519143104553 0.513800323009491
vt 0.24998395144939423 0.6336194276809692
vt 0.24998395144939423 0.9029341340065002
vt 0.3714519143104553 0.996358335018158
vt 0.12846237421035767 0.9965671300888062
vt 0.3714519143104553 0.996358335018158
vt 0.3714519143104553 0.513800323009491
vt 0.24998395144939423 0.6336194276809692
vt 0.24998395144939423 0.9029341340065002
vt 0.12846237421035767 0.9965671300888062
vt 0.3714519143104553 0.513800323009491
vt 0.24998395144939423 0.6336194276809692
g Geoset0
s 1
usemtl mat_cemetery01
f 1/1/1 2/2/2 3/3/3
f 4/4/4 5/5/5 6/6/6
f 7/7/7 8/8/8 9/9/9
f 8/8/8 10/10/10 9/9/9
f 8/8/8 11/11/11 10/10/10
f 12/12/12 8/8/8 10/10/10
f 13/13/13 8/8/8 12/12/12
f 13/13/13 7/7/7 8/8/8
f 7/7/7 11/11/11 8/8/8
f 7/7/7 14/14/14 11/11/11
f 15/15/15 16/16/16 17/17/17
f 18/18/18 19/19/19 16/16/16
f 16/16/16 10/10/10 17/17/17
f 16/16/16 20/20/20 10/10/10
f 16/16/16 19/19/19 20/20/20
f 19/19/19 21/21/21 20/20/20
f 19/19/19 22/22/22 21/21/21
f 22/22/22 21/21/21 23/23/23
f 21/21/21 10/10/10 23/23/23
f 20/20/20 21/21/21 10/10/10
f 24/24/24 25/25/25 26/26/26
f 25/25/25 10/10/10 26/26/26
f 27/27/27 28/28/28 29/29/29
f 27/27/27 30/30/30 28/28/28
f 31/31/31 32/32/32 33/33/33
f 32/32/32 34/34/34 33/33/33
f 35/35/35 32/32/32 34/34/34
f 35/35/35 30/30/30 32/32/32
f 30/30/30 32/32/32 31/31/31
f 30/30/30 36/36/36 32/32/32
f 32/32/32 36/36/36 34/34/34
f 36/36/36 37/37/37 34/34/34
f 38/38/38 39/39/39 40/40/40
f 39/39/39 41/41/41 40/40/40
f 42/42/42 30/30/30 43/43/43
f 30/30/30 43/43/43 44/44/44
f 38/38/38 30/30/30 39/39/39
f 30/30/30 44/44/44 39/39/39
f 44/44/44 41/41/41 39/39/39
f 44/44/44 43/43/43 41/41/41
f 43/43/43 45/45/45 41/41/41
f 42/42/42 43/43/43 45/45/45
f 46/46/46 47/47/47 48/48/48
f 47/47/47 49/49/49 48/48/48
f 50/50/50 51/51/51 52/52/52
f 50/50/50 53/53/53 51/51/51
f 51/51/51 49/49/49 52/52/52
f 51/51/51 54/54/54 49/49/49
f 51/51/51 53/53/53 54/54/54
f 53/53/53 55/55/55 54/54/54
f 53/53/53 56/56/56 55/55/55
f 56/56/56 55/55/55 57/57/57
f 55/55/55 49/49/49 57/57/57
f 54/54/54 55/55/55 49/49/49
f 58/58/58 59/59/59 60/60/60
f 58/58/58 60/60/60 61/61/61
f 61/61/61 49/49/49 62/62/62
f 58/58/58 61/61/61 62/62/62
f 63/63/63 58/58/58 61/61/61
f 63/63/63 61/61/61 64/64/64
f 64/64/64 61/61/61 49/49/49
f 61/61/61 60/60/60 49/49/49