# Exported using wow.export v0.1.49
o 
mtllib duskwoodbush04.mtl
v 1.556387186050415 0.22840717434883118 1.929993748664856
v 0.4387873709201813 -0.7810903191566467 -0.023180704563856125
v 0.2771022319793701 1.428366780281067 -0.29016610980033875
v 0.0610283687710762 1.9865529537200928 -3.055542230606079
v 0.06958357244729996 -0.9078355431556702 -3.464339256286621
v 0.05816403403878212 0.41460663080215454 -6.412229537963867
v -0.08310293406248093 3.0082249641418457 -4.250268936157227
v 0.1723063588142395 2.0148513317108154 -3.385359048843384
v -0.04590542986989021 -0.35891157388687134 -4.380484580993652
v 0.16064424812793732 3.639756441116333 -1.6495888233184814
v 1.5401175022125244 1.6836704015731812 -1.643801212310791
v 2.5400187969207764 -0.3589119017124176 -1.5020084381103516
v 0.9549782872200012 -0.3589116632938385 -2.5596256256103516
v 2.6187028884887695 2.8203649520874023 -1.432044506072998
v 0.1723063588142395 2.0148513317108154 -3.385359048843384
v -0.04590542986989021 -0.35891157388687134 -4.380484580993652
v -1.5905003547668457 1.788007378578186 -1.5385987758636475
v -0.7880586981773376 -0.3589114546775818 -2.5006191730499268
v -2.3928287029266357 -0.3589114546775818 -1.5508733987808228
v -2.4779393672943115 2.750430107116699 -1.5055896043777466
v -2.3928287029266357 -0.3589114546775818 -1.5508733987808228
v -0.24325060844421387 3.359246015548706 1.0453746318817139
v -0.23932287096977234 1.788007378578186 0.3966226279735565
v -0.25098469853401184 -0.3589114546775818 1.5230989456176758
v 1.0783228874206543 -0.3589116632938385 -0.5499051213264465
v -0.9676987528800964 -0.3589114248752594 -0.41959211230278015
v -1.5905003547668457 1.788007378578186 -1.5385987758636475
v -2.3928287029266357 -0.3589114546775818 -1.5508733987808228
v 1.5401175022125244 1.6836704015731812 -1.643801212310791
v 2.5400187969207764 -0.3589119017124176 -1.5020084381103516
v 1.9968760013580322 -0.29146066308021545 4.1100754737854
v 1.431317925453186 1.253151774406433 2.7796790599823
v 1.6000354290008545 2.1533515453338623 3.4798519611358643
v 0.629073977470398 2.404109239578247 1.5637640953063965
v 0.6419706344604492 -0.29146093130111694 0.17146018147468567
v 0.1474762260913849 1.3341209888458252 0.5753990411758423
v 0.0542927011847496 2.7773373126983643 -0.14560003578662872
v 2.567943811416626 -0.29146096110343933 0.9688987731933594
v 1.176829218864441 -0.2914608418941498 0.8940708637237549
v 1.6819062232971191 1.334887981414795 1.0313009023666382
v -0.06120109558105469 -0.29146066308021545 1.4886791706085205
v -0.5252914428710938 1.4182125329971313 2.2086141109466553
v -0.8241873383522034 -0.29146066308021545 2.9724080562591553
v 2.567943811416626 -0.29146096110343933 0.9688987731933594
v 1.6819062232971191 1.334887981414795 1.0313009023666382
v 2.3433187007904053 2.0542118549346924 0.45416122674942017
v -0.8241873383522034 -0.29146066308021545 2.9724080562591553
v -0.5252914428710938 1.4182125329971313 2.2086141109466553
v -1.1522408723831177 1.9983612298965454 2.5401437282562256
v 1.431317925453186 1.253151774406433 2.7796790599823
v 1.894014596939087 -0.2914608418941498 2.3332808017730713
v -0.8241873383522034 -0.29146066308021545 2.9724080562591553
v 0.6649382710456848 -0.29146066308021545 2.9884750843048096
v 1.9968760013580322 -0.29146066308021545 4.1100754737854
vn 0.8672162890434265 0.0032941829413175583 -0.4979207217693329
vn 0.8672162890434265 0.0032941829413175583 -0.4979207217693329
vn 0.8672162890434265 0.0032941829413175583 -0.4979207217693329
vn 0.9999917149543762 0.0032942011021077633 -0.002396060386672616
vn 0.9999917149543762 0.0032942011021077633 -0.002396060386672616
vn 0.9999917149543762 0.0032942011021077633 -0.002396060386672616
vn 0.9774522185325623 0.08183406293392181 -0.19465450942516327
vn 0.4683157503604889 0.37891098856925964 -0.7981896996498108
vn 0.6261884570121765 0.25177791714668274 -0.7378996014595032
vn -0.01823306828737259 0.9928742051124573 -0.11776401847600937
vn 0.8138823509216309 0.35841360688209534 0.45731300115585327
vn 0.6311078667640686 0.35675933957099915 0.6887856125831604
vn 0.7504270076751709 0.12862037122249603 -0.6483178734779358
vn -0.14430172741413116 -0.04720703884959221 0.9884070754051208
vn 0.4683157503604889 0.37891098856925964 -0.7981896996498108
vn 0.6261884570121765 0.25177791714668274 -0.7378996014595032
vn -0.8136674165725708 0.3480663299560547 -0.4656127095222473
vn -0.7383939027786255 0.16004754602909088 -0.6551024913787842
vn -0.6965004205703735 0.2641046643257141 -0.6671850681304932
vn -0.0362243689596653 0.0008735103765502572 -0.9993432760238647
vn -0.6965004205703735 0.2641046643257141 -0.6671850681304932
vn -0.9967284798622131 0.028704114258289337 -0.07555413991212845
vn -0.5242617726325989 0.454670250415802 0.7200170755386353
vn -0.7551571130752563 0.30779168009757996 0.5787935853004456
vn 0.7033437490463257 0.25503191351890564 0.6635256409645081
vn -0.8034690022468567 0.15958264470100403 0.5735598802566528
vn -0.8136674165725708 0.3480663299560547 -0.4656127095222473
vn -0.6965004205703735 0.2641046643257141 -0.6671850681304932
vn 0.8138823509216309 0.35841360688209534 0.45731300115585327
vn 0.6311078667640686 0.35675933957099915 0.6887856125831604
vn 0.843484103679657 0.4928447902202606 0.21363186836242676
vn 0.7242182493209839 0.5715500116348267 0.3857959806919098
vn 0.919385552406311 0.11924266815185547 -0.37484845519065857
vn -0.011553912423551083 0.9956383109092712 -0.09257920831441879
vn -0.6250665187835693 0.003818570403382182 -0.7805621027946472
vn -0.6518527269363403 0.2596723735332489 -0.7125014066696167
vn -0.9983233213424683 -0.053840335458517075 0.02125387266278267
vn 0.2514977753162384 0.17355065047740936 -0.952170729637146
vn 0.3927493095397949 0.15364234149456024 -0.9067204594612122
vn 0.4497191309928894 0.35867083072662354 -0.8179901838302612
vn -0.8959784507751465 -0.09711166471242905 -0.43334969878196716
vn -0.44952860474586487 0.49756404757499695 0.7418585419654846
vn -0.20698730647563934 0.4289993345737457 0.879270076751709
vn 0.2514977753162384 0.17355065047740936 -0.952170729637146
vn 0.4497191309928894 0.35867083072662354 -0.8179901838302612
vn -0.5221970081329346 -0.18737630546092987 -0.8319858312606812
vn -0.20698730647563934 0.4289993345737457 0.879270076751709
vn -0.44952860474586487 0.49756404757499695 0.7418585419654846
vn 0.5509967803955078 0.1238417848944664 0.8252670764923096
vn 0.7242182493209839 0.5715500116348267 0.3857959806919098
vn 0.9282894134521484 0.3314448297023773 0.16859135031700134
vn -0.20698730647563934 0.4289993345737457 0.879270076751709
vn -0.2958958148956299 0.3635364770889282 0.8833385109901428
vn 0.843484103679657 0.4928447902202606 0.21363186836242676
vt 0.3594328463077545 0.50484299659729
vt 0.12720626592636108 0.50484299659729
vt 0.12720628082752228 0.735255241394043
vt 0.12720628082752228 0.735255241394043
vt 0.12720626592636108 0.50484299659729
vt 0.3594328463077545 0.50484299659729
vt 0.1271616667509079 0.9970144033432007
vt 0.24808882176876068 0.8796766996383667
vt 0.36837026476860046 0.9967706799507141
vt 0.12780742347240448 0.7526876330375671
vt 0.24808882176876068 0.8796766996383667
vt 0.36837026476860046 0.9967706799507141
vt 0.36837026476860046 0.7288669347763062
vt 0.1271616667509079 0.9970144033432007
vt 0.24808882176876068 0.6337202787399292
vt 0.36837026476860046 0.5147527456283569
vt 0.24808882176876068 0.8796766996383667
vt 0.36837026476860046 0.7535386681556702
vt 0.36837026476860046 0.9967705607414246
vt 0.1271616667509079 0.9970144033432007
vt 0.36837026476860046 0.9967706799507141
vt 0.1271616667509079 0.9970144033432007
vt 0.24808882176876068 0.8796766996383667
vt 0.36837026476860046 0.9967706799507141
vt 0.36837026476860046 0.7676308751106262
vt 0.36837026476860046 0.8069152235984802
vt 0.24808882176876068 0.6337202787399292
vt 0.36837026476860046 0.5147527456283569
vt 0.24808882176876068 0.6337202787399292
vt 0.36837026476860046 0.5147527456283569
vt 0.36837026476860046 0.9967706799507141
vt 0.24808882176876068 0.8796766996383667
vt 0.1271616667509079 0.9970144033432007
vt 0.12780742347240448 0.7526876330375671
vt 0.36837026476860046 0.9967706799507141
vt 0.24808882176876068 0.8796766996383667
vt 0.1271616667509079 0.9970144033432007
vt 0.36837026476860046 0.5147527456283569
vt 0.36837026476860046 0.7676308751106262
vt 0.24808882176876068 0.6337202787399292
vt 0.36837026476860046 0.8069152235984802
vt 0.24808882176876068 0.6337202787399292
vt 0.36837026476860046 0.5147527456283569
vt 0.36837026476860046 0.9967706799507141
vt 0.24808882176876068 0.8796766996383667
vt 0.1271616667509079 0.9970144033432007
vt 0.36837026476860046 0.9967706799507141
vt 0.24808882176876068 0.8796766996383667
vt 0.1271616667509079 0.9970144033432007
vt 0.24808882176876068 0.6337202787399292
vt 0.36837026476860046 0.7288669347763062
vt 0.36837026476860046 0.9967705607414246
vt 0.36837026476860046 0.7535386681556702
vt 0.36837026476860046 0.5147527456283569
g Geoset0
s 1
usemtl mat_cemetery01
f 1/1/1 2/2/2 3/3/3
f 4/4/4 5/5/5 6/6/6
f 7/7/7 8/8/8 9/9/9
f 7/7/7 10/10/10 8/8/8
f 11/11/11 12/12/12 13/13/13
f 14/14/14 11/11/11 12/12/12
f 14/14/14 10/10/10 11/11/11
f 10/10/10 11/11/11 15/15/15
f 11/11/11 13/13/13 15/15/15
f 15/15/15 13/13/13 16/16/16
f 17/17/17 18/18/18 19/19/19
f 20/20/20 17/17/17 21/21/21
f 20/20/20 10/10/10 17/17/17
f 10/10/10 15/15/15 17/17/17
f 15/15/15 18/18/18 17/17/17
f 15/15/15 16/16/16 18/18/18
f 22/22/22 23/23/23 24/24/24
f 22/22/22 10/10/10 23/23/23
f 23/23/23 24/24/24 25/25/25
f 23/23/23 26/26/26 24/24/24
f 27/27/27 26/26/26 23/23/23
f 27/27/27 28/28/28 26/26/26
f 29/29/29 25/25/25 30/30/30
f 23/23/23 25/25/25 29/29/29
f 10/10/10 23/23/23 29/29/29
f 10/10/10 27/27/27 23/23/23
f 31/31/31 32/32/32 33/33/33
f 32/32/32 34/34/34 33/33/33
f 35/35/35 36/36/36 37/37/37
f 36/36/36 34/34/34 37/37/37
f 38/38/38 39/39/39 40/40/40
f 40/40/40 39/39/39 36/36/36
f 39/39/39 35/35/35 36/36/36
f 35/35/35 41/41/41 36/36/36
f 40/40/40 36/36/36 34/34/34
f 36/36/36 42/42/42 34/34/34
f 36/36/36 41/41/41 42/42/42
f 41/41/41 43/43/43 42/42/42
f 44/44/44 45/45/45 46/46/46
f 45/45/45 34/34/34 46/46/46
f 47/47/47 48/48/48 49/49/49
f 48/48/48 34/34/34 49/49/49
f 48/48/48 50/50/50 34/34/34
f 50/50/50 45/45/45 34/34/34
f 50/50/50 51/51/51 45/45/45
f 51/51/51 44/44/44 45/45/45
f 52/52/52 53/53/53 48/48/48
f 48/48/48 53/53/53 50/50/50
f 53/53/53 54/54/54 50/50/50
f 54/54/54 51/51/51 50/50/50