# Exported using wow.export v0.1.49
o 
mtllib pumpkin01.mtl
v -0.00023700001474935561 0.8719255924224854 -0.009662098251283169
v -0.00023709822562523186 1.4476255178451538 0.9638874530792236
v -0.00023700001474935561 0.8719255924224854 0.9638874530792236
v -0.23705299198627472 -0.2932652235031128 -2.474885940551758
v -0.18556077778339386 0.8021374940872192 -2.394059419631958
v -0.24025948345661163 -0.4299488663673401 -0.6204395294189453
v -0.18876726925373077 0.6654539108276367 -0.539612889289856
v 0.8594232201576233 -0.17707055807113647 -1.2458587884902954
v 0.8594232201576233 0.39643874764442444 -1.195683240890503
v 0.3363354206085205 -0.24863266944885254 -0.42789995670318604
v 0.3363354206085205 0.32487669587135315 -0.37772437930107117
v -0.5392117500305176 1.52910578250885 -0.46602287888526917
v -0.08714132010936737 0.8714441657066345 -0.08669061213731766
v 0.016464047133922577 1.3003933429718018 0.00024455710081383586
v -0.6428171396255493 1.1001566648483276 -0.552958071231842
v 0.13878843188285828 1.1614528894424438 -0.3361856937408447
v -0.13878850638866425 1.1614528894424438 -0.3361856937408447
v 3.002354587167133e-9 1.0979442596435547 -0.0011206732597202063
v -0.24409373104572296 1.052970290184021 -0.5904150009155273
v 0.2440936267375946 1.0529704093933105 -0.5904150009155273
v -0.34520068764686584 0.5258235931396484 -0.8345087170600891
v 0.3452005386352539 0.5258235931396484 -0.8345087170600891
v -0.24409371614456177 -0.0013231149641796947 -0.5904149413108826
v 0.2440936118364334 -0.0013231149641796947 -0.5904149413108826
v 2.99732838549005e-9 -0.21967430412769318 -0.0011206732597202063
v -0.33506500720977783 1.1614528894424438 -0.13990916311740875
v -0.33506500720977783 1.1614528894424438 0.13766777515411377
v -0.5892942547798157 1.052970290184021 0.24297301471233368
v -0.5892942547798157 1.052970290184021 -0.24521441757678986
v -0.8333879113197327 0.5258235931396484 0.344079852104187
v -0.8333879709243774 0.5258235931396484 -0.34632134437561035
v -0.5892941951751709 -0.0013231149641796947 0.24297292530536652
v -0.5892942547798157 -0.0013231149641796947 -0.24521438777446747
v -0.13878850638866425 1.1614528894424438 -0.3361856937408447
v -0.33506500720977783 1.1614528894424438 -0.13990916311740875
v -0.5892942547798157 1.052970290184021 -0.24521441757678986
v -0.24409373104572296 1.052970290184021 -0.5904150009155273
v -0.8333879709243774 0.5258235931396484 -0.34632134437561035
v -0.34520068764686584 0.5258235931396484 -0.8345087170600891
v -0.5892942547798157 -0.0013231149641796947 -0.24521438777446747
v -0.24409371614456177 -0.0013231149641796947 -0.5904149413108826
v -0.33506500720977783 1.1614528894424438 0.13766777515411377
v -0.13878844678401947 1.1614528894424438 0.33394429087638855
v -0.24409368634223938 1.052970290184021 0.5881736278533936
v -0.5892942547798157 1.052970290184021 0.24297301471233368
v -0.3452005982398987 0.5258235931396484 0.8322672843933105
v -0.8333879113197327 0.5258235931396484 0.344079852104187
v -0.2440936267375946 -0.0013231149641796947 0.588173508644104
v -0.5892941951751709 -0.0013231149641796947 0.24297292530536652
v 0.13878844678401947 1.1614528894424438 0.3339443504810333
v 0.33506500720977783 1.1614528894424438 0.13766784965991974
v 0.5892942547798157 1.052970290184021 0.24297308921813965
v 0.2440936267375946 1.052970290184021 0.5881736874580383
v 0.8333878517150879 0.5258235931396484 0.34408003091812134
v 0.3452005684375763 0.5258235931396484 0.8322674036026001
v 0.5892942547798157 -0.0013231149641796947 0.24297308921813965
v 0.2440936267375946 -0.0013231149641796947 0.5881736874580383
v -0.13878844678401947 1.1614528894424438 0.33394429087638855
v 0.13878844678401947 1.1614528894424438 0.3339443504810333
v 0.2440936267375946 1.052970290184021 0.5881736874580383
v -0.24409368634223938 1.052970290184021 0.5881736278533936
v 0.3452005684375763 0.5258235931396484 0.8322674036026001
v -0.3452005982398987 0.5258235931396484 0.8322672843933105
v 0.2440936267375946 -0.0013231149641796947 0.5881736874580383
v -0.2440936267375946 -0.0013231149641796947 0.588173508644104
v 0.33506500720977783 1.1614528894424438 0.13766784965991974
v 0.33506497740745544 1.1614528894424438 -0.13990916311740875
v 0.5892942547798157 1.0529704093933105 -0.24521441757678986
v 0.5892942547798157 1.052970290184021 0.24297308921813965
v 0.8333878517150879 0.5258235931396484 -0.3463212847709656
v 0.8333878517150879 0.5258235931396484 0.34408003091812134
v 0.5892941951751709 -0.0013231149641796947 -0.2452143281698227
v 0.5892942547798157 -0.0013231149641796947 0.24297308921813965
v 0.2440936118364334 -0.0013231149641796947 -0.5904149413108826
v 0.5892941951751709 -0.0013231149641796947 -0.2452143281698227
v 0.8333878517150879 0.5258235931396484 -0.3463212847709656
v 0.3452005386352539 0.5258235931396484 -0.8345087170600891
v 0.5892942547798157 1.0529704093933105 -0.24521441757678986
v 0.2440936267375946 1.0529704093933105 -0.5904150009155273
v 0.33506497740745544 1.1614528894424438 -0.13990916311740875
v 0.13878843188285828 1.1614528894424438 -0.3361856937408447
v -0.06643778085708618 1.2765158414840698 -0.04288770258426666
v -0.00023702930775471032 1.41753089427948 -0.01758437417447567
v -0.09953814744949341 1.3537013530731201 -0.09365343302488327
v -0.00023703748593106866 1.24680495262146 -0.10204684734344482
v -0.000237037253100425 1.177489995956421 -0.06282363831996918
v 0.05272355675697327 1.1897035837173462 -0.011290615424513817
v 0.05358470231294632 1.0979443788528442 -0.0005655109998770058
v -0.0002370326401432976 1.0979443788528442 0.053256236016750336
v -0.054058779031038284 1.0979443788528442 -0.0005655015702359378
v -0.00023703261103946716 1.201917052268982 0.04024242237210274
v 0.06596370041370392 1.2765158414840698 -0.04288771003484726
v -0.00023703799524810165 1.2898718118667603 -0.1697225123643875
v 0.09906406700611115 1.3537013530731201 -0.09365344792604446
v -0.000237031708820723 1.3062267303466797 0.016271444037556648
v -0.05319763347506523 1.1897035837173462 -0.011290607042610645
v -0.00023703732586000115 1.0979443788528442 -0.05438724532723427
v -0.00023709822562523186 1.4476256370544434 -0.009662098251283169
vn 1 2.897939737067645e-7 -1.6482013103460465e-16
vn 1 2.897939737067645e-7 -1.6482013103460465e-16
vn 1 2.897939737067645e-7 3.243767305135441e-15
vn 0.9989014267921448 -0.04682869464159012 -0.001724366215057671
vn 0.9989014267921448 -0.04682869464159012 -0.001724366215057671
vn 0.9989014267921448 -0.04682869464159012 -0.001724366215057671
vn 0.9989014267921448 -0.04682869464159012 -0.001724366215057671
vn 0.8433914184570312 -0.04682869464159012 0.5352550745010376
vn 0.8433914184570312 -0.04682869464159012 0.5352550745010376
vn 0.8433914184570312 -0.04682869464159012 0.5352550745010376
vn 0.8433914184570312 -0.04682869464159012 0.5352550745010376
vn -0.6427876353263855 1.6820690973418095e-7 0.7660444378852844
vn -0.6427876353263855 1.6820690973418095e-7 0.7660444378852844
vn -0.6427876353263855 1.6820690973418095e-7 0.7660444378852844
vn -0.6427876353263855 1.6820690973418095e-7 0.7660444378852844
vn 0.030479419976472855 0.9873484969139099 -0.15560826659202576
vn -0.08847957849502563 0.9873484969139099 -0.13158386945724487
vn -3.815069149482042e-8 1 9.705792081149411e-8
vn -0.28894978761672974 0.7441766262054443 -0.6022534370422363
vn 0.22153909504413605 0.7441766262054443 -0.6301758289337158
vn -0.3826834261417389 -8.294585285284484e-8 -0.9238795638084412
vn 0.3826834261417389 -9.479525431288494e-8 -0.9238795638084412
vn -0.19880245625972748 -0.7025927901268005 -0.6832576394081116
vn 0.3425615131855011 -0.7025927901268005 -0.6237106323242188
vn -1.6201861186004862e-8 -1 -2.4109076957046227e-9
vn -0.15560834109783173 0.9873484969139099 -0.030479401350021362
vn -0.13158392906188965 0.9873484969139099 0.08847944438457489
vn -0.6022533774375916 0.7441766858100891 0.2889496982097626
vn -0.6301758289337158 0.7441766262054443 -0.22153909504413605
vn -0.9238795638084412 -8.887055713557857e-8 0.3826833963394165
vn -0.9238795042037964 -8.887057134643328e-8 -0.3826834261417389
vn -0.6832575798034668 -0.7025927901268005 0.19880248606204987
vn -0.6237106323242188 -0.7025927901268005 -0.3425614833831787
vn -0.08847957849502563 0.9873484969139099 -0.13158386945724487
vn -0.15560834109783173 0.9873484969139099 -0.030479401350021362
vn -0.6301758289337158 0.7441766262054443 -0.22153909504413605
vn -0.28894978761672974 0.7441766262054443 -0.6022534370422363
vn -0.9238795042037964 -8.887057134643328e-8 -0.3826834261417389
vn -0.3826834261417389 -8.294585285284484e-8 -0.9238795638084412
vn -0.6237106323242188 -0.7025927901268005 -0.3425614833831787
vn -0.19880245625972748 -0.7025927901268005 -0.6832576394081116
vn -0.13158392906188965 0.9873484969139099 0.08847944438457489
vn -0.03047947585582733 0.9873484969139099 0.15560831129550934
vn -0.22153913974761963 0.7441766262054443 0.6301758289337158
vn -0.6022533774375916 0.7441766858100891 0.2889496982097626
vn -0.38268351554870605 -9.479525431288494e-8 0.9238795042037964
vn -0.9238795638084412 -8.887055713557857e-8 0.3826833963394165
vn -0.3425615727901459 -0.7025927901268005 0.6237106323242188
vn -0.6832575798034668 -0.7025927901268005 0.19880248606204987
vn 0.08847944438457489 0.9873484969139099 0.13158395886421204
vn 0.15560831129550934 0.9873484969139099 0.030479563400149345
vn 0.630175769329071 0.7441766858100891 0.2215391844511032
vn 0.2889496982097626 0.7441766858100891 0.6022533774375916
vn 0.9238795042037964 -4.147292642642242e-8 0.3826834559440613
vn 0.3826833665370941 -4.147292642642242e-8 0.9238795638084412
vn 0.6237106323242188 -0.7025927901268005 0.3425615429878235
vn 0.1988023966550827 -0.7025927901268005 0.6832576394081116
vn -0.03047947585582733 0.9873484969139099 0.15560831129550934
vn 0.08847944438457489 0.9873484969139099 0.13158395886421204
vn 0.2889496982097626 0.7441766858100891 0.6022533774375916
vn -0.22153913974761963 0.7441766262054443 0.6301758289337158
vn 0.3826833665370941 -4.147292642642242e-8 0.9238795638084412
vn -0.38268351554870605 -9.479525431288494e-8 0.9238795042037964
vn 0.1988023966550827 -0.7025927901268005 0.6832576394081116
vn -0.3425615727901459 -0.7025927901268005 0.6237106323242188
vn 0.15560831129550934 0.9873484969139099 0.030479563400149345
vn 0.13158395886421204 0.9873484969139099 -0.08847933262586594
vn 0.6022533774375916 0.7441766858100891 -0.28894972801208496
vn 0.630175769329071 0.7441766858100891 0.2215391844511032
vn 0.9238795638084412 -1.0664466287835239e-7 -0.3826833963394165
vn 0.9238795042037964 -4.147292642642242e-8 0.3826834559440613
vn 0.6832576394081116 -0.7025927901268005 -0.19880247116088867
vn 0.6237106323242188 -0.7025927901268005 0.3425615429878235
vn 0.3425615131855011 -0.7025927901268005 -0.6237106323242188
vn 0.6832576394081116 -0.7025927901268005 -0.19880247116088867
vn 0.9238795638084412 -1.0664466287835239e-7 -0.3826833963394165
vn 0.3826834261417389 -9.479525431288494e-8 -0.9238795638084412
vn 0.6022533774375916 0.7441766858100891 -0.28894972801208496
vn 0.22153909504413605 0.7441766262054443 -0.6301758289337158
vn 0.13158395886421204 0.9873484969139099 -0.08847933262586594
vn 0.030479419976472855 0.9873484969139099 -0.15560826659202576
vn -0.9804423451423645 -0.17281123995780945 0.09417551010847092
vn -0.327401340007782 0.6469364166259766 0.6886810660362244
vn -0.8036324977874756 0.20603351294994354 -0.558323323726654
vn -0.003701144829392433 -0.6779986619949341 -0.7350538372993469
vn -0.0009864317253232002 -0.3021375834941864 -0.9532638192176819
vn 0.993928849697113 -0.10468500852584839 0.033859167248010635
vn 0.948040246963501 -0.027692358940839767 -0.31694287061691284
vn 0.3143574297428131 0.11824128776788712 0.9419121146202087
vn -0.9479754567146301 0.04537754878401756 0.3150927424430847
vn -0.0018160546896979213 0.17116189002990723 0.9852412343025208
vn 0.9570333957672119 -0.2503542900085449 0.14632102847099304
vn 0.2932901382446289 -0.47365275025367737 -0.8304420113563538
vn 0.8350845575332642 0.5360000133514404 -0.12384559959173203
vn -0.007835699245333672 0.2441081702709198 0.9697163701057434
vn -0.9996982216835022 -0.021535824984312057 0.011817260645329952
vn -0.3141365945339203 -0.10057514905929565 -0.9440354108810425
vn 1 2.897939737067645e-7 -3.573407540734871e-15
vt 0.5047145485877991 0.7466889023780823
vt 0.6221339106559753 0.5132530331611633
vt 0.5047145485877991 0.5132530331611633
vt 0.5034633874893188 0.5124916434288025
vt 0.6224501729011536 0.5124916434288025
vt 0.5034633874893188 0.7470921277999878
vt 0.6224501729011536 0.7470921277999878
vt 0.5024112462997437 0.514122486114502
vt 0.6230518817901611 0.514122486114502
vt 0.5024112462997437 0.7474940419197083
vt 0.6230518817901611 0.7474940419197083
vt 0.6226394176483154 0.5130634307861328
vt 0.504419207572937 0.7464553713798523
vt 0.6226394176483154 0.7464553713798523
vt 0.504419207572937 0.5130634307861328
vt 0.46137088537216187 0.725757360458374
vt 0.41253745555877686 0.725757360458374
vt 0.4374329447746277 0.7482982277870178
vt 0.39434462785720825 0.7056399583816528
vt 0.47956377267837524 0.7056399583816528
vt 0.3792313039302826 0.6227282285690308
vt 0.49775660037994385 0.6227282285690308
vt 0.39434462785720825 0.5270868539810181
vt 0.47956377267837524 0.5270868539810181
vt 0.4374329447746277 0.505616307258606
vt 0.46137088537216187 0.725757360458374
vt 0.41253745555877686 0.725757360458374
vt 0.39434462785720825 0.7056399583816528
vt 0.47956377267837524 0.7056399583816528
vt 0.3792313039302826 0.6227282285690308
vt 0.49775660037994385 0.6227282285690308
vt 0.39434462785720825 0.5270868539810181
vt 0.47956377267837524 0.5270868539810181
vt 0.46137088537216187 0.725757360458374
vt 0.41253745555877686 0.725757360458374
vt 0.39434462785720825 0.7056399583816528
vt 0.47956377267837524 0.7056399583816528
vt 0.3792313039302826 0.6227282285690308
vt 0.49775660037994385 0.6227282285690308
vt 0.39434462785720825 0.5270868539810181
vt 0.47956377267837524 0.5270868539810181
vt 0.46137088537216187 0.725757360458374
vt 0.41253745555877686 0.725757360458374
vt 0.39434462785720825 0.7056399583816528
vt 0.47956377267837524 0.7056399583816528
vt 0.3792313039302826 0.6227282285690308
vt 0.49775660037994385 0.6227282285690308
vt 0.39434462785720825 0.5270868539810181
vt 0.47956377267837524 0.5270868539810181
vt 0.46137088537216187 0.725757360458374
vt 0.41253745555877686 0.725757360458374
vt 0.39434462785720825 0.7056399583816528
vt 0.47956377267837524 0.7056399583816528
vt 0.3792313039302826 0.6227282285690308
vt 0.49775660037994385 0.6227282285690308
vt 0.39434462785720825 0.5270868539810181
vt 0.47956377267837524 0.5270868539810181
vt 0.46137088537216187 0.725757360458374
vt 0.41253745555877686 0.725757360458374
vt 0.39434462785720825 0.7056399583816528
vt 0.47956377267837524 0.7056399583816528
vt 0.3792313039302826 0.6227282285690308
vt 0.49775660037994385 0.6227282285690308
vt 0.39434462785720825 0.5270868539810181
vt 0.47956377267837524 0.5270868539810181
vt 0.46137088537216187 0.725757360458374
vt 0.41253745555877686 0.725757360458374
vt 0.39434462785720825 0.7056399583816528
vt 0.47956377267837524 0.7056399583816528
vt 0.3792313039302826 0.6227282285690308
vt 0.49775660037994385 0.6227282285690308
vt 0.39434462785720825 0.5270868539810181
vt 0.47956377267837524 0.5270868539810181
vt 0.39434462785720825 0.5270868539810181
vt 0.47956377267837524 0.5270868539810181
vt 0.49775660037994385 0.6227282285690308
vt 0.3792313039302826 0.6227282285690308
vt 0.47956377267837524 0.7056399583816528
vt 0.39434462785720825 0.7056399583816528
vt 0.46137088537216187 0.725757360458374
vt 0.41253745555877686 0.725757360458374
vt 0.3825065493583679 0.7172840237617493
vt 0.3766269385814667 0.7466822266578674
vt 0.38642629981040955 0.7466822266578674
vt 0.38838618993759155 0.7153241038322449
vt 0.3844664394855499 0.6996451020240784
vt 0.3805466890335083 0.701604962348938
vt 0.3781234323978424 0.6774790287017822
vt 0.3761635720729828 0.6774790287017822
vt 0.3781234323978424 0.6774790287017822
vt 0.3766269385814667 0.7035648226737976
vt 0.3825065493583679 0.7172840237617493
vt 0.3962257206439972 0.7466822266578674
vt 0.38642629981040955 0.7388426661491394
vt 0.3766269385814667 0.7212038040161133
vt 0.3805466890335083 0.701604962348938
vt 0.3820432126522064 0.6755191683769226
vt 0.6221339106559753 0.7466889023780823
g Geoset0
s 1
usemtl mat_cemetery01
f 1/1/1 2/2/2 3/3/3
f 4/4/4 5/5/5 6/6/6
f 7/7/7 6/6/6 5/5/5
f 8/8/8 9/9/9 10/10/10
f 11/11/11 10/10/10 9/9/9
f 12/12/12 13/13/13 14/14/14
f 13/13/13 12/12/12 15/15/15
f 16/16/16 17/17/17 18/18/18
f 16/16/16 19/19/19 17/17/17
f 20/20/20 19/19/19 16/16/16
f 21/21/21 19/19/19 20/20/20
f 22/22/22 21/21/21 20/20/20
f 23/23/23 21/21/21 22/22/22
f 24/24/24 23/23/23 22/22/22
f 23/23/23 24/24/24 25/25/25
f 26/26/26 27/27/27 18/18/18
f 26/26/26 28/28/28 27/27/27
f 29/29/29 28/28/28 26/26/26
f 30/30/30 28/28/28 29/29/29
f 31/31/31 30/30/30 29/29/29
f 32/32/32 30/30/30 31/31/31
f 33/33/33 32/32/32 31/31/31
f 32/32/32 33/33/33 25/25/25
f 34/34/34 35/35/35 18/18/18
f 34/34/34 36/36/36 35/35/35
f 37/37/37 36/36/36 34/34/34
f 38/38/38 36/36/36 37/37/37
f 39/39/39 38/38/38 37/37/37
f 40/40/40 38/38/38 39/39/39
f 41/41/41 40/40/40 39/39/39
f 40/40/40 41/41/41 25/25/25
f 42/42/42 43/43/43 18/18/18
f 42/42/42 44/44/44 43/43/43
f 45/45/45 44/44/44 42/42/42
f 46/46/46 44/44/44 45/45/45
f 47/47/47 46/46/46 45/45/45
f 48/48/48 46/46/46 47/47/47
f 49/49/49 48/48/48 47/47/47
f 48/48/48 49/49/49 25/25/25
f 50/50/50 51/51/51 18/18/18
f 50/50/50 52/52/52 51/51/51
f 53/53/53 52/52/52 50/50/50
f 54/54/54 52/52/52 53/53/53
f 55/55/55 54/54/54 53/53/53
f 56/56/56 54/54/54 55/55/55
f 57/57/57 56/56/56 55/55/55
f 56/56/56 57/57/57 25/25/25
f 58/58/58 59/59/59 18/18/18
f 58/58/58 60/60/60 59/59/59
f 61/61/61 60/60/60 58/58/58
f 62/62/62 60/60/60 61/61/61
f 63/63/63 62/62/62 61/61/61
f 64/64/64 62/62/62 63/63/63
f 65/65/65 64/64/64 63/63/63
f 64/64/64 65/65/65 25/25/25
f 66/66/66 67/67/67 18/18/18
f 66/66/66 68/68/68 67/67/67
f 69/69/69 68/68/68 66/66/66
f 70/70/70 68/68/68 69/69/69
f 71/71/71 70/70/70 69/69/69
f 72/72/72 70/70/70 71/71/71
f 73/73/73 72/72/72 71/71/71
f 72/72/72 73/73/73 25/25/25
f 74/74/74 75/75/75 25/25/25
f 75/75/75 74/74/74 76/76/76
f 74/74/74 77/77/77 76/76/76
f 76/76/76 77/77/77 78/78/78
f 77/77/77 79/79/79 78/78/78
f 78/78/78 79/79/79 80/80/80
f 80/80/80 79/79/79 81/81/81
f 80/80/80 81/81/81 18/18/18
f 82/82/82 83/83/83 84/84/84
f 85/85/85 82/82/82 84/84/84
f 86/86/86 82/82/82 85/85/85
f 87/87/87 86/86/86 85/85/85
f 88/88/88 86/86/86 87/87/87
f 89/89/89 88/88/88 87/87/87
f 90/90/90 89/89/89 91/91/91
f 89/89/89 87/87/87 91/91/91
f 91/91/91 87/87/87 92/92/92
f 87/87/87 85/85/85 92/92/92
f 92/92/92 93/93/93 94/94/94
f 95/95/95 92/92/92 94/94/94
f 91/91/91 92/92/92 95/95/95
f 96/96/96 91/91/91 95/95/95
f 90/90/90 91/91/91 96/96/96
f 97/97/97 90/90/90 96/96/96
f 92/92/92 85/85/85 93/93/93
f 85/85/85 84/84/84 93/93/93
f 94/94/94 93/93/93 84/84/84
f 94/94/94 84/84/84 83/83/83
f 95/95/95 94/94/94 83/83/83
f 82/82/82 95/95/95 83/83/83
f 96/96/96 95/95/95 82/82/82
f 86/86/86 96/96/96 82/82/82
f 97/97/97 96/96/96 86/86/86
f 88/88/88 97/97/97 86/86/86
f 2/2/2 1/1/1 98/98/98