# Exported using wow.export v0.1.49
o 
mtllib swampskulls02.mtl
v -0.3007834851741791 2.017691135406494 -0.0694817379117012
v -0.15289834141731262 2.0808956623077393 -0.28767523169517517
v -0.2942323386669159 1.7762417793273926 -0.1604936271905899
v -0.18014471232891083 1.9085123538970947 -0.2683882713317871
v 0.10318735986948013 2.1200008392333984 -0.29874441027641296
v -0.04049667716026306 2.2373831272125244 -0.138629749417305
v 0.15194690227508545 2.0812060832977295 -0.04086293652653694
v -0.0694156140089035 2.0478286743164062 0.13586007058620453
v -0.22112241387367249 2.1016476154327393 0.0759262964129448
v -0.2497875690460205 1.9410786628723145 0.10891634225845337
v -0.060067109763622284 1.7624472379684448 0.10588584840297699
v 0.09620866179466248 1.832694172859192 -0.0443720705807209
v 0.0841548964381218 1.9165115356445312 -0.326617032289505
v -0.2522691488265991 1.7432993650436401 0.1122300997376442
v 0.07812944799661636 -0.05763336643576622 -0.22786565124988556
v -0.21044492721557617 -0.05763336643576622 -0.04402315616607666
v -0.1550239473581314 2.0059196949005127 -0.20192502439022064
v -0.06321895122528076 2.515730142593384 -0.12085411697626114
v -0.1803908348083496 2.0735387802124023 0.02019449695944786
v 0.03669844940304756 2.0484859943389893 -0.05885244160890579
v -0.02660287916660309 -0.05763336643576622 0.2445511519908905
v 0.013963130302727222 2.044426679611206 -0.23089919984340668
v 0.2619716227054596 -0.05763336643576622 0.060709092766046524
v 0.2558915317058563 1.6720610857009888 -0.038325656205415726
v -0.029274292290210724 1.3337706327438354 -0.41277509927749634
v 0.07812944799661636 -0.05763336643576622 -0.22786565124988556
v -0.21044492721557617 -0.05763336643576622 -0.04402315616607666
v 0.07812944799661636 -0.05763336643576622 -0.22786565124988556
v -0.029274292290210724 1.3337706327438354 -0.41277509927749634
v -0.3357008993625641 1.3146644830703735 -0.0383257158100605
v -0.02660287916660309 -0.05763336643576622 0.2445511519908905
v -0.21044492721557617 -0.05763336643576622 -0.04402315616607666
v -0.3357008993625641 1.3146644830703735 -0.0383257158100605
v -0.02691779099404812 1.6321027278900146 0.4046134352684021
v 0.2619716227054596 -0.05763336643576622 0.060709092766046524
v -0.02660287916660309 -0.05763336643576622 0.2445511519908905
v -0.02691779099404812 1.6321027278900146 0.4046134352684021
v 0.2558915317058563 1.6720610857009888 -0.038325656205415726
v 0.2619716227054596 -0.05763336643576622 0.060709092766046524
vn -0.9151519536972046 0.39908406138420105 -0.056822411715984344
vn -0.5629268288612366 0.36517971754074097 -0.741456151008606
vn -0.971759021282196 0.029917415231466293 -0.23407131433486938
vn -0.33565258979797363 0.027528373524546623 -0.941583514213562
vn 0.5697056651115417 0.32715079188346863 -0.7539282441139221
vn -0.09425373375415802 0.9950447678565979 0.031656667590141296
vn 0.8415209054946899 0.2812548875808716 0.46123555302619934
vn 0.15611585974693298 0.39129412174224854 0.9069271087646484
vn -0.5472702980041504 0.6308267116546631 0.5500481128692627
vn -0.6562530994415283 0.059256069362163544 0.7522104382514954
vn 0.35171404480934143 -0.08752941340208054 0.9320063591003418
vn 0.9750058054924011 -0.17020870745182037 0.1428029090166092
vn 0.6008961796760559 0.05304311588406563 -0.7975651621818542
vn -0.6383200883865356 0.020901639014482498 0.769487202167511
vn 0.058643124997615814 -0.01334321592003107 -0.9981898069381714
vn -0.9843089580535889 -0.015249863266944885 -0.17579352855682373
vn -0.6795249581336975 0.08334887772798538 -0.7289024591445923
vn 0.17951418459415436 0.8971552848815918 -0.40359267592430115
vn -0.6965644359588623 0.17788459360599518 0.69509357213974
vn 0.7859792709350586 0.1751827746629715 0.5929144620895386
vn 0.01857934147119522 0.09656334668397903 0.9951534271240234
vn 0.6559159755706787 0.13426418602466583 -0.7427970170974731
vn 0.9928823113441467 0.09564181417226791 0.07097413390874863
vn -0.9727489352226257 0.0006161387427709997 0.23186010122299194
vn 0.2368059754371643 0.01582089439034462 0.9714281558990479
vn -0.48984208703041077 0.012398465536534786 0.8717229962348938
vn 0.9161826968193054 0.018116315826773643 0.4003511965274811
vn -0.48984208703041077 0.012398465536534786 0.8717229962348938
vn 0.2368059754371643 0.01582089439034462 0.9714281558990479
vn 0.9791145920753479 0.01170666515827179 -0.20297186076641083
vn 0.48799780011177063 0.013482538051903248 -0.8727407455444336
vn 0.9161826968193054 0.018116315826773643 0.4003511965274811
vn 0.9791145920753479 0.01170666515827179 -0.20297186076641083
vn -0.27988409996032715 0.007049079984426498 -0.960007905960083
vn -0.9345324039459229 0.004389132373034954 -0.35585102438926697
vn 0.48799780011177063 0.013482538051903248 -0.8727407455444336
vn -0.27988409996032715 0.007049079984426498 -0.960007905960083
vn -0.9727489352226257 0.0006161387427709997 0.23186010122299194
vn -0.9345324039459229 0.004389132373034954 -0.35585102438926697
vt 0.790149450302124 0.8422262072563171
vt 0.5085608959197998 0.5967805981636047
vt 0.7284068465232849 0.07610011100769043
vt 0.372506707906723 0.2590373754501343
vt 0.03024456650018692 0.9666465520858765
vt 0.4896393418312073 1.0051637887954712
vt 0.46984386444091797 0.6177439093589783
vt 0.7524388432502747 0.7134425044059753
vt 0.9861338138580322 0.982283353805542
vt 0.993561327457428 0.5778964161872864
vt 0.7036283612251282 0.08951640129089355
vt 0.3947611153125763 0.2583543658256531
vt 0.04665948450565338 0.41790342330932617
vt 0.9911927580833435 0.022838234901428223
vt 0.9935798048973083 0.000499427318572998
vt 0.004637956619262695 0.000499427318572998
vt 0.004637956619262695 0.8624321818351746
vt 0.49013224244117737 0.999500572681427
vt 0.9931974411010742 0.8624321818351746
vt 0.004637777805328369 0.8624321818351746
vt 0.9931974411010742 0.000499427318572998
vt 0.9935798048973083 0.8624321818351746
vt 0.004637777805328369 0.000499427318572998
vt 1 1
vt 0 1
vt 0 0
vt 0 0
vt 1 0
vt 1 1
vt 0 1
vt 0 0
vt 1 0
vt 1 1
vt 0 1
vt 0 0
vt 1 0
vt 1 1
vt 0 1
vt 1 0
g Geoset0
s 1
usemtl mat_battlegladeskull04green
f 1/1/1 2/2/2 3/3/3
f 4/4/4 3/3/3 2/2/2
f 2/2/2 5/5/5 4/4/4
f 6/6/6 5/5/5 2/2/2
f 6/6/6 7/7/7 5/5/5
f 7/7/7 6/6/6 8/8/8
f 6/6/6 9/9/9 8/8/8
f 2/2/2 1/1/1 6/6/6
f 6/6/6 1/1/1 9/9/9
f 9/9/9 1/1/1 10/10/10
f 9/9/9 10/10/10 8/8/8
f 8/8/8 10/10/10 11/11/11
f 8/8/8 11/11/11 7/7/7
f 12/12/12 7/7/7 11/11/11
f 7/7/7 12/12/12 5/5/5
f 13/13/13 5/5/5 12/12/12
f 13/13/13 4/4/4 5/5/5
f 11/11/11 10/10/10 14/14/14
f 3/3/3 14/14/14 10/10/10
f 1/1/1 3/3/3 10/10/10
g Geoset1
s 1
usemtl mat_swampdocksupport
f 15/15/15 16/16/16 17/17/17
f 18/18/18 19/19/19 20/20/20
f 16/16/16 21/21/21 19/19/19
f 16/16/16 19/19/19 17/17/17
f 18/18/18 17/17/17 19/19/19
f 18/18/18 22/22/22 17/17/17
f 18/18/18 20/20/20 22/22/22
f 21/21/21 20/20/20 19/19/19
f 21/21/21 23/23/23 20/20/20
f 23/23/23 22/22/22 20/20/20
f 23/23/23 15/15/15 22/22/22
f 15/15/15 17/17/17 22/22/22
g Geoset2
s 1
usemtl mat_swampreeds01a
f 24/24/24 25/25/25 26/26/26
f 27/27/27 28/28/28 29/29/29
f 29/29/29 30/30/30 27/27/27
f 31/31/31 32/32/32 33/33/33
f 33/33/33 34/34/34 31/31/31
f 35/35/35 36/36/36 37/37/37
f 37/37/37 38/38/38 35/35/35
f 26/26/26 39/39/39 24/24/24