# Exported using wow.export v0.1.49
o 
mtllib swampskulls01.mtl
v 0.2966320514678955 1.5247912406921387 -0.030641652643680573
v 0.22322411835193634 1.7778818607330322 -0.12047626078128815
v 0.41649138927459717 1.4643093347549438 0.19324007630348206
v -0.3421379327774048 1.6987218856811523 0.05993156507611275
v -0.33379101753234863 1.4439170360565186 0.03316882625222206
v -0.14449281990528107 1.7285231351852417 -0.09785685688257217
v -0.5031842589378357 1.6034092903137207 0.0358746200799942
v -0.5054000020027161 1.4268207550048828 0.03883334994316101
v -0.542867124080658 1.4562336206436157 -0.2046700268983841
v -0.19425909221172333 1.5066373348236084 -0.10099003463983536
v -0.20502138137817383 1.5814743041992188 -0.35299450159072876
v -0.44100314378738403 1.5743321180343628 -0.301004558801651
v -0.18802811205387115 1.763161301612854 -0.3281082212924957
v -0.41667604446411133 1.7282459735870361 -0.31822502613067627
v -0.31631743907928467 1.8679670095443726 -0.1851486712694168
v -0.5487163662910461 1.6718133687973022 -0.12340940535068512
v -0.477590411901474 1.746774435043335 0.0064192600548267365
v 0.3725772202014923 2.4753599166870117 0.25305089354515076
v 0.41996923089027405 2.202618360519409 0.25320011377334595
v 0.42793965339660645 2.3944218158721924 0.05647604912519455
v 0.33415067195892334 2.550107955932617 0.06785302609205246
v 0.2343832105398178 2.450881242752075 -0.0567796416580677
v 0.024246688932180405 2.616137742996216 0.1938113570213318
v 0.11559455841779709 2.47576642036438 0.4012054204940796
v 0.15811343491077423 2.238003969192505 0.4005168676376343
v -0.0728561133146286 2.2256009578704834 0.34308552742004395
v -0.14454373717308044 2.434337615966797 0.295721173286438
v -0.06420363485813141 2.400364875793457 0.018803389742970467
v 0.06761482357978821 2.1583659648895264 0.06070876866579056
v 0.30481040477752686 2.1474764347076416 -0.015547141432762146
v 0.4958786964416504 2.189051866531372 0.06502708792686462
v 0.03853027895092964 1.9038704633712769 0.054255563765764236
v 0.09320328384637833 1.6721431016921997 0.33767959475517273
v 0.24012936651706696 1.7979161739349365 0.2956107258796692
v -0.10332057625055313 1.6995538473129272 0.12799790501594543
v 0.11158021539449692 1.549425721168518 -0.14922574162483215
v -0.022128663957118988 1.756529450416565 -0.06118202209472656
v -0.03459919989109039 1.5113584995269775 0.07798021286725998
v 0.1839640885591507 1.4140710830688477 0.35833248496055603
v 0.30391278862953186 1.6365015506744385 0.3314995765686035
v 0.35210517048835754 1.7666964530944824 0.15435895323753357
v 0.3520117402076721 1.431698203086853 0.3353540003299713
v 0.0616299994289875 2.721755027770996 0.10070013999938965
v -0.015581239014863968 -0.05763331428170204 -0.13264842331409454
v -0.000656397663988173 -0.05763331428170204 0.20918522775173187
v -0.33617493510246277 2.1596102714538574 -0.16959837079048157
v -0.25899285078048706 1.6883070468902588 -0.2796434462070465
v -0.4279799163341522 1.6498000621795654 -0.25066930055618286
v -0.010984189808368683 -0.05763336643576622 0.01196454931050539
v -0.19482633471488953 -0.05763336643576622 -0.27661022543907166
v -0.23625752329826355 1.6923662424087524 -0.10759669542312622
v -0.45334678888320923 1.7174187898635864 -0.028549756854772568
v -0.48340073227882385 -0.05763336643576622 -0.09276770055294037
v -0.2995586693286896 -0.05763336643576622 0.1958065927028656
v 0.2450745850801468 1.7289118766784668 -0.56102055311203
v 0.28056851029396057 1.2616676092147827 -0.37785619497299194
v 0.3469027578830719 1.257608413696289 -0.5382207632064819
v -0.060728609561920166 -0.057633306831121445 -0.24237892031669617
v 0.25538554787635803 -0.057633306831121445 -0.1114400252699852
v 0.05304041877388954 1.2867199182510376 -0.4179442822933197
v 0.18606874346733093 1.2191016674041748 -0.5976220965385437
v 0.38632455468177795 -0.057633306831121445 -0.4275544285774231
v 0.07021015137434006 -0.057633306831121445 -0.55849289894104
v 0.24240173399448395 2.6993613243103027 0.26495376229286194
v 0.23664361238479614 2.7024834156036377 0.13158400356769562
v 0.16279785335063934 3.211683750152588 0.23168542981147766
v 0.32625263929367065 -0.05763331428170204 -0.14757338166236877
v 0.11051657795906067 2.6697404384613037 0.26557740569114685
v 0.3411775231361389 -0.05763331428170204 0.19426077604293823
v 0.3613738715648651 2.1002604961395264 0.07872360199689865
v 0.28020206093788147 2.1474609375 0.3489096462726593
v 0.3449915051460266 1.8338227272033691 0.07812800258398056
v 0.26622116565704346 1.914979338645935 0.3470351994037628
v 0.024744922295212746 2.1665995121002197 0.4450458884239197
v 0.1079116240143776 2.3071162700653076 0.244497612118721
v -0.10559744387865067 2.12968111038208 0.2000424563884735
v 0.06055823341012001 2.1187641620635986 -0.05067190155386925
v 0.22817540168762207 2.1863090991973877 -0.03666382655501366
v 0.25744882225990295 2.020928382873535 -0.08794429153203964
v 0.08119959384202957 1.8169915676116943 -0.03343978151679039
v -0.031072884798049927 1.8729923963546753 0.17172087728977203
v 0.06730805337429047 1.953392505645752 0.45553627610206604
v 0.23485279083251953 1.8132930994033813 -0.03635287657380104
v -0.017064251005649567 1.6720610857009888 -0.08707012981176376
v -0.3022300899028778 1.3337706327438354 -0.4615195691585541
v -0.19482633471488953 -0.05763336643576622 -0.27661022543907166
v -0.015581239014863968 -0.05763331428170204 -0.13264842331409454
v 0.32625263929367065 -0.05763331428170204 -0.14757338166236877
v 0.2189900279045105 1.1957900524139404 -0.19425047934055328
v -0.08743657171726227 1.1766839027404785 0.03809022530913353
v -0.000656397663988173 -0.05763331428170204 0.20918522775173187
v -0.015581239014863968 -0.05763331428170204 -0.13264842331409454
v -0.08743657171726227 1.1766839027404785 0.03809022530913353
v 0.22134652733802795 1.0067996978759766 0.48102936148643494
v 0.3411775231361389 -0.05763331428170204 0.19426077604293823
v -0.000656397663988173 -0.05763331428170204 0.20918522775173187
v 0.22134652733802795 1.0067996978759766 0.48102936148643494
v 0.5041558742523193 1.0467580556869507 0.03809027746319771
v 0.32625263929367065 -0.05763331428170204 -0.14757338166236877
v 0.3411775231361389 -0.05763331428170204 0.19426077604293823
v 0.5041558742523193 1.0467580556869507 0.03809027746319771
v 0.2189900279045105 1.1957900524139404 -0.19425047934055328
v -0.48340073227882385 -0.05763336643576622 -0.09276770055294037
v -0.19482633471488953 -0.05763336643576622 -0.27661022543907166
v -0.3022300899028778 1.3337706327438354 -0.4615195691585541
v -0.6086567044258118 1.3146644830703735 -0.08707018196582794
v -0.2995586693286896 -0.05763336643576622 0.1958065927028656
v -0.48340073227882385 -0.05763336643576622 -0.09276770055294037
v -0.6086567044258118 1.3146644830703735 -0.08707018196582794
v -0.29987359046936035 1.6321027278900146 0.35586896538734436
v -0.010984189808368683 -0.05763336643576622 0.01196454931050539
v -0.2995586693286896 -0.05763336643576622 0.1958065927028656
v -0.29987359046936035 1.6321027278900146 0.35586896538734436
v -0.017064251005649567 1.6720610857009888 -0.08707012981176376
v -0.010984189808368683 -0.05763336643576622 0.01196454931050539
vn 0.736885666847229 -0.026043623685836792 -0.6755155324935913
vn 0.4936789274215698 0.40614184737205505 -0.7689797878265381
vn 0.9815187454223633 0.19135935604572296 -0.0016101187793537974
vn 0.15611574053764343 0.3912939727306366 0.9069271683692932
vn 0.35171401500701904 -0.08752939850091934 0.9320063591003418
vn 0.8415209650993347 0.28125476837158203 0.46123552322387695
vn -0.6562530994415283 0.05925600975751877 0.7522104382514954
vn -0.6383200287818909 0.020901856943964958 0.7694872617721558
vn -0.971759021282196 0.029917484149336815 -0.2340712547302246
vn 0.9750058054924011 -0.17020867764949799 0.1428028792142868
vn 0.6008961796760559 0.05304313078522682 -0.7975651621818542
vn -0.33565255999565125 0.027528412640094757 -0.941583514213562
vn 0.5697057843208313 0.3271505832672119 -0.7539282441139221
vn -0.5629268288612366 0.36517956852912903 -0.7414562106132507
vn -0.0942537784576416 0.9950447678565979 0.03165668994188309
vn -0.9151520729064941 0.39908385276794434 -0.056822314858436584
vn -0.5472704172134399 0.6308264136314392 0.5500482320785522
vn 0.6798491477966309 0.5908774733543396 0.43436047434806824
vn 0.7705759406089783 0.17563708126544952 0.612669825553894
vn 0.8607896566390991 0.30361732840538025 -0.4084821343421936
vn 0.5088921189308167 0.8033414483070374 -0.3093078136444092
vn 0.11513296514749527 0.3986343443393707 -0.9098544120788574
vn -0.20043882727622986 0.978897750377655 -0.03979276493191719
vn 0.05427185446023941 0.3470253348350525 0.9362841248512268
vn 0.13963139057159424 0.02210337482392788 0.989956796169281
vn -0.8248806595802307 -0.29007479548454285 0.48520976305007935
vn -0.8648905754089355 0.34179818630218506 0.3676115572452545
vn -0.7028000354766846 -0.027453076094388962 -0.7108575105667114
vn -0.6144975423812866 -0.44725778698921204 -0.6498871445655823
vn 0.09781880676746368 -0.11286319047212601 -0.9887837767601013
vn 0.8722904920578003 0.271634966135025 -0.4066001772880554
vn -0.2717435359954834 0.961141049861908 0.0486137792468071
vn -0.35627418756484985 0.3204724192619324 0.8777050375938416
vn 0.24777942895889282 0.6934307813644409 0.6765789985656738
vn -0.9595487117767334 0.0718592181801796 0.27221769094467163
vn -0.21517212688922882 -0.07609213143587112 -0.9736071825027466
vn -0.7046746015548706 0.219000905752182 -0.6748868823051453
vn -0.921710193157196 -0.334359347820282 -0.19660647213459015
vn -0.3908824622631073 -0.1373135894536972 0.9101405739784241
vn 0.5215253829956055 0.23755110800266266 0.8195003271102905
vn 0.7862950563430786 0.6095390915870667 0.10100618004798889
vn 0.5659565925598145 0.14818085730075836 0.8110089898109436
vn -0.8793671131134033 0.16067740321159363 -0.44821450114250183
vn -0.405304491519928 0.09441359341144562 -0.9092932939529419
vn -0.8194067478179932 0.014808054082095623 0.5730211734771729
vn 0.17951424419879913 0.8971552848815918 -0.40359267592430115
vn 0.655019998550415 0.14051498472690582 -0.7424314022064209
vn -0.679458737373352 0.0814303606748581 -0.7291809916496277
vn 0.99091637134552 0.1148030012845993 0.07003583014011383
vn 0.05885779485106468 -0.01614697091281414 -0.9981358051300049
vn 0.7842031717300415 0.19082851707935333 0.5904319286346436
vn -0.6959850788116455 0.18684905767440796 0.6933196783065796
vn -0.984207808971405 -0.01844741590321064 -0.1760532110929489
vn 0.01859920658171177 0.11582883447408676 0.9930950403213501
vn 0.4101361334323883 0.8568789958953857 -0.31232473254203796
vn 0.30267027020454407 0.24754871428012848 0.9203859567642212
vn 0.9744524359703064 0.08270716667175293 -0.20881088078022003
vn -0.6859525442123413 0.1693534553050995 0.7076641321182251
vn 0.6544678807258606 0.13774533569812775 0.7434366345405579
vn -0.9635837078094482 0.24718478322029114 0.1020103245973587
vn -0.11907067894935608 0.020968526601791382 -0.9926643371582031
vn 0.7489279508590698 -0.03179612755775452 -0.6618881225585938
vn -0.5723716616630554 0.007987931370735168 -0.8199554085731506
vn 0.8448001146316528 0.07430242747068405 0.5298980474472046
vn 0.6026182770729065 0.1508851796388626 -0.783635675907135
vn 0.34215596318244934 0.811294436454773 0.4740576148033142
vn 0.8725468516349792 0.07714679837226868 -0.4824005663394928
vn -0.45698466897010803 0.03922957554459572 0.8886090517044067
vn 0.47401490807533264 -0.004865306429564953 0.8805033564567566
vn 0.8893736600875854 0.4121701717376709 -0.19781377911567688
vn 0.7777022123336792 0.32221370935440063 0.5397754907608032
vn 0.9804117679595947 -0.11551664769649506 -0.1595265120267868
vn 0.65191251039505 0.019098788499832153 0.7580536603927612
vn -0.32353925704956055 0.2833317518234253 0.9027986526489258
vn 0.012843199074268341 0.9998956918716431 -0.006604192312806845
vn -0.9598698616027832 0.22640419006347656 -0.1655023843050003
vn -0.4552183151245117 0.4039992690086365 -0.7934487462043762
vn 0.30638018250465393 0.68849116563797 -0.657351553440094
vn 0.39858272671699524 0.001218369579873979 -0.9171316027641296
vn -0.5489333271980286 -0.17009083926677704 -0.8183772563934326
vn -0.9575625061988831 -0.2434508055448532 0.15429101884365082
vn -0.32609447836875916 -0.018595170229673386 0.9451542496681213
vn 0.38100793957710266 -0.26179155707359314 -0.8867345452308655
vn -0.9727489352226257 0.0006161387427709997 0.23186010122299194
vn 0.2368059754371643 0.01582089439034462 0.9714281558990479
vn -0.48984208703041077 0.012398465536534786 0.8717229962348938
vn 0.6859316825866699 0.0018008594634011388 0.7276636958122253
vn -0.6605740189552307 0.009873872622847557 0.7506960034370422
vn 0.0041857254691421986 -0.0033035497181117535 0.9999857544898987
vn 0.9974571466445923 -0.0019288327312096953 0.0712428167462349
vn 0.7387935519218445 0.017984548583626747 -0.6736918091773987
vn 0.6859316825866699 0.0018008594634011388 0.7276636958122253
vn 0.9974571466445923 -0.0019288327312096953 0.0712428167462349
vn -0.03410523757338524 0.019435696303844452 -0.9992292523384094
vn -0.7852025628089905 0.027450112625956535 -0.6186302900314331
vn 0.7387935519218445 0.017984548583626747 -0.6736918091773987
vn -0.03410523757338524 0.019435696303844452 -0.9992292523384094
vn -0.9937741160392761 0.009996114298701286 0.11096420884132385
vn -0.6605740189552307 0.009873872622847557 0.7506960034370422
vn -0.7852025628089905 0.027450112625956535 -0.6186302900314331
vn -0.9937741160392761 0.009996114298701286 0.11096420884132385
vn 0.0041857254691421986 -0.0033035497181117535 0.9999857544898987
vn 0.9161826968193054 0.018116315826773643 0.4003511965274811
vn -0.48984208703041077 0.012398465536534786 0.8717229962348938
vn 0.2368059754371643 0.01582089439034462 0.9714281558990479
vn 0.9791145920753479 0.01170666515827179 -0.20297186076641083
vn 0.48799780011177063 0.013482538051903248 -0.8727407455444336
vn 0.9161826968193054 0.018116315826773643 0.4003511965274811
vn 0.9791145920753479 0.01170666515827179 -0.20297186076641083
vn -0.27988409996032715 0.007049079984426498 -0.960007905960083
vn -0.9345324039459229 0.004389132373034954 -0.35585102438926697
vn 0.48799780011177063 0.013482538051903248 -0.8727407455444336
vn -0.27988409996032715 0.007049079984426498 -0.960007905960083
vn -0.9727489352226257 0.0006161387427709997 0.23186010122299194
vn -0.9345324039459229 0.004389132373034954 -0.35585102438926697
vt 0.4066024422645569 0.23419976234436035
vt 0.2744619846343994 0.5790965557098389
vt 0.7036283612251282 0.08951640129089355
vt 0.7524388432502747 0.7134425044059753
vt 0.7036283612251282 0.08951640129089355
vt 0.46984386444091797 0.6177439093589783
vt 0.993561327457428 0.5778964161872864
vt 0.9911927580833435 0.022838234901428223
vt 0.7284068465232849 0.07610011100769043
vt 0.3947611153125763 0.2583543658256531
vt 0.04665948450565338 0.41790342330932617
vt 0.372506707906723 0.2590373754501343
vt 0.03024456650018692 0.9666465520858765
vt 0.5085608959197998 0.5967805981636047
vt 0.4896393418312073 1.0051637887954712
vt 0.790149450302124 0.8422262072563171
vt 0.9861338138580322 0.982283353805542
vt 0.7644932270050049 0.8470571041107178
vt 0.7284068465232849 0.07610011100769043
vt 0.993561327457428 0.5778964161872864
vt 0.9269271492958069 0.9677906036376953
vt 0.7267826199531555 0.718273401260376
vt 0.2903103232383728 0.9979174733161926
vt 0.31317901611328125 0.5581332445144653
vt 0.3843480348587036 0.23488277196884155
vt 0.04665948450565338 0.41790342330932617
vt 0.004588358104228973 0.990801215171814
vt 0.2744619846343994 0.5790965557098389
vt 0.4066024422645569 0.23419976234436035
vt 0.7036283612251282 0.08951640129089355
vt 0.9911927580833435 0.022838234901428223
vt 0.3060987591743469 0.9351155161857605
vt 0.7329163551330566 0.8615498542785645
vt 0.9269271492958069 0.9677906036376953
vt 0.31317901611328125 0.5581332445144653
vt 0.04665948450565338 0.41790342330932617
vt 0.02235034853219986 0.828965425491333
vt 0.3843480348587036 0.23488277196884155
vt 0.7284068465232849 0.07610011100769043
vt 0.993561327457428 0.5778964161872864
vt 0.7030999660491943 0.8776936531066895
vt 0.9911927580833435 0.022838234901428223
vt 0.9931974411010742 0.8624321818351746
vt 0.9931974411010742 0.000499427318572998
vt 0.004637956619262695 0.000499427318572998
vt 0.49013224244117737 0.999500572681427
vt 0.9935798048973083 0.8624321818351746
vt 0.004637956619262695 0.8624321818351746
vt 0.004637777805328369 0.000499427318572998
vt 0.9935798048973083 0.000499427318572998
vt 0.004637777805328369 0.8624321818351746
vt 0.9931974411010742 0.8624321818351746
vt 0.004637956619262695 0.000499427318572998
vt 0.9931974411010742 0.000499427318572998
vt 0.49013224244117737 0.999500572681427
vt 0.004637777805328369 0.8624321818351746
vt 0.9935798048973083 0.8624321818351746
vt 0.9931974411010742 0.000499427318572998
vt 0.004637777805328369 0.000499427318572998
vt 0.9931974411010742 0.8624321818351746
vt 0.004637956619262695 0.8624321818351746
vt 0.9935798048973083 0.000499427318572998
vt 0.004637956619262695 0.000499427318572998
vt 0.9935798048973083 0.8624321818351746
vt 0.004637777805328369 0.8624321818351746
vt 0.49013224244117737 0.999500572681427
vt 0.004637777805328369 0.000499427318572998
vt 0.004637956619262695 0.8624321818351746
vt 0.9935798048973083 0.000499427318572998
vt 0.6855510473251343 0.6224193572998047
vt 0.31317901611328125 0.5581332445144653
vt 0.7284068465232849 0.07610011100769043
vt 0.3843480348587036 0.23488277196884155
vt 0.02235034853219986 0.828965425491333
vt 0.3060987591743469 0.9351155161857605
vt 0.30603885650634766 0.5646038055419922
vt 0.7978306412696838 0.81730717420578
vt 0.9269271492958069 0.9677906036376953
vt 0.993561327457428 0.5778964161872864
vt 0.7036283612251282 0.08951640129089355
vt 0.4066024422645569 0.23419976234436035
vt 0.04665948450565338 0.41790342330932617
vt 0.9911927580833435 0.022838234901428223
vt 1 1
vt 0 1
vt 0 0
vt 0 0
vt 1 0
vt 1 1
vt 0 1
vt 0 0
vt 1 0
vt 1 1
vt 0 1
vt 0 0
vt 1 0
vt 1 1
vt 0 1
vt 0 0
vt 1 0
vt 1 1
vt 0 1
vt 0 0
vt 1 0
vt 1 1
vt 0 1
vt 0 0
vt 1 0
vt 1 1
vt 0 1
vt 0 0
vt 1 0
vt 1 1
vt 0 1
vt 1 0
g Geoset0
s 1
usemtl mat_battlegladeskull04green
f 1/1/1 2/2/2 3/3/3
f 4/4/4 5/5/5 6/6/6
f 4/4/4 7/7/7 5/5/5
f 5/5/5 7/7/7 8/8/8
f 9/9/9 8/8/8 7/7/7
f 10/10/10 6/6/6 5/5/5
f 11/11/11 12/12/12 13/13/13
f 14/14/14 13/13/13 12/12/12
f 15/15/15 13/13/13 14/14/14
f 14/14/14 16/16/16 15/15/15
f 15/15/15 16/16/16 17/17/17
f 11/11/11 13/13/13 10/10/10
f 6/6/6 10/10/10 13/13/13
f 15/15/15 6/6/6 13/13/13
f 6/6/6 15/15/15 4/4/4
f 15/15/15 17/17/17 4/4/4
f 17/17/17 7/7/7 4/4/4
f 17/17/17 16/16/16 7/7/7
f 16/16/16 9/9/9 7/7/7
f 16/16/16 14/14/14 9/9/9
f 12/12/12 9/9/9 14/14/14
f 18/18/18 19/19/19 20/20/20
f 21/21/21 18/18/18 20/20/20
f 21/21/21 20/20/20 22/22/22
f 23/23/23 21/21/21 22/22/22
f 23/23/23 18/18/18 21/21/21
f 24/24/24 18/18/18 23/23/23
f 18/18/18 24/24/24 19/19/19
f 25/25/25 19/19/19 24/24/24
f 26/26/26 27/27/27 28/28/28
f 28/28/28 29/29/29 26/26/26
f 29/29/29 28/28/28 30/30/30
f 26/26/26 25/25/25 24/24/24
f 24/24/24 27/27/27 26/26/26
f 23/23/23 27/27/27 24/24/24
f 23/23/23 28/28/28 27/27/27
f 28/28/28 23/23/23 22/22/22
f 22/22/22 30/30/30 28/28/28
f 22/22/22 20/20/20 30/30/30
f 30/30/30 20/20/20 31/31/31
f 19/19/19 31/31/31 20/20/20
f 32/32/32 33/33/33 34/34/34
f 35/35/35 33/33/33 32/32/32
f 2/2/2 1/1/1 36/36/36
f 36/36/36 37/37/37 2/2/2
f 36/36/36 38/38/38 37/37/37
f 35/35/35 37/37/37 38/38/38
f 38/38/38 39/39/39 35/35/35
f 33/33/33 35/35/35 39/39/39
f 33/33/33 39/39/39 40/40/40
f 34/34/34 33/33/33 40/40/40
f 34/34/34 40/40/40 41/41/41
f 32/32/32 34/34/34 41/41/41
f 39/39/39 42/42/42 40/40/40
f 3/3/3 40/40/40 42/42/42
f 41/41/41 40/40/40 3/3/3
f 41/41/41 3/3/3 2/2/2
f 2/2/2 32/32/32 41/41/41
f 32/32/32 2/2/2 37/37/37
f 32/32/32 37/37/37 35/35/35
g Geoset1
s 1
usemtl mat_swampdocksupport
f 43/43/43 44/44/44 45/45/45
f 46/46/46 47/47/47 48/48/48
f 49/49/49 50/50/50 47/47/47
f 49/49/49 47/47/47 51/51/51
f 46/46/46 51/51/51 47/47/47
f 46/46/46 52/52/52 51/51/51
f 46/46/46 48/48/48 52/52/52
f 50/50/50 48/48/48 47/47/47
f 50/50/50 53/53/53 48/48/48
f 53/53/53 52/52/52 48/48/48
f 53/53/53 54/54/54 52/52/52
f 54/54/54 51/51/51 52/52/52
f 54/54/54 49/49/49 51/51/51
f 55/55/55 56/56/56 57/57/57
f 58/58/58 59/59/59 56/56/56
f 58/58/58 56/56/56 60/60/60
f 55/55/55 60/60/60 56/56/56
f 55/55/55 61/61/61 60/60/60
f 55/55/55 57/57/57 61/61/61
f 59/59/59 57/57/57 56/56/56
f 59/59/59 62/62/62 57/57/57
f 62/62/62 61/61/61 57/57/57
f 62/62/62 63/63/63 61/61/61
f 63/63/63 60/60/60 61/61/61
f 63/63/63 58/58/58 60/60/60
f 64/64/64 65/65/65 66/66/66
f 65/65/65 67/67/67 44/44/44
f 43/43/43 65/65/65 44/44/44
f 65/65/65 43/43/43 66/66/66
f 43/43/43 68/68/68 66/66/66
f 68/68/68 64/64/64 66/66/66
f 65/65/65 64/64/64 67/67/67
f 64/64/64 69/69/69 67/67/67
f 64/64/64 68/68/68 69/69/69
f 68/68/68 45/45/45 69/69/69
f 68/68/68 43/43/43 45/45/45
g Geoset2
s 1
usemtl mat_battlegladeskulldarkgreen
f 70/70/70 71/71/71 72/72/72
f 73/73/73 72/72/72 71/71/71
f 71/71/71 74/74/74 73/73/73
f 75/75/75 74/74/74 71/71/71
f 75/75/75 76/76/76 74/74/74
f 76/76/76 75/75/75 77/77/77
f 75/75/75 78/78/78 77/77/77
f 71/71/71 70/70/70 75/75/75
f 75/75/75 70/70/70 78/78/78
f 78/78/78 70/70/70 79/79/79
f 78/78/78 79/79/79 77/77/77
f 77/77/77 79/79/79 80/80/80
f 77/77/77 80/80/80 76/76/76
f 81/81/81 76/76/76 80/80/80
f 76/76/76 81/81/81 74/74/74
f 82/82/82 74/74/74 81/81/81
f 82/82/82 73/73/73 74/74/74
f 80/80/80 79/79/79 83/83/83
f 72/72/72 83/83/83 79/79/79
f 70/70/70 72/72/72 79/79/79
g Geoset3
s 1
usemtl mat_swampreeds01a
f 84/84/84 85/85/85 86/86/86
f 87/87/87 88/88/88 89/89/89
f 89/89/89 90/90/90 87/87/87
f 91/91/91 92/92/92 93/93/93
f 93/93/93 94/94/94 91/91/91
f 95/95/95 96/96/96 97/97/97
f 97/97/97 98/98/98 95/95/95
f 99/99/99 100/100/100 101/101/101
f 101/101/101 102/102/102 99/99/99
f 103/103/103 104/104/104 105/105/105
f 105/105/105 106/106/106 103/103/103
f 107/107/107 108/108/108 109/109/109
f 109/109/109 110/110/110 107/107/107
f 111/111/111 112/112/112 113/113/113
f 113/113/113 114/114/114 111/111/111
f 86/86/86 115/115/115 84/84/84