# Exported using wow.export v0.1.49
o 
mtllib duskwoodtreecanopy02.mtl
v -0.05600432679057121 15.20921802520752 -5.059497356414795
v -6.546792507171631 23.02573585510254 -3.732106924057007
v -0.05600394681096077 23.02573585510254 -7.479564189910889
v 6.277153015136719 -4.1240105628967285 -3.641101121902466
v -0.056004848331213 -4.1240105628967285 -7.29755163192749
v -0.056004445999860764 6.90248966217041 -5.059497833251953
v 4.338942050933838 6.902489185333252 -2.5220744609832764
v 4.3389434814453125 15.20921802520752 -2.5220742225646973
v 6.434782028198242 23.025733947753906 -3.7321090698242188
v 6.277153968811035 -4.1240105628967285 3.671799898147583
v 4.338943004608154 6.902489185333252 2.552773952484131
v 4.338943958282471 15.20921802520752 2.5527737140655518
v 6.434783935546875 23.025733947753906 3.7628071308135986
v -0.05600420758128166 -4.1240105628967285 7.32825231552124
v -0.05600400269031525 6.902489185333252 5.090198993682861
v -0.056003883481025696 15.20921802520752 5.0901994705200195
v -0.056003227829933167 23.02573585510254 7.510267734527588
v -6.389162063598633 -4.1240105628967285 3.671802520751953
v -4.450952053070068 6.902489185333252 2.5527751445770264
v -4.450951099395752 15.20921802520752 2.5527753829956055
v -6.546791076660156 23.02573585510254 3.7628092765808105
v -4.450952053070068 15.20921802520752 -2.5220730304718018
v -4.450952053070068 6.902489185333252 -2.522073268890381
v -6.389162063598633 -4.1240105628967285 -3.6411006450653076
v 29.07900619506836 58.08293533325195 -17.677642822265625
v 41.857513427734375 19.346954345703125 -25.104990005493164
v 23.810604095458984 13.072575569152832 -14.416621208190918
v -29.91701889038086 58.08293533325195 -17.348674774169922
v -42.73854446411133 19.346954345703125 -24.701501846313477
v -24.458694458007812 13.072576522827148 -14.416610717773438
v -0.3275926411151886 18.964412689208984 -27.26275634765625
v -6.546792507171631 23.02573585510254 -3.732106924057007
v -23.48953628540039 18.964412689208984 -13.903388977050781
v -23.4588680267334 18.964412689208984 12.907795906066895
v -6.546791076660156 23.02573585510254 3.7628092765808105
v -0.3078691363334656 18.964414596557617 26.288394927978516
v -0.13411100208759308 58.08293533325195 33.57889938354492
v -0.09108459204435349 19.346954345703125 48.35908889770508
v -0.3240395486354828 13.072575569152832 27.385818481445312
v -0.056003227829933167 23.02573585510254 7.510267734527588
v 22.832300186157227 18.964412689208984 12.874211311340332
v 6.434783935546875 23.025733947753906 3.7628071308135986
v 6.434782028198242 23.025733947753906 -3.7321090698242188
v 22.827423095703125 18.964414596557617 -13.898587226867676
v -0.05600394681096077 23.02573585510254 -7.479564189910889
v -28.818098068237305 58.08293533325195 15.76656436920166
v -41.39070510864258 19.346954345703125 22.979602813720703
v -0.14910048246383667 58.08293533325195 -33.2835578918457
v -0.10947529226541519 19.346954345703125 -47.77827835083008
v -0.3240474462509155 13.072575569152832 -28.350767135620117
v 27.995065689086914 58.08293533325195 16.06958770751953
v 40.528045654296875 19.346954345703125 23.351261138916016
v 23.810609817504883 13.072575569152832 13.451672554016113
v 23.810609817504883 13.072575569152832 13.451672554016113
v -0.3240474462509155 13.072575569152832 -28.350767135620117
v -24.458688735961914 13.072575569152832 13.45167350769043
v -24.458688735961914 13.072575569152832 13.45167350769043
v -0.029270052909851074 56.6129150390625 0.017472587525844574
v 16.638561248779297 51.242801666259766 -9.605707168579102
v -0.02926979772746563 51.242801666259766 -19.228883743286133
v -16.697105407714844 51.242801666259766 -9.605706214904785
v -16.69710350036621 51.242801666259766 9.64065170288086
v -0.02926909551024437 51.242801666259766 19.263830184936523
v 16.638565063476562 51.242801666259766 9.640649795532227
v -16.827720642089844 60.21120071411133 9.045933723449707
v -0.32404205203056335 60.21120071411133 18.574337005615234
v -0.32404419779777527 60.21120071411133 -19.539281845092773
v -16.82772445678711 60.21120071411133 -10.010870933532715
v 16.17963981628418 60.21120071411133 9.045929908752441
v 16.179636001586914 60.21119689941406 -10.01087760925293
v 16.17963981628418 60.21120071411133 9.045929908752441
v -0.32404419779777527 60.21120071411133 -19.539281845092773
v -16.827720642089844 60.21120071411133 9.045933723449707
v -23.4588680267334 18.964412689208984 12.907795906066895
v -6.546791076660156 23.02573585510254 3.7628092765808105
v -0.3275926411151886 18.964412689208984 -27.26275634765625
v -0.044477060437202454 23.025732040405273 -7.455351829528809
v -0.44149142503738403 3.9528627395629883 -17.23541259765625
v -14.959291458129883 3.941986560821533 8.408881187438965
v -0.06387785822153091 14.94880485534668 -9.003965377807617
v -0.07852860540151596 14.916802406311035 -25.6724910736084
v -7.696255207061768 14.94880485534668 4.534351825714111
v -22.47465705871582 14.916802406311035 12.24401569366455
v -0.07732414454221725 9.616947174072266 -11.333797454833984
v -0.09276680648326874 9.63955020904541 -23.349761962890625
v -9.756270408630371 9.617119789123535 5.622772216796875
v -20.4069766998291 9.639395713806152 11.18570327758789
v 16.179636001586914 60.21119689941406 -10.01087760925293
v -0.32404205203056335 60.21120071411133 18.574337005615234
v 16.17963981628418 60.21120071411133 9.045929908752441
v -16.827720642089844 60.21120071411133 9.045933723449707
v -16.82772445678711 60.21120071411133 -10.010870933532715
v -0.32404419779777527 60.21120071411133 -19.539281845092773
v 6.633486270904541 22.92098617553711 2.4750709533691406
v 6.633910179138184 22.96735382080078 3.051165819168091
v 6.401139259338379 22.752527236938477 2.4880714416503906
v 6.635425567626953 22.87633514404297 1.898843765258789
v -1.6836903095245361 21.784631729125977 -6.448931694030762
v -1.2715409994125366 21.82295036315918 -6.687291145324707
v -1.5783745050430298 21.645410537719727 -6.288007736206055
v -2.0969111919403076 21.747730255126953 -6.212209701538086
v -2.662214756011963 21.287742614746094 5.652596473693848
v -3.3098397254943848 21.347904205322266 5.279325485229492
v -2.52608585357666 21.069164276123047 5.383077144622803
v -2.015974998474121 21.229806900024414 6.028609275817871
vn 0.0033018800895661116 -0.1503872573375702 -0.9886216521263123
vn -0.7232413291931152 -0.29088371992111206 -0.6263454556465149
vn 0.18081019818782806 -0.2908836901187897 -0.93951815366745
vn 0.741347074508667 0.1954682171344757 -0.6420254707336426
vn -0.18533682823181152 0.19546827673912048 -0.9630380868911743
vn -0.0014566868776455522 0.100206159055233 -0.9949656128883362
vn 0.8609371185302734 0.10020610690116882 -0.4987444281578064
vn 0.8578223586082458 -0.15038733184337616 -0.49145135283470154
vn 0.904051661491394 -0.29088377952575684 -0.3131728768348694
vn 0.9266839623451233 0.1954682320356369 0.3210125267505646
vn 0.8623939752578735 0.10020607709884644 0.496221125125885
vn 0.8545205593109131 -0.15038730204105377 0.49717026948928833
vn 0.7232415676116943 -0.29088377952575684 0.626345157623291
vn 0.18533694744110107 0.1954682469367981 0.9630380868911743
vn 0.0014568022452294827 0.10020612925291061 0.9949656128883362
vn -0.003301834687590599 -0.15038734674453735 0.9886216521263123
vn -0.18081027269363403 -0.2908838391304016 0.9395180940628052
vn -0.7413471341133118 0.1954682469367981 0.6420254111289978
vn -0.8609371781349182 0.10020613670349121 0.49874433875083923
vn -0.8578224182128906 -0.15038730204105377 0.4914512634277344
vn -0.904051661491394 -0.2908838391304016 0.31317275762557983
vn -0.8545204997062683 -0.15038727223873138 -0.4971703290939331
vn -0.862393856048584 0.1002061665058136 -0.49622130393981934
vn -0.9266839027404785 0.1954682171344757 -0.3210126757621765
vn -0.5100398659706116 -0.0026185575406998396 -0.8601468205451965
vn -0.5088627338409424 -0.002806791802868247 -0.8608431220054626
vn 0.2656676769256592 0.132016122341156 -0.9549829363822937
vn -0.48988911509513855 -0.0026184606831520796 0.8717808127403259
vn -0.49108052253723145 -0.002806662116199732 0.871109664440155
vn -0.9598733186721802 0.13201618194580078 0.24741649627685547
vn 0.584194004535675 -0.7952700257301331 0.16205856204032898
vn 0.1750674992799759 -0.9794924855232239 0.09972871840000153
vn 0.17497287690639496 -0.9795169830322266 0.09965424239635468
vn -0.09718251973390579 -0.8238357305526733 -0.5584355592727661
vn 0.001475683762691915 -0.914973258972168 -0.40351173281669617
vn 0.039648860692977905 -0.9767395257949829 -0.21073174476623535
vn 0.999928891658783 -0.0026185614988207817 -0.011634438298642635
vn 0.9999433755874634 -0.0028067731764167547 -0.010266967117786407
vn 0.6942057013511658 0.1320161372423172 0.7075663805007935
vn -0.04181797057390213 -0.9763878583908081 -0.21193864941596985
vn -0.18278992176055908 -0.9773551821708679 -0.10660530626773834
vn -0.18274305760860443 -0.9773464202880859 -0.10676562041044235
vn -0.20026417076587677 -0.9774132370948792 0.06750985980033875
vn -0.15858720242977142 -0.9780694842338562 0.13501933217048645
vn -0.039524201303720474 -0.9787017703056335 0.20144659280776978
vn 0.48839667439460754 0.0039696479216217995 0.872612714767456
vn 0.4896748960018158 0.0029583065770566463 0.8719000816345215
vn -0.99990314245224 0.003969600889831781 -0.013341875746846199
vn -0.9999250769615173 0.002958291210234165 -0.011878568679094315
vn -0.4952748119831085 0.15962550044059753 -0.8539453148841858
vn 0.5115065574645996 0.0039698961190879345 -0.8592702150344849
vn 0.5102501511573792 0.0029584323056042194 -0.8600209355354309
vn 0.987175703048706 0.15962547063827515 -0.0019477404421195388
vn 0.987175703048706 0.15962547063827515 -0.0019477404421195388
vn -0.4952748119831085 0.15962550044059753 -0.8539453148841858
vn -0.4919011890888214 0.15962541103363037 0.855893075466156
vn -0.4919011890888214 0.15962541103363037 0.855893075466156
vn 2.609243043849574e-9 1 6.649448849196143e-17
vn 0.23274800181388855 0.963208794593811 -0.1343771368265152
vn -6.907490690544194e-10 0.963208794593811 -0.2687542140483856
vn -0.23274797201156616 0.963208794593811 -0.1343771070241928
vn -0.23274800181388855 0.963208794593811 0.1343771368265152
vn 1.5770226013955835e-8 0.963208794593811 0.2687542736530304
vn 0.23274800181388855 0.963208794593811 0.13437709212303162
vn -0.4906330406665802 0.1599685102701187 0.8565566539764404
vn 0.1914464235305786 0.18034565448760986 0.9647920727729797
vn -0.4964835047721863 0.1599685698747635 -0.853178858757019
vn -0.9312577247619629 0.18034566938877106 -0.3165983259677887
vn 0.9871163368225098 0.15996861457824707 -0.003377671120688319
vn 0.7398111820220947 0.18034568428993225 -0.6481935381889343
vn 0.9871163368225098 0.15996861457824707 -0.003377671120688319
vn -0.4964835047721863 0.1599685698747635 -0.853178858757019
vn -0.4906330406665802 0.1599685102701187 0.8565566539764404
vn -0.09718251973390579 -0.8238357305526733 -0.5584355592727661
vn 0.001475683762691915 -0.914973258972168 -0.40351173281669617
vn 0.584194004535675 -0.7952700257301331 0.16205856204032898
vn 0.999896764755249 0.0003523844643495977 -0.014364234171807766
vn 0.9980093240737915 -0.06305094063282013 -0.0013848179951310158
vn -0.46294981241226196 -0.010732744820415974 -0.8863195180892944
vn 0.9997912645339966 0.019702086225152016 -0.005414212122559547
vn 0.9998310804367065 0.018347006291151047 -0.0010860856855288148
vn -0.46587133407592773 0.00454806350171566 -0.8848407864570618
vn -0.46267709136009216 0.008961415849626064 -0.8864815831184387
vn 0.9997340440750122 -0.023030415177345276 -0.0012162055354565382
vn 0.9994414448738098 -0.03339060768485069 -0.0013869706308469176
vn -0.46281933784484863 -0.00558181619271636 -0.8864350318908691
vn -0.462965726852417 -0.007216832600533962 -0.8863468170166016
vn 0 1 0
vn 0 1 0
vn 0 1 0
vn 0 1 0
vn 0 1 0
vn 0 1 0
vn 0.5881252884864807 -0.8061975240707397 0.06445294618606567
vn 0.5881252884864807 -0.8061975240707397 0.06445294618606567
vn 0.5881252884864807 -0.8061975240707397 0.06445294618606567
vn 0.5881252884864807 -0.8061975240707397 0.06445294618606567
vn -0.238244891166687 -0.806197464466095 -0.5415579676628113
vn -0.238244891166687 -0.806197464466095 -0.5415579676628113
vn -0.238244891166687 -0.806197464466095 -0.5415579676628113
vn -0.238244891166687 -0.806197464466095 -0.5415579676628113
vn -0.34988048672676086 -0.806197464466095 0.47710514068603516
vn -0.3498804569244385 -0.806197464466095 0.47710517048835754
vn -0.34988048672676086 -0.806197464466095 0.47710514068603516
vn -0.34988048672676086 -0.806197464466095 0.47710514068603516
vt 0.01587301678955555 0.7882353067398071
vt 0.9841269850730896 0.9960784316062927
vt 0.01587301678955555 0.9960784316062927
vt 0.9841269850730896 0.003921568393707275
vt 0.01587301678955555 0.003921568393707275
vt 0.01587301678955555 0.5372549295425415
vt 0.9841269850730896 0.5372549295425415
vt 0.9841269850730896 0.7882353067398071
vt 0.9841269850730896 0.9960784316062927
vt 0.01587301678955555 0.003921568393707275
vt 0.01587301678955555 0.5372549295425415
vt 0.01587301678955555 0.7882353067398071
vt 0.01587301678955555 0.9960784316062927
vt 0.9841269850730896 0.003921568393707275
vt 0.9841269850730896 0.5372549295425415
vt 0.9841269850730896 0.7882353067398071
vt 0.9841269850730896 0.9960784316062927
vt 0.01587301678955555 0.003921568393707275
vt 0.01587301678955555 0.5372549295425415
vt 0.01587301678955555 0.7882353067398071
vt 0.01587301678955555 0.9960784316062927
vt 0.9841269850730896 0.7882353067398071
vt 0.9841269850730896 0.5372549295425415
vt 0.9841269850730896 0.003921568393707275
vt 0.003921568859368563 0.9960784316062927
vt 0.003921568859368563 0.011764705181121826
vt 0.43549835681915283 0.011764705181121826
vt 0.003921568859368563 0.9960784316062927
vt 0.003921568859368563 0.011764705181121826
vt 0.43549844622612 0.011764705181121826
vt 0.2012770175933838 0.1357203722000122
vt 0.8619876503944397 0.3195159435272217
vt 0.19338279962539673 0.541716456413269
vt 0.2012770175933838 0.1357203722000122
vt 0.8333503007888794 0.1577920913696289
vt 0.19338279962539673 0.541716456413269
vt 0.003921568859368563 0.9960784316062927
vt 0.003921568859368563 0.011764705181121826
vt 0.43549844622612 0.011764705181121826
vt 0.8541751503944397 0.3234221935272217
vt 0.2012770175933838 0.1357203722000122
vt 0.8333503007888794 0.1577920913696289
vt 0.8580814003944397 0.3234221935272217
vt 0.19338279962539673 0.541716456413269
vt 0.8339970707893372 0.1577920913696289
vt 0.003921568859368563 0.9960784316062927
vt 0.003921568859368563 0.011764705181121826
vt 0.003921568859368563 0.9960784316062927
vt 0.003921568859368563 0.011764705181121826
vt 0.43549844622612 0.011764705181121826
vt 0.003921568859368563 0.9960784316062927
vt 0.003921568859368563 0.011764705181121826
vt 0.9921567440032959 0.011764705181121826
vt 0.43549844622612 0.011764705181121826
vt 0.9921567440032959 0.011764705181121826
vt 0.9921568632125854 0.011764705181121826
vt 0.43549844622612 0.011764705181121826
vt 0.9882352948188782 0.5764706134796143
vt 0.0784313753247261 0.5372549295425415
vt 0.26274511218070984 0.8588235378265381
vt 0.0784313753247261 0.5372549295425415
vt 0.26274511218070984 0.8588235378265381
vt 0.0784313753247261 0.5372549295425415
vt 0.26274511218070984 0.8588235378265381
vt 0.43549844622612 0.9960784316062927
vt 0.43549844622612 0.9960784316062927
vt 0.43549844622612 0.9960784316062927
vt 0.43549844622612 0.9960784316062927
vt 0.43549844622612 0.9960784316062927
vt 0.43549835681915283 0.9960784316062927
vt 0.9921567440032959 0.9960784316062927
vt 0.9921567440032959 0.9960784316062927
vt 0.9921568632125854 0.9960784316062927
vt 0.8023649454116821 0.007489383220672607
vt 0.007844395935535431 0.009446322917938232
vt 0.8023649454116821 0.007489383220672607
vt 0.007844395935535431 0.009446322917938232
vt 0.3972768783569336 0.8000529408454895
vt 0.3972768783569336 0.8000529408454895
vt 0.06850975751876831 0.34408432245254517
vt 0.7319148778915405 0.34408432245254517
vt 0.06850975751876831 0.34408432245254517
vt 0.7319148778915405 0.34408432245254517
vt 0.16244322061538696 0.563262403011322
vt 0.6399383544921875 0.563262403011322
vt 0.16244322061538696 0.563262403011322
vt 0.6399383544921875 0.563262403011322
vt 0.17793777585029602 0.7419997453689575
vt 0.019198238849639893 0.8478261232376099
vt 0.07211139798164368 0.7419997453689575
vt 0.07211142778396606 0.9536525011062622
vt 0.17793777585029602 0.9536525011062622
vt 0.23085102438926697 0.8478261232376099
vt 0 1
vt 1.345432996749878 1
vt 0 -0.5616450309753418
vt 1.345432996749878 1
vt 0 1
vt 1.345432996749878 1
vt 0 -0.5616450309753418
vt 1.345432996749878 1
vt 0 1
vt 1.345432996749878 1
vt 0 -0.5616450309753418
vt 1.345432996749878 1
g Geoset0
s 1
usemtl mat_duskwoodtree02trunk3
f 1/1/1 2/2/2 3/3/3
f 4/4/4 5/5/5 6/6/6
f 4/4/4 6/6/6 7/7/7
f 7/7/7 6/6/6 1/1/1
f 7/7/7 1/1/1 8/8/8
f 8/8/8 1/1/1 3/3/3
f 8/8/8 3/3/3 9/9/9
f 10/10/10 4/4/4 7/7/7
f 10/10/10 7/7/7 11/11/11
f 11/11/11 7/7/7 8/8/8
f 11/11/11 8/8/8 12/12/12
f 12/12/12 8/8/8 9/9/9
f 12/12/12 9/9/9 13/13/13
f 14/14/14 10/10/10 11/11/11
f 14/14/14 11/11/11 15/15/15
f 15/15/15 11/11/11 12/12/12
f 15/15/15 12/12/12 16/16/16
f 16/16/16 12/12/12 13/13/13
f 16/16/16 13/13/13 17/17/17
f 18/18/18 14/14/14 15/15/15
f 18/18/18 15/15/15 19/19/19
f 19/19/19 15/15/15 16/16/16
f 19/19/19 16/16/16 20/20/20
f 20/20/20 16/16/16 17/17/17
f 20/20/20 17/17/17 21/21/21
f 22/22/22 21/21/21 2/2/2
f 22/22/22 20/20/20 21/21/21
f 23/23/23 20/20/20 22/22/22
f 23/23/23 19/19/19 20/20/20
f 24/24/24 19/19/19 23/23/23
f 24/24/24 18/18/18 19/19/19
f 5/5/5 24/24/24 23/23/23
f 5/5/5 23/23/23 6/6/6
f 6/6/6 23/23/23 22/22/22
f 6/6/6 22/22/22 1/1/1
f 1/1/1 22/22/22 2/2/2
g Geoset1
s 1
usemtl mat_duskwoodtree02leaves
f 25/25/25 26/26/26 27/27/27
f 28/28/28 29/29/29 30/30/30
f 31/31/31 32/32/32 33/33/33
f 33/33/33 32/32/32 34/34/34
f 32/32/32 35/35/35 34/34/34
f 34/34/34 35/35/35 36/36/36
f 37/37/37 38/38/38 39/39/39
f 35/35/35 40/40/40 36/36/36
f 36/36/36 40/40/40 41/41/41
f 40/40/40 42/42/42 41/41/41
f 41/41/41 42/42/42 43/43/43
f 41/41/41 43/43/43 44/44/44
f 44/44/44 43/43/43 45/45/45
f 31/31/31 45/45/45 32/32/32
f 44/44/44 45/45/45 31/31/31
f 46/46/46 47/47/47 65/65/65
f 58/58/58 59/59/59 60/60/60
f 58/58/58 60/60/60 61/61/61
f 58/58/58 61/61/61 62/62/62
f 58/58/58 62/62/62 63/63/63
f 58/58/58 63/63/63 64/64/64
f 58/58/58 64/64/64 59/59/59
f 39/39/39 66/66/66 37/37/37
f 48/48/48 49/49/49 67/67/67
f 50/50/50 67/67/67 49/49/49
f 30/30/30 68/68/68 28/28/28
f 51/51/51 52/52/52 69/69/69
f 53/53/53 70/70/70 71/71/71
f 53/53/53 27/27/27 70/70/70
f 54/54/54 69/69/69 52/52/52
f 27/27/27 70/70/70 25/25/25
f 27/27/27 72/72/72 70/70/70
f 27/27/27 55/55/55 72/72/72
f 55/55/55 68/68/68 72/72/72
f 55/55/55 30/30/30 68/68/68
f 30/30/30 73/73/73 68/68/68
f 30/30/30 56/56/56 73/73/73
f 56/56/56 66/66/66 73/73/73
f 56/56/56 39/39/39 66/66/66
f 39/39/39 71/71/71 66/66/66
f 39/39/39 53/53/53 71/71/71
f 57/57/57 65/65/65 47/47/47
g Geoset2
s 1
usemtl mat_duskwoodtree01_web
f 82/82/82 83/83/83 74/74/74
f 74/74/74 75/75/75 82/82/82
f 86/86/86 87/87/87 83/83/83
f 79/79/79 87/87/87 86/86/86
f 82/82/82 86/86/86 83/83/83
f 80/80/80 81/81/81 76/76/76
f 76/76/76 77/77/77 80/80/80
f 84/84/84 85/85/85 81/81/81
f 78/78/78 85/85/85 84/84/84
f 80/80/80 84/84/84 81/81/81
g Geoset3
s 1
usemtl mat_duskwoodtree01_leaves
f 88/88/88 89/89/89 90/90/90
f 88/88/88 91/91/91 89/89/89
f 88/88/88 92/92/92 91/91/91
f 93/93/93 92/92/92 88/88/88
g Geoset4
s 1
usemtl mat_duskwoodeyes01
f 94/94/94 95/95/95 96/96/96
f 94/94/94 96/96/96 97/97/97
g Geoset5
s 1
usemtl mat_duskwoodeyes01
f 98/98/98 99/99/99 100/100/100
f 98/98/98 100/100/100 101/101/101
g Geoset6
s 1
usemtl mat_duskwoodeyes01
f 102/102/102 103/103/103 104/104/104
f 102/102/102 104/104/104 105/105/105