# Exported using wow.export v0.1.49
o 
mtllib duskwoodtreecanopy01.mtl
v -8.11295421954128e-8 -3.8928048610687256 7.689027786254883
v 6.658947467803955 -3.8928048610687256 3.8444786071777344
v 4.425225257873535 8.364026069641113 2.5548367500305176
v 4.425225257873535 17.382822036743164 2.554837226867676
v 7.015015125274658 24.561107635498047 -4.050192356109619
v 7.015016078948975 24.561107635498047 4.050054550170898
v 4.425224304199219 17.382822036743164 -2.55497407913208
v 4.425224304199219 8.364026069641113 -2.554973840713501
v 6.658946990966797 -3.8928048610687256 -3.844615936279297
v 9.142257084704397e-8 24.56110954284668 -8.100314140319824
v -9.14148898800704e-8 17.382822036743164 -5.109879016876221
v -2.375993091163764e-7 8.364026069641113 -5.109878063201904
v -7.533311077168037e-7 -3.8928048610687256 -7.689162254333496
v -7.015016078948975 24.56110954284668 -4.050191402435303
v -4.425224304199219 17.382822036743164 -2.5549731254577637
v -4.425225257873535 8.364026069641113 -2.5549728870391846
v -6.658947467803955 -3.8928048610687256 -3.8446152210235596
v -7.015016078948975 24.56110954284668 4.050056457519531
v -4.425223350524902 17.382822036743164 2.5548384189605713
v -4.425225257873535 8.364026069641113 2.554837703704834
v -6.658947467803955 -3.8928048610687256 3.844480276107788
v 7.995682267392112e-7 24.561107635498047 8.100179672241211
v 3.5529882325135986e-7 17.382822036743164 5.109743595123291
v 2.091145177018916e-7 8.364026069641113 5.109743118286133
v -14.662543296813965 10.725516319274902 6.527612209320068
v -20.057418823242188 14.301249504089355 8.434820175170898
v -10.088200569152832 14.28594970703125 3.544326066970825
v 1.659641146659851 10.694798469543457 -15.012364387512207
v 1.662415862083435 14.300929069519043 -20.390060424804688
v 1.6729580163955688 14.287185668945312 -9.821768760681152
v 0.8172159790992737 17.612125396728516 -7.772634029388428
v 0.8089136481285095 17.59056854248047 -22.432950973510742
v 1.651557445526123 14.29936695098877 -20.390064239501953
v -0.4066634178161621 20.095029830932617 -23.831623077392578
v -0.1416955292224884 22.665485382080078 -6.410594463348389
v -0.15985240042209625 17.55350685119629 -7.772632122039795
v -0.1735638976097107 17.533252716064453 -22.43294906616211
v -7.754147052764893 17.612125396728516 3.3201370239257812
v -10.082249641418457 14.28734302520752 3.5550739765167236
v -21.58774185180664 17.59056854248047 10.096435546875
v -20.04861068725586 14.29936695098877 8.450726509094238
v -22.055206298828125 20.095029830932617 11.499216079711914
v -6.22720193862915 22.66548728942871 3.456012010574341
v -7.302986145019531 17.55350685119629 4.134599208831787
v -21.134082794189453 17.533252716064453 10.915407180786133
v -27.07090187072754 44.85358810424805 14.01356315612793
v -38.83759689331055 20.33714485168457 20.357580184936523
v -15.84911823272705 46.200584411621094 8.102627754211426
v 22.18425941467285 16.36602020263672 11.977566719055176
v 15.042441368103027 46.200584411621094 8.102624893188477
v 37.83009719848633 20.33714485168457 20.684463500976562
v 26.100488662719727 44.85358810424805 14.280078887939453
v -0.403346985578537 16.36602020263672 -24.788551330566406
v -0.4033435881137848 46.200584411621094 -17.038665771484375
v -0.20253027975559235 20.33714485168457 -41.87545394897461
v -0.2396145612001419 44.85358810424805 -29.127044677734375
v -0.40333619713783264 16.36602020263672 24.232940673828125
v -0.40333864092826843 46.20058822631836 16.483057022094727
v -0.22558188438415527 44.85358810424805 29.679880142211914
v -0.18531261384487152 20.33714485168457 42.67937088012695
v -0.12746329605579376 43.92319869995117 0.1619078367948532
v -0.12746553122997284 40.52438735961914 -16.765668869018555
v -15.72688102722168 40.52438735961914 -8.301877975463867
v 15.471949577331543 40.52438735961914 -8.301884651184082
v 15.471954345703125 40.52438735961914 8.625692367553711
v -0.12745992839336395 40.52438735961914 17.08948516845703
v -15.72687816619873 40.52438735961914 8.625699043273926
v -0.4066634178161621 20.095029830932617 -23.831623077392578
v -0.15248353779315948 22.66548728942871 -2.7311575412750244
v -2.816836357116699 22.66548728942871 -1.2855578660964966
v 21.264097213745117 20.095029830932617 -12.077556610107422
v 2.5118677616119385 22.665483474731445 -1.2855587005615234
v 21.268665313720703 20.095029830932617 11.469677925109863
v 2.511868715286255 22.66548728942871 1.6056408882141113
v -0.152483269572258 22.66548728942871 3.051241159439087
v -0.3882039189338684 20.095029830932617 23.267732620239258
v -2.816835641860962 22.66548728942871 1.6056417226791382
v -22.055206298828125 20.095029830932617 11.499216079711914
v -22.083908081054688 20.095029830932617 -12.081780433654785
v -22.99094009399414 16.36602020263672 -12.533169746398926
v -15.849123001098633 46.20058822631836 -8.65822982788086
v -28.099384307861328 44.85358810424805 -15.111981391906738
v -40.099037170410156 20.33714485168457 -21.578947067260742
v 22.18425941467285 16.36602020263672 11.977566719055176
v 15.042438507080078 46.20058822631836 -8.658236503601074
v 15.042441368103027 46.200584411621094 8.102624893188477
v 22.184253692626953 16.36602020263672 -12.533178329467773
v 27.114944458007812 44.85358810424805 -15.401314735412598
v 39.074337005615234 20.33714485168457 -21.933820724487305
v -0.4033435881137848 46.200584411621094 -17.038665771484375
v -0.403346985578537 16.36602020263672 -24.788551330566406
v -15.84911823272705 46.200584411621094 8.102627754211426
v -22.99093246459961 16.36602020263672 11.977567672729492
v -22.99093246459961 16.36602020263672 11.977567672729492
vn 0.18507222831249237 0.20236888527870178 0.9616626501083374
vn 0.9253605008125305 0.20236867666244507 0.32055407762527466
vn 0.8621285557746887 0.10379491001367569 0.4959445595741272
vn 0.8459932804107666 -0.1979290246963501 0.4950954020023346
vn 0.8745606541633606 -0.37863025069236755 -0.3029567301273346
vn 0.6996487379074097 -0.3786303400993347 0.6059131026268005
vn 0.8517618775367737 -0.1979290395975113 -0.48510387539863586
vn 0.8605649471282959 0.1037948802113533 -0.49865278601646423
vn 0.7402883172035217 0.20236875116825104 -0.641108512878418
vn 0.17491212487220764 -0.3786303997039795 -0.9088700413703918
vn 0.005768724717199802 -0.19792911410331726 -0.9801993370056152
vn -0.001563508529216051 0.10379494726657867 -0.9945974946022034
vn -0.1850721687078476 0.2023688554763794 -0.9616627097129822
vn -0.6996486186981201 -0.37863028049468994 -0.6059133410453796
vn -0.8459932208061218 -0.1979290097951889 -0.49509549140930176
vn -0.862128496170044 0.10379498451948166 -0.495944619178772
vn -0.9253604412078857 0.20236867666244507 -0.3205541670322418
vn -0.8745607137680054 -0.37863025069236755 0.3029566705226898
vn -0.8517619967460632 -0.1979290097951889 0.4851037561893463
vn -0.8605650067329407 0.10379491001367569 0.4986526668071747
vn -0.7402883768081665 0.20236876606941223 0.6411084532737732
vn -0.17491213977336884 -0.37863048911094666 0.9088699817657471
vn -0.005768655799329281 -0.19792918860912323 0.9801993370056152
vn 0.0015635313466191292 0.10379494726657867 0.9945974946022034
vn -0.4388556182384491 -0.09016144275665283 -0.8940227627754211
vn -0.4388556182384491 -0.09016144275665283 -0.8940227627754211
vn -0.4388556182384491 -0.09016144275665283 -0.8940227627754211
vn 0.9999978542327881 -0.0014438515063375235 -0.0014735269360244274
vn 0.9999978542327881 -0.0014438515063375235 -0.0014735269360244274
vn 0.9966208934783936 0.0821285992860794 -0.0013015830190852284
vn 0.9922564625740051 0.12420251965522766 -0.0009371715714223683
vn 0.9923189878463745 0.12369944900274277 -0.001212197938002646
vn 0.99238121509552 0.12319637835025787 -0.0014872417086735368
vn 0.5850713849067688 -0.7871496081352234 0.19515886902809143
vn 0.9998831748962402 0.0002535755920689553 -0.015284761786460876
vn 0.9997223019599915 0.02210073359310627 -0.008177347481250763
vn 0.9990329146385193 0.043956153094768524 -0.001059109577909112
vn -0.43711867928504944 0.1182934120297432 -0.8915906548500061
vn -0.4373674690723419 0.11781507730484009 -0.8915320038795471
vn -0.4373674690723419 0.11781507730484009 -0.8915320038795471
vn -0.437616229057312 0.11733675003051758 -0.8914729952812195
vn -0.06189890578389168 -0.8161304593086243 -0.5745429396629333
vn -0.4499131441116333 -0.011610828340053558 -0.8929968476295471
vn -0.4450996518135071 0.005465461406856775 -0.8954643607139587
vn -0.4401450753211975 0.022534113377332687 -0.8976438641548157
vn 0.46551117300987244 0.0027227399405092 0.8850378394126892
vn 0.4667636752128601 0.002029219875112176 0.8843797445297241
vn -0.47107991576194763 0.11052718758583069 0.875138521194458
vn 0.9932959675788879 0.11558011174201965 -0.0020854605827480555
vn 0.9932622909545898 0.11583162099123001 -0.0036165800411254168
vn 0.48697882890701294 0.0020318205934017897 -0.8734114170074463
vn 0.48821666836738586 0.002726699458435178 -0.8727182149887085
vn -0.4756547510623932 0.11031755059957504 -0.8726869821548462
vn -0.476865291595459 0.11056617647409439 -0.8719946146011353
vn -0.9999178647994995 0.002128798281773925 -0.012639886699616909
vn -0.9998951554298401 0.002856538398191333 -0.01419697143137455
vn 0.6749607920646667 0.09236641973257065 0.7320494651794434
vn 0.1819198578596115 0.12332048267126083 0.9755496978759766
vn 0.9999215602874756 -0.0018843273865059018 -0.0123801464214921
vn 0.9999383091926575 -0.002019769512116909 -0.010925053618848324
vn 3.8583434225358815e-9 1 -4.319621332651044e-16
vn -5.662067792400194e-8 0.9323667287826538 -0.3615139424800873
vn -0.33100956678390503 0.9263789057731628 -0.17959606647491455
vn 0.33100950717926025 0.9263789057731628 -0.1795962005853653
vn 0.3310095965862274 0.9263789057731628 0.17959605157375336
vn 7.820503356015251e-8 0.932366669178009 0.36151397228240967
vn -0.33100950717926025 0.9263789057731628 0.1795962005853653
vn 0.5850713849067688 -0.7871496081352234 0.19515886902809143
vn -0.04468052461743355 -0.9689757227897644 0.24308368563652039
vn 0.1990097612142563 -0.9725131392478943 0.1208857074379921
vn -0.17944474518299103 -0.9701645374298096 0.16303469240665436
vn -0.2264191061258316 -0.9706069827079773 0.08158712834119797
vn -0.20605966448783875 -0.9701778292655945 -0.12764938175678253
vn -0.20599152147769928 -0.9701712131500244 -0.1278095245361328
vn -0.04678986221551895 -0.9662796854972839 -0.25320807099342346
vn 0.04471064358949661 -0.9666802287101746 -0.2520521581172943
vn 0.17981794476509094 -0.9692960381507874 -0.16772213578224182
vn -0.06189890578389168 -0.8161304593086243 -0.5745429396629333
vn 0.1989273577928543 -0.9725401401519775 0.12080366164445877
vn -0.9600191712379456 0.09501450508832932 0.26331618428230286
vn -0.932386577129364 0.12993574142456055 -0.33730101585388184
vn -0.4669734835624695 -0.001796127762645483 0.8842694759368896
vn -0.46814218163490295 -0.0019253600621595979 0.883651077747345
vn 0.9932959675788879 0.11558011174201965 -0.0020854605827480555
vn 0.7254762649536133 0.12726378440856934 -0.6763786673545837
vn 0.9932622909545898 0.11583162099123001 -0.0036165800411254168
vn 0.2519038915634155 0.09007823467254639 -0.9635509252548218
vn -0.4867716133594513 -0.001798373879864812 -0.8735274076461792
vn -0.4856131970882416 -0.0019275107188150287 -0.8741716742515564
vn -0.476865291595459 0.11056617647409439 -0.8719946146011353
vn -0.4756547510623932 0.11031755059957504 -0.8726869821548462
vn -0.47107991576194763 0.11052718758583069 0.875138521194458
vn -0.47231876850128174 0.11029506474733353 0.8744998574256897
vn -0.47231876850128174 0.11029506474733353 0.8744998574256897
vt 0.9841269850730896 0.003921568393707275
vt 0.01587301678955555 0.003921568393707275
vt 0.01587301678955555 0.5137255191802979
vt 0.01587301678955555 0.7843137383460999
vt 0.9841269850730896 0.9960784316062927
vt 0.01587301678955555 0.9960784316062927
vt 0.9841269850730896 0.7843137383460999
vt 0.9841269850730896 0.5137255191802979
vt 0.9841269850730896 0.003921568393707275
vt 0.01587301678955555 0.9960784316062927
vt 0.01587301678955555 0.7843137383460999
vt 0.01587301678955555 0.5137255191802979
vt 0.01587301678955555 0.003921568393707275
vt 0.9841269850730896 0.9960784316062927
vt 0.9841269850730896 0.7843137383460999
vt 0.9841269850730896 0.5137255191802979
vt 0.9841269850730896 0.003921568393707275
vt 0.01587301678955555 0.9960784316062927
vt 0.01587301678955555 0.7843137383460999
vt 0.01587301678955555 0.5137255191802979
vt 0.01587301678955555 0.003921568393707275
vt 0.9841269850730896 0.9960784316062927
vt 0.9841269850730896 0.7843137383460999
vt 0.9841269850730896 0.5137255191802979
vt 0.3972768783569336 0.8000529408454895
vt 0.6399383544921875 0.563262403011322
vt 0.16244322061538696 0.563262403011322
vt 0.3972768783569336 0.8000529408454895
vt 0.6399383544921875 0.563262403011322
vt 0.16244322061538696 0.563262403011322
vt 0.06850975751876831 0.34408432245254517
vt 0.7319148778915405 0.34408432245254517
vt 0.6399383544921875 0.563262403011322
vt 0.8023649454116821 0.007489383220672607
vt 0.007844395935535431 0.009446322917938232
vt 0.06850975751876831 0.34408432245254517
vt 0.7319148778915405 0.34408432245254517
vt 0.06850975751876831 0.34408432245254517
vt 0.16244322061538696 0.563262403011322
vt 0.7319148778915405 0.34408432245254517
vt 0.6399383544921875 0.563262403011322
vt 0.8023649454116821 0.007489383220672607
vt 0.007844395935535431 0.009446322917938232
vt 0.06850975751876831 0.34408432245254517
vt 0.7319148778915405 0.34408432245254517
vt 0.003921568859368563 0.9960784316062927
vt 0.003921568859368563 0.011764705181121826
vt 0.43549844622612 0.9960784316062927
vt 0.43549844622612 0.011764705181121826
vt 0.43549844622612 0.9960784316062927
vt 0.003921568859368563 0.011764705181121826
vt 0.003921568859368563 0.9960784316062927
vt 0.43549844622612 0.011764705181121826
vt 0.43549844622612 0.9960784316062927
vt 0.003921568859368563 0.011764705181121826
vt 0.003921568859368563 0.9960784316062927
vt 0.43549844622612 0.011764705181121826
vt 0.43549844622612 0.9960784316062927
vt 0.003921568859368563 0.9960784316062927
vt 0.003921568859368563 0.011764705181121826
vt 0.9882352948188782 0.5764706134796143
vt 0.26274511218070984 0.8588235378265381
vt 0.0784313753247261 0.5372549295425415
vt 0.0784313753247261 0.5372549295425415
vt 0.26274511218070984 0.8588235378265381
vt 0.0784313753247261 0.5372549295425415
vt 0.26274511218070984 0.8588235378265381
vt 0.2012770175933838 0.1357203722000122
vt 0.8339970707893372 0.1577920913696289
vt 0.8619876503944397 0.3195159435272217
vt 0.19338279962539673 0.541716456413269
vt 0.8580814003944397 0.3234221935272217
vt 0.2012770175933838 0.1357203722000122
vt 0.8333503007888794 0.1577920913696289
vt 0.8541751503944397 0.3234221935272217
vt 0.19338279962539673 0.541716456413269
vt 0.8333503007888794 0.1577920913696289
vt 0.2012770175933838 0.1357203722000122
vt 0.19338279962539673 0.541716456413269
vt 0.43549844622612 0.011764705181121826
vt 0.43549844622612 0.9960784316062927
vt 0.003921568859368563 0.9960784316062927
vt 0.003921568859368563 0.011764705181121826
vt 0.9921567440032959 0.011764705181121826
vt 0.43549835681915283 0.9960784316062927
vt 0.9921567440032959 0.9960784316062927
vt 0.43549835681915283 0.011764705181121826
vt 0.003921568859368563 0.9960784316062927
vt 0.003921568859368563 0.011764705181121826
vt 0.9921567440032959 0.9960784316062927
vt 0.9921567440032959 0.011764705181121826
vt 0.9921568632125854 0.9960784316062927
vt 0.9921568632125854 0.011764705181121826
vt 0.43549844622612 0.011764705181121826
g Geoset0
s 1
usemtl mat_duskwoodtree02trunk3
f 1/1/1 2/2/2 3/3/3
f 4/4/4 5/5/5 6/6/6
f 4/4/4 7/7/7 5/5/5
f 3/3/3 7/7/7 4/4/4
f 3/3/3 8/8/8 7/7/7
f 2/2/2 8/8/8 3/3/3
f 2/2/2 9/9/9 8/8/8
f 7/7/7 10/10/10 5/5/5
f 7/7/7 11/11/11 10/10/10
f 8/8/8 11/11/11 7/7/7
f 8/8/8 12/12/12 11/11/11
f 9/9/9 12/12/12 8/8/8
f 9/9/9 13/13/13 12/12/12
f 11/11/11 14/14/14 10/10/10
f 11/11/11 15/15/15 14/14/14
f 12/12/12 15/15/15 11/11/11
f 12/12/12 16/16/16 15/15/15
f 13/13/13 16/16/16 12/12/12
f 13/13/13 17/17/17 16/16/16
f 15/15/15 18/18/18 14/14/14
f 15/15/15 19/19/19 18/18/18
f 16/16/16 19/19/19 15/15/15
f 16/16/16 20/20/20 19/19/19
f 17/17/17 20/20/20 16/16/16
f 17/17/17 21/21/21 20/20/20
f 19/19/19 22/22/22 18/18/18
f 19/19/19 23/23/23 22/22/22
f 20/20/20 23/23/23 19/19/19
f 20/20/20 24/24/24 23/23/23
f 21/21/21 24/24/24 20/20/20
f 21/21/21 1/1/1 24/24/24
f 23/23/23 6/6/6 22/22/22
f 23/23/23 4/4/4 6/6/6
f 24/24/24 4/4/4 23/23/23
f 24/24/24 3/3/3 4/4/4
f 1/1/1 3/3/3 24/24/24
g Geoset1
s 1
usemtl mat_duskwoodtree01_web
f 25/25/25 26/26/26 27/27/27
f 28/28/28 29/29/29 30/30/30
f 31/31/31 30/30/30 32/32/32
f 30/30/30 33/33/33 32/32/32
f 34/34/34 35/35/35 36/36/36
f 36/36/36 37/37/37 34/34/34
f 38/38/38 39/39/39 40/40/40
f 39/39/39 41/41/41 40/40/40
f 42/42/42 43/43/43 44/44/44
f 44/44/44 45/45/45 42/42/42
g Geoset2
s 1
usemtl mat_duskwoodtree02leaves
f 46/46/46 47/47/47 48/48/48
f 49/49/49 50/50/50 51/51/51
f 52/52/52 51/51/51 50/50/50
f 53/53/53 54/54/54 55/55/55
f 56/56/56 55/55/55 54/54/54
f 57/57/57 58/58/58 59/59/59
f 59/59/59 60/60/60 57/57/57
f 61/61/61 62/62/62 63/63/63
f 61/61/61 64/64/64 62/62/62
f 61/61/61 65/65/65 64/64/64
f 61/61/61 66/66/66 65/65/65
f 61/61/61 67/67/67 66/66/66
f 61/61/61 63/63/63 67/67/67
f 68/68/68 69/69/69 70/70/70
f 71/71/71 69/69/69 68/68/68
f 71/71/71 72/72/72 69/69/69
f 73/73/73 72/72/72 71/71/71
f 73/73/73 74/74/74 72/72/72
f 75/75/75 74/74/74 73/73/73
f 76/76/76 75/75/75 73/73/73
f 77/77/77 75/75/75 76/76/76
f 78/78/78 77/77/77 76/76/76
f 70/70/70 77/77/77 78/78/78
f 79/79/79 70/70/70 78/78/78
f 68/68/68 70/70/70 79/79/79
f 80/80/80 81/81/81 82/82/82
f 82/82/82 83/83/83 80/80/80
f 84/84/84 85/85/85 86/86/86
f 84/84/84 87/87/87 85/85/85
f 88/88/88 89/89/89 87/87/87
f 87/87/87 85/85/85 88/88/88
f 87/87/87 90/90/90 85/85/85
f 87/87/87 91/91/91 90/90/90
f 91/91/91 81/81/81 90/90/90
f 91/91/91 80/80/80 81/81/81
f 80/80/80 92/92/92 81/81/81
f 80/80/80 93/93/93 92/92/92
f 93/93/93 58/58/58 92/92/92
f 93/93/93 57/57/57 58/58/58
f 57/57/57 86/86/86 58/58/58
f 57/57/57 84/84/84 86/86/86
f 94/94/94 48/48/48 47/47/47