# Exported using wow.export v0.1.49
o 
mtllib duskwoodbrowntree.mtl
v 0.27983900904655457 20.960399627685547 0.08810190111398697
v 5.995810031890869 9.504130363464355 0.1697710007429123
v 5.2978901863098145 14.384499549865723 -1.2774200439453125
v -0.9322249889373779 17.448200225830078 -0.5425670146942139
v -0.5664889812469482 12.726900100708008 5.173399925231934
v 1.079300045967102 16.616199493408203 4.475480079650879
v 2.060529947280884 4.566359996795654 -4.655720233917236
v 0.0069922199472785 5.242760181427002 -0.41118600964546204
v -0.44783100485801697 10.326800346374512 -6.259640216827393
v -2.7023301124572754 10.162300109863281 -0.4677110016345978
v 3.0144500732421875 5.810840129852295 3.5159199237823486
v 1.079300045967102 16.44969940185547 -5.560619831085205
v 0.18720699846744537 16.937700271606445 -1.899440050125122
v -5.528759956359863 11.735799789428711 -1.2297999858856201
v -4.830840110778809 20.09980010986328 0.13367000222206116
v 3.4971799850463867 4.1738200187683105 2.0035200119018555
v 0.23990599811077118 5.242760181427002 -0.7217029929161072
v 5.904280185699463 11.756799697875977 -1.0271199941635132
v 0.1123490035533905 11.742500305175781 -3.647969961166382
v 5.205259799957275 15.736800193786621 0.13367000222206116
v -3.9237399101257324 4.900239944458008 2.030940055847168
v -0.4319689869880676 21.293500900268555 -5.4963698387146
v 0.9382749795913696 20.271900177001953 1.2602499723434448
v 0.9587029814720154 13.411399841308594 -6.1942901611328125
v -0.928056001663208 4.6941399574279785 3.6348400115966797
v 0.4947830140590668 5.242760181427002 -0.42561399936676025
v 1.3723100423812866 9.565560340881348 5.238749980926514
v 3.3496599197387695 13.019200325012207 -0.5531690120697021
v -1.6670600175857544 5.492730140686035 -3.7502601146698
v -0.4319689869880676 14.437000274658203 7.263619899749756
v -4.547969818115234 6.569729804992676 -4.045869827270508
v 0.2271450012922287 5.242760181427002 -0.16118399798870087
v -5.437230110168457 14.214400291442871 -0.19591400027275085
v 0.3546999990940094 11.742500305175781 2.5042099952697754
v 4.3907999992370605 4.874330043792725 -1.4655499458312988
v -4.738210201263428 20.14620018005371 -1.2774200439453125
v -0.5159860253334045 -0.11912400275468826 -0.3771669864654541
v -0.47813600301742554 -0.11912400275468826 0.34501901268959045
v 0.05031469836831093 6.0884599685668945 -0.2261420041322708
v 0.01030030008405447 6.0884599685668945 -0.6068530082702637
v -0.5159860253334045 -0.11912400275468826 -0.3771669864654541
v 0.05031469836831093 6.0884599685668945 -0.2261420041322708
v 0.15915699303150177 -0.11912400275468826 -0.6363279819488525
v 0.3600110113620758 6.0884599685668945 -0.7625529766082764
v 0.6142640113830566 -0.11912400275468826 -0.07431670278310776
v 0.6161609888076782 6.0884599685668945 -0.478069007396698
v 0.2203959971666336 -0.11912400275468826 0.5321890115737915
v 0.4247559905052185 6.0884599685668945 -0.1465509980916977
vn 0.12041699886322021 0.27519598603248596 0.9538170099258423
vn 0.4076339900493622 -0.0643749013543129 0.9108729958534241
vn 0.5996710062026978 0.310575008392334 0.7375209927558899
vn -0.9505800008773804 0.3091999888420105 -0.02815370075404644
vn -0.8796600103378296 -0.07039760053157806 0.4703640043735504
vn -0.8146929740905762 0.42408299446105957 0.3955099880695343
vn -0.8254609704017639 -0.4597010016441345 -0.3275499939918518
vn -0.8529790043830872 -0.5103809833526611 0.10925900191068649
vn -0.9185580015182495 -0.1162249967455864 -0.377811998128891
vn -0.9920250177383423 -0.12521299719810486 0.014455700293183327
vn -0.6582790017127991 -0.48784399032592773 0.5733029842376709
vn -0.8745669722557068 0.26946398615837097 -0.40314000844955444
vn 0.04485990107059479 0.29823699593544006 -0.9534369707107544
vn -0.39253100752830505 -0.10300499945878983 -0.9139530062675476
vn -0.2716270089149475 0.18032799661159515 -0.9453579783439636
vn 0.47810500860214233 -0.4598880112171173 -0.7482770085334778
vn 0.011175500229001045 -0.4727500081062317 -0.8811259865760803
vn 0.4505850076675415 -0.05906509980559349 -0.8907769918441772
vn 0.011258999817073345 -0.051070500165224075 -0.99863201379776
vn 0.41976198554039 0.32709598541259766 -0.8466449975967407
vn -0.4582360088825226 -0.475257009267807 -0.7511000037193298
vn 0.9674170017242432 0.18930399417877197 -0.16813500225543976
vn 0.9647989869117737 0.25146201252937317 0.07700060307979584
vn 0.9239529967308044 -0.04762990027666092 -0.37953001260757446
vn 0.8437610268592834 -0.4842109978199005 0.2315330058336258
vn 0.8965709805488586 -0.4175319969654083 -0.1477389931678772
vn 0.945376992225647 -0.12064100056886673 0.30283400416374207
vn 0.9980720281600952 -0.02885410003364086 -0.05494510009884834
vn 0.748104989528656 -0.41585901379585266 -0.5171070098876953
vn 0.9069920182228088 0.18155600130558014 0.38000398874282837
vn -0.6402289867401123 -0.4097769856452942 0.6497610211372375
vn -0.18797500431537628 -0.4177109897136688 0.8889219760894775
vn -0.46973100304603577 -0.0757438987493515 0.8795539736747742
vn -0.04619299992918968 -0.06545040011405945 0.9967859983444214
vn 0.2414969950914383 -0.4034099876880646 0.8825759887695312
vn -0.2875399887561798 0.20843000710010529 0.9348139762878418
vn -0.9468309879302979 0.06995309889316559 -0.31403398513793945
vn -0.5875999927520752 0.12487299740314484 0.7994580268859863
vn -0.8831930160522461 0.1145860031247139 0.45479801297187805
vn -0.7093330025672913 0.03162059932947159 -0.7041640281677246
vn -0.9468309879302979 0.06995309889316559 -0.31403398513793945
vn -0.8831930160522461 0.1145860031247139 0.45479801297187805
vn 0.004640350118279457 -0.019176799803972244 -0.9998049736022949
vn 0.44914698600769043 -0.03514600172638893 -0.892765998840332
vn 0.9524009823799133 -0.0187780000269413 -0.3042680025100708
vn 0.9883900284767151 0.007107249926775694 0.15177099406719208
vn 0.5839070081710815 0.07050870358943939 0.8087530136108398
vn 0.16221599280834198 0.09955509752035141 0.981719970703125
vt 0.49999600648880005 0.9960746201686561
vt 0.9960780143737793 0.5019609928131104
vt 0.9960780143737793 0.9960784302093089
vt 0.49999600648880005 0.9960746201686561
vt 0.9960780143737793 0.5019609928131104
vt 0.9960780143737793 0.9960784302093089
vt 0.003913890104740858 0.007827997207641602
vt 0.4990220069885254 0.007827997207641602
vt 0.003921569790691137 0.5019609928131104
vt 0.49803900718688965 0.5019609928131104
vt 0.9960780143737793 0.007843017578125
vt 0.003921569790691137 0.9960784302093089
vt 0.49999600648880005 0.9960746201686561
vt 0.9960780143737793 0.5019609928131104
vt 0.9960780143737793 0.9960784302093089
vt 0.003913890104740858 0.007827997207641602
vt 0.4990220069885254 0.007827997207641602
vt 0.003921569790691137 0.5019609928131104
vt 0.49803900718688965 0.5019609928131104
vt 0.003921569790691137 0.9960784302093089
vt 0.9960780143737793 0.007843017578125
vt 0.9960780143737793 0.9960784302093089
vt 0.49999600648880005 0.9960746201686561
vt 0.9960780143737793 0.5019609928131104
vt 0.003913890104740858 0.007827997207641602
vt 0.4990220069885254 0.007827997207641602
vt 0.003921569790691137 0.5019609928131104
vt 0.49803900718688965 0.5019609928131104
vt 0.9960780143737793 0.007843017578125
vt 0.003921569790691137 0.9960784302093089
vt 0.003913890104740858 0.007827997207641602
vt 0.4990220069885254 0.007827997207641602
vt 0.003921569790691137 0.5019609928131104
vt 0.49803900718688965 0.5019609928131104
vt 0.9960780143737793 0.007843017578125
vt 0.003921569790691137 0.9960784302093089
vt 0.007874020375311375 0.09411799907684326
vt 0.1968500018119812 0.09411799907684326
vt 0.007874020375311375 0.9960784302093089
vt 0.7952759861946106 0.9960784302093089
vt 0.9921259880065918 0.09411799907684326
vt 0.9921259880065918 0.9960784302093089
vt 0.7952759861946106 0.09411799907684326
vt 0.5984249711036682 0.9960784302093089
vt 0.5984249711036682 0.09411799907684326
vt 0.4015749990940094 0.9960784302093089
vt 0.4015749990940094 0.09411799907684326
vt 0.1968500018119812 0.9960784302093089
g Geoset0
s 1
usemtl mat_duskwoodwhitetreetop02skin
f 1/1/1 2/2/2 3/3/3
f 4/4/4 5/5/5 6/6/6
f 7/7/7 8/8/8 9/9/9
f 9/9/9 8/8/8 10/10/10
f 8/8/8 11/11/11 5/5/5
f 8/8/8 5/5/5 10/10/10
f 4/4/4 10/10/10 5/5/5
f 9/9/9 10/10/10 4/4/4
f 12/12/12 9/9/9 4/4/4
f 13/13/13 14/14/14 15/15/15
f 16/16/16 17/17/17 18/18/18
f 18/18/18 17/17/17 19/19/19
f 20/20/20 18/18/18 13/13/13
f 18/18/18 19/19/19 13/13/13
f 13/13/13 19/19/19 14/14/14
f 17/17/17 14/14/14 19/19/19
f 17/17/17 21/21/21 14/14/14
f 22/22/22 23/23/23 24/24/24
f 25/25/25 26/26/26 27/27/27
f 27/27/27 26/26/26 28/28/28
f 26/26/26 29/29/29 24/24/24
f 26/26/26 24/24/24 28/28/28
f 23/23/23 28/28/28 24/24/24
f 27/27/27 28/28/28 23/23/23
f 30/30/30 27/27/27 23/23/23
f 31/31/31 32/32/32 33/33/33
f 33/33/33 32/32/32 34/34/34
f 32/32/32 35/35/35 2/2/2
f 32/32/32 2/2/2 34/34/34
f 1/1/1 34/34/34 2/2/2
f 33/33/33 34/34/34 1/1/1
f 36/36/36 33/33/33 1/1/1
g Geoset1
s 1
usemtl mat_duskwoodwhitetree03skin
f 37/37/37 38/38/38 39/39/39
f 40/40/40 41/41/41 42/42/42
f 40/40/40 43/43/43 41/41/41
f 44/44/44 43/43/43 40/40/40
f 44/44/44 45/45/45 43/43/43
f 46/46/46 45/45/45 44/44/44
f 46/46/46 47/47/47 45/45/45
f 48/48/48 47/47/47 46/46/46
f 48/48/48 38/38/38 47/47/47
f 39/39/39 38/38/38 48/48/48