# Exported using wow.export v0.1.49
o 
mtllib westfalltreecanopy01.mtl
v 0.9001190066337585 18.11750030517578 -5.312930107116699
v -0.16520699858665466 19.89349937438965 -2.6651101112365723
v -0.9276390075683594 29.07469940185547 -21.059099197387695
v 1.5073200464248657 19.60420036315918 1.5111299753189087
v 4.070069789886475 18.516000747680664 1.5899200439453125
v 13.400400161743164 33.75239944458008 12.958999633789062
v 0.1594800055027008 11.89430046081543 2.8551199436187744
v -3.2525100708007812 12.528800010681152 2.5515100955963135
v -1.4717899560928345 -4.7181901931762695 5.602230072021484
v -7.1308698654174805 -4.7181901931762695 2.3349599838256836
v -4.707980155944824 12.752599716186523 -0.6056749820709229
v -7.1308698654174805 -4.7181901931762695 -4.199570178985596
v -3.402129888534546 18.856300354003906 0.9261000156402588
v -0.4486669898033142 19.947999954223633 0.6338670253753662
v -14.18529987335205 31.481000900268555 11.391500473022461
v -0.9530249834060669 18.529800415039062 3.199860095977783
v -1.4602099657058716 28.604799270629883 17.850000381469727
v 4.070069789886475 18.516000747680664 1.5899200439453125
v 2.5063600540161133 19.42289924621582 -0.7656610012054443
v 13.400400161743164 33.75239944458008 12.958999633789062
v 0.1594800055027008 11.89430046081543 2.8551199436187744
v 2.1299800872802734 11.562999725341797 0.0015472200466319919
v 2.276560068130493 19.46299934387207 -2.9242000579833984
v 0.9001190066337585 18.11750030517578 -5.312930107116699
v -0.9276390075683594 29.07469940185547 -21.059099197387695
v 4.790110111236572 18.404600143432617 -1.695889949798584
v 14.11359977722168 33.64649963378906 -14.999300003051758
v 0.677361011505127 11.803000450134277 -3.1556499004364014
v -1.4717899560928345 -4.7181901931762695 5.602230072021484
v 4.187280178070068 -4.7181901931762695 2.3349599838256836
v 4.187270164489746 -4.7181901931762695 -4.199570178985596
v -1.8913999795913696 20.19729995727539 -1.3838200569152832
v -3.402129888534546 18.856300354003906 0.9261000156402588
v -14.18529987335205 31.481000900268555 11.391500473022461
v -4.707980155944824 12.752599716186523 -0.6056749820709229
v -2.737839937210083 12.41919994354248 -3.4592599868774414
v -7.1308698654174805 -4.7181901931762695 -4.199570178985596
v -1.4717899560928345 -4.7181901931762695 -7.466829776763916
v 0.677361011505127 11.803000450134277 -3.1556499004364014
v 4.187270164489746 -4.7181901931762695 -4.199570178985596
v -2.258620023727417 18.205699920654297 -4.300869941711426
v -14.212300300598145 31.903400421142578 -13.576899528503418
v -13.118200302124023 14.42549991607666 -16.733200073242188
v 0.7846440076828003 18.778499603271484 -1.0649800300598145
v -33.4453010559082 31.19610023498535 -2.1946001052856445
v -11.289199829101562 55.881500244140625 9.426179885864258
v -0.9740219712257385 55.668701171875 0.19366499781608582
v -33.4453010559082 31.19610023498535 -2.1946001052856445
v 9.869070053100586 55.45600128173828 -9.566720008850098
v -1.2446999549865723 33.2218017578125 -32.377498626708984
v 9.869070053100586 55.45600128173828 -9.566720008850098
v 31.862899780273438 32.354698181152344 0.27789199352264404
v -11.289199829101562 55.881500244140625 9.426179885864258
v -2.2114100456237793 33.08380126953125 30.82819938659668
v -10.770999908447266 55.904998779296875 -10.328200340270996
v -1.2446999549865723 33.2218017578125 -32.377498626708984
v 8.555049896240234 55.47949981689453 10.77869987487793
v 31.862899780273438 32.354698181152344 0.27789199352264404
v -10.770999908447266 55.904998779296875 -10.328200340270996
v -33.4453010559082 31.19610023498535 -2.1946001052856445
v -2.2114100456237793 33.08380126953125 30.82819938659668
v 8.555049896240234 55.47949981689453 10.77869987487793
v -17.193500518798828 47.940399169921875 14.243499755859375
v -33.4453010559082 31.19610023498535 -2.1946001052856445
v -18.235000610351562 31.128700256347656 15.001399993896484
v -2.2114100456237793 33.08380126953125 30.82819938659668
v -17.360300064086914 44.764801025390625 -16.081300735473633
v -1.2446999549865723 33.2218017578125 -32.377498626708984
v -18.269800186157227 31.673599243164062 -17.207799911499023
v -33.4453010559082 31.19610023498535 -2.1946001052856445
v 15.257200241088867 48.13140106201172 -16.34869956970215
v 31.862899780273438 32.354698181152344 0.27789199352264404
v 18.270599365234375 33.92219924926758 -19.042699813842773
v -1.2446999549865723 33.2218017578125 -32.377498626708984
v 17.589500427246094 44.60530090332031 16.597299575805664
v -2.2114100456237793 33.08380126953125 30.82819938659668
v 17.350500106811523 34.05870056152344 17.023500442504883
v 31.862899780273438 32.354698181152344 0.27789199352264404
v -17.193500518798828 47.940399169921875 14.243499755859375
v -20.08329963684082 35.33340072631836 -0.3251110017299652
v -18.235000610351562 31.128700256347656 15.001399993896484
v -17.360300064086914 44.764801025390625 -16.081300735473633
v -17.193500518798828 47.940399169921875 14.243499755859375
v -18.269800186157227 31.673599243164062 -17.207799911499023
v 17.589500427246094 44.60530090332031 16.597299575805664
v -1.5454699993133545 35.704200744628906 20.128599166870117
v 17.350500106811523 34.05870056152344 17.023500442504883
v -17.193500518798828 47.940399169921875 14.243499755859375
v 17.589500427246094 44.60530090332031 16.597299575805664
v -18.235000610351562 31.128700256347656 15.001399993896484
v -17.360300064086914 44.764801025390625 -16.081300735473633
v -0.07192359864711761 35.562801361083984 -21.059099197387695
v -18.269800186157227 31.673599243164062 -17.207799911499023
v 15.257200241088867 48.13140106201172 -16.34869956970215
v -17.360300064086914 44.764801025390625 -16.081300735473633
v 18.270599365234375 33.92219924926758 -19.042699813842773
v 11.471799850463867 14.42549991607666 13.576499938964844
v -2.2114100456237793 33.08380126953125 30.82819938659668
v -15.672300338745117 14.42549991607666 10.844200134277344
v -2.2114100456237793 33.08380126953125 30.82819938659668
v 14.637399673461914 14.42549991607666 -13.74590015411377
v 31.862899780273438 32.354698181152344 0.27789199352264404
v 11.471799850463867 14.42549991607666 13.576499938964844
v 31.862899780273438 32.354698181152344 0.27789199352264404
v -13.118200302124023 14.42549991607666 -16.733200073242188
v -1.2446999549865723 33.2218017578125 -32.377498626708984
v 14.637399673461914 14.42549991607666 -13.74590015411377
v -1.2446999549865723 33.2218017578125 -32.377498626708984
v -15.672300338745117 14.42549991607666 10.844200134277344
v -33.4453010559082 31.19610023498535 -2.1946001052856445
v 15.257200241088867 48.13140106201172 -16.34869956970215
v 17.589500427246094 44.60530090332031 16.597299575805664
v 19.193899154663086 35.55860137939453 -0.006423059850931168
v 17.350500106811523 34.05870056152344 17.023500442504883
v 18.270599365234375 33.92219924926758 -19.042699813842773
v 15.257200241088867 48.13140106201172 -16.34869956970215
vn -0.06822170317173004 -0.3328630030155182 -0.9405040144920349
vn -0.16471199691295624 -0.0802336037158966 -0.9830729961395264
vn -0.07840940356254578 -0.5510330200195312 -0.8307920098304749
vn 0.24707600474357605 -0.13056300580501556 0.9601600170135498
vn 0.8481040000915527 -0.2868799865245819 0.4454430043697357
vn 0.7997459769248962 -0.38149499893188477 0.4635390043258667
vn 0.5382599830627441 0.025774100795388222 0.8423849940299988
vn -0.5144879817962646 0.09851860255002975 0.8518189787864685
vn -0.020749500021338463 0.06110420078039169 0.9979159832000732
vn -0.8775309920310974 0.07298380136489868 0.47393301129341125
vn -0.9925140142440796 0.11238700151443481 0.04780210182070732
vn -0.8434309959411621 0.08947859704494476 -0.5297340154647827
vn -0.8024730086326599 -0.20292599499225616 0.5611220002174377
vn -0.7318220138549805 0.020063400268554688 0.6812009811401367
vn -0.7699329853057861 -0.4654409885406494 0.43654099106788635
vn -0.4681049883365631 -0.1927099972963333 0.8624039888381958
vn -0.5230420231819153 -0.47970500588417053 0.70449298620224
vn 0.8481040000915527 -0.2868799865245819 0.4454430043697357
vn 0.948648989200592 -0.014868199825286865 0.3159799873828888
vn 0.7997459769248962 -0.38149499893188477 0.4635390043258667
vn 0.5382599830627441 0.025774100795388222 0.8423849940299988
vn 0.9984830021858215 0.007992450147867203 0.05448240041732788
vn 0.7106999754905701 -0.19037799537181854 -0.6772459745407104
vn -0.06822170317173004 -0.3328630030155182 -0.9405040144920349
vn -0.07840940356254578 -0.5510330200195312 -0.8307920098304749
vn 0.9735450148582458 -0.22685199975967407 -0.027355700731277466
vn 0.9575099945068359 -0.28499698638916016 -0.04416570067405701
vn 0.491347998380661 0.0233341995626688 -0.8706510066986084
vn -0.020749500021338463 0.06110420078039169 0.9979159832000732
vn 0.8521810173988342 0.06752710044384003 0.5188720226287842
vn 0.8819820284843445 0.08451720327138901 -0.4636420011520386
vn -0.9682009816169739 0.00023922399850562215 -0.25017499923706055
vn -0.8024730086326599 -0.20292599499225616 0.5611220002174377
vn -0.7699329853057861 -0.4654409885406494 0.43654099106788635
vn -0.9925140142440796 0.11238700151443481 0.04780210182070732
vn -0.42215898633003235 0.07774610072374344 -0.9031820297241211
vn -0.8434309959411621 0.08947859704494476 -0.5297340154647827
vn 0.047935601323843 0.09465169906616211 -0.9943559765815735
vn 0.491347998380661 0.0233341995626688 -0.8706510066986084
vn 0.8819820284843445 0.08451720327138901 -0.4636420011520386
vn -0.46062400937080383 -0.20333999395370483 -0.8639900088310242
vn -0.49012500047683716 -0.4297280013561249 -0.7583609819412231
vn -0.34428098797798157 -0.7056139707565308 0.6193389892578125
vn 0.031318299472332 -0.9993389844894409 -0.018435100093483925
vn -0.9966220259666443 -0.07974059879779816 -0.01964529976248741
vn -0.0021511800587177277 0.999983012676239 -0.005476970225572586
vn -0.006116409786045551 0.9996830224990845 0.02441360056400299
vn -0.9966220259666443 -0.07974059879779816 -0.01964529976248741
vn 0.023730799555778503 0.9991710186004639 0.033066801726818085
vn 0.05766500160098076 -0.0032995399087667465 -0.9983310103416443
vn 0.023730799555778503 0.9991710186004639 0.033066801726818085
vn 0.9989240169525146 -0.03266080096364021 0.03294000029563904
vn -0.0021511800587177277 0.999983012676239 -0.005476970225572586
vn -0.09103769809007645 -0.059615299105644226 0.9940609931945801
vn 0.0009652390144765377 0.9994829893112183 0.03213600069284439
vn 0.05766500160098076 -0.0032995399087667465 -0.9983310103416443
vn -0.006043469998985529 0.9993709921836853 0.034946098923683167
vn 0.9989240169525146 -0.03266080096364021 0.03294000029563904
vn 0.0009652390144765377 0.9994829893112183 0.03213600069284439
vn -0.9966220259666443 -0.07974059879779816 -0.01964529976248741
vn -0.09103769809007645 -0.059615299105644226 0.9940609931945801
vn -0.006043469998985529 0.9993709921836853 0.034946098923683167
vn -0.6678469777107239 0.15323500335216522 0.7283539772033691
vn -0.9966220259666443 -0.07974059879779816 -0.01964529976248741
vn -0.6068570017814636 -0.41433998942375183 0.6782670021057129
vn -0.09103769809007645 -0.059615299105644226 0.9940609931945801
vn -0.6416800022125244 0.18205900490283966 -0.7450510263442993
vn 0.05766500160098076 -0.0032995399087667465 -0.9983310103416443
vn -0.5567619800567627 -0.4343140125274658 -0.7080870270729065
vn -0.9966220259666443 -0.07974059879779816 -0.01964529976248741
vn 0.6242319941520691 0.23680900037288666 -0.744484007358551
vn 0.9989240169525146 -0.03266080096364021 0.03294000029563904
vn 0.6096180081367493 -0.319923996925354 -0.7252690196037292
vn 0.05766500160098076 -0.0032995399087667465 -0.9983310103416443
vn 0.6318989992141724 0.12730799615383148 0.7645230293273926
vn -0.09103769809007645 -0.059615299105644226 0.9940609931945801
vn 0.5562949776649475 -0.4534800052642822 0.6963419914245605
vn 0.9989240169525146 -0.03266080096364021 0.03294000029563904
vn -0.6678469777107239 0.15323500335216522 0.7283539772033691
vn -0.9640229940414429 -0.24410100281238556 0.1052360013127327
vn -0.6068570017814636 -0.41433998942375183 0.6782670021057129
vn -0.6416800022125244 0.18205900490283966 -0.7450510263442993
vn -0.6678469777107239 0.15323500335216522 0.7283539772033691
vn -0.5567619800567627 -0.4343140125274658 -0.7080870270729065
vn 0.6318989992141724 0.12730799615383148 0.7645230293273926
vn -0.10182599723339081 -0.190993994474411 0.9762960076332092
vn 0.5562949776649475 -0.4534800052642822 0.6963419914245605
vn -0.6678469777107239 0.15323500335216522 0.7283539772033691
vn 0.6318989992141724 0.12730799615383148 0.7645230293273926
vn -0.6068570017814636 -0.41433998942375183 0.6782670021057129
vn -0.6416800022125244 0.18205900490283966 -0.7450510263442993
vn 0.06471460312604904 -0.15644699335098267 -0.9855639934539795
vn -0.5567619800567627 -0.4343140125274658 -0.7080870270729065
vn 0.6242319941520691 0.23680900037288666 -0.744484007358551
vn -0.6416800022125244 0.18205900490283966 -0.7450510263442993
vn 0.6096180081367493 -0.319923996925354 -0.7252690196037292
vn -0.18625600636005402 -0.9652389883995056 -0.18336200714111328
vn -0.09103769809007645 -0.059615299105644226 0.9940609931945801
vn 0.48349300026893616 -0.758105993270874 0.43761900067329407
vn -0.09103769809007645 -0.059615299105644226 0.9940609931945801
vn 0.24629400670528412 -0.6899129748344421 0.6807050108909607
vn 0.9989240169525146 -0.03266080096364021 0.03294000029563904
vn -0.18625600636005402 -0.9652389883995056 -0.18336200714111328
vn 0.9989240169525146 -0.03266080096364021 0.03294000029563904
vn 0.6230840086936951 -0.6019409894943237 -0.4994330108165741
vn 0.05766500160098076 -0.0032995399087667465 -0.9983310103416443
vn -0.5319769978523254 -0.7632009983062744 -0.3667759895324707
vn 0.05766500160098076 -0.0032995399087667465 -0.9983310103416443
vn -0.16950300335884094 -0.6708009839057922 -0.7220079898834229
vn -0.9966220259666443 -0.07974059879779816 -0.01964529976248741
vn 0.6242319941520691 0.23680900037288666 -0.744484007358551
vn 0.6318989992141724 0.12730799615383148 0.7645230293273926
vn 0.967956006526947 -0.22205699980258942 -0.1172730028629303
vn 0.5562949776649475 -0.4534800052642822 0.6963419914245605
vn 0.6096180081367493 -0.319923996925354 -0.7252690196037292
vn 0.6242319941520691 0.23680900037288666 -0.744484007358551
vt 0.5039060115814209 0.6015619933605194
vt 0.6289060115814209 0.6015619933605194
vt 0.5039060115814209 0.99609375
vt 0.8710939884185791 0.6015619933605194
vt 0.9921259880065918 0.6007829904556274
vt 0.9921259880065918 0.9960861201398075
vt 0.9921259880065918 0.46860402822494507
vt 0.7460939884185791 0.46875
vt 0.9921259880065918 0.003913998603820801
vt 0.7460939884185791 0.0039060115814208984
vt 0.5039060115814209 0.46875
vt 0.5039060115814209 0.0039060115814208984
vt 0.5039060115814209 0.6015619933605194
vt 0.6289060115814209 0.6015619933605194
vt 0.5039060115814209 0.99609375
vt 0.7460939884185791 0.6015619933605194
vt 0.7460939884185791 0.99609375
vt 0.5039060115814209 0.6015619933605194
vt 0.6289060115814209 0.6015619933605194
vt 0.5039060115814209 0.99609375
vt 0.5039060115814209 0.46875
vt 0.7460939884185791 0.46875
vt 0.8710939884185791 0.6015619933605194
vt 0.9921259880065918 0.6007829904556274
vt 0.9921259880065918 0.9960861201398075
vt 0.7460939884185791 0.6015619933605194
vt 0.7460939884185791 0.99609375
vt 0.9921259880065918 0.46860402822494507
vt 0.5039060115814209 0.0039060115814208984
vt 0.7460939884185791 0.0039060115814208984
vt 0.9921259880065918 0.003913998603820801
vt 0.8710939884185791 0.6015619933605194
vt 0.9921259880065918 0.6007829904556274
vt 0.9921259880065918 0.9960861201398075
vt 0.9921259880065918 0.46860402822494507
vt 0.7460939884185791 0.46875
vt 0.9921259880065918 0.003913998603820801
vt 0.7460939884185791 0.0039060115814208984
vt 0.5039060115814209 0.46875
vt 0.5039060115814209 0.0039060115814208984
vt 0.7460939884185791 0.6015619933605194
vt 0.7460939884185791 0.99609375
vt 0.003913890104740858 0.007827997207641602
vt 0.49803900718688965 0.007843017578125
vt 0.003921569790691137 0.8470589965581894
vt 0.9960860013961792 0.9960861201398075
vt 0.5000039935112 0.9960822500288486
vt 0.9960780143737793 0.007843017578125
vt 0.003921569790691137 0.9960784302093089
vt 0.003921569790691137 0.007843017578125
vt 0.9960860013961792 0.9960861201398075
vt 0.9960780143737793 0.007843017578125
vt 0.003921569790691137 0.9960784302093089
vt 0.003921569790691137 0.007843017578125
vt 0.9960860013961792 0.9960861201398075
vt 0.9960780143737793 0.007843017578125
vt 0.003921569790691137 0.9960784302093089
vt 0.003921569790691137 0.007843017578125
vt 0.003921569790691137 0.9960784302093089
vt 0.003921569790691137 0.007843017578125
vt 0.9960780143737793 0.007843017578125
vt 0.9960860013961792 0.9960861201398075
vt 0.49019598960876465 0.9921568604186177
vt 0.9960780143737793 0.878430999815464
vt 0.49019598960876465 0.517646998167038
vt 0.003921569790691137 0.8470589965581894
vt 0.5058820247650146 0.9921568604186177
vt 0 0.8470589965581894
vt 0.5058820247650146 0.517646998167038
vt 0.992156982421875 0.8470589965581894
vt 0.49019598960876465 0.9921568604186177
vt 0.9960780143737793 0.8470589965581894
vt 0.49019598960876465 0.517646998167038
vt 0.003921569790691137 0.8470589965581894
vt 0.5058820247650146 0.9921568604186177
vt 0 0.8470589965581894
vt 0.5058820247650146 0.517646998167038
vt 0.992156982421875 0.8470589965581894
vt 0.9960860013961792 0.9960861201398075
vt 0.49803200364112854 0.5019530057907104
vt 0.7470589876174927 0.5019609928131104
vt 0.003921569790691137 0.9960784302093089
vt 0.9960780143737793 0.9960784302093089
vt 0.2509799897670746 0.5019609928131104
vt 0.9960860013961792 0.9960861201398075
vt 0.49803200364112854 0.5019530057907104
vt 0.7470589876174927 0.5019609928131104
vt 0.003921569790691137 0.9960784302093089
vt 0.9960780143737793 0.9960784302093089
vt 0.2509799897670746 0.5019609928131104
vt 0.9960860013961792 0.9960861201398075
vt 0.49803200364112854 0.5019530057907104
vt 0.7470589876174927 0.5019609928131104
vt 0.003921569790691137 0.9960784302093089
vt 0.9960780143737793 0.9960784302093089
vt 0.2509799897670746 0.5019609928131104
vt 0.9960780143737793 0.007843017578125
vt 0.9960780143737793 0.8509799987077713
vt 0.992156982421875 0.007843017578125
vt 0.992156982421875 0.8470589965581894
vt 0 0.007843017578125
vt 0 0.8470589965581894
vt 0.003921569790691137 0.007843017578125
vt 0.003921569790691137 0.8470589965581894
vt 0.9960780143737793 0.007843017578125
vt 0.9960780143737793 0.8470589965581894
vt 0.992156982421875 0.007843017578125
vt 0.992156982421875 0.8470589965581894
vt 0 0.007843017578125
vt 0 0.8470589965581894
vt 0.9960780143737793 0.9960784302093089
vt 0.003921569790691137 0.9960784302093089
vt 0.49803200364112854 0.5019530057907104
vt 0.2509799897670746 0.5019609928131104
vt 0.7470589876174927 0.5019609928131104
vt 0.9960860013961792 0.9960861201398075
g Geoset0
s 1
usemtl mat_westfalltreetrunk
f 1/1/1 2/2/2 3/3/3
f 4/4/4 5/5/5 6/6/6
f 4/4/4 7/7/7 5/5/5
f 8/8/8 7/7/7 4/4/4
f 8/8/8 9/9/9 7/7/7
f 10/10/10 9/9/9 8/8/8
f 11/11/11 10/10/10 8/8/8
f 12/12/12 10/10/10 11/11/11
f 13/13/13 14/14/14 15/15/15
f 14/14/14 16/16/16 17/17/17
f 16/16/16 4/4/4 17/17/17
f 8/8/8 4/4/4 16/16/16
f 14/14/14 8/8/8 16/16/16
f 11/11/11 8/8/8 14/14/14
f 11/11/11 14/14/14 13/13/13
f 18/18/18 19/19/19 20/20/20
f 21/21/21 19/19/19 18/18/18
f 21/21/21 22/22/22 19/19/19
f 23/23/23 24/24/24 25/25/25
f 26/26/26 23/23/23 27/27/27
f 19/19/19 26/26/26 27/27/27
f 19/19/19 22/22/22 26/26/26
f 22/22/22 23/23/23 26/26/26
f 22/22/22 28/28/28 23/23/23
f 23/23/23 28/28/28 24/24/24
f 29/29/29 30/30/30 21/21/21
f 21/21/21 30/30/30 22/22/22
f 30/30/30 31/31/31 22/22/22
f 22/22/22 31/31/31 28/28/28
f 32/32/32 33/33/33 34/34/34
f 32/32/32 35/35/35 33/33/33
f 36/36/36 35/35/35 32/32/32
f 36/36/36 37/37/37 35/35/35
f 38/38/38 37/37/37 36/36/36
f 39/39/39 38/38/38 36/36/36
f 40/40/40 38/38/38 39/39/39
f 41/41/41 32/32/32 42/42/42
f 36/36/36 32/32/32 41/41/41
f 2/2/2 36/36/36 41/41/41
f 39/39/39 36/36/36 2/2/2
f 39/39/39 2/2/2 1/1/1
f 2/2/2 41/41/41 42/42/42
g Geoset1
s 1
usemtl mat_westfalltreetop03skin
f 43/43/43 44/44/44 45/45/45
f 46/46/46 47/47/47 48/48/48
f 47/47/47 49/49/49 50/50/50
f 50/50/50 48/48/48 47/47/47
f 51/51/51 47/47/47 52/52/52
f 47/47/47 53/53/53 54/54/54
f 54/54/54 52/52/52 47/47/47
f 55/55/55 47/47/47 56/56/56
f 47/47/47 57/57/57 58/58/58
f 58/58/58 56/56/56 47/47/47
f 47/47/47 59/59/59 60/60/60
f 60/60/60 61/61/61 47/47/47
f 62/62/62 47/47/47 61/61/61
f 63/63/63 64/64/64 65/65/65
f 64/64/64 44/44/44 65/65/65
f 44/44/44 66/66/66 65/65/65
f 65/65/65 66/66/66 63/63/63
f 67/67/67 68/68/68 69/69/69
f 68/68/68 44/44/44 69/69/69
f 44/44/44 70/70/70 69/69/69
f 69/69/69 70/70/70 67/67/67
f 71/71/71 72/72/72 73/73/73
f 72/72/72 44/44/44 73/73/73
f 44/44/44 74/74/74 73/73/73
f 73/73/73 74/74/74 71/71/71
f 75/75/75 76/76/76 77/77/77
f 76/76/76 44/44/44 77/77/77
f 44/44/44 78/78/78 77/77/77
f 77/77/77 78/78/78 75/75/75
f 79/79/79 80/80/80 81/81/81
f 82/82/82 80/80/80 83/83/83
f 44/44/44 81/81/81 80/80/80
f 84/84/84 44/44/44 80/80/80
f 84/84/84 80/80/80 82/82/82
f 85/85/85 86/86/86 87/87/87
f 88/88/88 86/86/86 89/89/89
f 44/44/44 87/87/87 86/86/86
f 90/90/90 44/44/44 86/86/86
f 90/90/90 86/86/86 88/88/88
f 91/91/91 92/92/92 93/93/93
f 94/94/94 92/92/92 95/95/95
f 44/44/44 93/93/93 92/92/92
f 96/96/96 44/44/44 92/92/92
f 96/96/96 92/92/92 94/94/94
f 44/44/44 97/97/97 98/98/98
f 99/99/99 44/44/44 100/100/100
f 44/44/44 101/101/101 102/102/102
f 103/103/103 44/44/44 104/104/104
f 44/44/44 105/105/105 106/106/106
f 107/107/107 44/44/44 108/108/108
f 44/44/44 109/109/109 110/110/110
f 111/111/111 112/112/112 113/113/113
f 114/114/114 113/113/113 112/112/112
f 44/44/44 115/115/115 113/113/113
f 116/116/116 113/113/113 115/115/115
f 114/114/114 44/44/44 113/113/113