# Exported using wow.export v0.1.49
o 
mtllib generaldirtyplate01.mtl
v -0.0007972220191732049 0.006634170189499855 0.003569439984858036
v -0.19866199791431427 0.08254250138998032 0.34627199172973633
v -0.39652198553085327 0.08254250138998032 0.003569439984858036
v 0.1970590054988861 0.08254250138998032 -0.33913299441337585
v 0.3949190080165863 0.08254250138998032 0.003569439984858036
v 0.1970590054988861 0.08254250138998032 0.34627199172973633
v -0.19866199791431427 0.08254250138998032 -0.33913299441337585
vn -9.420200086651676e-8 -1 9.767240349844997e-10
vn -0.09419389814138412 -0.9820950031280518 0.16314899921417236
vn -0.18838800489902496 -0.9820950031280518 5.599829933089495e-9
vn 0.09419369697570801 -0.9820950031280518 -0.16314899921417236
vn 0.18838800489902496 -0.9820950031280518 -1.7506399885292012e-8
vn 0.09419380128383636 -0.9820950031280518 0.16314899921417236
vn -0.09419389814138412 -0.9820950031280518 -0.16314899921417236
vt 0.5 0.5
vt 0.9849519729614258 0.2575240135192871
vt 0.5 0.015048027038574219
vt 0.015048099681735039 0.7424759864807129
vt 0.5 0.984951900318265
vt 0.9849519729614258 0.7424759864807129
vt 0.015048099681735039 0.2575240135192871
g Geoset0
s 1
usemtl mat_plate_01
f 1/1/1 2/2/2 3/3/3
f 1/1/1 4/4/4 5/5/5
f 1/1/1 5/5/5 6/6/6
f 1/1/1 6/6/6 2/2/2
f 1/1/1 7/7/7 4/4/4
f 1/1/1 3/3/3 7/7/7