# Exported using wow.export v0.1.49
o 
mtllib shovel.mtl
v 0.053552329540252686 0.496536523103714 -0.00041332506225444376
v 0.0004736953997053206 0.4965364634990692 0.052665311843156815
v 0.0004738090792670846 0.24967969954013824 -0.0004134319315198809
v 0.00047377150622196496 1.5591551065444946 0.05542208254337311
v -0.05536174774169922 1.5591551065444946 -0.00041343530756421387
v -0.037432894110679626 0.8050568699836731 -0.00041333798435516655
v 0.05630927532911301 1.5591551065444946 -0.0004134424088988453
v 0.00047372389235533774 0.8050569891929626 0.0374932698905468
v -0.05260493606328964 0.4965364634990692 -0.0004133183101657778
v 0.0004736953997053206 0.4965364634990692 0.052665311843156815
v 0.03838033601641655 0.8050569891929626 -0.0004133427864871919
v 0.0004737595154438168 1.5591551065444946 -0.05624895170331001
v 0.00047371574328280985 0.8050568699836731 -0.03831994906067848
v 0.000473684020107612 0.49653658270835876 -0.053491950035095215
v 0.053552329540252686 0.496536523103714 -0.00041332506225444376
v -0.045000988990068436 0.11219736188650131 0.14048412442207336
v -0.026454133912920952 0.0013195406645536423 -0.000646292872261256
v -0.05127666890621185 0.43291082978248596 0.18649613857269287
v -0.04500097781419754 0.10518784821033478 -0.13758987188339233
v -0.05127667635679245 0.43291085958480835 -0.18732260167598724
v 0.000473684020107612 0.49653658270835876 -0.053491950035095215
v -0.05260493606328964 0.4965364634990692 -0.0004133183101657778
vn 0.9789525866508484 -0.05464077740907669 -0.1966373473405838
vn -0.07332003116607666 -0.039189837872982025 0.9965381622314453
vn -0.9993911981582642 -0.03488389030098915 0.000630917027592659
vn -0.29106298089027405 0.3909236490726471 0.87319016456604
vn -0.7150194644927979 0.6572225689888 -0.2383394092321396
vn -0.9999194741249084 0.012691332958638668 0.00007721602014498785
vn 0.7150196433067322 0.6572220325469971 0.23834018409252167
vn 0.00007720498979324475 0.012691344134509563 0.9999194741249084
vn -0.9789525866508484 -0.05464101582765579 0.19663721323013306
vn -0.07332003116607666 -0.039189837872982025 0.9965381622314453
vn 0.9999194741249084 0.012691165320575237 -0.00007719175482634455
vn 0.2910636067390442 0.39092355966567993 -0.8731899857521057
vn -0.00007725897739874199 0.012691150419414043 -0.9999194741249084
vn -0.4589143693447113 -0.034913137555122375 -0.8877942562103271
vn 0.9789525866508484 -0.05464077740907669 -0.1966373473405838
vn -0.9662987589836121 0.0641174465417862 -0.24931038916110992
vn -0.994173526763916 0.10779090225696564 0.0003645285905804485
vn -0.9499591588973999 0.0467558354139328 -0.3088550567626953
vn -0.9657354354858398 0.06553398817777634 0.25111812353134155
vn -0.9494106769561768 0.048373058438301086 0.31028926372528076
vn -0.4589143693447113 -0.034913137555122375 -0.8877942562103271
vn -0.9789525866508484 -0.05464101582765579 0.19663721323013306
vt 0.9276561141014099 0.7577524185180664
vt 0.6820314526557922 0.7577524781227112
vt 0.9276570677757263 0.8914179801940918
vt 0.0004995167255401611 0.007745921611785889
vt 0.4999999701976776 0.007745862007141113
vt 0.5000001192092896 0.49447500705718994
vt 0.5000001192092896 0.007745921611785889
vt 0.1608904004096985 0.49447494745254517
vt 0.5000003576278687 0.78452467918396
vt 0.025162816047668457 0.78452467918396
vt 0.5000002384185791 0.49447494745254517
vt 0.9995005130767822 0.007745862007141113
vt 0.8391099572181702 0.49447500705718994
vt 0.9748380184173584 0.7845246195793152
vt 0.5000004768371582 0.7845246195793152
vt 0.10413282364606857 0.9499582052230835
vt 0.9287347197532654 1.0015043020248413
vt 0.016984403133392334 0.7881516218185425
vt 0.10280808061361313 0.9494962692260742
vt 0.023054033517837524 0.7881516218185425
vt 0.688100278377533 0.7577524185180664
vt 0.9276561141014099 0.7577524781227112
g Geoset0
s 1
usemtl mat_shovel
f 1/1/1 2/2/2 3/3/3
f 4/4/4 5/5/5 6/6/6
f 5/5/5 4/4/4 7/7/7
f 7/7/7 4/4/4 8/8/8
f 4/4/4 6/6/6 8/8/8
f 8/8/8 9/9/9 10/10/10
f 11/11/11 8/8/8 10/10/10
f 7/7/7 8/8/8 11/11/11
f 12/12/12 7/7/7 11/11/11
f 5/5/5 7/7/7 12/12/12
f 5/5/5 12/12/12 13/13/13
f 5/5/5 13/13/13 6/6/6
f 12/12/12 11/11/11 13/13/13
f 8/8/8 6/6/6 9/9/9
f 6/6/6 14/14/14 9/9/9
f 6/6/6 13/13/13 14/14/14
f 13/13/13 15/15/15 14/14/14
f 13/13/13 11/11/11 15/15/15
f 11/11/11 10/10/10 15/15/15
f 16/16/16 3/3/3 17/17/17
f 18/18/18 3/3/3 16/16/16
f 3/3/3 18/18/18 2/2/2
f 19/19/19 17/17/17 3/3/3
f 20/20/20 19/19/19 3/3/3
f 3/3/3 21/21/21 20/20/20
f 2/2/2 22/22/22 3/3/3
f 22/22/22 21/21/21 3/3/3
f 21/21/21 1/1/1 3/3/3