# Exported using wow.export v0.1.49
o 
mtllib wailingcavernshangingbones03.mtl
v 0.08961830288171768 3.4582509994506836 0.5010714530944824
v 0.47832170128822327 3.5475454330444336 0.9292992353439331
v 0.32407331466674805 3.4458625316619873 1.0255860090255737
v 0.03612716495990753 3.875140428543091 0.4491064250469208
v -0.08278939127922058 3.6257688999176025 -0.055012837052345276
v 0.10513640195131302 3.6456079483032227 -0.16009019315242767
v -0.13768351078033447 3.420323610305786 -0.7140381336212158
v 0.0034852097742259502 3.2023565769195557 -0.49336567521095276
v -0.12011265754699707 2.792706251144409 -0.7849672436714172
v -0.22948922216892242 2.6969187259674072 -0.7727187871932983
v -0.1983795464038849 3.2087793350219727 -1.1463543176651
v -0.41051921248435974 3.104048252105713 -1.0035349130630493
v -0.1922118067741394 3.0887186527252197 -0.41436511278152466
v 0.17487752437591553 3.432903289794922 -0.053517214953899384
v 0.27373677492141724 3.843179941177368 0.3873206675052643
v 0.26296818256378174 4.00062894821167 0.9503649473190308
v 0.4120417833328247 3.8760769367218018 0.8350794911384583
v -0.35999318957328796 3.4011218547821045 -0.4863423705101013
v -0.06101778522133827 3.355233669281006 0.012720481492578983
v 0.3165820240974426 3.5237112045288086 0.40581730008125305
v -0.1490298956632614 3.4721076488494873 0.7918299436569214
v -0.22251561284065247 3.0317931175231934 0.8011757731437683
v -0.06775747984647751 3.1622445583343506 0.8280471563339233
v -0.030397213995456696 3.3584115505218506 0.4303165674209595
v -0.3534761071205139 3.5317273139953613 0.8238664269447327
v 0.03108682855963707 3.1417813301086426 0.4786054790019989
v 0.1773689091205597 2.9941794872283936 0.03764539957046509
v -0.045256536453962326 2.8832573890686035 -0.019327424466609955
v 0.09113682806491852 2.673854112625122 -0.38386479020118713
v -0.04707540199160576 2.8613269329071045 -0.5313567519187927
v 0.22718524932861328 2.606567144393921 -0.9726638793945312
v 0.5301678776741028 2.7481021881103516 -0.9692111611366272
v 0.2858266830444336 2.3608484268188477 -0.6285802721977234
v 0.43720901012420654 2.4777276515960693 -0.5805068016052246
v -0.20021463930606842 3.043792247772217 0.4450722932815552
v -0.05987345427274704 3.1180419921875 -0.11815855652093887
v 0.2530238628387451 2.9152064323425293 -0.5884106755256653
v 0.28243929147720337 2.8098864555358887 -0.3614886999130249
v 0.1489124596118927 3.1679117679595947 -0.10398727655410767
v -0.26473161578178406 3.345850706100464 0.3524359464645386
v 0.036295343190431595 5.866452693939209 -0.05962534248828888
v -0.08134204149246216 6.083822727203369 0.058253638446331024
v 0.03629535809159279 6.083822727203369 -0.1746080070734024
v 0.15393273532390594 6.083822727203369 0.058253638446331024
v 0.03629537299275398 6.312837600708008 -0.05962534248828888
v 0.14088495075702667 3.0624680519104004 -0.053928688168525696
v -0.07707682996988297 3.0624680519104004 -0.053928688168525696
v -0.07707665860652924 6.067546367645264 -0.05392865091562271
v 0.033959437161684036 3.0624680519104004 0.0572727732360363
v 0.03395957872271538 6.067546367645264 -0.16068902611732483
v 0.03395957872271538 6.067546367645264 0.0572727806866169
v 0.033959437161684036 3.0624680519104004 -0.16068902611732483
v 0.1408851593732834 6.067546367645264 -0.05392865091562271
vn -0.5100643634796143 -0.8285306096076965 0.2310224324464798
vn 0.8088449835777283 -0.5723530650138855 0.13483957946300507
vn -0.1538570672273636 -0.21393634378910065 0.9646549820899963
vn -0.7554174661636353 0.6546014547348022 0.029005778953433037
vn -0.8048624992370605 0.5919321179389954 0.04257604107260704
vn 0.5051350593566895 0.7081098556518555 -0.49337515234947205
vn 0.4417593479156494 0.7457726001739502 -0.49867019057273865
vn 0.9340886473655701 -0.35696911811828613 0.007170011755079031
vn 0.9107763171195984 -0.32506081461906433 -0.2546016275882721
vn 0.15020348131656647 -0.988590657711029 -0.01129063405096531
vn 0.04637444391846657 0.19953706860542297 -0.9787923097610474
vn -0.9688105583190918 -0.16605840623378754 -0.183931365609169
vn -0.2694139778614044 -0.7802701592445374 0.5644418001174927
vn 0.8730082511901855 -0.4814247786998749 -0.07801806181669235
vn 0.6945388913154602 0.6222209334373474 -0.3611880838871002
vn 0.17594489455223083 0.93413907289505 0.3105280101299286
vn 0.8949307799339294 0.3989158272743225 0.1999126374721527
vn -0.906017541885376 0.4162062108516693 0.07684143632650375
vn -0.41300925612449646 -0.773536205291748 0.4806923270225525
vn 0.8180765509605408 -0.5504668951034546 -0.1665440797805786
vn 0.6009410619735718 0.46646648645401 0.6490600109100342
vn -0.52852863073349 -0.4639013409614563 0.7109522223472595
vn 0.6632724404335022 -0.5214627981185913 0.536792516708374
vn 0.6413412094116211 0.7651240229606628 -0.05715501680970192
vn -0.2897472679615021 0.9377514719963074 0.19149070978164673
vn 0.8468759655952454 -0.3907873034477234 0.3606749176979065
vn 0.8431399464607239 -0.3293129503726959 0.4250505566596985
vn -0.4715879261493683 -0.8354130983352661 0.2822938561439514
vn -0.34545445442199707 -0.8588626980781555 0.37817466259002686
vn -0.8573671579360962 0.26897552609443665 -0.43883219361305237
vn -0.6664610505104065 -0.4461747705936432 -0.5972920060157776
vn 0.592944860458374 0.21622635424137115 -0.7756690979003906
vn 0.16011711955070496 -0.9648690223693848 0.20830343663692474
vn 0.9119965434074402 -0.16680748760700226 0.3747499883174896
vn -0.4286481738090515 -0.9034509062767029 -0.006098415236920118
vn -0.7714564800262451 0.4517776072025299 -0.44805341958999634
vn 0.47986966371536255 0.8445923924446106 -0.2374633103609085
vn 0.8266410231590271 -0.17218761146068573 0.5357387661933899
vn 0.5673508048057556 0.7967495918273926 -0.20809410512447357
vn -0.7540106773376465 0.5130972862243652 -0.41012078523635864
vn 3.755438626740215e-9 -0.9999980926513672 0.0019654263742268085
vn -0.7873833775520325 -0.46654626727104187 0.4029417335987091
vn -6.572040689434289e-10 -0.503000020980835 -0.8642864227294922
vn 0.7873831987380981 -0.4665463864803314 0.40294185280799866
vn 5.9601269697395765e-8 0.9999433755874634 0.010639859363436699
vn 9.276568254266353e-16 1.245079861433851e-8 -1
vn 9.276568254266353e-16 1.245079861433851e-8 -1
vn 9.276568254266353e-16 1.245079861433851e-8 -1
vn 1 -4.7153847049230535e-8 0
vn 1 -4.7153847049230535e-8 0
vn 1 -4.7153847049230535e-8 0
vn 1 -4.7153847049230535e-8 0
vn 9.276568254266353e-16 1.245079861433851e-8 -1
vt 0.2841702103614807 0.2312530279159546
vt 0.013284921646118164 0.17520266771316528
vt 0.010874658823013306 0.002915024757385254
vt 0.24287930130958557 0.9847826361656189
vt 0.505474328994751 0.9066793918609619
vt 0.508758008480072 0.9770973324775696
vt 0.7897770404815674 0.9995005130767822
vt 0.7226206064224243 0.42422163486480713
vt 0.9628327488899231 0.10835117101669312
vt 0.9946492910385132 0.009447574615478516
vt 0.9935798048973083 0.9431522488594055
vt 0.9943220615386963 0.7485941648483276
vt 0.7338336706161499 0.2514479160308838
vt 0.4936329126358032 0.48448848724365234
vt 0.24959154427051544 0.8395588994026184
vt 0.0064201802015304565 0.9809665679931641
vt 0.01814873516559601 0.8053138852119446
vt 0.7389014959335327 0.8469135761260986
vt 0.508758008480072 0.3774690628051758
vt 0.283378541469574 0.33819878101348877
vt 0.01768246293067932 0.6700217723846436
vt 0.042348846793174744 0.06330138444900513
vt 0.034684404730796814 0.2298872470855713
vt 0.22517363727092743 0.7444705963134766
vt 0.014314398169517517 0.9346041083335876
vt 0.2848663032054901 0.26033079624176025
vt 0.4932926297187805 0.2730574607849121
vt 0.5469432473182678 0.05976229906082153
vt 0.7895514965057373 0.09853607416152954
vt 0.7218155860900879 0.8021007180213928
vt 0.9911831617355347 0.8388172388076782
vt 0.9995005130767822 0.9995004534721375
vt 1.0425516366958618 0.09470099210739136
vt 0.9902418851852417 0.3167039155960083
vt 0.2068055123090744 0.11202836036682129
vt 0.4929622411727905 0.8321760892868042
vt 0.7642074823379517 0.9746281504631042
vt 0.7382261753082275 0.36671483516693115
vt 0.5019851922988892 0.9781217575073242
vt 0.22732682526111603 0.9549903869628906
vt 0.0004993081092834473 0.4999998211860657
vt 0.4869711697101593 0.9995005130767822
vt 0.4869711399078369 0.4999997019767761
vt 0.4869711697101593 0.0004994869232177734
vt 0.9995003938674927 0.4999998211860657
vt 0.19917306303977966 -1.567326545715332
vt 0.7665064930915833 -1.567326545715332
vt 0.7665064930915833 0.9874393939971924
vt 0.19917306303977966 -1.567326545715332
vt 0.7665064930915833 0.9874393939971924
vt 0.19917306303977966 0.9874393939971924
vt 0.7665064930915833 -1.567326545715332
vt 0.19917306303977966 0.9874393939971924
g Geoset0
s 1
usemtl mat_bone02
f 1/1/1 2/2/2 3/3/3
f 4/4/4 1/1/1 3/3/3
f 5/5/5 1/1/1 4/4/4
f 6/6/6 5/5/5 4/4/4
f 7/7/7 5/5/5 6/6/6
f 8/8/8 7/7/7 6/6/6
f 9/9/9 7/7/7 8/8/8
f 10/10/10 9/9/9 8/8/8
f 11/11/11 9/9/9 10/10/10
f 11/11/11 10/10/10 12/12/12
f 12/12/12 10/10/10 13/13/13
f 10/10/10 8/8/8 13/13/13
f 13/13/13 8/8/8 14/14/14
f 8/8/8 6/6/6 14/14/14
f 14/14/14 6/6/6 15/15/15
f 6/6/6 4/4/4 15/15/15
f 15/15/15 4/4/4 16/16/16
f 4/4/4 3/3/3 16/16/16
f 17/17/17 16/16/16 3/3/3
f 17/17/17 3/3/3 2/2/2
f 11/11/11 12/12/12 18/18/18
f 12/12/12 13/13/13 18/18/18
f 18/18/18 13/13/13 19/19/19
f 13/13/13 14/14/14 19/19/19
f 19/19/19 14/14/14 20/20/20
f 14/14/14 15/15/15 20/20/20
f 20/20/20 15/15/15 17/17/17
f 15/15/15 16/16/16 17/17/17
f 20/20/20 17/17/17 2/2/2
f 1/1/1 20/20/20 2/2/2
f 19/19/19 20/20/20 1/1/1
f 5/5/5 19/19/19 1/1/1
f 18/18/18 19/19/19 5/5/5
f 7/7/7 18/18/18 5/5/5
f 11/11/11 18/18/18 7/7/7
f 9/9/9 11/11/11 7/7/7
f 21/21/21 22/22/22 23/23/23
f 24/24/24 25/25/25 21/21/21
f 26/26/26 24/24/24 21/21/21
f 27/27/27 24/24/24 26/26/26
f 28/28/28 27/27/27 26/26/26
f 29/29/29 27/27/27 28/28/28
f 30/30/30 29/29/29 28/28/28
f 31/31/31 29/29/29 30/30/30
f 32/32/32 31/31/31 30/30/30
f 32/32/32 33/33/33 31/31/31
f 32/32/32 34/34/34 33/33/33
f 26/26/26 21/21/21 23/23/23
f 35/35/35 26/26/26 23/23/23
f 28/28/28 26/26/26 35/35/35
f 36/36/36 28/28/28 35/35/35
f 30/30/30 28/28/28 36/36/36
f 37/37/37 30/30/30 36/36/36
f 32/32/32 30/30/30 37/37/37
f 34/34/34 32/32/32 37/37/37
f 33/33/33 34/34/34 38/38/38
f 34/34/34 37/37/37 38/38/38
f 38/38/38 37/37/37 39/39/39
f 37/37/37 36/36/36 39/39/39
f 39/39/39 36/36/36 40/40/40
f 36/36/36 35/35/35 40/40/40
f 40/40/40 35/35/35 22/22/22
f 35/35/35 23/23/23 22/22/22
f 31/31/31 33/33/33 29/29/29
f 33/33/33 38/38/38 29/29/29
f 29/29/29 38/38/38 27/27/27
f 38/38/38 39/39/39 27/27/27
f 27/27/27 39/39/39 24/24/24
f 39/39/39 40/40/40 24/24/24
f 24/24/24 40/40/40 25/25/25
f 40/40/40 22/22/22 25/25/25
f 21/21/21 25/25/25 22/22/22
g Geoset1
s 1
usemtl mat_stonered
f 41/41/41 42/42/42 43/43/43
f 41/41/41 44/44/44 42/42/42
f 41/41/41 43/43/43 44/44/44
f 45/45/45 42/42/42 44/44/44
f 45/45/45 43/43/43 42/42/42
f 45/45/45 44/44/44 43/43/43
f 43/43/43 44/44/44 42/42/42
g Geoset2
s 1
usemtl mat_rope02
f 46/46/46 47/47/47 48/48/48
f 49/49/49 50/50/50 51/51/51
f 49/49/49 52/52/52 50/50/50
f 46/46/46 48/48/48 53/53/53