# Exported using wow.export v0.1.49
o 
mtllib duskwoodtreespookless01.mtl
v -1.0546839490643833e-7 -4.473913669586182 9.995736122131348
v 8.656631469726562 -4.473913669586182 4.997821807861328
v 3.30161452293396 9.11727523803711 -0.07383333146572113
v 3.3016154766082764 14.773831367492676 0.9673896431922913
v 8.254810333251953 22.249019622802734 -6.106668949127197
v 8.216147422790527 21.57639503479004 5.213643550872803
v 3.3016140460968018 17.698421478271484 -5.164384365081787
v 3.3016138076782227 8.39765453338623 -6.205606937408447
v 8.65662956237793 -4.473913669586182 -4.998000144958496
v -1.2961935997009277 24.787927627563477 -11.668635368347168
v -2.008653163909912 16.801715850830078 -8.230270385742188
v -2.008653402328491 6.081930637359619 -9.271492004394531
v -9.793303661354003e-7 -4.473913669586182 -9.995911598205566
v -10.885860443115234 26.65420913696289 -5.9102935791015625
v -7.318920612335205 17.698421478271484 -5.164384365081787
v -7.318920612335205 8.39765453338623 -6.205605983734131
v -8.656631469726562 -4.473913669586182 -4.997999668121338
v -10.924524307250977 25.981586456298828 5.410019874572754
v -7.318920612335205 16.801715850830078 0.9673908352851868
v -7.318920612335205 6.081929683685303 -0.07383251935243607
v -8.656631469726562 -4.473913669586182 4.997824192047119
v -1.3735178709030151 23.44268035888672 10.971989631652832
v -2.008652448654175 15.670536041259766 4.03327751159668
v -2.008652925491333 9.11727523803711 2.9920547008514404
v 3.4773898124694824 45.8301887512207 -17.94775390625
v -12.758596420288086 48.9879150390625 -8.198473930358887
v 19.647920608520508 44.61475372314453 -8.530951499938965
v 19.647920608520508 44.61475372314453 -8.530951499938965
v 3.3464725017547607 43.55259323120117 20.384403228759766
v 19.58246421813965 42.60098648071289 10.635126113891602
v 19.647920608520508 44.61475372314453 -8.530951499938965
v -8.472884178161621 46.98114013671875 8.706677436828613
v 3.3464725017547607 43.55259323120117 20.384403228759766
v 19.647920608520508 44.61475372314453 -8.530951499938965
v -12.758596420288086 48.9879150390625 -8.198473930358887
v -8.472884178161621 46.98114013671875 8.706677436828613
v -3.8765640258789062 16.679840087890625 -25.731300354003906
v 3.4773898124694824 45.8301887512207 -17.94775390625
v -2.268610715866089 19.12489891052246 -32.77241897583008
v 3.2656190395355225 42.65076446533203 -26.841135025024414
v -24.613000869750977 21.83540153503418 12.23070240020752
v -8.472884178161621 46.98114013671875 8.706677436828613
v -26.982345581054688 29.794185638427734 16.563060760498047
v -18.20442771911621 48.80418014526367 15.209820747375488
v 17.182985305786133 14.026579856872559 11.644657135009766
v 19.58246421813965 42.60098648071289 10.635126113891602
v 25.579448699951172 17.26061248779297 15.737175941467285
v 26.538766860961914 40.28022384643555 14.983132362365723
v 3.3741636276245117 44.52136993408203 0.8803287744522095
v 2.2514872550964355 40.50067138671875 -18.352933883666992
v -15.103242874145508 43.62042999267578 -9.532856941223145
v 19.311124801635742 36.25653076171875 -9.532414436340332
v 19.73737144470215 35.132144927978516 10.914828300476074
v 1.2341660261154175 38.25190353393555 21.106828689575195
v -12.424552917480469 41.62806701660156 9.782957077026367
v 17.146291732788086 17.328266143798828 11.522106170654297
v 8.216147422790527 21.57639503479004 5.213643550872803
v 8.254810333251953 22.249019622802734 -6.106668949127197
v -2.277244806289673 18.849626541137695 23.456771850585938
v -1.3735178709030151 23.44268035888672 10.971989631652832
v -10.924524307250977 25.981586456298828 5.410019874572754
v -20.860334396362305 26.87355613708496 11.414939880371094
v -10.885860443115234 26.65420913696289 -5.9102935791015625
v -24.951799392700195 26.601043701171875 -13.000012397766113
v -1.2961935997009277 24.787927627563477 -11.668635368347168
v -2.4788334369659424 21.768430709838867 -24.08831024169922
v 17.34372329711914 19.2213077545166 -12.953567504882812
v 17.268579483032227 16.554908752441406 -13.41756820678711
v 19.647920608520508 44.61475372314453 -8.530951499938965
v 28.802419662475586 35.28837966918945 -14.694669723510742
v 29.254669189453125 18.568687438964844 -20.0766544342041
v -28.15476417541504 21.585973739624023 -14.163543701171875
v -12.758596420288086 48.9879150390625 -8.198473930358887
v -19.686416625976562 51.25320816040039 -12.026127815246582
v -30.759477615356445 32.26118469238281 -17.831632614135742
v -4.047750949859619 13.701576232910156 24.393144607543945
v 19.58246421813965 42.60098648071289 10.635126113891602
v 3.3464725017547607 43.55259323120117 20.384403228759766
v 17.182985305786133 14.026579856872559 11.644657135009766
v 3.4773898124694824 45.8301887512207 -17.94775390625
v -3.8765640258789062 16.679840087890625 -25.731300354003906
v -8.472884178161621 46.98114013671875 8.706677436828613
v -24.613000869750977 21.83540153503418 12.23070240020752
v 2.9527432918548584 39.9974250793457 30.148067474365234
v -2.6122210025787354 16.177560806274414 33.1707649230957
vn 0.15485338866710663 0.47053062915802 0.8686894178390503
vn 0.8540897965431213 0.4447176158428192 0.26973477005958557
vn 0.8563082218170166 0.2219032496213913 0.4663637578487396
vn 0.7717962265014648 -0.4694438874721527 0.4288974106311798
vn 0.6284294724464417 -0.6537625789642334 -0.4215103089809418
vn 0.5189183354377747 -0.6898502707481384 0.5048072338104248
vn 0.777626633644104 -0.3018251061439514 -0.5515418648719788
vn 0.8310196995735168 0.2000064253807068 -0.519041121006012
vn 0.7119171619415283 0.24484707415103912 -0.6581974029541016
vn 0.11307666450738907 -0.4472793638706207 -0.8872174620628357
vn -0.014065478928387165 -0.13446775078773499 -0.9908181428909302
vn -0.007559651043266058 0.09371227771043777 -0.9955706000328064
vn -0.19672426581382751 0.032255202531814575 -0.9799281358718872
vn -0.7242994904518127 -0.3438790738582611 -0.5976097583770752
vn -0.8436921238899231 -0.15684975683689117 -0.5134021043777466
vn -0.8672206997871399 0.02670803852379322 -0.4972071647644043
vn -0.9461967349052429 0.07747090607881546 -0.31418144702911377
vn -0.8667795658111572 -0.45074430108070374 0.2133605033159256
vn -0.8636379837989807 -0.2909514904022217 0.41167548298835754
vn -0.8768681883811951 0.07915288954973221 0.47416985034942627
vn -0.7696552276611328 0.3245644271373749 0.5498079657554626
vn -0.2655661106109619 -0.6255295872688293 0.7336125373840332
vn -0.07315035164356232 -0.4266883134841919 0.9014356136322021
vn -0.021488741040229797 0.15743602812290192 0.987295389175415
vn 0.13206857442855835 0.986234724521637 -0.09949368238449097
vn 0.13206857442855835 0.986234724521637 -0.09949368238449097
vn 0.13206857442855835 0.986234724521637 -0.09949368238449097
vn 0.12039743363857269 0.9872482419013977 0.10414089262485504
vn 0.12039743363857269 0.9872482419013977 0.10414089262485504
vn 0.12039743363857269 0.9872482419013977 0.10414089262485504
vn 0.15959182381629944 0.9791169166564941 0.12593862414360046
vn 0.15959182381629944 0.9791169166564941 0.12593862414360046
vn 0.15959182381629944 0.9791169166564941 0.12593862414360046
vn 0.1341092884540558 0.9874659180641174 0.08322121948003769
vn 0.1341092884540558 0.9874659180641174 0.08322121948003769
vn 0.1341092884540558 0.9874659180641174 0.08322121948003769
vn -0.36600515246391296 0.34315866231918335 -0.8650331497192383
vn -0.3663555085659027 0.32222336530685425 -0.8729007840156555
vn -0.9613913297653198 0.2587924301624298 -0.09355837851762772
vn -0.9677016139030457 0.24380792677402496 -0.06411932408809662
vn -0.4458930492401123 0.3419729173183441 0.8271843194961548
vn -0.3938840329647064 0.3303377032279968 0.8577484488487244
vn 0.5465896725654602 -0.21921028196811676 0.8081995844841003
vn 0.5225400328636169 -0.18198907375335693 0.8329657316207886
vn 0.9963294267654419 -0.08281975984573364 0.021645545959472656
vn 0.995545506477356 -0.07395919412374496 0.058473486453294754
vn 0.48834872245788574 -0.059716351330280304 -0.8706029653549194
vn 0.5174369812011719 -0.04954707622528076 -0.854285717010498
vn 0.18985602259635925 0.9799813628196716 0.05992718040943146
vn 0.20553593337535858 0.9554696679115295 -0.21173736453056335
vn -0.02276015281677246 0.9986812472343445 -0.046018507331609726
vn 0.4129289388656616 0.9065456390380859 -0.08754818886518478
vn 0.4059690833091736 0.8965966105461121 0.17692825198173523
vn 0.15905305743217468 0.9381242990493774 0.3076116740703583
vn -0.06183101609349251 0.9762673377990723 0.20755475759506226
vn -0.3378866910934448 -0.9310694932937622 -0.13763055205345154
vn -0.341871976852417 -0.9114858508110046 -0.22872929275035858
vn -0.34285587072372437 -0.9368520379066467 0.06897929310798645
vn -0.22775590419769287 -0.9232982993125916 -0.3092692196369171
vn -0.21327745914459229 -0.9118074178695679 -0.3508845567703247
vn -0.13808436691761017 -0.9649001359939575 -0.22338393330574036
vn -0.1232420802116394 -0.9870813488960266 -0.1023806557059288
vn -0.07105305045843124 -0.9965426921844482 0.04305988550186157
vn -0.058605682104825974 -0.9877772927284241 0.14443470537662506
vn -0.18745167553424835 -0.9558029174804688 0.22650092840194702
vn -0.22861729562282562 -0.9489445686340332 0.21734370291233063
vn -0.28979751467704773 -0.9563254714012146 0.03819688409566879
vn 0.3436644673347473 0.14788636565208435 -0.9273749589920044
vn 0.790588915348053 0.03926645964384079 -0.6110869646072388
vn -0.4558044970035553 0.2218666672706604 -0.8619846105575562
vn -0.5019859075546265 0.25267496705055237 -0.8271430134773254
vn -0.857780933380127 0.4417547285556793 0.26280155777931213
vn -0.823776364326477 0.48743540048599243 -0.28948095440864563
vn -0.5414397120475769 0.0943613052368164 0.8354274034500122
vn -0.6131442189216614 0.11875064671039581 0.7809945344924927
vn 0.6839315295219421 -0.06828039139509201 0.7263438701629639
vn 0.995545506477356 -0.07395919412374496 0.058473486453294754
vn 0.14495475590229034 0.18554531037807465 0.9718853235244751
vn 0.9963294267654419 -0.08281975984573364 0.021645545959472656
vn -0.3663555085659027 0.32222336530685425 -0.8729007840156555
vn -0.36600515246391296 0.34315866231918335 -0.8650331497192383
vn -0.3938840329647064 0.3303377032279968 0.8577484488487244
vn -0.4458930492401123 0.3419729173183441 0.8271843194961548
vn 0.9676576852798462 -0.24207809567451477 -0.0709708109498024
vn 0.9670977592468262 -0.23750905692577362 -0.09116697311401367
vt 0.9841269850730896 0.003921568393707275
vt 0.01587301678955555 0.003921568393707275
vt 0.01587301678955555 0.5137255191802979
vt 0.01587301678955555 0.7843137383460999
vt 0.9841269850730896 0.9960784316062927
vt 0.01587301678955555 0.9960784316062927
vt 0.9841269850730896 0.7843137383460999
vt 0.9841269850730896 0.5137255191802979
vt 0.9841269850730896 0.003921568393707275
vt 0.01587301678955555 0.9960784316062927
vt 0.01587301678955555 0.7843137383460999
vt 0.01587301678955555 0.5137255191802979
vt 0.01587301678955555 0.003921568393707275
vt 0.9841269850730896 0.9960784316062927
vt 0.9841269850730896 0.7843137383460999
vt 0.9841269850730896 0.5137255191802979
vt 0.9841269850730896 0.003921568393707275
vt 0.01587301678955555 0.9960784316062927
vt 0.01587301678955555 0.7843137383460999
vt 0.01587301678955555 0.5137255191802979
vt 0.01587301678955555 0.003921568393707275
vt 0.9841269850730896 0.9960784316062927
vt 0.9841269850730896 0.7843137383460999
vt 0.9841269850730896 0.5137255191802979
vt 0.23085102438926697 0.8478261232376099
vt 0.17793777585029602 0.9536525011062622
vt 0.17793777585029602 0.7419997453689575
vt 0.17793777585029602 0.7419997453689575
vt 0.019198238849639893 0.8478261232376099
vt 0.07211139798164368 0.7419997453689575
vt 0.17793777585029602 0.7419997453689575
vt 0.07211142778396606 0.9536525011062622
vt 0.019198238849639893 0.8478261232376099
vt 0.17793777585029602 0.7419997453689575
vt 0.17793777585029602 0.9536525011062622
vt 0.07211142778396606 0.9536525011062622
vt 0.44339266419410706 0.011764705181121826
vt 0.44339266419410706 0.9960784316062927
vt 0.003921568859368563 0.011764705181121826
vt 0.003921568859368563 0.9960784316062927
vt 0.44339266419410706 0.011764705181121826
vt 0.44339266419410706 0.9960784316062927
vt 0.003921568859368563 0.011764705181121826
vt 0.003921568859368563 0.9960784316062927
vt 0.44339266419410706 0.011764705181121826
vt 0.44339266419410706 0.9960784316062927
vt 0.003921568859368563 0.011764705181121826
vt 0.003921568859368563 0.9960784316062927
vt 0.9882352948188782 0.5764706134796143
vt 0.26274511218070984 0.8588235378265381
vt 0.0784313753247261 0.5372549295425415
vt 0.0784313753247261 0.5372549295425415
vt 0.26274511218070984 0.8588235378265381
vt 0.0784313753247261 0.5372549295425415
vt 0.26274511218070984 0.8588235378265381
vt 0.09075796604156494 0.15987497568130493
vt 0.9130711555480957 0.11231011152267456
vt 0.8999971747398376 0.33428388833999634
vt 0.1618059277534485 0.510315477848053
vt 0.9120733141899109 0.3285325765609741
vt 0.9076645374298096 0.11253911256790161
vt 0.09075796604156494 0.15987497568130493
vt 0.9020995497703552 0.3332826495170593
vt 0.1618059277534485 0.510315477848053
vt 0.9033946990966797 0.11271995306015015
vt 0.09075796604156494 0.15987497568130493
vt 0.1618059277534485 0.510315477848053
vt 0.44339266419410706 0.011764705181121826
vt 0.44339266419410706 0.9960784316062927
vt 0.003921568859368563 0.9960784316062927
vt 0.003921568859368563 0.011764705181121826
vt 0.44339266419410706 0.011764705181121826
vt 0.44339266419410706 0.9960784316062927
vt 0.003921568859368563 0.9960784316062927
vt 0.003921568859368563 0.011764705181121826
vt 0.44339266419410706 0.011764705181121826
vt 0.9921567440032959 0.9960784316062927
vt 0.44339266419410706 0.9960784316062927
vt 0.9921567440032959 0.011764705181121826
vt 0.9921567440032959 0.9960784316062927
vt 0.9921567440032959 0.011764705181121826
vt 0.9921568632125854 0.9960784316062927
vt 0.9921568632125854 0.011764705181121826
vt 0.003921568859368563 0.9960784316062927
vt 0.003921568859368563 0.011764705181121826
g Geoset0
s 1
usemtl mat_duskwoodtree01_trunk3
f 1/1/1 2/2/2 3/3/3
f 4/4/4 5/5/5 6/6/6
f 4/4/4 7/7/7 5/5/5
f 3/3/3 7/7/7 4/4/4
f 3/3/3 8/8/8 7/7/7
f 2/2/2 8/8/8 3/3/3
f 2/2/2 9/9/9 8/8/8
f 7/7/7 10/10/10 5/5/5
f 7/7/7 11/11/11 10/10/10
f 8/8/8 11/11/11 7/7/7
f 8/8/8 12/12/12 11/11/11
f 9/9/9 12/12/12 8/8/8
f 9/9/9 13/13/13 12/12/12
f 11/11/11 14/14/14 10/10/10
f 11/11/11 15/15/15 14/14/14
f 12/12/12 15/15/15 11/11/11
f 12/12/12 16/16/16 15/15/15
f 13/13/13 16/16/16 12/12/12
f 13/13/13 17/17/17 16/16/16
f 15/15/15 18/18/18 14/14/14
f 15/15/15 19/19/19 18/18/18
f 16/16/16 19/19/19 15/15/15
f 16/16/16 20/20/20 19/19/19
f 17/17/17 20/20/20 16/16/16
f 17/17/17 21/21/21 20/20/20
f 19/19/19 22/22/22 18/18/18
f 19/19/19 23/23/23 22/22/22
f 20/20/20 23/23/23 19/19/19
f 20/20/20 24/24/24 23/23/23
f 21/21/21 24/24/24 20/20/20
f 21/21/21 1/1/1 24/24/24
f 23/23/23 6/6/6 22/22/22
f 23/23/23 4/4/4 6/6/6
f 24/24/24 4/4/4 23/23/23
f 24/24/24 3/3/3 4/4/4
f 1/1/1 3/3/3 24/24/24
g Geoset1
s 1
usemtl mat_duskwoodtree01_leaves
f 25/25/25 26/26/26 27/27/27
f 28/28/28 29/29/29 30/30/30
f 31/31/31 32/32/32 33/33/33
f 34/34/34 35/35/35 36/36/36
f 37/37/37 38/38/38 39/39/39
f 40/40/40 39/39/39 38/38/38
f 41/41/41 42/42/42 43/43/43
f 44/44/44 43/43/43 42/42/42
f 45/45/45 46/46/46 47/47/47
f 48/48/48 47/47/47 46/46/46
f 49/49/49 50/50/50 51/51/51
f 49/49/49 52/52/52 50/50/50
f 49/49/49 53/53/53 52/52/52
f 49/49/49 54/54/54 53/53/53
f 49/49/49 55/55/55 54/54/54
f 49/49/49 51/51/51 55/55/55
f 56/56/56 57/57/57 58/58/58
f 59/59/59 57/57/57 56/56/56
f 59/59/59 60/60/60 57/57/57
f 61/61/61 60/60/60 59/59/59
f 62/62/62 61/61/61 59/59/59
f 63/63/63 61/61/61 62/62/62
f 64/64/64 63/63/63 62/62/62
f 65/65/65 63/63/63 64/64/64
f 66/66/66 65/65/65 64/64/64
f 58/58/58 65/65/65 66/66/66
f 67/67/67 58/58/58 66/66/66
f 56/56/56 58/58/58 67/67/67
f 68/68/68 69/69/69 70/70/70
f 70/70/70 71/71/71 68/68/68
f 72/72/72 73/73/73 74/74/74
f 74/74/74 75/75/75 72/72/72
f 76/76/76 77/77/77 78/78/78
f 76/76/76 79/79/79 77/77/77
f 79/79/79 69/69/69 77/77/77
f 79/79/79 68/68/68 69/69/69
f 68/68/68 80/80/80 69/69/69
f 68/68/68 81/81/81 80/80/80
f 81/81/81 73/73/73 80/80/80
f 81/81/81 72/72/72 73/73/73
f 72/72/72 82/82/82 73/73/73
f 72/72/72 83/83/83 82/82/82
f 83/83/83 78/78/78 82/82/82
f 83/83/83 76/76/76 78/78/78
f 76/76/76 78/78/78 84/84/84
f 84/84/84 85/85/85 76/76/76