# Exported using wow.export v0.1.49
o 
mtllib duskwoodtreespookless02.mtl
v -0.05600389838218689 15.971799850463867 -5.059500217437744
v -6.54679012298584 23.788299560546875 -3.732110023498535
v -0.05600360035896301 23.788299560546875 -7.479559898376465
v 7.595359802246094 -3.361459970474243 -4.4057297706604
v -0.06776560097932816 -3.361459970474243 -8.83003044128418
v -2.3102500438690186 7.665040016174316 -5.245160102844238
v 2.2459700107574463 7.665040016174316 -2.6146299839019775
v 4.338940143585205 15.971799850463867 -2.5220699310302734
v 6.434780120849609 23.788299560546875 -3.732110023498535
v 7.595359802246094 -3.361459970474243 4.442880153656006
v 2.2459700107574463 7.665040016174316 2.6464500427246094
v 4.338940143585205 15.971799850463867 2.552769899368286
v 6.434780120849609 23.788299560546875 3.7627999782562256
v -0.06776469945907593 -3.361459970474243 8.867179870605469
v -2.3102500438690186 7.665040016174316 5.276989936828613
v -0.05600329861044884 15.971799850463867 5.090199947357178
v -0.05600310117006302 23.788299560546875 7.510260105133057
v -7.730879783630371 -3.361459970474243 4.442880153656006
v -6.866479873657227 7.665040016174316 2.6464500427246094
v -4.4509501457214355 15.971799850463867 2.5527799129486084
v -6.54679012298584 23.788299560546875 3.762809991836548
v -4.4509501457214355 15.971799850463867 -2.5220699310302734
v -6.866479873657227 7.665040016174316 -2.6146299839019775
v -7.730879783630371 -3.361459970474243 -4.4057297706604
v -26.429399490356445 66.57209777832031 15.766599655151367
v -42.0786018371582 23.01420021057129 22.97960090637207
v -14.319700241088867 67.85880279541016 9.045929908752441
v 22.52630043029785 12.206899642944336 13.451700210571289
v 18.607200622558594 65.5562973022461 9.045929908752441
v 39.64059829711914 17.29990005493164 23.351299285888672
v 30.245399475097656 62.60900115966797 16.069599151611328
v -1.5496100187301636 13.89050006866455 -28.350799560546875
v 2.1437199115753174 66.7074966430664 -19.5393009185791
v -0.8978750109672546 20.134599685668945 -47.77830123901367
v 2.1697800159454346 64.57219696044922 -33.283599853515625
v -1.5496000051498413 13.89050006866455 27.385799407958984
v 2.1437199115753174 66.7074966430664 18.57430076599121
v 2.184730052947998 64.57119750976562 33.57889938354492
v -0.8795390129089355 20.13330078125 48.359100341796875
v 2.186769962310791 63.09749984741211 0.017472200095653534
v 18.43939971923828 56.577701568603516 9.640649795532227
v 18.43939971923828 56.577701568603516 -9.60569953918457
v 1.8121700286865234 57.74039840698242 19.2637996673584
v -14.815099716186523 58.903099060058594 9.640649795532227
v -14.815099716186523 58.903099060058594 -9.60569953918457
v 1.8121700286865234 57.74039840698242 -19.228900909423828
v -1.1421500444412231 19.768199920654297 -27.262800216674805
v -0.11020699888467789 23.80069923400879 -7.271609783172607
v -5.6852898597717285 24.25349998474121 -3.240999937057495
v 21.956499099731445 18.152999877929688 -13.898599624633789
v 5.887050151824951 23.347900390625 -3.732110023498535
v 21.961299896240234 18.152700424194336 12.874199867248535
v 5.887050151824951 23.347900390625 3.7627999782562256
v -0.08861640095710754 23.80069923400879 7.445119857788086
v -1.1224700212478638 19.766799926757812 26.288400650024414
v -5.733789920806885 24.25349998474121 3.4579999446868896
v -24.217100143432617 21.381799697875977 12.90779972076416
v -24.247699737548828 21.383899688720703 -13.903400421142578
v -25.625499725341797 15.574000358581543 -14.416600227355957
v -14.31980037689209 67.85880279541016 -10.010899543762207
v -27.52560043334961 66.64869689941406 -17.34869956970215
v -43.423099517822266 23.108200073242188 -24.701499938964844
v 22.52630043029785 12.206899642944336 13.451700210571289
v 18.607200622558594 65.5562973022461 -10.010899543762207
v 18.607200622558594 65.5562973022461 9.045929908752441
v 22.526199340820312 12.206899642944336 -14.416600227355957
v 31.32670021057129 62.53340148925781 -17.677600860595703
v 40.96689987182617 17.20709991455078 -25.104999542236328
v 2.1437199115753174 66.7074966430664 -19.5393009185791
v -1.5496100187301636 13.89050006866455 -28.350799560546875
v -14.319700241088867 67.85880279541016 9.045929908752441
v -25.625499725341797 15.574000358581543 13.451700210571289
v -25.625499725341797 15.574000358581543 13.451700210571289
v 18.607200622558594 65.5562973022461 -10.010899543762207
v 2.1437199115753174 66.7074966430664 18.57430076599121
v 18.607200622558594 65.5562973022461 9.045929908752441
v -14.319700241088867 67.85880279541016 9.045929908752441
v -14.31980037689209 67.85880279541016 -10.010899543762207
v 2.1437199115753174 66.7074966430664 -19.5393009185791
vn 0.003153660101816058 -0.16575999557971954 -0.9861609935760498
vn -0.7232409715652466 -0.29088398814201355 -0.6263449788093567
vn 0.18081000447273254 -0.29088398814201355 -0.9395179748535156
vn 0.6783679723739624 0.42630499601364136 -0.5983989834785461
vn -0.19426299631595612 0.2673409879207611 -0.9438170194625854
vn -0.009670720435678959 0.21013300120830536 -0.9776250123977661
vn 0.8483399748802185 0.15152400732040405 -0.5073069930076599
vn 0.8343909978866577 -0.26384401321411133 -0.48392000794410706
vn 0.9040520191192627 -0.29088398814201355 -0.31317299604415894
vn 0.8384640216827393 0.4555079936981201 0.2991499900817871
vn 0.8596370220184326 0.1105009987950325 0.4988119900226593
vn 0.8383070230484009 -0.23977799713611603 0.489641010761261
vn 0.7232419848442078 -0.29088398814201355 0.6263449788093567
vn 0.16581599414348602 0.335642009973526 0.9272810220718384
vn -0.0035258899442851543 0.12390699982643127 0.9922879934310913
vn -0.0016766999615356326 -0.11451400071382523 0.9934200048446655
vn -0.18081000447273254 -0.29088398814201355 0.9395179748535156
vn -0.7478299736976624 0.163455992937088 0.6434530019760132
vn -0.8520900011062622 0.17671099305152893 0.4926620125770569
vn -0.8642770051956177 -0.012958300299942493 0.5028489828109741
vn -0.9040520191192627 -0.29088398814201355 0.31317299604415894
vn -0.8629090189933777 -0.037831999361515045 -0.5039420127868652
vn -0.8430420160293579 0.21938200294971466 -0.49107199907302856
vn -0.9384260177612305 0.12582999467849731 -0.3217499852180481
vn 0.4875200092792511 -0.030657699331641197 0.8725730180740356
vn 0.4886710047721863 -0.031580399721860886 0.8718960285186768
vn -0.34064000844955444 0.6584979891777039 0.6710780262947083
vn 0.9973189830780029 0.07316549867391586 -0.001183590036816895
vn 0.9291620254516602 0.36966899037361145 -0.0017163599841296673
vn 0.5091800093650818 -0.03301440179347992 -0.860027015209198
vn 0.5104280114173889 -0.03225930035114288 -0.8593149781227112
vn -0.48476600646972656 0.17680299282073975 -0.8565880060195923
vn -0.4206959903240204 0.4640600085258484 -0.7795270085334778
vn -0.9973099827766418 0.07232949882745743 -0.011869399808347225
vn -0.9972320199012756 0.07316630333662033 -0.01325790025293827
vn 0.7012280225753784 0.06913519650697708 0.7095770239830017
vn 0.17826099693775177 0.751347005367279 0.6353750228881836
vn 0.997331976890564 -0.07206150144338608 -0.011664600111544132
vn 0.9973350167274475 -0.07222030311822891 -0.010366399772465229
vn 0.0697564035654068 0.9975640177726746 3.2995499665844363e-9
vn 0.29937100410461426 0.9446269869804382 0.13437700271606445
vn 0.29937100410461426 0.9446269869804382 -0.13437700271606445
vn 0.06718999892473221 0.9608619809150696 0.2687540054321289
vn -0.16499100625514984 0.9770979881286621 0.13437700271606445
vn -0.16499100625514984 0.9770979881286621 -0.13437700271606445
vn 0.06718999892473221 0.9608619809150696 -0.2687540054321289
vn -0.02753949910402298 -0.9799100160598755 0.19753099977970123
vn -0.10464199632406235 -0.9743980169296265 0.19899199903011322
vn 0.10308100283145905 -0.9899179935455322 0.09713750332593918
vn -0.22816699743270874 -0.9644020199775696 0.1336749941110611
vn -0.269214004278183 -0.960856020450592 0.06541690230369568
vn -0.25271299481391907 -0.9618499875068665 -0.10478699952363968
vn -0.25365400314331055 -0.9620040059089661 -0.1010340005159378
vn -0.10811399668455124 -0.9719650149345398 -0.20879699289798737
vn -0.02577349916100502 -0.9775509834289551 -0.20911499857902527
vn 0.09034749865531921 -0.986549973487854 -0.13621899485588074
vn 0.11924800276756287 -0.9905700087547302 -0.06745719909667969
vn 0.0979980006814003 -0.9905480146408081 0.09597799926996231
vn -0.9512940049171448 0.18469099700450897 0.24683700501918793
vn -0.5583140254020691 0.802852988243103 -0.209074005484581
vn -0.4888310134410858 0.03186130151152611 0.8717960119247437
vn -0.48997101187705994 0.031782299280166626 0.871159017086029
vn 0.9973189830780029 0.07316549867391586 -0.001183590036816895
vn 0.3754110038280487 0.8856059908866882 -0.2734380066394806
vn 0.9291620254516602 0.36966899037361145 -0.0017163599841296673
vn 0.2747350037097931 0.09895849972963333 -0.956413984298706
vn -0.5089849829673767 0.03327050060033798 -0.8601319789886475
vn -0.5078809857368469 0.03303460031747818 -0.8607929944992065
vn -0.4206959903240204 0.4640600085258484 -0.7795270085334778
vn -0.48476600646972656 0.17680299282073975 -0.8565880060195923
vn -0.34064000844955444 0.6584979891777039 0.6710780262947083
vn -0.4827210009098053 0.17666000127792358 0.8577709794044495
vn -0.4827210009098053 0.17666000127792358 0.8577709794044495
vn 0.3754110038280487 0.8856059908866882 -0.2734380066394806
vn 0.17826099693775177 0.751347005367279 0.6353750228881836
vn 0.9291620254516602 0.36966899037361145 -0.0017163599841296673
vn -0.34064000844955444 0.6584979891777039 0.6710780262947083
vn -0.5583140254020691 0.802852988243103 -0.209074005484581
vn -0.4206959903240204 0.4640600085258484 -0.7795270085334778
vt 0.015873000025749207 0.7882349938154221
vt 0.9841269850730896 0.9960784302093089
vt 0.015873000025749207 0.9960784302093089
vt 0.9841269850730896 0.003921985626220703
vt 0.015873000025749207 0.003921985626220703
vt 0.015873000025749207 0.5372549891471863
vt 0.9841269850730896 0.5372549891471863
vt 0.9841269850730896 0.7882349938154221
vt 0.9841269850730896 0.9960784302093089
vt 0.015873000025749207 0.003921985626220703
vt 0.015873000025749207 0.5372549891471863
vt 0.015873000025749207 0.7882349938154221
vt 0.015873000025749207 0.9960784302093089
vt 0.9841269850730896 0.003921985626220703
vt 0.9841269850730896 0.5372549891471863
vt 0.9841269850730896 0.7882349938154221
vt 0.9841269850730896 0.9960784302093089
vt 0.015873000025749207 0.003921985626220703
vt 0.015873000025749207 0.5372549891471863
vt 0.015873000025749207 0.7882349938154221
vt 0.015873000025749207 0.9960784302093089
vt 0.9841269850730896 0.7882349938154221
vt 0.9841269850730896 0.5372549891471863
vt 0.9841269850730896 0.003921985626220703
vt 0.003921569790691137 0.9960784302093089
vt 0.003921569790691137 0.011765003204345703
vt 0.4354979991912842 0.9960784302093089
vt 0.4354979991912842 0.011765003204345703
vt 0.4354979991912842 0.9960784302093089
vt 0.003921569790691137 0.011765003204345703
vt 0.003921569790691137 0.9960784302093089
vt 0.4354979991912842 0.011765003204345703
vt 0.4354979991912842 0.9960784302093089
vt 0.003921569790691137 0.011765003204345703
vt 0.003921569790691137 0.9960784302093089
vt 0.4354979991912842 0.011765003204345703
vt 0.4354979991912842 0.9960784302093089
vt 0.003921569790691137 0.9960784302093089
vt 0.003921569790691137 0.011765003204345703
vt 0.9882349967956543 0.5764710009098053
vt 0.2627449929714203 0.8588239997625351
vt 0.0784313976764679 0.5372549891471863
vt 0.0784313976764679 0.5372549891471863
vt 0.2627449929714203 0.8588239997625351
vt 0.0784313976764679 0.5372549891471863
vt 0.2627449929714203 0.8588239997625351
vt 0.2012770026922226 0.13572001457214355
vt 0.921875 0.171875
vt 0.8398439884185791 0.2929689884185791
vt 0.19338299334049225 0.5417160093784332
vt 0.8398439884185791 0.296875
vt 0.2012770026922226 0.13572001457214355
vt 0.921875 0.171875
vt 0.8359379768371582 0.296875
vt 0.19338299334049225 0.5417160093784332
vt 0.921875 0.171875
vt 0.2012770026922226 0.13572001457214355
vt 0.19338299334049225 0.5417160093784332
vt 0.4354979991912842 0.011765003204345703
vt 0.4354979991912842 0.9960784302093089
vt 0.003921569790691137 0.9960784302093089
vt 0.003921569790691137 0.011765003204345703
vt 0.992156982421875 0.011765003204345703
vt 0.4354979991912842 0.9960784302093089
vt 0.992156982421875 0.9960784302093089
vt 0.4354979991912842 0.011765003204345703
vt 0.003921569790691137 0.9960784302093089
vt 0.003921569790691137 0.011765003204345703
vt 0.992156982421875 0.9960784302093089
vt 0.992156982421875 0.011765003204345703
vt 0.992156982421875 0.9960784302093089
vt 0.992156982421875 0.011765003204345703
vt 0.4354979991912842 0.011765003204345703
vt 0.17793799936771393 0.742000013589859
vt 0.01919819973409176 0.8478260040283203
vt 0.07211139798164368 0.742000013589859
vt 0.07211139798164368 0.9536525011062622
vt 0.17793799936771393 0.9536525011062622
vt 0.23085099458694458 0.8478260040283203
g Geoset0
s 1
usemtl mat_duskwoodtree02trunk3
f 1/1/1 2/2/2 3/3/3
f 4/4/4 5/5/5 6/6/6
f 4/4/4 6/6/6 7/7/7
f 7/7/7 6/6/6 1/1/1
f 7/7/7 1/1/1 8/8/8
f 8/8/8 1/1/1 3/3/3
f 8/8/8 3/3/3 9/9/9
f 10/10/10 4/4/4 7/7/7
f 10/10/10 7/7/7 11/11/11
f 11/11/11 7/7/7 8/8/8
f 11/11/11 8/8/8 12/12/12
f 12/12/12 8/8/8 9/9/9
f 12/12/12 9/9/9 13/13/13
f 14/14/14 10/10/10 11/11/11
f 14/14/14 11/11/11 15/15/15
f 15/15/15 11/11/11 12/12/12
f 15/15/15 12/12/12 16/16/16
f 16/16/16 12/12/12 13/13/13
f 16/16/16 13/13/13 17/17/17
f 18/18/18 14/14/14 15/15/15
f 18/18/18 15/15/15 19/19/19
f 19/19/19 15/15/15 16/16/16
f 19/19/19 16/16/16 20/20/20
f 20/20/20 16/16/16 17/17/17
f 20/20/20 17/17/17 21/21/21
f 22/22/22 21/21/21 2/2/2
f 22/22/22 20/20/20 21/21/21
f 23/23/23 20/20/20 22/22/22
f 23/23/23 19/19/19 20/20/20
f 24/24/24 19/19/19 23/23/23
f 24/24/24 18/18/18 19/19/19
f 5/5/5 24/24/24 23/23/23
f 5/5/5 23/23/23 6/6/6
f 6/6/6 23/23/23 22/22/22
f 6/6/6 22/22/22 1/1/1
f 1/1/1 22/22/22 2/2/2
g Geoset1
s 1
usemtl mat_duskwoodtree02leaves
f 25/25/25 26/26/26 27/27/27
f 28/28/28 29/29/29 30/30/30
f 31/31/31 30/30/30 29/29/29
f 32/32/32 33/33/33 34/34/34
f 35/35/35 34/34/34 33/33/33
f 36/36/36 37/37/37 38/38/38
f 38/38/38 39/39/39 36/36/36
f 40/40/40 41/41/41 42/42/42
f 40/40/40 43/43/43 41/41/41
f 40/40/40 44/44/44 43/43/43
f 40/40/40 45/45/45 44/44/44
f 40/40/40 46/46/46 45/45/45
f 40/40/40 42/42/42 46/46/46
f 47/47/47 48/48/48 49/49/49
f 50/50/50 48/48/48 47/47/47
f 50/50/50 51/51/51 48/48/48
f 52/52/52 51/51/51 50/50/50
f 52/52/52 53/53/53 51/51/51
f 54/54/54 53/53/53 52/52/52
f 55/55/55 54/54/54 52/52/52
f 56/56/56 54/54/54 55/55/55
f 57/57/57 56/56/56 55/55/55
f 49/49/49 56/56/56 57/57/57
f 58/58/58 49/49/49 57/57/57
f 47/47/47 49/49/49 58/58/58
f 59/59/59 60/60/60 61/61/61
f 61/61/61 62/62/62 59/59/59
f 63/63/63 64/64/64 65/65/65
f 63/63/63 66/66/66 64/64/64
f 67/67/67 68/68/68 66/66/66
f 66/66/66 64/64/64 67/67/67
f 66/66/66 69/69/69 64/64/64
f 66/66/66 70/70/70 69/69/69
f 70/70/70 60/60/60 69/69/69
f 70/70/70 59/59/59 60/60/60
f 59/59/59 71/71/71 60/60/60
f 59/59/59 72/72/72 71/71/71
f 72/72/72 37/37/37 71/71/71
f 72/72/72 36/36/36 37/37/37
f 36/36/36 65/65/65 37/37/37
f 36/36/36 63/63/63 65/65/65
f 73/73/73 27/27/27 26/26/26
g Geoset2
s 1
usemtl mat_duskwoodtree01_leaves
f 74/74/74 75/75/75 76/76/76
f 74/74/74 77/77/77 75/75/75
f 74/74/74 78/78/78 77/77/77
f 79/79/79 78/78/78 74/74/74