# Exported using wow.export v0.1.49
o 
mtllib miningsifter01.mtl
v -0.7535930871963501 -0.12935075163841248 -0.7536096572875977
v -0.7535930275917053 0.12935073673725128 -0.7536096572875977
v 0.7540465593338013 0.1293506920337677 -0.7536097168922424
v -0.6422174572944641 0.12935081124305725 0.6426540613174438
v -0.6422174572944641 -0.12935075163841248 -0.6422340869903564
v -0.6422174572944641 0.12935073673725128 -0.6422340869903564
v -0.6422174572944641 -0.1293506920337677 0.6426540613174438
v -0.7535930871963501 0.12935082614421844 0.7540296316146851
v -0.6422174572944641 0.12935073673725128 -0.6422340869903564
v -0.7535930275917053 0.12935073673725128 -0.7536096572875977
v -0.6422174572944641 0.12935081124305725 0.6426540613174438
v -0.7535930871963501 -0.1293506622314453 0.7540296316146851
v -0.7535930275917053 0.12935073673725128 -0.7536096572875977
v -0.7535930871963501 -0.12935075163841248 -0.7536096572875977
v -0.7535930871963501 0.12935082614421844 0.7540296316146851
v 0.6426709294319153 0.12935079634189606 0.6426541805267334
v -0.6422174572944641 -0.1293506920337677 0.6426540613174438
v -0.6422174572944641 0.12935081124305725 0.6426540613174438
v 0.6426709294319153 -0.1293507069349289 0.6426541805267334
v 0.7540464997291565 0.12935079634189606 0.7540297508239746
v -0.6422174572944641 0.12935081124305725 0.6426540613174438
v -0.7535930871963501 0.12935082614421844 0.7540296316146851
v 0.6426709294319153 0.12935079634189606 0.6426541805267334
v 0.7540464997291565 -0.1293507069349289 0.7540297508239746
v -0.7535930871963501 0.12935082614421844 0.7540296316146851
v -0.7535930871963501 -0.1293506622314453 0.7540296316146851
v 0.7540464997291565 0.12935079634189606 0.7540297508239746
v 0.6426709294319153 0.1293507069349289 -0.6422341465950012
v 0.6426709294319153 -0.1293507069349289 0.6426541805267334
v 0.6426709294319153 0.12935079634189606 0.6426541805267334
v 0.6426709294319153 -0.12935079634189606 -0.6422341465950012
v 0.7540465593338013 0.1293506920337677 -0.7536097168922424
v 0.6426709294319153 0.12935079634189606 0.6426541805267334
v 0.7540464997291565 0.12935079634189606 0.7540297508239746
v 0.6426709294319153 0.1293507069349289 -0.6422341465950012
v 0.7540465593338013 -0.12935079634189606 -0.7536097168922424
v 0.7540464997291565 0.12935079634189606 0.7540297508239746
v 0.7540464997291565 -0.1293507069349289 0.7540297508239746
v 0.7540465593338013 0.1293506920337677 -0.7536097168922424
v -0.6422174572944641 0.12935073673725128 -0.6422340869903564
v 0.6426709294319153 -0.12935079634189606 -0.6422341465950012
v 0.6426709294319153 0.1293507069349289 -0.6422341465950012
v -0.6422174572944641 -0.12935075163841248 -0.6422340869903564
v -0.7535930275917053 0.12935073673725128 -0.7536096572875977
v 0.6426709294319153 0.1293507069349289 -0.6422341465950012
v 0.7540465593338013 0.1293506920337677 -0.7536097168922424
v -0.6422174572944641 0.12935073673725128 -0.6422340869903564
v -0.6422174572944641 -0.12935075163841248 -0.6422340869903564
v -0.7535930871963501 -0.12935075163841248 -0.7536096572875977
v 0.7540465593338013 -0.12935079634189606 -0.7536097168922424
v -0.6422174572944641 -0.1293506920337677 0.6426540613174438
v -0.7535930871963501 -0.1293506622314453 0.7540296316146851
v 0.6426709294319153 -0.1293507069349289 0.6426541805267334
v 0.7540464997291565 -0.1293507069349289 0.7540297508239746
v 0.6426709294319153 -0.12935079634189606 -0.6422341465950012
v 0.7540465593338013 -0.12935079634189606 -0.7536097168922424
v -0.7012425065040588 -0.025517072528600693 -0.6830973029136658
v -0.7012423276901245 -0.025517025962471962 0.6984651684761047
v 0.6865890026092529 -0.02551707997918129 -0.6830974817276001
v 0.6865891814231873 -0.025517035275697708 0.6984649300575256
vn -0.2672612965106964 -0.8017837405204773 -0.5345224142074585
vn -0.5345224738121033 0.8017837405204773 -0.267261266708374
vn 0.26726123690605164 0.8017837405204773 -0.5345224738121033
vn 0.534522533416748 0.8017836809158325 -0.267261266708374
vn 0.5345224738121033 -0.8017837405204773 0.267261266708374
vn 0.26726123690605164 0.8017838001251221 0.5345223546028137
vn 0.26726123690605164 -0.8017838001251221 -0.5345223546028137
vn -0.267261266708374 0.8017838001251221 0.5345223546028137
vn 0.26726123690605164 0.8017838001251221 0.5345223546028137
vn -0.5345224738121033 0.8017837405204773 -0.267261266708374
vn 0.534522533416748 0.8017836809158325 -0.267261266708374
vn -0.534522533416748 -0.8017836809158325 0.267261266708374
vn -0.5345224738121033 0.8017837405204773 -0.267261266708374
vn -0.2672612965106964 -0.8017837405204773 -0.5345224142074585
vn -0.267261266708374 0.8017838001251221 0.5345223546028137
vn -0.26726117730140686 0.8017837405204773 -0.5345224738121033
vn 0.26726123690605164 -0.8017838001251221 -0.5345223546028137
vn 0.534522533416748 0.8017836809158325 -0.267261266708374
vn -0.5345224738121033 -0.8017837405204773 -0.2672611474990845
vn 0.5345224738121033 0.8017837405204773 0.2672611474990845
vn 0.534522533416748 0.8017836809158325 -0.267261266708374
vn -0.267261266708374 0.8017838001251221 0.5345223546028137
vn -0.26726117730140686 0.8017837405204773 -0.5345224738121033
vn 0.26726117730140686 -0.8017837405204773 0.5345224738121033
vn -0.267261266708374 0.8017838001251221 0.5345223546028137
vn -0.534522533416748 -0.8017836809158325 0.267261266708374
vn 0.5345224738121033 0.8017837405204773 0.2672611474990845
vn -0.5345224142074585 0.8017838001251221 0.2672611474990845
vn -0.5345224738121033 -0.8017837405204773 -0.2672611474990845
vn -0.26726117730140686 0.8017837405204773 -0.5345224738121033
vn -0.26726123690605164 -0.8017837405204773 0.5345224142074585
vn 0.26726123690605164 0.8017837405204773 -0.5345224738121033
vn -0.26726117730140686 0.8017837405204773 -0.5345224738121033
vn 0.5345224738121033 0.8017837405204773 0.2672611474990845
vn -0.5345224142074585 0.8017838001251221 0.2672611474990845
vn 0.5345224142074585 -0.8017838001251221 -0.2672611176967621
vn 0.5345224738121033 0.8017837405204773 0.2672611474990845
vn 0.26726117730140686 -0.8017837405204773 0.5345224738121033
vn 0.26726123690605164 0.8017837405204773 -0.5345224738121033
vn 0.26726123690605164 0.8017838001251221 0.5345223546028137
vn -0.26726123690605164 -0.8017837405204773 0.5345224142074585
vn -0.5345224142074585 0.8017838001251221 0.2672611474990845
vn 0.5345224738121033 -0.8017837405204773 0.267261266708374
vn -0.5345224738121033 0.8017837405204773 -0.267261266708374
vn -0.5345224142074585 0.8017838001251221 0.2672611474990845
vn 0.26726123690605164 0.8017837405204773 -0.5345224738121033
vn 0.26726123690605164 0.8017838001251221 0.5345223546028137
vn 0.5345224738121033 -0.8017837405204773 0.267261266708374
vn -0.2672612965106964 -0.8017837405204773 -0.5345224142074585
vn 0.5345224142074585 -0.8017838001251221 -0.2672611176967621
vn 0.26726123690605164 -0.8017838001251221 -0.5345223546028137
vn -0.534522533416748 -0.8017836809158325 0.267261266708374
vn -0.5345224738121033 -0.8017837405204773 -0.2672611474990845
vn 0.26726117730140686 -0.8017837405204773 0.5345224738121033
vn -0.26726123690605164 -0.8017837405204773 0.5345224142074585
vn 0.5345224142074585 -0.8017838001251221 -0.2672611176967621
vn 3.292883121730483e-8 1 -4.036721534816934e-8
vn 3.292883121730483e-8 1 -4.036721534816934e-8
vn 3.292883121730483e-8 1 -4.036721534816934e-8
vn 3.292883121730483e-8 1 -4.036721534816934e-8
vt 1.6521739959716797 0.014992237091064453
vt 1.6521739959716797 0.2482926845550537
vt 0.6521739363670349 0.2482926845550537
vt 0.6521739363670349 0.2482926845550537
vt 1.6521739959716797 0.014992237091064453
vt 1.6521739959716797 0.2482926845550537
vt 0.6521739363670349 0.014992237091064453
vt 0.6544622778892517 -0.005636096000671387
vt 1.6497584581375122 0.10789048671722412
vt 1.6500128507614136 -0.010466933250427246
vt 0.6545894145965576 0.10789042711257935
vt 1.6521739959716797 0.014992237091064453
vt 0.6521739363670349 0.2482926845550537
vt 0.6521739363670349 0.014992237091064453
vt 1.6521739959716797 0.2482926845550537
vt 0.6521739363670349 0.2482926845550537
vt 1.6521739959716797 0.014992237091064453
vt 1.6521739959716797 0.2482926845550537
vt 0.6521739363670349 0.014992237091064453
vt 1.6497584581375122 -0.007246494293212891
vt 0.6544622778892517 0.10628020763397217
vt 0.6545894145965576 -0.00724637508392334
vt 1.6500128507614136 0.11111104488372803
vt 1.6521739959716797 0.014992237091064453
vt 0.6521739363670349 0.2482926845550537
vt 0.6521739363670349 0.014992237091064453
vt 1.6521739959716797 0.2482926845550537
vt 0.6521739363670349 0.2482926845550537
vt 1.6521739959716797 0.014992237091064453
vt 1.6521739959716797 0.2482926845550537
vt 0.6521739363670349 0.014992237091064453
vt 1.6497584581375122 -0.007246494293212891
vt 0.6544622778892517 0.10628020763397217
vt 0.6545894145965576 -0.00724637508392334
vt 1.6500128507614136 0.11111104488372803
vt 1.6521739959716797 0.014992237091064453
vt 0.6521739363670349 0.2482926845550537
vt 0.6521739363670349 0.014992237091064453
vt 1.6521739959716797 0.2482926845550537
vt 0.6521739363670349 0.2482926845550537
vt 1.6521739959716797 0.014992237091064453
vt 1.6521739959716797 0.2482926845550537
vt 0.6521739363670349 0.014992237091064453
vt 1.6497584581375122 -0.007246494293212891
vt 0.6544622778892517 0.10628020763397217
vt 0.6545894145965576 -0.00724637508392334
vt 1.6500128507614136 0.11111104488372803
vt 0.6539686918258667 0.16214346885681152
vt 0.6539687514305115 0
vt 1.6539686918258667 0
vt 1.6539686918258667 0.16214346885681152
vt 1.6539686918258667 0
vt 0.6539686918258667 0.16214346885681152
vt 0.6539687514305115 0
vt 1.6539686918258667 0.16214346885681152
vt 0.6521739363670349 0.014992237091064453
vt 0.0004998445510864258 0.9995005130767822
vt 0.0004995763301849365 0.0004997849464416504
vt 0.9995003938674927 0.9995001554489136
vt 0.9995001554489136 0.0004995465278625488
g Geoset0
s 1
usemtl mat_js_troff_6
f 1/1/1 2/2/2 3/3/3
f 4/4/4 5/5/5 6/6/6
f 4/4/4 7/7/7 5/5/5
f 8/8/8 9/9/9 10/10/10
f 8/8/8 11/11/11 9/9/9
f 12/12/12 13/13/13 14/14/14
f 12/12/12 15/15/15 13/13/13
f 16/16/16 17/17/17 18/18/18
f 16/16/16 19/19/19 17/17/17
f 20/20/20 21/21/21 22/22/22
f 20/20/20 23/23/23 21/21/21
f 24/24/24 25/25/25 26/26/26
f 24/24/24 27/27/27 25/25/25
f 28/28/28 29/29/29 30/30/30
f 28/28/28 31/31/31 29/29/29
f 32/32/32 33/33/33 34/34/34
f 32/32/32 35/35/35 33/33/33
f 36/36/36 37/37/37 38/38/38
f 36/36/36 39/39/39 37/37/37
f 40/40/40 41/41/41 42/42/42
f 40/40/40 43/43/43 41/41/41
f 44/44/44 45/45/45 46/46/46
f 44/44/44 47/47/47 45/45/45
f 48/48/48 49/49/49 50/50/50
f 51/51/51 49/49/49 48/48/48
f 51/51/51 52/52/52 49/49/49
f 53/53/53 52/52/52 51/51/51
f 53/53/53 54/54/54 52/52/52
f 55/55/55 54/54/54 53/53/53
f 55/55/55 50/50/50 54/54/54
f 48/48/48 50/50/50 55/55/55
f 1/1/1 3/3/3 56/56/56
g Geoset1
s 1
usemtl mat_js_troff_9
f 57/57/57 58/58/58 59/59/59
f 60/60/60 59/59/59 58/58/58