# Exported using wow.export v0.1.49
o 
mtllib smallvials.mtl
v 0.07685266435146332 0.6665752530097961 -0.3211633563041687
v 0.07685266435146332 0.04600990563631058 -0.3211635649204254
v -0.0025906094815582037 0.04600990563631058 -0.39043188095092773
v -0.09507939219474792 0.6665752530097961 0.3457458019256592
v -0.01563611812889576 0.6665752530097961 0.4150140881538391
v 0.0638071671128273 0.6665752530097961 0.3457458019256592
v 0.0638071745634079 0.04600990563631058 0.3457459807395935
v -0.015636112540960312 0.04600990563631058 0.4150143265724182
v -0.09507938474416733 0.04600990563631058 0.3457459807395935
v -0.13044007122516632 0.537522554397583 -0.40383100509643555
v -0.10166875272989273 0.5873559713363647 0.43762990832328796
v -0.10166876018047333 0.5873559713363647 -0.40383097529411316
v -0.13044005632400513 0.537522554397583 0.43762990832328796
v -0.07289747148752213 0.537522554397583 -0.40383097529411316
v -0.07289746403694153 0.537522554397583 0.43762990832328796
v 0.06800468266010284 0.5873559713363647 -0.40383097529411316
v 0.06800468266010284 0.5873559713363647 0.43762990832328796
v 0.09677597880363464 0.537522554397583 0.43762990832328796
v 0.03923339024186134 0.537522554397583 0.43762990832328796
v 0.09677597880363464 0.537522554397583 -0.40383097529411316
v 0.03923339024186134 0.537522554397583 -0.40383100509643555
v -0.14708681404590607 0.0006809383048675954 0.24719500541687012
v 0.09834765642881393 0.05401427671313286 0.25016987323760986
v 0.11875782161951065 0.0006809377809986472 0.2262725830078125
v -0.12318958342075348 0.05401427671313286 0.267605185508728
v -0.10575421899557114 0.05401427298784256 0.48914241790771484
v -0.12616439163684845 0.0006809339392930269 0.5130397081375122
v 0.11578301340341568 0.05401426926255226 0.47170719504356384
v 0.13968025147914886 0.0006809334736317396 0.492117315530777
v -0.17019349336624146 0.0006809367332607508 -0.25155484676361084
v 0.07006706297397614 0.05401426926255226 -0.20133741199970245
v -0.1424451321363449 0.05401427298784256 -0.2663089334964752
v 0.08482112735509872 0.0006809367332607508 -0.1735890656709671
v 0.16278691589832306 0.0006809367332607508 -0.42860373854637146
v -0.09222768992185593 0.0006809367332607508 -0.506569504737854
v 0.1350385695695877 0.05401426926255226 -0.4138496518135071
v -0.07747363299131393 0.05401427298784256 -0.47882118821144104
v -0.0025906043592840433 0.6665752530097961 -0.39043164253234863
v -0.08203388005495071 0.6665752530097961 -0.3211633563041687
v -0.08203389495611191 0.04600990563631058 -0.3211635649204254
v 0.003597820410504937 0.29491937160491943 -0.04549245536327362
v 0.05426432192325592 0.671561062335968 -0.05322599411010742
v -0.0462336465716362 0.6823156476020813 -0.04833146557211876
v 0.03010529652237892 0.26519060134887695 0.17140959203243256
v -0.07690480351448059 0.6386265158653259 0.21217182278633118
v -0.04706563428044319 0.261834055185318 0.1711159497499466
v 0.024189114570617676 0.6430236101150513 0.21255652606487274
v 0.03010529652237892 0.2713108956813812 0.10145457834005356
v -0.07690480351448059 0.646644115447998 0.12053070217370987
v 0.024189114570617676 0.6510411500930786 0.12091539800167084
v -0.04706563428044319 0.2679542899131775 0.1011609137058258
v 0.03010529652237892 0.2713108956813812 0.10145457834005356
v 0.024189114570617676 0.6430236101150513 0.21255652606487274
v 0.03010529652237892 0.26519060134887695 0.17140959203243256
v -0.04706563428044319 0.2679542899131775 0.1011609137058258
v 0.03010529652237892 0.26519060134887695 0.17140959203243256
v -0.04706563428044319 0.261834055185318 0.1711159497499466
v -0.07690480351448059 0.646644115447998 0.12053070217370987
v -0.04706563428044319 0.261834055185318 0.1711159497499466
v -0.07690480351448059 0.6386265158653259 0.21217182278633118
v -0.00007732796802883968 0.2924720048904419 -0.11557573825120926
v -0.05104809254407883 0.6791095733642578 -0.1401406079530716
v 0.04944987595081329 0.6683549284934998 -0.14503513276576996
v -0.07679333537817001 0.30068159103393555 -0.11183945089578629
v -0.00007732796802883968 0.2924720048904419 -0.11557573825120926
v 0.05426432192325592 0.671561062335968 -0.05322599411010742
v 0.003597820410504937 0.29491937160491943 -0.04549245536327362
v -0.07679333537817001 0.30068159103393555 -0.11183945089578629
v 0.003597820410504937 0.29491937160491943 -0.04549245536327362
v -0.0731181874871254 0.3031289577484131 -0.041756171733140945
v -0.05104809254407883 0.6791095733642578 -0.1401406079530716
v -0.0731181874871254 0.3031289577484131 -0.041756171733140945
v -0.0462336465716362 0.6823156476020813 -0.04833146557211876
v -0.0731181874871254 0.3031289577484131 -0.041756171733140945
v -0.08327875286340714 0.7119423747062683 -0.030547376722097397
v -0.05013391748070717 0.3332802355289459 -0.016838474199175835
v -0.05013391748070717 0.3332802355289459 0.05338376760482788
v 0.05763217434287071 0.28981727361679077 0.3151916563510895
v -0.1129688173532486 0.6410970687866211 0.3232516646385193
v -0.01778126321732998 0.27309849858283997 0.3151916563510895
v -0.014177200384438038 0.6629985570907593 0.3232516646385193
v 0.0270046666264534 0.3373229205608368 0.05338377133011818
v -0.08327875286340714 0.7119423747062683 0.06144379824399948
v -0.05013391748070717 0.3332802355289459 0.05338376760482788
v 0.017772790044546127 0.7172382473945618 0.06144379824399948
v 0.0036269985139369965 0.32422733306884766 -0.1832617223262787
v -0.06017976254224777 0.7094945907592773 -0.17520171403884888
v -0.07342928647994995 0.32961559295654297 -0.1832617223262787
v 0.040763963013887405 0.7024359107017517 -0.17520171403884888
v 0.05763217434287071 0.28981727361679077 0.24496939778327942
v -0.1129688173532486 0.6410970091819763 0.2312604933977127
v -0.014177200384438038 0.6629985570907593 0.2312604933977127
v -0.01778126321732998 0.27309849858283997 0.24496939778327942
v 0.05763217434287071 0.28981727361679077 0.24496939778327942
v -0.014177200384438038 0.6629985570907593 0.3232516646385193
v 0.05763217434287071 0.28981727361679077 0.3151916563510895
v -0.01778126321732998 0.27309849858283997 0.24496939778327942
v 0.05763217434287071 0.28981727361679077 0.3151916563510895
v -0.01778126321732998 0.27309849858283997 0.3151916563510895
v -0.1129688173532486 0.6410970091819763 0.2312604933977127
v -0.01778126321732998 0.27309849858283997 0.3151916563510895
v -0.1129688173532486 0.6410970687866211 0.3232516646385193
v 0.0036269985139369965 0.32422733306884766 -0.25348395109176636
v -0.06017976254224777 0.7094945311546326 -0.26719287037849426
v 0.040763963013887405 0.7024358510971069 -0.26719287037849426
v -0.07342928647994995 0.32961559295654297 -0.25348395109176636
v 0.0036269985139369965 0.32422733306884766 -0.25348395109176636
v 0.040763963013887405 0.7024359107017517 -0.17520171403884888
v 0.0036269985139369965 0.32422733306884766 -0.1832617223262787
v -0.07342928647994995 0.32961559295654297 -0.25348395109176636
v 0.0036269985139369965 0.32422733306884766 -0.1832617223262787
v -0.07342928647994995 0.32961559295654297 -0.1832617223262787
v -0.06017976254224777 0.7094945311546326 -0.26719287037849426
v -0.07342928647994995 0.32961559295654297 -0.1832617223262787
v -0.06017976254224777 0.7094945907592773 -0.17520171403884888
v 0.0270046666264534 0.3373229205608368 -0.016838474199175835
v -0.08327875286340714 0.7119423747062683 -0.030547376722097397
v 0.017772790044546127 0.7172382473945618 -0.030547376722097397
v -0.05013391748070717 0.3332802355289459 -0.016838474199175835
v 0.0270046666264534 0.3373229205608368 -0.016838474199175835
v 0.017772790044546127 0.7172382473945618 0.06144379824399948
v 0.0270046666264534 0.3373229205608368 0.05338377133011818
v 0.0270046666264534 0.3373229205608368 0.05338377133011818
v -0.05013391748070717 0.3332802355289459 0.05338376760482788
v -0.08327875286340714 0.7119423747062683 0.06144379824399948
vn 0.9275986552238464 0.25860708951950073 -0.26959797739982605
vn 0.9602643847465515 4.388466123828039e-8 -0.279092013835907
vn 1.8802681722718262e-7 1.589460651985064e-7 -1
vn -0.9275987148284912 0.25860708951950073 0.2695979177951813
vn -2.766889508620807e-7 0.43244993686676025 0.9016579389572144
vn 0.9275986552238464 0.2586071491241455 0.2695980370044708
vn 0.9602643251419067 4.497631778122013e-8 0.27909207344055176
vn -3.6168995620755595e-7 1.589460651985064e-7 1
vn -0.9602643847465515 4.388465768556671e-8 0.2790919840335846
vn -0.720576822757721 0.4160243570804596 -0.5547006130218506
vn 2.5365562805745867e-7 0.8320503234863281 0.5547001957893372
vn -1.5440683398537658e-7 0.8320502638816833 -0.5547002553939819
vn -0.720576822757721 0.41602444648742676 0.5547005534172058
vn 0.7205768823623657 0.4160243570804596 -0.5547005534172058
vn 0.720576822757721 0.41602426767349243 0.5547006726264954
vn -2.1498267699371354e-7 0.8320503234863281 -0.5547001957893372
vn 1.8762200681976537e-7 0.8320503234863281 0.5547001957893372
vn 0.720576822757721 0.4160243272781372 0.5547006726264954
vn -0.7205768823623657 0.4160243570804596 0.5547005534172058
vn 0.7205768823623657 0.4160243570804596 -0.5547005534172058
vn -0.720576822757721 0.41602426767349243 -0.5547006726264954
vn -0.7034533023834229 -0.37971800565719604 -0.6008058786392212
vn 0.41369739174842834 0.7708653211593628 -0.48437702655792236
vn 0.6008057594299316 -0.3797178566455841 -0.7034534811973572
vn -0.48437729477882385 0.7708651423454285 -0.41369742155075073
vn -0.4136974513530731 0.770865261554718 0.48437708616256714
vn -0.6008057594299316 -0.3797178566455841 0.7034534811973572
vn 0.48437732458114624 0.7708652019500732 0.4136973023414612
vn 0.7034533023834229 -0.37971794605255127 0.600805938243866
vn -0.8168167471885681 -0.3797178864479065 0.4343094825744629
vn 0.2990525960922241 0.770865261554718 0.562436044216156
vn -0.5624361038208008 0.7708653211593628 0.29905229806900024
vn 0.4343092739582062 -0.37971797585487366 0.8168168067932129
vn 0.8168167471885681 -0.3797178864479065 -0.4343094527721405
vn -0.4343092739582062 -0.3797180652618408 -0.8168168067932129
vn 0.562436044216156 0.7708653807640076 -0.29905232787132263
vn -0.29905253648757935 0.7708652019500732 -0.5624361634254456
vn 1.2010420391561638e-7 0.43244993686676025 -0.9016579389572144
vn -0.9275986552238464 0.2586071491241455 -0.26959800720214844
vn -0.9602643847465515 4.497631422850645e-8 -0.279092013835907
vn 0.5339347720146179 -0.6271539926528931 0.5670903921127319
vn 0.7366061210632324 -0.08531367033720016 0.6709195375442505
vn -0.6720255613327026 0.060445286333560944 0.7380568981170654
vn 0.59471195936203 -0.6125720739364624 0.520646870136261
vn -0.7071434259414673 -0.13169579207897186 0.694697380065918
vn -0.5409252047538757 -0.6637821197509766 0.5165203213691711
vn 0.7090279459953308 -0.06536315381526947 0.7021445631980896
vn 0.5956276059150696 -0.5171120166778564 -0.6146730184555054
vn -0.7031109929084778 -0.019043853506445885 -0.7108250260353088
vn 0.7059363126754761 0.04721614718437195 -0.7066997289657593
vn -0.5414883494377136 -0.5683435797691345 -0.6194965243339539
vn 0.5956276059150696 -0.5171120166778564 -0.6146730184555054
vn 0.7090279459953308 -0.06536315381526947 0.7021445631980896
vn 0.59471195936203 -0.6125720739364624 0.520646870136261
vn -0.5414883494377136 -0.5683435797691345 -0.6194965243339539
vn 0.59471195936203 -0.6125720739364624 0.520646870136261
vn -0.5409252047538757 -0.6637821197509766 0.5165203213691711
vn -0.7031109929084778 -0.019043853506445885 -0.7108250260353088
vn -0.5409252047538757 -0.6637821197509766 0.5165203213691711
vn -0.7071434259414673 -0.13169579207897186 0.694697380065918
vn 0.47464296221733093 -0.6708052754402161 -0.5698546767234802
vn -0.7433530688285828 0.000547521049156785 -0.6688990592956543
vn 0.6580162644386292 -0.1446189135313034 -0.7389857769012451
vn -0.6560546159744263 -0.5516358613967896 -0.5150633454322815
vn 0.47464296221733093 -0.6708052754402161 -0.5698546767234802
vn 0.7366061210632324 -0.08531367033720016 0.6709195375442505
vn 0.5339347720146179 -0.6271539926528931 0.5670903921127319
vn -0.6560546159744263 -0.5516358613967896 -0.5150633454322815
vn 0.5339347720146179 -0.6271539926528931 0.5670903921127319
vn -0.5952539443969727 -0.5081003904342651 0.6225004196166992
vn -0.7433530688285828 0.000547521049156785 -0.6688990592956543
vn -0.5952539443969727 -0.5081003904342651 0.6225004196166992
vn -0.6720255613327026 0.060445286333560944 0.7380568981170654
vn -0.5952539443969727 -0.5081003904342651 0.6225004196166992
vn -0.7023780941963196 -0.08705651015043259 -0.7064602971076965
vn -0.5360558032989502 -0.6248751878738403 -0.5676047205924988
vn -0.5355270504951477 -0.6209354400634766 0.5724071860313416
vn 0.6837645173072815 -0.4530114233493805 0.5720548033714294
vn -0.68413245677948 -0.19236865639686584 0.7035318613052368
vn -0.42569872736930847 -0.7008070945739746 0.5724071860313416
vn 0.6989367008209229 0.1192624494433403 0.7051694393157959
vn 0.5996186137199402 -0.5596523284912109 0.5720548629760742
vn -0.7064999938011169 -0.07681601494550705 0.7035318613052368
vn -0.5355270504951477 -0.6209354400634766 0.5724071860313416
vn 0.7090351581573486 0.0022690126206725836 0.7051694393157959
vn 0.5269446969032288 -0.6285558342933655 0.572054922580719
vn -0.7105953097343445 0.009857237339019775 0.7035319209098816
vn -0.607208251953125 -0.5510427355766296 0.5724072456359863
vn 0.7040266394615173 -0.0841575339436531 0.7051694989204407
vn 0.6853352785110474 -0.45664677023887634 -0.5672647356987
vn -0.6783769130706787 -0.20178839564323425 -0.7064602971076965
vn 0.6977393627166748 0.1082492470741272 -0.708125650882721
vn -0.42556998133659363 -0.7047801613807678 -0.5676047205924988
vn 0.6853352785110474 -0.45664677023887634 -0.5672647356987
vn 0.6989367008209229 0.1192624494433403 0.7051694393157959
vn 0.6837645173072815 -0.4530114233493805 0.5720548033714294
vn -0.42556998133659363 -0.7047801613807678 -0.5676047205924988
vn 0.6837645173072815 -0.4530114233493805 0.5720548033714294
vn -0.42569872736930847 -0.7008070945739746 0.5724071860313416
vn -0.6783769130706787 -0.20178839564323425 -0.7064602971076965
vn -0.42569872736930847 -0.7008070945739746 0.5724071860313416
vn -0.68413245677948 -0.19236865639686584 0.7035318613052368
vn 0.527418315410614 -0.6324876546859741 -0.5672647953033447
vn -0.7077521681785583 -0.0008092625066637993 -0.7064603567123413
vn 0.6997506618499756 -0.09437713772058487 -0.7081257104873657
vn -0.6082131862640381 -0.5548887252807617 -0.5676047801971436
vn 0.527418315410614 -0.6324876546859741 -0.5672647953033447
vn 0.7040266394615173 -0.0841575339436531 0.7051694989204407
vn 0.5269446969032288 -0.6285558342933655 0.572054922580719
vn -0.6082131862640381 -0.5548887252807617 -0.5676047801971436
vn 0.5269446969032288 -0.6285558342933655 0.572054922580719
vn -0.607208251953125 -0.5510427355766296 0.5724072456359863
vn -0.7077521681785583 -0.0008092625066637993 -0.7064603567123413
vn -0.607208251953125 -0.5510427355766296 0.5724072456359863
vn -0.7105953097343445 0.009857237339019775 0.7035319209098816
vn 0.6005678772926331 -0.5634970664978027 -0.5672647356987
vn -0.7023780941963196 -0.08705651015043259 -0.7064602971076965
vn 0.7060365676879883 -0.008395524695515633 -0.708125650882721
vn -0.5360558032989502 -0.6248751878738403 -0.5676047205924988
vn 0.6005678772926331 -0.5634970664978027 -0.5672647356987
vn 0.7090351581573486 0.0022690126206725836 0.7051694393157959
vn 0.5996186137199402 -0.5596523284912109 0.5720548629760742
vn 0.5996186137199402 -0.5596523284912109 0.5720548629760742
vn -0.5355270504951477 -0.6209354400634766 0.5724071860313416
vn -0.7064999938011169 -0.07681601494550705 0.7035318613052368
vt 0.0005008876323699951 0.9995005130767822
vt 0.0005008876323699951 0.0004994869232177734
vt 0.9995017647743225 0.0004994869232177734
vt 0.0005008876323699951 0.9995005130767822
vt 0.9995017647743225 0.9995005130767822
vt 0.0005011558532714844 0.9995005130767822
vt 0.0005011558532714844 0.0004994869232177734
vt 0.9995017647743225 0.0004994869232177734
vt 0.0005008876323699951 0.0004994869232177734
vt 0.9995005130767822 0.9994972944259644
vt 0.0004995465278625488 0.5000016093254089
vt 0.9995005130767822 0.49999845027923584
vt 0.0004995763301849365 0.9995005130767822
vt 0.9995005130767822 0.0004994869232177734
vt 0.0004995465278625488 0.0005027055740356445
vt 0.9995005130767822 0.49999845027923584
vt 0.0004995465278625488 0.5000016093254089
vt 0.0004995465278625488 0.0005027055740356445
vt 0.0004995763301849365 0.9995005130767822
vt 0.9995005130767822 0.0004994869232177734
vt 0.9995005130767822 0.9994972944259644
vt 0.9995005130767822 0.7655889987945557
vt 0.7213242053985596 0.08374953269958496
vt 0.7655891180038452 0.0004994869232177734
vt 0.9162505269050598 0.7213242053985596
vt 0.2786760926246643 0.916250467300415
vt 0.23441118001937866 0.9995005130767822
vt 0.08374980092048645 0.2786758542060852
vt 0.0004998147487640381 0.2344110608100891
vt 0.23441118001937866 0.9995005130767822
vt 0.08374980092048645 0.2786758542060852
vt 0.2786760926246643 0.916250467300415
vt 0.0004998147487640381 0.2344110608100891
vt 0.7655891180038452 0.0004994869232177734
vt 0.9995005130767822 0.7655889987945557
vt 0.7213242053985596 0.08374953269958496
vt 0.9162505269050598 0.7213242053985596
vt 0.9995017647743225 0.9995005130767822
vt 0.0005011558532714844 0.9995005130767822
vt 0.0005011558532714844 0.0004994869232177734
vt 0.6041460037231445 0.000499725341796875
vt 0.9995003938674927 0.9722148180007935
vt 0.20872369408607483 0.9995006322860718
vt 0.6041460037231445 0.000499725341796875
vt 0.20872369408607483 0.9995006322860718
vt 0.0004996359348297119 0.021328508853912354
vt 0.9995003938674927 0.9722148180007935
vt 0.6041459441184998 0.000499725341796875
vt 0.20872366428375244 0.9995006322860718
vt 0.9995003938674927 0.9722148180007935
vt 0.0004996061325073242 0.021328449249267578
vt 0.8506256341934204 0.000499725341796875
vt 0.0004990100860595703 0.9722145795822144
vt 0.08802902698516846 0.0004994869232177734
vt 0.85062575340271 0.021328449249267578
vt 0.08802998065948486 0.000499725341796875
vt 0.08803018927574158 0.021328449249267578
vt 0.9994999766349792 0.9995003938674927
vt 0.08802923560142517 0.021328210830688477
vt 0.0004992783069610596 0.9995003938674927
vt 0.6041459441184998 0.000499725341796875
vt 0.20872366428375244 0.9995006322860718
vt 0.9995003938674927 0.9722148180007935
vt 0.0004996061325073242 0.021328449249267578
vt 0.8506256341934204 0.000499725341796875
vt 0.0004990100860595703 0.9722145795822144
vt 0.08802902698516846 0.0004994869232177734
vt 0.85062575340271 0.021328449249267578
vt 0.08802998065948486 0.000499725341796875
vt 0.08803018927574158 0.021328449249267578
vt 0.9994999766349792 0.9995003938674927
vt 0.08802923560142517 0.021328210830688477
vt 0.0004992783069610596 0.9995003938674927
vt 0.0004996359348297119 0.021328508853912354
vt 0.9994999766349792 0.9995003938674927
vt 0.85062575340271 0.021328449249267578
vt 0.08802923560142517 0.021328210830688477
vt 0.6041460037231445 0.000499725341796875
vt 0.20872369408607483 0.9995006322860718
vt 0.0004996359348297119 0.021328508853912354
vt 0.9995003938674927 0.9722148180007935
vt 0.6041460037231445 0.000499725341796875
vt 0.20872369408607483 0.9995006322860718
vt 0.0004996359348297119 0.021328508853912354
vt 0.9995003938674927 0.9722148180007935
vt 0.6041460037231445 0.000499725341796875
vt 0.20872369408607483 0.9995006322860718
vt 0.0004996359348297119 0.021328508853912354
vt 0.9995003938674927 0.9722148180007935
vt 0.6041459441184998 0.000499725341796875
vt 0.20872366428375244 0.9995006322860718
vt 0.9995003938674927 0.9722148180007935
vt 0.0004996061325073242 0.021328449249267578
vt 0.8506256341934204 0.000499725341796875
vt 0.0004990100860595703 0.9722145795822144
vt 0.08802902698516846 0.0004994869232177734
vt 0.85062575340271 0.021328449249267578
vt 0.08802998065948486 0.000499725341796875
vt 0.08803018927574158 0.021328449249267578
vt 0.9994999766349792 0.9995003938674927
vt 0.08802923560142517 0.021328210830688477
vt 0.0004992783069610596 0.9995003938674927
vt 0.6041459441184998 0.000499725341796875
vt 0.20872366428375244 0.9995006322860718
vt 0.9995003938674927 0.9722148180007935
vt 0.0004996061325073242 0.021328449249267578
vt 0.8506256341934204 0.000499725341796875
vt 0.0004990100860595703 0.9722145795822144
vt 0.08802902698516846 0.0004994869232177734
vt 0.85062575340271 0.021328449249267578
vt 0.08802998065948486 0.000499725341796875
vt 0.08803018927574158 0.021328449249267578
vt 0.9994999766349792 0.9995003938674927
vt 0.08802923560142517 0.021328210830688477
vt 0.0004992783069610596 0.9995003938674927
vt 0.6041459441184998 0.000499725341796875
vt 0.20872366428375244 0.9995006322860718
vt 0.9995003938674927 0.9722148180007935
vt 0.0004996061325073242 0.021328449249267578
vt 0.8506256341934204 0.000499725341796875
vt 0.0004990100860595703 0.9722145795822144
vt 0.08802902698516846 0.0004994869232177734
vt 0.08802998065948486 0.000499725341796875
vt 0.08803018927574158 0.021328449249267578
vt 0.0004992783069610596 0.9995003938674927
g Geoset0
s 1
usemtl mat_iron04
f 1/1/1 2/2/2 3/3/3
f 4/4/4 5/5/5 6/6/6
f 5/5/5 7/7/7 6/6/6
f 5/5/5 8/8/8 7/7/7
f 4/4/4 8/8/8 5/5/5
f 4/4/4 9/9/9 8/8/8
f 10/10/10 11/11/11 12/12/12
f 10/10/10 13/13/13 11/11/11
f 10/10/10 12/12/12 14/14/14
f 12/12/12 15/15/15 14/14/14
f 12/12/12 11/11/11 15/15/15
f 13/13/13 15/15/15 11/11/11
f 16/16/16 17/17/17 18/18/18
f 19/19/19 18/18/18 17/17/17
f 16/16/16 18/18/18 20/20/20
f 21/21/21 16/16/16 20/20/20
f 21/21/21 17/17/17 16/16/16
f 21/21/21 19/19/19 17/17/17
f 22/22/22 23/23/23 24/24/24
f 22/22/22 25/25/25 23/23/23
f 26/26/26 23/23/23 25/25/25
f 27/27/27 26/26/26 25/25/25
f 27/27/27 28/28/28 26/26/26
f 27/27/27 29/29/29 28/28/28
f 27/27/27 25/25/25 22/22/22
f 29/29/29 27/27/27 22/22/22
f 29/29/29 22/22/22 24/24/24
f 28/28/28 29/29/29 24/24/24
f 28/28/28 24/24/24 23/23/23
f 26/26/26 28/28/28 23/23/23
f 30/30/30 31/31/31 32/32/32
f 30/30/30 33/33/33 31/31/31
f 31/31/31 33/33/33 34/34/34
f 33/33/33 35/35/35 34/34/34
f 35/35/35 36/36/36 34/34/34
f 35/35/35 37/37/37 36/36/36
f 33/33/33 30/30/30 35/35/35
f 30/30/30 37/37/37 35/35/35
f 30/30/30 32/32/32 37/37/37
f 32/32/32 36/36/36 37/37/37
f 32/32/32 31/31/31 36/36/36
f 31/31/31 34/34/34 36/36/36
f 1/1/1 38/38/38 39/39/39
f 38/38/38 40/40/40 39/39/39
f 38/38/38 3/3/3 40/40/40
f 1/1/1 3/3/3 38/38/38
g Geoset1
s 1
usemtl mat_vial04
f 41/41/41 42/42/42 43/43/43
f 44/44/44 45/45/45 46/46/46
f 44/44/44 47/47/47 45/45/45
f 48/48/48 49/49/49 50/50/50
f 48/48/48 51/51/51 49/49/49
f 52/52/52 53/53/53 54/54/54
f 52/52/52 50/50/50 53/53/53
f 55/55/55 56/56/56 57/57/57
f 55/55/55 52/52/52 56/56/56
f 58/58/58 59/59/59 60/60/60
f 58/58/58 55/55/55 59/59/59
f 61/61/61 62/62/62 63/63/63
f 61/61/61 64/64/64 62/62/62
f 65/65/65 66/66/66 67/67/67
f 65/65/65 63/63/63 66/66/66
f 68/68/68 69/69/69 70/70/70
f 68/68/68 65/65/65 69/69/69
f 71/71/71 72/72/72 73/73/73
f 71/71/71 68/68/68 72/72/72
f 41/41/41 43/43/43 74/74/74
g Geoset2
s 1
usemtl mat_vial03
f 75/75/75 76/76/76 77/77/77
f 78/78/78 79/79/79 80/80/80
f 78/78/78 81/81/81 79/79/79
f 82/82/82 83/83/83 84/84/84
f 82/82/82 85/85/85 83/83/83
f 86/86/86 87/87/87 88/88/88
f 86/86/86 89/89/89 87/87/87
f 90/90/90 91/91/91 92/92/92
f 90/90/90 93/93/93 91/91/91
f 94/94/94 95/95/95 96/96/96
f 94/94/94 92/92/92 95/95/95
f 97/97/97 98/98/98 99/99/99
f 97/97/97 94/94/94 98/98/98
f 100/100/100 101/101/101 102/102/102
f 100/100/100 97/97/97 101/101/101
f 103/103/103 104/104/104 105/105/105
f 103/103/103 106/106/106 104/104/104
f 107/107/107 108/108/108 109/109/109
f 107/107/107 105/105/105 108/108/108
f 110/110/110 111/111/111 112/112/112
f 110/110/110 107/107/107 111/111/111
f 113/113/113 114/114/114 115/115/115
f 113/113/113 110/110/110 114/114/114
f 116/116/116 117/117/117 118/118/118
f 116/116/116 119/119/119 117/117/117
f 120/120/120 121/121/121 122/122/122
f 120/120/120 118/118/118 121/121/121
f 76/76/76 123/123/123 124/124/124
f 76/76/76 120/120/120 123/123/123
f 75/75/75 77/77/77 125/125/125