# Exported using wow.export v0.1.49
o 
mtllib jug02.mtl
v -0.03956092521548271 0.5504658222198486 0.041685380041599274
v -0.029671039432287216 0.35030612349510193 0.03107975237071514
v -0.2102590799331665 0.5930517315864563 0.224736750125885
v -0.13203290104866028 0.3076808452606201 0.14084939658641815
v -0.10661802440881729 0.6507968306541443 0.08606114238500595
v 0.08938013017177582 0.6507968306541443 0.08606114238500595
v 0.08938013762235641 0.6507968306541443 -0.08928856998682022
v -0.06767965853214264 0.51848965883255 0.04397173970937729
v -0.10661802440881729 0.6507968306541443 0.08606114238500595
v -0.10661802440881729 0.6507968306541443 -0.08928856253623962
v -0.06767965853214264 0.51848965883255 -0.047200072556734085
v 0.08938013017177582 0.6507968306541443 0.08606114238500595
v 0.05044146254658699 0.51848965883255 0.04397173970937729
v 0.05044146254658699 0.51848965883255 -0.047200072556734085
v 0.08938013762235641 0.6507968306541443 -0.08928856998682022
v 0.035994961857795715 0.0027142458129674196 -0.1792006939649582
v -0.13788172602653503 0.002714285161346197 -0.1260412484407425
v -0.20500794053077698 0.15617719292640686 -0.18863743543624878
v 0.05664173886179924 0.15617719292640686 -0.2686317563056946
v 0.1689707487821579 0.0027142458129674196 -0.05519874766469002
v 0.25674372911453247 0.15617719292640686 -0.08203364163637161
v 0.12806983292102814 0.002714285161346197 0.12196262925863266
v 0.1951960027217865 0.15617719292640686 0.18455882370471954
v -0.04580690339207649 0.002714285161346197 0.17512209713459015
v -0.06645368784666061 0.15617719292640686 0.26455309987068176
v -0.17878268659114838 0.002714285161346197 0.051120124757289886
v -0.26655566692352295 0.15617719292640686 0.07795502990484238
v -0.18681684136390686 0.3511311411857605 -0.1716739684343338
v 0.05104648694396019 0.3511311411857605 -0.24439607560634613
v 0.2329573929309845 0.3511311411857605 -0.07476142048835754
v 0.17700491845607758 0.3511311411857605 0.16759534180164337
v -0.060858454555273056 0.3511311411857605 0.2403174787759781
v -0.24276931583881378 0.3511311411857605 0.0706828162074089
v -0.17878268659114838 0.002714285161346197 0.051120124757289886
v -0.26655566692352295 0.15617719292640686 0.07795502990484238
v -0.24276931583881378 0.3511311411857605 0.0706828162074089
v -0.09732342511415482 0.46844419836997986 0.0262155644595623
v -0.07558409124612808 0.46844419836997986 -0.06794771552085876
v 0.01683332398533821 0.46844419836997986 -0.09620258212089539
v 0.08751146495342255 0.46844419836997986 -0.030294129624962807
v 0.0657721534371376 0.46844419836997986 0.06386913359165192
v -0.026645276695489883 0.46844419836997986 0.09212397783994675
v -0.09732342511415482 0.46844419836997986 0.0262155644595623
v -0.031061090528964996 0.5597651600837708 0.11125091463327408
v -0.11609572917222977 0.5597651600837708 0.031954824924468994
v -0.004905980546027422 0.559765100479126 -0.002039284212514758
v 0.08012864738702774 0.559765100479126 0.07725679129362106
v 0.1062837615609169 0.559765100479126 -0.03603339195251465
v -0.08994060009717941 0.559765100479126 -0.08133537322282791
v -0.11609572917222977 0.5597651600837708 0.031954824924468994
v 0.02124911919236183 0.559765100479126 -0.11532950401306152
v -0.06767965853214264 0.51848965883255 -0.047200072556734085
v -0.10661802440881729 0.6507968306541443 -0.08928856253623962
v 0.08938013762235641 0.6507968306541443 -0.08928856998682022
v 0.05044146254658699 0.51848965883255 -0.047200072556734085
v 0.05044146254658699 0.51848965883255 0.04397173970937729
v 0.08938013017177582 0.6507968306541443 0.08606114238500595
v -0.06767965853214264 0.51848965883255 0.04397173970937729
vn -0.740658700466156 8.198761491939877e-8 -0.6718814373016357
vn -0.740658700466156 7.698918125242926e-8 -0.6718814373016357
vn -0.740658700466156 7.805902413338117e-8 -0.6718814373016357
vn -0.740658700466156 7.314096706068085e-8 -0.6718814373016357
vn -0.6343317031860352 0.43138739466667175 0.6415046453475952
vn 0.6343322396278381 0.43138688802719116 0.6415044665336609
vn 0.6343327164649963 0.43138840794563293 -0.6415029168128967
vn -0.649282693862915 -0.4159659445285797 0.6367136836051941
vn -0.6343317031860352 0.43138739466667175 0.6415046453475952
vn -0.6343321800231934 0.4313890039920807 -0.641503095626831
vn -0.6492821574211121 -0.4159621298313141 -0.6367167234420776
vn 0.6343322396278381 0.43138688802719116 0.6415044665336609
vn 0.6492816805839539 -0.41596725583076477 0.6367138624191284
vn 0.6492810845375061 -0.4159635007381439 -0.636716902256012
vn 0.6343327164649963 0.43138840794563293 -0.6415029168128967
vn 0.1901567429304123 -0.5342531204223633 -0.8236588835716248
vn -0.6182311177253723 -0.5342533588409424 -0.5765098929405212
vn -0.7173061370849609 -0.19505412876605988 -0.6688989400863647
vn 0.22063030302524567 -0.1950540989637375 -0.9556548595428467
vn 0.8083878755569458 -0.5342531800270081 -0.24714891612529755
vn 0.937936544418335 -0.1950540840625763 -0.2867559790611267
vn 0.6182311773300171 -0.5342532992362976 0.5765098929405212
vn 0.7173061966896057 -0.1950540989637375 0.66889888048172
vn -0.1901567280292511 -0.5342531800270081 0.8236588835716248
vn -0.22063036262989044 -0.19505417346954346 0.9556547999382019
vn -0.808387815952301 -0.5342532992362976 0.24714884161949158
vn -0.937936544418335 -0.19505414366722107 0.28675591945648193
vn -0.6467218995094299 0.4669557511806488 -0.6030780076980591
vn 0.19891990721225739 0.4669557213783264 -0.8616166114807129
vn 0.8456417918205261 0.4669557809829712 -0.2585386335849762
vn 0.6467219591140747 0.46695566177368164 0.6030780076980591
vn -0.19891995191574097 0.4669557213783264 0.8616166114807129
vn -0.8456419110298157 0.46695563197135925 0.2585386633872986
vn -0.808387815952301 -0.5342532992362976 0.24714884161949158
vn -0.937936544418335 -0.19505414366722107 0.28675591945648193
vn -0.8456419110298157 0.46695563197135925 0.2585386633872986
vn -0.8633642196655273 0.43003374338150024 0.26395687460899353
vn -0.6602755188941956 0.4300336241722107 -0.6157169342041016
vn 0.2030886858701706 0.43003368377685547 -0.8796737790107727
vn 0.8633642196655273 0.43003368377685547 -0.26395684480667114
vn 0.6602755188941956 0.4300336241722107 0.6157169342041016
vn -0.2030886560678482 0.43003353476524353 0.8796738982200623
vn -0.8633642196655273 0.43003374338150024 0.26395687460899353
vn -0.18963468074798584 0.5379065275192261 0.8213983774185181
vn -0.8061692118644714 0.5379065871238708 0.2464704066514969
vn 2.495954163350689e-7 1 -2.6765826532937353e-7
vn 0.6165347099304199 0.5379061698913574 0.574927806854248
vn 0.8061694502830505 0.5379061698913574 -0.24647065997123718
vn -0.6165345907211304 0.5379061102867126 -0.5749279260635376
vn -0.8061692118644714 0.5379065871238708 0.2464704066514969
vn 0.189634770154953 0.5379061698913574 -0.8213985562324524
vn -0.6492821574211121 -0.4159621298313141 -0.6367167234420776
vn -0.6343321800231934 0.4313890039920807 -0.641503095626831
vn 0.6343327164649963 0.43138840794563293 -0.6415029168128967
vn 0.6492810845375061 -0.4159635007381439 -0.636716902256012
vn 0.6492816805839539 -0.41596725583076477 0.6367138624191284
vn 0.6343322396278381 0.43138688802719116 0.6415044665336609
vn -0.649282693862915 -0.4159659445285797 0.6367136836051941
vt 0 1
vt 0 0
vt 1 1
vt 1 0
vt 0.47833549976348877 0.2999887466430664
vt 0.652090847492218 0.21247625350952148
vt 0.6213948726654053 0.211542010307312
vt 0.6213948726654053 0.211542010307312
vt 0.4516806900501251 0.2949143648147583
vt 0.47833549976348877 0.2999887466430664
vt 0.652090847492218 0.21247625350952148
vt 0.47833549976348877 0.2999887466430664
vt 0.652090847492218 0.21247625350952148
vt 0.6213948726654053 0.211542010307312
vt 0.4516806900501251 0.2949143648147583
vt 1.5669138431549072 0.0004994869232177734
vt 2.2784833908081055 0.0004996061325073242
vt 2.2784833908081055 0.28948652744293213
vt 1.5669138431549072 0.28948652744293213
vt 0.7154535055160522 0.0004994869232177734
vt 0.7154535055160522 0.28948652744293213
vt 0.0038837024476379156 0.0004996061325073242
vt 0.0038837024476379156 0.28948652744293213
vt -0.7076861262321472 0.0004996061325073242
vt -0.7076861262321472 0.28948652744293213
vt -1.559146761894226 0.0004996061325073242
vt -1.559146761894226 0.28948652744293213
vt 2.2784833908081055 0.6566055417060852
vt 1.5669138431549072 0.6566055417060852
vt 0.7154535055160522 0.6566055417060852
vt 0.0038837024476379156 0.6566055417060852
vt -0.7076861262321472 0.6566055417060852
vt -1.559146761894226 0.6566055417060852
vt 2.990053176879883 0.0004996061325073242
vt 2.990053176879883 0.28948652744293213
vt 2.990053176879883 0.6566055417060852
vt 2.990053415298462 0.8775184750556946
vt 2.2784836292266846 0.8775184750556946
vt 1.5669138431549072 0.8775184750556946
vt 0.7154532670974731 0.8775184750556946
vt 0.003883641678839922 0.8775184750556946
vt -0.7076861262321472 0.8775184750556946
vt -1.5591464042663574 0.8775184750556946
vt -0.7076862454414368 0.9995003938674927
vt -1.5591464042663574 0.9995003938674927
vt 1.0363287925720215 0.9995002150535583
vt 0.0038835504092276096 0.9995002150535583
vt 0.7154532670974731 0.9995002150535583
vt 2.2784836292266846 0.9995002150535583
vt 2.990053415298462 0.9995003938674927
vt 1.5669138431549072 0.9995002150535583
vt 0.6213948726654053 0.211542010307312
vt 0.4516806900501251 0.2949143648147583
vt 0.47833549976348877 0.2999887466430664
vt 0.652090847492218 0.21247625350952148
vt 0.6213948726654053 0.211542010307312
vt 0.4516806900501251 0.2949143648147583
vt 0.652090847492218 0.21247625350952148
g Geoset0
s 1
usemtl mat_handle
f 1/1/1 2/2/2 3/3/3
f 4/4/4 3/3/3 2/2/2
g Geoset1
s 1
usemtl mat_bottleblue
f 5/5/5 6/6/6 7/7/7
f 8/8/8 9/9/9 10/10/10
f 10/10/10 11/11/11 8/8/8
f 12/12/12 13/13/13 14/14/14
f 14/14/14 15/15/15 12/12/12
f 16/16/16 17/17/17 18/18/18
f 16/16/16 18/18/18 19/19/19
f 20/20/20 16/16/16 19/19/19
f 20/20/20 19/19/19 21/21/21
f 22/22/22 20/20/20 21/21/21
f 22/22/22 21/21/21 23/23/23
f 24/24/24 22/22/22 23/23/23
f 24/24/24 23/23/23 25/25/25
f 26/26/26 24/24/24 25/25/25
f 26/26/26 25/25/25 27/27/27
f 19/19/19 18/18/18 28/28/28
f 19/19/19 28/28/28 29/29/29
f 21/21/21 19/19/19 29/29/29
f 21/21/21 29/29/29 30/30/30
f 23/23/23 21/21/21 30/30/30
f 23/23/23 30/30/30 31/31/31
f 25/25/25 23/23/23 31/31/31
f 25/25/25 31/31/31 32/32/32
f 27/27/27 25/25/25 32/32/32
f 27/27/27 32/32/32 33/33/33
f 17/17/17 34/34/34 35/35/35
f 17/17/17 35/35/35 18/18/18
f 18/18/18 35/35/35 36/36/36
f 18/18/18 36/36/36 28/28/28
f 28/28/28 36/36/36 37/37/37
f 28/28/28 37/37/37 38/38/38
f 29/29/29 28/28/28 38/38/38
f 29/29/29 38/38/38 39/39/39
f 30/30/30 29/29/29 39/39/39
f 30/30/30 39/39/39 40/40/40
f 31/31/31 30/30/30 40/40/40
f 31/31/31 40/40/40 41/41/41
f 32/32/32 31/31/31 41/41/41
f 32/32/32 41/41/41 42/42/42
f 33/33/33 32/32/32 42/42/42
f 33/33/33 42/42/42 43/43/43
f 43/43/43 44/44/44 45/45/45
f 43/43/43 42/42/42 44/44/44
f 46/46/46 44/44/44 47/47/47
f 46/46/46 45/45/45 44/44/44
f 46/46/46 47/47/47 48/48/48
f 46/46/46 49/49/49 50/50/50
f 46/46/46 51/51/51 49/49/49
f 46/46/46 48/48/48 51/51/51
f 42/42/42 47/47/47 44/44/44
f 42/42/42 41/41/41 47/47/47
f 41/41/41 48/48/48 47/47/47
f 41/41/41 40/40/40 48/48/48
f 40/40/40 51/51/51 48/48/48
f 40/40/40 39/39/39 51/51/51
f 39/39/39 49/49/49 51/51/51
f 39/39/39 38/38/38 49/49/49
f 38/38/38 50/50/50 49/49/49
f 38/38/38 37/37/37 50/50/50
f 52/52/52 53/53/53 54/54/54
f 54/54/54 55/55/55 52/52/52
f 56/56/56 57/57/57 5/5/5
f 5/5/5 58/58/58 56/56/56
f 7/7/7 53/53/53 5/5/5