# Exported using wow.export v0.1.49
o 
mtllib innpillow.mtl
v 0.39564698934555054 0.1595200002193451 -0.7035329937934875
v 0.6086940169334412 0.37780600786209106 0
v 0.4565190076828003 0.0944518968462944 0
v 0.39564698934555054 0.1595190018415451 0.7035329937934875
v 0 0 0
v 0.4565190076828003 0.0944518968462944 0
v 0.5341309905052185 0.37780600786209106 0.9497690200805664
v 0.39564698934555054 0.5960999727249146 0.7035329937934875
v 0.4565190076828003 0.6611670255661011 0
v 0 0.37780600786209106 1.1011899709701538
v 0 0.08311749994754791 0.825888991355896
v -0.39564698934555054 0.1595190018415451 0.7035329937934875
v -0.39564698934555054 0.5960999727249146 0.7035329937934875
v -0.4565190076828003 0.6611670255661011 0
v -0.6086919903755188 0.37780600786209106 0
v 0 0.7556170225143433 0
v 0 0.6724969744682312 0.825888991355896
v -0.5341249704360962 0.37780600786209106 0.9497690200805664
v -0.4565190076828003 0.09445170313119888 0
v 0.39564698934555054 0.5960999727249146 -0.7035329937934875
v 0.5341309905052185 0.37780600786209106 -0.9497690200805664
v 0 0.37780600786209106 -1.1011899709701538
v 0 0.6724969744682312 -0.825888991355896
v 0 0.7556170225143433 0
v -0.39564698934555054 0.5960999727249146 -0.7035329937934875
v -0.4565190076828003 0.6611670255661011 0
v -0.39564698934555054 0.1595190018415451 -0.7035329937934875
v -0.4565190076828003 0.09445170313119888 0
v -0.5341249704360962 0.37780600786209106 -0.9497690200805664
v 0 0 0
v 0 0.08311749994754791 -0.825888991355896
v 0.4565190076828003 0.6611670255661011 0
vn 0.48294198513031006 -0.8189719915390015 -0.3099220097064972
vn 1 -8.851349875271808e-9 4.4256700526545956e-9
vn 0.5977380275726318 -0.801692008972168 -2.4830100642248e-8
vn 0.48294198513031006 -0.8189719915390015 0.3099220097064972
vn 1.0152800200557976e-7 -1 -3.256560177078427e-8
vn 0.5977380275726318 -0.801692008972168 -2.4830100642248e-8
vn 0.8282080292701721 5.045200168751762e-8 0.5604199767112732
vn 0.48294198513031006 0.8189730048179626 0.3099220097064972
vn 0.5977380275726318 0.801692008972168 5.7936901498578663e-8
vn -2.3163199358577913e-8 2.3163199358577913e-8 1
vn 9.961939895219984e-8 -0.899092972278595 0.4377569854259491
vn -0.48294198513031006 -0.8189730048179626 0.309920996427536
vn -0.48294198513031006 0.8189719915390015 0.3099220097064972
vn -0.5977380275726318 0.801692008972168 7.449020245076099e-8
vn -1 -1.3276999766276276e-7 1.1064200222676845e-8
vn -1.5516499729528732e-7 1 5.5553101674377103e-8
vn -1.8263600054524431e-7 0.899092972278595 0.4377569854259491
vn -0.8282080292701721 -1.0090400337503524e-7 0.5604199767112732
vn -0.5977380275726318 -0.801692008972168 -1.862260035068175e-8
vn 0.48294198513031006 0.8189730048179626 -0.3099220097064972
vn 0.8282080292701721 -2.522600084375881e-8 -0.5604199767112732
vn -5.501269839669476e-8 1.1581599679288956e-8 -1
vn -1.743340050097686e-7 0.899092972278595 -0.4377569854259491
vn -1.5516499729528732e-7 1 5.5553101674377103e-8
vn -0.48294198513031006 0.8189719915390015 -0.309920996427536
vn -0.5977380275726318 0.801692008972168 7.449020245076099e-8
vn -0.48294198513031006 -0.8189730048179626 -0.3099220097064972
vn -0.5977380275726318 -0.801692008972168 -1.862260035068175e-8
vn -0.8282080292701721 -1.5135600506255287e-7 -0.5604199767112732
vn 1.0152800200557976e-7 -1 -3.256560177078427e-8
vn 4.1508098291842543e-8 -0.899092972278595 -0.4377569854259491
vn 0.5977380275726318 0.801692008972168 5.7936901498578663e-8
vt 0.1936360001564026 0.7792730033397675
vt 1 0.9995004530064762
vt 1 0.9120678976178169
vt 0.30000001192092896 0.75
vt 1 0.5537849962711334
vt 1 0.9149643033742905
vt 0.05934379994869232 0.9966706000268459
vt 0.30000001192092896 0.75
vt 1 0.8342860043048859
vt 0.10670900344848633 0.4780460000038147
vt 0.30000001192092896 0.5
vt 0.30000001192092896 0.25
vt 0.30000001192092896 0.25
vt 1 0.08503597974777222
vt 1 0.000500023365020752
vt 1 0.4462149739265442
vt 0.30000001192092896 0.5
vt 0.017899099737405777 0.011352002620697021
vt 1 0.16571402549743652
vt 0.19392099976539612 0.7795549929141998
vt 0 0.9163393005728722
vt 0 0.4866020083427429
vt 0.19341500103473663 0.44195300340652466
vt 1 0.45007699728012085
vt 0.19392099976539612 0.13020402193069458
vt 1 0.08793199062347412
vt 0.19340699911117554 0.1299229860305786
vt 1 0.16281700134277344
vt 0 0.03971600532531738
vt 1 0.5499230027198792
vt 0.1973550021648407 0.4377080202102661
vt 1 0.8371829986572266
g Geoset0
s 1
usemtl mat_mm_pillow_opt
f 1/1/1 2/2/2 3/3/3
f 4/4/4 5/5/5 6/6/6
f 4/4/4 6/6/6 2/2/2
f 4/4/4 2/2/2 7/7/7
f 8/8/8 2/2/2 9/9/9
f 8/8/8 7/7/7 2/2/2
f 8/8/8 10/10/10 7/7/7
f 4/4/4 7/7/7 10/10/10
f 4/4/4 10/10/10 11/11/11
f 4/4/4 11/11/11 5/5/5
f 12/12/12 5/5/5 11/11/11
f 13/13/13 14/14/14 15/15/15
f 13/13/13 16/16/16 14/14/14
f 13/13/13 17/17/17 16/16/16
f 12/12/12 10/10/10 18/18/18
f 12/12/12 11/11/11 10/10/10
f 12/12/12 19/19/19 5/5/5
f 12/12/12 15/15/15 19/19/19
f 12/12/12 18/18/18 15/15/15
f 13/13/13 15/15/15 18/18/18
f 13/13/13 18/18/18 10/10/10
f 13/13/13 10/10/10 17/17/17
f 8/8/8 17/17/17 10/10/10
f 8/8/8 16/16/16 17/17/17
f 8/8/8 9/9/9 16/16/16
f 20/20/20 21/21/21 22/22/22
f 20/20/20 22/22/22 23/23/23
f 20/20/20 23/23/23 24/24/24
f 25/25/25 24/24/24 23/23/23
f 25/25/25 26/26/26 24/24/24
f 25/25/25 15/15/15 26/26/26
f 27/27/27 28/28/28 15/15/15
f 27/27/27 15/15/15 29/29/29
f 25/25/25 29/29/29 15/15/15
f 25/25/25 22/22/22 29/29/29
f 25/25/25 23/23/23 22/22/22
f 27/27/27 29/29/29 22/22/22
f 27/27/27 30/30/30 28/28/28
f 27/27/27 31/31/31 30/30/30
f 27/27/27 22/22/22 31/31/31
f 1/1/1 31/31/31 22/22/22
f 1/1/1 22/22/22 21/21/21
f 1/1/1 21/21/21 2/2/2
f 20/20/20 2/2/2 21/21/21
f 20/20/20 32/32/32 2/2/2
f 20/20/20 24/24/24 32/32/32
f 1/1/1 30/30/30 31/31/31
f 1/1/1 3/3/3 30/30/30