# Exported using wow.export v0.1.49
o 
mtllib elwynntreestump02.mtl
v -0.8744314908981323 0.5256298184394836 1.333449125289917
v -2.2511003017425537 -0.4398713707923889 0.5921590924263
v -1.6008998155593872 -0.44066619873046875 1.708130121231079
v -1.1379282474517822 1.1864023208618164 -0.9247677326202393
v 0.33346500992774963 1.0488758087158203 -0.9694522023200989
v -0.3911195993423462 0.41054290533065796 -1.2918143272399902
v -1.621850609779358 0.6689148545265198 -0.47882357239723206
v -1.4176040887832642 1.4935321807861328 0.22491781413555145
v -1.5393667221069336 0.6206279397010803 0.2956765294075012
v -0.19548048079013824 1.494390606880188 1.2959953546524048
v -0.8604105114936829 -0.46287378668785095 -2.0402846336364746
v -1.886780858039856 -0.45821210741996765 -1.6621099710464478
v -2.830916166305542 -0.44972220063209534 -0.9035976529121399
v 0.4240947663784027 -0.4641994535923004 -2.300269365310669
v 1.135216474533081 -0.4585038721561432 -1.7980047464370728
v 1.0332533121109009 0.2816775143146515 -0.9584425091743469
v 1.8651292324066162 -0.4431697130203247 -1.2521923780441284
v 1.77019464969635 -0.43109452724456787 0.544025719165802
v 1.0194072723388672 0.3569101393222809 0.047748152166604996
v 1.012872338294983 0.35949885845184326 1.1833306550979614
v 0.556059718132019 1.6476761102676392 1.0368796586990356
v -0.3134849965572357 1.944395661354065 -0.010029053315520287
v -1.1379282474517822 1.1864023208618164 -0.9247677326202393
v 0.9544880390167236 1.3054783344268799 0.1360870897769928
v 0.556059718132019 1.6476761102676392 1.0368796586990356
v 0.38899073004722595 0.4829498827457428 1.5425959825515747
v 1.4306808710098267 -0.44930851459503174 2.1215248107910156
v 0.40563347935676575 -0.44010087847709656 2.0977816581726074
v -0.41538912057876587 -0.4399712383747101 2.014857053756714
v -0.047105420380830765 1.0261510610580444 1.468758225440979
v -0.406465619802475 -0.24917370080947876 1.798829197883606
v -1.0891728408068957e-8 -0.24917370080947876 1.927897334098816
v -0.047105420380830765 1.0261510610580444 1.468758225440979
v -1.0891728408068957e-8 -0.24917370080947876 1.927897334098816
v 0.4064655601978302 -0.24917370080947876 1.798829197883606
v -0.0029541924595832825 -0.24917370080947876 2.5204479694366455
v -0.0029541768599301577 1.3245571851730347 2.5204479694366455
v -0.406465619802475 -0.24917370080947876 1.798829197883606
v -0.9687421917915344 -0.24917370080947876 2.121845006942749
v -0.9687421917915344 1.1007524728775024 2.121845006942749
v -0.461907297372818 -0.24917370080947876 1.2905713319778442
v 3.013980887089929e-8 -0.24917370080947876 1.094810128211975
v 0.40646564960479736 -0.24917370080947876 1.329483151435852
v 0.9687421917915344 1.1007524728775024 2.126387596130371
v 0.9687421917915344 -0.24917370080947876 2.126387596130371
vn -0.45310452580451965 0.5226854085922241 0.7221469879150391
vn -0.6955820322036743 0.6063337326049805 0.3853894770145416
vn -0.4647567868232727 0.6013932824134827 0.649867057800293
vn -0.41269451379776 0.5588445067405701 -0.7192885875701904
vn 0.4562617242336273 0.5750380158424377 -0.6790850162506104
vn -0.03294432908296585 0.5592038035392761 -0.8283753991127014
vn -0.682894766330719 0.56085604429245 -0.46807608008384705
vn -0.7747758626937866 0.618312418460846 0.1319551318883896
vn -0.7866180539131165 0.47406336665153503 0.3955956995487213
vn -0.3220406472682953 0.5884073376655579 0.7416647672653198
vn -0.2196134477853775 0.7095823884010315 -0.6695243120193481
vn -0.3420153558254242 0.7174712419509888 -0.6068447232246399
vn -0.688805341720581 0.7227428555488586 -0.0564802847802639
vn 0.09113521873950958 0.7875587344169617 -0.6094633340835571
vn 0.31816357374191284 0.7657203674316406 -0.558967113494873
vn 0.5682159066200256 0.709749162197113 -0.41639742255210876
vn 0.5695176124572754 0.7700902819633484 -0.2874206602573395
vn 0.7288397550582886 0.683403491973877 0.041860077530145645
vn 0.8708315491676331 0.4756287634372711 -0.12421643733978271
vn 0.8001391887664795 0.5080962777137756 0.3187718093395233
vn 0.49803000688552856 0.6849656701087952 0.5317782759666443
vn 0.03185383602976799 0.9846242070198059 -0.1717570424079895
vn -0.41269451379776 0.5588445067405701 -0.7192885875701904
vn 0.8436077237129211 0.5043757557868958 -0.18420399725437164
vn 0.49803000688552856 0.6849656701087952 0.5317782759666443
vn 0.12289391458034515 0.47500374913215637 0.8713601231575012
vn 0.44129037857055664 0.7017656564712524 0.5592743158340454
vn -0.05075225234031677 0.5140840411186218 0.85623699426651
vn -0.14199337363243103 0.5132351517677307 0.8464204668998718
vn 0.6564344763755798 0.4453319013118744 -0.6089115738868713
vn -0.9352383017539978 0.22721929848194122 -0.2714787423610687
vn 0.45825082063674927 0.31601017713546753 0.8307489156723022
vn 0.6564344763755798 0.4453319013118744 -0.6089115738868713
vn 0.45825082063674927 0.31601017713546753 0.8307489156723022
vn 0.9404420256614685 0.33941638469696045 0.019113708287477493
vn 0.9996415972709656 0.01935964822769165 -0.018489830195903778
vn 0.9991199374198914 -9.946001355842782e-9 -0.041944291442632675
vn -0.9352383017539978 0.22721929848194122 -0.2714787423610687
vn -0.49813133478164673 4.950837696483237e-16 -0.8671016097068787
vn -0.53989577293396 -0.023545239120721817 -0.841402530670166
vn -0.8113583326339722 0.33119457960128784 -0.48167183995246887
vn 0.05783351883292198 0.2828671932220459 -0.957413911819458
vn 0.8110610246658325 0.34040653705596924 -0.4757135510444641
vn 0.5434353947639465 -5.401106117562638e-16 -0.839451014995575
vn 0.5234275460243225 -0.02229379676282406 -0.851778507232666
vt 0.834645688533783 0.24409449100494385
vt 0.5984252095222473 0.007874011993408203
vt 0.8031495809555054 0.007874011993408203
vt 0.007874015718698502 0.6535432934761047
vt 0.25196850299835205 0.6535432934761047
vt 0.007874015718698502 0.3228346109390259
vt 0.29133859276771545 0.27559053897857666
vt 0.25196850299835205 0.6535432934761047
vt 0.5669291615486145 0.25984251499176025
vt 0.7795275449752808 0.6535432934761047
vt 0.007874015718698502 0.007874011993408203
vt 0.14960630238056183 0.007874011993408203
vt 0.27559053897857666 0.007874011993408203
vt 0.15748031437397003 0.007874011993408203
vt 0.25196850299835205 0.007874011993408203
vt 0.32283464074134827 0.27559053897857666
vt 0.4015747904777527 0.007874011993408203
vt 0.6456692814826965 0.007874011993408203
vt 0.5590550899505615 0.3149605989456177
vt 0.8267716765403748 0.27559053897857666
vt 0.9921259880065918 0.9921259880065918
vt 0.5196850299835205 0.9921259880065918
vt 0.007874015718698502 0.9921259880065918
vt 0.7795275449752808 0.6535432934761047
vt 0.9921259880065918 0.6535432934761047
vt 0.9921259880065918 0.24409449100494385
vt 0.8818897604942322 0.007874011993408203
vt 0.9921259880065918 0.007874011993408203
vt 0.874015748500824 0.007874011993408203
vt 0.0004995763301849365 0.9995005130767822
vt 0 0.75
vt 0.5050907731056213 0.03732502460479736
vt 0.007874015718698502 0.9921259880065918
vt 0.30708661675453186 0.007874011993408203
vt 0.007874015718698502 0.007874011993408203
vt 0.9921259880065918 0.007874011993408203
vt 0.9921259880065918 0.9921259880065918
vt 0.007874015718698502 0.007874011993408203
vt 0.9921259880065918 0.007874011993408203
vt 0.9921259880065918 0.9921259880065918
vt 0.5275590419769287 0.007874011993408203
vt 0.007874015718698502 0.007874011993408203
vt 0.5039370059967041 0.007874011993408203
vt 0.9921259880065918 0.9921259880065918
vt 0.9921259880065918 0.007874011993408203
g Geoset0
s 1
usemtl mat_elwynntreestump01
f 1/1/1 2/2/2 3/3/3
f 4/4/4 5/5/5 6/6/6
f 7/7/7 4/4/4 6/6/6
f 8/8/8 4/4/4 7/7/7
f 8/8/8 7/7/7 9/9/9
f 10/10/10 8/8/8 9/9/9
f 7/7/7 11/11/11 12/12/12
f 7/7/7 12/12/12 13/13/13
f 9/9/9 7/7/7 13/13/13
f 7/7/7 6/6/6 11/11/11
f 14/14/14 11/11/11 6/6/6
f 6/6/6 15/15/15 14/14/14
f 16/16/16 15/15/15 6/6/6
f 6/6/6 5/5/5 16/16/16
f 17/17/17 15/15/15 16/16/16
f 16/16/16 18/18/18 17/17/17
f 16/16/16 19/19/19 18/18/18
f 18/18/18 19/19/19 20/20/20
f 21/21/21 22/22/22 10/10/10
f 22/22/22 8/8/8 10/10/10
f 22/22/22 23/23/23 8/8/8
f 24/24/24 22/22/22 21/21/21
f 24/24/24 5/5/5 22/22/22
f 22/22/22 5/5/5 23/23/23
f 5/5/5 19/19/19 16/16/16
f 5/5/5 24/24/24 19/19/19
f 24/24/24 20/20/20 19/19/19
f 24/24/24 25/25/25 20/20/20
f 26/26/26 20/20/20 25/25/25
f 26/26/26 25/25/25 10/10/10
f 26/26/26 10/10/10 1/1/1
f 10/10/10 9/9/9 1/1/1
f 1/1/1 9/9/9 2/2/2
f 2/2/2 9/9/9 13/13/13
f 18/18/18 20/20/20 27/27/27
f 20/20/20 26/26/26 27/27/27
f 26/26/26 28/28/28 27/27/27
f 26/26/26 29/29/29 28/28/28
f 26/26/26 1/1/1 29/29/29
f 1/1/1 3/3/3 29/29/29
g Geoset1
s 1
usemtl mat_elwynnshrub09
f 30/30/30 31/31/31 32/32/32
f 33/33/33 34/34/34 35/35/35
f 36/36/36 34/34/34 33/33/33
f 33/33/33 37/37/37 36/36/36
f 38/38/38 39/39/39 40/40/40
f 40/40/40 33/33/33 38/38/38
f 33/33/33 41/41/41 38/38/38
f 33/33/33 42/42/42 41/41/41
f 33/33/33 43/43/43 42/42/42
f 33/33/33 44/44/44 45/45/45
f 45/45/45 35/35/35 33/33/33
f 33/33/33 35/35/35 43/43/43