# Exported using wow.export v0.1.49
o 
mtllib humanaxe02.mtl
v -0.027408599853515625 0.7145439982414246 0.0921235978603363
v -0.028288599103689194 1.039199948310852 0.0918378010392189
v -0.07563360035419464 0.7230309844017029 0.009476389735937119
v 0.07563360035419464 1.0326900482177734 0.009476389735937119
v 0.030066100880503654 0.715857982635498 -0.07286079972982407
v 0.029834400862455368 1.0407999753952026 -0.07248920202255249
v 0.07563360035419464 0.7230309844017029 0.009476389735937119
v -0.07563360035419464 0.7230309844017029 0.009476389735937119
v -0.028288599103689194 1.039199948310852 -0.07288440316915512
v -0.027408599853515625 0.7145439982414246 -0.07317029684782028
v -0.07563360035419464 1.0326900482177734 0.009476389735937119
v 0.07563360035419464 0.7230309844017029 0.009476389735937119
v 0.07563360035419464 1.0326900482177734 0.009476389735937119
v 0.030066100880503654 0.715857982635498 0.09181469678878784
v 0.029834400862455368 1.0407999753952026 0.09144250303506851
v -0.0389568991959095 -0.2501940131187439 0.007891939952969551
v 0 0.2274859994649887 0.04701109975576401
v -0.0389568991959095 0.22742600739002228 0.007891939952969551
v 0 -0.2501940131187439 -0.03122670017182827
v 0 0.22756700217723846 -0.03122670017182827
v 0.0385855995118618 -0.2501940131187439 0.007891939952969551
v 0.0385855995118618 0.22745099663734436 0.007891939952969551
v 0 -0.2501940131187439 0.04701109975576401
v -0.0389568991959095 0.6430780291557312 0.007891939952969551
v 0 0.22756700217723846 -0.03122670017182827
v -0.0389568991959095 0.22742600739002228 0.007891939952969551
v 0 0.6430780291557312 0.04701109975576401
v 0 0.6430780291557312 -0.03122670017182827
v 0.0385855995118618 0.22745099663734436 0.007891939952969551
v 0.0385855995118618 0.6430780291557312 0.007891939952969551
v 0 0.2274859994649887 0.04701109975576401
v -0.07563360035419464 1.0326900482177734 0.009476389735937119
v 0.029834400862455368 1.0407999753952026 -0.07248920202255249
v -0.028288599103689194 1.039199948310852 -0.07288440316915512
v 0.022041700780391693 1.1561299562454224 -0.12264399975538254
v -0.020630599930882454 1.1583900451660156 -0.12217500060796738
v 0 1.3214099407196045 -0.12072499841451645
v 0.07563360035419464 1.0326900482177734 0.009476389735937119
v 0.029834400862455368 1.0407999753952026 0.09144250303506851
v -0.028288599103689194 1.039199948310852 0.0918378010392189
v 0.022041700780391693 1.1561299562454224 0.14159700274467468
v -0.020630300045013428 1.1583900451660156 0.1411290019750595
v 0 1.3214099407196045 0.1396780014038086
v 0.07563360035419464 0.7230309844017029 0.009476389735937119
v -0.027408599853515625 0.7145439982414246 -0.07317029684782028
v 0.030066100880503654 0.715857982635498 -0.07286079972982407
v 0.022363899275660515 0.5954530239105225 -0.12071699649095535
v -0.020605800673365593 0.5964249968528748 -0.12159000337123871
v 0 0.43327200412750244 -0.11382199823856354
v -0.020605800673365593 0.5964249968528748 0.14054299890995026
v -0.027408599853515625 0.7145439982414246 0.0921235978603363
v 0.022363899275660515 0.5954530239105225 0.13967099785804749
v 0 0.43327200412750244 0.13277600705623627
v -0.07563360035419464 0.7230309844017029 0.009476389735937119
v 0.030066100880503654 0.715857982635498 0.09181469678878784
v -0.07563360035419464 1.0326900482177734 0.009476389735937119
v -0.07563360035419464 0.7230309844017029 0.009476389735937119
v 0 0.43327200412750244 -0.11382199823856354
v 0 0.6050530076026917 -0.32803601026535034
v 0.022363899275660515 0.5954530239105225 -0.12071699649095535
v 0.030066100880503654 0.715857982635498 -0.07286079972982407
v 0 0.8910999894142151 -0.4225830137729645
v 0.029834400862455368 1.0407999753952026 -0.07248920202255249
v 0 1.165220022201538 -0.33046698570251465
v 0.022041700780391693 1.1561299562454224 -0.12264399975538254
v 0 1.3214099407196045 -0.12072499841451645
v 0 0.43327200412750244 -0.11382199823856354
v -0.020605800673365593 0.5964249968528748 -0.12159000337123871
v 0 0.6050530076026917 -0.32803601026535034
v -0.027408599853515625 0.7145439982414246 -0.07317029684782028
v 0 0.8910999894142151 -0.4225830137729645
v -0.028288599103689194 1.039199948310852 -0.07288440316915512
v 0 1.165220022201538 -0.33046698570251465
v -0.020630599930882454 1.1583900451660156 -0.12217500060796738
v 0 1.3214099407196045 -0.12072499841451645
v 0.022363899275660515 0.5954530239105225 0.13967099785804749
v 0 0.6050530076026917 0.34699198603630066
v 0 0.43327200412750244 0.13277600705623627
v 0.030066100880503654 0.715857982635498 0.09181469678878784
v 0 0.8910999894142151 0.44153299927711487
v 0.029834400862455368 1.0407999753952026 0.09144250303506851
v 0 1.165220022201538 0.3494170010089874
v 0.022041700780391693 1.1561299562454224 0.14159700274467468
v 0 1.3214099407196045 0.1396780014038086
v 0 0.6050530076026917 0.34699198603630066
v -0.020605800673365593 0.5964249968528748 0.14054299890995026
v 0 0.43327200412750244 0.13277600705623627
v -0.027408599853515625 0.7145439982414246 0.0921235978603363
v 0 0.8910999894142151 0.44153299927711487
v -0.028288599103689194 1.039199948310852 0.0918378010392189
v 0 1.165220022201538 0.3494170010089874
v -0.020630300045013428 1.1583900451660156 0.1411290019750595
v 0 1.3214099407196045 0.1396780014038086
v 0.0385855995118618 -0.2501940131187439 0.007891939952969551
v 0 -0.2501940131187439 0.04701109975576401
v 0.07253529876470566 -0.2797999978065491 0.00807472039014101
v 0 -0.2797999978065491 -0.07289279997348785
v 0 -0.377236008644104 0.008246669545769691
v -0.07293280214071274 -0.2797999978065491 0.00807472039014101
v 0 -0.2797999978065491 0.08581359684467316
v 0 -0.2501940131187439 -0.03122670017182827
v -0.0389568991959095 -0.2501940131187439 0.007891939952969551
v 0 1.0884000062942505 0.06695780158042908
v 0 1.0884000062942505 -0.051176898181438446
v -0.05876170098781586 1.0884000062942505 0.007890000008046627
v 0.058323100209236145 1.0884000062942505 0.007890000008046627
v 0 0.66668301820755 -0.0511757992208004
v -0.05876249819993973 0.66668301820755 0.00789082981646061
v 0 1.0884000062942505 0.06695780158042908
v 0 0.66668301820755 0.06695859879255295
v 0.05832190066576004 0.66668301820755 0.00789082981646061
v 0 1.0884000062942505 -0.051176898181438446
v 0.0385855995118618 0.6430780291557312 0.007891939952969551
v 0 0.6430780291557312 -0.03122670017182827
v -0.0389568991959095 0.6430780291557312 0.007891939952969551
v 0 0.6430780291557312 0.04701109975576401
v -0.07563360035419464 1.0326900482177734 0.009476389735937119
vn -0.863798975944519 -0.0018971300451084971 0.503832995891571
vn -0.8653860092163086 -0.0009485139744356275 0.5011039972305298
vn -0.8653860092163086 -0.0009485139744356275 0.5011039972305298
vn 0.8739849925041199 0.0005905950092710555 -0.4859519898891449
vn 0.8739849925041199 0.0005905950092710555 -0.4859519898891449
vn 0.8730159997940063 0.001181329949758947 -0.48768898844718933
vn 0.8749499917030334 -1.408700001093166e-7 -0.4842129945755005
vn -0.8653860092163086 -0.0009486579801887274 -0.5011039972305298
vn -0.8653860092163086 -0.0009486579801887274 -0.5011039972305298
vn -0.863798975944519 -0.0018972699763253331 -0.503832995891571
vn -0.8669639825820923 -3.752720090233197e-8 -0.4983699917793274
vn 0.8749499917030334 -8.831629649819206e-9 0.4842129945755005
vn 0.8739849925041199 0.0005907210288569331 0.4859519898891449
vn 0.8739849925041199 0.0005907210288569331 0.4859519898891449
vn 0.8730159997940063 0.0011814499739557505 0.48768898844718933
vn -0.8822370171546936 0.4673910140991211 0.056602898985147476
vn 0.0018079000292345881 7.061029805299768e-8 0.9999979734420776
vn -1 8.79156019095717e-8 5.464569881041825e-7
vn -0.2017659991979599 0.4034680128097534 -0.8924710154533386
vn 0.0018078599823638797 -8.995699829483783e-8 -0.9999979734420776
vn 0.8526620268821716 0.45032799243927 -0.2649019956588745
vn 1 -9.826830194015201e-8 6.003500061524392e-7
vn 0.14319999516010284 0.5195260047912598 0.8423699736595154
vn -0.9321069717407227 -0.36142799258232117 -0.02335209958255291
vn 0.0018078599823638797 -8.995699829483783e-8 -0.9999979734420776
vn -1 8.79156019095717e-8 5.464569881041825e-7
vn -0.021991999819874763 -0.3636789917945862 0.9312649965286255
vn 0.025352299213409424 -0.3636989891529083 -0.9311710000038147
vn 1 -9.826830194015201e-8 6.003500061524392e-7
vn 0.9325339794158936 -0.3603360056877136 0.02320929989218712
vn 0.0018079000292345881 7.061029805299768e-8 0.9999979734420776
vn -0.01399760041385889 0.9999020099639893 5.98150009523124e-8
vn -0.017190299928188324 0.9113699793815613 0.4112290143966675
vn -0.005693989805877209 0.6819350123405457 0.7313899993896484
vn 0.00799001008272171 0.26086899638175964 0.9653409719467163
vn 0.02077220007777214 0.18884199857711792 0.9817879796028137
vn 0.010448100045323372 -0.010216400027275085 0.9998930096626282
vn 7.00506006978685e-7 1 5.989589908494963e-7
vn -0.017189299687743187 0.9113699793815613 -0.4112290143966675
vn -0.005693019833415747 0.6819350123405457 -0.7313910126686096
vn 0.007990250363945961 0.26086899638175964 -0.9653409719467163
vn 0.02077220007777214 0.18884199857711792 -0.9817879796028137
vn 0.010448100045323372 -0.010216600261628628 -0.9998930096626282
vn 0.011215999722480774 -0.9999369978904724 -2.992399927848055e-8
vn -0.00046699101221747696 -0.8036620020866394 0.5950859785079956
vn 0.015198499895632267 -0.8058649897575378 0.5919039845466614
vn -0.014699799939990044 -0.23989300429821014 0.970687985420227
vn -0.023877600207924843 -0.17174600064754486 0.9848520159721375
vn -0.019261900335550308 0.04511680081486702 0.9987959861755371
vn -0.0238770991563797 -0.17174600064754486 -0.9848520159721375
vn -0.000466392986709252 -0.8036620020866394 -0.5950859785079956
vn -0.014699299819767475 -0.23989300429821014 -0.970687985420227
vn -0.019261600449681282 0.045116499066352844 -0.9987959861755371
vn -3.502530034893425e-7 -1 -2.3967200490915275e-7
vn 0.015199200250208378 -0.805866003036499 -0.5919029712677002
vn -0.01399760041385889 0.9999020099639893 5.98150009523124e-8
vn -3.502530034893425e-7 -1 -2.3967200490915275e-7
vn 0.9836660027503967 -0.14042900502681732 -0.11261200159788132
vn 0.9920309782028198 -0.0650532990694046 -0.10789600014686584
vn 0.9905880093574524 -0.08065500110387802 -0.11059100180864334
vn 0.9949629902839661 -0.01788179948925972 -0.09863430261611938
vn 0.995419979095459 0.00007046209793770686 -0.09559349715709686
vn 0.995182991027832 0.01860399916768074 -0.09625609964132309
vn 0.9929249882698059 0.06263359636068344 -0.10088499635457993
vn 0.9917939901351929 0.07732269912958145 -0.10180900245904922
vn 0.9862239956855774 0.13266900181770325 -0.09879820048809052
vn -0.9861289858818054 -0.129489004611969 -0.10383900254964828
vn -0.992093026638031 -0.07301860302686691 -0.10207399725914001
vn -0.9933069944381714 -0.059000398963689804 -0.09930340200662613
vn -0.9957050085067749 -0.016640499234199524 -0.0910802036523819
vn -0.9960259795188904 -0.0006885189795866609 -0.08906000107526779
vn -0.9957529902458191 0.017468299716711044 -0.09039650112390518
vn -0.9936259984970093 0.06034750118851662 -0.09521149843931198
vn -0.9925839900970459 0.0747516006231308 -0.09586139768362045
vn -0.9876189827919006 0.12581700086593628 -0.09369490295648575
vn 0.9905880093574524 -0.08065489679574966 0.11059100180864334
vn 0.992031991481781 -0.0650532990694046 0.10789600014686584
vn 0.9836660027503967 -0.14042900502681732 0.11261200159788132
vn 0.9949629902839661 -0.01788179948925972 0.09863410145044327
vn 0.995419979095459 0.00007048410043353215 0.09559330344200134
vn 0.995182991027832 0.01860399916768074 0.09625600278377533
vn 0.9929249882698059 0.06263359636068344 0.10088499635457993
vn 0.9917939901351929 0.07732280343770981 0.10180900245904922
vn 0.9862239956855774 0.13266900181770325 0.09879810363054276
vn -0.9933059811592102 -0.059000398963689804 0.09930360317230225
vn -0.992093026638031 -0.07301860302686691 0.10207399725914001
vn -0.9861289858818054 -0.129489004611969 0.10384000092744827
vn -0.9957039952278137 -0.016640499234199524 0.09108039736747742
vn -0.9960259795188904 -0.0006884930189698935 0.08906020224094391
vn -0.9957529902458191 0.017468299716711044 0.0903967022895813
vn -0.9936259984970093 0.060347601771354675 0.0952116996049881
vn -0.9925839900970459 0.07475169748067856 0.09586159884929657
vn -0.9876189827919006 0.12581700086593628 0.09369509667158127
vn 0.8526620268821716 0.45032799243927 -0.2649019956588745
vn 0.14319999516010284 0.5195260047912598 0.8423699736595154
vn 0.9337319731712341 0.31129300594329834 0.17675499618053436
vn 0.0014365799725055695 0.4769729971885681 -0.8789169788360596
vn 0.001851230044849217 -0.9998559951782227 0.01684490032494068
vn -0.9336230158805847 0.31104299426078796 0.17776699364185333
vn 0.0014970500487834215 0.16818200051784515 0.9857550263404846
vn -0.2017659991979599 0.4034680128097534 -0.8924710154533386
vn -0.8822370171546936 0.4673910140991211 0.056602898985147476
vn -0.23594799637794495 0.6679959893226624 0.7057690024375916
vn 0.23849999904632568 0.6679919958114624 -0.7049139738082886
vn -0.8667889833450317 0.40752801299095154 -0.28739801049232483
vn 0.8678209781646729 0.40654999017715454 0.28566500544548035
vn -0.021995600312948227 -0.3637070059776306 -0.9312540292739868
vn -0.9321039915084839 -0.36143600940704346 0.023363899439573288
vn -0.23594799637794495 0.6679959893226624 0.7057690024375916
vn 0.02534870058298111 -0.3636710047721863 0.9311820268630981
vn 0.9325370192527771 -0.36032798886299133 -0.0231976006180048
vn 0.23849999904632568 0.6679919958114624 -0.7049139738082886
vn 0.9325339794158936 -0.3603360056877136 0.02320929989218712
vn 0.025352299213409424 -0.3636989891529083 -0.9311710000038147
vn -0.9321069717407227 -0.36142799258232117 -0.02335209958255291
vn -0.021991999819874763 -0.3636789917945862 0.9312649965286255
vn -0.8669639825820923 1.1169500169216917e-7 0.4983699917793274
vt 0.6269930005073547 0.6246950030326843
vt 0.7716119885444641 0.6246950030326843
vt 0.6269930005073547 0.6639949977397919
vt 0.7716119885444641 0.6639949977397919
vt 0.6269930005073547 0.6246950030326843
vt 0.7716119885444641 0.6246950030326843
vt 0.6269930005073547 0.6639949977397919
vt 0.6269930005073547 0.6639949977397919
vt 0.7716119885444641 0.6246950030326843
vt 0.6269930005073547 0.6246950030326843
vt 0.7716119885444641 0.6639949977397919
vt 0.6269930005073547 0.6639949977397919
vt 0.7716119885444641 0.6639949977397919
vt 0.6269930005073547 0.6246950030326843
vt 0.7716119885444641 0.6246950030326843
vt 0.4006330072879791 0.6246950030326843
vt 0.5924100279808044 0.6639949977397919
vt 0.5924100279808044 0.6246950030326843
vt 0.4006330072879791 0.5880140066146851
vt 0.5924100279808044 0.5880140066146851
vt 0.4006330072879791 0.6246950030326843
vt 0.5924100279808044 0.6246950030326843
vt 0.4006330072879791 0.6639949977397919
vt 0.5924100279808044 0.5408540070056915
vt 0.4532809853553772 0.5038990080356598
vt 0.4532809853553772 0.5408540070056915
vt 0.5924100279808044 0.5778090059757233
vt 0.5924100279808044 0.5038990080356598
vt 0.4532809853553772 0.5408540070056915
vt 0.5924100279808044 0.5408540070056915
vt 0.4532809853553772 0.5778090059757233
vt 0.796763002872467 0.6639949977397919
vt 0.7716119885444641 0.6246950030326843
vt 0.796763002872467 0.6246950030326843
vt 0.777899980545044 0.5670540034770966
vt 0.796763002872467 0.5670540034770966
vt 0.796763002872467 0.501554012298584
vt 0.7716119885444641 0.6639949977397919
vt 0.7716119885444641 0.6246950030326843
vt 0.796763002872467 0.6246950030326843
vt 0.777899980545044 0.5670540034770966
vt 0.796763002872467 0.5670540034770966
vt 0.796763002872467 0.501554012298584
vt 0.6269930005073547 0.6639949977397919
vt 0.5986980199813843 0.6246950030326843
vt 0.6269930005073547 0.6246950030326843
vt 0.6207050085067749 0.5670540034770966
vt 0.5986980199813843 0.5670540034770966
vt 0.5986980199813843 0.501554012298584
vt 0.5986980199813843 0.5670540034770966
vt 0.5986980199813843 0.6246950030326843
vt 0.6207050085067749 0.5670540034770966
vt 0.5986980199813843 0.501554012298584
vt 0.5986980199813843 0.6639949977397919
vt 0.6269930005073547 0.6246950030326843
vt 0.7716119885444641 0.6639949977397919
vt 0.6269930005073547 0.6639949977397919
vt 0.5986980199813843 0.501554012298584
vt 0.6364250183105469 0.501554012298584
vt 0.6207050085067749 0.5670540034770966
vt 0.6269930005073547 0.6246950030326843
vt 0.7024459838867188 0.501554012298584
vt 0.7716119885444641 0.6246950030326843
vt 0.762179970741272 0.501554012298584
vt 0.777899980545044 0.5670540034770966
vt 0.796763002872467 0.501554012298584
vt 0.5986980199813843 0.501554012298584
vt 0.6207050085067749 0.5670540034770966
vt 0.6364250183105469 0.501554012298584
vt 0.6269930005073547 0.6246950030326843
vt 0.7024459838867188 0.501554012298584
vt 0.7716119885444641 0.6246950030326843
vt 0.762179970741272 0.501554012298584
vt 0.777899980545044 0.5670540034770966
vt 0.796763002872467 0.501554012298584
vt 0.6207050085067749 0.5670540034770966
vt 0.6364250183105469 0.501554012298584
vt 0.5986980199813843 0.501554012298584
vt 0.6269930005073547 0.6246950030326843
vt 0.7024459838867188 0.501554012298584
vt 0.7716119885444641 0.6246950030326843
vt 0.762179970741272 0.501554012298584
vt 0.777899980545044 0.5670540034770966
vt 0.796763002872467 0.501554012298584
vt 0.6364250183105469 0.501554012298584
vt 0.6207050085067749 0.5670540034770966
vt 0.5986980199813843 0.501554012298584
vt 0.6269930005073547 0.6246950030326843
vt 0.7024459838867188 0.501554012298584
vt 0.7716119885444641 0.6246950030326843
vt 0.762179970741272 0.501554012298584
vt 0.777899980545044 0.5670540034770966
vt 0.796763002872467 0.501554012298584
vt 0.49494999647140503 0.5408540070056915
vt 0.49494999647140503 0.5778090059757233
vt 0.44464701414108276 0.5408540070056915
vt 0.44464701414108276 0.501554012298584
vt 0.4006330072879791 0.5408540070056915
vt 0.44464701414108276 0.5408540070056915
vt 0.44464701414108276 0.5801540017127991
vt 0.49494999647140503 0.5038990080356598
vt 0.49494999647140503 0.5408540070056915
vt 0.5609710216522217 0.5778090059757233
vt 0.5609710216522217 0.5038990080356598
vt 0.5924100279808044 0.5408540070056915
vt 0.5924100279808044 0.5408540070056915
vt 0.4532809853553772 0.5038990080356598
vt 0.4532809853553772 0.5408540070056915
vt 0.5924100279808044 0.5778090059757233
vt 0.4532809853553772 0.5778090059757233
vt 0.4532809853553772 0.5408540070056915
vt 0.5924100279808044 0.5038990080356598
vt 0.41949599981307983 0.5408540070056915
vt 0.41949599981307983 0.5067940056324005
vt 0.41949599981307983 0.5408540070056915
vt 0.41949599981307983 0.5749140083789825
vt 0.7716119885444641 0.6639949977397919
g Geoset0
s 1
usemtl mat_waeponpage01
f 1/1/1 2/2/2 3/3/3
f 4/4/4 5/5/5 6/6/6
f 5/5/5 4/4/4 7/7/7
f 8/8/8 9/9/9 10/10/10
f 9/9/9 8/8/8 11/11/11
f 12/12/12 13/13/13 14/14/14
f 15/15/15 14/14/14 13/13/13
f 16/16/16 17/17/17 18/18/18
f 18/18/18 19/19/19 16/16/16
f 19/19/19 18/18/18 20/20/20
f 20/20/20 21/21/21 19/19/19
f 21/21/21 20/20/20 22/22/22
f 22/22/22 23/23/23 21/21/21
f 23/23/23 22/22/22 17/17/17
f 17/17/17 16/16/16 23/23/23
f 24/24/24 25/25/25 26/26/26
f 26/26/26 27/27/27 24/24/24
f 25/25/25 24/24/24 28/28/28
f 28/28/28 29/29/29 25/25/25
f 29/29/29 28/28/28 30/30/30
f 30/30/30 31/31/31 29/29/29
f 31/31/31 30/30/30 27/27/27
f 27/27/27 26/26/26 31/31/31
f 32/32/32 33/33/33 34/34/34
f 35/35/35 34/34/34 33/33/33
f 36/36/36 34/34/34 35/35/35
f 37/37/37 36/36/36 35/35/35
f 33/33/33 32/32/32 38/38/38
f 38/38/38 32/32/32 39/39/39
f 40/40/40 39/39/39 32/32/32
f 39/39/39 40/40/40 41/41/41
f 41/41/41 40/40/40 42/42/42
f 41/41/41 42/42/42 43/43/43
f 44/44/44 45/45/45 46/46/46
f 46/46/46 45/45/45 47/47/47
f 47/47/47 45/45/45 48/48/48
f 47/47/47 48/48/48 49/49/49
f 50/50/50 51/51/51 52/52/52
f 53/53/53 50/50/50 52/52/52
f 45/45/45 44/44/44 54/54/54
f 54/54/54 44/44/44 51/51/51
f 55/55/55 51/51/51 44/44/44
f 52/52/52 51/51/51 55/55/55
f 56/56/56 57/57/57 38/38/38
f 38/38/38 57/57/57 44/44/44
f 38/38/38 57/57/57 56/56/56
f 44/44/44 57/57/57 38/38/38
f 58/58/58 59/59/59 60/60/60
f 60/60/60 59/59/59 61/61/61
f 59/59/59 62/62/62 61/61/61
f 61/61/61 62/62/62 63/63/63
f 63/63/63 62/62/62 64/64/64
f 63/63/63 64/64/64 65/65/65
f 65/65/65 64/64/64 66/66/66
f 67/67/67 68/68/68 69/69/69
f 68/68/68 70/70/70 69/69/69
f 70/70/70 71/71/71 69/69/69
f 70/70/70 72/72/72 71/71/71
f 72/72/72 73/73/73 71/71/71
f 74/74/74 73/73/73 72/72/72
f 75/75/75 73/73/73 74/74/74
f 76/76/76 77/77/77 78/78/78
f 79/79/79 77/77/77 76/76/76
f 79/79/79 80/80/80 77/77/77
f 81/81/81 80/80/80 79/79/79
f 82/82/82 80/80/80 81/81/81
f 83/83/83 82/82/82 81/81/81
f 84/84/84 82/82/82 83/83/83
f 85/85/85 86/86/86 87/87/87
f 85/85/85 88/88/88 86/86/86
f 85/85/85 89/89/89 88/88/88
f 89/89/89 90/90/90 88/88/88
f 89/89/89 91/91/91 90/90/90
f 90/90/90 91/91/91 92/92/92
f 92/92/92 91/91/91 93/93/93
f 94/94/94 95/95/95 96/96/96
f 96/96/96 97/97/97 94/94/94
f 98/98/98 97/97/97 96/96/96
f 99/99/99 97/97/97 98/98/98
f 99/99/99 98/98/98 100/100/100
f 101/101/101 94/94/94 97/97/97
f 97/97/97 102/102/102 101/101/101
f 99/99/99 102/102/102 97/97/97
f 95/95/95 102/102/102 99/99/99
f 99/99/99 100/100/100 95/95/95
f 100/100/100 96/96/96 95/95/95
f 100/100/100 98/98/98 96/96/96
f 103/103/103 104/104/104 105/105/105
f 106/106/106 104/104/104 103/103/103
f 105/105/105 107/107/107 108/108/108
f 108/108/108 109/109/109 105/105/105
f 109/109/109 108/108/108 110/110/110
f 110/110/110 106/106/106 109/109/109
f 106/106/106 110/110/110 111/111/111
f 111/111/111 112/112/112 106/106/106
f 107/107/107 105/105/105 112/112/112
f 112/112/112 111/111/111 107/107/107
f 113/113/113 107/107/107 111/111/111
f 107/107/107 113/113/113 114/114/114
f 114/114/114 108/108/108 107/107/107
f 108/108/108 114/114/114 115/115/115
f 115/115/115 110/110/110 108/108/108
f 110/110/110 115/115/115 116/116/116
f 116/116/116 111/111/111 110/110/110
f 111/111/111 116/116/116 113/113/113
f 117/117/117 3/3/3 2/2/2