# Exported using wow.export v0.1.49
o 
mtllib humanarrow.mtl
v -0.010728900320827961 -0.43368300795555115 0.012724200263619423
v -0.009752499870955944 -0.2945440113544464 0.03191610053181648
v -0.0414343997836113 -0.2945440113544464 0.013290599919855595
v -0.017000600695610046 -0.2938610017299652 0.022513899952173233
v -0.016999199986457825 -0.2938610017299652 0.0036444400902837515
v -0.0030211100820451975 -0.2938610017299652 0.0036444400902837515
v -0.0030213899444788694 0.4261220097541809 0.0036444400902837515
v -0.016999199986457825 0.4261220097541809 0.0036444400902837515
v -0.01700030080974102 0.4261220097541809 0.022513899952173233
v 0.021348299458622932 -0.2945440113544464 0.013202800415456295
v -0.010728900320827961 -0.2684189975261688 0.012724200263619423
v -0.009752499870955944 -0.2945440113544464 0.03191610053181648
v -0.00999556016176939 -0.2945440113544464 -0.007524440065026283
v 0.021348299458622932 -0.2945440113544464 0.013202800415456295
v -0.0414343997836113 -0.2945440113544464 0.013290599919855595
v -0.00999556016176939 -0.2945440113544464 -0.007524440065026283
v -0.009752499870955944 -0.2945440113544464 0.03191610053181648
v -0.0414343997836113 -0.2945440113544464 0.013290599919855595
v -0.010728900320827961 -0.43368300795555115 0.012724200263619423
v 0.021348299458622932 -0.2945440113544464 0.013202800415456295
v -0.009752499870955944 -0.2945440113544464 0.03191610053181648
v -0.010728900320827961 -0.43368300795555115 0.012724200263619423
v -0.00999556016176939 -0.2945440113544464 -0.007524440065026283
v 0.021348299458622932 -0.2945440113544464 0.013202800415456295
v -0.010728900320827961 -0.43368300795555115 0.012724200263619423
v -0.0414343997836113 -0.2945440113544464 0.013290599919855595
v -0.00999556016176939 -0.2945440113544464 -0.007524440065026283
v -0.010136700235307217 0.40686100721359253 0.012011400423943996
v -0.010136700235307217 0.23625600337982178 0.012011400423943996
v 0.020937500521540642 0.43368300795555115 -0.046866901218891144
v 0.018673300743103027 0.2616649866104126 -0.046866901218891144
v -0.010136700235307217 0.40686100721359253 0.012011400423943996
v -0.010136700235307217 0.23625600337982178 0.012011400423943996
v 0.013036900199949741 0.43368300795555115 0.06929890066385269
v 0.013811100274324417 0.2616649866104126 0.06717109680175781
v -0.017000600695610046 -0.2938610017299652 0.022513899952173233
v -0.0030211100820451975 -0.2938610017299652 0.0036444400902837515
v -0.0030213899444788694 0.4261220097541809 0.0036444400902837515
v -0.01700030080974102 0.4261220097541809 0.022513899952173233
v -0.0030211100820451975 -0.2938610017299652 0.0036444400902837515
v -0.016999199986457825 -0.2938610017299652 0.0036444400902837515
v -0.016999199986457825 0.4261220097541809 0.0036444400902837515
v -0.0030213899444788694 0.4261220097541809 0.0036444400902837515
v -0.01700030080974102 0.4261220097541809 0.022513899952173233
v -0.016999199986457825 0.4261220097541809 0.0036444400902837515
v -0.016999199986457825 -0.2938610017299652 0.0036444400902837515
v -0.017000600695610046 -0.2938610017299652 0.022513899952173233
v -0.010136700235307217 0.40686100721359253 0.012011400423943996
v -0.010136700235307217 0.23625600337982178 0.012011400423943996
v -0.07137750089168549 0.43368300795555115 0.0095438901335001
v -0.06955750286579132 0.2616649866104126 0.010890600271522999
vn -0.5034629702568054 -0.11459200084209442 0.8563839793205261
vn -0.5034629702568054 -0.11459200084209442 0.8563839793205261
vn -0.5034629702568054 -0.11459200084209442 0.8563839793205261
vn 1.222479966145329e-7 -1 0
vn 1.222479966145329e-7 -1 0
vn 1.222479966145329e-7 -1 0
vn -1.222479966145329e-7 1 0
vn -1.222479966145329e-7 1 0
vn -1.222479966145329e-7 1 0
vn 0.6313350200653076 0.7753350138664246 0.01649950072169304
vn -0.002917629899457097 0.9996970295906067 0.024434400722384453
vn 0.00038604901055805385 0.5919640064239502 0.8059639930725098
vn -0.003938470035791397 0.6124650239944458 -0.7904880046844482
vn 0.6313350200653076 0.7753350138664246 0.01649950072169304
vn -0.6477199792861938 0.7615860104560852 0.02111170068383217
vn -0.003938470035791397 0.6124650239944458 -0.7904880046844482
vn 0.00038604901055805385 0.5919640064239502 0.8059639930725098
vn -0.6477199792861938 0.7615860104560852 0.02111170068383217
vn 0.511775016784668 -0.1209150031208992 0.8505679965019226
vn 0.511775016784668 -0.1209150031208992 0.8505679965019226
vn 0.511775016784668 -0.1209150031208992 0.8505679965019226
vn 0.5473819971084595 -0.12335199862718582 -0.8277419805526733
vn 0.5473819971084595 -0.12335199862718582 -0.8277419805526733
vn 0.5473819971084595 -0.12335199862718582 -0.8277419805526733
vn -0.5482209920883179 -0.11761700361967087 -0.8280220031738281
vn -0.5482209920883179 -0.11761700361967087 -0.8280220031738281
vn -0.5482209920883179 -0.11761700361967087 -0.8280220031738281
vn 0.8763890266418457 8.934890161071962e-8 0.4816040098667145
vn 0.8848609924316406 -0.005877629853785038 0.46581798791885376
vn 0.8848609924316406 -0.005877629853785038 0.46581798791885376
vn 0.8930190205574036 -0.011753300204873085 0.44986599683761597
vn -0.926522970199585 -1.6815199899156141e-7 0.37623798847198486
vn -0.920943021774292 -0.004552610218524933 0.38967201113700867
vn -0.920943021774292 -0.004552610218524933 0.38967201113700867
vn -0.9151480197906494 -0.009103990159928799 0.40301498770713806
vn 0.8035339713096619 -9.272900314272192e-8 0.5952590107917786
vn 0.8035309910774231 7.827579651120686e-8 0.5952630043029785
vn 0.8035339713096619 -9.272900314272192e-8 0.5952590107917786
vn 0.8035370111465454 -2.6373399464318936e-7 0.5952550172805786
vn -2.3840000196173605e-8 -3.887819843839679e-9 -1
vn -2.3840000196173605e-8 -4.034570011413052e-9 -1
vn -2.3840000196173605e-8 -3.887819843839679e-9 -1
vn 1.1614099904022623e-8 -3.74105990630369e-9 -1
vn -1 1.159329983124735e-7 -0.00006047129863873124
vn -1 -9.504029918616652e-8 -0.000052376901294337586
vn -1 1.159329983124735e-7 -0.00006047129863873124
vn -1 3.2690701345927664e-7 -0.0000685655977576971
vn 0.0736951008439064 6.634279792194775e-9 -0.997281014919281
vn 0.06204599887132645 -0.003642980009317398 -0.9980670213699341
vn 0.06204599887132645 -0.003642980009317398 -0.9980670213699341
vn 0.05038750171661377 -0.007285410072654486 -0.9987030029296875
vt 0.003342040115967393 0.8331110030412674
vt 0.049215398728847504 0.8313080072402954
vt 0.04896530136466026 0.997914609964937
vt 0.19496400654315948 0.7515089958906174
vt 0.195032998919487 0.8303270041942596
vt 0.004395800177007914 0.8295059949159622
vt 0.004395800177007914 0.8295059949159622
vt 0.004326969850808382 0.7536090016365051
vt 0.19496400654315948 0.7515089958906174
vt 0.04896530136466026 0.997914609964937
vt 0.0029584099538624287 1.000183582000318
vt 0.003342040115967393 0.8331110030412674
vt 0.04896530136466026 0.997914609964937
vt 0.003342040115967393 0.8331110030412674
vt 0.04896530136466026 0.997914609964937
vt 0.003342040115967393 0.8331110030412674
vt 0.04896530136466026 0.997914609964937
vt 0.003342040115967393 0.8331110030412674
vt 0.04896530136466026 0.997914609964937
vt 0.00263432995416224 0.9968649700749665
vt 0.003342040115967393 0.8331110030412674
vt 0.003342040115967393 0.8331110030412674
vt 0.049215398728847504 0.8313080072402954
vt 0.04896530136466026 0.997914609964937
vt 0.003342040115967393 0.8331110030412674
vt 0.049215398728847504 0.8313080072402954
vt 0.04896530136466026 0.997914609964937
vt 0.05743329972028732 0.8299210071563721
vt 0.19560199975967407 0.8299700021743774
vt 0.05747560039162636 0.9986532300245017
vt 0.19632600247859955 0.9939473299309611
vt 0.05743329972028732 0.8299210071563721
vt 0.19560199975967407 0.8299700021743774
vt 0.05747560039162636 0.9986532300245017
vt 0.19632600247859955 0.9939473299309611
vt 0.004395800177007914 0.8295059949159622
vt 0.004326969850808382 0.7536090016365051
vt 0.19496400654315948 0.7515089958906174
vt 0.195032998919487 0.8303270041942596
vt 0.004395800177007914 0.8295059949159622
vt 0.004326969850808382 0.7536090016365051
vt 0.19496400654315948 0.7515089958906174
vt 0.195032998919487 0.8303270041942596
vt 0.19496400654315948 0.7515089958906174
vt 0.195032998919487 0.8303270041942596
vt 0.004395800177007914 0.8295059949159622
vt 0.004326969850808382 0.7536090016365051
vt 0.05743329972028732 0.8299210071563721
vt 0.19560199975967407 0.8299700021743774
vt 0.05747560039162636 0.9986532300245017
vt 0.19632600247859955 0.9939473299309611
g Geoset0
s 1
usemtl mat_waeponpage01
f 1/1/1 2/2/2 3/3/3
f 4/4/4 5/5/5 6/6/6
f 7/7/7 8/8/8 9/9/9
f 10/10/10 11/11/11 12/12/12
f 13/13/13 11/11/11 14/14/14
f 15/15/15 11/11/11 16/16/16
f 17/17/17 11/11/11 18/18/18
f 19/19/19 20/20/20 21/21/21
f 22/22/22 23/23/23 24/24/24
f 25/25/25 26/26/26 27/27/27
f 28/28/28 29/29/29 30/30/30
f 31/31/31 30/30/30 29/29/29
f 32/32/32 33/33/33 34/34/34
f 35/35/35 34/34/34 33/33/33
f 36/36/36 37/37/37 38/38/38
f 38/38/38 39/39/39 36/36/36
f 40/40/40 41/41/41 42/42/42
f 42/42/42 43/43/43 40/40/40
f 44/44/44 45/45/45 46/46/46
f 46/46/46 47/47/47 44/44/44
f 48/48/48 49/49/49 50/50/50
f 51/51/51 50/50/50 49/49/49