# Exported using wow.export v0.1.49
o 
mtllib humansword01.mtl
v -0.615869402885437 5.6897054179216866e-8 -0.023866817355155945
v -0.615869402885437 -0.027013517916202545 1.3918340258101125e-8
v -0.673360288143158 -0.07693270593881607 1.4077250476418612e-8
v 0.7509189248085022 2.3890265765658114e-8 2.8270269680774618e-8
v 0.599887490272522 -0.05658375099301338 2.320289738122483e-8
v 0.12785834074020386 4.6479907922503116e-8 -0.01950726844370365
v -0.17218393087387085 7.253610156965351e-9 -0.026009703055024147
v 0.009807937778532505 -0.06754711270332336 1.4238049850234802e-8
v -0.157316654920578 -0.09657123684883118 1.1427421675591631e-8
v 0.04564359784126282 -0.08806422352790833 1.4883160481815594e-8
v 0.599887490272522 -0.05658375099301338 2.320289738122483e-8
v 0.7509189248085022 2.3890265765658114e-8 2.8270269680774618e-8
v 0.12785834074020386 4.822035037932437e-8 0.019507303833961487
v -0.157316654920578 -0.09657123684883118 1.1427421675591631e-8
v 0.009807937778532505 -0.06754711270332336 1.4238049850234802e-8
v -0.17218388617038727 8.940479467867135e-9 0.026009727269411087
v 0.04564359784126282 -0.08806422352790833 1.4883160481815594e-8
v 0.7509189248085022 2.3890265765658114e-8 2.8270269680774618e-8
v 0.599887490272522 0.05658381059765816 2.814959998431732e-8
v 0.12785834074020386 4.822035037932437e-8 0.019507303833961487
v -0.17218388617038727 8.940479467867135e-9 0.026009727269411087
v 0.009807949885725975 0.06754722446203232 2.014320976684303e-8
v -0.1573166400194168 0.09657135605812073 1.9869952794238088e-8
v 0.045643534511327744 0.08806435018777847 2.2581986058867187e-8
v 0.599887490272522 0.05658381059765816 2.814959998431732e-8
v 0.7509189248085022 2.3890265765658114e-8 2.8270269680774618e-8
v 0.12785834074020386 4.6479907922503116e-8 -0.01950726844370365
v -0.1573166400194168 0.09657135605812073 1.9869952794238088e-8
v 0.009807949885725975 0.06754722446203232 2.014320976684303e-8
v -0.17218393087387085 7.253610156965351e-9 -0.026009703055024147
v 0.045643534511327744 0.08806435018777847 2.2581986058867187e-8
v -0.17218393087387085 8.942041773707388e-9 0.026009725406765938
v -0.1573166847229004 0.09657129645347595 1.986994568881073e-8
v -0.1796095073223114 0.1480155736207962 2.3088190914677398e-8
v -0.24323874711990356 1.3239841223366966e-8 0.04550798982381821
v -0.22993911802768707 0.1119164228439331 1.9636182457816176e-8
v -0.22993919253349304 -0.11191635578870773 9.499057540551803e-9
v -0.29997551441192627 -0.11303021013736725 7.223213138729534e-9
v -0.1796095371246338 -0.14801554381847382 1.014826978007477e-8
v -0.15731669962406158 -0.09657127410173416 1.1427419011056372e-8
v -0.2999754846096039 0.11303023248910904 1.7810799946005318e-8
v -0.3333371579647064 0.03755713254213333 1.6820461468114445e-8
v -0.3305725157260895 2.0012244306144567e-8 0.02541174925863743
v -0.3333371579647064 -0.03755708038806915 1.3537115428619018e-8
v -0.15731669962406158 -0.09657127410173416 1.1427419011056372e-8
v -0.1796095371246338 -0.14801554381847382 1.014826978007477e-8
v -0.17218396067619324 1.517659775629454e-8 -0.02600969932973385
v -0.22993919253349304 -0.11191635578870773 9.499057540551803e-9
v -0.24323879182338715 2.0653752486055055e-8 -0.04550796374678612
v -0.1796095073223114 0.1480155736207962 2.3088190914677398e-8
v -0.1573166847229004 0.09657129645347595 1.986994568881073e-8
v -0.22993911802768707 0.1119164228439331 1.9636182457816176e-8
v -0.2999754846096039 0.11303023248910904 1.7810799946005318e-8
v -0.29997551441192627 -0.11303021013736725 7.223213138729534e-9
v -0.3333371579647064 -0.03755708038806915 1.3537115428619018e-8
v -0.3305725157260895 2.514404684461624e-8 -0.025411728769540787
v -0.3333371579647064 0.03755713254213333 1.6820461468114445e-8
v -0.673360288143158 0.07693281769752502 2.080292560435737e-8
v -0.615869402885437 5.481055254108469e-8 0.023866843432188034
v -0.615869402885437 0.0270136296749115 1.62799409508807e-8
v -0.7509188652038574 6.20249593907829e-8 1.346800804213899e-8
v -0.673360288143158 0.0493159294128418 0.022717608138918877
v -0.6446148157119751 5.716734463590001e-8 8.581849009203779e-9
v -0.673360288143158 -0.04931581765413284 0.022717604413628578
v -0.673360288143158 -0.02787412516772747 9.956543145506203e-9
v -0.7235098481178284 5.97794738155244e-8 0.022717595100402832
v -0.7024126052856445 5.980844264286134e-8 1.2526638393239864e-8
v -0.673360288143158 0.02787424437701702 1.2393381432218575e-8
v -0.673360288143158 -0.07693270593881607 1.4077250476418612e-8
v -0.615869402885437 -0.027013517916202545 1.3918340258101125e-8
v -0.4423397481441498 3.1641434361517895e-8 -0.04253362864255905
v -0.3333371579647064 0.03755713254213333 1.6820461468114445e-8
v -0.3305725157260895 2.514404684461624e-8 -0.025411728769540787
v -0.3333371579647064 -0.03755708038806915 1.3537115428619018e-8
v -0.4449547827243805 -0.05608227476477623 1.3434426016090129e-8
v -0.44233977794647217 2.3357021206038553e-8 0.04253365471959114
v -0.615869402885437 3.5920447061243976e-8 0.023866841569542885
v -0.4449547827243805 0.056082356721162796 1.8337297902348837e-8
v -0.615869402885437 0.0270136259496212 1.627993739816702e-8
v -0.6158693432807922 4.036855116851257e-8 -0.023866813629865646
v -0.3305725157260895 2.0012244306144567e-8 0.02541174925863743
v -0.615869402885437 -0.027013549581170082 1.3918336705387446e-8
v -0.6446148157119751 5.716734463590001e-8 8.581849009203779e-9
v -0.673360288143158 -0.04931580275297165 -0.022717580199241638
v -0.673360288143158 -0.02787412516772747 9.956543145506203e-9
v -0.7235098481178284 6.176551181624745e-8 -0.02271757461130619
v -0.7509188652038574 6.20249593907829e-8 1.346800804213899e-8
v -0.673360288143158 0.0493159256875515 -0.02271757461130619
v -0.673360288143158 0.07693281769752502 2.080292560435737e-8
v -0.615869402885437 0.0270136296749115 1.62799409508807e-8
v -0.673360288143158 0.02787424437701702 1.2393381432218575e-8
v -0.7024126052856445 5.980844264286134e-8 1.2526638393239864e-8
vn 0.02380550093948841 -3.613779853139931e-8 -0.999716579914093
vn 0.4984121322631836 -0.57401043176651 -0.6496902108192444
vn -0.019529547542333603 -0.6394855380058289 -0.7685550451278687
vn 0.03118489682674408 -0.08323753625154495 -0.9960416555404663
vn 0.03004433587193489 -0.0924830362200737 -0.9952608942985535
vn 0.0060405065305531025 -0.22889578342437744 -0.973432183265686
vn 0.037904806435108185 -0.26850613951683044 -0.9625319242477417
vn -0.004081455525010824 -0.257302463054657 -0.9663223028182983
vn 0.04402264580130577 -0.25348782539367676 -0.9663363695144653
vn -0.0531410276889801 -0.16841895878314972 -0.9842820167541504
vn 0.030044302344322205 -0.09248311072587967 0.9952608942985535
vn 0.031184863299131393 -0.08323762565851212 0.9960416555404663
vn 0.006040471605956554 -0.22889582812786102 0.973432183265686
vn 0.04402261599898338 -0.25348788499832153 0.9663363099098206
vn -0.004081496968865395 -0.25730252265930176 0.9663223028182983
vn 0.037904780358076096 -0.2685061991214752 0.9625318646430969
vn -0.053141072392463684 -0.1684189736843109 0.9842820167541504
vn 0.03118487074971199 0.08323752880096436 0.9960416555404663
vn 0.030044307932257652 0.0924830287694931 0.9952608942985535
vn 0.006040479987859726 0.22889567911624908 0.9734322428703308
vn 0.03790472820401192 0.26850590109825134 0.9625319838523865
vn -0.004081600345671177 0.2573021650314331 0.9663223624229431
vn 0.0440225712954998 0.25348755717277527 0.9663364291191101
vn -0.05314113199710846 0.168418750166893 0.9842820167541504
vn 0.030044343322515488 0.09248311072587967 -0.9952608942985535
vn 0.031184904277324677 0.08323762565851212 -0.9960416555404663
vn 0.006040510721504688 0.22889581322669983 -0.973432183265686
vn 0.04402259737253189 0.25348764657974243 -0.9663363695144653
vn -0.004081567749381065 0.25730228424072266 -0.9663223624229431
vn 0.03790475055575371 0.2685059905052185 -0.9625319242477417
vn -0.05314108729362488 0.16841888427734375 -0.9842820167541504
vn 0.28345775604248047 -7.858262307536279e-8 0.9589847326278687
vn 0.410216361284256 0.17776286602020264 0.8944959044456482
vn 0.08215747028589249 0.28144100308418274 0.9560549855232239
vn -0.0060964589938521385 -6.312281897180583e-8 0.9999814033508301
vn -0.16814684867858887 0.3883930444717407 0.9060229063034058
vn -0.16814687848091125 -0.3883931338787079 0.906022846698761
vn -0.17052865028381348 -0.3477170169353485 0.9219614267349243
vn 0.0821574255824089 -0.2814411222934723 0.9560549259185791
vn 0.41021621227264404 -0.17776304483413696 0.8944959044456482
vn -0.1705286055803299 0.34771695733070374 0.9219614267349243
vn -0.7503362894058228 0.33167433738708496 0.5718282461166382
vn -0.3900067210197449 2.327730835773728e-13 0.9208120107650757
vn -0.7503368258476257 -0.3316740095615387 0.57182776927948
vn 0.4102160632610321 -0.17776291072368622 -0.8944960236549377
vn 0.08215752989053726 -0.2814410328865051 -0.9560549855232239
vn 0.2834576964378357 1.4188572095008567e-8 -0.9589847326278687
vn -0.16814681887626648 -0.3883931636810303 -0.906022846698761
vn -0.006096499972045422 6.011818953766124e-8 -0.9999814033508301
vn 0.08215752243995667 0.2814411222934723 -0.9560549259185791
vn 0.41021615266799927 0.17776291072368622 -0.894495964050293
vn -0.16814689338207245 0.38839322328567505 -0.9060227870941162
vn -0.17052873969078064 0.3477171063423157 -0.9219613671302795
vn -0.1705286055803299 -0.34771695733070374 -0.9219614267349243
vn -0.7503369450569153 -0.3316740095615387 -0.5718276500701904
vn -0.39000681042671204 1.4632647094003914e-7 -0.9208119511604309
vn -0.7503364682197571 0.33167439699172974 -0.5718280076980591
vn -0.01952952705323696 0.6394855380058289 0.7685550451278687
vn 0.023804794996976852 -3.523163982777078e-8 0.9997166395187378
vn 0.49841180443763733 0.5740099549293518 0.6496908664703369
vn -0.6362077593803406 -7.287893311058724e-8 0.771517813205719
vn -0.03555861860513687 0.2466817945241928 0.9684439301490784
vn -0.6560336947441101 1.4930682246117044e-9 0.7547315955162048
vn -0.03555869683623314 -0.24668177962303162 0.9684439301490784
vn 0.0029061015229672194 0.7293778657913208 0.684104859828949
vn -0.2604907751083374 -1.8108629262769682e-8 0.9654763340950012
vn 0.7327565550804138 -7.441052929380021e-8 0.6804909110069275
vn 0.0029060393571853638 -0.7293779253959656 0.6841048002243042
vn -0.019529571756720543 -0.6394855976104736 0.7685549855232239
vn 0.49841177463531494 -0.5740100741386414 0.6496908068656921
vn -0.10695428401231766 -5.6973917139657715e-8 -0.9942639470100403
vn 0.19847723841667175 0.9801055192947388 1.2978759400539275e-7
vn 0.15142598748207092 2.332157578166516e-9 -0.988468587398529
vn 0.19847704470157623 -0.9801055192947388 3.201736475944017e-8
vn -0.1452043652534485 -0.9894016981124878 -1.2262074733371264e-7
vn -0.10695425420999527 -1.5462960334389209e-7 0.9942639470100403
vn -0.13809913396835327 -1.3058712511337944e-7 0.9904184341430664
vn -0.1452043056488037 0.9894016981124878 4.366897954355409e-9
vn -0.16766968369483948 0.9858432412147522 4.521461676176841e-7
vn -0.13809916377067566 6.249396733437607e-8 -0.9904184341430664
vn 0.15142598748207092 -9.512077525641871e-8 0.988468587398529
vn -0.16766966879367828 -0.9858432412147522 3.0349687563102634e-7
vn -0.6560330986976624 7.671907553685742e-8 -0.7547321319580078
vn -0.03555888310074806 -0.2466815859079361 -0.9684439897537231
vn 0.002906099194660783 0.7293778657913208 -0.684104859828949
vn -0.2604907155036926 4.287889510123932e-8 -0.9654763340950012
vn -0.6362077593803406 2.7151767056921017e-8 -0.771517813205719
vn -0.0355587974190712 0.2466817945241928 -0.9684439301490784
vn -0.019529564306139946 0.6394856572151184 -0.7685549259185791
vn 0.4984121024608612 0.5740103721618652 -0.6496902704238892
vn 0.0029060489032417536 -0.7293778657913208 -0.684104859828949
vn 0.7327565550804138 1.7181234213126118e-8 -0.6804908514022827
vt 0.2502134144306183 0.9139102697372437
vt 0.2968060374259949 0.9139102697372437
vt 0.2968060374259949 0.8950849771499634
vt 0.5949988961219788 0.9999687671661377
vt 0.5949988961219788 0.9192889928817749
vt 0.31544312834739685 0.9999687671661377
vt 0.20362085103988647 0.9999687671661377
vt 0.25953197479248047 0.9192889928817749
vt 0.20362085103988647 0.9192889928817749
vt 0.27506282925605774 0.9192889928817749
vt 0.5949988961219788 0.9192889928817749
vt 0.5949988961219788 0.9999687671661377
vt 0.31544312834739685 0.9999687671661377
vt 0.20362085103988647 0.9192889928817749
vt 0.25953197479248047 0.9192889928817749
vt 0.20362085103988647 0.9999687671661377
vt 0.27506282925605774 0.9192889928817749
vt 0.5949988961219788 0.9999687671661377
vt 0.5949988961219788 0.9192889928817749
vt 0.31544312834739685 0.9999687671661377
vt 0.20362085103988647 0.9999687671661377
vt 0.25953197479248047 0.9192889928817749
vt 0.20362085103988647 0.9192889928817749
vt 0.27506282925605774 0.9192889928817749
vt 0.5949988961219788 0.9192889928817749
vt 0.5949988961219788 0.9999687671661377
vt 0.31544312834739685 0.9999687671661377
vt 0.20362085103988647 0.9192889928817749
vt 0.25953197479248047 0.9192889928817749
vt 0.20362085103988647 0.9999687671661377
vt 0.27506282925605774 0.9192889928817749
vt 0.20041774213314056 0.8708810210227966
vt 0.24710726737976074 0.8708810210227966
vt 0.2836817502975464 0.8655023574829102
vt 0.20041774213314056 0.8547450304031372
vt 0.2502134144306183 0.8547450304031372
vt 0.2502134144306183 0.8547450304031372
vt 0.2502134144306183 0.8386090993881226
vt 0.2836817502975464 0.8655023574829102
vt 0.24710726737976074 0.8708810210227966
vt 0.2502134144306183 0.8386090993881226
vt 0.2387201488018036 0.8332304358482361
vt 0.20041774213314056 0.8332304358482361
vt 0.2387201488018036 0.8332304358482361
vt 0.24710726737976074 0.8708810210227966
vt 0.2836817502975464 0.8655023574829102
vt 0.20041774213314056 0.8708810210227966
vt 0.2502134144306183 0.8547450304031372
vt 0.20041774213314056 0.8547450304031372
vt 0.2836817502975464 0.8655023574829102
vt 0.24710726737976074 0.8708810210227966
vt 0.2502134144306183 0.8547450304031372
vt 0.2502134144306183 0.8386090993881226
vt 0.2502134144306183 0.8386090993881226
vt 0.2387201488018036 0.8332304358482361
vt 0.20041774213314056 0.8332304358482361
vt 0.2387201488018036 0.8332304358482361
vt 0.2968060374259949 0.8950849771499634
vt 0.2502134144306183 0.9139102697372437
vt 0.2968060374259949 0.9139102697372437
vt 0.2968060374259949 0.8762596845626831
vt 0.2502134144306183 0.8950849771499634
vt 0.20362085103988647 0.9139102697372437
vt 0.2502134144306183 0.8950849771499634
vt 0.20362085103988647 0.8950849771499634
vt 0.2502134144306183 0.8762596845626831
vt 0.20362085103988647 0.8762596845626831
vt 0.20362085103988647 0.8950849771499634
vt 0.2968060374259949 0.8950849771499634
vt 0.2968060374259949 0.9139102697372437
vt 0.44900861382484436 0.9112209677696228
vt 0.5949988961219788 0.8762596845626831
vt 0.5949988961219788 0.9112209677696228
vt 0.5949988961219788 0.8762596845626831
vt 0.44900861382484436 0.8762596845626831
vt 0.44900861382484436 0.9112209677696228
vt 0.3030184209346771 0.9112209677696228
vt 0.44900861382484436 0.8762596845626831
vt 0.3030184209346771 0.8762596845626831
vt 0.3030184209346771 0.9112209677696228
vt 0.5949988961219788 0.9112209677696228
vt 0.3030184209346771 0.8762596845626831
vt 0.20362085103988647 0.9139102697372437
vt 0.2502134144306183 0.8950849771499634
vt 0.20362085103988647 0.8950849771499634
vt 0.2502134144306183 0.8762596845626831
vt 0.2968060374259949 0.8762596845626831
vt 0.2502134144306183 0.8950849771499634
vt 0.2968060374259949 0.8950849771499634
vt 0.2968060374259949 0.9139102697372437
vt 0.20362085103988647 0.8950849771499634
vt 0.20362085103988647 0.8762596845626831
g Geoset0
s 1
usemtl mat_waeponpage01
f 1/1/1 2/2/2 3/3/3
f 4/4/4 5/5/5 6/6/6
f 7/7/7 8/8/8 9/9/9
f 6/6/6 8/8/8 7/7/7
f 6/6/6 10/10/10 8/8/8
f 5/5/5 10/10/10 6/6/6
f 11/11/11 12/12/12 13/13/13
f 14/14/14 15/15/15 16/16/16
f 15/15/15 13/13/13 16/16/16
f 17/17/17 13/13/13 15/15/15
f 11/11/11 13/13/13 17/17/17
f 18/18/18 19/19/19 20/20/20
f 21/21/21 22/22/22 23/23/23
f 20/20/20 22/22/22 21/21/21
f 20/20/20 24/24/24 22/22/22
f 19/19/19 24/24/24 20/20/20
f 25/25/25 26/26/26 27/27/27
f 28/28/28 29/29/29 30/30/30
f 29/29/29 27/27/27 30/30/30
f 31/31/31 27/27/27 29/29/29
f 25/25/25 27/27/27 31/31/31
f 32/32/32 33/33/33 34/34/34
f 34/34/34 35/35/35 32/32/32
f 35/35/35 34/34/34 36/36/36
f 37/37/37 35/35/35 38/38/38
f 39/39/39 35/35/35 37/37/37
f 32/32/32 35/35/35 39/39/39
f 32/32/32 39/39/39 40/40/40
f 41/41/41 42/42/42 43/43/43
f 35/35/35 36/36/36 41/41/41
f 41/41/41 43/43/43 35/35/35
f 35/35/35 43/43/43 38/38/38
f 43/43/43 44/44/44 38/38/38
f 45/45/45 46/46/46 47/47/47
f 46/46/46 48/48/48 49/49/49
f 46/46/46 49/49/49 47/47/47
f 50/50/50 47/47/47 49/49/49
f 51/51/51 47/47/47 50/50/50
f 52/52/52 50/50/50 49/49/49
f 52/52/52 49/49/49 53/53/53
f 54/54/54 55/55/55 56/56/56
f 48/48/48 54/54/54 49/49/49
f 54/54/54 56/56/56 49/49/49
f 49/49/49 56/56/56 53/53/53
f 56/56/56 57/57/57 53/53/53
f 58/58/58 59/59/59 60/60/60
f 61/61/61 62/62/62 58/58/58
f 58/58/58 62/62/62 59/59/59
f 62/62/62 63/63/63 59/59/59
f 64/64/64 59/59/59 63/63/63
f 64/64/64 63/63/63 65/65/65
f 64/64/64 65/65/65 66/66/66
f 66/66/66 65/65/65 67/67/67
f 66/66/66 67/67/67 68/68/68
f 62/62/62 68/68/68 63/63/63
f 62/62/62 66/66/66 68/68/68
f 61/61/61 66/66/66 62/62/62
f 61/61/61 64/64/64 66/66/66
f 61/61/61 69/69/69 64/64/64
f 69/69/69 59/59/59 64/64/64
f 69/69/69 70/70/70 59/59/59
f 71/71/71 72/72/72 73/73/73
f 74/74/74 71/71/71 73/73/73
f 74/74/74 75/75/75 71/71/71
f 76/76/76 75/75/75 74/74/74
f 77/77/77 75/75/75 76/76/76
f 78/78/78 77/77/77 76/76/76
f 79/79/79 77/77/77 78/78/78
f 80/80/80 79/79/79 78/78/78
f 76/76/76 74/74/74 81/81/81
f 72/72/72 76/76/76 81/81/81
f 72/72/72 78/78/78 76/76/76
f 71/71/71 78/78/78 72/72/72
f 80/80/80 78/78/78 71/71/71
f 75/75/75 80/80/80 71/71/71
f 82/82/82 80/80/80 75/75/75
f 77/77/77 82/82/82 75/75/75
f 83/83/83 84/84/84 85/85/85
f 85/85/85 84/84/84 86/86/86
f 86/86/86 84/84/84 87/87/87
f 86/86/86 87/87/87 88/88/88
f 87/87/87 89/89/89 88/88/88
f 88/88/88 89/89/89 1/1/1
f 1/1/1 89/89/89 90/90/90
f 87/87/87 84/84/84 3/3/3
f 84/84/84 1/1/1 3/3/3
f 83/83/83 1/1/1 84/84/84
f 83/83/83 88/88/88 1/1/1
f 83/83/83 91/91/91 88/88/88
f 91/91/91 86/86/86 88/88/88
f 92/92/92 86/86/86 91/91/91
f 92/92/92 85/85/85 86/86/86