# Exported using wow.export v0.1.49
o 
mtllib elwynnseaweed01.mtl
v -1.380758285522461 -0.051290545612573624 0.43553903698921204
v -1.3807579278945923 4.565384387969971 0.4355391263961792
v 1.3153575658798218 -0.05129073187708855 -0.751754641532898
v -1.4299029111862183 4.416223049163818 -0.690068244934082
v -1.4299026727676392 -0.05129163712263107 -0.6900686621665955
v 1.365329384803772 4.416223049163818 0.39277905225753784
v 1.365329384803772 -0.05129168927669525 0.3927784264087677
v -1.4213351011276245 -0.05129125341773033 -0.6999248266220093
v 1.3738967180252075 4.416223049163818 0.3829222619533539
v 1.3738970756530762 -0.05129127576947212 0.3829217255115509
v -1.4213358163833618 4.41622257232666 -0.6999249458312988
v -0.06298653036355972 -0.05129145458340645 1.110762119293213
v -0.06298601627349854 4.553882598876953 -1.2834312915802002
v -0.06298653781414032 -0.05129145458340645 -1.2834311723709106
v -0.06298601627349854 4.553882598876953 1.110762119293213
v -0.0499267503619194 4.553882598876953 1.1107620000839233
v -0.04992683231830597 -0.05129226669669151 1.1107620000839233
v -0.0499267503619194 4.553882122039795 -1.2834311723709106
v -0.04992683231830597 -0.051292069256305695 -1.2834311723709106
v -0.3011378049850464 -0.016697144135832787 -1.1061151027679443
v 1.0507490634918213 3.559490203857422 0.8901985883712769
v -0.28315863013267517 -0.019867321476340294 0.8901980519294739
v 1.0327699184417725 3.5626602172851562 -1.1061140298843384
v 1.0199110507965088 3.5649266242980957 -1.1058858633041382
v -0.313996821641922 -0.014429009519517422 -1.1058871746063232
v 1.0378903150558472 3.561756134033203 0.8904259204864502
v -0.2960175573825836 -0.017599010840058327 0.8904258012771606
v 0.2549550533294678 -0.014429007656872272 -1.1058871746063232
v -1.2025400400161743 3.583958148956299 0.8904251456260681
v 0.2369757741689682 -0.017599012702703476 0.8904258012771606
v -1.1845608949661255 3.5871286392211914 -1.1058868169784546
v -1.1974197626113892 3.58486270904541 -1.1061139106750488
v 0.24209608137607574 -0.016697034239768982 -1.1061149835586548
v -1.215399146080017 3.581692695617676 0.8901985287666321
v 0.22411686182022095 -0.019867226481437683 0.8901980519294739
v 1.3247517347335815 -0.05129170045256615 -0.7426828145980835
v -1.3713644742965698 4.565385341644287 0.444611132144928
v -1.3713639974594116 -0.05129136145114899 0.4446103274822235
v 1.3247514963150024 4.565384864807129 -0.7426822781562805
v 1.3153578042984009 4.565384387969971 -0.7517542839050293
vn -0.4030233323574066 3.751313926159128e-8 -0.9151896834373474
vn -0.4030233323574066 7.31612033177953e-8 -0.9151896834373474
vn -0.4030233323574066 5.770331057419753e-8 -0.9151896834373474
vn -0.36123281717300415 -2.9869127615711477e-7 0.9324756860733032
vn -0.36123281717300415 -3.0442953402598505e-7 0.9324756860733032
vn -0.36123281717300415 -3.021523866664211e-7 0.9324756860733032
vn -0.36123281717300415 -3.078906729570008e-7 0.9324756860733032
vn 0.3612322509288788 9.911662601780336e-8 -0.9324758648872375
vn 0.3612322509288788 7.065948182116699e-8 -0.9324758648872375
vn 0.3612321615219116 1.423699842462156e-7 -0.9324759244918823
vn 0.36123234033584595 2.740612004004106e-8 -0.9324758648872375
vn -1 1.1298710234086684e-7 1.7185970424549168e-9
vn -1 1.1299009372578439e-7 1.7243532157706909e-9
vn -1 1.1298475044441147e-7 1.714087205506587e-9
vn -1 1.1299243141138504e-7 1.7288629416967183e-9
vn 1 -9.095726483110411e-8 -2.927293349668132e-14
vn 1 -9.095724351482204e-8 5.482984451529857e-15
vn 1 -9.095726483110411e-8 -1.4004690283972096e-14
vn 1 -9.095723640939468e-8 2.0751231475887345e-14
vn 0.9370080828666687 -0.34919193387031555 -0.008993427269160748
vn 0.9370080828666687 -0.34919193387031555 -0.008993403986096382
vn 0.9370080828666687 -0.34919190406799316 -0.008993447758257389
vn 0.9370080828666687 -0.34919193387031555 -0.00899338349699974
vn -0.9370080232620239 0.3491919934749603 0.008993536233901978
vn -0.9370080232620239 0.3491920232772827 0.008993490599095821
vn -0.9370080232620239 0.3491919934749603 0.00899351667612791
vn -0.9370080232620239 0.3491920530796051 0.008993469178676605
vn 0.9285378456115723 0.3711297810077667 0.008951984345912933
vn 0.9285378456115723 0.3711298108100891 0.008951966650784016
vn 0.9285378456115723 0.3711297810077667 0.008951998315751553
vn 0.9285378456115723 0.3711298108100891 0.008951953612267971
vn -0.9285378456115723 -0.37112975120544434 -0.008951954543590546
vn -0.9285378456115723 -0.37112975120544434 -0.008951980620622635
vn -0.9285378456115723 -0.3711298108100891 -0.008951965719461441
vn -0.9285378456115723 -0.37112975120544434 -0.008951992727816105
vn 0.40302368998527527 -1.4347027388339484e-7 0.9151895642280579
vn 0.40302368998527527 -1.3948567811894463e-7 0.9151895642280579
vn 0.40302368998527527 -1.4867470099488855e-7 0.9151895642280579
vn 0.40302368998527527 -1.342812367965962e-7 0.9151895642280579
vn -0.40302330255508423 9.335137463040155e-8 -0.9151897430419922
vt 0.999499499797821 0.0004994869232177734
vt 0.9995004534721375 0.9995004534721375
vt 0.0004994591581635177 0.0004996657371520996
vt 0.0005004405393265188 0.999500572681427
vt 0.0004994591581635177 0.0004996657371520996
vt 0.9995004534721375 0.9995004534721375
vt 0.999499499797821 0.0004994869232177734
vt 0.0004994591581635177 0.0004996657371520996
vt 0.9995004534721375 0.9995004534721375
vt 0.999499499797821 0.0004994869232177734
vt 0.0005004405393265188 0.999500572681427
vt 0.0004994591581635177 0.0004996657371520996
vt 0.9995004534721375 0.9995004534721375
vt 0.999499499797821 0.0004994869232177734
vt 0.0005004405393265188 0.999500572681427
vt 0.0005004405393265188 0.999500572681427
vt 0.0004994591581635177 0.0004996657371520996
vt 0.9995004534721375 0.9995004534721375
vt 0.999499499797821 0.0004994869232177734
vt 0.0004994591581635177 0.0004996657371520996
vt 0.9995004534721375 0.9995004534721375
vt 0.999499499797821 0.0004994869232177734
vt 0.0005004405393265188 0.999500572681427
vt 0.0005004405393265188 0.999500572681427
vt 0.0004994591581635177 0.0004996657371520996
vt 0.9995004534721375 0.9995004534721375
vt 0.999499499797821 0.0004994869232177734
vt 0.0004994591581635177 0.0004996657371520996
vt 0.9995004534721375 0.9995004534721375
vt 0.999499499797821 0.0004994869232177734
vt 0.0005004405393265188 0.999500572681427
vt 0.0005004405393265188 0.999500572681427
vt 0.0004994591581635177 0.0004996657371520996
vt 0.9995004534721375 0.9995004534721375
vt 0.999499499797821 0.0004994869232177734
vt 0.0004994591581635177 0.0004996657371520996
vt 0.9995004534721375 0.9995004534721375
vt 0.999499499797821 0.0004994869232177734
vt 0.0005004405393265188 0.999500572681427
vt 0.0005004405393265188 0.999500572681427
g Geoset0
s 1
usemtl mat_kelp01
f 1/1/1 2/2/2 3/3/3
f 4/4/4 5/5/5 6/6/6
f 7/7/7 6/6/6 5/5/5
f 8/8/8 9/9/9 10/10/10
f 9/9/9 8/8/8 11/11/11
f 12/12/12 13/13/13 14/14/14
f 13/13/13 12/12/12 15/15/15
f 16/16/16 17/17/17 18/18/18
f 19/19/19 18/18/18 17/17/17
f 20/20/20 21/21/21 22/22/22
f 21/21/21 20/20/20 23/23/23
f 24/24/24 25/25/25 26/26/26
f 27/27/27 26/26/26 25/25/25
f 28/28/28 29/29/29 30/30/30
f 29/29/29 28/28/28 31/31/31
f 32/32/32 33/33/33 34/34/34
f 35/35/35 34/34/34 33/33/33
f 36/36/36 37/37/37 38/38/38
f 37/37/37 36/36/36 39/39/39
f 40/40/40 3/3/3 2/2/2