# Exported using wow.export v0.1.49
o 
mtllib haystack01.mtl
v -0.36765798926353455 0.46423301100730896 0.572085976600647
v 0.3586690127849579 0.46423301100730896 0.572085976600647
v 0.3586690127849579 0.35755598545074463 0.6632000207901001
v -0.36765798926353455 0.35755598545074463 -0.6582170128822327
v -0.36765798926353455 0.46423301100730896 -0.5671060085296631
v 0.3586690127849579 0.46423301100730896 -0.5671060085296631
v 0.3586690127849579 0.35755598545074463 -0.6582170128822327
v -0.36765798926353455 0.35755598545074463 -0.6582170128822327
v 0.3586690127849579 0.35755598545074463 -0.6582170128822327
v 0.3586690127849579 0.46423301100730896 -0.5671060085296631
v -0.36765798926353455 0.46423301100730896 -0.5671060085296631
v -0.36765798926353455 0.6820690035820007 -0.7185750007629395
v -0.36765798926353455 0.6979470252990723 -0.5791860222816467
v 0.3586690127849579 0.6979470252990723 -0.5791860222816467
v 0.3586690127849579 0.6820690035820007 -0.7185750007629395
v -0.36765798926353455 0.6820690035820007 -0.7185750007629395
v 0.3586690127849579 0.6820690035820007 -0.7185750007629395
v 0.3586690127849579 0.6979470252990723 -0.5791860222816467
v -0.36765798926353455 0.6979470252990723 -0.5791860222816467
v 0.3586690127849579 0.6820690035820007 0.7235559821128845
v 0.3586690127849579 0.6979470252990723 0.5841670036315918
v -0.36765798926353455 0.6979470252990723 0.5841670036315918
v -0.36765798926353455 0.6820690035820007 0.7235559821128845
v 0.3586690127849579 0.6820690035820007 0.7235559821128845
v -0.36765798926353455 0.6820690035820007 0.7235559821128845
v -0.36765798926353455 0.6979470252990723 0.5841670036315918
v 0.3586690127849579 0.6979470252990723 0.5841670036315918
v 0.3586690127849579 0.35755598545074463 0.6632000207901001
v 0.3586690127849579 0.46423301100730896 0.572085976600647
v -0.36765798926353455 0.46423301100730896 0.572085976600647
v -0.36765798926353455 0.35755598545074463 0.6632000207901001
v -0.36765798926353455 0.35755598545074463 0.6632000207901001
v 0.3613719940185547 0 0.5917220115661621
v -0.37748900055885315 0 0.5917220115661621
v -0.37748900055885315 0 -0.5867249965667725
v 0.3613719940185547 0.7014579772949219 0.5917220115661621
v -0.37748900055885315 0.7014579772949219 0.5917220115661621
v -0.37748900055885315 0 0.5917220115661621
v 0.3613719940185547 0 0.5917220115661621
v -0.37748900055885315 0.7014579772949219 0.5917220115661621
v -0.37748900055885315 0.7014579772949219 -0.5867249965667725
v -0.37748900055885315 0 -0.5867249965667725
v -0.37748900055885315 0 0.5917220115661621
v -0.37748900055885315 0.7014579772949219 -0.5867249965667725
v 0.3613719940185547 0.7014579772949219 -0.5867249965667725
v 0.3613719940185547 0 -0.5867249965667725
v -0.37748900055885315 0 -0.5867249965667725
v 0.3613719940185547 0.7014579772949219 -0.5867249965667725
v 0.3613719940185547 0.7014579772949219 0.5917220115661621
v 0.3613719940185547 0 0.5917220115661621
v 0.3613719940185547 0 -0.5867249965667725
v -0.37748900055885315 0.7014579772949219 -0.5867249965667725
v -0.37748900055885315 0.7014579772949219 0.5917220115661621
v 0.3613719940185547 0.7014579772949219 0.5917220115661621
v 0.3613719940185547 0.7014579772949219 -0.5867249965667725
v 0.3613719940185547 0 -0.5867249965667725
vn 1.2234799839916377e-7 -0.6494479775428772 -0.7604060173034668
vn 1.2234799839916377e-7 -0.6494479775428772 -0.7604060173034668
vn 1.2234799839916377e-7 -0.6494479775428772 -0.7604060173034668
vn 5.616150033915801e-8 0.6494479775428772 -0.7604060173034668
vn 5.616150033915801e-8 0.6494479775428772 -0.7604060173034668
vn 5.616150033915801e-8 0.6494479775428772 -0.7604060173034668
vn 5.616150033915801e-8 0.6494479775428772 -0.7604060173034668
vn -5.616150033915801e-8 -0.6494479775428772 0.7604060173034668
vn -5.616150033915801e-8 -0.6494479775428772 0.7604060173034668
vn -5.616150033915801e-8 -0.6494479775428772 0.7604060173034668
vn -5.616150033915801e-8 -0.6494479775428772 0.7604060173034668
vn 1.1249500175836147e-7 0.9935719966888428 -0.11320299655199051
vn 1.1249500175836147e-7 0.9935719966888428 -0.11320299655199051
vn 1.1249500175836147e-7 0.9935719966888428 -0.11320299655199051
vn 1.1249500175836147e-7 0.9935719966888428 -0.11320299655199051
vn -1.1249500175836147e-7 -0.9935719966888428 0.11320299655199051
vn -1.1249500175836147e-7 -0.9935719966888428 0.11320299655199051
vn -1.1249500175836147e-7 -0.9935719966888428 0.11320299655199051
vn -1.1249500175836147e-7 -0.9935719966888428 0.11320299655199051
vn -1.2234799839916377e-7 0.9935719966888428 0.11320299655199051
vn -1.2234799839916377e-7 0.9935719966888428 0.11320299655199051
vn -1.2234799839916377e-7 0.9935719966888428 0.11320299655199051
vn -1.2234799839916377e-7 0.9935719966888428 0.11320299655199051
vn 1.2234799839916377e-7 -0.9935719966888428 -0.11320299655199051
vn 1.2234799839916377e-7 -0.9935719966888428 -0.11320299655199051
vn 1.2234799839916377e-7 -0.9935719966888428 -0.11320299655199051
vn 1.2234799839916377e-7 -0.9935719966888428 -0.11320299655199051
vn -1.2234799839916377e-7 0.6494479775428772 0.7604060173034668
vn -1.2234799839916377e-7 0.6494479775428772 0.7604060173034668
vn -1.2234799839916377e-7 0.6494479775428772 0.7604060173034668
vn -1.2234799839916377e-7 0.6494479775428772 0.7604060173034668
vn 1.2234799839916377e-7 -0.6494479775428772 -0.7604060173034668
vn 0.6666669845581055 -0.6666669845581055 0.33333298563957214
vn -0.40824800729751587 -0.40824800729751587 0.8164970278739929
vn -0.6666669845581055 -0.6666669845581055 -0.33333298563957214
vn 0.33333298563957214 0.6666669845581055 0.6666669845581055
vn -0.8164970278739929 0.40824800729751587 0.40824800729751587
vn -0.40824800729751587 -0.40824800729751587 0.8164970278739929
vn 0.6666669845581055 -0.6666669845581055 0.33333298563957214
vn -0.8164970278739929 0.40824800729751587 0.40824800729751587
vn -0.33333298563957214 0.6666669845581055 -0.6666669845581055
vn -0.6666669845581055 -0.6666669845581055 -0.33333298563957214
vn -0.40824800729751587 -0.40824800729751587 0.8164970278739929
vn -0.33333298563957214 0.6666669845581055 -0.6666669845581055
vn 0.8164970278739929 0.40824800729751587 -0.40824800729751587
vn 0.40824800729751587 -0.40824800729751587 -0.8164970278739929
vn -0.6666669845581055 -0.6666669845581055 -0.33333298563957214
vn 0.8164970278739929 0.40824800729751587 -0.40824800729751587
vn 0.33333298563957214 0.6666669845581055 0.6666669845581055
vn 0.6666669845581055 -0.6666669845581055 0.33333298563957214
vn 0.40824800729751587 -0.40824800729751587 -0.8164970278739929
vn -0.33333298563957214 0.6666669845581055 -0.6666669845581055
vn -0.8164970278739929 0.40824800729751587 0.40824800729751587
vn 0.33333298563957214 0.6666669845581055 0.6666669845581055
vn 0.8164970278739929 0.40824800729751587 -0.40824800729751587
vn 0.40824800729751587 -0.40824800729751587 -0.8164970278739929
vt 0.0004996359930373728 0.9995004530064762
vt 0.9994999766349792 0.9994992020074278
vt 0.9994999766349792 0.0004990100860595703
vt 0.9994999766349792 0.0004990100860595703
vt 0.9994999766349792 0.9994992020074278
vt 0.0004996359930373728 0.9995004530064762
vt 0.0004995330236852169 0.0005009770393371582
vt 0.9994999766349792 0.0004990100860595703
vt 0.0004995330236852169 0.0005009770393371582
vt 0.0004996359930373728 0.9995004530064762
vt 0.9994999766349792 0.9994992020074278
vt 0.9994999766349792 0.0004990100860595703
vt 0.9994999766349792 0.9994992020074278
vt 0.0004996359930373728 0.9995004530064762
vt 0.0004995330236852169 0.0005009770393371582
vt 0.9994999766349792 0.0004990100860595703
vt 0.0004995330236852169 0.0005009770393371582
vt 0.0004996359930373728 0.9995004530064762
vt 0.9994999766349792 0.9994992020074278
vt 0.9994999766349792 0.0004990100860595703
vt 0.9994999766349792 0.9994992020074278
vt 0.0004996359930373728 0.9995004530064762
vt 0.0004995330236852169 0.0005009770393371582
vt 0.9994999766349792 0.0004990100860595703
vt 0.0004995330236852169 0.0005009770393371582
vt 0.0004996359930373728 0.9995004530064762
vt 0.9994999766349792 0.9994992020074278
vt 0.9994999766349792 0.0004990100860595703
vt 0.9994999766349792 0.9994992020074278
vt 0.0004996359930373728 0.9995004530064762
vt 0.0004995330236852169 0.0005009770393371582
vt 0.0004995330236852169 0.0005009770393371582
vt 0.9994999766349792 1.9995009899139404
vt 0.0004994869814254344 1.9994999766349792
vt 0.000499874004162848 0.000500023365020752
vt 1 1
vt 0 1
vt 0 0
vt 1 0
vt 0.0004994570044800639 1.9994999766349792
vt 0.0004995469935238361 0.0004990100860595703
vt 0.9995009899139404 0.000500023365020752
vt 0.9994999766349792 1.9994999766349792
vt 1 1
vt 0 1
vt 0 0
vt 1 0
vt 0.9994999766349792 0.000500023365020752
vt 0.9995009899139404 1.9995009899139404
vt 0.0004995469935238361 1.9995009899139404
vt 0.0004994869814254344 0.000500023365020752
vt 0.9994999766349792 0.0004990100860595703
vt 0.9995009899139404 1.9994999766349792
vt 0.000499874004162848 1.9995009899139404
vt 0.0004994869814254344 0.000500023365020752
vt 0.9995009899139404 0.000500023365020752
g Geoset0
s 1
usemtl mat_alphahay
f 1/1/1 2/2/2 3/3/3
f 4/4/4 5/5/5 6/6/6
f 6/6/6 7/7/7 4/4/4
f 8/8/8 9/9/9 10/10/10
f 10/10/10 11/11/11 8/8/8
f 12/12/12 13/13/13 14/14/14
f 14/14/14 15/15/15 12/12/12
f 16/16/16 17/17/17 18/18/18
f 18/18/18 19/19/19 16/16/16
f 20/20/20 21/21/21 22/22/22
f 22/22/22 23/23/23 20/20/20
f 24/24/24 25/25/25 26/26/26
f 26/26/26 27/27/27 24/24/24
f 28/28/28 29/29/29 30/30/30
f 30/30/30 31/31/31 28/28/28
f 3/3/3 32/32/32 1/1/1
g Geoset1
s 1
usemtl mat_hay01
f 33/33/33 34/34/34 35/35/35
f 36/36/36 37/37/37 38/38/38
f 38/38/38 39/39/39 36/36/36
f 40/40/40 41/41/41 42/42/42
f 42/42/42 43/43/43 40/40/40
f 44/44/44 45/45/45 46/46/46
f 46/46/46 47/47/47 44/44/44
f 48/48/48 49/49/49 50/50/50
f 50/50/50 51/51/51 48/48/48
f 52/52/52 53/53/53 54/54/54
f 54/54/54 55/55/55 52/52/52
f 35/35/35 56/56/56 33/33/33