# Exported using wow.export v0.1.49
o 
mtllib elwynnrock1.mtl
v 0.2113477736711502 0 0.20902569591999054
v 0.1841335892677307 0 -0.21423864364624023
v 0.1746094971895218 0.12316711992025375 -0.056534264236688614
v -0.03712460398674011 0 -0.13778628408908844
v 0.09429894387722015 0.14776907861232758 0.0964287668466568
v -0.20972810685634613 0 0.20902569591999054
vn 0.684135377407074 0.6092563271522522 0.40095576643943787
vn 0.5617748498916626 0.6681212782859802 -0.48787596821784973
vn 0.3783136010169983 0.8842219114303589 -0.2739168107509613
vn -0.3675668239593506 0.8370078802108765 -0.40535470843315125
vn -0.06688138842582703 0.9868459105491638 0.14718034863471985
vn -0.30666807293891907 0.8893552422523499 0.33911943435668945
vt 0.008393734693527222 0.012576818466186523
vt 0.9896327257156372 0.01192474365234375
vt 0.6253084540367126 0.20601820945739746
vt 0.9710192084312439 0.9788879752159119
vt 0.382693886756897 0.4158785343170166
vt 0.014314636588096619 0.9850077033042908
g Geoset0
s 1
usemtl mat_elwynnrock1skin
f 1/1/1 2/2/2 3/3/3
f 3/3/3 4/4/4 5/5/5
f 2/2/2 4/4/4 3/3/3
f 4/4/4 6/6/6 5/5/5
f 6/6/6 1/1/1 5/5/5
f 1/1/1 3/3/3 5/5/5