# Exported using wow.export v0.1.49
o 
mtllib elwynnwoodfence01.mtl
v -0.01998392678797245 1.1443589925765991 0.001197714009322226
v -0.01998392678797245 1.4774259328842163 0.08871195465326309
v -1.094971776008606 1.5278745889663696 0.1833915412425995
v 0.0003941023023799062 1.9017482995986938 0.002114806091412902
v 0.14094561338424683 1.6736464500427246 0.14164166152477264
v 0.14094561338424683 1.6736464500427246 -0.13080881536006927
v 0.14094562828540802 -0.5586665272712708 0.14164164662361145
v 0.14094562828540802 -0.5586665272712708 -0.13080887496471405
v -0.13350573182106018 1.6736464500427246 -0.13080887496471405
v -0.13350573182106018 1.6736464500427246 0.14164167642593384
v -0.133505716919899 -0.5586665272712708 -0.13080887496471405
v -0.13383716344833374 -0.5586665272712708 0.14075222611427307
v 0.0003941023023799062 1.9017482995986938 0.002114806091412902
v 0.14094561338424683 1.6736464500427246 -0.13080881536006927
v -0.13350573182106018 1.6736464500427246 -0.13080887496471405
v 0.14094562828540802 -0.5586665272712708 -0.13080887496471405
v -0.133505716919899 -0.5586665272712708 -0.13080887496471405
v -0.13350573182106018 1.6736464500427246 0.14164167642593384
v 0.14094561338424683 1.6736464500427246 0.14164166152477264
v -0.133505716919899 -0.5586665272712708 0.14164167642593384
v 0.14094562828540802 -0.5586665272712708 0.14164164662361145
v -3.079613208770752 0.6239133477210999 -0.055572204291820526
v -4.150013446807861 0.5960124135017395 -0.08631631731987
v -4.150013446807861 0.5960124135017395 0.08871214836835861
v -3.075025796890259 0.646461009979248 0.18339164555072784
v -0.9741686582565308 0.5402252674102783 -0.018316535279154778
v -0.9886415600776672 0.4943233132362366 0.1474761962890625
v -0.013678020797669888 0.6009131669998169 -0.09624668955802917
v -0.012403064407408237 0.5644144415855408 0.1133008673787117
v -3.195828676223755 1.421639084815979 -0.018316421657800674
v -4.156319618225098 1.4823272228240967 -0.09624647349119186
v -4.157594680786133 1.4458285570144653 0.11330107599496841
v -3.1813557147979736 1.3757373094558716 0.14747631549835205
v -1.0903844833374023 1.5053268671035767 -0.05557231232523918
v -1.094971776008606 1.5278745889663696 0.1833915412425995
v -0.01998392678797245 1.4774259328842163 -0.0863165333867073
v -0.01998392678797245 1.4774259328842163 0.08871195465326309
v -3.1487040519714355 0.28431904315948486 0.09838660061359406
v -4.150013446807861 0.2629454433917999 0.0011979060946032405
v -4.150013446807861 0.5960124135017395 -0.08631631731987
v -4.150013446807861 0.5960124135017395 0.08871214836835861
v -3.075025796890259 0.646461009979248 0.18339164555072784
v -3.079613208770752 0.6239133477210999 -0.055572204291820526
v -1.1011278629302979 0.13756217062473297 0.01569448597729206
v -0.9886415600776672 0.4943233132362366 0.1474761962890625
v -0.9741686582565308 0.5402252674102783 -0.018316535279154778
v -0.013678020797669888 0.6009131669998169 -0.09624668955802917
v -0.018996769562363625 0.2637670040130615 -0.01854555867612362
v -0.012403064407408237 0.5644144415855408 0.1133008673787117
v -4.156319618225098 1.4823272228240967 -0.09624647349119186
v -3.195828676223755 1.421639084815979 -0.018316421657800674
v -3.0688695907592773 1.0189759731292725 0.01569460518658161
v -4.151000499725342 1.1451810598373413 -0.01854533888399601
v -4.157594680786133 1.4458285570144653 0.11330107599496841
v -1.0903844833374023 1.5053268671035767 -0.05557231232523918
v -1.02129328250885 1.1657326221466064 0.0983864963054657
v -3.1813557147979736 1.3757373094558716 0.14747631549835205
v -0.01998392678797245 1.4774259328842163 -0.0863165333867073
vn 0.05002374202013016 -0.9980854988098145 -0.036372989416122437
vn 0.09777922928333282 0.6148208379745483 0.7825819849967957
vn 0.011204784736037254 0.6610314249992371 0.7502745389938354
vn -0.009929494932293892 0.9999015927314758 -0.009908891282975674
vn 0.67318195104599 0.3068569302558899 0.6728036999702454
vn 0.6754105091094971 0.3025335371494293 -0.6725281476974487
vn 0.7071067094802856 2.137493737564e-9 0.7071068286895752
vn 0.7071067690849304 1.0729899635464335e-8 -0.7071067690849304
vn -0.6751660108566284 0.29801279306411743 -0.674788236618042
vn -0.672875165939331 0.3025228679180145 0.6750695705413818
vn -0.7067084908485413 0.00009712687460705638 -0.7075048685073853
vn -0.9999992251396179 0.00014895286585669965 -0.0012205131351947784
vn -0.009929494932293892 0.9999015927314758 -0.009908891282975674
vn 0.6754105091094971 0.3025335371494293 -0.6725281476974487
vn -0.6751660108566284 0.29801279306411743 -0.674788236618042
vn 0.7071067690849304 1.0729899635464335e-8 -0.7071067690849304
vn -0.7067084908485413 0.00009712687460705638 -0.7075048685073853
vn -0.672875165939331 0.3025228679180145 0.6750695705413818
vn 0.67318195104599 0.3068569302558899 0.6728036999702454
vn 9.648897503211629e-8 -9.907213716076058e-9 1
vn 0.7071067094802856 2.137493737564e-9 0.7071068286895752
vn -0.01171610876917839 0.5281174182891846 -0.8490905165672302
vn 0.051169417798519135 0.57945716381073 -0.8133947849273682
vn -0.09236516803503036 0.6244422197341919 0.7755904793739319
vn -0.015804389491677284 0.6567422151565552 0.7539495229721069
vn 0.00005963765215710737 0.762696385383606 -0.6467567086219788
vn 0.043058112263679504 0.4216024577617645 0.9057579040527344
vn -0.11478177458047867 0.6914660334587097 -0.7132319808006287
vn -0.006698078941553831 0.5120823383331299 0.8589102625846863
vn 0.06753169000148773 0.7682777643203735 -0.636544406414032
vn 0.061116334050893784 0.7030569314956665 -0.708502471446991
vn -0.014506256207823753 0.5117597579956055 0.8590061068534851
vn -0.023705022409558296 0.4311467111110687 0.901970386505127
vn -0.05008813366293907 0.5234327912330627 -0.8505935072898865
vn 0.011204784736037254 0.6610314249992371 0.7502745389938354
vn 0.006520777940750122 0.5900160670280457 -0.8073651790618896
vn 0.09777922928333282 0.6148208379745483 0.7825819849967957
vn -0.05877070873975754 -0.9895630478858948 0.13157115876674652
vn 0.02695409767329693 -0.997938871383667 -0.058236025273799896
vn 0.051169417798519135 0.57945716381073 -0.8133947849273682
vn -0.09236516803503036 0.6244422197341919 0.7755904793739319
vn -0.015804389491677284 0.6567422151565552 0.7539495229721069
vn -0.01171610876917839 0.5281174182891846 -0.8490905165672302
vn 0.04489341378211975 -0.9916421175003052 -0.12095671892166138
vn 0.043058112263679504 0.4216024577617645 0.9057579040527344
vn 0.00005963765215710737 0.762696385383606 -0.6467567086219788
vn -0.11478177458047867 0.6914660334587097 -0.7132319808006287
vn 0.012684612534940243 -0.9914727807044983 -0.1296951025724411
vn -0.006698078941553831 0.5120823383331299 0.8589102625846863
vn 0.061116334050893784 0.7030569314956665 -0.708502471446991
vn 0.06753169000148773 0.7682777643203735 -0.636544406414032
vn 0.03964577242732048 -0.990074872970581 -0.13483306765556335
vn -0.11139277368783951 -0.9868660569190979 -0.1169915720820427
vn -0.014506256207823753 0.5117597579956055 0.8590061068534851
vn -0.05008813366293907 0.5234327912330627 -0.8505935072898865
vn 0.0011232183314859867 -0.9905341863632202 0.13726167380809784
vn -0.023705022409558296 0.4311467111110687 0.901970386505127
vn 0.006520777940750122 0.5900160670280457 -0.8073651790618896
vt 0.5161290168762207 0.8188976645469666
vt 0.9677419066429138 0.8188976645469666
vt 0.9677419066429138 0.5590550899505615
vt 0.7096773982048035 0.9921259880065918
vt 0.4838709533214569 0.8818897604942322
vt 0.9677419066429138 0.8818897604942322
vt 0.4838709533214569 0.007874011993408203
vt 0.9677419066429138 0.007874011993408203
vt 0.4838709533214569 0.8818897604942322
vt 0.9677419066429138 0.8818897604942322
vt 0.4838709533214569 0.007874011993408203
vt 0.9677419066429138 0.007874011993408203
vt 0.25806450843811035 0.9921259880065918
vt 0.032258063554763794 0.8818897604942322
vt 0.5161290168762207 0.8818897604942322
vt 0.032258063554763794 0.007874011993408203
vt 0.5161290168762207 0.007874011993408203
vt 0.032258063554763794 0.8818897604942322
vt 0.5161290168762207 0.8818897604942322
vt 0.032258063554763794 0.007874011993408203
vt 0.5161290168762207 0.007874011993408203
vt 0.9354838728904724 0.24409449100494385
vt 0.9354838728904724 0.015748023986816406
vt 0.6451612710952759 0.015748023986816406
vt 0.6451612710952759 0.24409449100494385
vt 0.9354838728904724 0.5590550899505615
vt 0.6451612710952759 0.5590550899505615
vt 0.9354838728904724 0.8188976645469666
vt 0.6451612710952759 0.8188976645469666
vt 0.32258063554763794 0.24409449100494385
vt 0.32258063554763794 0.015748023986816406
vt 0.032258063554763794 0.015748023986816406
vt 0.032258063554763794 0.24409449100494385
vt 0.32258063554763794 0.5590550899505615
vt 0.032258063554763794 0.5590550899505615
vt 0.32258063554763794 0.8188976645469666
vt 0.032258063554763794 0.8188976645469666
vt 0.0317460335791111 0.5921568870544434
vt 0.0317460335791111 0.8196078538894653
vt 0.5714285969734192 0.8196078538894653
vt 0.5714285969734192 0.8196078538894653
vt 0.5714285969734192 0.5921568870544434
vt 0.5714285969734192 0.5921568870544434
vt 0.0317460335791111 0.2745097875595093
vt 0.5714285969734192 0.2745097875595093
vt 0.5714285969734192 0.2745097875595093
vt 0.5714285969734192 0.0156862735748291
vt 0.0317460335791111 0.0156862735748291
vt 0.5714285969734192 0.0156862735748291
vt 0.9677419066429138 0.015748023986816406
vt 0.9677419066429138 0.24409449100494385
vt 0.5161290168762207 0.24409449100494385
vt 0.5161290168762207 0.015748023986816406
vt 0.9677419066429138 0.015748023986816406
vt 0.9677419066429138 0.5590550899505615
vt 0.5161290168762207 0.5590550899505615
vt 0.9677419066429138 0.24409449100494385
vt 0.9677419066429138 0.8188976645469666
g Geoset0
s 1
usemtl mat_elwynnfence
f 1/1/1 2/2/2 3/3/3
f 4/4/4 5/5/5 6/6/6
f 6/6/6 5/5/5 7/7/7
f 7/7/7 8/8/8 6/6/6
f 4/4/4 9/9/9 10/10/10
f 10/10/10 9/9/9 11/11/11
f 11/11/11 12/12/12 10/10/10
f 13/13/13 14/14/14 15/15/15
f 15/15/15 14/14/14 16/16/16
f 16/16/16 17/17/17 15/15/15
f 13/13/13 18/18/18 19/19/19
f 19/19/19 18/18/18 20/20/20
f 20/20/20 21/21/21 19/19/19
f 22/22/22 23/23/23 24/24/24
f 24/24/24 25/25/25 22/22/22
f 26/26/26 22/22/22 25/25/25
f 25/25/25 27/27/27 26/26/26
f 28/28/28 26/26/26 27/27/27
f 27/27/27 29/29/29 28/28/28
f 30/30/30 31/31/31 32/32/32
f 32/32/32 33/33/33 30/30/30
f 34/34/34 30/30/30 33/33/33
f 33/33/33 35/35/35 34/34/34
f 36/36/36 34/34/34 35/35/35
f 35/35/35 37/37/37 36/36/36
f 38/38/38 39/39/39 40/40/40
f 41/41/41 39/39/39 38/38/38
f 38/38/38 42/42/42 41/41/41
f 40/40/40 43/43/43 38/38/38
f 44/44/44 38/38/38 43/43/43
f 42/42/42 38/38/38 44/44/44
f 44/44/44 45/45/45 42/42/42
f 46/46/46 47/47/47 48/48/48
f 43/43/43 46/46/46 44/44/44
f 48/48/48 44/44/44 46/46/46
f 45/45/45 44/44/44 48/48/48
f 48/48/48 49/49/49 45/45/45
f 50/50/50 51/51/51 52/52/52
f 52/52/52 53/53/53 50/50/50
f 54/54/54 53/53/53 52/52/52
f 51/51/51 55/55/55 56/56/56
f 56/56/56 52/52/52 51/51/51
f 57/57/57 52/52/52 56/56/56
f 52/52/52 57/57/57 54/54/54
f 55/55/55 58/58/58 1/1/1
f 1/1/1 56/56/56 55/55/55
f 3/3/3 56/56/56 1/1/1
f 56/56/56 3/3/3 57/57/57