# Exported using wow.export v0.1.49
o 
mtllib elwynnwoodpost01.mtl
v 0.14094562828540802 -0.5586665272712708 -0.13080887496471405
v -0.133505716919899 -0.5586665272712708 -0.13080887496471405
v -0.13350573182106018 1.6736464500427246 -0.13080887496471405
v 0.0003941023023799062 1.9017482995986938 0.002114806091412902
v 0.14094561338424683 1.6736464500427246 0.14164166152477264
v 0.14094561338424683 1.6736464500427246 -0.13080881536006927
v 0.14094562828540802 -0.5586665272712708 0.14164164662361145
v 0.14094562828540802 -0.5586665272712708 -0.13080887496471405
v -0.13350573182106018 1.6736464500427246 -0.13080887496471405
v -0.13350573182106018 1.6736464500427246 0.14164167642593384
v -0.133505716919899 -0.5586665272712708 -0.13080887496471405
v -0.13383716344833374 -0.5586665272712708 0.14075222611427307
v 0.0003941023023799062 1.9017482995986938 0.002114806091412902
v -0.13350573182106018 1.6736464500427246 0.14164167642593384
v 0.14094561338424683 1.6736464500427246 0.14164166152477264
v -0.133505716919899 -0.5586665272712708 0.14164167642593384
v 0.14094562828540802 -0.5586665272712708 0.14164164662361145
v 0.14094561338424683 1.6736464500427246 -0.13080881536006927
vn 0.44721370935440063 1.6091997068201636e-8 -0.8944271206855774
vn -0.8942087292671204 0.00006659462815150619 -0.4476502537727356
vn -0.5227941870689392 0.2834414541721344 -0.8039572238922119
vn -0.005367315839976072 0.9999714493751526 -0.005320199299603701
vn 0.5202732682228088 0.29406070709228516 0.8017755746841431
vn 0.8013198971748352 0.28892093896865845 -0.5238426327705383
vn 0.8944271802902222 7.137085589192793e-9 0.44721361994743347
vn 0.44721370935440063 1.6091997068201636e-8 -0.8944271206855774
vn -0.5227941870689392 0.2834414541721344 -0.8039572238922119
vn -0.8038462400436401 0.28874847292900085 0.5200533866882324
vn -0.8942087292671204 0.00006659462815150619 -0.4476502537727356
vn -0.9999992251396179 0.00014895288040861487 -0.0012205131351947784
vn -0.005367315839976072 0.9999714493751526 -0.005320199299603701
vn -0.8038462400436401 0.28874847292900085 0.5200533866882324
vn 0.5202732682228088 0.29406070709228516 0.8017755746841431
vn 5.195560248694164e-8 -5.135231795350137e-9 1
vn 0.8944271802902222 7.137085589192793e-9 0.44721361994743347
vn 0.8013198971748352 0.28892093896865845 -0.5238426327705383
vt 0.032258063554763794 0.007874011993408203
vt 0.5161290168762207 0.007874011993408203
vt 0.5161290168762207 0.8818897604942322
vt 0.7096773982048035 0.9921259880065918
vt 0.4838709533214569 0.8818897604942322
vt 0.9677419066429138 0.8818897604942322
vt 0.4838709533214569 0.007874011993408203
vt 0.9677419066429138 0.007874011993408203
vt 0.4838709533214569 0.8818897604942322
vt 0.9677419066429138 0.8818897604942322
vt 0.4838709533214569 0.007874011993408203
vt 0.9677419066429138 0.007874011993408203
vt 0.25806450843811035 0.9921259880065918
vt 0.032258063554763794 0.8818897604942322
vt 0.5161290168762207 0.8818897604942322
vt 0.032258063554763794 0.007874011993408203
vt 0.5161290168762207 0.007874011993408203
vt 0.032258063554763794 0.8818897604942322
g Geoset0
s 1
usemtl mat_elwynnfence
f 1/1/1 2/2/2 3/3/3
f 4/4/4 5/5/5 6/6/6
f 6/6/6 5/5/5 7/7/7
f 7/7/7 8/8/8 6/6/6
f 4/4/4 9/9/9 10/10/10
f 10/10/10 9/9/9 11/11/11
f 11/11/11 12/12/12 10/10/10
f 13/13/13 14/14/14 15/15/15
f 15/15/15 14/14/14 16/16/16
f 16/16/16 17/17/17 15/15/15
f 13/13/13 18/18/18 3/3/3
f 3/3/3 18/18/18 1/1/1