# Exported using wow.export v0.1.49
o 
mtllib fireflies01.mtl
v 0.027775654569268227 1.420632243156433 -0.9925816655158997
v 0.027775654569268227 1.420632243156433 -1.0639585256576538
v 0.027775654569268227 1.4920090436935425 -1.0639585256576538
v 0.027775654569268227 1.4920090436935425 -0.9925816655158997
v -0.3268430531024933 1.8245669603347778 -0.3191259801387787
v -0.3268430829048157 1.9219354391098022 -0.3191259503364563
v -0.3268430829048157 1.9219354391098022 -0.41649433970451355
v -0.3268430531024933 1.8245669603347778 -0.41649433970451355
vn 1 0 0
vn 1 0 0
vn 1 0 0
vn 1 0 0
vn -1 -1.192093321833454e-7 0
vn -1 -1.192093321833454e-7 0
vn -1 -1.192093321833454e-7 0
vn -1 -1.192093321833454e-7 0
vt 0.0004995167255401611 0.000499725341796875
vt 0.9995002746582031 0.0004994869232177734
vt 0.9995005130767822 0.9995002746582031
vt 0.0004997551441192627 0.9995005130767822
vt 0.0004995167255401611 0.000499725341796875
vt 0.9995002746582031 0.0004994869232177734
vt 0.9995005130767822 0.9995002746582031
vt 0.0004997551441192627 0.9995005130767822
g Geoset0
s 1
usemtl mat_firefly01
f 1/1/1 2/2/2 3/3/3
f 3/3/3 4/4/4 1/1/1
g Geoset1
s 1
usemtl mat_firefly01
f 5/5/5 6/6/6 7/7/7
f 7/7/7 8/8/8 5/5/5