# Exported using wow.export v0.1.49
o 
mtllib gunshopgunbarrel.mtl
v -0.0005798199563287199 0.09738951176404953 -0.5284731388092041
v 0.047540850937366486 0.049200501292943954 -0.5244907736778259
v -0.0005798278143629432 -0.000532893871422857 -0.5241978168487549
v -0.06918827444314957 0.03484708070755005 0.5569118857383728
v -0.0005797265912406147 0.001950789475813508 0.5573788285255432
v -0.0005797295016236603 0.100084088742733 0.4450101852416992
v -0.11015099287033081 0.10448365658521652 0.553798258304596
v -0.06918827444314957 0.17854902148246765 0.550529956817627
v 0.06802881509065628 0.03484710305929184 0.5569118857383728
v 0.10899151861667633 0.1052582859992981 0.5539004802703857
v 0.06802882999181747 0.17854906618595123 0.550529956817627
v -0.0005797187914140522 0.21144533157348633 0.5500631332397461
v 0.06802882999181747 0.17854906618595123 0.550529956817627
v 0.10899151861667633 0.1052582859992981 0.5539004802703857
v 0.04613984376192093 0.09224098175764084 0.2210233211517334
v 0.06802881509065628 0.03484710305929184 0.5569118857383728
v -0.0005797569756396115 0.033911481499671936 0.22348730266094208
v -0.0005797265912406147 0.001950789475813508 0.5573788285255432
v -0.06918827444314957 0.03484708070755005 0.5569118857383728
v -0.0005797187914140522 0.21144533157348633 0.5500631332397461
v -0.0005797395133413374 0.1391170173883438 0.2184133231639862
v -0.06918827444314957 0.17854902148246765 0.550529956817627
v -0.11015099287033081 0.10448365658521652 0.553798258304596
v -0.04729931429028511 0.09224098175764084 0.2210233211517334
v -0.048700496554374695 0.049200523644685745 -0.5244907736778259
v -0.0005798199563287199 0.09738951176404953 -0.5284731388092041
v 0.047540850937366486 0.049200501292943954 -0.5244907736778259
v -0.0005798278143629432 -0.000532893871422857 -0.5241978168487549
v -0.048700496554374695 0.049200523644685745 -0.5244907736778259
vn 3.9311395028107654e-8 0.537177562713623 -0.8434692025184631
vn 0.8697938919067383 0.26817312836647034 -0.41417601704597473
vn 0.26598796248435974 -0.7159106135368347 -0.6455403566360474
vn -0.6448030471801758 -0.5501468777656555 0.5306293368339539
vn 1.2378271208035585e-7 -0.33415859937667847 0.9425168633460999
vn -0.0002818447246681899 0.0507047139108181 0.9987136721611023
vn -0.3790723383426666 0.03800592198967934 0.9245862364768982
vn -0.613694965839386 0.6376633644104004 0.4655791223049164
vn 0.6448038816452026 -0.5499836802482605 0.5307974815368652
vn 0.3783731758594513 0.04005857929587364 0.9247859716415405
vn 0.6130768060684204 0.6385104060173035 0.4652325212955475
vn 8.179786625817087e-9 0.42500972747802734 0.905188798904419
vn 0.6130768060684204 0.6385104060173035 0.4652325212955475
vn 0.3783731758594513 0.04005857929587364 0.9247859716415405
vn 0.9866107702255249 -0.10683814436197281 -0.12322662770748138
vn 0.6448038816452026 -0.5499836802482605 0.5307974815368652
vn -0.14226672053337097 -0.9868683218955994 -0.07649257779121399
vn 1.2378271208035585e-7 -0.33415859937667847 0.9425168633460999
vn -0.6448030471801758 -0.5501468777656555 0.5306293368339539
vn 8.179786625817087e-9 0.42500972747802734 0.905188798904419
vn -1.0700230035354252e-7 0.9863640069961548 -0.1645784229040146
vn -0.613694965839386 0.6376633644104004 0.4655791223049164
vn -0.3790723383426666 0.03800592198967934 0.9245862364768982
vn -0.9885378479957581 0.022006049752235413 -0.1493610143661499
vn -0.9464161992073059 0.014879581518471241 -0.3226065933704376
vn 3.9311395028107654e-8 0.537177562713623 -0.8434692025184631
vn 0.8697938919067383 0.26817312836647034 -0.41417601704597473
vn 0.26598796248435974 -0.7159106135368347 -0.6455403566360474
vn -0.9464161992073059 0.014879581518471241 -0.3226065933704376
vt 0.45471426844596863 0.24814343452453613
vt 0.4102546274662018 0.18455207347869873
vt 0.4554094076156616 0.12594866752624512
vt 0.45620107650756836 0.12657666206359863
vt 0.4257906675338745 0.14200079441070557
vt 0.4567035138607025 0.18150532245635986
vt 0.48597264289855957 0.1419534683227539
vt 0.4995017349720001 0.18311011791229248
vt 0.4141744077205658 0.1856573224067688
vt 0.425258070230484 0.23053395748138428
vt 0.45686909556388855 0.2486501932144165
vt 0.4892268776893616 0.2337709665298462
vt 0.6021676063537598 0.24903327226638794
vt 0.5677348971366882 0.24903929233551025
vt 0.5677362084388733 0.15109306573867798
vt 0.5332404375076294 0.24901366233825684
vt 0.500277042388916 0.15107160806655884
vt 0.5002713799476624 0.24895232915878296
vt 0.5332431793212891 0.24897468090057373
vt 0.6284947991371155 0.2490556240081787
vt 0.6284896731376648 0.1510709524154663
vt 0.6021702885627747 0.24899423122406006
vt 0.5677348971366882 0.24897170066833496
vt 0.5677362084388733 0.15107113122940063
vt 0.5677332878112793 0.004165053367614746
vt 0.6284708976745605 0.004151403903961182
vt 0.5677332878112793 0.004172682762145996
vt 0.5003042221069336 0.004146933555603027
vt 0.4991350769996643 0.1849600076675415
g Geoset0
s 1
usemtl mat_gunshop
f 1/1/1 2/2/2 3/3/3
f 4/4/4 5/5/5 6/6/6
f 7/7/7 4/4/4 6/6/6
f 8/8/8 7/7/7 6/6/6
f 5/5/5 9/9/9 6/6/6
f 9/9/9 10/10/10 6/6/6
f 10/10/10 11/11/11 6/6/6
f 11/11/11 12/12/12 6/6/6
f 12/12/12 8/8/8 6/6/6
f 13/13/13 14/14/14 15/15/15
f 14/14/14 16/16/16 15/15/15
f 17/17/17 15/15/15 16/16/16
f 18/18/18 17/17/17 16/16/16
f 18/18/18 19/19/19 17/17/17
f 20/20/20 21/21/21 22/22/22
f 13/13/13 21/21/21 20/20/20
f 13/13/13 15/15/15 21/21/21
f 23/23/23 24/24/24 19/19/19
f 19/19/19 24/24/24 17/17/17
f 22/22/22 24/24/24 23/23/23
f 22/22/22 21/21/21 24/24/24
f 24/24/24 21/21/21 25/25/25
f 21/21/21 26/26/26 25/25/25
f 21/21/21 27/27/27 26/26/26
f 15/15/15 27/27/27 21/21/21
f 27/27/27 15/15/15 28/28/28
f 15/15/15 17/17/17 28/28/28
f 25/25/25 28/28/28 17/17/17
f 24/24/24 25/25/25 17/17/17
f 29/29/29 1/1/1 3/3/3