# Exported using wow.export v0.1.49
o 
mtllib gunshopgunstock.mtl
v -0.11022133380174637 0.15782471001148224 -0.04768921062350273
v -0.10696712136268616 0.1313212513923645 -0.04768921062350273
v -0.13819755613803864 0.14039644598960876 -0.022607168182730675
v -0.13819755613803864 0.14039644598960876 -0.022607168182730675
v -0.10696712136268616 0.1313212513923645 -0.04768921062350273
v -0.12213663011789322 0.14236848056316376 0.023111633956432343
v -0.10696712136268616 0.1313212513923645 -0.04768921062350273
v -0.08845911175012589 0.14650356769561768 -0.02359156124293804
v -0.12213663011789322 0.14236848056316376 0.023111633956432343
v -0.13819755613803864 0.14039644598960876 -0.022607168182730675
v -0.12213663011789322 0.14236848056316376 0.023111633956432343
v -0.11022133380174637 0.15782471001148224 -0.04768921062350273
v -0.12213663011789322 0.14236848056316376 0.023111633956432343
v -0.08845911175012589 0.14650356769561768 -0.02359156124293804
v -0.11022133380174637 0.15782471001148224 -0.04768921062350273
v 0.019594719633460045 0.08105305582284927 -0.022443855181336403
v 0.05736343935132027 0.07915159314870834 -0.04254652187228203
v 0.055781543254852295 0.09203509986400604 -0.04254652187228203
v 0.02048322558403015 0.08116214722394943 -0.08842842280864716
v 0.055781543254852295 0.09203509986400604 -0.04254652187228203
v 0.08247724920511246 0.08877403289079666 -0.033451180905103683
v 0.10558853298425674 0.09161175787448883 -0.06163052096962929
v 0.06971820443868637 0.08690834790468216 -0.3700273633003235
v 0.18529215455055237 0.10109903663396835 -0.37567877769470215
v 0.15641465783119202 0.19260360300540924 -0.4356168806552887
v 0.02601645514369011 0.12417750805616379 -0.386434942483902
v -0.0005214732955209911 0.1314999908208847 -0.21861445903778076
v -0.045243095606565475 0.11404560506343842 -0.18880946934223175
v 0.05646480619907379 0.08528105914592743 -0.22218669950962067
v 0.012352615594863892 0.026648802682757378 -0.21861447393894196
v 0.027066821232438087 0.08167141675949097 -0.12174437195062637
v -0.06168245151638985 0.11925645917654037 -0.012101178988814354
v -0.10377473384141922 0.06560612469911575 -0.013977719470858574
v -0.003014787333086133 0.07797786593437195 -0.01397775299847126
v -0.0514223650097847 0.13741019368171692 -0.022652361541986465
v 0.027966542169451714 0.08178197592496872 0.7201205492019653
v -0.056746065616607666 0.1448841691017151 0.7215200662612915
v -0.07191410660743713 0.11658864468336105 0.7345808148384094
v -0.008274117484688759 0.07733219116926193 0.734498143196106
v -0.049953605979681015 0.023732461035251617 -0.0121011883020401
v -0.09179412573575974 0.13275554776191711 -0.09033288806676865
v -0.09580417722463608 0.1322632133960724 -0.02714591659605503
v -0.12493850290775299 0.06300757825374603 -0.028218844905495644
v -0.10377473384141922 0.06560612469911575 -0.013977719470858574
v -0.060526736080646515 0.023845959454774857 0.7345808148384094
v -0.035606499761343 0.008600086905062199 -0.02265237271785736
v -0.12092845886945724 0.06349990516901016 -0.09140581637620926
v -0.07442490011453629 0.06920980662107468 -0.1386737823486328
v -0.007751911878585815 0.0773962065577507 -0.3917107582092285
v -0.03896395489573479 0.000060411675804061815 0.7215200662612915
v -0.03526318073272705 0.03276560828089714 -0.18880948424339294
v 0.03633081912994385 0.040173836052417755 -0.386434942483902
v 0.10462195426225662 0.09119395911693573 -0.5717681050300598
v 0.14066815376281738 0.0005696139414794743 -0.5246664881706238
v 0.24322588741779327 0.10821238905191422 -0.5106480717658997
v 0.179409459233284 0.005326476879417896 -0.4356168806552887
v 0.11767327785491943 0.18784673511981964 -0.5246665477752686
v -0.08845911175012589 0.14650356769561768 -0.02359156124293804
v -0.054806891828775406 0.13762548565864563 -0.03125061094760895
v -0.06937233358621597 0.13583707809448242 -0.06553170830011368
v -0.11022133380174637 0.15782471001148224 -0.04768921062350273
v -0.12995855510234833 0.055469486862421036 0.007177362218499184
v -0.12213663011789322 0.14236848056316376 0.023111633956432343
v -0.15921606123447418 0.12390543520450592 -0.0076449415646493435
v -0.18625283241271973 0.12050282955169678 -0.029238201677799225
v -0.18963809311389923 0.14807353913784027 -0.029238201677799225
v -0.12995855510234833 0.055469486862421036 0.007177362218499184
v -0.12995855510234833 0.055469486862421036 0.007177362218499184
vn -0.15667572617530823 0.6991134285926819 -0.6976339817047119
vn -0.4185408055782318 -0.7907931804656982 -0.446620374917984
vn 0.1830994188785553 -0.081529900431633 -0.9797078371047974
vn -0.19456608593463898 -0.9746577739715576 0.1103912889957428
vn -0.19456608593463898 -0.9746577739715576 0.1103912889957428
vn -0.19456608593463898 -0.9746577739715576 0.1103912889957428
vn 0.42319416999816895 -0.8770086765289307 0.22751374542713165
vn 0.42319416999816895 -0.8770086765289307 0.22751374542713165
vn 0.42319416999816895 -0.8770086765289307 0.22751374542713165
vn -0.4463046193122864 0.8869969844818115 0.11852633208036423
vn -0.4463046193122864 0.8869969844818115 0.11852633208036423
vn -0.4463046193122864 0.8869969844818115 0.11852633208036423
vn 0.22165420651435852 0.94424968957901 0.24343782663345337
vn 0.22165420651435852 0.94424968957901 0.24343782663345337
vn 0.22165420651435852 0.94424968957901 0.24343782663345337
vn 0.14489388465881348 0.017790894955396652 0.989287257194519
vn 0.16655384004116058 -0.8377810716629028 0.5199834108352661
vn -0.04107072204351425 0.853188157081604 0.5199838280677795
vn -0.5209378600120544 -0.06396280974149704 -0.8511947393417358
vn -0.04107072204351425 0.853188157081604 0.5199838280677795
vn 0.035992566496133804 0.004419002216309309 0.9993422627449036
vn 0.9853209257125854 0.12098158150911331 -0.12044140696525574
vn 0.6547052264213562 0.08038753271102905 0.7515975832939148
vn 0.5878903865814209 0.07218395173549652 0.8057135939598083
vn 0.2487572878599167 0.8286410570144653 0.5014716386795044
vn -0.48010268807411194 0.8769915699958801 -0.019677337259054184
vn 0.3264325261116028 0.9316164255142212 0.1597892791032791
vn -0.45920974016189575 0.8755676746368408 -0.15002568066120148
vn 0.9747577905654907 0.11968507617712021 0.18847467005252838
vn 0.5421143770217896 -0.82497239112854 0.15978917479515076
vn 0.9560942649841309 0.11739347875118256 0.2685191035270691
vn -0.7483463287353516 0.06586670875549316 0.6600298285484314
vn -0.2705666720867157 -0.0332215316593647 0.9621278643608093
vn -0.5550870299339294 -0.06815589964389801 0.8289952874183655
vn 0.11421231180429459 0.9883067011833191 0.10102155804634094
vn 0.7390487194061279 0.09074357897043228 0.6675122380256653
vn -0.3797106444835663 0.8477032780647278 0.37043076753616333
vn -0.4455251693725586 0.18480953574180603 0.8759867548942566
vn -0.7510164380073547 -0.09221307188272476 0.6538127064704895
vn -0.8164398670196533 -0.15014031529426575 0.5575695633888245
vn -0.7088080048561096 0.6495017409324646 -0.2752065658569336
vn -0.4988155663013458 0.6725564002990723 0.5466725826263428
vn -0.8311890959739685 -0.16386672854423523 0.5312930941581726
vn -0.2705666720867157 -0.0332215316593647 0.9621278643608093
vn -0.5737913846969604 -0.47990214824676514 0.6636695861816406
vn -0.19238422811031342 -0.9807866215705872 -0.03234003856778145
vn -0.8431903719902039 -0.3682688772678375 -0.3916734457015991
vn -0.8708406686782837 -0.27565962076187134 -0.4069991409778595
vn -0.9213345646858215 -0.11312580108642578 -0.3719477951526642
vn 0.18353153765201569 -0.8456795811653137 0.5011408925056458
vn -0.3106018602848053 -0.9481673240661621 -0.0671209990978241
vn -0.25367793440818787 -0.9670885801315308 -0.019677193835377693
vn -0.5324568152427673 -0.06537779420614243 -0.8439285755157471
vn 0.06771871447563171 -0.8595810532569885 -0.5064924359321594
vn 0.9158090353012085 0.11244738847017288 -0.3855508267879486
vn 0.44183459877967834 -0.7438469529151917 0.5014716982841492
vn -0.14224478602409363 0.8504301905632019 -0.5064927339553833
vn 0.25899291038513184 0.159958615899086 0.9525418281555176
vn 0.7946587800979614 0.033828455954790115 0.6061131358146667
vn 0.0763930231332779 -0.13160333037376404 -0.988354504108429
vn -0.15667572617530823 0.6991134285926819 -0.6976339817047119
vn -0.031137390062212944 -0.7386959195137024 -0.6733192801475525
vn -0.0866752341389656 0.5686444640159607 0.8180041909217834
vn -0.7048894166946411 -0.5569398403167725 0.43925952911376953
vn -0.08180809020996094 -0.840302050113678 -0.5359103679656982
vn -0.6945833563804626 0.6266651749610901 0.35333365201950073
vn -0.031137390062212944 -0.7386959195137024 -0.6733192801475525
vn -0.031137390062212944 -0.7386959195137024 -0.6733192801475525
vt 0.28725385665893555 0.09965264797210693
vt 0.2872982621192932 0.09977328777313232
vt 0.2734183669090271 0.0995328426361084
vt 0.2734183669090271 0.0995328426361084
vt 0.28725385665893555 0.09965264797210693
vt 0.2592943012714386 0.12065297365188599
vt 0.28725385665893555 0.09965264797210693
vt 0.28558608889579773 0.11993235349655151
vt 0.2592943012714386 0.12065297365188599
vt 0.2734183669090271 0.0995328426361084
vt 0.2592943012714386 0.12065297365188599
vt 0.28725385665893555 0.09965264797210693
vt 0.2592943012714386 0.12065297365188599
vt 0.28558608889579773 0.11993235349655151
vt 0.28725385665893555 0.09965264797210693
vt 0.29575517773628235 0.11936688423156738
vt 0.27347809076309204 0.11951124668121338
vt 0.2734519839286804 0.11822783946990967
vt 0.2961850166320801 0.09963816404342651
vt 0.27347809076309204 0.11951124668121338
vt 0.2584569454193115 0.11895990371704102
vt 0.25861382484436035 0.09987068176269531
vt 0.7457189559936523 0.07947647571563721
vt 0.747262179851532 0.04017293453216553
vt 0.7114216089248657 0.04051417112350464
vt 0.6715037822723389 0.08737140893936157
vt 0.7105593085289001 0.12634128332138062
vt 0.6607062220573425 0.1259627342224121
vt 0.745587170124054 0.12746816873550415
vt 0.7105419635772705 0.12634128332138062
vt 0.747586190700531 0.15457427501678467
vt 0.6568400859832764 0.20929288864135742
vt 0.6571646332740784 0.26465296745300293
vt 0.7478844523429871 0.2092624306678772
vt 0.6653496026992798 0.2093186378479004
vt 0.7478795051574707 0.4855659008026123
vt 0.6652374863624573 0.4855561852455139
vt 0.656834065914154 0.4851878881454468
vt 0.747879683971405 0.4852609634399414
vt 0.6568400859832764 0.20929288864135742
vt 0.6483138799667358 0.17951273918151855
vt 0.6455590724945068 0.20976537466049194
vt 0.6300537586212158 0.21036005020141602
vt 0.6300336122512817 0.21034181118011475
vt 0.6568338871002197 0.4851878881454468
vt 0.665343165397644 0.2093186378479004
vt 0.6301677823066711 0.178011953830719
vt 0.6303871273994446 0.14521849155426025
vt 0.6296253204345703 0.08687883615493774
vt 0.6651986241340637 0.48555612564086914
vt 0.6605915427207947 0.1259627342224121
vt 0.6715036034584045 0.08737170696258545
vt 0.629577100276947 0.04107332229614258
vt 0.6561516523361206 0.04084193706512451
vt 0.6852130889892578 0.0021983981132507324
vt 0.7114089131355286 0.04050338268280029
vt 0.6561643481254578 0.04085272550582886
vt 0.28558608889579773 0.11993235349655151
vt 0.3194674551486969 0.12032502889633179
vt 0.31920838356018066 0.09910070896148682
vt 0.2872733473777771 0.09818112850189209
vt 0.2592943012714386 0.12065297365188599
vt 0.2592943012714386 0.12065297365188599
vt 0.259603887796402 0.09897798299789429
vt 0.259603887796402 0.09897798299789429
vt 0.259603887796402 0.09897798299789429
vt 0.2594894468784332 0.0990867018699646
vt 0.259603887796402 0.09897798299789429
g Geoset0
s 1
usemtl mat_gunshop
f 1/1/1 2/2/2 3/3/3
f 4/4/4 5/5/5 6/6/6
f 7/7/7 8/8/8 9/9/9
f 10/10/10 11/11/11 12/12/12
f 13/13/13 14/14/14 15/15/15
f 16/16/16 17/17/17 18/18/18
f 16/16/16 19/19/19 17/17/17
f 16/16/16 20/20/20 19/19/19
f 21/21/21 17/17/17 22/22/22
f 22/22/22 17/17/17 19/19/19
f 21/21/21 20/20/20 17/17/17
f 21/21/21 22/22/22 20/20/20
f 22/22/22 19/19/19 20/20/20
f 23/23/23 24/24/24 25/25/25
f 23/23/23 25/25/25 26/26/26
f 27/27/27 23/23/23 26/26/26
f 28/28/28 27/27/27 26/26/26
f 29/29/29 23/23/23 27/27/27
f 29/29/29 30/30/30 23/23/23
f 31/31/31 30/30/30 29/29/29
f 31/31/31 29/29/29 27/27/27
f 32/32/32 33/33/33 34/34/34
f 31/31/31 27/27/27 28/28/28
f 35/35/35 31/31/31 28/28/28
f 36/36/36 31/31/31 35/35/35
f 37/37/37 36/36/36 35/35/35
f 36/36/36 37/37/37 38/38/38
f 38/38/38 37/37/37 32/32/32
f 38/38/38 32/32/32 39/39/39
f 32/32/32 34/34/34 39/39/39
f 34/34/34 40/40/40 39/39/39
f 33/33/33 40/40/40 34/34/34
f 37/37/37 35/35/35 32/32/32
f 35/35/35 28/28/28 41/41/41
f 35/35/35 41/41/41 42/42/42
f 42/42/42 32/32/32 35/35/35
f 32/32/32 42/42/42 43/43/43
f 44/44/44 32/32/32 43/43/43
f 44/44/44 43/43/43 40/40/40
f 43/43/43 42/42/42 41/41/41
f 39/39/39 36/36/36 38/38/38
f 39/39/39 45/45/45 36/36/36
f 40/40/40 45/45/45 39/39/39
f 45/45/45 40/40/40 46/46/46
f 40/40/40 43/43/43 46/46/46
f 43/43/43 47/47/47 46/46/46
f 41/41/41 47/47/47 43/43/43
f 47/47/47 41/41/41 48/48/48
f 28/28/28 48/48/48 41/41/41
f 48/48/48 28/28/28 49/49/49
f 28/28/28 26/26/26 49/49/49
f 50/50/50 45/45/45 46/46/46
f 45/45/45 50/50/50 36/36/36
f 50/50/50 46/46/46 36/36/36
f 36/36/36 46/46/46 31/31/31
f 46/46/46 51/51/51 31/31/31
f 51/51/51 30/30/30 31/31/31
f 47/47/47 48/48/48 46/46/46
f 48/48/48 51/51/51 46/46/46
f 48/48/48 49/49/49 51/51/51
f 51/51/51 49/49/49 52/52/52
f 49/49/49 53/53/53 52/52/52
f 53/53/53 54/54/54 52/52/52
f 54/54/54 53/53/53 55/55/55
f 56/56/56 54/54/54 55/55/55
f 53/53/53 57/57/57 55/55/55
f 52/52/52 54/54/54 56/56/56
f 30/30/30 51/51/51 52/52/52
f 30/30/30 52/52/52 23/23/23
f 52/52/52 56/56/56 23/23/23
f 23/23/23 56/56/56 24/24/24
f 24/24/24 56/56/56 55/55/55
f 25/25/25 24/24/24 55/55/55
f 57/57/57 25/25/25 55/55/55
f 26/26/26 25/25/25 57/57/57
f 26/26/26 57/57/57 53/53/53
f 26/26/26 53/53/53 49/49/49
f 58/58/58 2/2/2 59/59/59
f 58/58/58 59/59/59 1/1/1
f 59/59/59 60/60/60 1/1/1
f 60/60/60 59/59/59 2/2/2
f 2/2/2 61/61/61 60/60/60
f 62/62/62 63/63/63 64/64/64
f 65/65/65 64/64/64 66/66/66
f 66/66/66 64/64/64 63/63/63
f 3/3/3 66/66/66 63/63/63
f 63/63/63 67/67/67 3/3/3
f 3/3/3 65/65/65 66/66/66
f 64/64/64 65/65/65 3/3/3
f 68/68/68 64/64/64 3/3/3