# Exported using wow.export v0.1.49
o 
mtllib blastedlandsbone01.mtl
v 0.11840184777975082 -0.006557431071996689 0.15757904946804047
v 0.1001104936003685 -0.034927837550640106 0.0423518531024456
v -0.041386500000953674 0.2269858866930008 -0.07960379868745804
v -0.10561331361532211 0.20899803936481476 -0.03540255129337311
v -0.1514148861169815 0.3587258458137512 -0.048568885773420334
v -0.21076102554798126 0.22145621478557587 -0.0634693056344986
v -0.06925889849662781 0.2796853482723236 -0.026234425604343414
v 0.0019605064298957586 -0.054967574775218964 0.11051889508962631
v 0.11840184777975082 -0.006557431071996689 0.15757904946804047
v -0.1514148861169815 0.3587258458137512 -0.048568885773420334
v -0.07830515503883362 0.26816919445991516 -0.14036951959133148
v -0.21076102554798126 0.22145621478557587 -0.0634693056344986
v -0.041386500000953674 0.2269858866930008 -0.07960379868745804
v -0.10561331361532211 0.20899803936481476 -0.03540255129337311
v 0.1001104936003685 -0.034927837550640106 0.0423518531024456
v 0.0019605064298957586 -0.054967574775218964 0.11051889508962631
v -0.06925889849662781 0.2796853482723236 -0.026234425604343414
v -0.07830515503883362 0.26816919445991516 -0.14036951959133148
v -0.1514148861169815 0.3587258458137512 -0.048568885773420334
vn 0.7139443159103394 0.630089521408081 0.30540257692337036
vn 0.07515490800142288 -0.3924364745616913 -0.9167035222053528
vn 0.6907763481140137 -0.271636039018631 -0.6701058745384216
vn -0.6786736249923706 -0.6650155782699585 0.31169915199279785
vn -0.24190537631511688 0.6834194660186768 0.6887812614440918
vn -0.4667965769767761 -0.7866348028182983 -0.4041121304035187
vn 0.3220319449901581 0.659483790397644 0.6792470216751099
vn -0.8398472666740417 -0.06526698172092438 0.5388847589492798
vn 0.7139443159103394 0.630089521408081 0.30540257692337036
vn -0.24190537631511688 0.6834194660186768 0.6887812614440918
vn 0.47882965207099915 0.3776731789112091 -0.7925181984901428
vn -0.4667965769767761 -0.7866348028182983 -0.4041121304035187
vn 0.6907763481140137 -0.271636039018631 -0.6701058745384216
vn -0.6786736249923706 -0.6650155782699585 0.31169915199279785
vn 0.07515490800142288 -0.3924364745616913 -0.9167035222053528
vn -0.8398472666740417 -0.06526698172092438 0.5388847589492798
vn 0.3220319449901581 0.659483790397644 0.6792470216751099
vn 0.47882965207099915 0.3776731789112091 -0.7925181984901428
vn -0.24190537631511688 0.6834194660186768 0.6887812614440918
vt 0.22095081210136414 0.02107924222946167
vt 0.880824863910675 0.02107924222946167
vt 0.880824863910675 0.4431811571121216
vt 0.22095081210136414 0.4431811571121216
vt 0.8808249831199646 0.8138337731361389
vt 0.22095081210136414 0.8138337731361389
vt 0.8808249831199646 0.4431811571121216
vt 0.22095081210136414 0.02107924222946167
vt 0.8808249831199646 0.02107924222946167
vt 0.6396713852882385 0.958341121673584
vt 0.22095078229904175 0.8138337731361389
vt 0.8808250427246094 0.8138337731361389
vt 0.22095078229904175 0.4431811571121216
vt 0.8808250427246094 0.4431811571121216
vt 0.22095078229904175 0.02107924222946167
vt 0.8808250427246094 0.02107924222946167
vt 0.22095081210136414 0.4431811571121216
vt 0.880824863910675 0.8138337731361389
vt 0.22095081210136414 0.8138337731361389
g Geoset0
s 1
usemtl mat_spine02
f 1/1/1 2/2/2 3/3/3
f 4/4/4 5/5/5 6/6/6
f 4/4/4 7/7/7 5/5/5
f 8/8/8 7/7/7 4/4/4
f 8/8/8 9/9/9 7/7/7
f 10/10/10 11/11/11 12/12/12
f 13/13/13 12/12/12 11/11/11
f 13/13/13 14/14/14 12/12/12
f 15/15/15 14/14/14 13/13/13
f 15/15/15 16/16/16 14/14/14
f 17/17/17 18/18/18 19/19/19
f 17/17/17 3/3/3 18/18/18
f 1/1/1 3/3/3 17/17/17