# Exported using wow.export v0.1.49
o 
mtllib candle02.mtl
v 0.0000673597605782561 -0.0034670853056013584 -0.24115003645420074
v -0.22990460693836212 -0.003467074828222394 -0.07406562566757202
v -0.19544358551502228 0.3633415997028351 -0.06320852041244507
v 0.010569100268185139 0.33153584599494934 -0.00837675854563713
v 0.1916986107826233 0.43160516023635864 -0.06320855766534805
v -0.0018724820110946894 0.39747345447540283 -0.20601573586463928
v 0.1177610531449318 0.4185680150985718 0.16785836219787598
v -0.19544358551502228 0.3633415997028351 -0.06320852041244507
v -0.1215059906244278 0.3763788640499115 0.16785839200019836
v -0.22990460693836212 -0.003467074828222394 -0.07406562566757202
v -0.1215059906244278 0.3763788640499115 0.16785839200019836
v -0.19544358551502228 0.3633415997028351 -0.06320852041244507
v -0.14206311106681824 -0.0034670785535126925 0.19628264009952545
v 0.1177610531449318 0.4185680150985718 0.16785836219787598
v 0.1421978622674942 -0.0034670913591980934 0.19628264009952545
v 0.1916986107826233 0.43160516023635864 -0.06320855766534805
v 0.2300393134355545 -0.0034670953173190355 -0.074065662920475
v -0.0018724820110946894 0.39747345447540283 -0.20601573586463928
v 1.4099195588812563e-8 0.330144464969635 -0.013380929827690125
v 1.714968256294469e-8 0.44846439361572266 -0.001231350819580257
v 1.4099195588812563e-8 0.330144464969635 0.006960215047001839
vn -0.0012311177561059594 0.09154460579156876 -0.9958001971244812
vn -0.946312427520752 0.09584253281354904 -0.30871838331222534
vn -0.941352367401123 0.09300024062395096 -0.3243557810783386
vn -0.17508180439472198 0.9844129085540771 0.01666240394115448
vn -0.4594824016094208 0.8831969499588013 0.0940164253115654
vn -0.1641293615102768 0.9325876832008362 0.32146814465522766
vn -0.33760443329811096 0.9092044830322266 -0.24366053938865662
vn 0.12763279676437378 0.9874299168586731 0.09323108941316605
vn 0.005882378201931715 0.9701472520828247 -0.24244534969329834
vn -0.946312427520752 0.09584253281354904 -0.30871838331222534
vn -0.5530754327774048 0.09406337887048721 0.8278040885925293
vn -0.941352367401123 0.09300024062395096 -0.3243557810783386
vn -0.5870553255081177 0.08889123797416687 0.8046517372131348
vn 0.6224505305290222 0.09138721972703934 0.7773054242134094
vn 0.5876159071922302 0.08828651905059814 0.804309070110321
vn 0.9524251222610474 0.09108873456716537 -0.29084229469299316
vn 0.9472730755805969 0.09184066206216812 -0.30698367953300476
vn 0.05240717902779579 0.08655154705047607 -0.9948679804801941
vn 1 -2.57816719084758e-8 0
vn 1 -2.578167013211896e-8 0
vn 1 -2.578167013211896e-8 0
vt 2.999999761581421 0.0004996061325073242
vt 3.8660764694213867 0.0004996657371520996
vt 3.8660764694213867 0.9995005130767822
vt 1.2142183780670166 1.2628990411758423
vt 2.133923292160034 0.9995002746582031
vt 2.999999761581421 0.9995005130767822
vt 1.3816007375717163 0.9995002746582031
vt -0.13392353057861328 0.9995005130767822
vt 0.6183990836143494 0.9995005130767822
vt -0.13392353057861328 0.0004996657371520996
vt 0.6183990836143494 0.9995005130767822
vt -0.13392353057861328 0.9995005130767822
vt 0.6183990836143494 0.0004996061325073242
vt 1.3816007375717163 0.9995002746582031
vt 1.3816007375717163 0.0004996061325073242
vt 2.133923292160034 0.9995002746582031
vt 2.133923292160034 0.0004996061325073242
vt 2.999999761581421 0.9995005130767822
vt 0.9995004534721375 0.0004996061325073242
vt 0.5007421970367432 1.605297565460205
vt 0.0004995465278625488 0.000499725341796875
g Geoset0
s 1
usemtl mat_candel_cave01
f 1/1/1 2/2/2 3/3/3
f 4/4/4 5/5/5 6/6/6
f 4/4/4 7/7/7 5/5/5
f 4/4/4 6/6/6 8/8/8
f 9/9/9 4/4/4 8/8/8
f 9/9/9 7/7/7 4/4/4
f 10/10/10 11/11/11 12/12/12
f 10/10/10 13/13/13 11/11/11
f 13/13/13 14/14/14 11/11/11
f 13/13/13 15/15/15 14/14/14
f 15/15/15 16/16/16 14/14/14
f 15/15/15 17/17/17 16/16/16
f 17/17/17 18/18/18 16/16/16
f 17/17/17 1/1/1 18/18/18
f 1/1/1 3/3/3 18/18/18
g Geoset1
s 1
usemtl mat_candel_thread
f 19/19/19 20/20/20 21/21/21