# Exported using wow.export v0.1.49
o 
mtllib generaltorch01.mtl
v 0.005365237593650818 -0.04691695049405098 -0.03873616084456444
v -0.04179378226399422 -0.04691695049405098 -0.007868565618991852
v -0.06537322700023651 2.1026737689971924 -0.014770767651498318
v 0.004559914115816355 2.1625754833221436 0.006966697052121162
v 0.06254411488771439 2.1625754833221436 0.08677508682012558
v 0.09838030487298965 2.1625754833221436 -0.023517409339547157
v -0.05342427268624306 2.1625754833221436 0.08677510172128677
v -0.08926048129796982 2.1625754833221436 -0.023517394438385963
v 0.004559914115816355 2.1625754833221436 -0.09168190509080887
v 0.004559914115816355 1.8697925806045532 0.006966697052121162
v 0.004559914115816355 1.8697925806045532 -0.07807520031929016
v 0.08543956279754639 1.8697925806045532 -0.019312703981995583
v -0.07631973177194595 1.8697925806045532 -0.019312690943479538
v -0.04542645066976547 1.8697925806045532 0.07576704025268555
v 0.0545462928712368 1.8697925806045532 0.07576702535152435
v -0.05342427268624306 2.1625754833221436 0.08677510172128677
v -0.08926048129796982 2.1625754833221436 -0.023517394438385963
v 0.06254411488771439 2.1625754833221436 0.08677508682012558
v 0.09838030487298965 2.1625754833221436 -0.023517409339547157
v 0.004559914115816355 2.1625754833221436 -0.09168190509080887
v 0.004559914115816355 1.8697925806045532 -0.07807520031929016
v -0.08926048129796982 2.1625754833221436 -0.023517394438385963
v -0.07631973177194595 1.8697925806045532 -0.019312690943479538
v -0.04179378226399422 -0.04691695049405098 -0.007868565618991852
v -0.03835351765155792 2.1026737689971924 0.06014646589756012
v -0.06537322700023651 2.1026737689971924 -0.014770767651498318
v -0.023780634626746178 -0.04691695049405098 0.04207625612616539
v 0.04908411204814911 2.1026737689971924 0.06014645844697952
v 0.03451111912727356 -0.04691695049405098 0.04207624867558479
v 0.0761038139462471 2.1026737689971924 -0.014770779758691788
v 0.052524253726005554 -0.04691695049405098 -0.007868574932217598
v 0.005365292076021433 2.1026737689971924 -0.06107216328382492
vn -0.2595280110836029 -0.0242255087941885 -0.9654316902160645
vn -0.9973800182342529 -0.021977869793772697 -0.06892086565494537
vn -0.8743124008178711 -0.022557033225893974 -0.48483920097351074
vn 0 1 0
vn 0.3174719214439392 0.5523785352706909 0.7707720398902893
vn 0.8311520218849182 0.5523785352706909 -0.06375202536582947
vn -0.6349436044692993 0.5523785352706909 0.5401153564453125
vn -0.7098885774612427 0.5523785352706909 -0.43696245551109314
vn 0.19620832800865173 0.5523785352706909 -0.810172975063324
vn 0 -1 0
vn -0.1900242120027542 -0.5901139974594116 -0.7846376299858093
vn 0.6875139474868774 -0.5901140570640564 -0.4231902062892914
vn -0.8049554228782654 -0.5901140570640564 -0.061742570251226425
vn -0.307465523481369 -0.5901140570640564 0.7464786767959595
vn 0.6149312853813171 -0.5901139974594116 0.523091733455658
vn -0.6349436044692993 0.5523785352706909 0.5401153564453125
vn -0.7098885774612427 0.5523785352706909 -0.43696245551109314
vn 0.3174719214439392 0.5523785352706909 0.7707720398902893
vn 0.8311520218849182 0.5523785352706909 -0.06375202536582947
vn 0.19620832800865173 0.5523785352706909 -0.810172975063324
vn -0.1900242120027542 -0.5901139974594116 -0.7846376299858093
vn -0.7098885774612427 0.5523785352706909 -0.43696245551109314
vn -0.8049554228782654 -0.5901140570640564 -0.061742570251226425
vn -0.9973800182342529 -0.021977869793772697 -0.06892086565494537
vn -0.7935189008712769 -0.02288905531167984 0.608115017414093
vn -0.8743124008178711 -0.022557033225893974 -0.48483920097351074
vn -0.41567981243133545 -0.023980598896741867 0.909194827079773
vn 0.41568002104759216 -0.02398063801229 0.9091947078704834
vn 0.7935190200805664 -0.02288913168013096 0.6081148386001587
vn 0.9973800182342529 -0.021977972239255905 -0.06892098486423492
vn 0.8743123412132263 -0.022557128220796585 -0.4848392605781555
vn 0.25952792167663574 -0.024225538596510887 -0.9654316902160645
vt 0.7492488026618958 0.0004994869232177734
vt 0.9725976586341858 0.0004994869232177734
vt 0.9652801156044006 0.9125439524650574
vt 0.5007780194282532 0.8931624889373779
vt 0.32610201835632324 0.8537186980247498
vt 0.5674983263015747 0.8293409943580627
vt 0.326102077960968 0.9326063394546509
vt 0.5674984455108643 0.9569839835166931
vt 0.7166895270347595 0.8931624889373779
vt 0.29382553696632385 0.7855237126350403
vt -0.7121701836585999 0.7855237126350403
vt 0.867544412612915 0.7855237126350403
vt -0.27989301085472107 0.7855237126350403
vt 0.10929593443870544 0.7855237126350403
vt 0.4783555567264557 0.7855237126350403
vt 0.10929593443870544 0.9705150127410889
vt -0.27989301085472107 0.9705150127410889
vt 0.4783555567264557 0.9705150127410889
vt 0.867544412612915 0.9705150127410889
vt 1.2998214960098267 0.9705150127410889
vt 1.2998214960098267 0.7855237126350403
vt 1.7320984601974487 0.9705150127410889
vt 1.7320984601974487 0.7855237126350403
vt -0.02515007182955742 0.0004994869232177734
vt 0.15518949925899506 0.9125439524650574
vt -0.0324675478041172 0.9125439524650574
vt 0.1589575558900833 0.0004994869232177734
vt 0.3455601930618286 0.9125439524650574
vt 0.3417918384075165 0.0004994869232177734
vt 0.533217191696167 0.9125439524650574
vt 0.5258998274803162 0.0004994869232177734
vt 0.7492485642433167 0.9125439524650574
g Geoset0
s 1
usemtl mat_club_1h_torch_a_01
f 1/1/1 2/2/2 3/3/3
f 4/4/4 5/5/5 6/6/6
f 4/4/4 7/7/7 5/5/5
f 4/4/4 8/8/8 7/7/7
f 4/4/4 9/9/9 8/8/8
f 4/4/4 6/6/6 9/9/9
f 10/10/10 11/11/11 12/12/12
f 10/10/10 13/13/13 11/11/11
f 10/10/10 14/14/14 13/13/13
f 10/10/10 12/12/12 15/15/15
f 10/10/10 15/15/15 14/14/14
f 13/13/13 16/16/16 17/17/17
f 13/13/13 14/14/14 16/16/16
f 14/14/14 18/18/18 16/16/16
f 14/14/14 15/15/15 18/18/18
f 15/15/15 19/19/19 18/18/18
f 15/15/15 12/12/12 19/19/19
f 12/12/12 20/20/20 19/19/19
f 12/12/12 21/21/21 20/20/20
f 21/21/21 22/22/22 20/20/20
f 21/21/21 23/23/23 22/22/22
f 24/24/24 25/25/25 26/26/26
f 24/24/24 27/27/27 25/25/25
f 27/27/27 28/28/28 25/25/25
f 27/27/27 29/29/29 28/28/28
f 29/29/29 30/30/30 28/28/28
f 29/29/29 31/31/31 30/30/30
f 31/31/31 32/32/32 30/30/30
f 31/31/31 1/1/1 32/32/32
f 1/1/1 3/3/3 32/32/32