# Exported using wow.export v0.1.49
o 
mtllib redridgetreestump01.mtl
v -6.563167572021484 -2.834552764892578 -3.784938097000122
v -6.563167572021484 -2.834552764892578 3.7935550212860107
v -4.708425045013428 1.1349260807037354 2.7123749256134033
v -3.9875967502593994 4.920007228851318 -2.2629551887512207
v -3.9875967502593994 4.120447158813477 2.2715721130371094
v 0.052181292325258255 5.131944179534912 0.03397732600569725
v -2.730181165588874e-7 5.319787979125977 -4.530219078063965
v 3.9875946044921875 4.920007228851318 -2.262956142425537
v 3.987596273422241 4.120447158813477 2.271571397781372
v 1.4037816464806951e-9 3.2487599849700928 5.164230823516846
v -4.708425045013428 1.646684169769287 -2.7037582397460938
v -3.9875967502593994 4.120447158813477 2.2715721130371094
v -3.9875967502593994 4.920007228851318 -2.2629551887512207
v -2.513012589133723e-7 1.9025633335113525 -5.411824703216553
v -2.813546871038852e-7 -2.8345530033111572 -7.574183940887451
v 6.563166618347168 -2.834552526473999 -3.7849388122558594
v -2.730181165588874e-7 5.319787979125977 -4.530219078063965
v 4.708425998687744 1.6466842889785767 -2.703758955001831
v 3.9875946044921875 4.920007228851318 -2.262956142425537
v 4.708425998687744 1.1349260807037354 2.712373971939087
v 6.563166618347168 -2.834552526473999 -3.7849388122558594
v 6.563168525695801 -2.834552526473999 3.7935540676116943
v 3.8117823919492366e-7 -2.8345530033111572 7.582802772521973
v 3.987596273422241 4.120447158813477 2.271571397781372
v 1.8257544809330284e-7 0.8790470957756042 5.420440673828125
v 1.4037816464806951e-9 3.2487599849700928 5.164230823516846
vn -0.7831953763961792 0.4387129843235016 -0.4406086206436157
vn -0.761863648891449 0.47571900486946106 0.43960797786712646
vn -0.7621971368789673 0.3656871020793915 0.5341614484786987
vn -0.5927927494049072 0.7070172429084778 -0.38564664125442505
vn -0.6712748408317566 0.6546977758407593 0.34750664234161377
vn 0.0009277770877815783 0.9821462631225586 0.188116654753685
vn 0.13662657141685486 0.729120671749115 -0.6706088781356812
vn 0.7032422423362732 0.6953427195549011 -0.14815153181552887
vn 0.5537919402122498 0.6201468110084534 0.5556369423866272
vn -0.11447165906429291 0.5833091735839844 0.8041434288024902
vn -0.8776913285255432 0.32694971561431885 -0.35037386417388916
vn -0.6712748408317566 0.6546977758407593 0.34750664234161377
vn -0.5927927494049072 0.7070172429084778 -0.38564664125442505
vn -0.08134745806455612 0.35339561104774475 -0.9319303035736084
vn -3.366283252148605e-8 0.415254682302475 -0.9097052216529846
vn 0.7831953167915344 0.4387128949165344 -0.4406087398529053
vn 0.13662657141685486 0.729120671749115 -0.6706088781356812
vn 0.769751787185669 0.32275715470314026 -0.5507358908653259
vn 0.7032422423362732 0.6953427195549011 -0.14815153181552887
vn 0.8295809030532837 0.3833509683609009 0.4060019552707672
vn 0.7831953167915344 0.4387128949165344 -0.4406087398529053
vn 0.7618637681007385 0.4757189452648163 0.4396078884601593
vn 4.146955490114124e-8 0.4900554120540619 0.8716912865638733
vn 0.5537919402122498 0.6201468110084534 0.5556369423866272
vn 0.1276499181985855 0.3070262372493744 0.9431014657020569
vn -0.11447165906429291 0.5833091735839844 0.8041434288024902
vt 0.4960629940032959 0.007874011993408203
vt 0.007874015718698502 0.007874011993408203
vt 0.007874015718698502 0.42519688606262207
vt 0.9921259880065918 0.9921259880065918
vt 0.5118110179901123 0.9921259880065918
vt 0.7559055089950562 0.5039370059967041
vt 0.5118110179901123 0.9921259880065918
vt 0.9921259880065918 0.9921259880065918
vt 0.5118110179901123 0.9921259880065918
vt 0.9921259880065918 0.9921259880065918
vt 0.4960629940032959 0.42519688606262207
vt 0.007874015718698502 0.9921259880065918
vt 0.4960629940032959 0.9921259880065918
vt 0.007874015718698502 0.42519688606262207
vt 0.007874015718698502 0.007874011993408203
vt 0.4960629940032959 0.007874011993408203
vt 0.007874015718698502 0.9921259880065918
vt 0.4960629940032959 0.42519688606262207
vt 0.4960629940032959 0.9921259880065918
vt 0.007874015718698502 0.42519688606262207
vt 0.4960629940032959 0.015748023986816406
vt 0.007874015718698502 0.007874011993408203
vt 0.4960629940032959 0.007874011993408203
vt 0.007874015718698502 0.9921259880065918
vt 0.4960629940032959 0.42519688606262207
vt 0.4960629940032959 0.9921259880065918
g Geoset0
s 1
usemtl mat_redridgestump02_trunk
f 1/1/1 2/2/2 3/3/3
f 4/4/4 5/5/5 6/6/6
f 4/4/4 6/6/6 7/7/7
f 7/7/7 6/6/6 8/8/8
f 6/6/6 9/9/9 8/8/8
f 6/6/6 10/10/10 9/9/9
f 5/5/5 10/10/10 6/6/6
f 11/11/11 12/12/12 13/13/13
f 14/14/14 11/11/11 13/13/13
f 14/14/14 1/1/1 11/11/11
f 15/15/15 1/1/1 14/14/14
f 16/16/16 15/15/15 14/14/14
f 14/14/14 13/13/13 17/17/17
f 18/18/18 14/14/14 17/17/17
f 16/16/16 14/14/14 18/18/18
f 18/18/18 17/17/17 19/19/19
f 20/20/20 18/18/18 19/19/19
f 20/20/20 21/21/21 18/18/18
f 22/22/22 21/21/21 20/20/20
f 23/23/23 22/22/22 20/20/20
f 20/20/20 19/19/19 24/24/24
f 25/25/25 20/20/20 24/24/24
f 23/23/23 20/20/20 25/25/25
f 25/25/25 24/24/24 26/26/26
f 3/3/3 25/25/25 26/26/26
f 3/3/3 23/23/23 25/25/25
f 2/2/2 23/23/23 3/3/3
f 3/3/3 26/26/26 12/12/12
f 11/11/11 3/3/3 12/12/12
f 1/1/1 3/3/3 11/11/11