# Exported using wow.export v0.1.49
o 
mtllib redridgefallentree01.mtl
v -0.15414877235889435 1.178568720817566 -5.534942150115967
v -0.3878154158592224 0.664501965045929 -5.672435760498047
v -0.21460330486297607 0.371603399515152 -0.931677520275116
v 0.3985383212566376 0.9847450256347656 -0.931677520275116
v -0.015986669808626175 0.7861283421516418 -0.931677520275116
v 0.32265642285346985 0.8391004800796509 1.0062854290008545
v 0.35991811752319336 1.4122358560562134 -5.393498420715332
v -0.15414877235889435 1.178568720817566 -5.534942150115967
v 0.05220931023359299 0.5679953694343567 0.9582789540290833
v 0.18720662593841553 0.9111533761024475 5.621473789215088
v 0.9109423756599426 0.7844074368476868 0.9720063805580139
v 0.49365487694740295 0.7775011658668518 5.969112873077393
v 0.5883243680000305 0.42109552025794983 6.225116729736328
v 0.7019115090370178 0.8788976669311523 0.8835139274597168
v 0.32265642285346985 0.8391004800796509 1.0062854290008545
v 0.32484450936317444 -0.06344495713710785 1.0935659408569336
v 0.6542640328407288 -0.010203403420746326 1.0260273218154907
v 0.11177221685647964 -0.06896211951971054 6.08953332901001
v 0.4444444477558136 0.0646897703409195 6.274456977844238
v 0.9855966567993164 0.262006551027298 1.0952155590057373
v 1.0091779232025146 0.507323145866394 1.0418139696121216
v 0.801379919052124 0.8118316531181335 -0.931677520275116
v 0.8739851117134094 1.1785688400268555 -5.501716613769531
v 0.9742934107780457 0.4089902937412262 -0.931677520275116
v 1.1076518297195435 0.664501965045929 -5.621290683746338
v 0.6016560196876526 -0.0055350265465676785 -0.7865208983421326
v 0.8739851713180542 0.1504349559545517 -5.622265815734863
v 0.36115169525146484 -0.20415163040161133 -0.931677520275116
v 0.3599182069301605 -0.08323173224925995 -5.724564075469971
v 0.05754591524600983 0.19574755430221558 1.0551801919937134
v -0.35250627994537354 0.42109546065330505 5.877791404724121
v -0.1827148199081421 0.7775011658668518 5.66767692565918
v -0.2386654019355774 0.06468985229730606 6.014840602874756
v -0.041689980775117874 -0.031238297000527382 -0.931677520275116
v -0.15414883196353912 0.15043489634990692 -5.862339019775391
v 0.8739851713180542 0.1504349559545517 -5.622265815734863
v 0.3599182069301605 -0.08323173224925995 -5.724564075469971
v 0.36075177788734436 0.06406252831220627 -5.791025638580322
v 0.11177221685647964 -0.06896211951971054 6.08953332901001
v 0.4444444477558136 0.0646897703409195 6.274456977844238
v 0.38280075788497925 0.12515373528003693 6.312012672424316
v 0.10889172554016113 0.013913141563534737 6.139614105224609
v 0.33987170457839966 0.20716126263141632 6.063893795013428
v 0.13353730738162994 0.12846799194812775 6.01991605758667
v 0.18933641910552979 0.40756264328956604 5.6943678855896
v -0.07279708236455917 0.2071610391139984 5.975937843322754
v -0.10503143072128296 0.4170094132423401 5.679352760314941
v 0.5046447515487671 0.4217953681945801 6.257975101470947
v 0.5883243680000305 0.42109552025794983 6.225116729736328
v 0.4320112466812134 0.7184370756149292 6.006668567657471
v 0.49365487694740295 0.7775011658668518 5.969112873077393
v 0.42581242322921753 0.41700953245162964 6.027238845825195
v 0.39740800857543945 0.6268579959869385 5.706889629364014
v 0.2428700476884842 0.7055509686470032 5.341523170471191
v 0.00017249220400117338 0.6268576979637146 5.523172378540039
v 0.18432629108428955 0.8296775817871094 5.671553611755371
v -0.12683191895484924 0.7184367179870605 5.730281829833984
v -0.2745870053768158 0.42179521918296814 5.945093631744385
v -0.18278241157531738 0.12515361607074738 6.077446460723877
v 0.18720662593841553 0.9111533761024475 5.621473789215088
v -0.1827148199081421 0.7775011658668518 5.66767692565918
v -0.35250627994537354 0.42109546065330505 5.877791404724121
v -0.2386654019355774 0.06468985229730606 6.014840602874756
v 1.1076518297195435 0.664501965045929 -5.621290683746338
v 0.7744014859199524 0.2520851492881775 -5.688726902008057
v 0.9624241590499878 0.6657350063323975 -5.6877522468566895
v 0.8739851117134094 1.1785688400268555 -5.501716613769531
v 0.7744015455245972 1.079384684562683 -5.568177700042725
v 0.35991811752319336 1.4122358560562134 -5.393498420715332
v -0.05289805680513382 1.079384684562683 -5.601403713226318
v 0.360751748085022 1.2674075365066528 -5.459959506988525
v 0.37470799684524536 1.073387622833252 -5.354652404785156
v 0.6555067896842957 0.9457521438598633 -5.386295318603516
v 0.7831422090530396 0.6649535298347473 -5.451962947845459
v 0.6555066704750061 0.38415494561195374 -5.55571985244751
v 0.37470826506614685 0.2565193772315979 -5.58563232421875
v 0.09390968829393387 0.38415491580963135 -5.625917434692383
v 0.3657653331756592 0.654743492603302 -5.367417335510254
v 0.09390965104103088 0.9457518458366394 -5.396010398864746
v -0.03372589126229286 0.6649534106254578 -5.584103584289551
v -0.0528980977833271 0.25208500027656555 -5.928800582885742
v -0.24092064797878265 0.6657350063323975 -5.738897323608398
v -0.15414877235889435 1.178568720817566 -5.534942150115967
v -0.3878154158592224 0.664501965045929 -5.672435760498047
v -0.15414883196353912 0.15043489634990692 -5.862339019775391
vn -0.5154109597206116 0.7534503936767578 -0.40824514627456665
vn -0.8878931999206543 0.1878950297832489 -0.4199298322200775
vn -0.9950399994850159 0.08918602019548416 0.04405936226248741
vn 0.048942357301712036 0.9981414675712585 0.03630848601460457
vn -0.6663558483123779 0.7441625595092773 0.046818241477012634
vn -0.4296387732028961 0.9027620553970337 0.02076493203639984
vn -0.07034426182508469 0.9216790795326233 -0.3815224766731262
vn -0.5154109597206116 0.7534503936767578 -0.40824514627456665
vn -0.8596931099891663 0.5104515552520752 0.019156377762556076
vn -0.2827197015285492 0.9244298338890076 0.25592783093452454
vn 0.7918441295623779 0.6105047464370728 0.01633434183895588
vn 0.11609945446252823 0.9407453536987305 0.3186207115650177
vn 0.8439780473709106 0.3559041917324066 0.4012894630432129
vn 0.23761281371116638 0.9713152050971985 0.009323013946413994
vn -0.4296387732028961 0.9027620553970337 0.02076493203639984
vn -0.325139582157135 -0.9455074071884155 0.01732037588953972
vn 0.44688379764556885 -0.894541323184967 0.009523180313408375
vn -0.16855287551879883 -0.9330904483795166 0.317698210477829
vn 0.6143836379051208 -0.6273353099822998 0.4785218834877014
vn 0.8717215657234192 -0.48987647891044617 0.01107152458280325
vn 0.9830638766288757 0.18312335014343262 0.007162125781178474
vn 0.7545844912528992 0.6561789512634277 0.005608872510492802
vn 0.5202043652534485 0.7711170315742493 -0.36710479855537415
vn 0.9797821640968323 -0.20004257559776306 -0.0031518416944891214
vn 0.9051449298858643 0.0756390392780304 -0.4183197319507599
vn 0.6427832841873169 -0.7659920454025269 -0.009268386289477348
vn 0.6917537450790405 -0.6026041507720947 -0.39792585372924805
vn 0.050142496824264526 -0.9987330436706543 0.004240226466208696
vn 0.25166693329811096 -0.8836979866027832 -0.39464110136032104
vn -0.9611304998397827 -0.27601924538612366 0.0064480919390916824
vn -0.9365943074226379 0.21093350648880005 0.27981802821159363
vn -0.664781391620636 0.705659031867981 0.24517543613910675
vn -0.730864405632019 -0.6168543100357056 0.2921094596385956
vn -0.748759388923645 -0.6623764634132385 0.02483612857758999
vn -0.6868554949760437 -0.5577899217605591 -0.46593979001045227
vn 0.6917537450790405 -0.6026041507720947 -0.39792585372924805
vn 0.25166693329811096 -0.8836979866027832 -0.39464110136032104
vn 0.49316900968551636 0.26945289969444275 -0.8271514177322388
vn -0.16855287551879883 -0.9330904483795166 0.317698210477829
vn 0.6143836379051208 -0.6273353099822998 0.4785218834877014
vn -0.725959837436676 0.07713961601257324 0.6833972930908203
vn -0.6130697131156921 0.18006202578544617 0.7692354917526245
vn -0.6660661697387695 0.6859585046768188 0.2929450273513794
vn -0.0961589515209198 0.8910523653030396 0.4435979425907135
vn -0.32896342873573303 0.8463174700737 0.4189628064632416
vn 0.31552356481552124 0.8423908352851868 0.436832457780838
vn 0.6554093360900879 0.5949674844741821 0.465244323015213
vn -0.4912857115268707 0.4605347216129303 0.7392876148223877
vn 0.8439780473709106 0.3559041917324066 0.4012894630432129
vn -0.818709135055542 0.26190730929374695 0.5109989643096924
vn 0.11609945446252823 0.9407453536987305 0.3186207115650177
vn -0.8608105778694153 0.4590590000152588 0.21970444917678833
vn -0.9514884948730469 0.22879472374916077 0.20572473108768463
vn -0.722882091999054 -0.3437157869338989 0.5994171500205994
vn 0.7619047164916992 -0.03765930235385895 0.6465933918952942
vn -0.3532792925834656 -0.20171111822128296 0.91351318359375
vn 0.5422284603118896 0.37737545371055603 0.750717043876648
vn 0.13349662721157074 0.7475332021713257 0.6506710052490234
vn -0.363199383020401 0.4910160005092621 0.7918266654014587
vn -0.2827197015285492 0.9244298338890076 0.25592783093452454
vn -0.664781391620636 0.705659031867981 0.24517543613910675
vn -0.9365943074226379 0.21093350648880005 0.27981802821159363
vn -0.730864405632019 -0.6168543100357056 0.2921094596385956
vn 0.9051449298858643 0.0756390392780304 -0.4183197319507599
vn 0.10521290451288223 0.3010093569755554 -0.9477993249893188
vn -0.2890419363975525 0.3894813656806946 -0.8745050430297852
vn 0.5202043652534485 0.7711170315742493 -0.36710479855537415
vn -0.5208973288536072 0.15601223707199097 -0.8392414450645447
vn -0.07034426182508469 0.9216790795326233 -0.3815224766731262
vn 0.33227071166038513 0.10117200016975403 -0.9377421736717224
vn -0.08668148517608643 0.01686791144311428 -0.9960932731628418
vn 0.18675801157951355 -0.47898662090301514 -0.8577256202697754
vn -0.5625709891319275 -0.32174062728881836 -0.7615752220153809
vn -0.7569684386253357 0.21323129534721375 -0.6176820993423462
vn -0.4829246699810028 0.6347046494483948 -0.6032692193984985
vn 0.06356586515903473 0.807462215423584 -0.5864845514297485
vn 0.6019566655158997 0.6396610140800476 -0.4779978096485138
vn 0.1522519290447235 0.46953529119491577 -0.8696872591972351
vn 0.7171560525894165 -0.028171753510832787 -0.696342945098877
vn 0.700860321521759 0.4834437966346741 -0.5244777798652649
vn 0.41050928831100464 0.23032546043395996 -0.8822880983352661
vn 0.121536023914814 0.45990681648254395 -0.879610538482666
vn -0.5154109597206116 0.7534503936767578 -0.40824514627456665
vn -0.8878931999206543 0.1878950297832489 -0.4199298322200775
vn -0.6868554949760437 -0.5577899217605591 -0.46593979001045227
vt 0.23270530998706818 0.0075078606605529785
vt 0.5159440040588379 0.0075078606605529785
vt 0.5486471652984619 0.9969994425773621
vt 0.006972508504986763 0.9966220259666443
vt 0.2610933184623718 0.9969994425773621
vt 0.00693933991715312 0.7349957227706909
vt 0.0069414000026881695 0.007507920265197754
vt 0.2515188753604889 0.007505655288696289
vt 0.23935852944850922 0.7366293668746948
vt 0.007027388084679842 0.007268309593200684
vt 0.3634513318538666 0.7335201501846313
vt 0.24650120735168457 0.007510483264923096
vt 0.5487077236175537 0.007754862308502197
vt 0.2412702590227127 0.7349082231521606
vt 0.006991328671574593 0.7313953638076782
vt 0.7708327174186707 0.7400616407394409
vt 0.9950828552246094 0.7400137186050415
vt 0.995017945766449 0.007509350776672363
vt 0.7852004170417786 0.007757067680358887
vt 0.7671977877616882 0.7419477105140686
vt 0.5349722504615784 0.7419097423553467
vt 0.236662819981575 0.9969994425773621
vt 0.2469206601381302 0.0075111985206604
vt 0.533665120601654 0.9973651170730591
vt 0.5402275323867798 0.0077555179595947266
vt 0.7864081263542175 0.997390627861023
vt 0.7965803146362305 0.007759988307952881
vt 0.9950677156448364 0.9969994425773621
vt 0.9950185418128967 0.0075089335441589355
vt 0.5319339036941528 0.7400344014167786
vt 0.5214260220527649 0.007507145404815674
vt 0.26243090629577637 0.007507145404815674
vt 0.745444655418396 0.007507145404815674
vt 0.7810057401657104 0.9973651170730591
vt 0.7403993010520935 0.007505536079406738
vt 0.29689618945121765 0.10938405990600586
vt 0.9877164959907532 0.006193637847900391
vt 0.9807336926460266 0.049810051918029785
vt 0.9877163767814636 0.0065653324127197266
vt 0.2968955338001251 0.10938376188278198
vt 0.3709263503551483 0.15057975053787231
vt 0.9807320237159729 0.050570785999298096
vt 0.4574850797653198 0.19967901706695557
vt 0.9769097566604614 0.10269170999526978
vt 0.9585533142089844 0.5047165155410767
vt 0.4573695659637451 0.19982540607452393
vt 0.19678422808647156 0.4869328737258911
vt 0.11191698908805847 0.4862580895423889
vt 0.01033024676144123 0.48308396339416504
vt 0.3681541383266449 0.856853723526001
vt 0.27626773715019226 0.9136700630187988
vt 0.19872581958770752 0.48755359649658203
vt 0.4483051300048828 0.7941327095031738
vt 0.98359614610672 0.8782634139060974
vt 0.449832022190094 0.7944909334182739
vt 0.9867678880691528 0.9406453371047974
vt 0.3684951961040497 0.8572413921356201
vt 0.11205324530601501 0.4860219359397888
vt 0.3711903691291809 0.15077459812164307
vt 0.9837689399719238 0.9960623979568481
vt 0.2767539620399475 0.9137846827507019
vt 0.009969072416424751 0.4828840494155884
vt 0.2969108521938324 0.10940569639205933
vt 0.01028636284172535 0.48308396339416504
vt 0.370900422334671 0.1506018042564392
vt 0.11190444231033325 0.48625826835632324
vt 0.276268869638443 0.9136694073677063
vt 0.36814630031585693 0.8568649291992188
vt 0.9837689399719238 0.9967032670974731
vt 0.3684951663017273 0.8572455048561096
vt 0.9867678880691528 0.9407556056976318
vt 0.9835966229438782 0.8785629272460938
vt 0.44829535484313965 0.7941679954528809
vt 0.19860729575157166 0.4875573515892029
vt 0.4574848413467407 0.19968092441558838
vt 0.9769103527069092 0.10288679599761963
vt 0.45736998319625854 0.19982588291168213
vt 0.9585533142089844 0.5047165155410767
vt 0.4498801529407501 0.7945194244384766
vt 0.19676506519317627 0.48694002628326416
vt 0.37119075655937195 0.15080612897872925
vt 0.11203750967979431 0.4860222339630127
vt 0.2767549753189087 0.9137841463088989
vt 0.009887339547276497 0.48288393020629883
vt 0.2969124913215637 0.10940665006637573
g Geoset0
s 1
usemtl mat_trunk01
f 1/1/1 2/2/2 3/3/3
f 4/4/4 5/5/5 6/6/6
f 7/7/7 5/5/5 4/4/4
f 7/7/7 8/8/8 5/5/5
f 6/6/6 9/9/9 10/10/10
f 5/5/5 9/9/9 6/6/6
f 5/5/5 3/3/3 9/9/9
f 8/8/8 3/3/3 5/5/5
f 11/11/11 12/12/12 13/13/13
f 11/11/11 14/14/14 12/12/12
f 14/14/14 10/10/10 12/12/12
f 14/14/14 15/15/15 10/10/10
f 16/16/16 17/17/17 18/18/18
f 17/17/17 19/19/19 18/18/18
f 17/17/17 20/20/20 19/19/19
f 20/20/20 13/13/13 19/19/19
f 20/20/20 21/21/21 13/13/13
f 21/21/21 11/11/11 13/13/13
f 22/22/22 11/11/11 21/21/21
f 22/22/22 14/14/14 11/11/11
f 22/22/22 4/4/4 14/14/14
f 4/4/4 15/15/15 14/14/14
f 23/23/23 7/7/7 4/4/4
f 23/23/23 4/4/4 22/22/22
f 24/24/24 21/21/21 20/20/20
f 24/24/24 22/22/22 21/21/21
f 25/25/25 22/22/22 24/24/24
f 25/25/25 23/23/23 22/22/22
f 26/26/26 20/20/20 17/17/17
f 26/26/26 24/24/24 20/20/20
f 27/27/27 24/24/24 26/26/26
f 27/27/27 25/25/25 24/24/24
f 28/28/28 17/17/17 16/16/16
f 28/28/28 26/26/26 17/17/17
f 29/29/29 26/26/26 28/28/28
f 29/29/29 27/27/27 26/26/26
f 30/30/30 31/31/31 32/32/32
f 30/30/30 33/33/33 31/31/31
f 30/30/30 16/16/16 33/33/33
f 16/16/16 18/18/18 33/33/33
f 34/34/34 16/16/16 30/30/30
f 34/34/34 28/28/28 16/16/16
f 35/35/35 28/28/28 34/34/34
f 35/35/35 29/29/29 28/28/28
f 9/9/9 32/32/32 10/10/10
f 9/9/9 30/30/30 32/32/32
f 3/3/3 30/30/30 9/9/9
f 3/3/3 34/34/34 30/30/30
f 2/2/2 34/34/34 3/3/3
f 2/2/2 35/35/35 34/34/34
g Geoset1
s 1
usemtl mat_trunkend02
f 36/36/36 37/37/37 38/38/38
f 39/39/39 40/40/40 41/41/41
f 41/41/41 42/42/42 39/39/39
f 42/42/42 41/41/41 43/43/43
f 43/43/43 44/44/44 42/42/42
f 45/45/45 44/44/44 43/43/43
f 45/45/45 46/46/46 44/44/44
f 45/45/45 47/47/47 46/46/46
f 48/48/48 41/41/41 40/40/40
f 40/40/40 49/49/49 48/48/48
f 50/50/50 48/48/48 49/49/49
f 49/49/49 51/51/51 50/50/50
f 52/52/52 43/43/43 41/41/41
f 41/41/41 48/48/48 52/52/52
f 53/53/53 52/52/52 48/48/48
f 48/48/48 50/50/50 53/53/53
f 45/45/45 52/52/52 53/53/53
f 45/45/45 43/43/43 52/52/52
f 45/45/45 53/53/53 54/54/54
f 45/45/45 55/55/55 47/47/47
f 45/45/45 54/54/54 55/55/55
f 54/54/54 53/53/53 50/50/50
f 50/50/50 56/56/56 54/54/54
f 55/55/55 54/54/54 56/56/56
f 56/56/56 57/57/57 55/55/55
f 47/47/47 55/55/55 57/57/57
f 57/57/57 58/58/58 47/47/47
f 46/46/46 47/47/47 58/58/58
f 58/58/58 59/59/59 46/46/46
f 44/44/44 46/46/46 59/59/59
f 59/59/59 42/42/42 44/44/44
f 56/56/56 50/50/50 51/51/51
f 51/51/51 60/60/60 56/56/56
f 57/57/57 56/56/56 60/60/60
f 60/60/60 61/61/61 57/57/57
f 58/58/58 57/57/57 61/61/61
f 61/61/61 62/62/62 58/58/58
f 59/59/59 58/58/58 62/62/62
f 62/62/62 63/63/63 59/59/59
f 42/42/42 59/59/59 63/63/63
f 63/63/63 39/39/39 42/42/42
f 64/64/64 36/36/36 65/65/65
f 38/38/38 65/65/65 36/36/36
f 65/65/65 66/66/66 64/64/64
f 67/67/67 64/64/64 66/66/66
f 66/66/66 68/68/68 67/67/67
f 69/69/69 67/67/67 68/68/68
f 70/70/70 71/71/71 72/72/72
f 73/73/73 72/72/72 71/71/71
f 71/71/71 68/68/68 73/73/73
f 74/74/74 73/73/73 68/68/68
f 68/68/68 66/66/66 74/74/74
f 75/75/75 74/74/74 66/66/66
f 66/66/66 65/65/65 75/75/75
f 76/76/76 75/75/75 65/65/65
f 65/65/65 38/38/38 76/76/76
f 77/77/77 76/76/76 38/38/38
f 78/78/78 75/75/75 76/76/76
f 78/78/78 76/76/76 77/77/77
f 74/74/74 75/75/75 78/78/78
f 73/73/73 74/74/74 78/78/78
f 78/78/78 72/72/72 73/73/73
f 78/78/78 79/79/79 72/72/72
f 78/78/78 80/80/80 79/79/79
f 78/78/78 77/77/77 80/80/80
f 80/80/80 77/77/77 81/81/81
f 38/38/38 81/81/81 77/77/77
f 81/81/81 82/82/82 80/80/80
f 79/79/79 80/80/80 82/82/82
f 82/82/82 70/70/70 79/79/79
f 72/72/72 79/79/79 70/70/70
f 68/68/68 71/71/71 69/69/69
f 83/83/83 69/69/69 71/71/71
f 71/71/71 70/70/70 83/83/83
f 84/84/84 83/83/83 70/70/70
f 70/70/70 82/82/82 84/84/84
f 85/85/85 84/84/84 82/82/82
f 82/82/82 81/81/81 85/85/85
f 37/37/37 85/85/85 81/81/81
f 81/81/81 38/38/38 37/37/37