# Exported using wow.export v0.1.49
o 
mtllib redridgetreecanopy02.mtl
v 0.9001190066337585 11.13029956817627 -5.312930107116699
v -0.16520799696445465 11.94890022277832 -2.6651101112365723
v -0.6479640007019043 18.45870018005371 -15.428600311279297
v 1.5073200464248657 11.659500122070312 1.5111299753189087
v 4.070069789886475 10.571399688720703 1.5899200439453125
v 13.679200172424316 25.082199096679688 13.565199851989746
v 0.1594800055027008 5.414609909057617 2.8551199436187744
v -3.2525100708007812 6.04902982711792 2.5515100955963135
v -1.4717899560928345 -1.9471700191497803 5.602230072021484
v -7.1308698654174805 -1.9471700191497803 2.3349599838256836
v -4.707980155944824 6.2728800773620605 -0.6056749820709229
v -7.1308698654174805 -1.9471700191497803 -4.199570178985596
v -3.402129888534546 11.44789981842041 0.9261000156402588
v -0.4486669898033142 12.003399848937988 0.6338670253753662
v -13.906499862670898 22.810800552368164 11.997699737548828
v -0.9530249834060669 10.52560043334961 3.199860095977783
v -1.174649953842163 19.298599243164062 17.10099983215332
v 4.070069789886475 10.571399688720703 1.5899200439453125
v 2.506350040435791 11.478300094604492 -0.7656610012054443
v 13.679200172424316 25.082199096679688 13.565199851989746
v 0.1594800055027008 5.414609909057617 2.8551199436187744
v 2.1299800872802734 5.0832600593566895 0.0015472200466319919
v 2.276560068130493 11.518400192260742 -2.9242000579833984
v 0.9001190066337585 11.13029956817627 -5.312930107116699
v -0.6479640007019043 18.45870018005371 -15.428600311279297
v 4.790110111236572 10.460000038146973 -1.695889949798584
v 14.392399787902832 24.976299285888672 -14.393099784851074
v 0.677361011505127 5.32328987121582 -3.155639886856079
v -1.4717899560928345 -1.9471700191497803 5.602230072021484
v 4.187280178070068 -1.9471700191497803 2.3349599838256836
v 4.187270164489746 -1.9471700191497803 -4.199570178985596
v -1.8913999795913696 12.252599716186523 -1.3838200569152832
v -3.402129888534546 11.44789981842041 0.9261000156402588
v -13.906499862670898 22.810800552368164 11.997699737548828
v -4.707980155944824 6.2728800773620605 -0.6056749820709229
v -2.737839937210083 5.939509868621826 -3.4592599868774414
v -7.1308698654174805 -1.9471700191497803 -4.199570178985596
v -1.4717899560928345 -1.9471700191497803 -7.466829776763916
v 0.677361011505127 5.32328987121582 -3.155639886856079
v 4.187270164489746 -1.9471700191497803 -4.199570178985596
v -2.7579500675201416 10.899900436401367 -4.300869941711426
v -13.933500289916992 23.233200073242188 -12.97070026397705
v -12.839400291442871 5.755270004272461 -16.12700080871582
v -0.1115029975771904 12.919500350952148 -0.7183030247688293
v -33.16659927368164 22.52589988708496 -1.588420033454895
v -11.01039981842041 47.211299896240234 10.032400131225586
v -0.695222020149231 46.998600006103516 0.7998420000076294
v -33.16659927368164 22.52589988708496 -1.588420033454895
v 10.147899627685547 46.78580093383789 -8.960539817810059
v -0.9659079909324646 24.551599502563477 -31.771299362182617
v 10.147899627685547 46.78580093383789 -8.960539817810059
v 32.141700744628906 23.684499740600586 0.8840749859809875
v -11.01039981842041 47.211299896240234 10.032400131225586
v -1.932610034942627 24.41360092163086 31.43440055847168
v -10.492199897766113 47.234798431396484 -9.722040176391602
v -0.9659079909324646 24.551599502563477 -31.771299362182617
v 8.833840370178223 46.80929946899414 11.384900093078613
v 32.141700744628906 23.684499740600586 0.8840749859809875
v -10.492199897766113 47.234798431396484 -9.722040176391602
v -33.16659927368164 22.52589988708496 -1.588420033454895
v -1.932610034942627 24.41360092163086 31.43440055847168
v 8.833840370178223 46.80929946899414 11.384900093078613
v -16.91469955444336 39.270198822021484 14.849699974060059
v -33.16659927368164 22.52589988708496 -1.588420033454895
v -13.906499862670898 22.810800552368164 11.997699737548828
v -1.932610034942627 24.41360092163086 31.43440055847168
v -17.081499099731445 36.094600677490234 -15.475099563598633
v -0.9659079909324646 24.551599502563477 -31.771299362182617
v -13.933500289916992 23.233200073242188 -12.97070026397705
v -33.16659927368164 22.52589988708496 -1.588420033454895
v 15.53600025177002 39.46120071411133 -15.742500305175781
v 32.141700744628906 23.684499740600586 0.8840749859809875
v 14.392399787902832 24.976299285888672 -14.393099784851074
v -0.9659079909324646 24.551599502563477 -31.771299362182617
v 17.86829948425293 35.93510055541992 17.203500747680664
v -1.932610034942627 24.41360092163086 31.43440055847168
v 13.679200172424316 25.082199096679688 13.565199851989746
v 32.141700744628906 23.684499740600586 0.8840749859809875
v -16.91469955444336 39.270198822021484 14.849699974060059
v -19.804500579833984 26.66320037841797 0.28106701374053955
v -13.906499862670898 22.810800552368164 11.997699737548828
v -17.081499099731445 36.094600677490234 -15.475099563598633
v -16.91469955444336 39.270198822021484 14.849699974060059
v -13.933500289916992 23.233200073242188 -12.97070026397705
v 17.86829948425293 35.93510055541992 17.203500747680664
v -1.2666699886322021 27.034000396728516 20.734800338745117
v 13.679200172424316 25.082199096679688 13.565199851989746
v -16.91469955444336 39.270198822021484 14.849699974060059
v 17.86829948425293 35.93510055541992 17.203500747680664
v -13.906499862670898 22.810800552368164 11.997699737548828
v -17.081499099731445 36.094600677490234 -15.475099563598633
v 0.20687200129032135 26.89259910583496 -20.452899932861328
v -13.933500289916992 23.233200073242188 -12.97070026397705
v 15.53600025177002 39.46120071411133 -15.742500305175781
v -17.081499099731445 36.094600677490234 -15.475099563598633
v 14.392399787902832 24.976299285888672 -14.393099784851074
v 11.75059986114502 5.755270004272461 14.182700157165527
v -1.932610034942627 24.41360092163086 31.43440055847168
v -15.393500328063965 5.755259990692139 11.450300216674805
v -1.932610034942627 24.41360092163086 31.43440055847168
v 14.916199684143066 5.755270004272461 -13.139699935913086
v 32.141700744628906 23.684499740600586 0.8840749859809875
v 11.75059986114502 5.755270004272461 14.182700157165527
v 32.141700744628906 23.684499740600586 0.8840749859809875
v -12.839400291442871 5.755270004272461 -16.12700080871582
v -0.9659079909324646 24.551599502563477 -31.771299362182617
v 14.916199684143066 5.755270004272461 -13.139699935913086
v -0.9659079909324646 24.551599502563477 -31.771299362182617
v -15.393500328063965 5.755259990692139 11.450300216674805
v -33.16659927368164 22.52589988708496 -1.588420033454895
v 15.53600025177002 39.46120071411133 -15.742500305175781
v 17.86829948425293 35.93510055541992 17.203500747680664
v 19.472700119018555 26.888399124145508 0.5997530221939087
v 13.679200172424316 25.082199096679688 13.565199851989746
v 14.392399787902832 24.976299285888672 -14.393099784851074
v 15.53600025177002 39.46120071411133 -15.742500305175781
vn -0.07738640159368515 -0.35092198848724365 -0.9332020282745361
vn -0.19008499383926392 -0.09959779679775238 -0.9767029881477356
vn -0.07523459941148758 -0.5368220210075378 -0.8403339982032776
vn 0.26207900047302246 -0.1451060026884079 0.9540749788284302
vn 0.8355640172958374 -0.32834601402282715 0.44047999382019043
vn 0.6125169992446899 -0.5617319941520691 0.5561299920082092
vn 0.5430009961128235 0.07180240005254745 0.8366569876670837
vn -0.48985201120376587 0.15649500489234924 0.8576449751853943
vn -0.006619090214371681 0.13364699482917786 0.9910069704055786
vn -0.866129994392395 0.15434099733829498 0.47539299726486206
vn -0.9820700287818909 0.18370400369167328 0.04231389984488487
vn -0.8276879787445068 0.18932999670505524 -0.5282869935035706
vn -0.8267350196838379 -0.2328290045261383 0.5121530294418335
vn -0.7318500280380249 0.023445000872015953 0.6810629963874817
vn -0.6595219969749451 -0.5175319910049438 0.545153021812439
vn -0.43198901414871216 -0.20566900074481964 0.8781149983406067
vn -0.521888017654419 -0.5039079785346985 0.6882659792900085
vn 0.8355640172958374 -0.32834601402282715 0.44047999382019043
vn 0.9471989870071411 -0.029183899983763695 0.31931599974632263
vn 0.6125169992446899 -0.5617319941520691 0.5561299920082092
vn 0.5430009961128235 0.07180240005254745 0.8366569876670837
vn 0.9968529939651489 0.05715189874172211 0.05493669956922531
vn 0.6780660152435303 -0.21289099752902985 -0.7034940123558044
vn -0.07738640159368515 -0.35092198848724365 -0.9332020282745361
vn -0.07523459941148758 -0.5368220210075378 -0.8403339982032776
vn 0.9656040072441101 -0.25911998748779297 -0.021584000438451767
vn 0.7057120203971863 -0.44149500131607056 -0.5541229844093323
vn 0.4896790087223053 0.0815436989068985 -0.8680809736251831
vn -0.006619090214371681 0.13364699482917786 0.9910069704055786
vn 0.8477309942245483 0.1531430035829544 0.5078369975090027
vn 0.872596025466919 0.19006100296974182 -0.4499480128288269
vn -0.9789549708366394 0.007740749977529049 -0.20392900705337524
vn -0.8267350196838379 -0.2328290045261383 0.5121530294418335
vn -0.6595219969749451 -0.5175319910049438 0.545153021812439
vn -0.9820700287818909 0.18370400369167328 0.04231389984488487
vn -0.4284619987010956 0.1467379927635193 -0.8915650248527527
vn -0.8276879787445068 0.18932999670505524 -0.5282869935035706
vn 0.0642981007695198 0.20559699833393097 -0.9765220284461975
vn 0.4896790087223053 0.0815436989068985 -0.8680809736251831
vn 0.872596025466919 0.19006100296974182 -0.4499480128288269
vn -0.57361900806427 -0.2382819950580597 -0.7836980223655701
vn -0.5017160177230835 -0.5556460022926331 -0.6629769802093506
vn -0.2834469974040985 -0.6753379702568054 0.6808639764785767
vn 0.023742500692605972 -0.9995359778404236 -0.019090600311756134
vn -0.9736620187759399 -0.2252880036830902 -0.03503419831395149
vn -0.0021511800587177277 0.999983012676239 -0.005476959981024265
vn -0.0061165099032223225 0.9996830224990845 0.02441360056400299
vn -0.9736620187759399 -0.2252880036830902 -0.03503419831395149
vn 0.023730700835585594 0.9991710186004639 0.033066898584365845
vn 0.0647708997130394 -0.13065700232982635 -0.9893100261688232
vn 0.023730700835585594 0.9991710186004639 0.033066898584365845
vn 0.9791269898414612 -0.2009669989347458 0.03036610037088394
vn -0.0021511800587177277 0.999983012676239 -0.005476959981024265
vn -0.08162199705839157 -0.19855999946594238 0.9766839742660522
vn 0.0009652390144765377 0.9994829893112183 0.03213600069284439
vn 0.0647708997130394 -0.13065700232982635 -0.9893100261688232
vn -0.006043519824743271 0.9993709921836853 0.034946199506521225
vn 0.9791269898414612 -0.2009669989347458 0.03036610037088394
vn 0.0009652390144765377 0.9994829893112183 0.03213600069284439
vn -0.9736620187759399 -0.2252880036830902 -0.03503419831395149
vn -0.08162199705839157 -0.19855999946594238 0.9766839742660522
vn -0.006043519824743271 0.9993709921836853 0.034946199506521225
vn -0.6677709817886353 -0.023230500519275665 0.7440040111541748
vn -0.9736620187759399 -0.2252880036830902 -0.03503419831395149
vn -0.6595219969749451 -0.5175319910049438 0.545153021812439
vn -0.08162199705839157 -0.19855999946594238 0.9766839742660522
vn -0.6351600289344788 -0.1010269969701767 -0.7657449841499329
vn 0.0647708997130394 -0.13065700232982635 -0.9893100261688232
vn -0.5017160177230835 -0.5556460022926331 -0.6629769802093506
vn -0.9736620187759399 -0.2252880036830902 -0.03503419831395149
vn 0.6391699910163879 0.023518500849604607 -0.7687060236930847
vn 0.9791269898414612 -0.2009669989347458 0.03036610037088394
vn 0.7057120203971863 -0.44149500131607056 -0.5541229844093323
vn 0.0647708997130394 -0.13065700232982635 -0.9893100261688232
vn 0.6152669787406921 -0.21973499655723572 0.7570750117301941
vn -0.08162199705839157 -0.19855999946594238 0.9766839742660522
vn 0.6125169992446899 -0.5617319941520691 0.5561299920082092
vn 0.9791269898414612 -0.2009669989347458 0.03036610037088394
vn -0.6677709817886353 -0.023230500519275665 0.7440040111541748
vn -0.9084720015525818 -0.40636301040649414 0.09771409630775452
vn -0.6595219969749451 -0.5175319910049438 0.545153021812439
vn -0.6351600289344788 -0.1010269969701767 -0.7657449841499329
vn -0.6677709817886353 -0.023230500519275665 0.7440040111541748
vn -0.5017160177230835 -0.5556460022926331 -0.6629769802093506
vn 0.6152669787406921 -0.21973499655723572 0.7570750117301941
vn -0.08899609744548798 -0.3636839985847473 0.9272609949111938
vn 0.6125169992446899 -0.5617319941520691 0.5561299920082092
vn -0.6677709817886353 -0.023230500519275665 0.7440040111541748
vn 0.6152669787406921 -0.21973499655723572 0.7570750117301941
vn -0.6595219969749451 -0.5175319910049438 0.545153021812439
vn -0.6351600289344788 -0.1010269969701767 -0.7657449841499329
vn 0.07077019661664963 -0.3058359920978546 -0.9494500160217285
vn -0.5017160177230835 -0.5556460022926331 -0.6629769802093506
vn 0.6391699910163879 0.023518500849604607 -0.7687060236930847
vn -0.6351600289344788 -0.1010269969701767 -0.7657449841499329
vn 0.7057120203971863 -0.44149500131607056 -0.5541229844093323
vn -0.25893300771713257 -0.9231330156326294 -0.2842159867286682
vn -0.08162199705839157 -0.19855999946594238 0.9766839742660522
vn 0.6038920283317566 -0.7370849847793579 0.30334600806236267
vn -0.08162199705839157 -0.19855999946594238 0.9766839742660522
vn 0.13586999475955963 -0.634742021560669 0.7606850266456604
vn 0.9791269898414612 -0.2009669989347458 0.03036610037088394
vn -0.25893300771713257 -0.9231330156326294 -0.2842159867286682
vn 0.9791269898414612 -0.2009669989347458 0.03036610037088394
vn 0.6971060037612915 -0.5880780220031738 -0.4101310074329376
vn 0.0647708997130394 -0.13065700232982635 -0.9893100261688232
vn -0.5913450121879578 -0.7522240281105042 -0.29063698649406433
vn 0.0647708997130394 -0.13065700232982635 -0.9893100261688232
vn -0.10550399869680405 -0.6337670087814331 -0.7662950158119202
vn -0.9736620187759399 -0.2252880036830902 -0.03503419831395149
vn 0.6391699910163879 0.023518500849604607 -0.7687060236930847
vn 0.6152669787406921 -0.21973499655723572 0.7570750117301941
vn 0.9026979804039001 -0.41682499647140503 -0.10673700273036957
vn 0.6125169992446899 -0.5617319941520691 0.5561299920082092
vn 0.7057120203971863 -0.44149500131607056 -0.5541229844093323
vn 0.6391699910163879 0.023518500849604607 -0.7687060236930847
vt 0.007874020375311375 0.6007829904556274
vt 0.25196900963783264 0.6007829904556274
vt 0.007874020375311375 0.9960861201398075
vt 0.7559059858322144 0.6007829904556274
vt 0.9921259880065918 0.6007829904556274
vt 0.9921259880065918 0.9960861201398075
vt 0.9921259880065918 0.46860402822494507
vt 0.4881890118122101 0.46860402822494507
vt 0.9921259880065918 0.003913998603820801
vt 0.4881890118122101 0.003913998603820801
vt 0.007874020375311375 0.46860402822494507
vt 0.007874020375311375 0.003913998603820801
vt 0.007874020375311375 0.6007829904556274
vt 0.25196900963783264 0.6007829904556274
vt 0.007874020375311375 0.9960861201398075
vt 0.4881890118122101 0.6007829904556274
vt 0.4881890118122101 0.9960861201398075
vt 0.007874020375311375 0.6007829904556274
vt 0.25196900963783264 0.6007829904556274
vt 0.007874020375311375 0.9960861201398075
vt 0.007874020375311375 0.46860402822494507
vt 0.4881890118122101 0.46860402822494507
vt 0.7559059858322144 0.6007829904556274
vt 0.9921259880065918 0.6007829904556274
vt 0.9921259880065918 0.9960861201398075
vt 0.4881890118122101 0.6007829904556274
vt 0.4881890118122101 0.9960861201398075
vt 0.9921259880065918 0.46860402822494507
vt 0.007874020375311375 0.003913998603820801
vt 0.4881890118122101 0.003913998603820801
vt 0.9921259880065918 0.003913998603820801
vt 0.7559059858322144 0.6007829904556274
vt 0.9921259880065918 0.6007829904556274
vt 0.9921259880065918 0.9960861201398075
vt 0.9921259880065918 0.46860402822494507
vt 0.4881890118122101 0.46860402822494507
vt 0.9921259880065918 0.003913998603820801
vt 0.4881890118122101 0.003913998603820801
vt 0.007874020375311375 0.46860402822494507
vt 0.007874020375311375 0.003913998603820801
vt 0.4881890118122101 0.6007829904556274
vt 0.4881890118122101 0.9960861201398075
vt 0.003913890104740858 0.007827997207641602
vt 0.49803900718688965 0.007843017578125
vt 0.003921569790691137 0.8470589965581894
vt 0.9960860013961792 0.9960861201398075
vt 0.5000039935112 0.9960822500288486
vt 0.9960780143737793 0.007843017578125
vt 0.003921569790691137 0.9960784302093089
vt 0.003921569790691137 0.007843017578125
vt 0.9960860013961792 0.9960861201398075
vt 0.9960780143737793 0.007843017578125
vt 0.003921569790691137 0.9960784302093089
vt 0.003921569790691137 0.007843017578125
vt 0.9960860013961792 0.9960861201398075
vt 0.9960780143737793 0.007843017578125
vt 0.003921569790691137 0.9960784302093089
vt 0.003921569790691137 0.007843017578125
vt 0.003921569790691137 0.9960784302093089
vt 0.003921569790691137 0.007843017578125
vt 0.9960780143737793 0.007843017578125
vt 0.9960860013961792 0.9960861201398075
vt 0.49019598960876465 0.9921568604186177
vt 0.9960780143737793 0.878430999815464
vt 0.49019598960876465 0.517646998167038
vt 0.003921569790691137 0.8470589965581894
vt 0.5058820247650146 0.9921568604186177
vt 0 0.8470589965581894
vt 0.5058820247650146 0.517646998167038
vt 0.992156982421875 0.8470589965581894
vt 0.49019598960876465 0.9921568604186177
vt 0.9960780143737793 0.8470589965581894
vt 0.49019598960876465 0.517646998167038
vt 0.003921569790691137 0.8470589965581894
vt 0.5058820247650146 0.9921568604186177
vt 0 0.8470589965581894
vt 0.5058820247650146 0.517646998167038
vt 0.992156982421875 0.8470589965581894
vt 0.9960860013961792 0.9960861201398075
vt 0.49803200364112854 0.5019530057907104
vt 0.7470589876174927 0.5019609928131104
vt 0.003921569790691137 0.9960784302093089
vt 0.9960780143737793 0.9960784302093089
vt 0.2509799897670746 0.5019609928131104
vt 0.9960860013961792 0.9960861201398075
vt 0.49803200364112854 0.5019530057907104
vt 0.7470589876174927 0.5019609928131104
vt 0.003921569790691137 0.9960784302093089
vt 0.9960780143737793 0.9960784302093089
vt 0.2509799897670746 0.5019609928131104
vt 0.9960860013961792 0.9960861201398075
vt 0.49803200364112854 0.5019530057907104
vt 0.7470589876174927 0.5019609928131104
vt 0.003921569790691137 0.9960784302093089
vt 0.9960780143737793 0.9960784302093089
vt 0.2509799897670746 0.5019609928131104
vt 0.9960780143737793 0.007843017578125
vt 0.9960780143737793 0.8509799987077713
vt 0.992156982421875 0.007843017578125
vt 0.992156982421875 0.8470589965581894
vt 0 0.007843017578125
vt 0 0.8470589965581894
vt 0.003921569790691137 0.007843017578125
vt 0.003921569790691137 0.8470589965581894
vt 0.9960780143737793 0.007843017578125
vt 0.9960780143737793 0.8470589965581894
vt 0.992156982421875 0.007843017578125
vt 0.992156982421875 0.8470589965581894
vt 0 0.007843017578125
vt 0 0.8470589965581894
vt 0.9960780143737793 0.9960784302093089
vt 0.003921569790691137 0.9960784302093089
vt 0.49803200364112854 0.5019530057907104
vt 0.2509799897670746 0.5019609928131104
vt 0.7470589876174927 0.5019609928131104
vt 0.9960860013961792 0.9960861201398075
g Geoset0
s 1
usemtl mat_redridgetreetrunkskin
f 1/1/1 2/2/2 3/3/3
f 4/4/4 5/5/5 6/6/6
f 4/4/4 7/7/7 5/5/5
f 8/8/8 7/7/7 4/4/4
f 8/8/8 9/9/9 7/7/7
f 10/10/10 9/9/9 8/8/8
f 11/11/11 10/10/10 8/8/8
f 12/12/12 10/10/10 11/11/11
f 13/13/13 14/14/14 15/15/15
f 14/14/14 16/16/16 17/17/17
f 16/16/16 4/4/4 17/17/17
f 8/8/8 4/4/4 16/16/16
f 14/14/14 8/8/8 16/16/16
f 11/11/11 8/8/8 14/14/14
f 11/11/11 14/14/14 13/13/13
f 18/18/18 19/19/19 20/20/20
f 21/21/21 19/19/19 18/18/18
f 21/21/21 22/22/22 19/19/19
f 23/23/23 24/24/24 25/25/25
f 26/26/26 23/23/23 27/27/27
f 19/19/19 26/26/26 27/27/27
f 19/19/19 22/22/22 26/26/26
f 22/22/22 23/23/23 26/26/26
f 22/22/22 28/28/28 23/23/23
f 23/23/23 28/28/28 24/24/24
f 29/29/29 30/30/30 21/21/21
f 21/21/21 30/30/30 22/22/22
f 30/30/30 31/31/31 22/22/22
f 22/22/22 31/31/31 28/28/28
f 32/32/32 33/33/33 34/34/34
f 32/32/32 35/35/35 33/33/33
f 36/36/36 35/35/35 32/32/32
f 36/36/36 37/37/37 35/35/35
f 38/38/38 37/37/37 36/36/36
f 39/39/39 38/38/38 36/36/36
f 40/40/40 38/38/38 39/39/39
f 41/41/41 32/32/32 42/42/42
f 36/36/36 32/32/32 41/41/41
f 2/2/2 36/36/36 41/41/41
f 39/39/39 36/36/36 2/2/2
f 39/39/39 2/2/2 1/1/1
f 2/2/2 41/41/41 42/42/42
g Geoset1
s 1
usemtl mat_elwynntreetallcanopy_new03
f 43/43/43 44/44/44 45/45/45
f 46/46/46 47/47/47 48/48/48
f 47/47/47 49/49/49 50/50/50
f 50/50/50 48/48/48 47/47/47
f 51/51/51 47/47/47 52/52/52
f 47/47/47 53/53/53 54/54/54
f 54/54/54 52/52/52 47/47/47
f 55/55/55 47/47/47 56/56/56
f 47/47/47 57/57/57 58/58/58
f 58/58/58 56/56/56 47/47/47
f 47/47/47 59/59/59 60/60/60
f 60/60/60 61/61/61 47/47/47
f 62/62/62 47/47/47 61/61/61
f 63/63/63 64/64/64 65/65/65
f 64/64/64 44/44/44 65/65/65
f 44/44/44 66/66/66 65/65/65
f 65/65/65 66/66/66 63/63/63
f 67/67/67 68/68/68 69/69/69
f 68/68/68 44/44/44 69/69/69
f 44/44/44 70/70/70 69/69/69
f 69/69/69 70/70/70 67/67/67
f 71/71/71 72/72/72 73/73/73
f 72/72/72 44/44/44 73/73/73
f 44/44/44 74/74/74 73/73/73
f 73/73/73 74/74/74 71/71/71
f 75/75/75 76/76/76 77/77/77
f 76/76/76 44/44/44 77/77/77
f 44/44/44 78/78/78 77/77/77
f 77/77/77 78/78/78 75/75/75
f 79/79/79 80/80/80 81/81/81
f 82/82/82 80/80/80 83/83/83
f 44/44/44 81/81/81 80/80/80
f 84/84/84 44/44/44 80/80/80
f 84/84/84 80/80/80 82/82/82
f 85/85/85 86/86/86 87/87/87
f 88/88/88 86/86/86 89/89/89
f 44/44/44 87/87/87 86/86/86
f 90/90/90 44/44/44 86/86/86
f 90/90/90 86/86/86 88/88/88
f 91/91/91 92/92/92 93/93/93
f 94/94/94 92/92/92 95/95/95
f 44/44/44 93/93/93 92/92/92
f 96/96/96 44/44/44 92/92/92
f 96/96/96 92/92/92 94/94/94
f 44/44/44 97/97/97 98/98/98
f 99/99/99 44/44/44 100/100/100
f 44/44/44 101/101/101 102/102/102
f 103/103/103 44/44/44 104/104/104
f 44/44/44 105/105/105 106/106/106
f 107/107/107 44/44/44 108/108/108
f 44/44/44 109/109/109 110/110/110
f 111/111/111 112/112/112 113/113/113
f 114/114/114 113/113/113 112/112/112
f 44/44/44 115/115/115 113/113/113
f 116/116/116 113/113/113 115/115/115
f 114/114/114 44/44/44 113/113/113