# Exported using wow.export v0.1.49
o 
mtllib clothspoolblue.mtl
v 0 0.036093901842832565 0
v 0.09311830252408981 0.036093901842832565 0.05376189947128296
v 0 0.036093901842832565 0.10752400010824203
v 0 0.28501901030540466 0
v 0.09311830252408981 0.28501901030540466 0.05376189947128296
v 0.09311830252408981 0.28501901030540466 -0.05376189947128296
v 0 0.28501901030540466 0.10752400010824203
v -0.09311830252408981 0.28501901030540466 0.05376189947128296
v -0.09311830252408981 0.28501901030540466 -0.05376189947128296
v 0 0.28501901030540466 -0.10752400010824203
v 0 0.24830399453639984 0.0820792019367218
v 0.09311830252408981 0.28501901030540466 0.05376189947128296
v 0 0.28501901030540466 0.10752400010824203
v 0.07108250260353088 0.24830399453639984 0.041039399802684784
v 0 0.16055700182914734 0.0820792019367218
v 0.07108250260353088 0.16055700182914734 0.041039399802684784
v 0 0.07281079888343811 0.0820792019367218
v 0.07108250260353088 0.07281079888343811 0.041039399802684784
v 0 0.036093901842832565 0.10752400010824203
v 0.09311830252408981 0.036093901842832565 0.05376189947128296
v 0.09311830252408981 0.28501901030540466 -0.05376189947128296
v 0.07108250260353088 0.24830399453639984 -0.041039399802684784
v 0.07108250260353088 0.16055700182914734 -0.041039399802684784
v 0.07108250260353088 0.07281079888343811 -0.041039399802684784
v 0.09311830252408981 0.036093901842832565 -0.05376189947128296
v 0 0.28501901030540466 -0.10752400010824203
v 0 0.24830399453639984 -0.0820792019367218
v 0 0.16055700182914734 -0.0820792019367218
v 0 0.07281079888343811 -0.0820792019367218
v 0 0.036093901842832565 -0.10752400010824203
v -0.09311830252408981 0.28501901030540466 -0.05376189947128296
v -0.07108250260353088 0.24830399453639984 -0.041039399802684784
v -0.07108250260353088 0.16055700182914734 -0.041039399802684784
v -0.07108250260353088 0.07281079888343811 -0.041039399802684784
v -0.09311830252408981 0.036093901842832565 -0.05376189947128296
v -0.09311830252408981 0.28501901030540466 0.05376189947128296
v -0.07108250260353088 0.24830399453639984 0.041039399802684784
v -0.07108250260353088 0.16055700182914734 0.041039399802684784
v -0.07108250260353088 0.07281079888343811 0.041039399802684784
v -0.09311830252408981 0.036093901842832565 0.05376189947128296
v -0.09311830252408981 0.036093901842832565 -0.05376189947128296
v 0 0.036093901842832565 -0.10752400010824203
v 0.09311830252408981 0.036093901842832565 -0.05376189947128296
v -0.09311830252408981 0.036093901842832565 0.05376189947128296
vn -4.440889980918258e-15 -1 -4.106199824605028e-8
vn 0.926364004611969 -0.19715799391269684 0.3209019899368286
vn 0.18527300655841827 -0.19715799391269684 0.9627060294151306
vn 0 1 0
vn 0.7410910129547119 0.19715799391269684 0.6418039798736572
vn 0.926364004611969 0.19715799391269684 -0.3209019899368286
vn -0.18527300655841827 0.19715799391269684 0.9627060294151306
vn -0.926364004611969 0.19715799391269684 0.3209019899368286
vn -0.7410910129547119 0.19715799391269684 -0.6418039798736572
vn 0.18527300655841827 0.19715799391269684 -0.9627060294151306
vn -0.01406749989837408 -0.3046630024909973 0.9523559808731079
vn 0.7410910129547119 0.19715799391269684 0.6418039798736572
vn -0.18527300655841827 0.19715799391269684 0.9627060294151306
vn 0.8177310228347778 -0.3046630024909973 0.4883610010147095
vn 9.176729776072534e-8 6.289639919998535e-9 1
vn 0.866025984287262 6.289639919998535e-9 0.5
vn 0.014067700132727623 0.3046630024909973 0.9523559808731079
vn 0.8317989706993103 0.3046630024909973 0.4639950096607208
vn 0.18527300655841827 -0.19715799391269684 0.9627060294151306
vn 0.926364004611969 -0.19715799391269684 0.3209019899368286
vn 0.926364004611969 0.19715799391269684 -0.3209019899368286
vn 0.8317980170249939 -0.3046630024909973 -0.4639950096607208
vn 0.8660249710083008 0 -0.5
vn 0.8177310228347778 0.3046630024909973 -0.4883610010147095
vn 0.7410910129547119 -0.19715799391269684 -0.6418039798736572
vn 0.18527300655841827 0.19715799391269684 -0.9627060294151306
vn 0.01406749989837408 -0.3046630024909973 -0.9523559808731079
vn -5.1619100105426696e-8 1.2579300268100724e-8 -1
vn -0.014067599549889565 0.3046630024909973 -0.9523559808731079
vn -0.18527300655841827 -0.19715799391269684 -0.9627060294151306
vn -0.7410910129547119 0.19715799391269684 -0.6418039798736572
vn -0.8177310228347778 -0.3046630024909973 -0.4883610010147095
vn -0.8660249710083008 6.289639919998535e-9 -0.5
vn -0.8317989706993103 0.3046630024909973 -0.4639950096607208
vn -0.926364004611969 -0.19715799391269684 -0.3209019899368286
vn -0.926364004611969 0.19715799391269684 0.3209019899368286
vn -0.8317980170249939 -0.3046630024909973 0.4639950096607208
vn -0.8660249710083008 -6.289639919998535e-9 0.5
vn -0.8177310228347778 0.3046630024909973 0.4883610010147095
vn -0.7410910129547119 -0.19715799391269684 0.6418039798736572
vn -0.926364004611969 -0.19715799391269684 -0.3209019899368286
vn -0.18527300655841827 -0.19715799391269684 -0.9627060294151306
vn 0.7410910129547119 -0.19715799391269684 -0.6418039798736572
vn -0.7410910129547119 -0.19715799391269684 0.6418039798736572
vt 0.062326498329639435 0.6867470145225525
vt 0.007606309838593006 0.7170970141887665
vt 0.062326498329639435 0.7474470138549805
vt 0.062326498329639435 0.6867470145225525
vt 0.007606309838593006 0.7170970141887665
vt 0.007606309838593006 0.6563970148563385
vt 0.062326498329639435 0.7474470138549805
vt 0.11704599857330322 0.7170970141887665
vt 0.11704599857330322 0.6563970148563385
vt 0.062326498329639435 0.6260469853878021
vt 0.7674990296363831 0.9178090989589691
vt 0.828199028968811 0.874879002571106
vt 0.7672790288925171 0.874879002571106
vt 0.8281570076942444 0.9178092032670975
vt 0.7674990296363831 0.993913650047034
vt 0.8281570076942444 0.993913650047034
vt 0.7674990296363831 0.9178382977843285
vt 0.8281570076942444 0.9178382977843285
vt 0.7672790288925171 0.8749179989099503
vt 0.828199028968811 0.8749179989099503
vt 0.8984079957008362 0.874879002571106
vt 0.8981450200080872 0.9178090989589691
vt 0.8981450200080872 0.993913650047034
vt 0.8981450200080872 0.9178382977843285
vt 0.8984079957008362 0.8749179989099503
vt 0.9599350094795227 0.874879002571106
vt 0.96001797914505 0.9178090989589691
vt 0.96001797914505 0.993913650047034
vt 0.96001797914505 0.9178382977843285
vt 0.9599350094795227 0.8749179989099503
vt 0.8984079957008362 0.874879002571106
vt 0.8981459736824036 0.9178092032670975
vt 0.8981459736824036 0.993913650047034
vt 0.8981459736824036 0.9178382977843285
vt 0.8984079957008362 0.8749179989099503
vt 0.828199028968811 0.874879002571106
vt 0.8281570076942444 0.9178092032670975
vt 0.8281570076942444 0.993913650047034
vt 0.8281570076942444 0.9178382977843285
vt 0.828199028968811 0.8749179989099503
vt 0.11704599857330322 0.6563970148563385
vt 0.062326498329639435 0.6260469853878021
vt 0.007606309838593006 0.6563970148563385
vt 0.11704599857330322 0.7170970141887665
g Geoset0
s 1
usemtl mat_clothstuff
f 1/1/1 2/2/2 3/3/3
f 4/4/4 5/5/5 6/6/6
f 4/4/4 7/7/7 5/5/5
f 4/4/4 8/8/8 7/7/7
f 4/4/4 9/9/9 8/8/8
f 4/4/4 10/10/10 9/9/9
f 4/4/4 6/6/6 10/10/10
f 11/11/11 12/12/12 13/13/13
f 11/11/11 14/14/14 12/12/12
f 15/15/15 14/14/14 11/11/11
f 15/15/15 16/16/16 14/14/14
f 17/17/17 16/16/16 15/15/15
f 17/17/17 18/18/18 16/16/16
f 19/19/19 18/18/18 17/17/17
f 19/19/19 20/20/20 18/18/18
f 14/14/14 21/21/21 12/12/12
f 14/14/14 22/22/22 21/21/21
f 16/16/16 22/22/22 14/14/14
f 16/16/16 23/23/23 22/22/22
f 18/18/18 23/23/23 16/16/16
f 18/18/18 24/24/24 23/23/23
f 20/20/20 24/24/24 18/18/18
f 20/20/20 25/25/25 24/24/24
f 22/22/22 26/26/26 21/21/21
f 22/22/22 27/27/27 26/26/26
f 23/23/23 27/27/27 22/22/22
f 23/23/23 28/28/28 27/27/27
f 24/24/24 28/28/28 23/23/23
f 24/24/24 29/29/29 28/28/28
f 25/25/25 29/29/29 24/24/24
f 25/25/25 30/30/30 29/29/29
f 27/27/27 31/31/31 26/26/26
f 27/27/27 32/32/32 31/31/31
f 28/28/28 32/32/32 27/27/27
f 28/28/28 33/33/33 32/32/32
f 29/29/29 33/33/33 28/28/28
f 29/29/29 34/34/34 33/33/33
f 30/30/30 34/34/34 29/29/29
f 30/30/30 35/35/35 34/34/34
f 32/32/32 36/36/36 31/31/31
f 32/32/32 37/37/37 36/36/36
f 33/33/33 37/37/37 32/32/32
f 33/33/33 38/38/38 37/37/37
f 34/34/34 38/38/38 33/33/33
f 34/34/34 39/39/39 38/38/38
f 35/35/35 39/39/39 34/34/34
f 35/35/35 40/40/40 39/39/39
f 37/37/37 13/13/13 36/36/36
f 37/37/37 11/11/11 13/13/13
f 38/38/38 11/11/11 37/37/37
f 38/38/38 15/15/15 11/11/11
f 39/39/39 15/15/15 38/38/38
f 39/39/39 17/17/17 15/15/15
f 40/40/40 17/17/17 39/39/39
f 40/40/40 19/19/19 17/17/17
f 1/1/1 41/41/41 42/42/42
f 1/1/1 42/42/42 43/43/43
f 1/1/1 43/43/43 2/2/2
f 1/1/1 44/44/44 41/41/41
f 1/1/1 3/3/3 44/44/44