# Exported using wow.export v0.1.49
o 
mtllib clothboltgreen.mtl
v 0.08039219677448273 -0.6474720239639282 -0.15981900691986084
v 0.1195560023188591 -0.6474720239639282 -0.09589140117168427
v 0.04122859984636307 -0.6474720239639282 -0.09589140117168427
v 0.08039189875125885 0.6503999829292297 -0.15981900691986084
v 0.04122830182313919 0.6503999829292297 -0.09589169919490814
v 0.1195560023188591 0.6503999829292297 -0.09589140117168427
v 0.1195560023188591 0.6503999829292297 0.09589140117168427
v 0.04122830182313919 0.6503999829292297 0.09589140117168427
v 0.08039189875125885 0.6503999829292297 0.15981900691986084
v 0.15047499537467957 0.5122420191764832 0.11614999920129776
v 0.15047499537467957 0.5122420191764832 -0.11614999920129776
v 0.1195560023188591 0.5389059782028198 -0.09589169919490814
v 0.08039189875125885 0.5389059782028198 -0.15981900691986084
v 0.08039189875125885 0.6503999829292297 -0.15981900691986084
v 0.04122830182313919 0.5389059782028198 -0.09589169919490814
v 0.04122830182313919 0.6503999829292297 -0.09589169919490814
v 0.04122830182313919 0.5389059782028198 0.09589140117168427
v 0.04122830182313919 0.6503999829292297 0.09589140117168427
v 0.08039189875125885 0.5389059782028198 0.15981900691986084
v 0.08039189875125885 0.6503999829292297 0.15981900691986084
v 0.1195560023188591 0.6503999829292297 0.09589140117168427
v 0.08039189875125885 0.5122420191764832 -0.19358399510383606
v 0.01030889991670847 0.5122420191764832 -0.11614999920129776
v 0.01030889991670847 0.5122420191764832 0.11614999920129776
v 0.08039189875125885 0.5122420191764832 0.19358399510383606
v 0.1195560023188591 0.5389059782028198 0.09589140117168427
v 0.1195560023188591 0.6503999829292297 -0.09589140117168427
v 0.15047499537467957 0 0.11614999920129776
v 0.15047499537467957 0 -0.11614999920129776
v 0.08039189875125885 0 0.19358399510383606
v 0.01030889991670847 0 0.11614999920129776
v 0.01030889991670847 0 -0.11614999920129776
v 0.08039189875125885 0 -0.19358399510383606
v 0.01030889991670847 -0.5122420191764832 0.11614999920129776
v 0.01030889991670847 0 0.11614999920129776
v 0.01030889991670847 0 -0.11614999920129776
v 0.08039219677448273 -0.5122420191764832 0.19358399510383606
v 0.08039189875125885 0 0.19358399510383606
v 0.15047499537467957 0 0.11614999920129776
v 0.15047599375247955 -0.5122420191764832 0.11614999920129776
v 0.15047499537467957 0 -0.11614999920129776
v 0.15047499537467957 -0.5122420191764832 -0.11614999920129776
v 0.08039189875125885 0 -0.19358399510383606
v 0.08039219677448273 -0.5122420191764832 -0.19358399510383606
v 0.01030889991670847 -0.5122420191764832 -0.11614999920129776
v 0.04122859984636307 -0.5359780192375183 -0.09589140117168427
v 0.04122859984636307 -0.5359780192375183 0.09589140117168427
v 0.04122859984636307 -0.6474720239639282 0.09589140117168427
v 0.08039219677448273 -0.6474720239639282 0.15981900691986084
v 0.08039219677448273 -0.5359780192375183 0.15981900691986084
v 0.1195560023188591 -0.5359780192375183 0.09589140117168427
v 0.1195560023188591 -0.5359780192375183 -0.09589140117168427
v 0.08039219677448273 -0.5359780192375183 -0.15981900691986084
v 0.04122859984636307 -0.6474720239639282 -0.09589140117168427
v 0.08039219677448273 -0.6474720239639282 -0.15981900691986084
v 0.1195560023188591 -0.6474720239639282 -0.09589140117168427
v 0.1195560023188591 -0.6474720239639282 0.09589140117168427
v 0.08039219677448273 -0.6474720239639282 0.15981900691986084
v 0.04122859984636307 -0.6474720239639282 0.09589140117168427
v 0.1195560023188591 -0.6474720239639282 0.09589140117168427
vn 3.0818199547866243e-7 -0.6914550065994263 -0.7224199771881104
vn 0.6483709812164307 -0.7189710140228271 -0.2503890097141266
vn -0.7679499983787537 -0.5677139759063721 -0.29656898975372314
vn 3.0761000857637555e-7 0.4316810071468353 -0.9020259976387024
vn -0.6836709976196289 0.7189710140228271 -0.1251949965953827
vn 0.8097609877586365 0.5677139759063721 -0.14828400313854218
vn 0.6483709812164307 0.7189720273017883 0.2503890097141266
vn -0.7679510116577148 0.5677139759063721 0.29656800627708435
vn -3.0817901119917224e-7 0.6914560198783875 0.7224180102348328
vn 0.8244860172271729 0.4530799984931946 0.3390290141105652
vn 0.8579919934272766 0.42643100023269653 -0.2863680124282837
vn 0.8589159846305847 0.4428650140762329 -0.2571670114994049
vn -2.6103899042340117e-9 0.7365429997444153 -0.6763899922370911
vn 3.0761000857637555e-7 0.4316810071468353 -0.9020259976387024
vn -0.8589159846305847 0.4428650140762329 -0.2571670114994049
vn -0.6836709976196289 0.7189710140228271 -0.1251949965953827
vn -0.8799499869346619 0.40022099018096924 0.25595301389694214
vn -0.7679510116577148 0.5677139759063721 0.29656800627708435
vn -4.098289991816273e-7 0.3492330014705658 0.9370359778404236
vn -3.0817901119917224e-7 0.6914560198783875 0.7224180102348328
vn 0.6483709812164307 0.7189720273017883 0.2503890097141266
vn 8.434280118763127e-8 0.32984501123428345 -0.944034993648529
vn -0.8579919934272766 0.42643100023269653 -0.2863680124282837
vn -0.8244860172271729 0.4530799984931946 0.3390290141105652
vn 9.51010048488854e-10 0.6709489822387695 0.7415040135383606
vn 0.8799489736557007 0.40022099018096924 0.25595301389694214
vn 0.8097609877586365 0.5677139759063721 -0.14828400313854218
vn 0.933118999004364 1.2168200669293583e-7 0.3595690131187439
vn 0.9331179857254028 1.5564299360448786e-7 -0.3595690131187439
vn 1.482339939684607e-7 -6.339750058259597e-8 1
vn -0.9331179857254028 -1.5132700070807914e-7 0.3595690131187439
vn -0.9331179857254028 -1.0980200215726654e-7 -0.3595690131187439
vn 2.9588599659291503e-7 5.2684001161651395e-8 -1
vn -0.8464940190315247 -0.4527379870414734 0.2801379859447479
vn -0.9331179857254028 -1.5132700070807914e-7 0.3595690131187439
vn -0.9331179857254028 -1.0980200215726654e-7 -0.3595690131187439
vn 2.2256899967487698e-7 -0.3534719944000244 0.9354450106620789
vn 1.482339939684607e-7 -6.339750058259597e-8 1
vn 0.933118999004364 1.2168200669293583e-7 0.3595690131187439
vn 0.8464940190315247 -0.4527370035648346 0.2801379859447479
vn 0.9331179857254028 1.5564299360448786e-7 -0.3595690131187439
vn 0.8105360269546509 -0.478863000869751 -0.3372269868850708
vn 2.9588599659291503e-7 5.2684001161651395e-8 -1
vn 2.811289903092984e-7 -0.7019540071487427 -0.7122229933738708
vn -0.8105360269546509 -0.478863000869751 -0.3372269868850708
vn -0.8696020245552063 -0.4258660078048706 -0.2498590052127838
vn -0.8456569910049438 -0.4683299958705902 0.25599199533462524
vn -0.6836709976196289 -0.7189710140228271 0.1251949965953827
vn 2.069940023829986e-7 -0.4316810071468353 0.9020259976387024
vn 2.4430599410152354e-7 -0.7648980021476746 0.6441519856452942
vn 0.8456569910049438 -0.4683290123939514 0.25599199533462524
vn 0.8696020245552063 -0.4258660078048706 -0.2498590052127838
vn 2.8129900897511106e-7 -0.3773150146007538 -0.9260849952697754
vn -0.7679499983787537 -0.5677139759063721 -0.29656898975372314
vn 3.0818199547866243e-7 -0.6914550065994263 -0.7224199771881104
vn 0.6483709812164307 -0.7189710140228271 -0.2503890097141266
vn 0.8097609877586365 -0.5677139759063721 0.14828400313854218
vn 2.069940023829986e-7 -0.4316810071468353 0.9020259976387024
vn -0.6836709976196289 -0.7189710140228271 0.1251949965953827
vn 0.8097609877586365 -0.5677139759063721 0.14828400313854218
vt 0.2430959939956665 0.9982622900279239
vt 0.23707500100135803 0.9825734999030828
vt 0.24852800369262695 0.9825734999030828
vt 0.24309700727462769 0.9982625199481845
vt 0.24852900207042694 0.9825736992061138
vt 0.23707500100135803 0.9825736992061138
vt 0.23707500100135803 0.8914249986410141
vt 0.24852800369262695 0.8914249986410141
vt 0.24309700727462769 0.8766940012574196
vt 0.19255000352859497 0.9010078012943268
vt 0.19255000352859497 0.9739487990736961
vt 0.21285699307918549 0.967587698251009
vt 0.21285699307918549 0.9876605002209544
vt 0.2371699959039688 0.9876605998724699
vt 0.21285699307918549 0.967587698251009
vt 0.2371699959039688 0.967587698251009
vt 0.21285699307918549 0.9073688983917236
vt 0.2371699959039688 0.9073688983917236
vt 0.21285699307918549 0.8872959986329079
vt 0.2371699959039688 0.8872959986329079
vt 0.2371699959039688 0.9073688983917236
vt 0.19255000352859497 0.9982625199481845
vt 0.19255000352859497 0.9739487990736961
vt 0.19255000352859497 0.9010078012943268
vt 0.19255000352859497 0.8766940012574196
vt 0.21285699307918549 0.9073688983917236
vt 0.2371699959039688 0.967587698251009
vt 0.004993959795683622 0.9010078012943268
vt 0.004993959795683622 0.9739487003535032
vt 0.004993959795683622 0.8766940012574196
vt 0.004993959795683622 0.9010078012943268
vt 0.004993959795683622 0.9739487003535032
vt 0.004994019865989685 0.9982624100521207
vt 0.19254200160503387 0.9739487003535032
vt 0.004993959795683622 0.9739487003535032
vt 0.004993959795683622 0.9010076969861984
vt 0.19254200160503387 0.9982624100521207
vt 0.004993959795683622 0.9982624100521207
vt 0.004993959795683622 0.9739487003535032
vt 0.19254200160503387 0.9739487003535032
vt 0.004993959795683622 0.9010076969861984
vt 0.19254200160503387 0.9010076969861984
vt 0.004994019865989685 0.8766940012574196
vt 0.19254200160503387 0.8766940012574196
vt 0.19254200160503387 0.9010076969861984
vt 0.21284599602222443 0.9073688983917236
vt 0.21284599602222443 0.9675876013934612
vt 0.23715899884700775 0.9675876013934612
vt 0.23715899884700775 0.9876605002209544
vt 0.21284599602222443 0.9876605002209544
vt 0.21284599602222443 0.9675876013934612
vt 0.21284599602222443 0.9073688983917236
vt 0.21284599602222443 0.8872959986329079
vt 0.23715899884700775 0.9073688983917236
vt 0.23715899884700775 0.8872959986329079
vt 0.23715899884700775 0.9073688983917236
vt 0.23715899884700775 0.9675876013934612
vt 0.2430959939956665 0.8766940012574196
vt 0.24852800369262695 0.8914240002632141
vt 0.23707500100135803 0.8914240002632141
g Geoset0
s 1
usemtl mat_clothstuff
f 1/1/1 2/2/2 3/3/3
f 4/4/4 5/5/5 6/6/6
f 7/7/7 6/6/6 5/5/5
f 5/5/5 8/8/8 7/7/7
f 9/9/9 7/7/7 8/8/8
f 10/10/10 11/11/11 12/12/12
f 13/13/13 12/12/12 11/11/11
f 12/12/12 13/13/13 14/14/14
f 14/14/14 13/13/13 15/15/15
f 15/15/15 16/16/16 14/14/14
f 16/16/16 15/15/15 17/17/17
f 17/17/17 18/18/18 16/16/16
f 18/18/18 17/17/17 19/19/19
f 19/19/19 20/20/20 18/18/18
f 21/21/21 20/20/20 19/19/19
f 11/11/11 22/22/22 13/13/13
f 13/13/13 22/22/22 23/23/23
f 23/23/23 15/15/15 13/13/13
f 15/15/15 23/23/23 24/24/24
f 24/24/24 17/17/17 15/15/15
f 17/17/17 24/24/24 25/25/25
f 25/25/25 19/19/19 17/17/17
f 26/26/26 19/19/19 25/25/25
f 19/19/19 26/26/26 21/21/21
f 27/27/27 21/21/21 26/26/26
f 28/28/28 29/29/29 11/11/11
f 22/22/22 11/11/11 29/29/29
f 30/30/30 28/28/28 10/10/10
f 11/11/11 10/10/10 28/28/28
f 14/14/14 27/27/27 12/12/12
f 26/26/26 12/12/12 27/27/27
f 12/12/12 26/26/26 10/10/10
f 25/25/25 10/10/10 26/26/26
f 10/10/10 25/25/25 30/30/30
f 30/30/30 25/25/25 24/24/24
f 24/24/24 31/31/31 30/30/30
f 31/31/31 24/24/24 23/23/23
f 23/23/23 32/32/32 31/31/31
f 32/32/32 23/23/23 22/22/22
f 22/22/22 33/33/33 32/32/32
f 29/29/29 33/33/33 22/22/22
f 34/34/34 35/35/35 36/36/36
f 35/35/35 34/34/34 37/37/37
f 37/37/37 38/38/38 35/35/35
f 39/39/39 38/38/38 37/37/37
f 37/37/37 40/40/40 39/39/39
f 41/41/41 39/39/39 40/40/40
f 40/40/40 42/42/42 41/41/41
f 43/43/43 41/41/41 42/42/42
f 42/42/42 44/44/44 43/43/43
f 43/43/43 44/44/44 45/45/45
f 46/46/46 45/45/45 44/44/44
f 45/45/45 46/46/46 47/47/47
f 48/48/48 47/47/47 46/46/46
f 47/47/47 48/48/48 49/49/49
f 50/50/50 37/37/37 34/34/34
f 40/40/40 37/37/37 50/50/50
f 50/50/50 51/51/51 40/40/40
f 42/42/42 40/40/40 51/51/51
f 51/51/51 52/52/52 42/42/42
f 44/44/44 42/42/42 52/52/52
f 52/52/52 53/53/53 44/44/44
f 44/44/44 53/53/53 46/46/46
f 54/54/54 46/46/46 53/53/53
f 46/46/46 54/54/54 48/48/48
f 53/53/53 55/55/55 54/54/54
f 56/56/56 55/55/55 53/53/53
f 53/53/53 52/52/52 56/56/56
f 57/57/57 56/56/56 52/52/52
f 52/52/52 51/51/51 57/57/57
f 49/49/49 57/57/57 51/51/51
f 51/51/51 50/50/50 49/49/49
f 49/49/49 50/50/50 47/47/47
f 34/34/34 47/47/47 50/50/50
f 47/47/47 34/34/34 45/45/45
f 36/36/36 45/45/45 34/34/34
f 45/45/45 36/36/36 43/43/43
f 58/58/58 59/59/59 60/60/60
f 2/2/2 60/60/60 59/59/59
f 59/59/59 3/3/3 2/2/2