# Exported using wow.export v0.1.49
o 
mtllib stormwindpainting03.mtl
v 0.09373883903026581 -1.222965955734253 -2.1113502979278564
v -0.13494253158569336 -1.1713759899139404 -2.065667152404785
v -0.13494232296943665 1.1918352842330933 -2.065666913986206
v -0.13494227826595306 1.1918355226516724 2.050600051879883
v -0.13494232296943665 1.1918352842330933 -2.065666913986206
v -0.13494253158569336 -1.1713759899139404 -2.065667152404785
v -0.13494253158569336 -1.1713757514953613 2.0505998134613037
v -0.05114760994911194 0.849696695804596 -1.7517671585083008
v -0.05114775151014328 -0.8198209404945374 -1.750745177268982
v 0.09373883903026581 -1.222965955734253 -2.1113502979278564
v 0.09373901039361954 1.2423568964004517 -2.111349582672119
v -0.05114762857556343 0.8499051928520203 1.749050498008728
v -0.05114775151014328 -0.8198209404945374 -1.750745177268982
v -0.05114760994911194 0.849696695804596 -1.7517671585083008
v -0.05114774778485298 -0.8230398297309875 1.7483280897140503
v 0.09373881667852402 -1.2229658365249634 2.0965683460235596
v -0.13494253158569336 -1.1713757514953613 2.0505998134613037
v -0.13494253158569336 -1.1713759899139404 -2.065667152404785
v 0.09373883903026581 -1.222965955734253 -2.1113502979278564
v 0.09373900294303894 1.2423572540283203 2.0965681076049805
v -0.13494227826595306 1.1918355226516724 2.050600051879883
v -0.13494253158569336 -1.1713757514953613 2.0505998134613037
v 0.09373881667852402 -1.2229658365249634 2.0965683460235596
v 0.09373883903026581 -1.222965955734253 -2.1113502979278564
v -0.05114775151014328 -0.8198209404945374 -1.750745177268982
v 0.09373881667852402 -1.2229658365249634 2.0965683460235596
v -0.05114762857556343 0.8499051928520203 1.749050498008728
v -0.05114760994911194 0.849696695804596 -1.7517671585083008
v 0.09373901039361954 1.2423568964004517 -2.111349582672119
v -0.13494232296943665 1.1918352842330933 -2.065666913986206
v -0.13494227826595306 1.1918355226516724 2.050600051879883
v 0.09373900294303894 1.2423572540283203 2.0965681076049805
v -0.05114774778485298 -0.8230398297309875 1.7483280897140503
v 0.09373901039361954 1.2423568964004517 -2.111349582672119
vn 0.563301146030426 -0.6356419920921326 -0.5278741121292114
vn -0.7247340679168701 -0.5337634682655334 -0.4357258677482605
vn -0.723564863204956 0.5354717373847961 -0.43557310104370117
vn -0.72385573387146 0.5354818105697632 0.43507713079452515
vn -0.723564863204956 0.5354717373847961 -0.43557310104370117
vn -0.7247340679168701 -0.5337634682655334 -0.4357258677482605
vn -0.7250258326530457 -0.5337726473808289 0.43522900342941284
vn 0.9858144521713257 -0.13596701622009277 0.09840143471956253
vn 0.986315906047821 0.13223621249198914 0.0984605923295021
vn 0.563301146030426 -0.6356419920921326 -0.5278741121292114
vn 0.5652840733528137 0.6342841386795044 -0.5273874402046204
vn 0.9855210781097412 -0.13525265455245972 -0.10224934667348862
vn 0.986315906047821 0.13223621249198914 0.0984605923295021
vn 0.9858144521713257 -0.13596701622009277 0.09840143471956253
vn 0.9858695864677429 0.13271848857402802 -0.10221037268638611
vn 0.5645211338996887 -0.6342669129371643 0.5282247066497803
vn -0.7250258326530457 -0.5337726473808289 0.43522900342941284
vn -0.7247340679168701 -0.5337634682655334 -0.4357258677482605
vn 0.563301146030426 -0.6356419920921326 -0.5278741121292114
vn 0.5663185119628906 0.6329033970832825 0.5279361605644226
vn -0.72385573387146 0.5354818105697632 0.43507713079452515
vn -0.7250258326530457 -0.5337726473808289 0.43522900342941284
vn 0.5645211338996887 -0.6342669129371643 0.5282247066497803
vn 0.563301146030426 -0.6356419920921326 -0.5278741121292114
vn 0.986315906047821 0.13223621249198914 0.0984605923295021
vn 0.5645211338996887 -0.6342669129371643 0.5282247066497803
vn 0.9855210781097412 -0.13525265455245972 -0.10224934667348862
vn 0.9858144521713257 -0.13596701622009277 0.09840143471956253
vn 0.5652840733528137 0.6342841386795044 -0.5273874402046204
vn -0.723564863204956 0.5354717373847961 -0.43557310104370117
vn -0.72385573387146 0.5354818105697632 0.43507713079452515
vn 0.5663185119628906 0.6329033970832825 0.5279361605644226
vn 0.9858695864677429 0.13271848857402802 -0.10221037268638611
vn 0.5652840733528137 0.6342841386795044 -0.5273874402046204
vt 0.9934555888175964 0.9996252655982971
vt 0.7115309834480286 0.871725857257843
vt 0.7110872268676758 0.12561076879501343
vt 0.874173104763031 0.8947492241859436
vt 0.8010981678962708 0.894749104976654
vt 0.801098108291626 0.10525065660476685
vt 0.8741730451583862 0.1052507758140564
vt 0.7121075391769409 0.8732936978340149
vt 0.7125497460365295 0.1373525857925415
vt 0.9980854392051697 0.0049440860748291016
vt 0.9977728128433228 0.997542142868042
vt 0.000980660319328308 0.005397200584411621
vt 0.7063801288604736 0.998985230922699
vt 0.0032020509243011475 0.9995005130767822
vt 0.70525062084198 0.005330443382263184
vt 0.9977341294288635 0.997542142868042
vt 0.7130134701728821 0.8727548718452454
vt 0.7125833034515381 0.13006651401519775
vt 0.9980854988098145 0.004944026470184326
vt 0.993452250957489 0.005454897880554199
vt 0.7110862731933594 0.12561023235321045
vt 0.7115300297737122 0.87172532081604
vt 0.9934547543525696 0.9996247887611389
vt 0.9977728128433228 0.997542142868042
vt 0.7121075391769409 0.8732936978340149
vt 0.9980854392051697 0.0049440860748291016
vt 0.7121075391769409 0.8732936978340149
vt 0.7125497460365295 0.1373525857925415
vt 0.9980854392051697 0.0049440860748291016
vt 0.7125833034515381 0.13006651401519775
vt 0.7130135297775269 0.8727548718452454
vt 0.9977728128433228 0.997542142868042
vt 0.7125497460365295 0.1373525857925415
vt 0.9934529662132263 0.005455374717712402
g Geoset0
s 1
usemtl mat_azharapainting
f 1/1/1 2/2/2 3/3/3
f 4/4/4 5/5/5 6/6/6
f 6/6/6 7/7/7 4/4/4
f 8/8/8 9/9/9 10/10/10
f 11/11/11 8/8/8 10/10/10
f 12/12/12 13/13/13 14/14/14
f 12/12/12 15/15/15 13/13/13
f 16/16/16 17/17/17 18/18/18
f 18/18/18 19/19/19 16/16/16
f 20/20/20 21/21/21 22/22/22
f 22/22/22 23/23/23 20/20/20
f 24/24/24 25/25/25 26/26/26
f 27/27/27 28/28/28 29/29/29
f 30/30/30 31/31/31 32/32/32
f 32/32/32 29/29/29 30/30/30
f 32/32/32 27/27/27 29/29/29
f 32/32/32 26/26/26 27/27/27
f 27/27/27 26/26/26 33/33/33
f 25/25/25 33/33/33 26/26/26
f 3/3/3 34/34/34 1/1/1