# Exported using wow.export v0.1.49
o 
mtllib redridgestump02.mtl
v -0.3134850263595581 1.6984561681747437 -0.010028962045907974
v 0.3334648907184601 1.0488758087158203 -0.9694521427154541
v -1.1379282474517822 1.1864023208618164 -0.9247676134109497
v 0.3334648907184601 1.0488758087158203 -0.9694521427154541
v 0.9544879198074341 1.3054783344268799 0.13608713448047638
v 1.0194071531295776 0.3569101393222809 0.04774819687008858
v 1.012872338294983 0.35949885845184326 1.1833306550979614
v 0.556059718132019 1.6476761102676392 1.0368796586990356
v 0.38899073004722595 0.4829498827457428 1.5425959825515747
v -0.19548046588897705 1.494390606880188 1.2959954738616943
v 0.40563350915908813 -0.44010087847709656 2.0977816581726074
v 1.4306808710098267 -0.44930851459503174 2.1215248107910156
v -0.4153890311717987 -0.4399712383747101 2.014857292175293
v -0.8744314312934875 0.5256298184394836 1.333449125289917
v -1.5393667221069336 0.6206279397010803 0.29567667841911316
v -1.621850609779358 0.6689148545265198 -0.47882333397865295
v -0.8604105710983276 -0.46287378668785095 -2.0402843952178955
v -1.886780858039856 -0.45821210741996765 -1.6621098518371582
v -2.830916166305542 -0.44972220063209534 -0.9035974144935608
v -2.2511003017425537 -0.4398713707923889 0.5921592712402344
v -1.6008996963500977 -0.44066619873046875 1.7081302404403687
v 1.0332533121109009 0.2816775143146515 -0.9584423899650574
v 1.770194411277771 -0.43109452724456787 0.544025719165802
v 1.8651291131973267 -0.4431697130203247 -1.2521922588348389
v 1.1352163553237915 -0.4585038721561432 -1.7980046272277832
v -0.39111965894699097 0.41054290533065796 -1.2918140888214111
v 0.424094557762146 -0.4641994535923004 -2.300269365310669
v -1.4176040887832642 1.4935321807861328 0.2249179482460022
v -1.1379282474517822 1.1864023208618164 -0.9247676134109497
v 0.556059718132019 1.6476761102676392 1.0368796586990356
v -0.19548046588897705 1.494390606880188 1.2959954738616943
v 0.9544879198074341 1.3054783344268799 0.13608713448047638
v -1.4176040887832642 1.4935321807861328 0.2249179482460022
v -0.047105420380830765 1.0261510610580444 1.468758225440979
v -0.406465619802475 -0.24917370080947876 1.798829197883606
v -1.0891728408068957e-8 -0.24917370080947876 1.927897334098816
v -0.047105420380830765 1.0261510610580444 1.468758225440979
v -1.0891728408068957e-8 -0.24917370080947876 1.927897334098816
v 0.4064655601978302 -0.24917370080947876 1.798829197883606
v -0.0029541924595832825 -0.24917370080947876 2.5204479694366455
v -0.0029541768599301577 1.3245571851730347 2.5204479694366455
v -0.406465619802475 -0.24917370080947876 1.798829197883606
v -0.9687421917915344 -0.24917370080947876 2.121845006942749
v -0.9687421917915344 1.1007524728775024 2.121845006942749
v -0.461907297372818 -0.24917370080947876 1.2905713319778442
v 3.013980887089929e-8 -0.24917370080947876 1.094810128211975
v 0.40646564960479736 -0.24917370080947876 1.329483151435852
v 0.9687421917915344 1.1007524728775024 2.126387596130371
v 0.9687421917915344 -0.24917370080947876 2.126387596130371
vn 0.029184555634856224 0.9804359078407288 -0.19466307759284973
vn 0.43894073367118835 0.6191914081573486 -0.6511014103889465
vn -0.37429898977279663 0.612682044506073 -0.6960753798484802
vn 0.43894073367118835 0.6191914081573486 -0.6511014103889465
vn 0.8081102967262268 0.5548050403594971 -0.19786131381988525
vn 0.8708314895629883 0.4756288230419159 -0.12421643733978271
vn 0.8001391291618347 0.5080962777137756 0.3187718391418457
vn 0.46589410305023193 0.7357230186462402 0.4915834665298462
vn 0.12289393693208694 0.47500377893447876 0.8713601231575012
vn -0.3179282248020172 0.6358056664466858 0.7033298015594482
vn -0.05075216665863991 0.5140841007232666 0.85623699426651
vn 0.44129037857055664 0.7017657160758972 0.5592742562294006
vn -0.14199332892894745 0.5132351517677307 0.8464204668998718
vn -0.4531044661998749 0.5226854681968689 0.7221469879150391
vn -0.7866179943084717 0.474063515663147 0.3955956995487213
vn -0.682894766330719 0.5608561038970947 -0.46807608008384705
vn -0.21961350739002228 0.7095823287963867 -0.6695243120193481
vn -0.3420153260231018 0.7174712419509888 -0.6068447232246399
vn -0.6888052821159363 0.7227429151535034 -0.05648026615381241
vn -0.6955819725990295 0.6063337922096252 0.385389506816864
vn -0.4647567570209503 0.6013932824134827 0.6498671174049377
vn 0.5682158470153809 0.7097492218017578 -0.4163973927497864
vn 0.728839635848999 0.6834036111831665 0.041860081255435944
vn 0.5695174932479858 0.7700904011726379 -0.2874206006526947
vn 0.31816351413726807 0.7657204270362854 -0.558967113494873
vn -0.032944370061159134 0.5592038631439209 -0.8283753395080566
vn 0.0911351814866066 0.7875587940216064 -0.6094633340835571
vn -0.7229759097099304 0.6835634112358093 0.10023395717144012
vn -0.37429898977279663 0.612682044506073 -0.6960753798484802
vn 0.46589410305023193 0.7357230186462402 0.4915834665298462
vn -0.3179282248020172 0.6358056664466858 0.7033298015594482
vn 0.8081102967262268 0.5548050403594971 -0.19786131381988525
vn -0.7229759097099304 0.6835634112358093 0.10023395717144012
vn 0.6564344763755798 0.4453319013118744 -0.6089115738868713
vn -0.9352383017539978 0.22721926867961884 -0.27147871255874634
vn 0.45825082063674927 0.31601017713546753 0.8307489156723022
vn 0.6564344763755798 0.4453319013118744 -0.6089115738868713
vn 0.45825082063674927 0.31601017713546753 0.8307489156723022
vn 0.9404420256614685 0.33941635489463806 0.019113708287477493
vn 0.9996415972709656 0.01935964822769165 -0.01848982833325863
vn 0.9991199374198914 -9.946000467664362e-9 -0.04194428771734238
vn -0.9352383017539978 0.22721926867961884 -0.27147871255874634
vn -0.4981313645839691 4.950837696483237e-16 -0.8671015501022339
vn -0.53989577293396 -0.023545244708657265 -0.841402530670166
vn -0.8113583326339722 0.33119457960128784 -0.48167183995246887
vn 0.05783351883292198 0.2828671932220459 -0.957413911819458
vn 0.8110610246658325 0.34040653705596924 -0.4757135510444641
vn 0.5434353947639465 -5.401106117562638e-16 -0.839451014995575
vn 0.5234275460243225 -0.022293807938694954 -0.851778507232666
vt 0.7496203780174255 0.5072770714759827
vt 0.5106068849563599 0.979823887348175
vt 0.9853949546813965 0.9833793044090271
vt 0.181698277592659 0.997873067855835
vt 0.348740816116333 0.997873067855835
vt 0.27961698174476624 0.5094402432441711
vt 0.4134150445461273 0.49721646308898926
vt 0.4960550367832184 0.997873067855835
vt 0.4960550367832184 0.4874374270439148
vt 0.348740816116333 0.997873067855835
vt 0.4960550367832184 0.0035424232482910156
vt 0.44096168875694275 0.0035424232482910156
vt 0.4370264410972595 0.0035424232482910156
vt 0.41735029220581055 0.4874374270439148
vt 0.28355222940444946 0.4923269748687744
vt 0.14581891894340515 0.49721646308898926
vt 0.004150405526161194 0.0035424232482910156
vt 0.07498467713594437 0.0035424232482910156
vt 0.13794845342636108 0.0035424232482910156
vt 0.29929319024086 0.0035424232482910156
vt 0.40160930156707764 0.0035424232482910156
vt 0.16155986487865448 0.49721646308898926
vt 0.3229046165943146 0.0035424232482910156
vt 0.2009122371673584 0.0035424232482910156
vt 0.1261427253484726 0.0035424232482910156
vt 0.004150405526161194 0.5118849873542786
vt 0.0789198949933052 0.0035424232482910156
vt 0.181698277592659 0.997873067855835
vt 0.004150405526161194 0.997873067855835
vt 0.5102046132087708 0.979686975479126
vt 0.9839642643928528 0.985477864742279
vt 0.9839642643928528 0.9846548438072205
vt 0.5106068849563599 0.9806469082832336
vt 0.0004995763301849365 0.9995005130767822
vt 0 0
vt 0.5050907731056213 0.03732502460479736
vt 0.007874015718698502 0.9921259880065918
vt 0.30708661675453186 0.007874011993408203
vt 0.007874015718698502 0.007874011993408203
vt 0.9921259880065918 0.007874011993408203
vt 0.9921259880065918 0.9921259880065918
vt 0.007874015718698502 0.007874011993408203
vt 0.9921259880065918 0.007874011993408203
vt 0.9921259880065918 0.9921259880065918
vt 0.5275590419769287 0.007874011993408203
vt 0.007874015718698502 0.007874011993408203
vt 0.5039370059967041 0.007874011993408203
vt 0.9921259880065918 0.9921259880065918
vt 0.9921259880065918 0.007874011993408203
g Geoset0
s 1
usemtl mat_redridgestump02_trunk
f 1/1/1 2/2/2 3/3/3
f 4/4/4 5/5/5 6/6/6
f 5/5/5 7/7/7 6/6/6
f 5/5/5 8/8/8 7/7/7
f 9/9/9 7/7/7 8/8/8
f 9/9/9 8/8/8 10/10/10
f 9/9/9 11/11/11 12/12/12
f 7/7/7 9/9/9 12/12/12
f 9/9/9 13/13/13 11/11/11
f 9/9/9 14/14/14 13/13/13
f 9/9/9 10/10/10 14/14/14
f 10/10/10 15/15/15 14/14/14
f 16/16/16 17/17/17 18/18/18
f 16/16/16 18/18/18 19/19/19
f 15/15/15 16/16/16 19/19/19
f 20/20/20 15/15/15 19/19/19
f 14/14/14 15/15/15 20/20/20
f 14/14/14 20/20/20 21/21/21
f 14/14/14 21/21/21 13/13/13
f 22/22/22 23/23/23 24/24/24
f 24/24/24 25/25/25 22/22/22
f 22/22/22 25/25/25 26/26/26
f 26/26/26 25/25/25 27/27/27
f 27/27/27 17/17/17 26/26/26
f 16/16/16 26/26/26 17/17/17
f 10/10/10 28/28/28 15/15/15
f 28/28/28 16/16/16 15/15/15
f 28/28/28 29/29/29 16/16/16
f 16/16/16 29/29/29 26/26/26
f 29/29/29 4/4/4 26/26/26
f 26/26/26 4/4/4 22/22/22
f 4/4/4 6/6/6 22/22/22
f 22/22/22 6/6/6 23/23/23
f 23/23/23 6/6/6 7/7/7
f 23/23/23 7/7/7 12/12/12
f 30/30/30 1/1/1 31/31/31
f 32/32/32 1/1/1 30/30/30
f 32/32/32 2/2/2 1/1/1
f 1/1/1 33/33/33 31/31/31
f 1/1/1 3/3/3 33/33/33
g Geoset1
s 1
usemtl mat_shrub02
f 34/34/34 35/35/35 36/36/36
f 37/37/37 38/38/38 39/39/39
f 40/40/40 38/38/38 37/37/37
f 37/37/37 41/41/41 40/40/40
f 42/42/42 43/43/43 44/44/44
f 44/44/44 37/37/37 42/42/42
f 37/37/37 45/45/45 42/42/42
f 37/37/37 46/46/46 45/45/45
f 37/37/37 47/47/47 46/46/46
f 37/37/37 48/48/48 49/49/49
f 49/49/49 39/39/39 37/37/37
f 37/37/37 39/39/39 47/47/47