# Exported using wow.export v0.1.49
o 
mtllib bookshelfdwarvensimple03.mtl
v -0.3636970818042755 0.9055569767951965 -1.0441893339157104
v -0.3636969327926636 0.906147837638855 1.0363962650299072
v -0.3636969327926636 1.094735026359558 1.0405231714248657
v -0.4132990539073944 3.0767860412597656 -1.0390396118164062
v -0.4132990539073944 3.082181692123413 -1.348167061805725
v -0.4132993221282959 0.3282635807991028 -1.0218759775161743
v -0.4132990539073944 3.082181692123413 -1.348167061805725
v -0.4132993221282959 0.3282635807991028 -1.2587101459503174
v -0.4132993221282959 0.3282635807991028 -1.0218759775161743
v -0.43207693099975586 3.383178472518921 -1.5296345949172974
v -0.4320768713951111 3.0679116249084473 -1.5042929649353027
v -0.43207693099975586 3.0365254878997803 1.4462370872497559
v -0.43207693099975586 3.350250720977783 1.4877808094024658
v -0.36369696259498596 2.4126808643341064 -1.0441893339157104
v -0.363696813583374 2.6018588542938232 1.0405231714248657
v -0.36369696259498596 2.601318120956421 -1.047284722328186
v -0.36369696259498596 2.4126808643341064 -1.0441893339157104
v -0.363696813583374 2.41327166557312 1.0363962650299072
v -0.363696813583374 2.6018588542938232 1.0405231714248657
v -0.36369696259498596 2.601318120956421 -1.047284722328186
v -0.363696813583374 2.6018588542938232 1.0405231714248657
v 0.27097904682159424 2.574634552001953 -1.047284722328186
v 0.27097904682159424 2.5751748085021973 1.0405231714248657
v 0.27097904682159424 2.574634552001953 -1.047284722328186
v 0.27097904682159424 2.5751748085021973 1.0405231714248657
v 0.27097904682159424 2.3859970569610596 -1.0441893339157104
v 0.27097904682159424 2.3865878582000732 1.0363962650299072
v -0.36369702219963074 1.69270658493042 -1.0441893339157104
v -0.3636968731880188 1.8818846940994263 1.0405231714248657
v -0.36369702219963074 1.8813440799713135 -1.047284722328186
v -0.36369702219963074 1.69270658493042 -1.0441893339157104
v -0.3636968731880188 1.6932973861694336 1.0363962650299072
v -0.3636968731880188 1.8818846940994263 1.0405231714248657
v -0.3636968731880188 1.6932973861694336 1.0363962650299072
v -0.36369702219963074 1.69270658493042 -1.0441893339157104
v 0.27097898721694946 1.6666135787963867 1.0363962650299072
v 0.27097898721694946 1.666022777557373 -1.0441893339157104
v -0.36369702219963074 1.8813440799713135 -1.047284722328186
v -0.3636968731880188 1.8818846940994263 1.0405231714248657
v 0.27097898721694946 1.8546605110168457 -1.047284722328186
v 0.27097898721694946 1.8552006483078003 1.0405231714248657
v 0.27097898721694946 1.8546605110168457 -1.047284722328186
v 0.27097898721694946 1.8552006483078003 1.0405231714248657
v 0.27097898721694946 1.666022777557373 -1.0441893339157104
v 0.27097898721694946 1.6666135787963867 1.0363962650299072
v -0.4132991433143616 0.3282637596130371 1.0147671699523926
v -0.41329899430274963 3.035287380218506 1.338382363319397
v -0.41329899430274963 3.0406830310821533 1.0292551517486572
v -0.4132991433143616 0.3282637596130371 1.0147671699523926
v -0.4132991433143616 0.3282637596130371 1.2516013383865356
v -0.41329899430274963 3.035287380218506 1.338382363319397
v -0.3636970818042755 0.9055569767951965 -1.0441893339157104
v -0.3636969327926636 1.094735026359558 1.0405231714248657
v -0.3636970818042755 1.0941945314407349 -1.047284722328186
v -0.4132993221282959 0.3282635807991028 -1.2587101459503174
v 0.3134705424308777 3.1605231761932373 -1.347008228302002
v 0.2821534276008606 0.3391481935977936 -1.2584415674209595
v -0.4132990539073944 3.082181692123413 -1.348167061805725
v -0.4132990539073944 3.0767860412597656 -1.0390396118164062
v 0.282153457403183 0.3445272147655487 -1.0216073989868164
v 0.3134705424308777 3.1551272869110107 -1.037880778312683
v -0.4132993221282959 0.3282635807991028 -1.0218759775161743
v 0.3134705424308777 3.1551272869110107 -1.037880778312683
v 0.2821534276008606 0.3391481935977936 -1.2584415674209595
v 0.3134705424308777 3.1605231761932373 -1.347008228302002
v 0.282153457403183 0.3445272147655487 -1.0216073989868164
v -0.4320771098136902 0.0036509500350803137 1.387115478515625
v 0.4064635634422302 0.0036508531775325537 1.4260456562042236
v 0.3444961607456207 0.3495207726955414 1.3800863027572632
v -0.4320770502090454 0.32924309372901917 1.3428831100463867
v -0.4320771098136902 0.0036509500350803137 -1.4058318138122559
v 0.4320767819881439 0.0036508487537503242 -1.4167373180389404
v 0.4064635634422302 0.0036508531775325537 1.4260456562042236
v -0.4320771098136902 0.0036509500350803137 1.387115478515625
v -0.432077020406723 0.32924309372901917 -1.3749052286148071
v 0.37009385228157043 0.34862685203552246 -1.3846030235290527
v 0.4320767819881439 0.0036508487537503242 -1.4167373180389404
v -0.4320771098136902 0.0036509500350803137 -1.4058318138122559
v -0.4320770502090454 0.32924309372901917 1.3428831100463867
v 0.3444961607456207 0.3495207726955414 1.3800863027572632
v 0.37009385228157043 0.34862685203552246 -1.3846030235290527
v -0.432077020406723 0.32924309372901917 -1.3749052286148071
v 0.3444961607456207 0.3495207726955414 1.3800863027572632
v 0.4064635634422302 0.0036508531775325537 1.4260456562042236
v 0.4320767819881439 0.0036508487537503242 -1.4167373180389404
v 0.37009385228157043 0.34862685203552246 -1.3846030235290527
v -0.4320770502090454 0.32924309372901917 1.3428831100463867
v -0.432077020406723 0.32924309372901917 -1.3749052286148071
v -0.4320771098136902 0.0036509500350803137 -1.4058318138122559
v -0.4320771098136902 0.0036509500350803137 1.387115478515625
v 0.3444962799549103 3.1130223274230957 1.5007795095443726
v 0.4064638316631317 3.447603464126587 1.5487765073776245
v -0.43207693099975586 3.350250720977783 1.4877808094024658
v -0.43207693099975586 3.0365254878997803 1.4462370872497559
v 0.4064638316631317 3.447603464126587 1.5487765073776245
v 0.43207722902297974 3.4786646366119385 -1.5254544019699097
v -0.43207693099975586 3.383178472518921 -1.5296345949172974
v -0.43207693099975586 3.350250720977783 1.4877808094024658
v 0.43207722902297974 3.4786646366119385 -1.5254544019699097
v 0.3700942099094391 3.144308567047119 -1.496854543685913
v -0.4320768713951111 3.0679116249084473 -1.5042929649353027
v -0.43207693099975586 3.383178472518921 -1.5296345949172974
v 0.3700942099094391 3.144308567047119 -1.496854543685913
v 0.3444962799549103 3.1130223274230957 1.5007795095443726
v -0.43207693099975586 3.0365254878997803 1.4462370872497559
v -0.4320768713951111 3.0679116249084473 -1.5042929649353027
v 0.43207722902297974 3.4786646366119385 -1.5254544019699097
v 0.4064638316631317 3.447603464126587 1.5487765073776245
v 0.3444962799549103 3.1130223274230957 1.5007795095443726
v 0.3700942099094391 3.144308567047119 -1.496854543685913
v -0.363696813583374 2.41327166557312 1.0363962650299072
v -0.36369696259498596 2.4126808643341064 -1.0441893339157104
v 0.27097904682159424 2.3865878582000732 1.0363962650299072
v 0.27097904682159424 2.3859970569610596 -1.0441893339157104
v -0.41329899430274963 3.035287380218506 1.338382363319397
v -0.4132991433143616 0.3282637596130371 1.2516013383865356
v 0.31347042322158813 3.1136465072631836 1.338539719581604
v 0.28215351700782776 0.33914828300476074 1.2513326406478882
v -0.4132991433143616 0.3282637596130371 1.0147671699523926
v -0.41329899430274963 3.0406830310821533 1.0292551517486572
v 0.28215351700782776 0.33914828300476074 1.0144983530044556
v 0.31347042322158813 3.119042158126831 1.0294122695922852
v 0.31347042322158813 3.1136465072631836 1.338539719581604
v 0.28215351700782776 0.33914828300476074 1.2513326406478882
v 0.31347042322158813 3.119042158126831 1.0294122695922852
v 0.28215351700782776 0.33914828300476074 1.0144983530044556
v -0.3636969327926636 0.906147837638855 1.0363962650299072
v -0.3636970818042755 0.9055569767951965 -1.0441893339157104
v 0.2709789276123047 0.8794640302658081 1.0363962650299072
v 0.2709789276123047 0.8788731694221497 -1.0441893339157104
v 0.2709789276123047 1.0680509805679321 1.0405231714248657
v 0.2709789276123047 1.067510724067688 -1.047284722328186
v -0.3636969327926636 1.094735026359558 1.0405231714248657
v -0.3636970818042755 1.0941945314407349 -1.047284722328186
v 0.2709789276123047 1.067510724067688 -1.047284722328186
v 0.2709789276123047 1.0680509805679321 1.0405231714248657
v 0.2709789276123047 0.8788731694221497 -1.0441893339157104
v 0.2709789276123047 0.8794640302658081 1.0363962650299072
vn -1 -1.671760951893475e-9 7.639518173618853e-8
vn -1 -1.671760951893475e-9 7.639518173618853e-8
vn -1 -1.671760951893475e-9 7.639518173618853e-8
vn -1 9.639302334107924e-8 1.6825295601208268e-9
vn -1 9.639302334107924e-8 1.6825295601208268e-9
vn -1 9.639302334107924e-8 1.6825295601208268e-9
vn -1 9.619367347113439e-8 0
vn -1 9.619367347113439e-8 0
vn -1 9.619367347113439e-8 0
vn -1 -1.1248545916942021e-7 -1.659647352880711e-8
vn -1 -2.1918923209796048e-7 -2.9026168135715125e-8
vn -1 -1.1248545916942021e-7 -1.659647352880711e-8
vn -1 -5.7816884613259845e-9 -4.166778477809885e-9
vn -1 1.2492015200038509e-9 7.613011376861323e-8
vn -1 1.2492015200038509e-9 7.613011376861323e-8
vn -1 1.2492015200038509e-9 7.613011376861323e-8
vn -1 -1.671760951893475e-9 7.639518173618853e-8
vn -1 -1.671760951893475e-9 7.639518173618853e-8
vn -1 -1.671760951893475e-9 7.639518173618853e-8
vn 0.04200606048107147 0.9991173148155212 -0.0002587022027000785
vn 0.0420062392950058 0.9991173148155212 -0.0002586480404715985
vn 0.0420062392950058 0.9991173148155212 -0.0002586480404715985
vn 0.042006414383649826 0.9991173148155212 -0.0002585938782431185
vn 1 7.011215075181099e-8 -6.362349758148866e-9
vn 1 -1.3147527511137014e-10 1.1930678667226857e-11
vn 1 -1.3147527511137014e-10 1.1930678667226857e-11
vn 1 -7.037510130203373e-8 6.38621111548332e-9
vn -1 1.2492015200038509e-9 7.613011376861323e-8
vn -1 1.2492015200038509e-9 7.613011376861323e-8
vn -1 1.2492015200038509e-9 7.613011376861323e-8
vn -1 -1.671760951893475e-9 7.639518173618853e-8
vn -1 -1.671760951893475e-9 7.639518173618853e-8
vn -1 -1.671760951893475e-9 7.639518173618853e-8
vn -0.04200615733861923 -0.9991173148155212 0.00028374348767101765
vn -0.042006149888038635 -0.9991173148155212 0.00028374174144119024
vn -0.042006149888038635 -0.9991173148155212 0.00028374174144119024
vn -0.04200614616274834 -0.9991173148155212 0.00028373999521136284
vn 0.04200606048107147 0.9991173148155212 -0.0002587022027000785
vn 0.0420062392950058 0.9991173148155212 -0.0002586480404715985
vn 0.0420062392950058 0.9991173148155212 -0.0002586480404715985
vn 0.042006414383649826 0.9991173148155212 -0.0002585938782431185
vn 1 7.011215075181099e-8 -6.362349758148866e-9
vn 1 -1.3147527511137014e-10 1.1930678667226857e-11
vn 1 -1.3147527511137014e-10 1.1930678667226857e-11
vn 1 -7.037510130203373e-8 6.38621111548332e-9
vn -1 5.758288779134091e-8 2.045496882985276e-9
vn -1 5.758288779134091e-8 2.045496882985276e-9
vn -1 5.758288779134091e-8 2.045496882985276e-9
vn -1 5.782742107385275e-8 0
vn -1 5.782742107385275e-8 0
vn -1 5.782742107385275e-8 0
vn -1 1.2492015200038509e-9 7.613011376861323e-8
vn -1 1.2492015200038509e-9 7.613011376861323e-8
vn -1 1.2492015200038509e-9 7.613011376861323e-8
vn 0.0029852711595594883 -0.03192582726478577 -0.9994857907295227
vn 0.0029852711595594883 -0.03192582726478577 -0.9994857907295227
vn 0.0008772775763645768 -0.03138556703925133 -0.999506950378418
vn 0.005093250423669815 -0.03246593475341797 -0.9994598627090454
vn -0.0013766878983005881 0.006029609590768814 0.9999808669090271
vn -0.0013766878983005881 0.006029609590768814 0.9999808669090271
vn -0.002221232745796442 0.005814642645418644 0.999980628490448
vn -0.0005321420030668378 0.006244571879506111 0.9999803900718689
vn 0.9999381303787231 -0.011122845113277435 0.00002953397597593721
vn 0.9999381303787231 -0.011122845113277435 0.00002953397597593721
vn 0.9999383091926575 -0.011105352081358433 -0.00019384268671274185
vn 0.999937891960144 -0.011140339076519012 0.0002529106568545103
vn -0.04847124218940735 0.1289609670639038 0.9904643297195435
vn -0.046021126210689545 0.12347634136676788 0.9912797808647156
vn -0.04847124218940735 0.1289609670639038 0.9904643297195435
vn -0.05091957747936249 0.1344408392906189 0.9896124601364136
vn -2.953773332592391e-7 -1 2.7623328624493126e-10
vn -2.9631021902787325e-7 -1 5.524669610679211e-10
vn -2.953773332592391e-7 -1 2.7623328624493126e-10
vn -2.9444444749060494e-7 -1 -3.9328541775339096e-16
vn -0.0133905541151762 0.09237932413816452 -0.9956338405609131
vn -0.014218655414879322 0.0902055874466896 -0.9958216547966003
vn -0.0133905541151762 0.09237932413816452 -0.9956338405609131
vn -0.01256237830966711 0.09455254673957825 -0.9954406023025513
vn -0.02511627785861492 0.9996845126152039 -0.0002823270915541798
vn -0.026075629517436028 0.9996598362922668 -0.0005646538338623941
vn -0.02511627785861492 0.9996845126152039 -0.0002823270915541798
vn -0.024156900122761726 0.9997081756591797 -6.16261069952273e-11
vn 0.9842143058776855 0.1767537146806717 0.008961721323430538
vn 0.9840825796127319 0.17749039828777313 0.00886649452149868
vn 0.9842143058776855 0.1767537146806717 0.008961721323430538
vn 0.9843454957008362 0.1760169416666031 0.009056942537426949
vn -1 9.561184555195723e-8 1.836730434412459e-9
vn -1 1.3265425025110744e-7 -2.5510389356497853e-9
vn -1 9.561184555195723e-8 1.836730434412459e-9
vn -1 5.85694444055207e-8 6.2245000265193084e-9
vn -0.05666610226035118 -0.13126683235168457 0.989726185798645
vn -0.05672748014330864 -0.13146942853927612 0.9896957874298096
vn -0.05666610226035118 -0.13126683235168457 0.989726185798645
vn -0.056604720652103424 -0.13106422126293182 0.9897565841674805
vn -0.11298131197690964 0.9935469627380371 0.009982411749660969
vn -0.1098671406507492 0.9939043521881104 0.009126652963459492
vn -0.11298131197690964 0.9935469627380371 0.009982411749660969
vn -0.11609428375959396 0.9931790828704834 0.010838065296411514
vn 0.015667010098695755 -0.08428981155157089 -0.9963181018829346
vn 0.017659930512309074 -0.0884622186422348 -0.9959229826927185
vn 0.015667010098695755 -0.08428981155157089 -0.9963181018829346
vn 0.01367375161498785 -0.08011557906866074 -0.9966917634010315
vn 0.09679566323757172 -0.9952533841133118 -0.010065837763249874
vn 0.09869039803743362 -0.9950724244117737 -0.009542779996991158
vn 0.09679566323757172 -0.9952533841133118 -0.010065837763249874
vn 0.09490054845809937 -0.9954304695129395 -0.01058885920792818
vn 0.9832107424736023 -0.18236078321933746 0.0064210956916213036
vn 0.9830946922302246 -0.1829880326986313 0.006341947242617607
vn 0.9832107424736023 -0.18236078321933746 0.0064210956916213036
vn 0.9833263754844666 -0.1817334145307541 0.006500242743641138
vn -0.04200615733861923 -0.9991173148155212 0.00028374348767101765
vn -0.042006149888038635 -0.9991173148155212 0.00028374174144119024
vn -0.042006149888038635 -0.9991173148155212 0.00028374174144119024
vn -0.04200614616274834 -0.9991173148155212 0.00028373999521136284
vn 0.0032382088247686625 -0.03204106539487839 0.9994813203811646
vn 0.002058135811239481 -0.03173356130719185 0.9994942545890808
vn 0.002058135811239481 -0.03173356130719185 0.9994942545890808
vn 0.0008780595380812883 -0.03142600879073143 0.9995056986808777
vn -0.0004699925775639713 0.005341280717402697 -0.9999856352806091
vn -0.00041631978820078075 0.0053550973534584045 -0.9999855756759644
vn -0.00041631978820078075 0.0053550973534584045 -0.9999855756759644
vn -0.00036264696973375976 0.0053689139895141125 -0.9999855160713196
vn 0.9999363422393799 -0.011280509643256664 -0.00019690109184011817
vn 0.9999364614486694 -0.011272646486759186 -0.00009839462290983647
vn 0.9999364614486694 -0.011272646486759186 -0.00009839462290983647
vn 0.9999365210533142 -0.011264784261584282 1.118473491601435e-7
vn -0.04200615733861923 -0.9991173148155212 0.00028374348767101765
vn -0.042006149888038635 -0.9991173148155212 0.00028374174144119024
vn -0.042006149888038635 -0.9991173148155212 0.00028374174144119024
vn -0.04200614616274834 -0.9991173148155212 0.00028373999521136284
vn 0.042006414383649826 0.9991173148155212 -0.0002585938782431185
vn 0.0420062392950058 0.9991173148155212 -0.0002586480404715985
vn 0.0420062392950058 0.9991173148155212 -0.0002586480404715985
vn 0.04200606048107147 0.9991173148155212 -0.0002587022027000785
vn 1 7.011215075181099e-8 -6.362349758148866e-9
vn 1 -1.3147527511137014e-10 1.1930678667226857e-11
vn 1 -1.3147527511137014e-10 1.1930678667226857e-11
vn 1 -7.037510130203373e-8 6.38621111548332e-9
vt 0.48508164286613464 0.0022322535514831543
vt 0.4850867688655853 0.9051724672317505
vt 0.5455880165100098 0.9043681025505066
vt 0.4846535623073578 0.9058645367622375
vt 0.5455755591392517 0.9058645367622375
vt 0.4845617711544037 0.006648838520050049
vt 0.5455755591392517 0.9058645367622375
vt 0.545233428478241 0.006648838520050049
vt 0.4845617711544037 0.006648838520050049
vt 0.0006352887721732259 0.9990082383155823
vt 0.0006352589698508382 0.912306010723114
vt 0.45617666840553284 0.912306010723114
vt 0.4561767280101776 0.9990082383155823
vt 0.48508164286613464 0.0022322535514831543
vt 0.5455880165100098 0.9043681025505066
vt 0.5455839037895203 0.001755058765411377
vt 0.48508164286613464 0.0022322535514831543
vt 0.4850867688655853 0.9051724672317505
vt 0.5455880165100098 0.9043681025505066
vt 0.7816673517227173 0.2672281265258789
vt 0.7816674113273621 1
vt 0.995701789855957 0.26722800731658936
vt 0.9957019090652466 0.9999999403953552
vt 0.5453804731369019 0.001755058765411377
vt 0.5453845858573914 0.9043681025505066
vt 0.48485004901885986 0.0022322535514831543
vt 0.48485517501831055 0.9051724672317505
vt 0.48508164286613464 0.0022322535514831543
vt 0.5455880165100098 0.9043681025505066
vt 0.5455839037895203 0.001755058765411377
vt 0.48508164286613464 0.0022322535514831543
vt 0.4850867688655853 0.9051724672317505
vt 0.5455880165100098 0.9043681025505066
vt 0.5534317493438721 0.2672281265258789
vt 0.5534317493438721 1
vt 0.7715662121772766 0.26722800731658936
vt 0.7715663313865662 0.9999999403953552
vt 0.7816673517227173 0.2672281265258789
vt 0.7816674113273621 1
vt 0.995701789855957 0.26722800731658936
vt 0.9957019090652466 0.9999999403953552
vt 0.5453804731369019 0.001755058765411377
vt 0.5453845858573914 0.9043681025505066
vt 0.48485004901885986 0.0022322535514831543
vt 0.48485517501831055 0.9051724672317505
vt 0.4845617711544037 0.006648838520050049
vt 0.5455755591392517 0.9058645367622375
vt 0.4846535623073578 0.9058645367622375
vt 0.4845617711544037 0.006648838520050049
vt 0.545233428478241 0.006648838520050049
vt 0.5455755591392517 0.9058645367622375
vt 0.48508164286613464 0.0022322535514831543
vt 0.5455880165100098 0.9043681025505066
vt 0.5455839037895203 0.001755058765411377
vt 0.7823351621627808 0.2741258144378662
vt 0.9950921535491943 0.9995004534721375
vt 0.9955625534057617 0.27429693937301636
vt 0.782335638999939 0.9996947646141052
vt 0.5529959797859192 0.9996947646141052
vt 0.7701771259307861 0.2742968797683716
vt 0.7710246443748474 0.9995005130767822
vt 0.552995502948761 0.2741258144378662
vt 0.4846535623073578 0.9059364199638367
vt 0.545233428478241 0.006178319454193115
vt 0.5455755591392517 0.9059364199638367
vt 0.4845617711544037 0.006178319454193115
vt 0.9972451329231262 0.18476635217666626
vt 0.5480809211730957 0.18476635217666626
vt 0.5480809211730957 0.2729071378707886
vt 0.997245192527771 0.2729071378707886
vt 0.9959324598312378 0.18486523628234863
vt 0.9983479380607605 0.0037648677825927734
vt 0.547601580619812 0.0037648677825927734
vt 0.5476016402244568 0.1848652958869934
vt 0.9972451329231262 0.2729071378707886
vt 0.5480809211730957 0.2729071378707886
vt 0.5480809211730957 0.18476635217666626
vt 0.997245192527771 0.18476635217666626
vt 0.9959324598312378 0.18486523628234863
vt 0.9983479380607605 0.0037648677825927734
vt 0.547601580619812 0.0037648677825927734
vt 0.5476016402244568 0.1848652958869934
vt 0.45613276958465576 0.9992596507072449
vt 0.45613276958465576 0.9120543003082275
vt 0.0004917384358122945 0.9120543003082275
vt 0.0004917384358122945 0.9992596507072449
vt 0.45617666840553284 0.9990786910057068
vt 0.0006352589698508382 0.9990786910057068
vt 0.0006352887721732259 0.9123764634132385
vt 0.4561767280101776 0.9123764634132385
vt 0.549846351146698 0.18741202354431152
vt 0.549846351146698 0.272865891456604
vt 0.9972451329231262 0.272865891456604
vt 0.997245192527771 0.18741202354431152
vt 0.547601580619812 0.0037648677825927734
vt 0.9983479380607605 0.0037648677825927734
vt 0.9959324598312378 0.18486523628234863
vt 0.5476016402244568 0.1848652958869934
vt 0.549846351146698 0.272865891456604
vt 0.549846351146698 0.18741202354431152
vt 0.9972451329231262 0.18741202354431152
vt 0.997245192527771 0.272865891456604
vt 0.547601580619812 0.0037648677825927734
vt 0.9983479380607605 0.0037648677825927734
vt 0.9959324598312378 0.18486523628234863
vt 0.5476016402244568 0.1848652958869934
vt 0.0004917384358122945 0.9993304014205933
vt 0.45613276958465576 0.9993304014205933
vt 0.45613276958465576 0.9121250510215759
vt 0.0004917384358122945 0.9121250510215759
vt 0.5534317493438721 0.2672281265258789
vt 0.5534317493438721 1
vt 0.7715662121772766 0.26722800731658936
vt 0.7715663313865662 0.9999999403953552
vt 0.782335638999939 0.9996947646141052
vt 0.7823351621627808 0.2717103958129883
vt 0.9950921535491943 0.9995004534721375
vt 0.9955625534057617 0.27188146114349365
vt 0.552995502948761 0.2717103958129883
vt 0.5529959797859192 0.9996947646141052
vt 0.7701771259307861 0.27188146114349365
vt 0.7710246443748474 0.9995005130767822
vt 0.5455755591392517 0.9059364199638367
vt 0.545233428478241 0.006178319454193115
vt 0.4846535623073578 0.9059364199638367
vt 0.4845617711544037 0.006178319454193115
vt 0.5534317493438721 0.2672281265258789
vt 0.5534317493438721 1
vt 0.7715662121772766 0.26722800731658936
vt 0.7715663313865662 0.9999999403953552
vt 0.9957019090652466 0.9999999403953552
vt 0.995701789855957 0.26722800731658936
vt 0.7816674113273621 1
vt 0.7816673517227173 0.2672281265258789
vt 0.5453804731369019 0.001755058765411377
vt 0.5453845858573914 0.9043681025505066
vt 0.48485004901885986 0.0022322535514831543
vt 0.48485517501831055 0.9051724672317505
g Geoset0
s 1
usemtl mat_dwarvenbookshelvessimple01
f 1/1/1 2/2/2 3/3/3
f 4/4/4 5/5/5 6/6/6
f 7/7/7 8/8/8 9/9/9
f 10/10/10 11/11/11 12/12/12
f 12/12/12 13/13/13 10/10/10
f 14/14/14 15/15/15 16/16/16
f 17/17/17 18/18/18 19/19/19
f 20/20/20 21/21/21 22/22/22
f 23/23/23 22/22/22 21/21/21
f 24/24/24 25/25/25 26/26/26
f 27/27/27 26/26/26 25/25/25
f 28/28/28 29/29/29 30/30/30
f 31/31/31 32/32/32 33/33/33
f 34/34/34 35/35/35 36/36/36
f 37/37/37 36/36/36 35/35/35
f 38/38/38 39/39/39 40/40/40
f 41/41/41 40/40/40 39/39/39
f 42/42/42 43/43/43 44/44/44
f 45/45/45 44/44/44 43/43/43
f 46/46/46 47/47/47 48/48/48
f 49/49/49 50/50/50 51/51/51
f 52/52/52 53/53/53 54/54/54
f 55/55/55 56/56/56 57/57/57
f 56/56/56 55/55/55 58/58/58
f 59/59/59 60/60/60 61/61/61
f 60/60/60 59/59/59 62/62/62
f 63/63/63 64/64/64 65/65/65
f 64/64/64 63/63/63 66/66/66
f 67/67/67 68/68/68 69/69/69
f 69/69/69 70/70/70 67/67/67
f 71/71/71 72/72/72 73/73/73
f 73/73/73 74/74/74 71/71/71
f 75/75/75 76/76/76 77/77/77
f 77/77/77 78/78/78 75/75/75
f 79/79/79 80/80/80 81/81/81
f 81/81/81 82/82/82 79/79/79
f 83/83/83 84/84/84 85/85/85
f 85/85/85 86/86/86 83/83/83
f 87/87/87 88/88/88 89/89/89
f 89/89/89 90/90/90 87/87/87
f 91/91/91 92/92/92 93/93/93
f 93/93/93 94/94/94 91/91/91
f 95/95/95 96/96/96 97/97/97
f 97/97/97 98/98/98 95/95/95
f 99/99/99 100/100/100 101/101/101
f 101/101/101 102/102/102 99/99/99
f 103/103/103 104/104/104 105/105/105
f 105/105/105 106/106/106 103/103/103
f 107/107/107 108/108/108 109/109/109
f 109/109/109 110/110/110 107/107/107
f 111/111/111 112/112/112 113/113/113
f 114/114/114 113/113/113 112/112/112
f 115/115/115 116/116/116 117/117/117
f 118/118/118 117/117/117 116/116/116
f 119/119/119 120/120/120 121/121/121
f 122/122/122 121/121/121 120/120/120
f 123/123/123 124/124/124 125/125/125
f 126/126/126 125/125/125 124/124/124
f 127/127/127 128/128/128 129/129/129
f 130/130/130 129/129/129 128/128/128
f 131/131/131 132/132/132 133/133/133
f 134/134/134 133/133/133 132/132/132
f 135/135/135 136/136/136 137/137/137
f 138/138/138 137/137/137 136/136/136