# Exported using wow.export v0.1.49
o 
mtllib tigerskull.mtl
v -0.22980692982673645 0.22042182087898254 0.18781448900699615
v -0.23251666128635406 0.21439310908317566 -0.1838407814502716
v -0.29286232590675354 0.329446941614151 0.0014090805780142546
v 0.18439063429832458 0.05845628306269646 -0.07552094757556915
v 0.17101185023784637 -0.06837614625692368 -0.06594999134540558
v 0.22966231405735016 0.03847788646817207 -0.06431987881660461
v 0.12689317762851715 -0.0383184552192688 -0.07824037969112396
v -0.008922566659748554 -0.20650528371334076 -0.06716980785131454
v 0.193071648478508 0.06458436697721481 -0.12166815251111984
v 0.13101372122764587 -0.06480146944522858 -0.12500889599323273
v 0.18439048528671265 0.05845620855689049 0.08633501827716827
v 0.1268930286169052 -0.03831851854920387 0.08905445039272308
v 0.19307155907154083 0.06458429247140884 0.13248223066329956
v 0.17101168632507324 -0.06837621331214905 0.0767640545964241
v -0.008922697976231575 -0.20650534331798553 0.07798388600349426
v 0.13101357221603394 -0.06480153650045395 0.13582296669483185
v 0.22966215014457703 0.0384778156876564 0.07513394206762314
v -0.20679666101932526 0.3035743236541748 -0.1259668916463852
v -0.29286232590675354 0.329446941614151 0.0014090805780142546
v -0.21398979425430298 0.38913142681121826 -0.0011437047505751252
v -0.23251666128635406 0.21439310908317566 -0.1838407814502716
v -0.11763931810855865 0.18913550674915314 -0.27378353476524353
v -0.1018429547548294 -0.08745352178812027 -0.10860121995210648
v 0.04491779953241348 0.13471493124961853 -0.2599542737007141
v 0.057260215282440186 0.23049476742744446 -0.14148683845996857
v -0.1333710104227066 0.3907129466533661 -0.002789083169773221
v 0.019330766052007675 0.015080713666975498 -0.15961918234825134
v 0.2536228895187378 0.022506482899188995 -0.09399614483118057
v 0.22436264157295227 0.26534923911094666 -0.0019531229045242071
v 0.0592639185488224 0.2349526584148407 0.1333339661359787
v -0.20495912432670593 0.30766257643699646 0.12606288492679596
v -0.29286232590675354 0.329446941614151 0.0014090805780142546
v -0.22980692982673645 0.22042182087898254 0.18781448900699615
v -0.09859875589609146 -0.08023572713136673 0.11387895047664642
v 0.23618507385253906 -0.14920464158058167 -0.00021041430591139942
v 0.260428786277771 -0.09082644432783127 -0.0009274276089854538
v 0.021660806611180305 0.020264694467186928 0.1599605828523636
v 0.04867454618215561 0.14307308197021484 0.2553061842918396
v 0.25492602586746216 0.025405818596482277 0.08473993092775345
v -0.1136462539434433 0.19801941514015198 0.273888498544693
v 0.3487382233142853 0.047840557992458344 -0.004041357431560755
vn 0.5501351356506348 0.8347134590148926 -0.02459285594522953
vn 0.5501351356506348 0.8347134590148926 -0.02459285594522953
vn 0.5501351356506348 0.8347134590148926 -0.02459285594522953
vn -0.5363602638244629 0.29797008633613586 0.7896401286125183
vn 0.6471385955810547 -0.4742633104324341 0.5968969464302063
vn 0.7364157438278198 -0.4123882055282593 0.5363094806671143
vn -0.7971072196960449 0.5054066181182861 0.33043038845062256
vn -0.8830839395523071 0.07722543925046921 0.46281638741493225
vn -0.15580052137374878 0.1273190975189209 -0.9795488715171814
vn -0.15785296261310577 -0.05338398367166519 -0.9860185384750366
vn -0.5363604426383972 0.2979702353477478 -0.7896398901939392
vn -0.7971072793006897 0.5054067969322205 -0.3304300010204315
vn -0.1557999700307846 0.12731878459453583 0.9795490503311157
vn 0.6471383571624756 -0.47426342964172363 -0.5968971252441406
vn -0.8830839395523071 0.0772254467010498 -0.46281638741493225
vn -0.1578528881072998 -0.053383972495794296 0.9860185384750366
vn 0.7364155650138855 -0.4123881161212921 -0.5363097786903381
vn -0.10581889003515244 0.7677311897277832 -0.6319740414619446
vn -0.3223446011543274 0.9465807676315308 -0.008878466673195362
vn -0.062085799872875214 0.9979589581489563 -0.014940795488655567
vn -0.2914822995662689 0.31512996554374695 -0.9031783938407898
vn -0.07247859984636307 0.3192909359931946 -0.944881021976471
vn -0.0028796999249607325 -0.514287531375885 -0.8576129674911499
vn 0.1506272554397583 -0.12823204696178436 -0.9802387356758118
vn 0.1300225555896759 0.7313645482063293 -0.6694774627685547
vn 0.06778223067522049 0.9976381063461304 -0.011122952215373516
vn 0.08566483855247498 -0.660524308681488 -0.7459015846252441
vn 0.26463136076927185 0.2359204739332199 -0.935046374797821
vn 0.33920323848724365 0.9407100677490234 -0.002395493909716606
vn 0.13714629411697388 0.7483411431312561 0.6489810943603516
vn -0.09660221636295319 0.7866242527961731 0.6098281145095825
vn -0.3223446011543274 0.9465807676315308 -0.008878466673195362
vn -0.27745962142944336 0.33786630630493164 0.8993678689002991
vn 0.00317919603548944 -0.4958975911140442 0.8683751821517944
vn 0.65800940990448 -0.7530094981193542 -0.0005747175891883671
vn 0.24345262348651886 -0.9698936343193054 0.006093738134950399
vn 0.08887386322021484 -0.6393583416938782 0.7637554407119751
vn 0.1609603613615036 -0.0996524915099144 0.9819170832633972
vn 0.27212902903556824 0.24375666677951813 0.9308751225471497
vn -0.05925866588950157 0.34412577748298645 0.9370516538619995
vn 0.5358371138572693 0.8443213701248169 -0.00003754489080165513
vt 0.010356943123042583 0.992720365524292
vt 0.016963085159659386 0.8901952505111694
vt 0.3822903037071228 0.9904608726501465
vt 0.3177546560764313 0.5707221031188965
vt 0.10708099603652954 0.6592819690704346
vt 0.19747230410575867 0.48149174451828003
vt 0.172922283411026 0.7060373425483704
vt 0.06929489970207214 0.8131765723228455
vt 0.2589641213417053 0.5293409824371338
vt 0.14096194505691528 0.6832404136657715
vt 0.3177546560764313 0.5707221031188965
vt 0.172922283411026 0.7060373425483704
vt 0.2589641213417053 0.5293409824371338
vt 0.10708099603652954 0.6592819690704346
vt 0.06929489970207214 0.8131765723228455
vt 0.14096194505691528 0.6832404136657715
vt 0.19747230410575867 0.48149174451828003
vt 0.13781429827213287 0.912225604057312
vt 0.3822903037071228 0.9904608726501465
vt 0.5614705681800842 0.9466696977615356
vt 0.01213216781616211 0.991644561290741
vt 0.04130217432975769 0.6263030171394348
vt -0.00031929928809404373 0.37845873832702637
vt 0.22047244012355804 0.42519688606262207
vt 0.3767925500869751 0.567176342010498
vt 0.6003081202507019 0.7534900307655334
vt 0.18110236525535583 0.3385826349258423
vt 0.30708661675453186 0.10236221551895142
vt 0.6141732335090637 0.25196850299835205
vt 0.3767925500869751 0.567176342010498
vt 0.13781429827213287 0.912225604057312
vt 0.37905436754226685 0.9928763508796692
vt 0.007941484451293945 0.9878894686698914
vt -0.0016780318692326546 0.3763783574104309
vt 0.13912619650363922 0.00827699899673462
vt 0.24718622863292694 0.008221745491027832
vt 0.18110236525535583 0.3385826349258423
vt 0.22047244012355804 0.42519688606262207
vt 0.30708661675453186 0.10236221551895142
vt 0.040801674127578735 0.6207694411277771
vt 0.6141732335090637 0.007874011993408203
g Geoset0
s 1
usemtl mat_tigerskull
f 1/1/1 2/2/2 3/3/3
f 4/4/4 5/5/5 6/6/6
f 4/4/4 7/7/7 5/5/5
f 7/7/7 8/8/8 5/5/5
f 9/9/9 7/7/7 4/4/4
f 9/9/9 10/10/10 7/7/7
f 6/6/6 5/5/5 9/9/9
f 5/5/5 10/10/10 9/9/9
f 5/5/5 8/8/8 10/10/10
f 10/10/10 8/8/8 7/7/7
f 11/11/11 12/12/12 13/13/13
f 14/14/14 12/12/12 11/11/11
f 14/14/14 15/15/15 12/12/12
f 16/16/16 15/15/15 14/14/14
f 17/17/17 14/14/14 11/11/11
f 13/13/13 14/14/14 17/17/17
f 13/13/13 16/16/16 14/14/14
f 12/12/12 16/16/16 13/13/13
f 12/12/12 15/15/15 16/16/16
f 18/18/18 19/19/19 20/20/20
f 18/18/18 21/21/21 19/19/19
f 18/18/18 22/22/22 21/21/21
f 22/22/22 23/23/23 21/21/21
f 24/24/24 23/23/23 22/22/22
f 25/25/25 24/24/24 22/22/22
f 25/25/25 20/20/20 26/26/26
f 25/25/25 18/18/18 20/20/20
f 25/25/25 22/22/22 18/18/18
f 27/27/27 23/23/23 24/24/24
f 24/24/24 28/28/28 27/27/27
f 25/25/25 28/28/28 24/24/24
f 29/29/29 28/28/28 25/25/25
f 25/25/25 26/26/26 29/29/29
f 30/30/30 29/29/29 26/26/26
f 30/30/30 26/26/26 20/20/20
f 30/30/30 20/20/20 31/31/31
f 31/31/31 20/20/20 32/32/32
f 31/31/31 32/32/32 33/33/33
f 34/34/34 35/35/35 36/36/36
f 23/23/23 36/36/36 35/35/35
f 36/36/36 23/23/23 27/27/27
f 36/36/36 37/37/37 34/34/34
f 37/37/37 38/38/38 34/34/34
f 37/37/37 39/39/39 38/38/38
f 31/31/31 33/33/33 40/40/40
f 30/30/30 31/31/31 40/40/40
f 29/29/29 41/41/41 28/28/28
f 29/29/29 39/39/39 41/41/41
f 29/29/29 30/30/30 39/39/39
f 30/30/30 38/38/38 39/39/39
f 30/30/30 40/40/40 38/38/38
f 38/38/38 40/40/40 34/34/34
f 40/40/40 33/33/33 34/34/34