# Exported using wow.export v0.1.49
o 
mtllib coffinlid.mtl
v -0.6250000596046448 0.6250000596046448 0.5208333134651184
v -0.6250000596046448 0.7083333730697632 0.5208333134651184
v -1.375 0.7083333134651184 0.3375000059604645
v -0.6250000596046448 0.7083333730697632 0.5208333134651184
v -0.6250000596046448 0.6250000596046448 0.5208333134651184
v 1.3958333730697632 0.625 0.3375000059604645
v 1.3958333730697632 0.7083333134651184 0.3375000059604645
v -0.625 0.7083333134651184 -0.5416666865348816
v -0.625 0.625 -0.5416666865348816
v -1.375 0.625 -0.3375000059604645
v -1.375 0.7083333134651184 -0.3375000059604645
v -1.375 0.7083333134651184 -0.3375000059604645
v -1.375 0.625 -0.3375000059604645
v -1.375 0.625 0.3375000059604645
v -1.375 0.7083333134651184 0.3375000059604645
v -0.6250000596046448 0.7083333730697632 0.5208333134651184
v -0.625 0.7083333134651184 -0.5416666865348816
v -1.375 0.7083333134651184 -0.3375000059604645
v -1.375 0.7083333134651184 0.3375000059604645
v 1.3958333730697632 0.7083333134651184 -0.3375000059604645
v 1.3958333730697632 0.7083333134651184 0.3375000059604645
v -0.6250000596046448 0.6250000596046448 0.5208333134651184
v -1.375 0.625 0.3375000059604645
v -1.375 0.625 -0.3375000059604645
v -0.625 0.625 -0.5416666865348816
v 1.3958333730697632 0.625 -0.3375000059604645
v 1.3958333730697632 0.625 0.3375000059604645
v -0.625 0.625 -0.5416666865348816
v -0.625 0.7083333134651184 -0.5416666865348816
v 1.3958333730697632 0.7083333134651184 -0.3375000059604645
v 1.3958333730697632 0.625 -0.3375000059604645
v 1.3958333730697632 0.7083333134651184 0.3375000059604645
v 1.3958333730697632 0.625 0.3375000059604645
v -1.375 0.625 0.3375000059604645
vn -0.07724571973085403 -0.8034803867340088 0.5902985334396362
vn -0.011399758979678154 0.8034803867340088 0.5952221155166626
vn -0.5594713687896729 0.379326730966568 0.7369552254676819
vn -0.011399758979678154 0.8034803867340088 0.5952221155166626
vn -0.07724571973085403 -0.8034803867340088 0.5902985334396362
vn 0.46812689304351807 -0.39648208022117615 0.7897209525108337
vn 0.8287865519523621 0.39648208022117615 0.39486047625541687
vn -0.11904303729534149 0.5604552030563354 -0.8195844888687134
vn -0.017269127070903778 -0.5604552030563354 -0.8280046582221985
vn -0.48113390803337097 -0.6308597326278687 -0.6087086200714111
vn -0.7137117385864258 0.6308597326278687 -0.30435431003570557
vn -0.7137117385864258 0.6308597326278687 -0.30435431003570557
vn -0.48113390803337097 -0.6308597326278687 -0.6087086200714111
vn -0.8487257957458496 -0.3793267607688904 0.36847764253616333
vn -0.5594713687896729 0.379326730966568 0.7369552254676819
vn -0.011399758979678154 0.8034803867340088 0.5952221155166626
vn -0.11904303729534149 0.5604552030563354 -0.8195844888687134
vn -0.7137117385864258 0.6308597326278687 -0.30435431003570557
vn -0.5594713687896729 0.379326730966568 0.7369552254676819
vn 0.39169225096702576 0.6522560119628906 -0.6489524245262146
vn 0.8287865519523621 0.39648208022117615 0.39486047625541687
vn -0.07724571973085403 -0.8034803867340088 0.5902985334396362
vn -0.8487257957458496 -0.3793267607688904 0.36847764253616333
vn -0.48113390803337097 -0.6308597326278687 -0.6087086200714111
vn -0.017269127070903778 -0.5604552030563354 -0.8280046582221985
vn 0.685038149356842 -0.6522560119628906 -0.3244762122631073
vn 0.46812689304351807 -0.39648208022117615 0.7897209525108337
vn -0.017269127070903778 -0.5604552030563354 -0.8280046582221985
vn -0.11904303729534149 0.5604552030563354 -0.8195844888687134
vn 0.39169225096702576 0.6522560119628906 -0.6489524245262146
vn 0.685038149356842 -0.6522560119628906 -0.3244762122631073
vn 0.8287865519523621 0.39648208022117615 0.39486047625541687
vn 0.46812689304351807 -0.39648208022117615 0.7897209525108337
vn -0.8487257957458496 -0.3793267607688904 0.36847764253616333
vt 0.6078518033027649 0.10857391357421875
vt 0.615032970905304 0.10857391357421875
vt 0.615032970905304 0.3660483956336975
vt 0.6149429082870483 0.3621140122413635
vt 0.6074813008308411 0.3621140122413635
vt 0.6074808835983276 0.11307036876678467
vt 0.6149424910545349 0.11307036876678467
vt 0.6141371726989746 0.11455053091049194
vt 0.60670405626297 0.11455053091049194
vt 0.6067042946815491 0.3660484552383423
vt 0.6141373515129089 0.3660484552383423
vt 0.6150069832801819 0.11165118217468262
vt 0.6078518033027649 0.11165118217468262
vt 0.6078518033027649 0.36420202255249023
vt 0.6150069832801819 0.36420202255249023
vt 0.5036889910697937 0.3527100086212158
vt 0.6108701229095459 0.3527100086212158
vt 0.6125566959381104 0.49252474308013916
vt 0.5028770565986633 0.49252474308013916
vt 0.612556517124176 0.007788240909576416
vt 0.5028767585754395 0.007788300514221191
vt 0.5031222701072693 0.35323143005371094
vt 0.5026959180831909 0.4930460453033447
vt 0.6102777719497681 0.4930460453033447
vt 0.609010636806488 0.3532313108444214
vt 0.6102774143218994 0.0073320865631103516
vt 0.502695620059967 0.0073320865631103516
vt 0.6078590154647827 0.3660483956336975
vt 0.6148929595947266 0.3660483956336975
vt 0.6148927807807922 0.10857391357421875
vt 0.6078588366508484 0.10857391357421875
vt 0.6148001551628113 0.3660483956336975
vt 0.6070461869239807 0.3660483956336975
vt 0.6078518033027649 0.3660483956336975
g Geoset0
s 1
usemtl mat_cemetery01
f 1/1/1 2/2/2 3/3/3
f 4/4/4 5/5/5 6/6/6
f 6/6/6 7/7/7 4/4/4
f 8/8/8 9/9/9 10/10/10
f 10/10/10 11/11/11 8/8/8
f 12/12/12 13/13/13 14/14/14
f 14/14/14 15/15/15 12/12/12
f 16/16/16 17/17/17 18/18/18
f 18/18/18 19/19/19 16/16/16
f 20/20/20 17/17/17 16/16/16
f 16/16/16 21/21/21 20/20/20
f 22/22/22 23/23/23 24/24/24
f 24/24/24 25/25/25 22/22/22
f 22/22/22 25/25/25 26/26/26
f 26/26/26 27/27/27 22/22/22
f 28/28/28 29/29/29 30/30/30
f 30/30/30 31/31/31 28/28/28
f 31/31/31 30/30/30 32/32/32
f 32/32/32 33/33/33 31/31/31
f 3/3/3 34/34/34 1/1/1