# Exported using wow.export v0.1.49
o 
mtllib generalbook01.mtl
v 0.21997417509555817 -3.4489950451188633e-8 0.1361532062292099
v -0.4959387183189392 -2.3010837679748875e-8 0.1361532062292099
v -0.4959386885166168 -3.04291418729008e-8 -0.2411440759897232
v 0.21997417509555817 0.13502226769924164 0.1361532062292099
v -0.4959386885166168 0.13502228260040283 0.1361532062292099
v -0.4959387183189392 -2.3010837679748875e-8 0.1361532062292099
v 0.21997417509555817 -3.4489950451188633e-8 0.1361532062292099
v -0.4959386885166168 0.13502228260040283 0.1361532062292099
v -0.4959387183189392 0.13502231240272522 -0.2411440759897232
v -0.4959386885166168 -3.04291418729008e-8 -0.2411440759897232
v -0.4959387183189392 -2.3010837679748875e-8 0.1361532062292099
v 0.21997414529323578 0.13502228260040283 -0.2411440759897232
v 0.21997417509555817 0.13502226769924164 0.1361532062292099
v 0.21997417509555817 -3.4489950451188633e-8 0.1361532062292099
v 0.21997416019439697 -2.58341597003664e-8 -0.2411440759897232
v -0.4959387183189392 0.13502231240272522 -0.2411440759897232
v -0.4959386885166168 0.13502228260040283 0.1361532062292099
v 0.21997417509555817 0.13502226769924164 0.1361532062292099
v 0.21997416019439697 -2.58341597003664e-8 -0.2411440759897232
v -0.4959386885166168 -3.04291418729008e-8 -0.2411440759897232
v 0.21997414529323578 0.13502228260040283 -0.2411440759897232
v 0.21997416019439697 -2.58341597003664e-8 -0.2411440759897232
vn 0.5773503184318542 -0.5773501992225647 0.5773502588272095
vn -0.5773502588272095 -0.5773502588272095 0.5773502588272095
vn -0.5773503184318542 -0.5773502588272095 -0.5773503184318542
vn 0.5773502588272095 0.5773502588272095 0.5773502588272095
vn -0.5773501992225647 0.577350378036499 0.5773503184318542
vn -0.5773502588272095 -0.5773502588272095 0.5773502588272095
vn 0.5773503184318542 -0.5773501992225647 0.5773502588272095
vn -0.5773501992225647 0.577350378036499 0.5773503184318542
vn -0.5773502588272095 0.5773502588272095 -0.5773503184318542
vn -0.5773503184318542 -0.5773502588272095 -0.5773503184318542
vn -0.5773502588272095 -0.5773502588272095 0.5773502588272095
vn 0.5773501992225647 0.5773503184318542 -0.5773502588272095
vn 0.5773502588272095 0.5773502588272095 0.5773502588272095
vn 0.5773503184318542 -0.5773501992225647 0.5773502588272095
vn 0.5773502588272095 -0.5773501992225647 -0.5773503184318542
vn -0.5773502588272095 0.5773502588272095 -0.5773503184318542
vn -0.5773501992225647 0.577350378036499 0.5773503184318542
vn 0.5773502588272095 0.5773502588272095 0.5773502588272095
vn 0.5773502588272095 -0.5773501992225647 -0.5773503184318542
vn -0.5773503184318542 -0.5773502588272095 -0.5773503184318542
vn 0.5773501992225647 0.5773503184318542 -0.5773502588272095
vn 0.5773502588272095 -0.5773501992225647 -0.5773503184318542
vt 0.428260862827301 0.5091827511787415
vt 0.428260862827301 0.9846954345703125
vt 0.07608695328235626 0.9846954345703125
vt 0.004999999888241291 0.9846954345703125
vt 0.004999999888241291 0.5091827511787415
vt 0.07608695328235626 0.5091827511787415
vt 0.07608695328235626 0.9846954345703125
vt 0.428260862827301 0.9845431447029114
vt 0.428260862827301 0.5091827511787415
vt 0.5 0.5091827511787415
vt 0.5 0.9846954345703125
vt 0.428260862827301 0.9845431447029114
vt 0.428260862827301 0.5091827511787415
vt 0.5 0.5091827511787415
vt 0.5 0.9846954345703125
vt 0.428260862827301 0.9845431447029114
vt 0.07608695328235626 0.9846954345703125
vt 0.07608695328235626 0.5091827511787415
vt 0.5 0.5091827511787415
vt 0.5 0.9846954345703125
vt 0.428260862827301 0.5091827511787415
vt 0.07608695328235626 0.5091827511787415
g Geoset0
s 1
usemtl mat_bookstack01
f 1/1/1 2/2/2 3/3/3
f 4/4/4 5/5/5 6/6/6
f 6/6/6 7/7/7 4/4/4
f 8/8/8 9/9/9 10/10/10
f 10/10/10 11/11/11 8/8/8
f 12/12/12 13/13/13 14/14/14
f 14/14/14 15/15/15 12/12/12
f 16/16/16 17/17/17 18/18/18
f 19/19/19 20/20/20 16/16/16
f 16/16/16 21/21/21 19/19/19
f 18/18/18 21/21/21 16/16/16
f 3/3/3 22/22/22 1/1/1