# Exported using wow.export v0.1.49
o 
mtllib scrollb01.mtl
v -0.36668840050697327 0.024518052116036415 -0.09106053411960602
v -0.36668863892555237 0.03153934329748154 0.11570211499929428
v 0.3513072431087494 0.024517999961972237 -0.09106053411960602
v 0.44436249136924744 0.05734850838780403 0.1584271341562271
v 0.44436249136924744 0.08335050940513611 0.010962426662445068
v 0.4443625211715698 0.1392582207918167 0.09684523195028305
v 0.44436249136924744 0.0014407833805307746 0.07254431396722794
v -0.36668863892555237 0.03153934329748154 0.11570211499929428
v 0.351307213306427 0.04448496177792549 0.04228353127837181
v 0.3513071537017822 0.03153929114341736 0.11570211499929428
v -0.36668863892555237 0.03153934329748154 0.11570211499929428
v -0.36668869853019714 0.04448501765727997 0.042283520102500916
v 0.351307213306427 0.04448496177792549 0.04228353127837181
v -0.36668840050697327 0.056024737656116486 -0.023494243621826172
v 0.3513072431087494 0.024517999961972237 -0.09106053411960602
v 0.351307213306427 0.05602468550205231 -0.023494238033890724
v -0.36668840050697327 0.056024737656116486 -0.023494243621826172
v -0.36668840050697327 0.024518052116036415 -0.09106053411960602
v 0.3513072431087494 0.024517999961972237 -0.09106053411960602
v 0.3513072431087494 0.024517999961972237 -0.09106053411960602
v -0.36668863892555237 0.03153934329748154 0.11570211499929428
v 0.3513071537017822 0.03153929114341736 0.11570211499929428
v -0.45974355936050415 0.03838974982500076 -0.13900958001613617
v -0.4597434401512146 0.10167238861322403 -0.0032995210494846106
v -0.4597432315349579 0.13344694674015045 -0.100725919008255
v -0.4597439765930176 0.00661511579528451 -0.04158327355980873
v 0.44436249136924744 0.1016724482178688 -0.003299454925581813
v 0.44436249136924744 0.03838976100087166 -0.13900960981845856
v 0.4443625211715698 0.13344696164131165 -0.1007259413599968
v 0.44436249136924744 0.006615155376493931 -0.04158319532871246
v -0.45974409580230713 0.08335049450397491 0.010962400585412979
v -0.4597441852092743 0.057348497211933136 0.15842710435390472
v -0.4597438871860504 0.1392582207918167 0.09684520214796066
v -0.45974409580230713 0.0014407833805307746 0.07254429161548615
v 0.351307213306427 0.05602468550205231 -0.023494238033890724
v -0.36668822169303894 0.10381422191858292 -0.08690795302391052
v -0.36668840050697327 0.056024737656116486 -0.023494243621826172
v 0.3513071835041046 0.10381416976451874 -0.08690795302391052
v -0.36668840050697327 0.024518052116036415 -0.09106053411960602
v 0.3513072431087494 0.024517999961972237 -0.09106053411960602
v 0.3513071537017822 0.03153929114341736 0.11570211499929428
v -0.36668860912323 0.10705883055925369 0.09116760641336441
v -0.36668863892555237 0.03153934329748154 0.11570211499929428
v 0.3513071537017822 0.10705874860286713 0.09116760641336441
v -0.36668869853019714 0.04448501765727997 0.042283520102500916
v 0.351307213306427 0.04448496177792549 0.04228353127837181
v -0.36668840050697327 0.056024737656116486 -0.023494243621826172
v -0.4597434401512146 0.10167238861322403 -0.0032995210494846106
v -0.4597439765930176 0.00661511579528451 -0.04158327355980873
v -0.36668822169303894 0.10381422191858292 -0.08690795302391052
v -0.4597432315349579 0.13344694674015045 -0.100725919008255
v -0.45974355936050415 0.03838974982500076 -0.13900958001613617
v -0.36668840050697327 0.024518052116036415 -0.09106053411960602
v -0.36668860912323 0.10705883055925369 0.09116760641336441
v -0.36668869853019714 0.04448501765727997 0.042283520102500916
v -0.45974409580230713 0.08335049450397491 0.010962400585412979
v -0.4597438871860504 0.1392582207918167 0.09684520214796066
v -0.45974409580230713 0.0014407833805307746 0.07254429161548615
v -0.36668863892555237 0.03153934329748154 0.11570211499929428
v -0.4597441852092743 0.057348497211933136 0.15842710435390472
v 0.44436249136924744 0.05734850838780403 0.1584271341562271
v 0.4443625211715698 0.1392582207918167 0.09684523195028305
v 0.3513071537017822 0.10705874860286713 0.09116760641336441
v 0.3513071537017822 0.03153929114341736 0.11570211499929428
v 0.44436249136924744 0.0014407833805307746 0.07254431396722794
v 0.351307213306427 0.04448496177792549 0.04228353127837181
v 0.44436249136924744 0.08335050940513611 0.010962426662445068
v 0.44436249136924744 0.1016724482178688 -0.003299454925581813
v 0.4443625211715698 0.13344696164131165 -0.1007259413599968
v 0.3513071835041046 0.10381416976451874 -0.08690795302391052
v 0.351307213306427 0.05602468550205231 -0.023494238033890724
v 0.44436249136924744 0.006615155376493931 -0.04158319532871246
v 0.3513072431087494 0.024517999961972237 -0.09106053411960602
v 0.44436249136924744 0.03838976100087166 -0.13900960981845856
vn 7.374889321454248e-8 0.9994239211082458 -0.033938657492399216
vn 7.374889321454248e-8 0.9994239211082458 -0.033938657492399216
vn 7.374889321454248e-8 0.9994239211082458 -0.033938657492399216
vn 1 -4.660541819134778e-8 -8.217789115860796e-9
vn 1 -4.660541819134778e-8 -8.217789115860796e-9
vn 1 -4.660542529677514e-8 -8.217790004039216e-9
vn 1 -4.660541108592042e-8 -8.217788227682377e-9
vn -6.946689268261252e-8 -0.9848077893257141 -0.17364811897277832
vn -6.946689268261252e-8 -0.9848077893257141 -0.17364811897277832
vn -6.946689268261252e-8 -0.9848077893257141 -0.17364811897277832
vn -6.946688557718517e-8 -0.9848077893257141 -0.17364810407161713
vn -6.946688557718517e-8 -0.9848077893257141 -0.17364810407161713
vn -6.946688557718517e-8 -0.9848077893257141 -0.17364810407161713
vn -7.077593267013071e-8 -0.9063077569007874 0.4226182997226715
vn -7.077593267013071e-8 -0.9063077569007874 0.4226182997226715
vn -7.077593267013071e-8 -0.9063077569007874 0.4226182997226715
vn -6.687772469149422e-8 -0.9063077569007874 0.4226182997226715
vn -6.687772469149422e-8 -0.9063077569007874 0.4226182997226715
vn -6.687772469149422e-8 -0.9063077569007874 0.4226182997226715
vn 7.421844117061482e-8 0.9994239211082458 -0.033938657492399216
vn 7.421844117061482e-8 0.9994239211082458 -0.033938657492399216
vn 7.421844117061482e-8 0.9994239211082458 -0.033938657492399216
vn -1 0.00000510280005983077 -0.0000015986644257282023
vn -1 0.000005102799605083419 -0.0000015986644257282023
vn -1 0.000003730306389115867 -9.586601663613692e-7
vn -1 0.000006475292593677295 -0.00000223866845772136
vn 1 -6.158220600127606e-8 -2.008435195932634e-8
vn 1 -6.158221310670342e-8 -2.008435373568318e-8
vn 1 -6.158225573926757e-8 -2.0084330643044268e-8
vn 1 -6.158215626328456e-8 -2.0084375051965253e-8
vn -1 0.0000016142558934006956 -4.3393393411861325e-7
vn -1 0.0000016142558934006956 -4.339339625403227e-7
vn -1 0.0000038513157960551325 -3.9480099189859175e-8
vn -1 -6.228038955669035e-7 -8.28387783258222e-7
vn -0.3315543830394745 0.2580684721469879 0.9074537754058838
vn 0.35731130838394165 0.8464779853820801 -0.3947197198867798
vn 0.33155426383018494 0.25806817412376404 0.9074538946151733
vn -0.3573114275932312 0.8464778065681458 -0.3947199285030365
vn 0.33155420422554016 -0.5292679667472839 -0.7809911966323853
vn -0.33155369758605957 -0.5292676091194153 -0.7809916734695435
vn -0.3315539062023163 -0.30909696221351624 0.8913646936416626
vn 0.3573106527328491 0.9197962284088135 0.162184938788414
vn 0.3315538167953491 -0.3090967535972595 0.8913648128509521
vn -0.35731130838394165 0.9197960495948792 0.16218464076519012
vn 0.3315541446208954 0.014408017508685589 -0.9433261752128601
vn -0.3315539062023163 0.01440797932446003 -0.9433262348175049
vn 0.33155426383018494 0.25806817412376404 0.9074538946151733
vn 0.2860441207885742 0.45835453271865845 0.8414807915687561
vn 0.13575837016105652 -0.8979175090789795 0.41870495676994324
vn 0.35731130838394165 0.8464779853820801 -0.3947197198867798
vn 0.331496000289917 0.8550617694854736 -0.39872267842292786
vn 0.2860439121723175 -0.3499871790409088 -0.8920133709907532
vn 0.33155420422554016 -0.5292679667472839 -0.7809911966323853
vn 0.3573106527328491 0.9197962284088135 0.162184938788414
vn 0.3315541446208954 0.014408017508685589 -0.9433261752128601
vn 0.28604379296302795 0.22494694590568542 -0.9314385652542114
vn 0.3314951956272125 0.9291236400604248 0.16382990777492523
vn 0.13575847446918488 -0.9756904244422913 -0.1720401793718338
vn 0.3315538167953491 -0.3090967535972595 0.8913648128509521
vn 0.2860433757305145 -0.10718963295221329 0.9522024989128113
vn -0.2860442101955414 -0.10718823969364166 0.9522023797035217
vn -0.33149564266204834 0.9291235208511353 0.163829505443573
vn -0.35731130838394165 0.9197960495948792 0.16218464076519012
vn -0.3315539062023163 -0.30909696221351624 0.8913646936416626
vn -0.135758176445961 -0.9756904244422913 -0.1720404028892517
vn -0.3315539062023163 0.01440797932446003 -0.9433262348175049
vn -0.2860442101955414 0.2249482423067093 -0.931438148021698
vn -0.2860448658466339 0.4583575129508972 0.8414788842201233
vn -0.33149564266204834 0.855061948299408 -0.3987225294113159
vn -0.3573114275932312 0.8464778065681458 -0.3947199285030365
vn -0.3315543830394745 0.2580684721469879 0.9074537754058838
vn -0.13575829565525055 -0.8979170918464661 0.4187058210372925
vn -0.33155369758605957 -0.5292676091194153 -0.7809916734695435
vn -0.2860439419746399 -0.3499842882156372 -0.8920145034790039
vt 0.4364120364189148 0.2512180805206299
vt 0.37649089097976685 0.25121796131134033
vt 0.4364120364189148 0.4996833801269531
vt 0.9808701872825623 0.301449179649353
vt 0.9808701872825623 0.2501419186592102
vt 0.9485294222831726 0.27580857276916504
vt 0.9485358595848083 0.27580857276916504
vt 0 0
vt 0 0
vt 0 0
vt 0 0
vt 0 0
vt 0 0
vt 0 0
vt 0 0
vt 0 0
vt 0 0
vt 0 0
vt 0 0
vt 0.4364120364189148 0.4996833801269531
vt 0.37649089097976685 0.25121796131134033
vt 0.37649089097976685 0.4996832609176636
vt 0.9808701872825623 0.2501939535140991
vt 0.9808701872825623 0.301449179649353
vt 0.9485294222831726 0.27580857276916504
vt 0.9485358595848083 0.27580857276916504
vt 0.9808701872825623 0.301449179649353
vt 0.9808701872825623 0.2501939535140991
vt 0.9485294222831726 0.27580857276916504
vt 0.9485358595848083 0.27580857276916504
vt 0.9808701872825623 0.2501419186592102
vt 0.9808701872825623 0.301449179649353
vt 0.9485294222831726 0.27580857276916504
vt 0.9485358595848083 0.27580857276916504
vt 0.3755629062652588 0.49893760681152344
vt 0.4081951081752777 0.251264750957489
vt 0.3755629062652588 0.25126469135284424
vt 0.4081951081752777 0.49893760681152344
vt 0.43608978390693665 0.25126469135284424
vt 0.43608978390693665 0.49893760681152344
vt 0.3754711151123047 0.49893760681152344
vt 0.4081950783729553 0.25126469135284424
vt 0.3754711151123047 0.25126469135284424
vt 0.4081950783729553 0.49893760681152344
vt 0.43601810932159424 0.25126463174819946
vt 0.43601810932159424 0.49893760681152344
vt 0 0
vt 0 0
vt 0 0
vt 0 0
vt 0 0
vt 0 0
vt 0 0
vt 0 0
vt 0 0
vt 0 0
vt 0 0
vt 0 0
vt 0 0
vt 0 0
vt 0 0
vt 0 0
vt 0 0
vt 0 0
vt 0 0
vt 0 0
vt 0 0
vt 0 0
vt 0 0
vt 0 0
vt 0 0
vt 0 0
vt 0 0
vt 0 0
g Geoset0
s 1
usemtl mat_books
f 1/1/1 2/2/2 3/3/3
f 4/4/4 5/5/5 6/6/6
f 7/7/7 5/5/5 4/4/4
f 8/8/8 9/9/9 10/10/10
f 11/11/11 12/12/12 13/13/13
f 14/14/14 15/15/15 16/16/16
f 17/17/17 18/18/18 19/19/19
f 20/20/20 21/21/21 22/22/22
f 23/23/23 24/24/24 25/25/25
f 26/26/26 24/24/24 23/23/23
f 27/27/27 28/28/28 29/29/29
f 30/30/30 28/28/28 27/27/27
f 31/31/31 32/32/32 33/33/33
f 34/34/34 32/32/32 31/31/31
f 35/35/35 36/36/36 37/37/37
f 35/35/35 38/38/38 36/36/36
f 38/38/38 39/39/39 36/36/36
f 38/38/38 40/40/40 39/39/39
f 41/41/41 42/42/42 43/43/43
f 41/41/41 44/44/44 42/42/42
f 44/44/44 45/45/45 42/42/42
f 44/44/44 46/46/46 45/45/45
f 47/47/47 48/48/48 49/49/49
f 47/47/47 50/50/50 48/48/48
f 48/48/48 50/50/50 51/51/51
f 50/50/50 52/52/52 51/51/51
f 50/50/50 53/53/53 52/52/52
f 53/53/53 49/49/49 52/52/52
f 53/53/53 47/47/47 49/49/49
f 54/54/54 55/55/55 56/56/56
f 54/54/54 56/56/56 57/57/57
f 55/55/55 58/58/58 56/56/56
f 55/55/55 59/59/59 58/58/58
f 59/59/59 60/60/60 58/58/58
f 59/59/59 54/54/54 60/60/60
f 60/60/60 54/54/54 57/57/57
f 61/61/61 62/62/62 63/63/63
f 61/61/61 63/63/63 64/64/64
f 65/65/65 61/61/61 64/64/64
f 65/65/65 64/64/64 66/66/66
f 67/67/67 65/65/65 66/66/66
f 63/63/63 67/67/67 66/66/66
f 62/62/62 67/67/67 63/63/63
f 68/68/68 69/69/69 70/70/70
f 68/68/68 70/70/70 71/71/71
f 72/72/72 68/68/68 71/71/71
f 72/72/72 71/71/71 73/73/73
f 74/74/74 72/72/72 73/73/73
f 70/70/70 74/74/74 73/73/73
f 69/69/69 74/74/74 70/70/70