# Exported using wow.export v0.1.49
o 
mtllib scrollmap.mtl
v -0.402873158454895 0.08730040490627289 0.49703189730644226
v 0.3956708312034607 0.12725158035755157 0.5062118768692017
v -0.3882209360599518 0.038134921342134476 0.4809310734272003
v 0.3952479660511017 0.10829782485961914 -0.5049625635147095
v -0.4244398772716522 0.12725158035755157 -0.5049625635147095
v 0.3771180212497711 0.049421537667512894 -0.48529666662216187
v -0.40360569953918457 0.062102869153022766 -0.48529666662216187
v 0.35434648394584656 0.008783550001680851 -0.4151741862297058
v -0.38455790281295776 0.008783550001680851 -0.4151741862297058
v 0.3773556053638458 0.008783550001680851 0.41148579120635986
v -0.36536234617233276 0.008783550001680851 0.41148579120635986
v 0.38101860880851746 0.06146831810474396 0.4809310734272003
vn -0.004578970838338137 0.3099830746650696 -0.9507310390472412
vn -0.010624098591506481 0.3582841753959656 -0.9335521459579468
vn -0.01574588194489479 0.6158761978149414 -0.7876855731010437
vn 0.0072788973338902 0.3147886395454407 0.9491338729858398
vn 0.004875338636338711 0.29188138246536255 0.95644211769104
vn 0.010676668025553226 0.5779027938842773 0.8160357475280762
vn 0.0033758871722966433 0.5294678807258606 0.8483232855796814
vn 0.007303515914827585 0.9587845206260681 0.2840404212474823
vn 4.3484855685155103e-16 0.939735472202301 0.3419024646282196
vn 4.3634153183042554e-16 0.9454084634780884 -0.3258877098560333
vn -0.0144171928986907 0.9739263653755188 -0.22640569508075714
vn -0.007085829973220825 0.5871766209602356 -0.8094278573989868
vt 0 1
vt 0 0
vt 0.08300001174211502 1
vt 1 0
vt 1 1
vt 0.9169999957084656 0
vt 0.9169999957084656 1
vt 0.8260000944137573 0
vt 0.8260000944137573 1
vt 0.17400002479553223 0
vt 0.17400002479553223 1
vt 0.08300001174211502 0
g Geoset0
s 1
usemtl mat_scrollmap
f 1/1/1 2/2/2 3/3/3
f 4/4/4 5/5/5 6/6/6
f 7/7/7 6/6/6 5/5/5
f 6/6/6 7/7/7 8/8/8
f 9/9/9 8/8/8 7/7/7
f 8/8/8 9/9/9 10/10/10
f 11/11/11 10/10/10 9/9/9
f 10/10/10 11/11/11 12/12/12
f 3/3/3 12/12/12 11/11/11
f 12/12/12 3/3/3 2/2/2