# Exported using wow.export v0.1.49
o 
mtllib duskwoodmushroom01.mtl
v 0.35359200835227966 -0.002807779936119914 -0.1602109968662262
v 0.29079699516296387 -0.002807779936119914 -0.05144999921321869
v 0.31075599789619446 0.289685994386673 -0.05998219922184944
v -0.13695399463176727 -0.014037800021469593 0.05819280073046684
v -0.23584699630737305 0.31398600339889526 -0.05831670016050339
v -0.1761309951543808 0.31398600339889526 0.045115601271390915
v -0.23124399781227112 -0.014037800021469593 -0.10512100160121918
v -0.325533002614975 -0.014037800021469593 0.05819280073046684
v -0.1761309951543808 0.31398600339889526 0.045115601271390915
v -0.2955609858036041 0.31398600339889526 0.045115601271390915
v -0.13695399463176727 -0.014037800021469593 0.05819280073046684
v -0.23124399781227112 -0.014037800021469593 -0.10512100160121918
v -0.2955609858036041 0.31398600339889526 0.045115601271390915
v -0.23584699630737305 0.31398600339889526 -0.05831670016050339
v -0.325533002614975 -0.014037800021469593 0.05819280073046684
v 0.3191030025482178 -0.014037800021469593 0.4833250045776367
v 0.22021199762821198 0.20667999982833862 0.36835598945617676
v 0.2799279987812042 0.19049899280071259 0.47051700949668884
v 0.2248149961233139 -0.014037800021469593 0.32001399993896484
v 0.13052600622177124 -0.014037800021469593 0.4833250045776367
v 0.2799279987812042 0.19049899280071259 0.47051700949668884
v 0.16049499809741974 0.19049899280071259 0.47051700949668884
v 0.3191030025482178 -0.014037800021469593 0.4833250045776367
v 0.2248149961233139 -0.014037800021469593 0.32001399993896484
v 0.16049499809741974 0.19049899280071259 0.47051700949668884
v 0.22021199762821198 0.20667999982833862 0.36835598945617676
v 0.13052600622177124 -0.014037800021469593 0.4833250045776367
v 0.4163829982280731 -0.002807779936119914 -0.05144999921321869
v 0.3505280017852783 0.30045801401138306 -0.12801599502563477
v 0.390296995639801 0.289685994386673 -0.05998219922184944
v 0.35359200835227966 -0.002807779936119914 -0.1602109968662262
v 0.29079699516296387 -0.002807779936119914 -0.05144999921321869
v 0.390296995639801 0.289685994386673 -0.05998219922184944
v 0.31075599789619446 0.289685994386673 -0.05998219922184944
v 0.4163829982280731 -0.002807779936119914 -0.05144999921321869
v -0.2340649962425232 0.39240801334381104 0.011941400356590748
v 0.1128000020980835 0.2620620131492615 -0.09408500045537949
v -0.2340649962425232 0.24887299537658691 -0.3457469940185547
v -0.5809280276298523 0.2620620131492615 -0.09408470243215561
v -0.019690299406647682 0.2834030091762543 0.31311699748039246
v -0.44843900203704834 0.2834030091762543 0.31311699748039246
v 0.22199399769306183 0.27314600348472595 0.45001399517059326
v 0.355910986661911 0.15270300209522247 0.6239060163497925
v 0.4386749863624573 0.17932899296283722 0.37057799100875854
v 0.08807689696550369 0.15270300209522247 0.6239060163497925
v 0.005311669781804085 0.17932899296283722 0.37057799100875854
v 0.22199399769306183 0.19578500092029572 0.2140119969844818
v 0.3514670133590698 0.358117014169693 -0.06546030193567276
v 0.10504800081253052 0.18406599760055542 -0.15580399334430695
v 0.1991730034351349 0.15378500521183014 0.13229699432849884
v 0.3514670133590698 0.20277999341487885 -0.3338559865951538
v 0.597894012928009 0.18406599760055542 -0.15580399334430695
v 0.5037689805030823 0.15378500521183014 0.13229699432849884
v 0.3505280017852783 0.30045801401138306 -0.12801599502563477
vn -0.49887099862098694 0.08660610020160675 -0.8623380064964294
vn -0.49884000420570374 0.059261299669742584 0.8646659851074219
vn -0.9976900219917297 0.06792999804019928 0.0006566270021721721
vn 0.9929350018501282 0.11864899843931198 0.0015381700359284878
vn 0.4949299991130829 0.12954500317573547 -0.8592219948768616
vn 0.4964680075645447 0.09369809925556183 0.8629840016365051
vn -0.4974989891052246 0.11568699777126312 -0.85971599817276
vn -0.4979250133037567 0.07991769909858704 0.8635299801826477
vn 0.4964680075645447 0.09369809925556183 0.8629840016365051
vn -0.9958500266075134 0.0910051017999649 0.0005490729818120599
vn 0.9929350018501282 0.11864899843931198 0.0015381700359284878
vn -0.4974989891052246 0.11568699777126312 -0.85971599817276
vn -0.9958500266075134 0.0910051017999649 0.0005490729818120599
vn 0.4949299991130829 0.12954500317573547 -0.8592219948768616
vn -0.4979250133037567 0.07991769909858704 0.8635299801826477
vn 0.9826989769935608 0.184922993183136 0.0103235999122262
vn 0.4930639863014221 0.2020920068025589 -0.8461959958076477
vn 0.49090200662612915 0.1478080004453659 0.858585000038147
vn -0.49682000279426575 0.17802399396896362 -0.8493980169296265
vn -0.4947099983692169 0.12634499371051788 0.8598250150680542
vn 0.49090200662612915 0.1478080004453659 0.858585000038147
vn -0.9898989796638489 0.14169299602508545 0.004766089841723442
vn 0.9826989769935608 0.184922993183136 0.0103235999122262
vn -0.49682000279426575 0.17802399396896362 -0.8493980169296265
vn -0.9898989796638489 0.14169299602508545 0.004766089841723442
vn 0.4930639863014221 0.2020920068025589 -0.8461959958076477
vn -0.4947099983692169 0.12634499371051788 0.8598250150680542
vn 0.9960780143737793 0.0884442999958992 0.0024740099906921387
vn 0.49853700399398804 0.09725049883127213 -0.8613960146903992
vn 0.4980129897594452 0.06963630020618439 0.8643689751625061
vn -0.49887099862098694 0.08660610020160675 -0.8623380064964294
vn -0.49884000420570374 0.059261299669742584 0.8646659851074219
vn 0.4980129897594452 0.06963630020618439 0.8643689751625061
vn -0.9976900219917297 0.06792999804019928 0.0006566270021721721
vn 0.9960780143737793 0.0884442999958992 0.0024740099906921387
vn 9.705430237261226e-9 0.9986299872398376 -0.05233589932322502
vn 0.3075129985809326 0.9397569894790649 -0.14930500090122223
vn -2.296020085168493e-8 0.9280639886856079 -0.3724200129508972
vn -0.3075129985809326 0.9397569894790649 -0.14930500090122223
vn 0.1900539994239807 0.9586769938468933 0.21170300245285034
vn -0.19005300104618073 0.9586769938468933 0.21170300245285034
vn 1.3612299731846633e-8 0.9946659803390503 0.10315299779176712
vn 0.23896700143814087 0.874642014503479 0.42177799344062805
vn 0.3876430094242096 0.9212980270385742 -0.030693799257278442
vn -0.23896700143814087 0.874642014503479 0.42177799344062805
vn -0.3876430094242096 0.9212989807128906 -0.030693700537085533
vn 0 0.9502509832382202 -0.31148600578308105
vn 0 0.9955120086669922 0.09463830292224884
vn -0.549871027469635 0.8294619917869568 -0.09815820306539536
vn -0.33529600501060486 0.7722219824790955 0.5396760106086731
vn -3.241339996407078e-8 0.8654999732971191 -0.5009089708328247
vn 0.549871027469635 0.8294619917869568 -0.09815829992294312
vn 0.33529600501060486 0.7722219824790955 0.5396760106086731
vn 0.49853700399398804 0.09725049883127213 -0.8613960146903992
vt 0.005279240198433399 0.008948028087615967
vt 0.2368759959936142 0.008944988250732422
vt 0.23879200220108032 0.993596610147506
vt 0.0022276900708675385 0.005101978778839111
vt 0.2548159956932068 0.9978557201102376
vt 0.005249800160527229 0.9978557201102376
vt 0.25356000661849976 0.005101978778839111
vt 0.005279240198433399 0.00845402479171753
vt 0.25536298751831055 0.9963768098969012
vt 0.005797449965029955 0.9963768098969012
vt 0.2526639997959137 0.00845402479171753
vt 0.005279240198433399 0.0093269944190979
vt 0.25790101289749146 0.9972495399415493
vt 0.008335409685969353 0.9972495399415493
vt 0.2526639997959137 0.0093269944190979
vt 0.010946400463581085 0.02017897367477417
vt 0.22398200631141663 0.9868459003046155
vt 0.019190700724720955 0.9837350994348526
vt 0.22951799631118774 0.02054697275161743
vt 0.004884540103375912 0.01666700839996338
vt 0.21944500505924225 0.9833333007991314
vt 0.020796500146389008 0.9944444298744202
vt 0.2234559953212738 0.01666700839996338
vt 0.013962900266051292 0.018890976905822754
vt 0.22711299359798431 0.9933091402053833
vt 0.03139450028538704 0.9854210000485182
vt 0.2325340062379837 0.018754005432128906
vt 0.0022361900191754103 0.009275972843170166
vt 0.239329993724823 1.0020297800656408
vt 0.004532219842076302 0.9939383901655674
vt 0.24172699451446533 0.009297013282775879
vt 0.005279240198433399 0.00845402479171753
vt 0.24352200329303741 0.9915458597242832
vt 0.005797449965029955 1.0012078300351277
vt 0.24477000534534454 0.00845402479171753
vt 0.5986779928207397 0.4952459931373596
vt 0.6929550170898438 0.0016769766807556152
vt 1.0019999742507935 0.46626102924346924
vt 0.7284790277481079 1.0033079399727285
vt 0.2612920105457306 0.16789400577545166
vt 0.2612920105457306 0.8177669942378998
vt 0.5736759901046753 0.5
vt 0.2635670006275177 0.19566500186920166
vt 0.7153469920158386 0.00757598876953125
vt 0.2635670006275177 0.8043349981307983
vt 0.7153469920158386 0.9924241900444031
vt 0.9945619702339172 0.5
vt 0.5719429850578308 0.5000720024108887
vt 0.7159870266914368 1.0000723600023775
vt 0.2566379904747009 0.8090890049934387
vt 0.9998810291290283 0.5000720024108887
vt 0.7159870266914368 0.00007200241088867188
vt 0.2566379904747009 0.19105499982833862
vt 0.003991810139268637 0.9920364003628492
g Geoset0
s 1
usemtl mat_mushroom01
f 1/1/1 2/2/2 3/3/3
f 4/4/4 5/5/5 6/6/6
f 4/4/4 7/7/7 5/5/5
f 8/8/8 9/9/9 10/10/10
f 8/8/8 11/11/11 9/9/9
f 12/12/12 13/13/13 14/14/14
f 12/12/12 15/15/15 13/13/13
f 16/16/16 17/17/17 18/18/18
f 16/16/16 19/19/19 17/17/17
f 20/20/20 21/21/21 22/22/22
f 20/20/20 23/23/23 21/21/21
f 24/24/24 25/25/25 26/26/26
f 24/24/24 27/27/27 25/25/25
f 28/28/28 29/29/29 30/30/30
f 28/28/28 31/31/31 29/29/29
f 32/32/32 33/33/33 34/34/34
f 32/32/32 35/35/35 33/33/33
f 36/36/36 37/37/37 38/38/38
f 36/36/36 38/38/38 39/39/39
f 36/36/36 40/40/40 37/37/37
f 36/36/36 41/41/41 40/40/40
f 36/36/36 39/39/39 41/41/41
f 42/42/42 43/43/43 44/44/44
f 42/42/42 45/45/45 43/43/43
f 42/42/42 46/46/46 45/45/45
f 42/42/42 47/47/47 46/46/46
f 42/42/42 44/44/44 47/47/47
f 48/48/48 49/49/49 50/50/50
f 48/48/48 51/51/51 49/49/49
f 48/48/48 52/52/52 51/51/51
f 48/48/48 53/53/53 52/52/52
f 48/48/48 50/50/50 53/53/53
f 1/1/1 3/3/3 54/54/54