# Exported using wow.export v0.1.49
o 
mtllib orcshield03.mtl
v -0.09631609916687012 0.7926110029220581 0.4260059893131256
v -0.09631609916687012 0.9727609753608704 0.2458599954843521
v -0.07953579723834991 0.5465250015258789 -0.00022222200641408563
v -0.09631609916687012 0.9727609753608704 -0.24631300568580627
v -0.03410249948501587 0.9563639760017395 -0.23684799671173096
v -0.09631609916687012 0.7926110029220581 -0.4264560043811798
v -0.03410249948501587 1.0197700262069702 -0.00022222200641408563
v 0.02325890026986599 0.5465250015258789 -0.00022222200641408563
v -0.03410249948501587 0.9563639760017395 0.236395001411438
v -0.03410249948501587 0.7831469774246216 -0.4100640118122101
v -0.09631580114364624 0.5465250015258789 -0.49239400029182434
v -0.09631580114364624 0.12029299885034561 -0.24631300568580627
v -0.03410249948501587 0.1366869956254959 -0.23684799671173096
v -0.09631580114364624 0.05435439944267273 -0.00022222200641408563
v -0.03410249948501587 0.30990299582481384 -0.4100640118122101
v -0.09631580114364624 0.30043599009513855 -0.4264560043811798
v -0.03410249948501587 0.5465250015258789 -0.47346898913383484
v -0.03410249948501587 0.07328420132398605 -0.00022222200641408563
v -0.03410249948501587 0.1366869956254959 0.23639599978923798
v -0.09631609916687012 0.12029299885034561 0.2458599954843521
v -0.03410249948501587 0.30990299582481384 0.4096139967441559
v -0.03410249948501587 0.5465250015258789 0.47301700711250305
v -0.03410249948501587 0.7831469774246216 0.4096139967441559
v -0.09631609916687012 0.30043599009513855 0.4260059893131256
v -0.09631609916687012 0.5465250015258789 0.49194198846817017
v -0.09631609916687012 0.7926110029220581 0.4260059893131256
v -0.09631609916687012 0.9727609753608704 0.2458599954843521
v -0.09631609916687012 1.038699984550476 -0.00022222200641408563
v -0.09631609916687012 1.038699984550476 -0.00022222200641408563
v -0.09631609916687012 0.9727609753608704 -0.24631300568580627
v -0.09631609916687012 0.7926110029220581 -0.4264560043811798
v -0.09631580114364624 0.5465250015258789 -0.49239400029182434
v -0.09631580114364624 0.30043599009513855 -0.4264560043811798
v -0.09631580114364624 0.12029299885034561 -0.24631300568580627
v -0.09631580114364624 0.05435439944267273 -0.00022222200641408563
v -0.09631609916687012 0.12029299885034561 0.2458599954843521
v -0.09631609916687012 0.30043599009513855 0.4260059893131256
v -0.09631609916687012 0.5465250015258789 0.49194198846817017
vn -0.9994189739227295 -0.01703689992427826 -0.02950889989733696
vn -0.9994189739227295 -0.0295087993144989 -0.01703689992427826
vn -1 2.7764599508373067e-8 -9.230999964415787e-9
vn 0.2900390028953552 0.8680819869041443 -0.4028779864311218
vn 0.6825140118598938 0.6008870005607605 -0.4160650074481964
vn 0.29003798961639404 0.5503420233726501 -0.7829440236091614
vn 0.619147002696991 0.7852749824523926 8.0314803696524e-9
vn 1 -2.2372500296796716e-8 2.4118200769862597e-9
vn 0.6825140118598938 0.6008870005607605 0.4160650074481964
vn 0.6825129985809326 0.3123509883880615 -0.6607660055160522
vn 0.29003798961639404 0.08513820171356201 -0.953220009803772
vn 0.29003798961639404 -0.7829440236091614 -0.5503420233726501
vn 0.6825140118598938 -0.6607660055160522 -0.3123509883880615
vn 0.29109498858451843 -0.9566940069198608 -2.909430030229032e-8
vn 0.6825140118598938 -0.41606399416923523 -0.6008870005607605
vn 0.2900390028953552 -0.4028779864311218 -0.8680819869041443
vn 0.6825140118598938 -0.05987890064716339 -0.7284160256385803
vn 0.7726259827613831 -0.6348609924316406 1.5041600187615245e-9
vn 0.6825140118598938 -0.6607660055160522 0.3123509883880615
vn 0.29003798961639404 -0.7829440236091614 0.5503420233726501
vn 0.6825140118598938 -0.41606399416923523 0.6008870005607605
vn 0.6825140118598938 -0.05987890064716339 0.7284160256385803
vn 0.6825140118598938 0.3123509883880615 0.6607660055160522
vn 0.2900390028953552 -0.4028779864311218 0.8680819869041443
vn 0.29003798961639404 0.08513820171356201 0.953220009803772
vn 0.29003798961639404 0.5503420233726501 0.7829440236091614
vn 0.2900390028953552 0.8680819869041443 0.4028779864311218
vn 0.2910969853401184 0.9566940069198608 2.3776699720201577e-8
vn -0.9994189739227295 -0.03407390043139458 4.237260142758714e-8
vn -0.9994189739227295 -0.02950889989733696 0.017037000507116318
vn -0.9994189739227295 -0.017037000507116318 0.02950889989733696
vn -0.9994189739227295 2.0826199431667192e-8 0.03407390043139458
vn -0.9994189739227295 0.017037000507116318 0.02950889989733696
vn -0.9994189739227295 0.02950889989733696 0.017037000507116318
vn -0.9994189739227295 0.03407390043139458 -5.942679948134355e-8
vn -0.9994189739227295 0.02950889989733696 -0.017037000507116318
vn -0.9994189739227295 0.017037000507116318 -0.02950889989733696
vn -0.9994189739227295 7.409850155681852e-8 -0.03407390043139458
vt 0.956059992313385 0.026579976081848145
vt 0.9495049715042114 0.17862701416015625
vt 0.5115309953689575 0.027414977550506592
vt 0.4998820126056671 0.9282969981431961
vt 0.48086100816726685 0.9118241965770721
vt 0.8619210124015808 0.7472769916057587
vt 0.005327099934220314 0.9755335003137589
vt 0.005326809827238321 0.5
vt 0.48086100816726685 0.9118241965770721
vt 0.8289750218391418 0.7377670109272003
vt 0.9944369792938232 0.5
vt 0.4998820126056671 0.07170301675796509
vt 0.48086100816726685 0.08817601203918457
vt 0.005326750222593546 0.005445003509521484
vt 0.8289750218391418 0.26223301887512207
vt 0.8619210124015808 0.25272297859191895
vt 0.9563940167427063 0.5
vt 0.005326780024915934 0.024465978145599365
vt 0.48086100816726685 0.08817601203918457
vt 0.4998820126056671 0.07170301675796509
vt 0.8289750218391418 0.26223301887512207
vt 0.9563940167427063 0.5
vt 0.8289750218391418 0.7377670109272003
vt 0.8619210124015808 0.25272297859191895
vt 0.9944369792938232 0.5
vt 0.8619210124015808 0.7472769916057587
vt 0.4998820126056671 0.9282969981431961
vt 0.005327099934220314 0.9945549401454628
vt 0.956063985824585 0.026618003845214844
vt 0.9495049715042114 0.17862701416015625
vt 0.956059992313385 0.026579976081848145
vt 0.9495049715042114 0.17862701416015625
vt 0.9560440182685852 0.02658402919769287
vt 0.9495049715042114 0.17862600088119507
vt 0.9560520052909851 0.026592016220092773
vt 0.9495049715042114 0.17862600088119507
vt 0.9560440182685852 0.02658402919769287
vt 0.9495049715042114 0.17862701416015625
g Geoset0
s 1
usemtl mat_orcshield03
f 1/1/1 2/2/2 3/3/3
f 4/4/4 5/5/5 6/6/6
f 7/7/7 5/5/5 4/4/4
f 8/8/8 7/7/7 9/9/9
f 7/7/7 8/8/8 5/5/5
f 5/5/5 8/8/8 10/10/10
f 5/5/5 10/10/10 6/6/6
f 6/6/6 10/10/10 11/11/11
f 12/12/12 13/13/13 14/14/14
f 15/15/15 13/13/13 12/12/12
f 16/16/16 15/15/15 12/12/12
f 10/10/10 17/17/17 11/11/11
f 10/10/10 8/8/8 17/17/17
f 11/11/11 17/17/17 16/16/16
f 17/17/17 15/15/15 16/16/16
f 17/17/17 8/8/8 15/15/15
f 15/15/15 8/8/8 13/13/13
f 13/13/13 8/8/8 18/18/18
f 13/13/13 18/18/18 14/14/14
f 18/18/18 19/19/19 14/14/14
f 19/19/19 20/20/20 14/14/14
f 19/19/19 21/21/21 20/20/20
f 8/8/8 19/19/19 18/18/18
f 8/8/8 21/21/21 19/19/19
f 8/8/8 22/22/22 21/21/21
f 8/8/8 23/23/23 22/22/22
f 8/8/8 9/9/9 23/23/23
f 21/21/21 24/24/24 20/20/20
f 21/21/21 22/22/22 24/24/24
f 22/22/22 25/25/25 24/24/24
f 22/22/22 23/23/23 25/25/25
f 23/23/23 26/26/26 25/25/25
f 23/23/23 9/9/9 26/26/26
f 9/9/9 27/27/27 26/26/26
f 9/9/9 7/7/7 27/27/27
f 7/7/7 28/28/28 27/27/27
f 28/28/28 7/7/7 4/4/4
f 2/2/2 29/29/29 3/3/3
f 29/29/29 30/30/30 3/3/3
f 30/30/30 31/31/31 3/3/3
f 31/31/31 32/32/32 3/3/3
f 32/32/32 33/33/33 3/3/3
f 33/33/33 34/34/34 3/3/3
f 35/35/35 36/36/36 3/3/3
f 34/34/34 35/35/35 3/3/3
f 36/36/36 37/37/37 3/3/3
f 37/37/37 38/38/38 3/3/3
f 38/38/38 1/1/1 3/3/3