# Exported using wow.export v0.1.49
o 
mtllib butterflywhite01.mtl
v 0.1449252814054489 1.6427055597305298 -2.010716676712036
v -0.05640777572989464 1.6427055597305298 -1.9905444383621216
v -0.05640777572989464 1.646233320236206 -1.8224750757217407
v 0.1449252814054489 1.646233320236206 -1.802308440208435
v 0.1449252814054489 1.6444722414016724 -1.9065083265304565
v -0.05640777572989464 1.6444722414016724 -1.9065083265304565
vn -0.0016965949907898903 0.9998551607131958 -0.016935056075453758
vn -0.00084838637849316 0.9998197555541992 -0.018966449424624443
vn 0.0008480717078782618 0.9998197555541992 -0.01896652765572071
vn 0.0016963131492957473 0.9998551607131958 -0.016935056075453758
vn -1.5733536429252126e-7 0.9998201131820679 -0.018966495990753174
vn -1.7374688354721002e-7 0.9997795224189758 -0.020997829735279083
vt 0.9677419066429138 0.0158730149269104
vt 0.9677419066429138 0.9841269850730896
vt 0.9677419066429138 0.9841269850730896
vt 0.9677419066429138 0.0158730149269104
vt 0.032258063554763794 0.0158730149269104
vt 0.032258063554763794 0.9841269850730896
g Geoset0
s 1
usemtl mat_butterflywingwhite01
f 5/5/5 1/1/1 2/2/2
f 5/5/5 3/3/3 4/4/4
f 3/3/3 5/5/5 6/6/6
f 2/2/2 6/6/6 5/5/5