# Exported using wow.export v0.1.49
o 
mtllib butterflyorange01.mtl
v 0.1449252814054489 1.6427055597305298 -2.010716676712036
v -0.05640777572989464 1.6427055597305298 -2.010716676712036
v -0.05640777572989464 1.646233320236206 -1.802308440208435
v 0.1449252814054489 1.646233320236206 -1.802308440208435
v 0.1449252814054489 1.6444722414016724 -1.9065083265304565
v -0.05640777572989464 1.6444722414016724 -1.9065083265304565
vn -1.7375725747115212e-7 0.9998565912246704 -0.016935080289840698
vn -1.7375725747115212e-7 0.9998565912246704 -0.016935080289840698
vn -1.7375725747115212e-7 0.9998565912246704 -0.016935080289840698
vn -1.7375725747115212e-7 0.9998565912246704 -0.016935080289840698
vn -1.7375725747115212e-7 0.9998565912246704 -0.016935080289840698
vn -1.7375725747115212e-7 0.9998565912246704 -0.016935080289840698
vt 0.9677419066429138 0.0158730149269104
vt 0.9677419066429138 0.9841269850730896
vt 0.9677419066429138 0.9841269850730896
vt 0.9677419066429138 0.0158730149269104
vt 0.032258063554763794 0.0158730149269104
vt 0.032258063554763794 0.9841269850730896
g Geoset0
s 1
usemtl mat_butterflywingorange01
f 5/5/5 1/1/1 2/2/2
f 5/5/5 3/3/3 4/4/4
f 3/3/3 5/5/5 6/6/6
f 2/2/2 6/6/6 5/5/5