# Exported using wow.export v0.1.49
o 
mtllib tombstone05.mtl
v 0.21944445371627808 0 0.5083333849906921
v 0.21944445371627808 0 -0.5083333849906921
v 0.17279088497161865 1.4504567384719849 -0.4538690745830536
v -0.17279091477394104 1.407523512840271 0.4538690745830536
v -0.17279091477394104 1.4504567384719849 -0.4538690745830536
v -0.21944445371627808 0 -0.5083333849906921
v -0.21944445371627808 0 0.5083333849906921
v 0.17279088497161865 1.407523512840271 0.4538690745830536
v 0.17279088497161865 1.4504567384719849 -0.4538690745830536
v -0.17279091477394104 1.4504567384719849 -0.4538690745830536
v -0.17279091477394104 1.407523512840271 0.4538690745830536
v -0.21944445371627808 0 0.5083333849906921
v 0.21944445371627808 0 0.5083333849906921
v -0.21944445371627808 0 -0.5083333849906921
v 0.21944445371627808 0 -0.5083333849906921
v -0.17279091477394104 1.4504567384719849 -0.4538690745830536
v 0.17279088497161865 1.4504567384719849 -0.4538690745830536
v 0.17279088497161865 1.407523512840271 0.4538690745830536
vn 0.6819400787353516 -0.646824061870575 0.3414328098297119
vn 0.415355384349823 -0.3710232377052307 -0.8305550217628479
vn 0.8084838390350342 0.4456089437007904 -0.3844301104545593
vn -0.7957525849342346 0.43899911642074585 0.4172021448612213
vn -0.3322502672672272 0.6997162699699402 -0.6324610114097595
vn -0.6819925308227539 -0.647302508354187 -0.34041982889175415
vn -0.41556575894355774 -0.369865357875824 0.8309661149978638
vn 0.3187587261199951 0.6724063158035278 0.6680288910865784
vn 0.8084838390350342 0.4456089437007904 -0.3844301104545593
vn -0.3322502672672272 0.6997162699699402 -0.6324610114097595
vn -0.7957525849342346 0.43899911642074585 0.4172021448612213
vn -0.41556575894355774 -0.369865357875824 0.8309661149978638
vn 0.6819400787353516 -0.646824061870575 0.3414328098297119
vn -0.6819925308227539 -0.647302508354187 -0.34041982889175415
vn 0.415355384349823 -0.3710232377052307 -0.8305550217628479
vn -0.3322502672672272 0.6997162699699402 -0.6324610114097595
vn 0.8084838390350342 0.4456089437007904 -0.3844301104545593
vn 0.3187587261199951 0.6724063158035278 0.6680288910865784
vt 0.007874015718698502 0.007874011993408203
vt 0.748031497001648 0.007874011993408203
vt 0.748031497001648 0.9921259880065918
vt 0.748031497001648 0.9921259880065918
vt 0.007874011993408203 0.9921259880065918
vt 0.007874011993408203 0.007874011993408203
vt 0.748031497001648 0.007874011993408203
vt 0.7637795209884644 0.9921259880065918
vt 0.7637795209884644 0.007874011993408203
vt 0.9921259880065918 0.007874011993408203
vt 0.9921259880065918 0.9921259880065918
vt 0.9921259880065918 0.015748023986816406
vt 0.7637795209884644 0.015748023986816406
vt 0.9921259880065918 0.015748023986816406
vt 0.7637795209884644 0.015748023986816406
vt 0.9921259880065918 0.9921259880065918
vt 0.7637795209884644 0.9921259880065918
vt 0.007874015718698502 0.9921259880065918
g Geoset0
s 1
usemtl mat_tombstone05
f 1/1/1 2/2/2 3/3/3
f 4/4/4 5/5/5 6/6/6
f 6/6/6 7/7/7 4/4/4
f 8/8/8 9/9/9 10/10/10
f 10/10/10 11/11/11 8/8/8
f 8/8/8 11/11/11 12/12/12
f 12/12/12 13/13/13 8/8/8
f 13/13/13 12/12/12 14/14/14
f 14/14/14 15/15/15 13/13/13
f 15/15/15 14/14/14 16/16/16
f 16/16/16 17/17/17 15/15/15
f 3/3/3 18/18/18 1/1/1