# Exported using wow.export v0.1.49
o 
mtllib woodcross02.mtl
v -0.038062434643507004 0.9648998975753784 -0.23512479662895203
v -0.014483352191746235 0.8813572525978088 -0.38613200187683105
v -0.11186710745096207 0.8813572525978088 -0.36896055936813354
v 0.001467083697207272 0.9466465711593628 0.35378962755203247
v 0.1196042075753212 0.9334407448768616 0.34200698137283325
v 0.05423130467534065 0.9859917163848877 0.22406260669231415
v -0.0029304679483175278 0.6836985349655151 0.22934511303901672
v 0.09175453335046768 0.66908198595047 0.22691698372364044
v -0.08681757748126984 0.6146116852760315 -0.16817790269851685
v 0.0027867064345628023 0.6227865219116211 -0.1783255785703659
v -0.11186710745096207 0.8813572525978088 -0.36896055936813354
v -0.014483352191746235 0.8813572525978088 -0.38613200187683105
v 0.05253617465496063 1.104990005493164 -0.38450899720191956
v 0.003093166509643197 1.063500165939331 -0.25464534759521484
v -0.04634987935423851 1.104990005493164 -0.38450902700424194
v 0.03345872461795807 1.39429771900177 -0.27948179841041565
v -0.056546423584222794 1.400753378868103 -0.2869740128517151
v 0.05070522055029869 1.4728413820266724 0.130083367228508
v -0.0429629422724247 1.455086350440979 0.12029457092285156
v 0.05814652517437935 1.2620086669921875 0.3524426817893982
v -0.060241833329200745 1.2469465732574463 0.3472536504268646
v 0.014247655868530273 1.1862984895706177 0.2453307807445526
v 0.05070522055029869 1.4728413820266724 0.130083367228508
v 0.05814652517437935 1.2620086669921875 0.3524426817893982
v 0.014247655868530273 1.1862984895706177 0.2453307807445526
v 0.031489983201026917 1.3170896768569946 0.04421359300613403
v 0.03345872461795807 1.39429771900177 -0.27948179841041565
v -0.024529481306672096 1.2687382698059082 -0.17070843279361725
v 0.05253617465496063 1.104990005493164 -0.38450899720191956
v 0.003093166509643197 1.063500165939331 -0.25464534759521484
v -0.04634987935423851 1.104990005493164 -0.38450902700424194
v -0.056546423584222794 1.400753378868103 -0.2869740128517151
v -0.0429629422724247 1.455086350440979 0.12029457092285156
v -0.060241833329200745 1.2469465732574463 0.3472536504268646
v 0.09175453335046768 0.66908198595047 0.22691698372364044
v 0.05423130467534065 0.9859917163848877 0.22406260669231415
v 0.1196042075753212 0.9334407448768616 0.34200698137283325
v 0.05142815411090851 0.7973017692565918 0.10887082666158676
v 0.0027867064345628023 0.6227865219116211 -0.1783255785703659
v -0.04171883314847946 0.7722201943397522 -0.09678871184587479
v -0.014483352191746235 0.8813572525978088 -0.38613200187683105
v -0.038062434643507004 0.9648998975753784 -0.23512479662895203
v -0.0029304679483175278 0.6836985349655151 0.22934511303901672
v 0.001467083697207272 0.9466465711593628 0.35378962755203247
v -0.08681757748126984 0.6146116852760315 -0.16817790269851685
v -0.11186710745096207 0.8813572525978088 -0.36896055936813354
v -0.06542190164327621 1.0828903913497925 -0.07090014964342117
v 0.0654929056763649 1.093189001083374 -0.07177461683750153
v 0.06549293547868729 -0.29885831475257874 -0.0659739151597023
v -0.06527910381555557 -0.29885831475257874 -0.0660535916686058
v -0.0654928982257843 1.0639570951461792 0.06323465704917908
v -0.0654928982257843 -0.29885831475257874 0.06597384065389633
v 0.0654929056763649 1.1011886596679688 0.05997729301452637
v 0.06549294292926788 -0.29885831475257874 0.06597385555505753
v -0.0654929131269455 1.7352831363677979 -0.02750260755419731
v 0.06549284607172012 1.7352831363677979 -0.027502620592713356
v 0.0015872789081186056 2.0086588859558105 -0.027219528332352638
v 0.0654929131269455 1.7686809301376343 -0.162832573056221
v -0.0654929131269455 1.7686809301376343 -0.16283254325389862
vn 0.13584288954734802 0.9036514759063721 0.4061535596847534
vn 0.5474411845207214 0.1684412658214569 -0.8197168707847595
vn -0.7483507990837097 0.19233913719654083 -0.6348045468330383
vn -0.6244652271270752 0.3843214809894562 0.6799560189247131
vn 0.7718443274497986 0.26944583654403687 0.5758951902389526
vn -0.004137250129133463 0.8201226592063904 -0.5721728205680847
vn -0.720331609249115 -0.48555830121040344 0.49533379077911377
vn 0.660236656665802 -0.6388446092605591 0.39492419362068176
vn -0.6860145926475525 -0.7089022994041443 -0.16383399069309235
vn 0.6542185544967651 -0.6382824778556824 -0.40570133924484253
vn -0.7483507990837097 0.19233913719654083 -0.6348045468330383
vn 0.5474411845207214 0.1684412658214569 -0.8197168707847595
vn 0.7019928097724915 -0.3572472631931305 -0.616101086139679
vn 0.06515873223543167 -0.7915082573890686 0.6076750755310059
vn -0.6414254307746887 -0.3967812955379486 -0.6566110253334045
vn 0.7119011282920837 0.518647313117981 -0.4734994173049927
vn -0.6465598344802856 0.588345468044281 -0.4856027662754059
vn 0.591535747051239 0.7631912231445312 0.26004746556282043
vn -0.8068081140518188 0.566241979598999 0.1686139553785324
vn 0.6488693356513977 -0.039406634867191315 0.7598787546157837
vn -0.7247632741928101 -0.19656993448734283 0.6603624224662781
vn 0.1074943095445633 -0.9513017535209656 -0.2889115810394287
vn 0.591535747051239 0.7631912231445312 0.26004746556282043
vn 0.6488693356513977 -0.039406634867191315 0.7598787546157837
vn 0.1074943095445633 -0.9513017535209656 -0.2889115810394287
vn 0.27217334508895874 -0.9537947773933411 -0.12726826965808868
vn 0.7119011282920837 0.518647313117981 -0.4734994173049927
vn -0.2604399025440216 -0.6583238840103149 0.7062441110610962
vn 0.7019928097724915 -0.3572472631931305 -0.616101086139679
vn 0.06515873223543167 -0.7915082573890686 0.6076750755310059
vn -0.6414254307746887 -0.3967812955379486 -0.6566110253334045
vn -0.6465598344802856 0.588345468044281 -0.4856027662754059
vn -0.8068081140518188 0.566241979598999 0.1686139553785324
vn -0.7247632741928101 -0.19656993448734283 0.6603624224662781
vn 0.660236656665802 -0.6388446092605591 0.39492419362068176
vn -0.004137250129133463 0.8201226592063904 -0.5721728205680847
vn 0.7718443274497986 0.26944583654403687 0.5758951902389526
vn 0.19901719689369202 0.8286413550376892 -0.5232070684432983
vn 0.6542185544967651 -0.6382824778556824 -0.40570133924484253
vn -0.19469822943210602 0.8526124954223633 0.4849170446395874
vn 0.5474411845207214 0.1684412658214569 -0.8197168707847595
vn 0.13584288954734802 0.9036514759063721 0.4061535596847534
vn -0.720331609249115 -0.48555830121040344 0.49533379077911377
vn -0.6244652271270752 0.3843214809894562 0.6799560189247131
vn -0.6860145926475525 -0.7089022994041443 -0.16383399069309235
vn -0.7483507990837097 0.19233913719654083 -0.6348045468330383
vn -0.722255527973175 -0.04528331011533737 -0.6901422739028931
vn 0.721569836139679 -0.04980015382170677 -0.6905482411384583
vn 0.7081104516983032 -0.002504625590518117 -0.7060972452163696
vn -0.7071065902709961 -0.0024831020273268223 -0.7071026563644409
vn -0.6893603205680847 0.041557107120752335 0.7232256531715393
vn -0.7067147493362427 0.0029372067656368017 0.7074925303459167
vn 0.6928054094314575 0.058751609176397324 0.7187272906303406
vn 0.7061407566070557 0.0030327276326715946 0.7080650329589844
vn -0.7328022718429565 0.11902623623609543 0.6699504852294922
vn 0.7325496077537537 0.11579679697751999 0.6707921624183655
vn 0.005533744115382433 0.9670459628105164 0.2545417547225952
vn 0.6665346026420593 0.2021973580121994 -0.7175289392471313
vn -0.6674723029136658 0.20507417619228363 -0.7158389091491699
vt 0.599250078201294 0.3588027358055115
vt 0.5033987760543823 0.49275046586990356
vt 0.6045618057250977 0.49275046586990356
vt 0.5028769969940186 0.4923250079154968
vt 0.6044449210166931 0.4923250079154968
vt 0.5727372169494629 0.42262864112854004
vt 0.5028769969940186 0.3366168737411499
vt 0.6044449210166931 0.3366168737411499
vt 0.5028769969940186 0.14788001775741577
vt 0.6044449210166931 0.14788001775741577
vt 0.5028769969940186 0.011045694351196289
vt 0.6044449210166931 0.011045694351196289
vt 0.6128804683685303 0.015839040279388428
vt 0.5572741627693176 0.2500663995742798
vt 0.5051404237747192 0.015839040279388428
vt 0.6128804683685303 0.150202214717865
vt 0.5051404237747192 0.150202214717865
vt 0.6128804683685303 0.33553069829940796
vt 0.5051404237747192 0.33553069829940796
vt 0.6128804683685303 0.48842668533325195
vt 0.5051404237747192 0.48842668533325195
vt 0.5345699787139893 0.2560023069381714
vt 0.6108093857765198 0.16797494888305664
vt 0.6108093857765198 0.017760813236236572
vt 0.5040424466133118 0.017760813236236572
vt 0.5040424466133118 0.16797494888305664
vt 0.6108093857765198 0.35232871770858765
vt 0.5040424466133118 0.35232871770858765
vt 0.6108093857765198 0.48433512449264526
vt 0.5040424466133118 0.48433512449264526
vt 0.6108093857765198 0.48433512449264526
vt 0.6108093857765198 0.35232871770858765
vt 0.6108093857765198 0.16797494888305664
vt 0.6108093857765198 0.017760813236236572
vt 0.608555018901825 0.1670864224433899
vt 0.5031984448432922 0.011461973190307617
vt 0.608555018901825 0.011461973190307617
vt 0.5031984448432922 0.1670864224433899
vt 0.608555018901825 0.3580799102783203
vt 0.5031984448432922 0.3580799102783203
vt 0.608555018901825 0.49484074115753174
vt 0.5031984448432922 0.49484074115753174
vt 0.608555018901825 0.1670864224433899
vt 0.608555018901825 0.011461973190307617
vt 0.608555018901825 0.3580799102783203
vt 0.608555018901825 0.49484074115753174
vt 0.5048794150352478 0.25053179264068604
vt 0.6109526753425598 0.25068479776382446
vt 0.6105973124504089 0.009578526020050049
vt 0.5048794150352478 0.009578526020050049
vt 0.6109526753425598 0.25079506635665894
vt 0.6105973124504089 0.009578526020050049
vt 0.5048794150352478 0.250732421875
vt 0.5048794150352478 0.009578526020050049
vt 0.6109526753425598 0.4656827449798584
vt 0.5051249265670776 0.4656827449798584
vt 0.5545687079429626 0.4931046962738037
vt 0.6109526753425598 0.4656827449798584
vt 0.5051249265670776 0.4656827449798584
g Geoset0
s 1
usemtl mat_cemetery01
f 1/1/1 2/2/2 3/3/3
f 4/4/4 5/5/5 6/6/6
f 7/7/7 5/5/5 4/4/4
f 5/5/5 7/7/7 8/8/8
f 9/9/9 8/8/8 7/7/7
f 8/8/8 9/9/9 10/10/10
f 11/11/11 10/10/10 9/9/9
f 10/10/10 11/11/11 12/12/12
f 13/13/13 14/14/14 15/15/15
f 16/16/16 13/13/13 15/15/15
f 15/15/15 17/17/17 16/16/16
f 18/18/18 16/16/16 17/17/17
f 17/17/17 19/19/19 18/18/18
f 20/20/20 18/18/18 19/19/19
f 19/19/19 21/21/21 20/20/20
f 21/21/21 22/22/22 20/20/20
f 23/23/23 24/24/24 25/25/25
f 25/25/25 26/26/26 23/23/23
f 27/27/27 23/23/23 26/26/26
f 26/26/26 28/28/28 27/27/27
f 29/29/29 27/27/27 28/28/28
f 28/28/28 30/30/30 29/29/29
f 31/31/31 30/30/30 28/28/28
f 28/28/28 32/32/32 31/31/31
f 32/32/32 28/28/28 26/26/26
f 26/26/26 33/33/33 32/32/32
f 33/33/33 26/26/26 25/25/25
f 25/25/25 34/34/34 33/33/33
f 35/35/35 36/36/36 37/37/37
f 36/36/36 35/35/35 38/38/38
f 39/39/39 38/38/38 35/35/35
f 38/38/38 39/39/39 40/40/40
f 41/41/41 40/40/40 39/39/39
f 40/40/40 41/41/41 42/42/42
f 36/36/36 43/43/43 44/44/44
f 43/43/43 36/36/36 38/38/38
f 38/38/38 45/45/45 43/43/43
f 45/45/45 38/38/38 40/40/40
f 40/40/40 46/46/46 45/45/45
f 46/46/46 40/40/40 42/42/42
f 47/47/47 48/48/48 49/49/49
f 49/49/49 50/50/50 47/47/47
f 51/51/51 47/47/47 50/50/50
f 50/50/50 52/52/52 51/51/51
f 53/53/53 51/51/51 52/52/52
f 52/52/52 54/54/54 53/53/53
f 47/47/47 51/51/51 55/55/55
f 56/56/56 55/55/55 51/51/51
f 51/51/51 53/53/53 56/56/56
f 57/57/57 58/58/58 59/59/59
f 59/59/59 58/58/58 48/48/48
f 48/48/48 47/47/47 59/59/59
f 54/54/54 49/49/49 48/48/48
f 48/48/48 53/53/53 54/54/54
f 53/53/53 48/48/48 58/58/58
f 58/58/58 56/56/56 53/53/53
f 57/57/57 56/56/56 58/58/58
f 57/57/57 55/55/55 56/56/56
f 57/57/57 59/59/59 55/55/55
f 55/55/55 59/59/59 47/47/47